G04 ================== begin FILE IDENTIFICATION RECORD ==================*
G04 Layout Name:  sensor_board_routing.brd*
G04 Film Name:    1_TOP*
G04 File Format:  Gerber RS274X*
G04 File Origin:  Cadence Allegro 17.4-S017*
G04 Origin Date:  Mon Sep 27 18:23:25 2021*
G04 *
G04 Layer:  VIA CLASS/TOP*
G04 Layer:  PIN/TOP*
G04 Layer:  ETCH/TOP*
G04 *
G04 Offset:    (0.0000 0.0000)*
G04 Mirror:    No*
G04 Mode:      Positive*
G04 Rotation:  0*
G04 FullContactRelief:  No*
G04 UndefLineWidth:     0.2500*
G04 ================== end FILE IDENTIFICATION RECORD ====================*
%FSAX35Y35*MOMM*%
%IR0*IPPOS*OFA0.00000B0.00000*MIA0B0*SFA1.00000B1.00000*%
%ADD14C,.5*%
%ADD11C,1.27*%
%ADD12C,1.4732*%
%ADD10R,1.27X1.27*%
%ADD13R,1.4732X1.4732*%
%ADD15C,.25*%
%ADD18C,7.0004*%
%ADD17C,1.5244*%
%ADD16C,1.7276*%
G75*
%LPD*%
G75*
G36*
G01X04349990Y03999990D02*
X04349990Y-07149990D01*
X-06349990Y-07149990D01*
X-06349990Y03999990D01*
X04349990Y03999990D01*
G37*
%LPC*%
G75*
G36*
G01X-00716220Y02339450D02*
X-00716220Y02443500D01*
G02X-00703500Y02456220I00012720J0D01*
G01X-00576500Y02456220D01*
G02X-00563780Y02443500I0J-00012720D01*
G01X-00563780Y02316500D01*
G02X-00576500Y02303780I-00012720J0D01*
G01X-00680550Y02303780D01*
X-01131780Y01852550D01*
X-01131780Y01680620D01*
G02X-01131780Y01515380I-00025225J-00082620D01*
G01X-01131780Y01418000D01*
G02X-01139170Y01400170I-00025218J00000006D01*
G01X-01374780Y01164550D01*
X-01374780Y00828050D01*
G02X-01362280Y00800000I-00025222J-00028050D01*
G02X-01437720Y00800000I-00037720J0D01*
G02X-01425220Y00828050I00037722J0D01*
G01X-01425220Y01175000D01*
G02X-01417830Y01192830I00025218J-00000006D01*
G01X-01182220Y01428450D01*
X-01182220Y01515380D01*
G02X-01182220Y01680620I00025225J00082620D01*
G01X-01182220Y01863000D01*
G02X-01174830Y01880830I00025218J-00000006D01*
G01X-00716220Y02339450D01*
G37*
G36*
G01X-01116220Y02339450D02*
X-01116220Y02443500D01*
G02X-01103500Y02456220I00012720J0D01*
G01X-00976500Y02456220D01*
G02X-00963780Y02443500I0J-00012720D01*
G01X-00963780Y02316500D01*
G02X-00976500Y02303780I-00012720J0D01*
G01X-01080550Y02303780D01*
X-01385780Y01998550D01*
X-01385780Y01680620D01*
G02X-01385780Y01515380I-00025225J-00082620D01*
G01X-01385780Y01264000D01*
G02X-01393170Y01246170I-00025218J00000006D01*
G01X-01449780Y01189550D01*
X-01449780Y-00146950D01*
G02X-01437280Y-00175000I-00025222J-00028050D01*
G02X-01512720Y-00175000I-00037720J0D01*
G02X-01500220Y-00146950I00037722J0D01*
G01X-01500220Y01200000D01*
G02X-01492830Y01217830I00025218J-00000006D01*
G01X-01436220Y01274450D01*
X-01436220Y01515380D01*
G02X-01436220Y01680620I00025225J00082620D01*
G01X-01436220Y02009000D01*
G02X-01428830Y02026830I00025218J-00000006D01*
G01X-01116220Y02339450D01*
G37*
G36*
G01X-01516220Y02339450D02*
X-01516220Y02443500D01*
G02X-01503500Y02456220I00012720J0D01*
G01X-01376500Y02456220D01*
G02X-01363780Y02443500I0J-00012720D01*
G01X-01363780Y02316500D01*
G02X-01376500Y02303780I-00012720J0D01*
G01X-01480550Y02303780D01*
X-01639780Y02144550D01*
X-01639780Y01680620D01*
G02X-01639780Y01515380I-00025225J-00082620D01*
G01X-01639780Y01350450D01*
X-01532170Y01242830D01*
G02X-01524780Y01225000I-00017828J-00017836D01*
G01X-01524780Y-01196950D01*
G02X-01512280Y-01225000I-00025222J-00028050D01*
G02X-01587720Y-01225000I-00037720J0D01*
G02X-01575220Y-01196950I00037722J0D01*
G01X-01575220Y01214550D01*
X-01682830Y01322170D01*
G02X-01690220Y01340000I00017828J00017836D01*
G01X-01690220Y01515380D01*
G02X-01690220Y01680620I00025225J00082620D01*
G01X-01690220Y02155000D01*
G02X-01682830Y02172830I00025218J-00000006D01*
G01X-01516220Y02339450D01*
G37*
G36*
G01X-01916220Y02339450D02*
X-01916220Y02443500D01*
G02X-01903500Y02456220I00012720J0D01*
G01X-01776500Y02456220D01*
G02X-01763780Y02443500I0J-00012720D01*
G01X-01763780Y02316500D01*
G02X-01776500Y02303780I-00012720J0D01*
G01X-01880550Y02303780D01*
X-01893780Y02290550D01*
X-01893780Y01680620D01*
G02X-01893780Y01515380I-00025225J-00082620D01*
G01X-01893780Y01504450D01*
X-01607370Y01218030D01*
G02X-01599980Y01200200I-00017828J-00017836D01*
G01X-01599980Y-02121620D01*
X-01599950Y-02121910D01*
G02X-01599780Y-02124800I-00025048J-00002923D01*
G01X-01599780Y-02146950D01*
G02X-01587280Y-02175000I-00025222J-00028050D01*
G02X-01662720Y-02175000I-00037720J0D01*
G02X-01650220Y-02146950I00037722J0D01*
G01X-01650220Y-02127780D01*
X-01650250Y-02127490D01*
G02X-01650420Y-02124600I00025048J00002923D01*
G01X-01650420Y01189750D01*
X-01936830Y01476170D01*
G02X-01944220Y01494000I00017828J00017836D01*
G01X-01944220Y01515380D01*
G02X-01944220Y01680620I00025225J00082620D01*
G01X-01944220Y02301000D01*
G02X-01936830Y02318830I00025218J-00000006D01*
G01X-01916220Y02339450D01*
G37*
G36*
G01X-02316220Y02316500D02*
X-02316220Y02443500D01*
G02X-02303500Y02456220I00012720J0D01*
G01X-02176500Y02456220D01*
G02X-02163780Y02443500I0J-00012720D01*
G01X-02163780Y02316500D01*
G02X-02176500Y02303780I-00012720J0D01*
G01X-02192290Y02303780D01*
G03X-02199470Y02286440I00000006J-00010159D01*
G01X-02155170Y02242130D01*
G02X-02147780Y02224300I-00017828J-00017836D01*
G01X-02147780Y01680620D01*
G02X-02147780Y01515380I-00025225J-00082620D01*
G01X-02147780Y01502000D01*
G02X-02155170Y01484170I-00025218J00000006D01*
G01X-02399780Y01239550D01*
X-02399780Y-03196950D01*
G02X-02387280Y-03225000I-00025222J-00028050D01*
G02X-02462720Y-03225000I-00037720J0D01*
G02X-02450220Y-03196950I00037722J0D01*
G01X-02450220Y01250000D01*
G02X-02442830Y01267830I00025218J-00000006D01*
G01X-02207110Y01503550D01*
G03X-02209950Y01519920I-00007184J00007185D01*
G02X-02259380Y01598000I00036953J00078080D01*
G02X-02198220Y01680620I00086385J0D01*
G01X-02198220Y02213850D01*
X-02257830Y02273470D01*
G02X-02265220Y02291300I00017828J00017836D01*
G01X-02265220Y02303780D01*
X-02303500Y02303780D01*
G02X-02316220Y02316500I0J00012720D01*
G37*
G36*
G01X-02716220Y02316500D02*
X-02716220Y02443500D01*
G02X-02703500Y02456220I00012720J0D01*
G01X-02576500Y02456220D01*
G02X-02563780Y02443500I0J-00012720D01*
G01X-02563780Y02339450D01*
X-02409170Y02184830D01*
G02X-02401780Y02167000I-00017828J-00017836D01*
G01X-02401780Y01680620D01*
G02X-02401780Y01515380I-00025225J-00082620D01*
G01X-02401780Y01348000D01*
G02X-02409170Y01330170I-00025218J00000006D01*
G01X-02474780Y01264550D01*
X-02474780Y-04196950D01*
G02X-02462280Y-04225000I-00025222J-00028050D01*
G02X-02537720Y-04225000I-00037720J0D01*
G02X-02525220Y-04196950I00037722J0D01*
G01X-02525220Y01275000D01*
G02X-02517830Y01292830I00025218J-00000006D01*
G01X-02452220Y01358450D01*
X-02452220Y01515380D01*
G02X-02452220Y01680620I00025225J00082620D01*
G01X-02452220Y02156550D01*
X-02599450Y02303780D01*
X-02703500Y02303780D01*
G02X-02716220Y02316500I0J00012720D01*
G37*
G36*
G01X-03116220Y02316500D02*
X-03116220Y02443500D01*
G02X-03103500Y02456220I00012720J0D01*
G01X-02976500Y02456220D01*
G02X-02963780Y02443500I0J-00012720D01*
G01X-02963780Y02339450D01*
X-02663170Y02038830D01*
G02X-02655780Y02021000I-00017828J-00017836D01*
G01X-02655780Y01680620D01*
G02X-02655780Y01515380I-00025225J-00082620D01*
G01X-02655780Y01391450D01*
X-02557170Y01292830D01*
G02X-02549780Y01275000I-00017828J-00017836D01*
G01X-02549780Y-05196950D01*
G02X-02537280Y-05225000I-00025222J-00028050D01*
G02X-02612720Y-05225000I-00037720J0D01*
G02X-02600220Y-05196950I00037722J0D01*
G01X-02600220Y01264550D01*
X-02698830Y01363170D01*
G02X-02706220Y01381000I00017828J00017836D01*
G01X-02706220Y01515380D01*
G02X-02706220Y01680620I00025225J00082620D01*
G01X-02706220Y02010550D01*
X-02999450Y02303780D01*
X-03103500Y02303780D01*
G02X-03116220Y02316500I0J00012720D01*
G37*
G36*
G01X-03516220Y02316500D02*
X-03516220Y02443500D01*
G02X-03503500Y02456220I00012720J0D01*
G01X-03376500Y02456220D01*
G02X-03363780Y02443500I0J-00012720D01*
G01X-03363780Y02339450D01*
X-02917170Y01892830D01*
G02X-02909780Y01875000I-00017828J-00017836D01*
G01X-02909780Y01680620D01*
G02X-02848620Y01598000I-00025225J-00082620D01*
G02X-02880000Y01531400I-00086377J00000006D01*
G03X-02880710Y01516380I00006472J-00007833D01*
G01X-02632170Y01267830D01*
G02X-02624780Y01250000I-00017828J-00017836D01*
G01X-02624780Y-06071950D01*
G02X-02612280Y-06100000I-00025222J-00028050D01*
G02X-02687720Y-06100000I-00037720J0D01*
G02X-02675220Y-06071950I00037722J0D01*
G01X-02675220Y01239550D01*
X-02948300Y01512640D01*
X-02949880Y01512910D01*
G02X-03021380Y01598000I00014882J00085090D01*
G02X-02960220Y01680620I00086385J0D01*
G01X-02960220Y01864550D01*
X-03399450Y02303780D01*
X-03503500Y02303780D01*
G02X-03516220Y02316500I0J00012720D01*
G37*
G36*
G01X03743780Y00936500D02*
X03743780Y01063500D01*
G02X03756500Y01076220I00012720J0D01*
G01X03883500Y01076220D01*
G02X03896220Y01063500I0J-00012720D01*
G01X03896220Y00936500D01*
G02X03883500Y00923780I-00012720J0D01*
G01X03845220Y00923780D01*
X03845220Y00076220D01*
X03883500Y00076220D01*
G02X03896220Y00063500I0J-00012720D01*
G01X03896220Y-00063500D01*
G02X03883500Y-00076220I-00012720J0D01*
G01X03845220Y-00076220D01*
X03845220Y-00923780D01*
X03883500Y-00923780D01*
G02X03896220Y-00936500I0J-00012720D01*
G01X03896220Y-01063500D01*
G02X03883500Y-01076220I-00012720J0D01*
G01X03845220Y-01076220D01*
X03845220Y-01923780D01*
X03883500Y-01923780D01*
G02X03896220Y-01936500I0J-00012720D01*
G01X03896220Y-02063500D01*
G02X03883500Y-02076220I-00012720J0D01*
G01X03845220Y-02076220D01*
X03845220Y-02923780D01*
X03883500Y-02923780D01*
G02X03896220Y-02936500I0J-00012720D01*
G01X03896220Y-03063500D01*
G02X03883500Y-03076220I-00012720J0D01*
G01X03845220Y-03076220D01*
X03845220Y-03923780D01*
X03883500Y-03923780D01*
G02X03896220Y-03936500I0J-00012720D01*
G01X03896220Y-04063500D01*
G02X03883500Y-04076220I-00012720J0D01*
G01X03845220Y-04076220D01*
X03845220Y-04923780D01*
X03883500Y-04923780D01*
G02X03896220Y-04936500I0J-00012720D01*
G01X03896220Y-05063500D01*
G02X03883500Y-05076220I-00012720J0D01*
G01X03845220Y-05076220D01*
X03845220Y-05923780D01*
X03883500Y-05923780D01*
G02X03896220Y-05936500I0J-00012720D01*
G01X03896220Y-06063500D01*
G02X03883500Y-06076220I-00012720J0D01*
G01X03756500Y-06076220D01*
G02X03743780Y-06063500I0J00012720D01*
G01X03743780Y-05936500D01*
G02X03756500Y-05923780I00012720J0D01*
G01X03794780Y-05923780D01*
X03794780Y-05076220D01*
X03756500Y-05076220D01*
G02X03743780Y-05063500I0J00012720D01*
G01X03743780Y-04936500D01*
G02X03756500Y-04923780I00012720J0D01*
G01X03794780Y-04923780D01*
X03794780Y-04076220D01*
X03756500Y-04076220D01*
G02X03743780Y-04063500I0J00012720D01*
G01X03743780Y-03936500D01*
G02X03756500Y-03923780I00012720J0D01*
G01X03794780Y-03923780D01*
X03794780Y-03076220D01*
X03756500Y-03076220D01*
G02X03743780Y-03063500I0J00012720D01*
G01X03743780Y-02936500D01*
G02X03756500Y-02923780I00012720J0D01*
G01X03794780Y-02923780D01*
X03794780Y-02076220D01*
X03756500Y-02076220D01*
G02X03743780Y-02063500I0J00012720D01*
G01X03743780Y-01936500D01*
G02X03756500Y-01923780I00012720J0D01*
G01X03794780Y-01923780D01*
X03794780Y-01076220D01*
X03756500Y-01076220D01*
G02X03743780Y-01063500I0J00012720D01*
G01X03743780Y-00936500D01*
G02X03756500Y-00923780I00012720J0D01*
G01X03794780Y-00923780D01*
X03794780Y-00076220D01*
X03756500Y-00076220D01*
G02X03743780Y-00063500I0J00012720D01*
G01X03743780Y00063500D01*
G02X03756500Y00076220I00012720J0D01*
G01X03794780Y00076220D01*
X03794780Y00923780D01*
X03756500Y00923780D01*
G02X03743780Y00936500I0J00012720D01*
G37*
G36*
G01X02743780Y00936500D02*
X02743780Y01063500D01*
G02X02756500Y01076220I00012720J0D01*
G01X02883500Y01076220D01*
G02X02896220Y01063500I0J-00012720D01*
G01X02896220Y00936500D01*
G02X02883500Y00923780I-00012720J0D01*
G01X02845220Y00923780D01*
X02845220Y00076220D01*
X02883500Y00076220D01*
G02X02896220Y00063500I0J-00012720D01*
G01X02896220Y-00063500D01*
G02X02883500Y-00076220I-00012720J0D01*
G01X02845220Y-00076220D01*
X02845220Y-00923780D01*
X02883500Y-00923780D01*
G02X02896220Y-00936500I0J-00012720D01*
G01X02896220Y-01063500D01*
G02X02883500Y-01076220I-00012720J0D01*
G01X02845220Y-01076220D01*
X02845220Y-01923780D01*
X02883500Y-01923780D01*
G02X02896220Y-01936500I0J-00012720D01*
G01X02896220Y-02063500D01*
G02X02883500Y-02076220I-00012720J0D01*
G01X02845220Y-02076220D01*
X02845220Y-02923780D01*
X02883500Y-02923780D01*
G02X02896220Y-02936500I0J-00012720D01*
G01X02896220Y-03063500D01*
G02X02883500Y-03076220I-00012720J0D01*
G01X02845220Y-03076220D01*
X02845220Y-03923780D01*
X02883500Y-03923780D01*
G02X02896220Y-03936500I0J-00012720D01*
G01X02896220Y-04063500D01*
G02X02883500Y-04076220I-00012720J0D01*
G01X02845220Y-04076220D01*
X02845220Y-04923780D01*
X02883500Y-04923780D01*
G02X02896220Y-04936500I0J-00012720D01*
G01X02896220Y-05063500D01*
G02X02883500Y-05076220I-00012720J0D01*
G01X02845220Y-05076220D01*
X02845220Y-05923780D01*
X02883500Y-05923780D01*
G02X02896220Y-05936500I0J-00012720D01*
G01X02896220Y-06063500D01*
G02X02883500Y-06076220I-00012720J0D01*
G01X02756500Y-06076220D01*
G02X02743780Y-06063500I0J00012720D01*
G01X02743780Y-05936500D01*
G02X02756500Y-05923780I00012720J0D01*
G01X02794780Y-05923780D01*
X02794780Y-05076220D01*
X02756500Y-05076220D01*
G02X02743780Y-05063500I0J00012720D01*
G01X02743780Y-04936500D01*
G02X02756500Y-04923780I00012720J0D01*
G01X02794780Y-04923780D01*
X02794780Y-04076220D01*
X02756500Y-04076220D01*
G02X02743780Y-04063500I0J00012720D01*
G01X02743780Y-03936500D01*
G02X02756500Y-03923780I00012720J0D01*
G01X02794780Y-03923780D01*
X02794780Y-03076220D01*
X02756500Y-03076220D01*
G02X02743780Y-03063500I0J00012720D01*
G01X02743780Y-02936500D01*
G02X02756500Y-02923780I00012720J0D01*
G01X02794780Y-02923780D01*
X02794780Y-02076220D01*
X02756500Y-02076220D01*
G02X02743780Y-02063500I0J00012720D01*
G01X02743780Y-01936500D01*
G02X02756500Y-01923780I00012720J0D01*
G01X02794780Y-01923780D01*
X02794780Y-01076220D01*
X02756500Y-01076220D01*
G02X02743780Y-01063500I0J00012720D01*
G01X02743780Y-00936500D01*
G02X02756500Y-00923780I00012720J0D01*
G01X02794780Y-00923780D01*
X02794780Y-00076220D01*
X02756500Y-00076220D01*
G02X02743780Y-00063500I0J00012720D01*
G01X02743780Y00063500D01*
G02X02756500Y00076220I00012720J0D01*
G01X02794780Y00076220D01*
X02794780Y00923780D01*
X02756500Y00923780D01*
G02X02743780Y00936500I0J00012720D01*
G37*
G36*
G01X01743780Y00936500D02*
X01743780Y01063500D01*
G02X01756500Y01076220I00012720J0D01*
G01X01883500Y01076220D01*
G02X01896220Y01063500I0J-00012720D01*
G01X01896220Y00936500D01*
G02X01883500Y00923780I-00012720J0D01*
G01X01845220Y00923780D01*
X01845220Y00076220D01*
X01883500Y00076220D01*
G02X01896220Y00063500I0J-00012720D01*
G01X01896220Y-00063500D01*
G02X01883500Y-00076220I-00012720J0D01*
G01X01845220Y-00076220D01*
X01845220Y-00923780D01*
X01883500Y-00923780D01*
G02X01896220Y-00936500I0J-00012720D01*
G01X01896220Y-01063500D01*
G02X01883500Y-01076220I-00012720J0D01*
G01X01845220Y-01076220D01*
X01845220Y-01923780D01*
X01883500Y-01923780D01*
G02X01896220Y-01936500I0J-00012720D01*
G01X01896220Y-02063500D01*
G02X01883500Y-02076220I-00012720J0D01*
G01X01845220Y-02076220D01*
X01845220Y-02923780D01*
X01883500Y-02923780D01*
G02X01896220Y-02936500I0J-00012720D01*
G01X01896220Y-03063500D01*
G02X01883500Y-03076220I-00012720J0D01*
G01X01845220Y-03076220D01*
X01845220Y-03923780D01*
X01883500Y-03923780D01*
G02X01896220Y-03936500I0J-00012720D01*
G01X01896220Y-04063500D01*
G02X01883500Y-04076220I-00012720J0D01*
G01X01845220Y-04076220D01*
X01845220Y-04923780D01*
X01883500Y-04923780D01*
G02X01896220Y-04936500I0J-00012720D01*
G01X01896220Y-05063500D01*
G02X01883500Y-05076220I-00012720J0D01*
G01X01845220Y-05076220D01*
X01845220Y-05923780D01*
X01883500Y-05923780D01*
G02X01896220Y-05936500I0J-00012720D01*
G01X01896220Y-06063500D01*
G02X01883500Y-06076220I-00012720J0D01*
G01X01756500Y-06076220D01*
G02X01743780Y-06063500I0J00012720D01*
G01X01743780Y-05936500D01*
G02X01756500Y-05923780I00012720J0D01*
G01X01794780Y-05923780D01*
X01794780Y-05076220D01*
X01756500Y-05076220D01*
G02X01743780Y-05063500I0J00012720D01*
G01X01743780Y-04936500D01*
G02X01756500Y-04923780I00012720J0D01*
G01X01794780Y-04923780D01*
X01794780Y-04076220D01*
X01756500Y-04076220D01*
G02X01743780Y-04063500I0J00012720D01*
G01X01743780Y-03936500D01*
G02X01756500Y-03923780I00012720J0D01*
G01X01794780Y-03923780D01*
X01794780Y-03076220D01*
X01756500Y-03076220D01*
G02X01743780Y-03063500I0J00012720D01*
G01X01743780Y-02936500D01*
G02X01756500Y-02923780I00012720J0D01*
G01X01794780Y-02923780D01*
X01794780Y-02076220D01*
X01756500Y-02076220D01*
G02X01743780Y-02063500I0J00012720D01*
G01X01743780Y-01936500D01*
G02X01756500Y-01923780I00012720J0D01*
G01X01794780Y-01923780D01*
X01794780Y-01076220D01*
X01756500Y-01076220D01*
G02X01743780Y-01063500I0J00012720D01*
G01X01743780Y-00936500D01*
G02X01756500Y-00923780I00012720J0D01*
G01X01794780Y-00923780D01*
X01794780Y-00076220D01*
X01756500Y-00076220D01*
G02X01743780Y-00063500I0J00012720D01*
G01X01743780Y00063500D01*
G02X01756500Y00076220I00012720J0D01*
G01X01794780Y00076220D01*
X01794780Y00923780D01*
X01756500Y00923780D01*
G02X01743780Y00936500I0J00012720D01*
G37*
G36*
G01X00743780Y00936500D02*
X00743780Y01063500D01*
G02X00756500Y01076220I00012720J0D01*
G01X00883500Y01076220D01*
G02X00896220Y01063500I0J-00012720D01*
G01X00896220Y00936500D01*
G02X00883500Y00923780I-00012720J0D01*
G01X00845220Y00923780D01*
X00845220Y00076220D01*
X00883500Y00076220D01*
G02X00896220Y00063500I0J-00012720D01*
G01X00896220Y-00063500D01*
G02X00883500Y-00076220I-00012720J0D01*
G01X00845220Y-00076220D01*
X00845220Y-00923780D01*
X00883500Y-00923780D01*
G02X00896220Y-00936500I0J-00012720D01*
G01X00896220Y-01063500D01*
G02X00883500Y-01076220I-00012720J0D01*
G01X00845220Y-01076220D01*
X00845220Y-01923780D01*
X00883500Y-01923780D01*
G02X00896220Y-01936500I0J-00012720D01*
G01X00896220Y-02063500D01*
G02X00883500Y-02076220I-00012720J0D01*
G01X00845220Y-02076220D01*
X00845220Y-02923780D01*
X00883500Y-02923780D01*
G02X00896220Y-02936500I0J-00012720D01*
G01X00896220Y-03063500D01*
G02X00883500Y-03076220I-00012720J0D01*
G01X00845220Y-03076220D01*
X00845220Y-03923780D01*
X00883500Y-03923780D01*
G02X00896220Y-03936500I0J-00012720D01*
G01X00896220Y-04063500D01*
G02X00883500Y-04076220I-00012720J0D01*
G01X00845220Y-04076220D01*
X00845220Y-04923780D01*
X00883500Y-04923780D01*
G02X00896220Y-04936500I0J-00012720D01*
G01X00896220Y-05063500D01*
G02X00883500Y-05076220I-00012720J0D01*
G01X00845220Y-05076220D01*
X00845220Y-05923780D01*
X00883500Y-05923780D01*
G02X00896220Y-05936500I0J-00012720D01*
G01X00896220Y-06063500D01*
G02X00883500Y-06076220I-00012720J0D01*
G01X00756500Y-06076220D01*
G02X00743780Y-06063500I0J00012720D01*
G01X00743780Y-05936500D01*
G02X00756500Y-05923780I00012720J0D01*
G01X00794780Y-05923780D01*
X00794780Y-05076220D01*
X00756500Y-05076220D01*
G02X00743780Y-05063500I0J00012720D01*
G01X00743780Y-04936500D01*
G02X00756500Y-04923780I00012720J0D01*
G01X00794780Y-04923780D01*
X00794780Y-04076220D01*
X00756500Y-04076220D01*
G02X00743780Y-04063500I0J00012720D01*
G01X00743780Y-03936500D01*
G02X00756500Y-03923780I00012720J0D01*
G01X00794780Y-03923780D01*
X00794780Y-03076220D01*
X00756500Y-03076220D01*
G02X00743780Y-03063500I0J00012720D01*
G01X00743780Y-02936500D01*
G02X00756500Y-02923780I00012720J0D01*
G01X00794780Y-02923780D01*
X00794780Y-02076220D01*
X00756500Y-02076220D01*
G02X00743780Y-02063500I0J00012720D01*
G01X00743780Y-01936500D01*
G02X00756500Y-01923780I00012720J0D01*
G01X00794780Y-01923780D01*
X00794780Y-01076220D01*
X00756500Y-01076220D01*
G02X00743780Y-01063500I0J00012720D01*
G01X00743780Y-00936500D01*
G02X00756500Y-00923780I00012720J0D01*
G01X00794780Y-00923780D01*
X00794780Y-00076220D01*
X00756500Y-00076220D01*
G02X00743780Y-00063500I0J00012720D01*
G01X00743780Y00063500D01*
G02X00756500Y00076220I00012720J0D01*
G01X00794780Y00076220D01*
X00794780Y00923780D01*
X00756500Y00923780D01*
G02X00743780Y00936500I0J00012720D01*
G37*
G36*
G01X-00256220Y00936500D02*
X-00256220Y01063500D01*
G02X-00243500Y01076220I00012720J0D01*
G01X-00116500Y01076220D01*
G02X-00103780Y01063500I0J-00012720D01*
G01X-00103780Y00936500D01*
G02X-00116500Y00923780I-00012720J0D01*
G01X-00154780Y00923780D01*
X-00154780Y00076220D01*
X-00116500Y00076220D01*
G02X-00103780Y00063500I0J-00012720D01*
G01X-00103780Y-00063500D01*
G02X-00116500Y-00076220I-00012720J0D01*
G01X-00154780Y-00076220D01*
X-00154780Y-00923780D01*
X-00116500Y-00923780D01*
G02X-00103780Y-00936500I0J-00012720D01*
G01X-00103780Y-01063500D01*
G02X-00116500Y-01076220I-00012720J0D01*
G01X-00154780Y-01076220D01*
X-00154780Y-01923780D01*
X-00116500Y-01923780D01*
G02X-00103780Y-01936500I0J-00012720D01*
G01X-00103780Y-02063500D01*
G02X-00116500Y-02076220I-00012720J0D01*
G01X-00154780Y-02076220D01*
X-00154780Y-02923780D01*
X-00116500Y-02923780D01*
G02X-00103780Y-02936500I0J-00012720D01*
G01X-00103780Y-03063500D01*
G02X-00116500Y-03076220I-00012720J0D01*
G01X-00154780Y-03076220D01*
X-00154780Y-03923780D01*
X-00116500Y-03923780D01*
G02X-00103780Y-03936500I0J-00012720D01*
G01X-00103780Y-04063500D01*
G02X-00116500Y-04076220I-00012720J0D01*
G01X-00154780Y-04076220D01*
X-00154780Y-04923780D01*
X-00116500Y-04923780D01*
G02X-00103780Y-04936500I0J-00012720D01*
G01X-00103780Y-05063500D01*
G02X-00116500Y-05076220I-00012720J0D01*
G01X-00154780Y-05076220D01*
X-00154780Y-05923780D01*
X-00116500Y-05923780D01*
G02X-00103780Y-05936500I0J-00012720D01*
G01X-00103780Y-06063500D01*
G02X-00116500Y-06076220I-00012720J0D01*
G01X-00243500Y-06076220D01*
G02X-00256220Y-06063500I0J00012720D01*
G01X-00256220Y-05936500D01*
G02X-00243500Y-05923780I00012720J0D01*
G01X-00205220Y-05923780D01*
X-00205220Y-05076220D01*
X-00243500Y-05076220D01*
G02X-00256220Y-05063500I0J00012720D01*
G01X-00256220Y-04936500D01*
G02X-00243500Y-04923780I00012720J0D01*
G01X-00205220Y-04923780D01*
X-00205220Y-04076220D01*
X-00243500Y-04076220D01*
G02X-00256220Y-04063500I0J00012720D01*
G01X-00256220Y-03936500D01*
G02X-00243500Y-03923780I00012720J0D01*
G01X-00205220Y-03923780D01*
X-00205220Y-03076220D01*
X-00243500Y-03076220D01*
G02X-00256220Y-03063500I0J00012720D01*
G01X-00256220Y-02936500D01*
G02X-00243500Y-02923780I00012720J0D01*
G01X-00205220Y-02923780D01*
X-00205220Y-02076220D01*
X-00243500Y-02076220D01*
G02X-00256220Y-02063500I0J00012720D01*
G01X-00256220Y-01936500D01*
G02X-00243500Y-01923780I00012720J0D01*
G01X-00205220Y-01923780D01*
X-00205220Y-01076220D01*
X-00243500Y-01076220D01*
G02X-00256220Y-01063500I0J00012720D01*
G01X-00256220Y-00936500D01*
G02X-00243500Y-00923780I00012720J0D01*
G01X-00205220Y-00923780D01*
X-00205220Y-00076220D01*
X-00243500Y-00076220D01*
G02X-00256220Y-00063500I0J00012720D01*
G01X-00256220Y00063500D01*
G02X-00243500Y00076220I00012720J0D01*
G01X-00205220Y00076220D01*
X-00205220Y00923780D01*
X-00243500Y00923780D01*
G02X-00256220Y00936500I0J00012720D01*
G37*
G36*
G01X-01256220Y00936500D02*
X-01256220Y01063500D01*
G02X-01243500Y01076220I00012720J0D01*
G01X-01116500Y01076220D01*
G02X-01103780Y01063500I0J-00012720D01*
G01X-01103780Y00936500D01*
G02X-01116500Y00923780I-00012720J0D01*
G01X-01154780Y00923780D01*
X-01154780Y00076220D01*
X-01116500Y00076220D01*
G02X-01103780Y00063500I0J-00012720D01*
G01X-01103780Y-00063500D01*
G02X-01116500Y-00076220I-00012720J0D01*
G01X-01154780Y-00076220D01*
X-01154780Y-00923780D01*
X-01116500Y-00923780D01*
G02X-01103780Y-00936500I0J-00012720D01*
G01X-01103780Y-01063500D01*
G02X-01116500Y-01076220I-00012720J0D01*
G01X-01154780Y-01076220D01*
X-01154780Y-01923780D01*
X-01116500Y-01923780D01*
G02X-01103780Y-01936500I0J-00012720D01*
G01X-01103780Y-02063500D01*
G02X-01116500Y-02076220I-00012720J0D01*
G01X-01154780Y-02076220D01*
X-01154780Y-02923780D01*
X-01116500Y-02923780D01*
G02X-01103780Y-02936500I0J-00012720D01*
G01X-01103780Y-03063500D01*
G02X-01116500Y-03076220I-00012720J0D01*
G01X-01154780Y-03076220D01*
X-01154780Y-03923780D01*
X-01116500Y-03923780D01*
G02X-01103780Y-03936500I0J-00012720D01*
G01X-01103780Y-04063500D01*
G02X-01116500Y-04076220I-00012720J0D01*
G01X-01154780Y-04076220D01*
X-01154780Y-04923780D01*
X-01116500Y-04923780D01*
G02X-01103780Y-04936500I0J-00012720D01*
G01X-01103780Y-05063500D01*
G02X-01116500Y-05076220I-00012720J0D01*
G01X-01154780Y-05076220D01*
X-01154780Y-05923780D01*
X-01116500Y-05923780D01*
G02X-01103780Y-05936500I0J-00012720D01*
G01X-01103780Y-06063500D01*
G02X-01116500Y-06076220I-00012720J0D01*
G01X-01243500Y-06076220D01*
G02X-01256220Y-06063500I0J00012720D01*
G01X-01256220Y-05936500D01*
G02X-01243500Y-05923780I00012720J0D01*
G01X-01205220Y-05923780D01*
X-01205220Y-05076220D01*
X-01243500Y-05076220D01*
G02X-01256220Y-05063500I0J00012720D01*
G01X-01256220Y-04936500D01*
G02X-01243500Y-04923780I00012720J0D01*
G01X-01205220Y-04923780D01*
X-01205220Y-04076220D01*
X-01243500Y-04076220D01*
G02X-01256220Y-04063500I0J00012720D01*
G01X-01256220Y-03936500D01*
G02X-01243500Y-03923780I00012720J0D01*
G01X-01205220Y-03923780D01*
X-01205220Y-03076220D01*
X-01243500Y-03076220D01*
G02X-01256220Y-03063500I0J00012720D01*
G01X-01256220Y-02936500D01*
G02X-01243500Y-02923780I00012720J0D01*
G01X-01205220Y-02923780D01*
X-01205220Y-02076220D01*
X-01243500Y-02076220D01*
G02X-01256220Y-02063500I0J00012720D01*
G01X-01256220Y-01936500D01*
G02X-01243500Y-01923780I00012720J0D01*
G01X-01205220Y-01923780D01*
X-01205220Y-01076220D01*
X-01243500Y-01076220D01*
G02X-01256220Y-01063500I0J00012720D01*
G01X-01256220Y-00936500D01*
G02X-01243500Y-00923780I00012720J0D01*
G01X-01205220Y-00923780D01*
X-01205220Y-00076220D01*
X-01243500Y-00076220D01*
G02X-01256220Y-00063500I0J00012720D01*
G01X-01256220Y00063500D01*
G02X-01243500Y00076220I00012720J0D01*
G01X-01205220Y00076220D01*
X-01205220Y00923780D01*
X-01243500Y00923780D01*
G02X-01256220Y00936500I0J00012720D01*
G37*
G36*
G01X-02256220Y00936500D02*
X-02256220Y01063500D01*
G02X-02243500Y01076220I00012720J0D01*
G01X-02116500Y01076220D01*
G02X-02103780Y01063500I0J-00012720D01*
G01X-02103780Y00936500D01*
G02X-02116500Y00923780I-00012720J0D01*
G01X-02154780Y00923780D01*
X-02154780Y00076220D01*
X-02116500Y00076220D01*
G02X-02103780Y00063500I0J-00012720D01*
G01X-02103780Y-00063500D01*
G02X-02116500Y-00076220I-00012720J0D01*
G01X-02154780Y-00076220D01*
X-02154780Y-00923780D01*
X-02116500Y-00923780D01*
G02X-02103780Y-00936500I0J-00012720D01*
G01X-02103780Y-01063500D01*
G02X-02116500Y-01076220I-00012720J0D01*
G01X-02154780Y-01076220D01*
X-02154780Y-01923780D01*
X-02116500Y-01923780D01*
G02X-02103780Y-01936500I0J-00012720D01*
G01X-02103780Y-02063500D01*
G02X-02116500Y-02076220I-00012720J0D01*
G01X-02154780Y-02076220D01*
X-02154780Y-02923780D01*
X-02116500Y-02923780D01*
G02X-02103780Y-02936500I0J-00012720D01*
G01X-02103780Y-03063500D01*
G02X-02116500Y-03076220I-00012720J0D01*
G01X-02154780Y-03076220D01*
X-02154780Y-03923780D01*
X-02116500Y-03923780D01*
G02X-02103780Y-03936500I0J-00012720D01*
G01X-02103780Y-04063500D01*
G02X-02116500Y-04076220I-00012720J0D01*
G01X-02154780Y-04076220D01*
X-02154780Y-04923780D01*
X-02116500Y-04923780D01*
G02X-02103780Y-04936500I0J-00012720D01*
G01X-02103780Y-05063500D01*
G02X-02116500Y-05076220I-00012720J0D01*
G01X-02154780Y-05076220D01*
X-02154780Y-05923780D01*
X-02116500Y-05923780D01*
G02X-02103780Y-05936500I0J-00012720D01*
G01X-02103780Y-06063500D01*
G02X-02116500Y-06076220I-00012720J0D01*
G01X-02243500Y-06076220D01*
G02X-02256220Y-06063500I0J00012720D01*
G01X-02256220Y-05936500D01*
G02X-02243500Y-05923780I00012720J0D01*
G01X-02205220Y-05923780D01*
X-02205220Y-05076220D01*
X-02243500Y-05076220D01*
G02X-02256220Y-05063500I0J00012720D01*
G01X-02256220Y-04936500D01*
G02X-02243500Y-04923780I00012720J0D01*
G01X-02205220Y-04923780D01*
X-02205220Y-04076220D01*
X-02243500Y-04076220D01*
G02X-02256220Y-04063500I0J00012720D01*
G01X-02256220Y-03936500D01*
G02X-02243500Y-03923780I00012720J0D01*
G01X-02205220Y-03923780D01*
X-02205220Y-03076220D01*
X-02243500Y-03076220D01*
G02X-02256220Y-03063500I0J00012720D01*
G01X-02256220Y-02936500D01*
G02X-02243500Y-02923780I00012720J0D01*
G01X-02205220Y-02923780D01*
X-02205220Y-02076220D01*
X-02243500Y-02076220D01*
G02X-02256220Y-02063500I0J00012720D01*
G01X-02256220Y-01936500D01*
G02X-02243500Y-01923780I00012720J0D01*
G01X-02205220Y-01923780D01*
X-02205220Y-01076220D01*
X-02243500Y-01076220D01*
G02X-02256220Y-01063500I0J00012720D01*
G01X-02256220Y-00936500D01*
G02X-02243500Y-00923780I00012720J0D01*
G01X-02205220Y-00923780D01*
X-02205220Y-00076220D01*
X-02243500Y-00076220D01*
G02X-02256220Y-00063500I0J00012720D01*
G01X-02256220Y00063500D01*
G02X-02243500Y00076220I00012720J0D01*
G01X-02205220Y00076220D01*
X-02205220Y00923780D01*
X-02243500Y00923780D01*
G02X-02256220Y00936500I0J00012720D01*
G37*
G36*
G01X-03256220Y00936500D02*
X-03256220Y01063500D01*
G02X-03243500Y01076220I00012720J0D01*
G01X-03116500Y01076220D01*
G02X-03103780Y01063500I0J-00012720D01*
G01X-03103780Y00936500D01*
G02X-03116500Y00923780I-00012720J0D01*
G01X-03154780Y00923780D01*
X-03154780Y00076220D01*
X-03116500Y00076220D01*
G02X-03103780Y00063500I0J-00012720D01*
G01X-03103780Y-00063500D01*
G02X-03116500Y-00076220I-00012720J0D01*
G01X-03154780Y-00076220D01*
X-03154780Y-00923780D01*
X-03116500Y-00923780D01*
G02X-03103780Y-00936500I0J-00012720D01*
G01X-03103780Y-01063500D01*
G02X-03116500Y-01076220I-00012720J0D01*
G01X-03154780Y-01076220D01*
X-03154780Y-01923780D01*
X-03116500Y-01923780D01*
G02X-03103780Y-01936500I0J-00012720D01*
G01X-03103780Y-02063500D01*
G02X-03116500Y-02076220I-00012720J0D01*
G01X-03154780Y-02076220D01*
X-03154780Y-02923780D01*
X-03116500Y-02923780D01*
G02X-03103780Y-02936500I0J-00012720D01*
G01X-03103780Y-03063500D01*
G02X-03116500Y-03076220I-00012720J0D01*
G01X-03154780Y-03076220D01*
X-03154780Y-03923780D01*
X-03116500Y-03923780D01*
G02X-03103780Y-03936500I0J-00012720D01*
G01X-03103780Y-04063500D01*
G02X-03116500Y-04076220I-00012720J0D01*
G01X-03154780Y-04076220D01*
X-03154780Y-04923780D01*
X-03116500Y-04923780D01*
G02X-03103780Y-04936500I0J-00012720D01*
G01X-03103780Y-05063500D01*
G02X-03116500Y-05076220I-00012720J0D01*
G01X-03154780Y-05076220D01*
X-03154780Y-05923780D01*
X-03116500Y-05923780D01*
G02X-03103780Y-05936500I0J-00012720D01*
G01X-03103780Y-06063500D01*
G02X-03116500Y-06076220I-00012720J0D01*
G01X-03243500Y-06076220D01*
G02X-03256220Y-06063500I0J00012720D01*
G01X-03256220Y-05936500D01*
G02X-03243500Y-05923780I00012720J0D01*
G01X-03205220Y-05923780D01*
X-03205220Y-05076220D01*
X-03243500Y-05076220D01*
G02X-03256220Y-05063500I0J00012720D01*
G01X-03256220Y-04936500D01*
G02X-03243500Y-04923780I00012720J0D01*
G01X-03205220Y-04923780D01*
X-03205220Y-04076220D01*
X-03243500Y-04076220D01*
G02X-03256220Y-04063500I0J00012720D01*
G01X-03256220Y-03936500D01*
G02X-03243500Y-03923780I00012720J0D01*
G01X-03205220Y-03923780D01*
X-03205220Y-03076220D01*
X-03243500Y-03076220D01*
G02X-03256220Y-03063500I0J00012720D01*
G01X-03256220Y-02936500D01*
G02X-03243500Y-02923780I00012720J0D01*
G01X-03205220Y-02923780D01*
X-03205220Y-02076220D01*
X-03243500Y-02076220D01*
G02X-03256220Y-02063500I0J00012720D01*
G01X-03256220Y-01936500D01*
G02X-03243500Y-01923780I00012720J0D01*
G01X-03205220Y-01923780D01*
X-03205220Y-01076220D01*
X-03243500Y-01076220D01*
G02X-03256220Y-01063500I0J00012720D01*
G01X-03256220Y-00936500D01*
G02X-03243500Y-00923780I00012720J0D01*
G01X-03205220Y-00923780D01*
X-03205220Y-00076220D01*
X-03243500Y-00076220D01*
G02X-03256220Y-00063500I0J00012720D01*
G01X-03256220Y00063500D01*
G02X-03243500Y00076220I00012720J0D01*
G01X-03205220Y00076220D01*
X-03205220Y00923780D01*
X-03243500Y00923780D01*
G02X-03256220Y00936500I0J00012720D01*
G37*
G36*
G01X-04256220Y00936500D02*
X-04256220Y01063500D01*
G02X-04243500Y01076220I00012720J0D01*
G01X-04116500Y01076220D01*
G02X-04103780Y01063500I0J-00012720D01*
G01X-04103780Y00936500D01*
G02X-04116500Y00923780I-00012720J0D01*
G01X-04154780Y00923780D01*
X-04154780Y00076220D01*
X-04116500Y00076220D01*
G02X-04103780Y00063500I0J-00012720D01*
G01X-04103780Y-00063500D01*
G02X-04116500Y-00076220I-00012720J0D01*
G01X-04154780Y-00076220D01*
X-04154780Y-00923780D01*
X-04116500Y-00923780D01*
G02X-04103780Y-00936500I0J-00012720D01*
G01X-04103780Y-01063500D01*
G02X-04116500Y-01076220I-00012720J0D01*
G01X-04154780Y-01076220D01*
X-04154780Y-01923780D01*
X-04116500Y-01923780D01*
G02X-04103780Y-01936500I0J-00012720D01*
G01X-04103780Y-02063500D01*
G02X-04116500Y-02076220I-00012720J0D01*
G01X-04154780Y-02076220D01*
X-04154780Y-02923780D01*
X-04116500Y-02923780D01*
G02X-04103780Y-02936500I0J-00012720D01*
G01X-04103780Y-03063500D01*
G02X-04116500Y-03076220I-00012720J0D01*
G01X-04154780Y-03076220D01*
X-04154780Y-03923780D01*
X-04116500Y-03923780D01*
G02X-04103780Y-03936500I0J-00012720D01*
G01X-04103780Y-04063500D01*
G02X-04116500Y-04076220I-00012720J0D01*
G01X-04154780Y-04076220D01*
X-04154780Y-04923780D01*
X-04116500Y-04923780D01*
G02X-04103780Y-04936500I0J-00012720D01*
G01X-04103780Y-05063500D01*
G02X-04116500Y-05076220I-00012720J0D01*
G01X-04154780Y-05076220D01*
X-04154780Y-05923780D01*
X-04116500Y-05923780D01*
G02X-04103780Y-05936500I0J-00012720D01*
G01X-04103780Y-06063500D01*
G02X-04116500Y-06076220I-00012720J0D01*
G01X-04243500Y-06076220D01*
G02X-04256220Y-06063500I0J00012720D01*
G01X-04256220Y-05936500D01*
G02X-04243500Y-05923780I00012720J0D01*
G01X-04205220Y-05923780D01*
X-04205220Y-05076220D01*
X-04243500Y-05076220D01*
G02X-04256220Y-05063500I0J00012720D01*
G01X-04256220Y-04936500D01*
G02X-04243500Y-04923780I00012720J0D01*
G01X-04205220Y-04923780D01*
X-04205220Y-04076220D01*
X-04243500Y-04076220D01*
G02X-04256220Y-04063500I0J00012720D01*
G01X-04256220Y-03936500D01*
G02X-04243500Y-03923780I00012720J0D01*
G01X-04205220Y-03923780D01*
X-04205220Y-03076220D01*
X-04243500Y-03076220D01*
G02X-04256220Y-03063500I0J00012720D01*
G01X-04256220Y-02936500D01*
G02X-04243500Y-02923780I00012720J0D01*
G01X-04205220Y-02923780D01*
X-04205220Y-02076220D01*
X-04243500Y-02076220D01*
G02X-04256220Y-02063500I0J00012720D01*
G01X-04256220Y-01936500D01*
G02X-04243500Y-01923780I00012720J0D01*
G01X-04205220Y-01923780D01*
X-04205220Y-01076220D01*
X-04243500Y-01076220D01*
G02X-04256220Y-01063500I0J00012720D01*
G01X-04256220Y-00936500D01*
G02X-04243500Y-00923780I00012720J0D01*
G01X-04205220Y-00923780D01*
X-04205220Y-00076220D01*
X-04243500Y-00076220D01*
G02X-04256220Y-00063500I0J00012720D01*
G01X-04256220Y00063500D01*
G02X-04243500Y00076220I00012720J0D01*
G01X-04205220Y00076220D01*
X-04205220Y00923780D01*
X-04243500Y00923780D01*
G02X-04256220Y00936500I0J00012720D01*
G37*
G36*
G01X-05256220Y00936500D02*
X-05256220Y01063500D01*
G02X-05243500Y01076220I00012720J0D01*
G01X-05116500Y01076220D01*
G02X-05103780Y01063500I0J-00012720D01*
G01X-05103780Y00936500D01*
G02X-05116500Y00923780I-00012720J0D01*
G01X-05154780Y00923780D01*
X-05154780Y00076220D01*
X-05116500Y00076220D01*
G02X-05103780Y00063500I0J-00012720D01*
G01X-05103780Y-00063500D01*
G02X-05116500Y-00076220I-00012720J0D01*
G01X-05154780Y-00076220D01*
X-05154780Y-00923780D01*
X-05116500Y-00923780D01*
G02X-05103780Y-00936500I0J-00012720D01*
G01X-05103780Y-01063500D01*
G02X-05116500Y-01076220I-00012720J0D01*
G01X-05154780Y-01076220D01*
X-05154780Y-01923780D01*
X-05116500Y-01923780D01*
G02X-05103780Y-01936500I0J-00012720D01*
G01X-05103780Y-02063500D01*
G02X-05116500Y-02076220I-00012720J0D01*
G01X-05154780Y-02076220D01*
X-05154780Y-02923780D01*
X-05116500Y-02923780D01*
G02X-05103780Y-02936500I0J-00012720D01*
G01X-05103780Y-03063500D01*
G02X-05116500Y-03076220I-00012720J0D01*
G01X-05154780Y-03076220D01*
X-05154780Y-03923780D01*
X-05116500Y-03923780D01*
G02X-05103780Y-03936500I0J-00012720D01*
G01X-05103780Y-04063500D01*
G02X-05116500Y-04076220I-00012720J0D01*
G01X-05154780Y-04076220D01*
X-05154780Y-04923780D01*
X-05116500Y-04923780D01*
G02X-05103780Y-04936500I0J-00012720D01*
G01X-05103780Y-05063500D01*
G02X-05116500Y-05076220I-00012720J0D01*
G01X-05154780Y-05076220D01*
X-05154780Y-05923780D01*
X-05116500Y-05923780D01*
G02X-05103780Y-05936500I0J-00012720D01*
G01X-05103780Y-06063500D01*
G02X-05116500Y-06076220I-00012720J0D01*
G01X-05243500Y-06076220D01*
G02X-05256220Y-06063500I0J00012720D01*
G01X-05256220Y-05936500D01*
G02X-05243500Y-05923780I00012720J0D01*
G01X-05205220Y-05923780D01*
X-05205220Y-05076220D01*
X-05243500Y-05076220D01*
G02X-05256220Y-05063500I0J00012720D01*
G01X-05256220Y-04936500D01*
G02X-05243500Y-04923780I00012720J0D01*
G01X-05205220Y-04923780D01*
X-05205220Y-04076220D01*
X-05243500Y-04076220D01*
G02X-05256220Y-04063500I0J00012720D01*
G01X-05256220Y-03936500D01*
G02X-05243500Y-03923780I00012720J0D01*
G01X-05205220Y-03923780D01*
X-05205220Y-03076220D01*
X-05243500Y-03076220D01*
G02X-05256220Y-03063500I0J00012720D01*
G01X-05256220Y-02936500D01*
G02X-05243500Y-02923780I00012720J0D01*
G01X-05205220Y-02923780D01*
X-05205220Y-02076220D01*
X-05243500Y-02076220D01*
G02X-05256220Y-02063500I0J00012720D01*
G01X-05256220Y-01936500D01*
G02X-05243500Y-01923780I00012720J0D01*
G01X-05205220Y-01923780D01*
X-05205220Y-01076220D01*
X-05243500Y-01076220D01*
G02X-05256220Y-01063500I0J00012720D01*
G01X-05256220Y-00936500D01*
G02X-05243500Y-00923780I00012720J0D01*
G01X-05205220Y-00923780D01*
X-05205220Y-00076220D01*
X-05243500Y-00076220D01*
G02X-05256220Y-00063500I0J00012720D01*
G01X-05256220Y00063500D01*
G02X-05243500Y00076220I00012720J0D01*
G01X-05205220Y00076220D01*
X-05205220Y00923780D01*
X-05243500Y00923780D01*
G02X-05256220Y00936500I0J00012720D01*
G37*
G36*
G01X-06256220Y00936500D02*
X-06256220Y01063500D01*
G02X-06243500Y01076220I00012720J0D01*
G01X-06116500Y01076220D01*
G02X-06103780Y01063500I0J-00012720D01*
G01X-06103780Y00936500D01*
G02X-06116500Y00923780I-00012720J0D01*
G01X-06154780Y00923780D01*
X-06154780Y00076220D01*
X-06116500Y00076220D01*
G02X-06103780Y00063500I0J-00012720D01*
G01X-06103780Y-00063500D01*
G02X-06116500Y-00076220I-00012720J0D01*
G01X-06154780Y-00076220D01*
X-06154780Y-00923780D01*
X-06116500Y-00923780D01*
G02X-06103780Y-00936500I0J-00012720D01*
G01X-06103780Y-01063500D01*
G02X-06116500Y-01076220I-00012720J0D01*
G01X-06154780Y-01076220D01*
X-06154780Y-01923780D01*
X-06116500Y-01923780D01*
G02X-06103780Y-01936500I0J-00012720D01*
G01X-06103780Y-02063500D01*
G02X-06116500Y-02076220I-00012720J0D01*
G01X-06154780Y-02076220D01*
X-06154780Y-02923780D01*
X-06116500Y-02923780D01*
G02X-06103780Y-02936500I0J-00012720D01*
G01X-06103780Y-03063500D01*
G02X-06116500Y-03076220I-00012720J0D01*
G01X-06154780Y-03076220D01*
X-06154780Y-03923780D01*
X-06116500Y-03923780D01*
G02X-06103780Y-03936500I0J-00012720D01*
G01X-06103780Y-04063500D01*
G02X-06116500Y-04076220I-00012720J0D01*
G01X-06154780Y-04076220D01*
X-06154780Y-04923780D01*
X-06116500Y-04923780D01*
G02X-06103780Y-04936500I0J-00012720D01*
G01X-06103780Y-05063500D01*
G02X-06116500Y-05076220I-00012720J0D01*
G01X-06154780Y-05076220D01*
X-06154780Y-05923780D01*
X-06116500Y-05923780D01*
G02X-06103780Y-05936500I0J-00012720D01*
G01X-06103780Y-06063500D01*
G02X-06116500Y-06076220I-00012720J0D01*
G01X-06243500Y-06076220D01*
G02X-06256220Y-06063500I0J00012720D01*
G01X-06256220Y-05936500D01*
G02X-06243500Y-05923780I00012720J0D01*
G01X-06205220Y-05923780D01*
X-06205220Y-05076220D01*
X-06243500Y-05076220D01*
G02X-06256220Y-05063500I0J00012720D01*
G01X-06256220Y-04936500D01*
G02X-06243500Y-04923780I00012720J0D01*
G01X-06205220Y-04923780D01*
X-06205220Y-04076220D01*
X-06243500Y-04076220D01*
G02X-06256220Y-04063500I0J00012720D01*
G01X-06256220Y-03936500D01*
G02X-06243500Y-03923780I00012720J0D01*
G01X-06205220Y-03923780D01*
X-06205220Y-03076220D01*
X-06243500Y-03076220D01*
G02X-06256220Y-03063500I0J00012720D01*
G01X-06256220Y-02936500D01*
G02X-06243500Y-02923780I00012720J0D01*
G01X-06205220Y-02923780D01*
X-06205220Y-02076220D01*
X-06243500Y-02076220D01*
G02X-06256220Y-02063500I0J00012720D01*
G01X-06256220Y-01936500D01*
G02X-06243500Y-01923780I00012720J0D01*
G01X-06205220Y-01923780D01*
X-06205220Y-01076220D01*
X-06243500Y-01076220D01*
G02X-06256220Y-01063500I0J00012720D01*
G01X-06256220Y-00936500D01*
G02X-06243500Y-00923780I00012720J0D01*
G01X-06205220Y-00923780D01*
X-06205220Y-00076220D01*
X-06243500Y-00076220D01*
G02X-06256220Y-00063500I0J00012720D01*
G01X-06256220Y00063500D01*
G02X-06243500Y00076220I00012720J0D01*
G01X-06205220Y00076220D01*
X-06205220Y00923780D01*
X-06243500Y00923780D01*
G02X-06256220Y00936500I0J00012720D01*
G37*
G36*
G01X-03116220Y02529860D02*
X-03116220Y02656860D01*
G02X-03103500Y02669580I00012720J0D01*
G01X-02976500Y02669580D01*
G02X-02963780Y02656860I0J-00012720D01*
G01X-02963780Y02529860D01*
G02X-02976500Y02517140I-00012720J0D01*
G01X-03103500Y02517140D01*
G02X-03116220Y02529860I0J00012720D01*
G37*
G36*
G01X-03516220Y02529860D02*
X-03516220Y02656860D01*
G02X-03503500Y02669580I00012720J0D01*
G01X-03376500Y02669580D01*
G02X-03363780Y02656860I0J-00012720D01*
G01X-03363780Y02529860D01*
G02X-03376500Y02517140I-00012720J0D01*
G01X-03503500Y02517140D01*
G02X-03516220Y02529860I0J00012720D01*
G37*
G36*
G01X-00716220Y02529860D02*
X-00716220Y02656860D01*
G02X-00703500Y02669580I00012720J0D01*
G01X-00576500Y02669580D01*
G02X-00563780Y02656860I0J-00012720D01*
G01X-00563780Y02529860D01*
G02X-00576500Y02517140I-00012720J0D01*
G01X-00703500Y02517140D01*
G02X-00716220Y02529860I0J00012720D01*
G37*
G36*
G01X02193620Y03026340D02*
X02193620Y03173660D01*
G02X02206340Y03186380I00012720J0D01*
G01X02353660Y03186380D01*
G02X02366380Y03173660I0J-00012720D01*
G01X02366380Y03026340D01*
G02X02353660Y03013620I-00012720J0D01*
G01X02206340Y03013620D01*
G02X02193620Y03026340I0J00012720D01*
G37*
G36*
G01X-01116220Y02529860D02*
X-01116220Y02656860D01*
G02X-01103500Y02669580I00012720J0D01*
G01X-00976500Y02669580D01*
G02X-00963780Y02656860I0J-00012720D01*
G01X-00963780Y02529860D01*
G02X-00976500Y02517140I-00012720J0D01*
G01X-01103500Y02517140D01*
G02X-01116220Y02529860I0J00012720D01*
G37*
G36*
G01X-02716220Y02529860D02*
X-02716220Y02656860D01*
G02X-02703500Y02669580I00012720J0D01*
G01X-02576500Y02669580D01*
G02X-02563780Y02656860I0J-00012720D01*
G01X-02563780Y02529860D01*
G02X-02576500Y02517140I-00012720J0D01*
G01X-02703500Y02517140D01*
G02X-02716220Y02529860I0J00012720D01*
G37*
G36*
G01X-02316220Y02529860D02*
X-02316220Y02656860D01*
G02X-02303500Y02669580I00012720J0D01*
G01X-02176500Y02669580D01*
G02X-02163780Y02656860I0J-00012720D01*
G01X-02163780Y02529860D01*
G02X-02176500Y02517140I-00012720J0D01*
G01X-02303500Y02517140D01*
G02X-02316220Y02529860I0J00012720D01*
G37*
G36*
G01X-01916220Y02529860D02*
X-01916220Y02656860D01*
G02X-01903500Y02669580I00012720J0D01*
G01X-01776500Y02669580D01*
G02X-01763780Y02656860I0J-00012720D01*
G01X-01763780Y02529860D01*
G02X-01776500Y02517140I-00012720J0D01*
G01X-01903500Y02517140D01*
G02X-01916220Y02529860I0J00012720D01*
G37*
G36*
G01X02013620Y03726340D02*
X02013620Y03873660D01*
G02X02026340Y03886380I00012720J0D01*
G01X02173660Y03886380D01*
G02X02186380Y03873660I0J-00012720D01*
G01X02186380Y03726340D01*
G02X02173660Y03713620I-00012720J0D01*
G01X02026340Y03713620D01*
G02X02013620Y03726340I0J00012720D01*
G37*
G36*
G01X-01516220Y02529860D02*
X-01516220Y02656860D01*
G02X-01503500Y02669580I00012720J0D01*
G01X-01376500Y02669580D01*
G02X-01363780Y02656860I0J-00012720D01*
G01X-01363780Y02529860D01*
G02X-01376500Y02517140I-00012720J0D01*
G01X-01503500Y02517140D01*
G02X-01516220Y02529860I0J00012720D01*
G37*
G36*
G01X-04799380Y03048340D02*
X-04799380Y03195660D01*
G02X-04786660Y03208380I00012720J0D01*
G01X-04639340Y03208380D01*
G02X-04626620Y03195660I0J-00012720D01*
G01X-04626620Y03048340D01*
G02X-04639340Y03035620I-00012720J0D01*
G01X-04786660Y03035620D01*
G02X-04799380Y03048340I0J00012720D01*
G37*
G36*
G01X01173620Y03026340D02*
X01173620Y03173660D01*
G02X01186340Y03186380I00012720J0D01*
G01X01333660Y03186380D01*
G02X01346380Y03173660I0J-00012720D01*
G01X01346380Y03026340D01*
G02X01333660Y03013620I-00012720J0D01*
G01X01186340Y03013620D01*
G02X01173620Y03026340I0J00012720D01*
G37*
G54D18*
X-05500000Y-06600000D03*
X-05500000Y03500000D03*
X03500000Y-06600000D03*
X03500000Y03500000D03*
G54D17*
X04160360Y-06000000D03*
X-03839640Y01000000D03*
X02160360Y01000000D03*
X03160360Y01000000D03*
X04160360Y01000000D03*
X-05839640Y0D03*
X-04839640Y0D03*
X-03839640Y0D03*
X-02839640Y0D03*
X-01839640Y0D03*
X-00839640Y0D03*
X00160360Y0D03*
X01160360Y0D03*
X02160360Y0D03*
X03160360Y0D03*
X04160360Y0D03*
X-05839640Y-01000000D03*
X-04839640Y-01000000D03*
X-03839640Y-01000000D03*
X-02839640Y-01000000D03*
X-01839640Y-01000000D03*
X-00839640Y-01000000D03*
X00160360Y-01000000D03*
X01160360Y-01000000D03*
X02160360Y-01000000D03*
X03160360Y-01000000D03*
X04160360Y-01000000D03*
X-05839640Y-02000000D03*
X-04839640Y-02000000D03*
X-03839640Y-02000000D03*
X-02839640Y-02000000D03*
X-01839640Y-02000000D03*
X-00839640Y-02000000D03*
X00160360Y-02000000D03*
X01160360Y-02000000D03*
X02160360Y-02000000D03*
X03160360Y-02000000D03*
X04160360Y-02000000D03*
X-05839640Y-03000000D03*
X-04839640Y-03000000D03*
X-03839640Y-03000000D03*
X-02839640Y-03000000D03*
X-02839640Y01000000D03*
X-01839640Y-03000000D03*
X-00839640Y-03000000D03*
X00160360Y-03000000D03*
X01160360Y-03000000D03*
X02160360Y-03000000D03*
X03160360Y-03000000D03*
X04160360Y-03000000D03*
X-05839640Y-04000000D03*
X-04839640Y-04000000D03*
X-03839640Y-04000000D03*
X-01839640Y01000000D03*
X-02839640Y-04000000D03*
X-01839640Y-04000000D03*
X-00839640Y-04000000D03*
X00160360Y-04000000D03*
X01160360Y-04000000D03*
X02160360Y-04000000D03*
X03160360Y-04000000D03*
X04160360Y-04000000D03*
X-05839640Y-05000000D03*
X-04839640Y-05000000D03*
X-00839640Y01000000D03*
X-03839640Y-05000000D03*
X-02839640Y-05000000D03*
X-01839640Y-05000000D03*
X-00839640Y-05000000D03*
X00160360Y-05000000D03*
X01160360Y-05000000D03*
X02160360Y-05000000D03*
X03160360Y-05000000D03*
X04160360Y-05000000D03*
X-05839640Y-06000000D03*
X00160360Y01000000D03*
X-04839640Y-06000000D03*
X-03839640Y-06000000D03*
X-02839640Y-06000000D03*
X-01839640Y-06000000D03*
X-00839640Y-06000000D03*
X00160360Y-06000000D03*
X01160360Y-06000000D03*
X02160360Y-06000000D03*
X03160360Y-06000000D03*
X01160360Y01000000D03*
X-04839640Y01000000D03*
X-05839640Y01000000D03*
G54D16*
X01514000Y03100000D03*
X01768000Y03100000D03*
X00113000Y03122000D03*
X-04205000Y01598000D03*
X-00141000Y03122000D03*
X-04459000Y01598000D03*
X-03189000Y03122000D03*
X-02935000Y03122000D03*
X-02681000Y03122000D03*
X-02427000Y03122000D03*
X-03697000Y03122000D03*
X-03443000Y03122000D03*
X-03189000Y01598000D03*
X-03443000Y01598000D03*
X-03951000Y01598000D03*
X-04459000Y03122000D03*
X-04205000Y03122000D03*
X-03951000Y03122000D03*
X-03697000Y01598000D03*
X-02173000Y03122000D03*
X-01919000Y03122000D03*
X-01665000Y03122000D03*
X-01411000Y03122000D03*
X-01157000Y03122000D03*
X-00903000Y03122000D03*
X-00649000Y03122000D03*
X-00141000Y01598000D03*
X-00395000Y01598000D03*
X-00649000Y01598000D03*
X-00903000Y01598000D03*
X00113000Y01598000D03*
X-00395000Y03122000D03*
X-04713000Y01598000D03*
X01338000Y03800000D03*
X01592000Y03800000D03*
X01846000Y03800000D03*
X00830000Y03800000D03*
X02534000Y03100000D03*
X01084000Y03800000D03*
%LPD*%
G75*
G54D10*
X-06180000Y-06000000D03*
X-06180000Y-05000000D03*
X-06180000Y-04000000D03*
X-06180000Y-03000000D03*
X-06180000Y-02000000D03*
X-06180000Y-01000000D03*
X-06180000Y0D03*
X-06180000Y01000000D03*
X-05180000Y-06000000D03*
X-05180000Y-05000000D03*
X-05180000Y-04000000D03*
X-05180000Y-03000000D03*
X-05180000Y-02000000D03*
X-05180000Y-01000000D03*
X-05180000Y0D03*
X-05180000Y01000000D03*
X-04180000Y-06000000D03*
X-04180000Y-05000000D03*
X-04180000Y-04000000D03*
X-04180000Y-03000000D03*
X-04180000Y-02000000D03*
X-04180000Y-01000000D03*
X-04180000Y0D03*
X-04180000Y01000000D03*
X-03440000Y02380000D03*
X-03440000Y02593360D03*
X-03180000Y-06000000D03*
X-03180000Y-05000000D03*
X-03180000Y-04000000D03*
X-03180000Y-03000000D03*
X-03180000Y-02000000D03*
X-03180000Y-01000000D03*
X-03180000Y0D03*
X-03180000Y01000000D03*
X-03040000Y02380000D03*
X-03040000Y02593360D03*
X-02180000Y-06000000D03*
X-02180000Y-05000000D03*
X-02180000Y-04000000D03*
X-02180000Y-03000000D03*
X-02180000Y-02000000D03*
X-02180000Y-01000000D03*
X-02180000Y0D03*
X-02180000Y01000000D03*
X-02640000Y02380000D03*
X-02640000Y02593360D03*
X-02240000Y02380000D03*
X-02240000Y02593360D03*
X-01840000Y02380000D03*
X-01840000Y02593360D03*
X-01180000Y-06000000D03*
X-01180000Y-05000000D03*
X-01180000Y-04000000D03*
X-01180000Y-03000000D03*
X-01180000Y-02000000D03*
X-01180000Y-01000000D03*
X-01180000Y0D03*
X-01180000Y01000000D03*
X-01440000Y02380000D03*
X-01440000Y02593360D03*
X-01040000Y02380000D03*
X-01040000Y02593360D03*
X-00640000Y02380000D03*
X-00640000Y02593360D03*
X-00180000Y-06000000D03*
X-00180000Y-05000000D03*
X-00180000Y-04000000D03*
X-00180000Y-03000000D03*
X-00180000Y-02000000D03*
X-00180000Y-01000000D03*
X-00180000Y0D03*
X-00180000Y01000000D03*
X00820000Y-06000000D03*
X00820000Y-05000000D03*
X00820000Y-04000000D03*
X00820000Y-03000000D03*
X00820000Y-02000000D03*
X00820000Y-01000000D03*
X00820000Y0D03*
X00820000Y01000000D03*
X01820000Y-06000000D03*
X01820000Y-05000000D03*
X01820000Y-04000000D03*
X01820000Y-03000000D03*
X01820000Y-02000000D03*
X01820000Y-01000000D03*
X01820000Y0D03*
X01820000Y01000000D03*
X02820000Y-06000000D03*
X02820000Y-05000000D03*
X02820000Y-04000000D03*
X02820000Y-03000000D03*
X02820000Y-02000000D03*
X02820000Y-01000000D03*
X02820000Y0D03*
X02820000Y01000000D03*
X03820000Y-06000000D03*
X03820000Y-05000000D03*
X03820000Y-04000000D03*
X03820000Y-03000000D03*
X03820000Y-02000000D03*
X03820000Y-01000000D03*
X03820000Y0D03*
X03820000Y01000000D03*
G54D11*
X-05839640Y-06000000D03*
X-05839640Y-05000000D03*
X-05839640Y-04000000D03*
X-05839640Y-03000000D03*
X-05839640Y-02000000D03*
X-05839640Y-01000000D03*
X-05839640Y0D03*
X-05839640Y01000000D03*
X-04839640Y-06000000D03*
X-04839640Y-05000000D03*
X-04839640Y-04000000D03*
X-04839640Y-03000000D03*
X-04839640Y-02000000D03*
X-04839640Y-01000000D03*
X-04839640Y0D03*
X-04839640Y01000000D03*
X-03839640Y-06000000D03*
X-03839640Y-05000000D03*
X-03839640Y-04000000D03*
X-03839640Y-03000000D03*
X-03839640Y-02000000D03*
X-03839640Y-01000000D03*
X-03839640Y0D03*
X-03839640Y01000000D03*
X-02839640Y-06000000D03*
X-02839640Y-05000000D03*
X-02839640Y-04000000D03*
X-02839640Y-03000000D03*
X-02839640Y-02000000D03*
X-02839640Y-01000000D03*
X-02839640Y0D03*
X-02839640Y01000000D03*
X-01839640Y-06000000D03*
X-01839640Y-05000000D03*
X-01839640Y-04000000D03*
X-01839640Y-03000000D03*
X-01839640Y-02000000D03*
X-01839640Y-01000000D03*
X-01839640Y0D03*
X-01839640Y01000000D03*
X-00839640Y-06000000D03*
X-00839640Y-05000000D03*
X-00839640Y-04000000D03*
X-00839640Y-03000000D03*
X-00839640Y-02000000D03*
X-00839640Y-01000000D03*
X-00839640Y0D03*
X-00839640Y01000000D03*
X00160360Y-06000000D03*
X00160360Y-05000000D03*
X00160360Y-04000000D03*
X00160360Y-03000000D03*
X00160360Y-02000000D03*
X00160360Y-01000000D03*
X00160360Y0D03*
X00160360Y01000000D03*
X01160360Y-06000000D03*
X01160360Y-05000000D03*
X01160360Y-04000000D03*
X01160360Y-03000000D03*
X01160360Y-02000000D03*
X01160360Y-01000000D03*
X01160360Y0D03*
X01160360Y01000000D03*
X02160360Y-06000000D03*
X02160360Y-05000000D03*
X02160360Y-04000000D03*
X02160360Y-03000000D03*
X02160360Y-02000000D03*
X02160360Y-01000000D03*
X02160360Y0D03*
X02160360Y01000000D03*
X03160360Y-06000000D03*
X03160360Y-05000000D03*
X03160360Y-04000000D03*
X03160360Y-03000000D03*
X03160360Y-02000000D03*
X03160360Y-01000000D03*
X03160360Y0D03*
X03160360Y01000000D03*
X04160360Y-06000000D03*
X04160360Y-05000000D03*
X04160360Y-04000000D03*
X04160360Y-03000000D03*
X04160360Y-02000000D03*
X04160360Y-01000000D03*
X04160360Y0D03*
X04160360Y01000000D03*
G54D12*
X-04713000Y01598000D03*
X-04459000Y01598000D03*
X-04459000Y03122000D03*
X-04205000Y01598000D03*
X-03951000Y01598000D03*
X-03951000Y03122000D03*
X-04205000Y03122000D03*
X-03697000Y01598000D03*
X-03443000Y01598000D03*
X-03443000Y03122000D03*
X-03697000Y03122000D03*
X-03189000Y01598000D03*
X-02935000Y01598000D03*
X-02681000Y01598000D03*
X-02681000Y03122000D03*
X-02935000Y03122000D03*
X-03189000Y03122000D03*
X-02427000Y01598000D03*
X-02173000Y01598000D03*
X-02173000Y03122000D03*
X-02427000Y03122000D03*
X-01919000Y01598000D03*
X-01665000Y01598000D03*
X-01665000Y03122000D03*
X-01919000Y03122000D03*
X-01411000Y01598000D03*
X-01157000Y01598000D03*
X-01157000Y03122000D03*
X-01411000Y03122000D03*
X-00903000Y01598000D03*
X-00649000Y01598000D03*
X-00649000Y03122000D03*
X-00903000Y03122000D03*
X-00395000Y01598000D03*
X-00141000Y01598000D03*
X-00141000Y03122000D03*
X-00395000Y03122000D03*
X00113000Y01598000D03*
X00113000Y03122000D03*
X01084000Y03800000D03*
X00830000Y03800000D03*
X01514000Y03100000D03*
X01592000Y03800000D03*
X01338000Y03800000D03*
X01768000Y03100000D03*
X01846000Y03800000D03*
X02534000Y03100000D03*
G54D13*
X-04713000Y03122000D03*
X01260000Y03100000D03*
X02280000Y03100000D03*
X02100000Y03800000D03*
G54D14*
X-02650000Y-06100000D03*
X-02575000Y-05225000D03*
X-02500000Y-04225000D03*
X-02425000Y-03225000D03*
X-01625000Y-02175000D03*
X-01550000Y-01225000D03*
X-01475000Y-00175000D03*
X-01400000Y00800000D03*
X0Y03300000D03*
X-00250000Y03300000D03*
X01050000Y01800000D03*
X01125000Y02000000D03*
X01500000Y01575000D03*
X01275000Y01550000D03*
X01675000Y02150000D03*
X01600000Y01700000D03*
X02200000Y02200000D03*
X01750000Y01950000D03*
X01750000Y02350000D03*
X02025000Y02375000D03*
G54D15*
G01X-06180000Y-06000000D02*
X-06180000Y-05000000D01*
G01X-06180000Y-05000000D02*
X-06180000Y-04000000D01*
G01X-06180000Y-04000000D02*
X-06180000Y-03000000D01*
G01X-06180000Y-03000000D02*
X-06180000Y-02000000D01*
G01X-06180000Y-02000000D02*
X-06180000Y-01000000D01*
G01X-06180000Y-01000000D02*
X-06180000Y0D01*
G01X-06180000Y0D02*
X-06180000Y01000000D01*
G01X-05180000Y-06000000D02*
X-05180000Y-05000000D01*
G01X-05180000Y-05000000D02*
X-05180000Y-04000000D01*
G01X-05180000Y-04000000D02*
X-05180000Y-03000000D01*
G01X-05180000Y-03000000D02*
X-05180000Y-02000000D01*
G01X-05180000Y-02000000D02*
X-05180000Y-01000000D01*
G01X-05180000Y-01000000D02*
X-05180000Y0D01*
G01X-05180000Y0D02*
X-05180000Y01000000D01*
G01X-04459000Y01506540D02*
X-04459000Y01598000D01*
G01X-04459000Y01598000D02*
X-04459000Y01689460D01*
G01X-04550460Y01598000D02*
X-04459000Y01598000D01*
G01X-04459000Y01598000D02*
X-04367540Y01598000D01*
G01X-04180000Y-06000000D02*
X-04180000Y-05000000D01*
G01X-04180000Y-05000000D02*
X-04180000Y-04000000D01*
G01X-04180000Y-04000000D02*
X-04180000Y-03000000D01*
G01X-04180000Y-03000000D02*
X-04180000Y-02000000D01*
G01X-04180000Y-02000000D02*
X-04180000Y-01000000D01*
G01X-04180000Y-01000000D02*
X-04180000Y0D01*
G01X-04180000Y0D02*
X-04180000Y01000000D01*
G01X-03440000Y02512060D02*
X-03440000Y02593360D01*
G01X-03440000Y02593360D02*
X-03440000Y02674660D01*
G01X-03521300Y02593360D02*
X-03440000Y02593360D01*
G01X-03440000Y02593360D02*
X-03358700Y02593360D01*
G01X-02935000Y01598000D02*
X-02935000Y01875000D01*
X-03440000Y02380000D01*
G01X-03180000Y-06000000D02*
X-03180000Y-05000000D01*
G01X-03180000Y-05000000D02*
X-03180000Y-04000000D01*
G01X-03180000Y-04000000D02*
X-03180000Y-03000000D01*
G01X-03180000Y-03000000D02*
X-03180000Y-02000000D01*
G01X-03180000Y-02000000D02*
X-03180000Y-01000000D01*
G01X-03180000Y-01000000D02*
X-03180000Y0D01*
G01X-03180000Y0D02*
X-03180000Y01000000D01*
G01X-02935000Y01598000D02*
X-02935000Y01535000D01*
X-02650000Y01250000D01*
X-02650000Y-06100000D01*
G01X-02681000Y01598000D02*
X-02681000Y02021000D01*
X-03040000Y02380000D01*
G01X-03040000Y02512060D02*
X-03040000Y02593360D01*
G01X-03040000Y02593360D02*
X-03040000Y02674660D01*
G01X-03121300Y02593360D02*
X-03040000Y02593360D01*
G01X-03040000Y02593360D02*
X-02958700Y02593360D01*
G01X-02180000Y-06000000D02*
X-02180000Y-05000000D01*
G01X-02681000Y01598000D02*
X-02681000Y01381000D01*
X-02575000Y01275000D01*
X-02575000Y-05225000D01*
G01X-02180000Y-05000000D02*
X-02180000Y-04000000D01*
G01X-02427000Y01598000D02*
X-02427000Y01348000D01*
X-02500000Y01275000D01*
X-02500000Y-04225000D01*
G01X-02180000Y-04000000D02*
X-02180000Y-03000000D01*
G01X-02173000Y01598000D02*
X-02173000Y01502000D01*
X-02425000Y01250000D01*
X-02425000Y-03225000D01*
G01X-02180000Y-03000000D02*
X-02180000Y-02000000D01*
G01X-02180000Y-02000000D02*
X-02180000Y-01000000D01*
G01X-02180000Y-01000000D02*
X-02180000Y0D01*
G01X-02180000Y0D02*
X-02180000Y01000000D01*
G01X-02173000Y01598000D02*
X-02173000Y02224300D01*
X-02240000Y02291300D01*
X-02240000Y02380000D01*
G01X-02427000Y01598000D02*
X-02427000Y02167000D01*
X-02640000Y02380000D01*
G01X-02240000Y02512060D02*
X-02240000Y02593360D01*
G01X-02240000Y02593360D02*
X-02240000Y02674660D01*
G01X-02321300Y02593360D02*
X-02240000Y02593360D01*
G01X-02240000Y02593360D02*
X-02158700Y02593360D01*
G01X-02640000Y02512060D02*
X-02640000Y02593360D01*
G01X-02640000Y02593360D02*
X-02640000Y02674660D01*
G01X-02721300Y02593360D02*
X-02640000Y02593360D01*
G01X-02640000Y02593360D02*
X-02558700Y02593360D01*
G01X-01919000Y01598000D02*
X-01919000Y01494000D01*
X-01625200Y01200200D01*
X-01625200Y-02124600D01*
X-01625000Y-02124800D01*
X-01625000Y-02175000D01*
G01X-01665000Y01598000D02*
X-01665000Y01340000D01*
X-01550000Y01225000D01*
X-01550000Y-01225000D01*
G01X-01665000Y01598000D02*
X-01665000Y02155000D01*
X-01440000Y02380000D01*
G01X-01919000Y01598000D02*
X-01919000Y02301000D01*
X-01840000Y02380000D01*
G01X-01840000Y02512060D02*
X-01840000Y02593360D01*
G01X-01840000Y02593360D02*
X-01840000Y02674660D01*
G01X-01921300Y02593360D02*
X-01840000Y02593360D01*
G01X-01840000Y02593360D02*
X-01758700Y02593360D01*
G01X-01180000Y-06000000D02*
X-01180000Y-05000000D01*
G01X-01180000Y-05000000D02*
X-01180000Y-04000000D01*
G01X-01180000Y-04000000D02*
X-01180000Y-03000000D01*
G01X-01180000Y-03000000D02*
X-01180000Y-02000000D01*
G01X-01180000Y-02000000D02*
X-01180000Y-01000000D01*
G01X-01180000Y-01000000D02*
X-01180000Y0D01*
G01X-01411000Y01598000D02*
X-01411000Y01264000D01*
X-01475000Y01200000D01*
X-01475000Y-00175000D01*
G01X-01180000Y0D02*
X-01180000Y01000000D01*
G01X-01157000Y01598000D02*
X-01157000Y01418000D01*
X-01400000Y01175000D01*
X-01400000Y00800000D01*
G01X-01157000Y01598000D02*
X-01157000Y01863000D01*
X-00640000Y02380000D01*
G01X-01411000Y01598000D02*
X-01411000Y02009000D01*
X-01040000Y02380000D01*
G01X-01440000Y02512060D02*
X-01440000Y02593360D01*
G01X-01440000Y02593360D02*
X-01440000Y02674660D01*
G01X-01521300Y02593360D02*
X-01440000Y02593360D01*
G01X-01440000Y02593360D02*
X-01358700Y02593360D01*
G01X-01121300Y02593360D02*
X-01040000Y02593360D01*
G01X-01040000Y02512060D02*
X-01040000Y02593360D01*
G01X-01040000Y02593360D02*
X-01040000Y02674660D01*
G01X-01040000Y02593360D02*
X-00958700Y02593360D01*
G01X-00640000Y02512060D02*
X-00640000Y02593360D01*
G01X-00640000Y02593360D02*
X-00640000Y02674660D01*
G01X-00721300Y02593360D02*
X-00640000Y02593360D01*
G01X-00640000Y02593360D02*
X-00558700Y02593360D01*
G01X-00180000Y-06000000D02*
X-00180000Y-05000000D01*
G01X-00180000Y-05000000D02*
X-00180000Y-04000000D01*
G01X-00180000Y-04000000D02*
X-00180000Y-03000000D01*
G01X-00180000Y-03000000D02*
X-00180000Y-02000000D01*
G01X-00180000Y-02000000D02*
X-00180000Y-01000000D01*
G01X-00180000Y-01000000D02*
X-00180000Y0D01*
G01X-00180000Y0D02*
X-00180000Y01000000D01*
G01X-00141000Y03030540D02*
X-00141000Y03122000D01*
G01X-00141000Y03122000D02*
X-00141000Y03213460D01*
G01X-00232460Y03122000D02*
X-00141000Y03122000D01*
G01X-00141000Y03122000D02*
X-00049540Y03122000D01*
G01X00820000Y-06000000D02*
X00820000Y-05000000D01*
G01X00820000Y-05000000D02*
X00820000Y-04000000D01*
G01X00820000Y-04000000D02*
X00820000Y-03000000D01*
G01X00820000Y-03000000D02*
X00820000Y-02000000D01*
G01X00820000Y-02000000D02*
X00820000Y-01000000D01*
G01X00820000Y-01000000D02*
X00820000Y0D01*
G01X00820000Y0D02*
X00820000Y01000000D01*
G01X00830000Y03708540D02*
X00830000Y03800000D01*
G01X00830000Y03800000D02*
X00830000Y03891460D01*
G01X00738540Y03800000D02*
X00830000Y03800000D01*
G01X00830000Y03800000D02*
X00921460Y03800000D01*
G01X01820000Y-06000000D02*
X01820000Y-05000000D01*
G01X01820000Y-05000000D02*
X01820000Y-04000000D01*
G01X01820000Y-04000000D02*
X01820000Y-03000000D01*
G01X01820000Y-03000000D02*
X01820000Y-02000000D01*
G01X01820000Y-02000000D02*
X01820000Y-01000000D01*
G01X01820000Y-01000000D02*
X01820000Y0D01*
G01X01820000Y0D02*
X01820000Y01000000D01*
G01X02820000Y-06000000D02*
X02820000Y-05000000D01*
G01X02820000Y-05000000D02*
X02820000Y-04000000D01*
G01X02820000Y-04000000D02*
X02820000Y-03000000D01*
G01X02820000Y-03000000D02*
X02820000Y-02000000D01*
G01X02820000Y-02000000D02*
X02820000Y-01000000D01*
G01X02820000Y-01000000D02*
X02820000Y0D01*
G01X02820000Y0D02*
X02820000Y01000000D01*
G01X03820000Y-06000000D02*
X03820000Y-05000000D01*
G01X03820000Y-05000000D02*
X03820000Y-04000000D01*
G01X03820000Y-04000000D02*
X03820000Y-03000000D01*
G01X03820000Y-03000000D02*
X03820000Y-02000000D01*
G01X03820000Y-02000000D02*
X03820000Y-01000000D01*
G01X03820000Y-01000000D02*
X03820000Y0D01*
G01X03820000Y0D02*
X03820000Y01000000D01*
M02*
