G04 ================== begin FILE IDENTIFICATION RECORD ==================*
G04 Layout Name:  sensor_board_routing.brd*
G04 Film Name:    Assembly_top*
G04 File Format:  Gerber RS274X*
G04 File Origin:  Cadence Allegro 17.4-S017*
G04 Origin Date:  Thu Sep 30 11:32:55 2021*
G04 *
G04 Layer:  REF DES/ASSEMBLY_TOP*
G04 Layer:  PACKAGE GEOMETRY/ASSEMBLY_TOP*
G04 *
G04 Offset:    (0.0000 0.0000)*
G04 Mirror:    No*
G04 Mode:      Positive*
G04 Rotation:  0*
G04 FullContactRelief:  No*
G04 UndefLineWidth:     0.2500*
G04 ================== end FILE IDENTIFICATION RECORD ====================*
%FSAX35Y35*MOMM*%
%IR0*IPPOS*OFA0.00000B0.00000*MIA0B0*SFA1.00000B1.00000*%
%ADD10C,.2*%
%ADD11C,.1524*%
%ADD12C,.25*%
%ADD13C,.0762*%
G75*
%LPD*%
G75*
G54D10*
G01X-05150000Y-06600000D02*
G03X-05150000Y-06600000I-00350000J0D01*
G01X-05150000Y03500000D02*
G03X-05150000Y03500000I-00350000J0D01*
G01X03850000Y-06600000D02*
G03X03850000Y-06600000I-00350000J0D01*
G01X03850000Y03500000D02*
G03X03850000Y03500000I-00350000J0D01*
G54D11*
G01X-02944750Y02283480D02*
X-03135250Y02283480D01*
G01X-03135250Y02283480D02*
X-03135250Y02689880D01*
G01X-03344750Y02689880D02*
X-03344750Y02283480D01*
G01X-03344750Y02283480D02*
X-03535250Y02283480D01*
G01X-03535250Y02283480D02*
X-03535250Y02689880D01*
G01X-03135250Y02689880D02*
X-02944750Y02689880D01*
G01X-03535250Y02689880D02*
X-03344750Y02689880D01*
G01X-02544750Y02689880D02*
X-02544750Y02283480D01*
G01X-02544750Y02283480D02*
X-02735250Y02283480D01*
G01X-02735250Y02283480D02*
X-02735250Y02689880D01*
G01X-02944750Y02689880D02*
X-02944750Y02283480D01*
G01X-02735250Y02689880D02*
X-02544750Y02689880D01*
G01X-01744750Y02283480D02*
X-01935250Y02283480D01*
G01X-01935250Y02283480D02*
X-01935250Y02689880D01*
G01X-02144750Y02689880D02*
X-02144750Y02283480D01*
G01X-02144750Y02283480D02*
X-02335250Y02283480D01*
G01X-02335250Y02283480D02*
X-02335250Y02689880D01*
G01X-01935250Y02689880D02*
X-01744750Y02689880D01*
G01X-02335250Y02689880D02*
X-02144750Y02689880D01*
G01X-01344750Y02689880D02*
X-01344750Y02283480D01*
G01X-01344750Y02283480D02*
X-01535250Y02283480D01*
G01X-01535250Y02283480D02*
X-01535250Y02689880D01*
G01X-01744750Y02689880D02*
X-01744750Y02283480D01*
G01X-01535250Y02689880D02*
X-01344750Y02689880D01*
G01X-00544750Y02283480D02*
X-00735250Y02283480D01*
G01X-00735250Y02283480D02*
X-00735250Y02689880D01*
G01X-00944750Y02689880D02*
X-00944750Y02283480D01*
G01X-00944750Y02283480D02*
X-01135250Y02283480D01*
G01X-01135250Y02283480D02*
X-01135250Y02689880D01*
G01X-00735250Y02689880D02*
X-00544750Y02689880D01*
G01X-01135250Y02689880D02*
X-00944750Y02689880D01*
G01X-00544750Y02689880D02*
X-00544750Y02283480D01*
G54D12*
G01X-06171530Y-06063500D02*
X-06171530Y-05936500D01*
X-06131320Y-05936500D01*
X-06118450Y-05942850D01*
X-06110400Y-05951320D01*
X-06107190Y-05968250D01*
X-06110400Y-05985180D01*
X-06120060Y-05995770D01*
X-06131320Y-06002120D01*
X-06171530Y-06002120D01*
G01X-06131320Y-06002120D02*
X-06107190Y-06063500D01*
G01X-06013040Y-06063500D02*
X-06009820Y-06035990D01*
X-06004990Y-06012700D01*
X-05998560Y-05991530D01*
X-05990520Y-05968250D01*
X-05977650Y-05936500D01*
X-06041990Y-05936500D01*
G01X-05907630Y-06048690D02*
X-05896370Y-06059270D01*
X-05883500Y-06063500D01*
X-05870630Y-06059270D01*
X-05859370Y-06046570D01*
X-05851320Y-06027520D01*
X-05848110Y-06008470D01*
X-05848110Y-05985180D01*
X-05851320Y-05966130D01*
X-05859370Y-05949200D01*
X-05869020Y-05940730D01*
X-05880280Y-05936500D01*
X-05893150Y-05940730D01*
X-05902800Y-05949200D01*
X-05909240Y-05961900D01*
X-05912450Y-05978840D01*
X-05909240Y-05993650D01*
X-05901190Y-06008470D01*
X-05891540Y-06016940D01*
X-05880280Y-06019050D01*
X-05867410Y-06014820D01*
X-05857760Y-06004230D01*
X-05848110Y-05985180D01*
G01X-05754550Y-06000000D02*
G02X-05754550Y-06000000I-00255270J0D01*
G01X-05754550Y-05000000D02*
G02X-05754550Y-05000000I-00255270J0D01*
G01X-06171530Y-05063500D02*
X-06171530Y-04936500D01*
X-06131320Y-04936500D01*
X-06118450Y-04942850D01*
X-06110400Y-04951320D01*
X-06107190Y-04968250D01*
X-06110400Y-04985180D01*
X-06120060Y-04995770D01*
X-06131320Y-05002120D01*
X-06171530Y-05002120D01*
G01X-06131320Y-05002120D02*
X-06107190Y-05063500D01*
G01X-06040390Y-05010590D02*
X-06029120Y-04995770D01*
X-06019470Y-04987300D01*
X-06006600Y-04983070D01*
X-05995340Y-04987300D01*
X-05987300Y-04995770D01*
X-05980860Y-05008470D01*
X-05979250Y-05023280D01*
X-05980860Y-05035990D01*
X-05987300Y-05048690D01*
X-05996950Y-05059270D01*
X-06008210Y-05063500D01*
X-06021080Y-05059270D01*
X-06032340Y-05046570D01*
X-06038780Y-05027520D01*
X-06040390Y-05006350D01*
X-06037170Y-04978840D01*
X-06032340Y-04964010D01*
X-06024300Y-04949200D01*
X-06013040Y-04938620D01*
X-06001780Y-04936500D01*
X-05990520Y-04940730D01*
X-05982470Y-04951320D01*
G01X-05880280Y-05063500D02*
X-05869020Y-05061380D01*
X-05856150Y-05055040D01*
X-05848110Y-05044450D01*
X-05844890Y-05029630D01*
X-05848110Y-05014820D01*
X-05857760Y-05002120D01*
X-05872240Y-04995770D01*
X-05888320Y-04995770D01*
X-05897980Y-04991530D01*
X-05906020Y-04980950D01*
X-05909240Y-04966130D01*
X-05904410Y-04951320D01*
X-05893150Y-04940730D01*
X-05880280Y-04936500D01*
X-05867410Y-04940730D01*
X-05856150Y-04951320D01*
X-05851320Y-04966130D01*
X-05854540Y-04980950D01*
X-05862580Y-04991530D01*
X-05872240Y-04995770D01*
X-05888320Y-04995770D01*
X-05902800Y-05002120D01*
X-05912450Y-05014820D01*
X-05915670Y-05029630D01*
X-05912450Y-05044450D01*
X-05904410Y-05055040D01*
X-05891540Y-05061380D01*
X-05880280Y-05063500D01*
G01X-06171530Y-04063500D02*
X-06171530Y-03936500D01*
X-06131320Y-03936500D01*
X-06118450Y-03942850D01*
X-06110400Y-03951320D01*
X-06107190Y-03968250D01*
X-06110400Y-03985180D01*
X-06120060Y-03995770D01*
X-06131320Y-04002120D01*
X-06171530Y-04002120D01*
G01X-06131320Y-04002120D02*
X-06107190Y-04063500D01*
G01X-06045210Y-04044450D02*
X-06035560Y-04055040D01*
X-06024300Y-04061380D01*
X-06009820Y-04063500D01*
X-05995340Y-04059270D01*
X-05984080Y-04050800D01*
X-05976040Y-04035990D01*
X-05974430Y-04019050D01*
X-05977650Y-04002120D01*
X-05985690Y-03991530D01*
X-05996950Y-03983070D01*
X-06008210Y-03980950D01*
X-06019470Y-03983070D01*
X-06033950Y-03991530D01*
X-06029120Y-03936500D01*
X-05985690Y-03936500D01*
G01X-05883500Y-04063500D02*
X-05880280Y-04035990D01*
X-05875450Y-04012700D01*
X-05869020Y-03991530D01*
X-05860980Y-03968250D01*
X-05848110Y-03936500D01*
X-05912450Y-03936500D01*
G01X-05754550Y-04000000D02*
G02X-05754550Y-04000000I-00255270J0D01*
G01X-06171530Y-03063500D02*
X-06171530Y-02936500D01*
X-06131320Y-02936500D01*
X-06118450Y-02942850D01*
X-06110400Y-02951320D01*
X-06107190Y-02968250D01*
X-06110400Y-02985180D01*
X-06120060Y-02995770D01*
X-06131320Y-03002120D01*
X-06171530Y-03002120D01*
G01X-06131320Y-03002120D02*
X-06107190Y-03063500D01*
G01X-05990520Y-03063500D02*
X-05990520Y-02936500D01*
X-06050040Y-03027520D01*
X-05969600Y-03027520D01*
G01X-05910850Y-03010590D02*
X-05899580Y-02995770D01*
X-05889930Y-02987300D01*
X-05877060Y-02983070D01*
X-05865800Y-02987300D01*
X-05857760Y-02995770D01*
X-05851320Y-03008470D01*
X-05849710Y-03023280D01*
X-05851320Y-03035990D01*
X-05857760Y-03048690D01*
X-05867410Y-03059270D01*
X-05878670Y-03063500D01*
X-05891540Y-03059270D01*
X-05902800Y-03046570D01*
X-05909240Y-03027520D01*
X-05910850Y-03006350D01*
X-05907630Y-02978840D01*
X-05902800Y-02964010D01*
X-05894760Y-02949200D01*
X-05883500Y-02938620D01*
X-05872240Y-02936500D01*
X-05860980Y-02940730D01*
X-05852930Y-02951320D01*
G01X-05754550Y-03000000D02*
G02X-05754550Y-03000000I-00255270J0D01*
G01X-05754550Y-02000000D02*
G02X-05754550Y-02000000I-00255270J0D01*
G01X-06171530Y-02063500D02*
X-06171530Y-01936500D01*
X-06131320Y-01936500D01*
X-06118450Y-01942850D01*
X-06110400Y-01951320D01*
X-06107190Y-01968250D01*
X-06110400Y-01985180D01*
X-06120060Y-01995770D01*
X-06131320Y-02002120D01*
X-06171530Y-02002120D01*
G01X-06131320Y-02002120D02*
X-06107190Y-02063500D01*
G01X-06045210Y-02038100D02*
X-06035560Y-02052920D01*
X-06022690Y-02061380D01*
X-06008210Y-02063500D01*
X-05995340Y-02061380D01*
X-05982470Y-02050800D01*
X-05974430Y-02038100D01*
X-05972820Y-02025400D01*
X-05976040Y-02010590D01*
X-05987300Y-02000000D01*
X-05998560Y-01995770D01*
X-06013040Y-01995770D01*
G01X-05998560Y-01995770D02*
X-05988910Y-01989420D01*
X-05980860Y-01978840D01*
X-05977650Y-01966130D01*
X-05980860Y-01953430D01*
X-05988910Y-01942850D01*
X-06003390Y-01936500D01*
X-06017860Y-01938620D01*
X-06032340Y-01947080D01*
G01X-05915670Y-02044450D02*
X-05906020Y-02055040D01*
X-05894760Y-02061380D01*
X-05880280Y-02063500D01*
X-05865800Y-02059270D01*
X-05854540Y-02050800D01*
X-05846500Y-02035990D01*
X-05844890Y-02019050D01*
X-05848110Y-02002120D01*
X-05856150Y-01991530D01*
X-05867410Y-01983070D01*
X-05878670Y-01980950D01*
X-05889930Y-01983070D01*
X-05904410Y-01991530D01*
X-05899580Y-01936500D01*
X-05856150Y-01936500D01*
G01X-06171530Y-01063500D02*
X-06171530Y-00936500D01*
X-06131320Y-00936500D01*
X-06118450Y-00942850D01*
X-06110400Y-00951320D01*
X-06107190Y-00968250D01*
X-06110400Y-00985180D01*
X-06120060Y-00995770D01*
X-06131320Y-01002120D01*
X-06171530Y-01002120D01*
G01X-06131320Y-01002120D02*
X-06107190Y-01063500D01*
G01X-06040390Y-00957670D02*
X-06030730Y-00944970D01*
X-06019470Y-00938620D01*
X-06006600Y-00936500D01*
X-05990520Y-00940730D01*
X-05979250Y-00951320D01*
X-05976040Y-00964010D01*
X-05977650Y-00976720D01*
X-05984080Y-00987300D01*
X-06016250Y-01008470D01*
X-06030730Y-01023280D01*
X-06040390Y-01044450D01*
X-06043600Y-01063500D01*
X-05976040Y-01063500D01*
G01X-05860980Y-01063500D02*
X-05860980Y-00936500D01*
X-05920500Y-01027520D01*
X-05840060Y-01027520D01*
G01X-05754550Y-01000000D02*
G02X-05754550Y-01000000I-00255270J0D01*
G01X-06171530Y-00063500D02*
X-06171530Y00063500D01*
X-06131320Y00063500D01*
X-06118450Y00057150D01*
X-06110400Y00048680D01*
X-06107190Y00031750D01*
X-06110400Y00014820D01*
X-06120060Y00004230D01*
X-06131320Y-00002120D01*
X-06171530Y-00002120D01*
G01X-06131320Y-00002120D02*
X-06107190Y-00063500D01*
G01X-06009820Y-00063500D02*
X-06009820Y00063500D01*
X-06029120Y00038100D01*
G01X-06029120Y-00063500D02*
X-05990520Y-00063500D01*
G01X-05915670Y-00038100D02*
X-05906020Y-00052920D01*
X-05893150Y-00061380D01*
X-05878670Y-00063500D01*
X-05865800Y-00061380D01*
X-05852930Y-00050800D01*
X-05844890Y-00038100D01*
X-05843280Y-00025400D01*
X-05846500Y-00010590D01*
X-05857760Y0D01*
X-05869020Y00004230D01*
X-05883500Y00004230D01*
G01X-05869020Y00004230D02*
X-05859370Y00010580D01*
X-05851320Y00021160D01*
X-05848110Y00033870D01*
X-05851320Y00046570D01*
X-05859370Y00057150D01*
X-05873850Y00063500D01*
X-05888320Y00061380D01*
X-05902800Y00052920D01*
G01X-05754550Y0D02*
G02X-05754550Y0I-00255270J0D01*
G01X-05754550Y01000000D02*
G02X-05754550Y01000000I-00255270J0D01*
G01X-06106760Y00936500D02*
X-06106760Y01063500D01*
X-06066550Y01063500D01*
X-06053680Y01057150D01*
X-06045630Y01048680D01*
X-06042420Y01031750D01*
X-06045630Y01014820D01*
X-06055290Y01004230D01*
X-06066550Y00997880D01*
X-06106760Y00997880D01*
G01X-06066550Y00997880D02*
X-06042420Y00936500D01*
G01X-05975620Y01042330D02*
X-05965960Y01055030D01*
X-05954700Y01061380D01*
X-05941830Y01063500D01*
X-05925750Y01059270D01*
X-05914480Y01048680D01*
X-05911270Y01035990D01*
X-05912880Y01023280D01*
X-05919310Y01012700D01*
X-05951480Y00991530D01*
X-05965960Y00976720D01*
X-05975620Y00955550D01*
X-05978830Y00936500D01*
X-05911270Y00936500D01*
G01X-05171530Y-06063500D02*
X-05171530Y-05936500D01*
X-05131320Y-05936500D01*
X-05118450Y-05942850D01*
X-05110400Y-05951320D01*
X-05107190Y-05968250D01*
X-05110400Y-05985180D01*
X-05120060Y-05995770D01*
X-05131320Y-06002120D01*
X-05171530Y-06002120D01*
G01X-05131320Y-06002120D02*
X-05107190Y-06063500D01*
G01X-05009820Y-06063500D02*
X-04998560Y-06061380D01*
X-04985690Y-06055040D01*
X-04977650Y-06044450D01*
X-04974430Y-06029630D01*
X-04977650Y-06014820D01*
X-04987300Y-06002120D01*
X-05001780Y-05995770D01*
X-05017860Y-05995770D01*
X-05027520Y-05991530D01*
X-05035560Y-05980950D01*
X-05038780Y-05966130D01*
X-05033950Y-05951320D01*
X-05022690Y-05940730D01*
X-05009820Y-05936500D01*
X-04996950Y-05940730D01*
X-04985690Y-05951320D01*
X-04980860Y-05966130D01*
X-04984080Y-05980950D01*
X-04992120Y-05991530D01*
X-05001780Y-05995770D01*
X-05017860Y-05995770D01*
X-05032340Y-06002120D01*
X-05041990Y-06014820D01*
X-05045210Y-06029630D01*
X-05041990Y-06044450D01*
X-05033950Y-06055040D01*
X-05021080Y-06061380D01*
X-05009820Y-06063500D01*
G01X-04880280Y-05936500D02*
X-04893150Y-05940730D01*
X-04902800Y-05951320D01*
X-04909240Y-05964010D01*
X-04914060Y-05980950D01*
X-04915670Y-06000000D01*
X-04914060Y-06019050D01*
X-04909240Y-06035990D01*
X-04902800Y-06048690D01*
X-04893150Y-06059270D01*
X-04880280Y-06063500D01*
X-04867410Y-06059270D01*
X-04857760Y-06048690D01*
X-04851320Y-06035990D01*
X-04846500Y-06019050D01*
X-04844890Y-06000000D01*
X-04846500Y-05980950D01*
X-04851320Y-05964010D01*
X-04857760Y-05951320D01*
X-04867410Y-05940730D01*
X-04880280Y-05936500D01*
G01X-04754550Y-06000000D02*
G02X-04754550Y-06000000I-00255270J0D01*
G01X-04754550Y-05000000D02*
G02X-04754550Y-05000000I-00255270J0D01*
G01X-05171530Y-05063500D02*
X-05171530Y-04936500D01*
X-05131320Y-04936500D01*
X-05118450Y-04942850D01*
X-05110400Y-04951320D01*
X-05107190Y-04968250D01*
X-05110400Y-04985180D01*
X-05120060Y-04995770D01*
X-05131320Y-05002120D01*
X-05171530Y-05002120D01*
G01X-05131320Y-05002120D02*
X-05107190Y-05063500D01*
G01X-05040390Y-05010590D02*
X-05029120Y-04995770D01*
X-05019470Y-04987300D01*
X-05006600Y-04983070D01*
X-04995340Y-04987300D01*
X-04987300Y-04995770D01*
X-04980860Y-05008470D01*
X-04979250Y-05023280D01*
X-04980860Y-05035990D01*
X-04987300Y-05048690D01*
X-04996950Y-05059270D01*
X-05008210Y-05063500D01*
X-05021080Y-05059270D01*
X-05032340Y-05046570D01*
X-05038780Y-05027520D01*
X-05040390Y-05006350D01*
X-05037170Y-04978840D01*
X-05032340Y-04964010D01*
X-05024300Y-04949200D01*
X-05013040Y-04938620D01*
X-05001780Y-04936500D01*
X-04990520Y-04940730D01*
X-04982470Y-04951320D01*
G01X-04907630Y-05048690D02*
X-04896370Y-05059270D01*
X-04883500Y-05063500D01*
X-04870630Y-05059270D01*
X-04859370Y-05046570D01*
X-04851320Y-05027520D01*
X-04848110Y-05008470D01*
X-04848110Y-04985180D01*
X-04851320Y-04966130D01*
X-04859370Y-04949200D01*
X-04869020Y-04940730D01*
X-04880280Y-04936500D01*
X-04893150Y-04940730D01*
X-04902800Y-04949200D01*
X-04909240Y-04961900D01*
X-04912450Y-04978840D01*
X-04909240Y-04993650D01*
X-04901190Y-05008470D01*
X-04891540Y-05016940D01*
X-04880280Y-05019050D01*
X-04867410Y-05014820D01*
X-04857760Y-05004230D01*
X-04848110Y-04985180D01*
G01X-05171530Y-04063500D02*
X-05171530Y-03936500D01*
X-05131320Y-03936500D01*
X-05118450Y-03942850D01*
X-05110400Y-03951320D01*
X-05107190Y-03968250D01*
X-05110400Y-03985180D01*
X-05120060Y-03995770D01*
X-05131320Y-04002120D01*
X-05171530Y-04002120D01*
G01X-05131320Y-04002120D02*
X-05107190Y-04063500D01*
G01X-05045210Y-04044450D02*
X-05035560Y-04055040D01*
X-05024300Y-04061380D01*
X-05009820Y-04063500D01*
X-04995340Y-04059270D01*
X-04984080Y-04050800D01*
X-04976040Y-04035990D01*
X-04974430Y-04019050D01*
X-04977650Y-04002120D01*
X-04985690Y-03991530D01*
X-04996950Y-03983070D01*
X-05008210Y-03980950D01*
X-05019470Y-03983070D01*
X-05033950Y-03991530D01*
X-05029120Y-03936500D01*
X-04985690Y-03936500D01*
G01X-04880280Y-04063500D02*
X-04869020Y-04061380D01*
X-04856150Y-04055040D01*
X-04848110Y-04044450D01*
X-04844890Y-04029630D01*
X-04848110Y-04014820D01*
X-04857760Y-04002120D01*
X-04872240Y-03995770D01*
X-04888320Y-03995770D01*
X-04897980Y-03991530D01*
X-04906020Y-03980950D01*
X-04909240Y-03966130D01*
X-04904410Y-03951320D01*
X-04893150Y-03940730D01*
X-04880280Y-03936500D01*
X-04867410Y-03940730D01*
X-04856150Y-03951320D01*
X-04851320Y-03966130D01*
X-04854540Y-03980950D01*
X-04862580Y-03991530D01*
X-04872240Y-03995770D01*
X-04888320Y-03995770D01*
X-04902800Y-04002120D01*
X-04912450Y-04014820D01*
X-04915670Y-04029630D01*
X-04912450Y-04044450D01*
X-04904410Y-04055040D01*
X-04891540Y-04061380D01*
X-04880280Y-04063500D01*
G01X-04754550Y-04000000D02*
G02X-04754550Y-04000000I-00255270J0D01*
G01X-05171530Y-03063500D02*
X-05171530Y-02936500D01*
X-05131320Y-02936500D01*
X-05118450Y-02942850D01*
X-05110400Y-02951320D01*
X-05107190Y-02968250D01*
X-05110400Y-02985180D01*
X-05120060Y-02995770D01*
X-05131320Y-03002120D01*
X-05171530Y-03002120D01*
G01X-05131320Y-03002120D02*
X-05107190Y-03063500D01*
G01X-04990520Y-03063500D02*
X-04990520Y-02936500D01*
X-05050040Y-03027520D01*
X-04969600Y-03027520D01*
G01X-04883500Y-03063500D02*
X-04880280Y-03035990D01*
X-04875450Y-03012700D01*
X-04869020Y-02991530D01*
X-04860980Y-02968250D01*
X-04848110Y-02936500D01*
X-04912450Y-02936500D01*
G01X-04754550Y-03000000D02*
G02X-04754550Y-03000000I-00255270J0D01*
G01X-04754550Y-02000000D02*
G02X-04754550Y-02000000I-00255270J0D01*
G01X-05171530Y-02063500D02*
X-05171530Y-01936500D01*
X-05131320Y-01936500D01*
X-05118450Y-01942850D01*
X-05110400Y-01951320D01*
X-05107190Y-01968250D01*
X-05110400Y-01985180D01*
X-05120060Y-01995770D01*
X-05131320Y-02002120D01*
X-05171530Y-02002120D01*
G01X-05131320Y-02002120D02*
X-05107190Y-02063500D01*
G01X-05045210Y-02038100D02*
X-05035560Y-02052920D01*
X-05022690Y-02061380D01*
X-05008210Y-02063500D01*
X-04995340Y-02061380D01*
X-04982470Y-02050800D01*
X-04974430Y-02038100D01*
X-04972820Y-02025400D01*
X-04976040Y-02010590D01*
X-04987300Y-02000000D01*
X-04998560Y-01995770D01*
X-05013040Y-01995770D01*
G01X-04998560Y-01995770D02*
X-04988910Y-01989420D01*
X-04980860Y-01978840D01*
X-04977650Y-01966130D01*
X-04980860Y-01953430D01*
X-04988910Y-01942850D01*
X-05003390Y-01936500D01*
X-05017860Y-01938620D01*
X-05032340Y-01947080D01*
G01X-04910850Y-02010590D02*
X-04899580Y-01995770D01*
X-04889930Y-01987300D01*
X-04877060Y-01983070D01*
X-04865800Y-01987300D01*
X-04857760Y-01995770D01*
X-04851320Y-02008470D01*
X-04849710Y-02023280D01*
X-04851320Y-02035990D01*
X-04857760Y-02048690D01*
X-04867410Y-02059270D01*
X-04878670Y-02063500D01*
X-04891540Y-02059270D01*
X-04902800Y-02046570D01*
X-04909240Y-02027520D01*
X-04910850Y-02006350D01*
X-04907630Y-01978840D01*
X-04902800Y-01964010D01*
X-04894760Y-01949200D01*
X-04883500Y-01938620D01*
X-04872240Y-01936500D01*
X-04860980Y-01940730D01*
X-04852930Y-01951320D01*
G01X-05171530Y-01063500D02*
X-05171530Y-00936500D01*
X-05131320Y-00936500D01*
X-05118450Y-00942850D01*
X-05110400Y-00951320D01*
X-05107190Y-00968250D01*
X-05110400Y-00985180D01*
X-05120060Y-00995770D01*
X-05131320Y-01002120D01*
X-05171530Y-01002120D01*
G01X-05131320Y-01002120D02*
X-05107190Y-01063500D01*
G01X-05040390Y-00957670D02*
X-05030730Y-00944970D01*
X-05019470Y-00938620D01*
X-05006600Y-00936500D01*
X-04990520Y-00940730D01*
X-04979250Y-00951320D01*
X-04976040Y-00964010D01*
X-04977650Y-00976720D01*
X-04984080Y-00987300D01*
X-05016250Y-01008470D01*
X-05030730Y-01023280D01*
X-05040390Y-01044450D01*
X-05043600Y-01063500D01*
X-04976040Y-01063500D01*
G01X-04915670Y-01044450D02*
X-04906020Y-01055040D01*
X-04894760Y-01061380D01*
X-04880280Y-01063500D01*
X-04865800Y-01059270D01*
X-04854540Y-01050800D01*
X-04846500Y-01035990D01*
X-04844890Y-01019050D01*
X-04848110Y-01002120D01*
X-04856150Y-00991530D01*
X-04867410Y-00983070D01*
X-04878670Y-00980950D01*
X-04889930Y-00983070D01*
X-04904410Y-00991530D01*
X-04899580Y-00936500D01*
X-04856150Y-00936500D01*
G01X-04754550Y-01000000D02*
G02X-04754550Y-01000000I-00255270J0D01*
G01X-05171530Y-00063500D02*
X-05171530Y00063500D01*
X-05131320Y00063500D01*
X-05118450Y00057150D01*
X-05110400Y00048680D01*
X-05107190Y00031750D01*
X-05110400Y00014820D01*
X-05120060Y00004230D01*
X-05131320Y-00002120D01*
X-05171530Y-00002120D01*
G01X-05131320Y-00002120D02*
X-05107190Y-00063500D01*
G01X-05009820Y-00063500D02*
X-05009820Y00063500D01*
X-05029120Y00038100D01*
G01X-05029120Y-00063500D02*
X-04990520Y-00063500D01*
G01X-04860980Y-00063500D02*
X-04860980Y00063500D01*
X-04920500Y-00027520D01*
X-04840060Y-00027520D01*
G01X-04754550Y0D02*
G02X-04754550Y0I-00255270J0D01*
G01X-04754550Y01000000D02*
G02X-04754550Y01000000I-00255270J0D01*
G01X-05106760Y00936500D02*
X-05106760Y01063500D01*
X-05066550Y01063500D01*
X-05053680Y01057150D01*
X-05045630Y01048680D01*
X-05042420Y01031750D01*
X-05045630Y01014820D01*
X-05055290Y01004230D01*
X-05066550Y00997880D01*
X-05106760Y00997880D01*
G01X-05066550Y00997880D02*
X-05042420Y00936500D01*
G01X-04980440Y00961900D02*
X-04970790Y00947080D01*
X-04957920Y00938620D01*
X-04943440Y00936500D01*
X-04930570Y00938620D01*
X-04917700Y00949200D01*
X-04909660Y00961900D01*
X-04908050Y00974600D01*
X-04911270Y00989410D01*
X-04922530Y01000000D01*
X-04933790Y01004230D01*
X-04948270Y01004230D01*
G01X-04933790Y01004230D02*
X-04924140Y01010580D01*
X-04916090Y01021160D01*
X-04912880Y01033870D01*
X-04916090Y01046570D01*
X-04924140Y01057150D01*
X-04938620Y01063500D01*
X-04953090Y01061380D01*
X-04967570Y01052920D01*
G01X-04171530Y-06063500D02*
X-04171530Y-05936500D01*
X-04131320Y-05936500D01*
X-04118450Y-05942850D01*
X-04110400Y-05951320D01*
X-04107190Y-05968250D01*
X-04110400Y-05985180D01*
X-04120060Y-05995770D01*
X-04131320Y-06002120D01*
X-04171530Y-06002120D01*
G01X-04131320Y-06002120D02*
X-04107190Y-06063500D01*
G01X-04009820Y-06063500D02*
X-03998560Y-06061380D01*
X-03985690Y-06055040D01*
X-03977650Y-06044450D01*
X-03974430Y-06029630D01*
X-03977650Y-06014820D01*
X-03987300Y-06002120D01*
X-04001780Y-05995770D01*
X-04017860Y-05995770D01*
X-04027520Y-05991530D01*
X-04035560Y-05980950D01*
X-04038780Y-05966130D01*
X-04033950Y-05951320D01*
X-04022690Y-05940730D01*
X-04009820Y-05936500D01*
X-03996950Y-05940730D01*
X-03985690Y-05951320D01*
X-03980860Y-05966130D01*
X-03984080Y-05980950D01*
X-03992120Y-05991530D01*
X-04001780Y-05995770D01*
X-04017860Y-05995770D01*
X-04032340Y-06002120D01*
X-04041990Y-06014820D01*
X-04045210Y-06029630D01*
X-04041990Y-06044450D01*
X-04033950Y-06055040D01*
X-04021080Y-06061380D01*
X-04009820Y-06063500D01*
G01X-03880280Y-06063500D02*
X-03880280Y-05936500D01*
X-03899580Y-05961900D01*
G01X-03899580Y-06063500D02*
X-03860980Y-06063500D01*
G01X-03754550Y-06000000D02*
G02X-03754550Y-06000000I-00255270J0D01*
G01X-03754550Y-05000000D02*
G02X-03754550Y-05000000I-00255270J0D01*
G01X-04171530Y-05063500D02*
X-04171530Y-04936500D01*
X-04131320Y-04936500D01*
X-04118450Y-04942850D01*
X-04110400Y-04951320D01*
X-04107190Y-04968250D01*
X-04110400Y-04985180D01*
X-04120060Y-04995770D01*
X-04131320Y-05002120D01*
X-04171530Y-05002120D01*
G01X-04131320Y-05002120D02*
X-04107190Y-05063500D01*
G01X-04013040Y-05063500D02*
X-04009820Y-05035990D01*
X-04004990Y-05012700D01*
X-03998560Y-04991530D01*
X-03990520Y-04968250D01*
X-03977650Y-04936500D01*
X-04041990Y-04936500D01*
G01X-03880280Y-04936500D02*
X-03893150Y-04940730D01*
X-03902800Y-04951320D01*
X-03909240Y-04964010D01*
X-03914060Y-04980950D01*
X-03915670Y-05000000D01*
X-03914060Y-05019050D01*
X-03909240Y-05035990D01*
X-03902800Y-05048690D01*
X-03893150Y-05059270D01*
X-03880280Y-05063500D01*
X-03867410Y-05059270D01*
X-03857760Y-05048690D01*
X-03851320Y-05035990D01*
X-03846500Y-05019050D01*
X-03844890Y-05000000D01*
X-03846500Y-04980950D01*
X-03851320Y-04964010D01*
X-03857760Y-04951320D01*
X-03867410Y-04940730D01*
X-03880280Y-04936500D01*
G01X-04171530Y-04063500D02*
X-04171530Y-03936500D01*
X-04131320Y-03936500D01*
X-04118450Y-03942850D01*
X-04110400Y-03951320D01*
X-04107190Y-03968250D01*
X-04110400Y-03985180D01*
X-04120060Y-03995770D01*
X-04131320Y-04002120D01*
X-04171530Y-04002120D01*
G01X-04131320Y-04002120D02*
X-04107190Y-04063500D01*
G01X-04045210Y-04044450D02*
X-04035560Y-04055040D01*
X-04024300Y-04061380D01*
X-04009820Y-04063500D01*
X-03995340Y-04059270D01*
X-03984080Y-04050800D01*
X-03976040Y-04035990D01*
X-03974430Y-04019050D01*
X-03977650Y-04002120D01*
X-03985690Y-03991530D01*
X-03996950Y-03983070D01*
X-04008210Y-03980950D01*
X-04019470Y-03983070D01*
X-04033950Y-03991530D01*
X-04029120Y-03936500D01*
X-03985690Y-03936500D01*
G01X-03907630Y-04048690D02*
X-03896370Y-04059270D01*
X-03883500Y-04063500D01*
X-03870630Y-04059270D01*
X-03859370Y-04046570D01*
X-03851320Y-04027520D01*
X-03848110Y-04008470D01*
X-03848110Y-03985180D01*
X-03851320Y-03966130D01*
X-03859370Y-03949200D01*
X-03869020Y-03940730D01*
X-03880280Y-03936500D01*
X-03893150Y-03940730D01*
X-03902800Y-03949200D01*
X-03909240Y-03961900D01*
X-03912450Y-03978840D01*
X-03909240Y-03993650D01*
X-03901190Y-04008470D01*
X-03891540Y-04016940D01*
X-03880280Y-04019050D01*
X-03867410Y-04014820D01*
X-03857760Y-04004230D01*
X-03848110Y-03985180D01*
G01X-03754550Y-04000000D02*
G02X-03754550Y-04000000I-00255270J0D01*
G01X-04171530Y-03063500D02*
X-04171530Y-02936500D01*
X-04131320Y-02936500D01*
X-04118450Y-02942850D01*
X-04110400Y-02951320D01*
X-04107190Y-02968250D01*
X-04110400Y-02985180D01*
X-04120060Y-02995770D01*
X-04131320Y-03002120D01*
X-04171530Y-03002120D01*
G01X-04131320Y-03002120D02*
X-04107190Y-03063500D01*
G01X-03990520Y-03063500D02*
X-03990520Y-02936500D01*
X-04050040Y-03027520D01*
X-03969600Y-03027520D01*
G01X-03880280Y-03063500D02*
X-03869020Y-03061380D01*
X-03856150Y-03055040D01*
X-03848110Y-03044450D01*
X-03844890Y-03029630D01*
X-03848110Y-03014820D01*
X-03857760Y-03002120D01*
X-03872240Y-02995770D01*
X-03888320Y-02995770D01*
X-03897980Y-02991530D01*
X-03906020Y-02980950D01*
X-03909240Y-02966130D01*
X-03904410Y-02951320D01*
X-03893150Y-02940730D01*
X-03880280Y-02936500D01*
X-03867410Y-02940730D01*
X-03856150Y-02951320D01*
X-03851320Y-02966130D01*
X-03854540Y-02980950D01*
X-03862580Y-02991530D01*
X-03872240Y-02995770D01*
X-03888320Y-02995770D01*
X-03902800Y-03002120D01*
X-03912450Y-03014820D01*
X-03915670Y-03029630D01*
X-03912450Y-03044450D01*
X-03904410Y-03055040D01*
X-03891540Y-03061380D01*
X-03880280Y-03063500D01*
G01X-03754550Y-03000000D02*
G02X-03754550Y-03000000I-00255270J0D01*
G01X-03754550Y-02000000D02*
G02X-03754550Y-02000000I-00255270J0D01*
G01X-04171530Y-02063500D02*
X-04171530Y-01936500D01*
X-04131320Y-01936500D01*
X-04118450Y-01942850D01*
X-04110400Y-01951320D01*
X-04107190Y-01968250D01*
X-04110400Y-01985180D01*
X-04120060Y-01995770D01*
X-04131320Y-02002120D01*
X-04171530Y-02002120D01*
G01X-04131320Y-02002120D02*
X-04107190Y-02063500D01*
G01X-04045210Y-02038100D02*
X-04035560Y-02052920D01*
X-04022690Y-02061380D01*
X-04008210Y-02063500D01*
X-03995340Y-02061380D01*
X-03982470Y-02050800D01*
X-03974430Y-02038100D01*
X-03972820Y-02025400D01*
X-03976040Y-02010590D01*
X-03987300Y-02000000D01*
X-03998560Y-01995770D01*
X-04013040Y-01995770D01*
G01X-03998560Y-01995770D02*
X-03988910Y-01989420D01*
X-03980860Y-01978840D01*
X-03977650Y-01966130D01*
X-03980860Y-01953430D01*
X-03988910Y-01942850D01*
X-04003390Y-01936500D01*
X-04017860Y-01938620D01*
X-04032340Y-01947080D01*
G01X-03883500Y-02063500D02*
X-03880280Y-02035990D01*
X-03875450Y-02012700D01*
X-03869020Y-01991530D01*
X-03860980Y-01968250D01*
X-03848110Y-01936500D01*
X-03912450Y-01936500D01*
G01X-04171530Y-01063500D02*
X-04171530Y-00936500D01*
X-04131320Y-00936500D01*
X-04118450Y-00942850D01*
X-04110400Y-00951320D01*
X-04107190Y-00968250D01*
X-04110400Y-00985180D01*
X-04120060Y-00995770D01*
X-04131320Y-01002120D01*
X-04171530Y-01002120D01*
G01X-04131320Y-01002120D02*
X-04107190Y-01063500D01*
G01X-04040390Y-00957670D02*
X-04030730Y-00944970D01*
X-04019470Y-00938620D01*
X-04006600Y-00936500D01*
X-03990520Y-00940730D01*
X-03979250Y-00951320D01*
X-03976040Y-00964010D01*
X-03977650Y-00976720D01*
X-03984080Y-00987300D01*
X-04016250Y-01008470D01*
X-04030730Y-01023280D01*
X-04040390Y-01044450D01*
X-04043600Y-01063500D01*
X-03976040Y-01063500D01*
G01X-03910850Y-01010590D02*
X-03899580Y-00995770D01*
X-03889930Y-00987300D01*
X-03877060Y-00983070D01*
X-03865800Y-00987300D01*
X-03857760Y-00995770D01*
X-03851320Y-01008470D01*
X-03849710Y-01023280D01*
X-03851320Y-01035990D01*
X-03857760Y-01048690D01*
X-03867410Y-01059270D01*
X-03878670Y-01063500D01*
X-03891540Y-01059270D01*
X-03902800Y-01046570D01*
X-03909240Y-01027520D01*
X-03910850Y-01006350D01*
X-03907630Y-00978840D01*
X-03902800Y-00964010D01*
X-03894760Y-00949200D01*
X-03883500Y-00938620D01*
X-03872240Y-00936500D01*
X-03860980Y-00940730D01*
X-03852930Y-00951320D01*
G01X-03754550Y-01000000D02*
G02X-03754550Y-01000000I-00255270J0D01*
G01X-04171530Y-00063500D02*
X-04171530Y00063500D01*
X-04131320Y00063500D01*
X-04118450Y00057150D01*
X-04110400Y00048680D01*
X-04107190Y00031750D01*
X-04110400Y00014820D01*
X-04120060Y00004230D01*
X-04131320Y-00002120D01*
X-04171530Y-00002120D01*
G01X-04131320Y-00002120D02*
X-04107190Y-00063500D01*
G01X-04009820Y-00063500D02*
X-04009820Y00063500D01*
X-04029120Y00038100D01*
G01X-04029120Y-00063500D02*
X-03990520Y-00063500D01*
G01X-03915670Y-00044450D02*
X-03906020Y-00055040D01*
X-03894760Y-00061380D01*
X-03880280Y-00063500D01*
X-03865800Y-00059270D01*
X-03854540Y-00050800D01*
X-03846500Y-00035990D01*
X-03844890Y-00019050D01*
X-03848110Y-00002120D01*
X-03856150Y00008470D01*
X-03867410Y00016930D01*
X-03878670Y00019050D01*
X-03889930Y00016930D01*
X-03904410Y00008470D01*
X-03899580Y00063500D01*
X-03856150Y00063500D01*
G01X-03754550Y0D02*
G02X-03754550Y0I-00255270J0D01*
G01X-03754550Y01000000D02*
G02X-03754550Y01000000I-00255270J0D01*
G01X-04590500Y02094920D02*
X-04527000Y02094920D01*
G01X-04590500Y02079340D02*
X-04590500Y02110500D01*
G01X-04527000Y02137250D02*
X-04590500Y02137250D01*
X-04590500Y02153510D01*
X-04587320Y02158930D01*
X-04579920Y02162990D01*
X-04571450Y02164350D01*
X-04562980Y02162990D01*
X-04556630Y02159610D01*
X-04553460Y02153510D01*
X-04553460Y02137250D01*
G01X-04534410Y02195160D02*
X-04529120Y02199910D01*
X-04527000Y02205330D01*
X-04529120Y02210740D01*
X-04535460Y02215490D01*
X-04544990Y02218870D01*
X-04554520Y02220230D01*
X-04566160Y02220230D01*
X-04575680Y02218870D01*
X-04584150Y02215490D01*
X-04588380Y02211420D01*
X-04590500Y02206680D01*
X-04588380Y02201260D01*
X-04584150Y02197200D01*
X-04577800Y02194490D01*
X-04569330Y02193130D01*
X-04561930Y02194490D01*
X-04554520Y02197870D01*
X-04550280Y02201940D01*
X-04549220Y02206680D01*
X-04551340Y02212100D01*
X-04556630Y02216160D01*
X-04566160Y02220230D01*
G01X-04290500Y02094920D02*
X-04227000Y02094920D01*
G01X-04290500Y02079340D02*
X-04290500Y02110500D01*
G01X-04227000Y02137250D02*
X-04290500Y02137250D01*
X-04290500Y02153510D01*
X-04287320Y02158930D01*
X-04279920Y02162990D01*
X-04271450Y02164350D01*
X-04262980Y02162990D01*
X-04256630Y02159610D01*
X-04253460Y02153510D01*
X-04253460Y02137250D01*
G01X-04227000Y02206680D02*
X-04290500Y02206680D01*
X-04277800Y02198550D01*
G01X-04227000Y02198550D02*
X-04227000Y02214810D01*
G01X-04227000Y02262560D02*
X-04290500Y02262560D01*
X-04277800Y02254430D01*
G01X-04227000Y02254430D02*
X-04227000Y02270690D01*
G01X-04106760Y00936500D02*
X-04106760Y01063500D01*
X-04066550Y01063500D01*
X-04053680Y01057150D01*
X-04045630Y01048680D01*
X-04042420Y01031750D01*
X-04045630Y01014820D01*
X-04055290Y01004230D01*
X-04066550Y00997880D01*
X-04106760Y00997880D01*
G01X-04066550Y00997880D02*
X-04042420Y00936500D01*
G01X-03925750Y00936500D02*
X-03925750Y01063500D01*
X-03985270Y00972480D01*
X-03904830Y00972480D01*
G01X-03990500Y02094920D02*
X-03927000Y02094920D01*
G01X-03990500Y02079340D02*
X-03990500Y02110500D01*
G01X-03927000Y02137250D02*
X-03990500Y02137250D01*
X-03990500Y02153510D01*
X-03987320Y02158930D01*
X-03979920Y02162990D01*
X-03971450Y02164350D01*
X-03962980Y02162990D01*
X-03956630Y02159610D01*
X-03953460Y02153510D01*
X-03953460Y02137250D01*
G01X-03927000Y02206680D02*
X-03990500Y02206680D01*
X-03977800Y02198550D01*
G01X-03927000Y02198550D02*
X-03927000Y02214810D01*
G01X-03939700Y02247660D02*
X-03932290Y02251720D01*
X-03928060Y02257140D01*
X-03927000Y02263240D01*
X-03928060Y02268660D01*
X-03933350Y02274080D01*
X-03939700Y02277460D01*
X-03946050Y02278140D01*
X-03953460Y02276780D01*
X-03958750Y02272040D01*
X-03960870Y02267300D01*
X-03960870Y02261210D01*
G01X-03960870Y02267300D02*
X-03964040Y02271370D01*
X-03969330Y02274750D01*
X-03975680Y02276110D01*
X-03982030Y02274750D01*
X-03987320Y02271370D01*
X-03990500Y02265270D01*
X-03989440Y02259170D01*
X-03985210Y02253080D01*
G01X-03690500Y02094920D02*
X-03627000Y02094920D01*
G01X-03690500Y02079340D02*
X-03690500Y02110500D01*
G01X-03627000Y02137250D02*
X-03690500Y02137250D01*
X-03690500Y02153510D01*
X-03687320Y02158930D01*
X-03679920Y02162990D01*
X-03671450Y02164350D01*
X-03662980Y02162990D01*
X-03656630Y02159610D01*
X-03653460Y02153510D01*
X-03653460Y02137250D01*
G01X-03627000Y02206680D02*
X-03690500Y02206680D01*
X-03677800Y02198550D01*
G01X-03627000Y02198550D02*
X-03627000Y02214810D01*
G01X-03636520Y02247660D02*
X-03631230Y02251720D01*
X-03628060Y02256460D01*
X-03627000Y02262560D01*
X-03629120Y02268660D01*
X-03633350Y02273400D01*
X-03640760Y02276780D01*
X-03649220Y02277460D01*
X-03657690Y02276110D01*
X-03662980Y02272720D01*
X-03667220Y02267980D01*
X-03668270Y02263240D01*
X-03667220Y02258500D01*
X-03662980Y02252400D01*
X-03690500Y02254430D01*
X-03690500Y02272720D01*
G01X-03171530Y-06063500D02*
X-03171530Y-05936500D01*
X-03131320Y-05936500D01*
X-03118450Y-05942850D01*
X-03110400Y-05951320D01*
X-03107190Y-05968250D01*
X-03110400Y-05985180D01*
X-03120060Y-05995770D01*
X-03131320Y-06002120D01*
X-03171530Y-06002120D01*
G01X-03131320Y-06002120D02*
X-03107190Y-06063500D01*
G01X-03009820Y-06063500D02*
X-02998560Y-06061380D01*
X-02985690Y-06055040D01*
X-02977650Y-06044450D01*
X-02974430Y-06029630D01*
X-02977650Y-06014820D01*
X-02987300Y-06002120D01*
X-03001780Y-05995770D01*
X-03017860Y-05995770D01*
X-03027520Y-05991530D01*
X-03035560Y-05980950D01*
X-03038780Y-05966130D01*
X-03033950Y-05951320D01*
X-03022690Y-05940730D01*
X-03009820Y-05936500D01*
X-02996950Y-05940730D01*
X-02985690Y-05951320D01*
X-02980860Y-05966130D01*
X-02984080Y-05980950D01*
X-02992120Y-05991530D01*
X-03001780Y-05995770D01*
X-03017860Y-05995770D01*
X-03032340Y-06002120D01*
X-03041990Y-06014820D01*
X-03045210Y-06029630D01*
X-03041990Y-06044450D01*
X-03033950Y-06055040D01*
X-03021080Y-06061380D01*
X-03009820Y-06063500D01*
G01X-02910850Y-05957670D02*
X-02901190Y-05944970D01*
X-02889930Y-05938620D01*
X-02877060Y-05936500D01*
X-02860980Y-05940730D01*
X-02849710Y-05951320D01*
X-02846500Y-05964010D01*
X-02848110Y-05976720D01*
X-02854540Y-05987300D01*
X-02886710Y-06008470D01*
X-02901190Y-06023280D01*
X-02910850Y-06044450D01*
X-02914060Y-06063500D01*
X-02846500Y-06063500D01*
G01X-02754550Y-06000000D02*
G02X-02754550Y-06000000I-00255270J0D01*
G01X-02754550Y-05000000D02*
G02X-02754550Y-05000000I-00255270J0D01*
G01X-03171530Y-05063500D02*
X-03171530Y-04936500D01*
X-03131320Y-04936500D01*
X-03118450Y-04942850D01*
X-03110400Y-04951320D01*
X-03107190Y-04968250D01*
X-03110400Y-04985180D01*
X-03120060Y-04995770D01*
X-03131320Y-05002120D01*
X-03171530Y-05002120D01*
G01X-03131320Y-05002120D02*
X-03107190Y-05063500D01*
G01X-03013040Y-05063500D02*
X-03009820Y-05035990D01*
X-03004990Y-05012700D01*
X-02998560Y-04991530D01*
X-02990520Y-04968250D01*
X-02977650Y-04936500D01*
X-03041990Y-04936500D01*
G01X-02880280Y-05063500D02*
X-02880280Y-04936500D01*
X-02899580Y-04961900D01*
G01X-02899580Y-05063500D02*
X-02860980Y-05063500D01*
G01X-03171530Y-04063500D02*
X-03171530Y-03936500D01*
X-03131320Y-03936500D01*
X-03118450Y-03942850D01*
X-03110400Y-03951320D01*
X-03107190Y-03968250D01*
X-03110400Y-03985180D01*
X-03120060Y-03995770D01*
X-03131320Y-04002120D01*
X-03171530Y-04002120D01*
G01X-03131320Y-04002120D02*
X-03107190Y-04063500D01*
G01X-03040390Y-04010590D02*
X-03029120Y-03995770D01*
X-03019470Y-03987300D01*
X-03006600Y-03983070D01*
X-02995340Y-03987300D01*
X-02987300Y-03995770D01*
X-02980860Y-04008470D01*
X-02979250Y-04023280D01*
X-02980860Y-04035990D01*
X-02987300Y-04048690D01*
X-02996950Y-04059270D01*
X-03008210Y-04063500D01*
X-03021080Y-04059270D01*
X-03032340Y-04046570D01*
X-03038780Y-04027520D01*
X-03040390Y-04006350D01*
X-03037170Y-03978840D01*
X-03032340Y-03964010D01*
X-03024300Y-03949200D01*
X-03013040Y-03938620D01*
X-03001780Y-03936500D01*
X-02990520Y-03940730D01*
X-02982470Y-03951320D01*
G01X-02880280Y-03936500D02*
X-02893150Y-03940730D01*
X-02902800Y-03951320D01*
X-02909240Y-03964010D01*
X-02914060Y-03980950D01*
X-02915670Y-04000000D01*
X-02914060Y-04019050D01*
X-02909240Y-04035990D01*
X-02902800Y-04048690D01*
X-02893150Y-04059270D01*
X-02880280Y-04063500D01*
X-02867410Y-04059270D01*
X-02857760Y-04048690D01*
X-02851320Y-04035990D01*
X-02846500Y-04019050D01*
X-02844890Y-04000000D01*
X-02846500Y-03980950D01*
X-02851320Y-03964010D01*
X-02857760Y-03951320D01*
X-02867410Y-03940730D01*
X-02880280Y-03936500D01*
G01X-02754550Y-04000000D02*
G02X-02754550Y-04000000I-00255270J0D01*
G01X-03171530Y-03063500D02*
X-03171530Y-02936500D01*
X-03131320Y-02936500D01*
X-03118450Y-02942850D01*
X-03110400Y-02951320D01*
X-03107190Y-02968250D01*
X-03110400Y-02985180D01*
X-03120060Y-02995770D01*
X-03131320Y-03002120D01*
X-03171530Y-03002120D01*
G01X-03131320Y-03002120D02*
X-03107190Y-03063500D01*
G01X-02990520Y-03063500D02*
X-02990520Y-02936500D01*
X-03050040Y-03027520D01*
X-02969600Y-03027520D01*
G01X-02907630Y-03048690D02*
X-02896370Y-03059270D01*
X-02883500Y-03063500D01*
X-02870630Y-03059270D01*
X-02859370Y-03046570D01*
X-02851320Y-03027520D01*
X-02848110Y-03008470D01*
X-02848110Y-02985180D01*
X-02851320Y-02966130D01*
X-02859370Y-02949200D01*
X-02869020Y-02940730D01*
X-02880280Y-02936500D01*
X-02893150Y-02940730D01*
X-02902800Y-02949200D01*
X-02909240Y-02961900D01*
X-02912450Y-02978840D01*
X-02909240Y-02993650D01*
X-02901190Y-03008470D01*
X-02891540Y-03016940D01*
X-02880280Y-03019050D01*
X-02867410Y-03014820D01*
X-02857760Y-03004230D01*
X-02848110Y-02985180D01*
G01X-02754550Y-03000000D02*
G02X-02754550Y-03000000I-00255270J0D01*
G01X-02754550Y-02000000D02*
G02X-02754550Y-02000000I-00255270J0D01*
G01X-03171530Y-02063500D02*
X-03171530Y-01936500D01*
X-03131320Y-01936500D01*
X-03118450Y-01942850D01*
X-03110400Y-01951320D01*
X-03107190Y-01968250D01*
X-03110400Y-01985180D01*
X-03120060Y-01995770D01*
X-03131320Y-02002120D01*
X-03171530Y-02002120D01*
G01X-03131320Y-02002120D02*
X-03107190Y-02063500D01*
G01X-03045210Y-02038100D02*
X-03035560Y-02052920D01*
X-03022690Y-02061380D01*
X-03008210Y-02063500D01*
X-02995340Y-02061380D01*
X-02982470Y-02050800D01*
X-02974430Y-02038100D01*
X-02972820Y-02025400D01*
X-02976040Y-02010590D01*
X-02987300Y-02000000D01*
X-02998560Y-01995770D01*
X-03013040Y-01995770D01*
G01X-02998560Y-01995770D02*
X-02988910Y-01989420D01*
X-02980860Y-01978840D01*
X-02977650Y-01966130D01*
X-02980860Y-01953430D01*
X-02988910Y-01942850D01*
X-03003390Y-01936500D01*
X-03017860Y-01938620D01*
X-03032340Y-01947080D01*
G01X-02880280Y-02063500D02*
X-02869020Y-02061380D01*
X-02856150Y-02055040D01*
X-02848110Y-02044450D01*
X-02844890Y-02029630D01*
X-02848110Y-02014820D01*
X-02857760Y-02002120D01*
X-02872240Y-01995770D01*
X-02888320Y-01995770D01*
X-02897980Y-01991530D01*
X-02906020Y-01980950D01*
X-02909240Y-01966130D01*
X-02904410Y-01951320D01*
X-02893150Y-01940730D01*
X-02880280Y-01936500D01*
X-02867410Y-01940730D01*
X-02856150Y-01951320D01*
X-02851320Y-01966130D01*
X-02854540Y-01980950D01*
X-02862580Y-01991530D01*
X-02872240Y-01995770D01*
X-02888320Y-01995770D01*
X-02902800Y-02002120D01*
X-02912450Y-02014820D01*
X-02915670Y-02029630D01*
X-02912450Y-02044450D01*
X-02904410Y-02055040D01*
X-02891540Y-02061380D01*
X-02880280Y-02063500D01*
G01X-03171530Y-01063500D02*
X-03171530Y-00936500D01*
X-03131320Y-00936500D01*
X-03118450Y-00942850D01*
X-03110400Y-00951320D01*
X-03107190Y-00968250D01*
X-03110400Y-00985180D01*
X-03120060Y-00995770D01*
X-03131320Y-01002120D01*
X-03171530Y-01002120D01*
G01X-03131320Y-01002120D02*
X-03107190Y-01063500D01*
G01X-03040390Y-00957670D02*
X-03030730Y-00944970D01*
X-03019470Y-00938620D01*
X-03006600Y-00936500D01*
X-02990520Y-00940730D01*
X-02979250Y-00951320D01*
X-02976040Y-00964010D01*
X-02977650Y-00976720D01*
X-02984080Y-00987300D01*
X-03016250Y-01008470D01*
X-03030730Y-01023280D01*
X-03040390Y-01044450D01*
X-03043600Y-01063500D01*
X-02976040Y-01063500D01*
G01X-02883500Y-01063500D02*
X-02880280Y-01035990D01*
X-02875450Y-01012700D01*
X-02869020Y-00991530D01*
X-02860980Y-00968250D01*
X-02848110Y-00936500D01*
X-02912450Y-00936500D01*
G01X-02754550Y-01000000D02*
G02X-02754550Y-01000000I-00255270J0D01*
G01X-03171530Y-00063500D02*
X-03171530Y00063500D01*
X-03131320Y00063500D01*
X-03118450Y00057150D01*
X-03110400Y00048680D01*
X-03107190Y00031750D01*
X-03110400Y00014820D01*
X-03120060Y00004230D01*
X-03131320Y-00002120D01*
X-03171530Y-00002120D01*
G01X-03131320Y-00002120D02*
X-03107190Y-00063500D01*
G01X-03009820Y-00063500D02*
X-03009820Y00063500D01*
X-03029120Y00038100D01*
G01X-03029120Y-00063500D02*
X-02990520Y-00063500D01*
G01X-02910850Y-00010590D02*
X-02899580Y00004230D01*
X-02889930Y00012700D01*
X-02877060Y00016930D01*
X-02865800Y00012700D01*
X-02857760Y00004230D01*
X-02851320Y-00008470D01*
X-02849710Y-00023280D01*
X-02851320Y-00035990D01*
X-02857760Y-00048690D01*
X-02867410Y-00059270D01*
X-02878670Y-00063500D01*
X-02891540Y-00059270D01*
X-02902800Y-00046570D01*
X-02909240Y-00027520D01*
X-02910850Y-00006350D01*
X-02907630Y00021160D01*
X-02902800Y00035990D01*
X-02894760Y00050800D01*
X-02883500Y00061380D01*
X-02872240Y00063500D01*
X-02860980Y00059270D01*
X-02852930Y00048680D01*
G01X-02754550Y0D02*
G02X-02754550Y0I-00255270J0D01*
G01X-02754550Y01000000D02*
G02X-02754550Y01000000I-00255270J0D01*
G01X-03106760Y00936500D02*
X-03106760Y01063500D01*
X-03066550Y01063500D01*
X-03053680Y01057150D01*
X-03045630Y01048680D01*
X-03042420Y01031750D01*
X-03045630Y01014820D01*
X-03055290Y01004230D01*
X-03066550Y00997880D01*
X-03106760Y00997880D01*
G01X-03066550Y00997880D02*
X-03042420Y00936500D01*
G01X-02980440Y00955550D02*
X-02970790Y00944960D01*
X-02959530Y00938620D01*
X-02945050Y00936500D01*
X-02930570Y00940730D01*
X-02919310Y00949200D01*
X-02911270Y00964010D01*
X-02909660Y00980950D01*
X-02912880Y00997880D01*
X-02920920Y01008470D01*
X-02932180Y01016930D01*
X-02943440Y01019050D01*
X-02954700Y01016930D01*
X-02969180Y01008470D01*
X-02964350Y01063500D01*
X-02920920Y01063500D01*
G01X-03090500Y02094920D02*
X-03027000Y02094920D01*
G01X-03090500Y02079340D02*
X-03090500Y02110500D01*
G01X-03027000Y02137250D02*
X-03090500Y02137250D01*
X-03090500Y02153510D01*
X-03087320Y02158930D01*
X-03079920Y02162990D01*
X-03071450Y02164350D01*
X-03062980Y02162990D01*
X-03056630Y02159610D01*
X-03053460Y02153510D01*
X-03053460Y02137250D01*
G01X-03027000Y02205330D02*
X-03040760Y02206680D01*
X-03052400Y02208710D01*
X-03062980Y02211420D01*
X-03074620Y02214810D01*
X-03090500Y02220230D01*
X-03090500Y02193130D01*
G01X-03390500Y02094920D02*
X-03327000Y02094920D01*
G01X-03390500Y02079340D02*
X-03390500Y02110500D01*
G01X-03327000Y02137250D02*
X-03390500Y02137250D01*
X-03390500Y02153510D01*
X-03387320Y02158930D01*
X-03379920Y02162990D01*
X-03371450Y02164350D01*
X-03362980Y02162990D01*
X-03356630Y02159610D01*
X-03353460Y02153510D01*
X-03353460Y02137250D01*
G01X-03327000Y02206680D02*
X-03328060Y02211420D01*
X-03331230Y02216840D01*
X-03336520Y02220230D01*
X-03343930Y02221580D01*
X-03351340Y02220230D01*
X-03357690Y02216160D01*
X-03360870Y02210070D01*
X-03360870Y02203290D01*
X-03362980Y02199230D01*
X-03368270Y02195840D01*
X-03375680Y02194490D01*
X-03383090Y02196520D01*
X-03388380Y02201260D01*
X-03390500Y02206680D01*
X-03388380Y02212100D01*
X-03383090Y02216840D01*
X-03375680Y02218870D01*
X-03368270Y02217520D01*
X-03362980Y02214130D01*
X-03360870Y02210070D01*
X-03360870Y02203290D01*
X-03357690Y02197200D01*
X-03351340Y02193130D01*
X-03343930Y02191780D01*
X-03336520Y02193130D01*
X-03331230Y02196520D01*
X-03328060Y02201940D01*
X-03327000Y02206680D01*
G01X-02940000Y02253710D02*
X-03130500Y02253710D01*
X-03130500Y02312970D01*
X-03120970Y02331940D01*
X-03108270Y02343790D01*
X-03082870Y02348530D01*
X-03057470Y02343790D01*
X-03041600Y02329570D01*
X-03032070Y02312970D01*
X-03032070Y02253710D01*
G01X-03032070Y02312970D02*
X-02940000Y02348530D01*
G01X-02962220Y02451320D02*
X-02946350Y02467910D01*
X-02940000Y02486880D01*
X-02946350Y02505840D01*
X-02965390Y02522440D01*
X-02993980Y02534290D01*
X-03022550Y02539030D01*
X-03057470Y02539030D01*
X-03086050Y02534290D01*
X-03111450Y02522440D01*
X-03124150Y02508210D01*
X-03130500Y02491620D01*
X-03124150Y02472650D01*
X-03111450Y02458430D01*
X-03092400Y02448950D01*
X-03067000Y02444210D01*
X-03044780Y02448950D01*
X-03022550Y02460800D01*
X-03009850Y02475030D01*
X-03006670Y02491620D01*
X-03013020Y02510580D01*
X-03028900Y02524810D01*
X-03057470Y02539030D01*
G01X-03019370Y02637080D02*
X-03041600Y02653670D01*
X-03054300Y02667900D01*
X-03060650Y02686860D01*
X-03054300Y02703460D01*
X-03041600Y02715310D01*
X-03022550Y02724790D01*
X-03000320Y02727160D01*
X-02981270Y02724790D01*
X-02962220Y02715310D01*
X-02946350Y02701080D01*
X-02940000Y02684490D01*
X-02946350Y02665530D01*
X-02965390Y02648930D01*
X-02993980Y02639450D01*
X-03025720Y02637080D01*
X-03067000Y02641820D01*
X-03089230Y02648930D01*
X-03111450Y02660780D01*
X-03127330Y02677380D01*
X-03130500Y02693970D01*
X-03124150Y02710570D01*
X-03108270Y02722420D01*
G01X-03340000Y02253710D02*
X-03530500Y02253710D01*
X-03530500Y02312970D01*
X-03520970Y02331940D01*
X-03508270Y02343790D01*
X-03482870Y02348530D01*
X-03457470Y02343790D01*
X-03441600Y02329570D01*
X-03432070Y02312970D01*
X-03432070Y02253710D01*
G01X-03432070Y02312970D02*
X-03340000Y02348530D01*
G01X-03362220Y02451320D02*
X-03346350Y02467910D01*
X-03340000Y02486880D01*
X-03346350Y02505840D01*
X-03365390Y02522440D01*
X-03393980Y02534290D01*
X-03422550Y02539030D01*
X-03457470Y02539030D01*
X-03486050Y02534290D01*
X-03511450Y02522440D01*
X-03524150Y02508210D01*
X-03530500Y02491620D01*
X-03524150Y02472650D01*
X-03511450Y02458430D01*
X-03492400Y02448950D01*
X-03467000Y02444210D01*
X-03444780Y02448950D01*
X-03422550Y02460800D01*
X-03409850Y02475030D01*
X-03406670Y02491620D01*
X-03413020Y02510580D01*
X-03428900Y02524810D01*
X-03457470Y02539030D01*
G01X-03340000Y02677380D02*
X-03381270Y02682120D01*
X-03416200Y02689230D01*
X-03447950Y02698710D01*
X-03482870Y02710570D01*
X-03530500Y02729530D01*
X-03530500Y02634710D01*
G01X-02490500Y02094920D02*
X-02427000Y02094920D01*
G01X-02490500Y02079340D02*
X-02490500Y02110500D01*
G01X-02427000Y02137250D02*
X-02490500Y02137250D01*
X-02490500Y02153510D01*
X-02487320Y02158930D01*
X-02479920Y02162990D01*
X-02471450Y02164350D01*
X-02462980Y02162990D01*
X-02456630Y02159610D01*
X-02453460Y02153510D01*
X-02453460Y02137250D01*
G01X-02436520Y02191780D02*
X-02431230Y02195840D01*
X-02428060Y02200580D01*
X-02427000Y02206680D01*
X-02429120Y02212780D01*
X-02433350Y02217520D01*
X-02440760Y02220900D01*
X-02449220Y02221580D01*
X-02457690Y02220230D01*
X-02462980Y02216840D01*
X-02467220Y02212100D01*
X-02468270Y02207360D01*
X-02467220Y02202620D01*
X-02462980Y02196520D01*
X-02490500Y02198550D01*
X-02490500Y02216840D01*
G01X-02790500Y02094920D02*
X-02727000Y02094920D01*
G01X-02790500Y02079340D02*
X-02790500Y02110500D01*
G01X-02727000Y02137250D02*
X-02790500Y02137250D01*
X-02790500Y02153510D01*
X-02787320Y02158930D01*
X-02779920Y02162990D01*
X-02771450Y02164350D01*
X-02762980Y02162990D01*
X-02756630Y02159610D01*
X-02753460Y02153510D01*
X-02753460Y02137250D01*
G01X-02753460Y02193810D02*
X-02760870Y02198550D01*
X-02765100Y02202620D01*
X-02767220Y02208030D01*
X-02765100Y02212780D01*
X-02760870Y02216160D01*
X-02754520Y02218870D01*
X-02747110Y02219550D01*
X-02740760Y02218870D01*
X-02734410Y02216160D01*
X-02729120Y02212100D01*
X-02727000Y02207360D01*
X-02729120Y02201940D01*
X-02735460Y02197200D01*
X-02744990Y02194490D01*
X-02755570Y02193810D01*
X-02769330Y02195160D01*
X-02776740Y02197200D01*
X-02784150Y02200580D01*
X-02789440Y02205330D01*
X-02790500Y02210070D01*
X-02788380Y02214810D01*
X-02783090Y02218200D01*
G01X-02540000Y02303710D02*
X-02730500Y02303710D01*
X-02730500Y02362970D01*
X-02720970Y02381940D01*
X-02708270Y02393790D01*
X-02682870Y02398530D01*
X-02657470Y02393790D01*
X-02641600Y02379570D01*
X-02632070Y02362970D01*
X-02632070Y02303710D01*
G01X-02632070Y02362970D02*
X-02540000Y02398530D01*
G01X-02562220Y02501320D02*
X-02546350Y02517910D01*
X-02540000Y02536880D01*
X-02546350Y02555840D01*
X-02565390Y02572440D01*
X-02593980Y02584290D01*
X-02622550Y02589030D01*
X-02657470Y02589030D01*
X-02686050Y02584290D01*
X-02711450Y02572440D01*
X-02724150Y02558210D01*
X-02730500Y02541620D01*
X-02724150Y02522650D01*
X-02711450Y02508430D01*
X-02692400Y02498950D01*
X-02667000Y02494210D01*
X-02644780Y02498950D01*
X-02622550Y02510800D01*
X-02609850Y02525030D01*
X-02606670Y02541620D01*
X-02613020Y02560580D01*
X-02628900Y02574810D01*
X-02657470Y02589030D01*
G01X-02568570Y02679970D02*
X-02552700Y02694190D01*
X-02543170Y02710780D01*
X-02540000Y02732120D01*
X-02546350Y02753460D01*
X-02559050Y02770050D01*
X-02581270Y02781900D01*
X-02606670Y02784270D01*
X-02632070Y02779530D01*
X-02647950Y02767680D01*
X-02660650Y02751080D01*
X-02663820Y02734490D01*
X-02660650Y02717900D01*
X-02647950Y02696560D01*
X-02730500Y02703670D01*
X-02730500Y02767680D01*
G01X-02590500Y03494920D02*
X-02527000Y03494920D01*
G01X-02590500Y03479340D02*
X-02590500Y03510500D01*
G01X-02527000Y03537250D02*
X-02590500Y03537250D01*
X-02590500Y03553510D01*
X-02587320Y03558930D01*
X-02579920Y03562990D01*
X-02571450Y03564350D01*
X-02562980Y03562990D01*
X-02556630Y03559610D01*
X-02553460Y03553510D01*
X-02553460Y03537250D01*
G01X-02527000Y03606680D02*
X-02590500Y03606680D01*
X-02577800Y03598550D01*
G01X-02527000Y03598550D02*
X-02527000Y03614810D01*
G01X-02527000Y03661210D02*
X-02540760Y03662560D01*
X-02552400Y03664590D01*
X-02562980Y03667300D01*
X-02574620Y03670690D01*
X-02590500Y03676110D01*
X-02590500Y03649010D01*
G01X-02171530Y-06063500D02*
X-02171530Y-05936500D01*
X-02131320Y-05936500D01*
X-02118450Y-05942850D01*
X-02110400Y-05951320D01*
X-02107190Y-05968250D01*
X-02110400Y-05985180D01*
X-02120060Y-05995770D01*
X-02131320Y-06002120D01*
X-02171530Y-06002120D01*
G01X-02131320Y-06002120D02*
X-02107190Y-06063500D01*
G01X-02009820Y-06063500D02*
X-01998560Y-06061380D01*
X-01985690Y-06055040D01*
X-01977650Y-06044450D01*
X-01974430Y-06029630D01*
X-01977650Y-06014820D01*
X-01987300Y-06002120D01*
X-02001780Y-05995770D01*
X-02017860Y-05995770D01*
X-02027520Y-05991530D01*
X-02035560Y-05980950D01*
X-02038780Y-05966130D01*
X-02033950Y-05951320D01*
X-02022690Y-05940730D01*
X-02009820Y-05936500D01*
X-01996950Y-05940730D01*
X-01985690Y-05951320D01*
X-01980860Y-05966130D01*
X-01984080Y-05980950D01*
X-01992120Y-05991530D01*
X-02001780Y-05995770D01*
X-02017860Y-05995770D01*
X-02032340Y-06002120D01*
X-02041990Y-06014820D01*
X-02045210Y-06029630D01*
X-02041990Y-06044450D01*
X-02033950Y-06055040D01*
X-02021080Y-06061380D01*
X-02009820Y-06063500D01*
G01X-01915670Y-06038100D02*
X-01906020Y-06052920D01*
X-01893150Y-06061380D01*
X-01878670Y-06063500D01*
X-01865800Y-06061380D01*
X-01852930Y-06050800D01*
X-01844890Y-06038100D01*
X-01843280Y-06025400D01*
X-01846500Y-06010590D01*
X-01857760Y-06000000D01*
X-01869020Y-05995770D01*
X-01883500Y-05995770D01*
G01X-01869020Y-05995770D02*
X-01859370Y-05989420D01*
X-01851320Y-05978840D01*
X-01848110Y-05966130D01*
X-01851320Y-05953430D01*
X-01859370Y-05942850D01*
X-01873850Y-05936500D01*
X-01888320Y-05938620D01*
X-01902800Y-05947080D01*
G01X-01754550Y-06000000D02*
G02X-01754550Y-06000000I-00255270J0D01*
G01X-01754550Y-05000000D02*
G02X-01754550Y-05000000I-00255270J0D01*
G01X-02171530Y-05063500D02*
X-02171530Y-04936500D01*
X-02131320Y-04936500D01*
X-02118450Y-04942850D01*
X-02110400Y-04951320D01*
X-02107190Y-04968250D01*
X-02110400Y-04985180D01*
X-02120060Y-04995770D01*
X-02131320Y-05002120D01*
X-02171530Y-05002120D01*
G01X-02131320Y-05002120D02*
X-02107190Y-05063500D01*
G01X-02013040Y-05063500D02*
X-02009820Y-05035990D01*
X-02004990Y-05012700D01*
X-01998560Y-04991530D01*
X-01990520Y-04968250D01*
X-01977650Y-04936500D01*
X-02041990Y-04936500D01*
G01X-01910850Y-04957670D02*
X-01901190Y-04944970D01*
X-01889930Y-04938620D01*
X-01877060Y-04936500D01*
X-01860980Y-04940730D01*
X-01849710Y-04951320D01*
X-01846500Y-04964010D01*
X-01848110Y-04976720D01*
X-01854540Y-04987300D01*
X-01886710Y-05008470D01*
X-01901190Y-05023280D01*
X-01910850Y-05044450D01*
X-01914060Y-05063500D01*
X-01846500Y-05063500D01*
G01X-02171530Y-04063500D02*
X-02171530Y-03936500D01*
X-02131320Y-03936500D01*
X-02118450Y-03942850D01*
X-02110400Y-03951320D01*
X-02107190Y-03968250D01*
X-02110400Y-03985180D01*
X-02120060Y-03995770D01*
X-02131320Y-04002120D01*
X-02171530Y-04002120D01*
G01X-02131320Y-04002120D02*
X-02107190Y-04063500D01*
G01X-02040390Y-04010590D02*
X-02029120Y-03995770D01*
X-02019470Y-03987300D01*
X-02006600Y-03983070D01*
X-01995340Y-03987300D01*
X-01987300Y-03995770D01*
X-01980860Y-04008470D01*
X-01979250Y-04023280D01*
X-01980860Y-04035990D01*
X-01987300Y-04048690D01*
X-01996950Y-04059270D01*
X-02008210Y-04063500D01*
X-02021080Y-04059270D01*
X-02032340Y-04046570D01*
X-02038780Y-04027520D01*
X-02040390Y-04006350D01*
X-02037170Y-03978840D01*
X-02032340Y-03964010D01*
X-02024300Y-03949200D01*
X-02013040Y-03938620D01*
X-02001780Y-03936500D01*
X-01990520Y-03940730D01*
X-01982470Y-03951320D01*
G01X-01880280Y-04063500D02*
X-01880280Y-03936500D01*
X-01899580Y-03961900D01*
G01X-01899580Y-04063500D02*
X-01860980Y-04063500D01*
G01X-01754550Y-04000000D02*
G02X-01754550Y-04000000I-00255270J0D01*
G01X-02171530Y-03063500D02*
X-02171530Y-02936500D01*
X-02131320Y-02936500D01*
X-02118450Y-02942850D01*
X-02110400Y-02951320D01*
X-02107190Y-02968250D01*
X-02110400Y-02985180D01*
X-02120060Y-02995770D01*
X-02131320Y-03002120D01*
X-02171530Y-03002120D01*
G01X-02131320Y-03002120D02*
X-02107190Y-03063500D01*
G01X-02045210Y-03044450D02*
X-02035560Y-03055040D01*
X-02024300Y-03061380D01*
X-02009820Y-03063500D01*
X-01995340Y-03059270D01*
X-01984080Y-03050800D01*
X-01976040Y-03035990D01*
X-01974430Y-03019050D01*
X-01977650Y-03002120D01*
X-01985690Y-02991530D01*
X-01996950Y-02983070D01*
X-02008210Y-02980950D01*
X-02019470Y-02983070D01*
X-02033950Y-02991530D01*
X-02029120Y-02936500D01*
X-01985690Y-02936500D01*
G01X-01880280Y-02936500D02*
X-01893150Y-02940730D01*
X-01902800Y-02951320D01*
X-01909240Y-02964010D01*
X-01914060Y-02980950D01*
X-01915670Y-03000000D01*
X-01914060Y-03019050D01*
X-01909240Y-03035990D01*
X-01902800Y-03048690D01*
X-01893150Y-03059270D01*
X-01880280Y-03063500D01*
X-01867410Y-03059270D01*
X-01857760Y-03048690D01*
X-01851320Y-03035990D01*
X-01846500Y-03019050D01*
X-01844890Y-03000000D01*
X-01846500Y-02980950D01*
X-01851320Y-02964010D01*
X-01857760Y-02951320D01*
X-01867410Y-02940730D01*
X-01880280Y-02936500D01*
G01X-01754550Y-03000000D02*
G02X-01754550Y-03000000I-00255270J0D01*
G01X-01754550Y-02000000D02*
G02X-01754550Y-02000000I-00255270J0D01*
G01X-02171530Y-02063500D02*
X-02171530Y-01936500D01*
X-02131320Y-01936500D01*
X-02118450Y-01942850D01*
X-02110400Y-01951320D01*
X-02107190Y-01968250D01*
X-02110400Y-01985180D01*
X-02120060Y-01995770D01*
X-02131320Y-02002120D01*
X-02171530Y-02002120D01*
G01X-02131320Y-02002120D02*
X-02107190Y-02063500D01*
G01X-02045210Y-02038100D02*
X-02035560Y-02052920D01*
X-02022690Y-02061380D01*
X-02008210Y-02063500D01*
X-01995340Y-02061380D01*
X-01982470Y-02050800D01*
X-01974430Y-02038100D01*
X-01972820Y-02025400D01*
X-01976040Y-02010590D01*
X-01987300Y-02000000D01*
X-01998560Y-01995770D01*
X-02013040Y-01995770D01*
G01X-01998560Y-01995770D02*
X-01988910Y-01989420D01*
X-01980860Y-01978840D01*
X-01977650Y-01966130D01*
X-01980860Y-01953430D01*
X-01988910Y-01942850D01*
X-02003390Y-01936500D01*
X-02017860Y-01938620D01*
X-02032340Y-01947080D01*
G01X-01907630Y-02048690D02*
X-01896370Y-02059270D01*
X-01883500Y-02063500D01*
X-01870630Y-02059270D01*
X-01859370Y-02046570D01*
X-01851320Y-02027520D01*
X-01848110Y-02008470D01*
X-01848110Y-01985180D01*
X-01851320Y-01966130D01*
X-01859370Y-01949200D01*
X-01869020Y-01940730D01*
X-01880280Y-01936500D01*
X-01893150Y-01940730D01*
X-01902800Y-01949200D01*
X-01909240Y-01961900D01*
X-01912450Y-01978840D01*
X-01909240Y-01993650D01*
X-01901190Y-02008470D01*
X-01891540Y-02016940D01*
X-01880280Y-02019050D01*
X-01867410Y-02014820D01*
X-01857760Y-02004230D01*
X-01848110Y-01985180D01*
G01X-02171530Y-01063500D02*
X-02171530Y-00936500D01*
X-02131320Y-00936500D01*
X-02118450Y-00942850D01*
X-02110400Y-00951320D01*
X-02107190Y-00968250D01*
X-02110400Y-00985180D01*
X-02120060Y-00995770D01*
X-02131320Y-01002120D01*
X-02171530Y-01002120D01*
G01X-02131320Y-01002120D02*
X-02107190Y-01063500D01*
G01X-02040390Y-00957670D02*
X-02030730Y-00944970D01*
X-02019470Y-00938620D01*
X-02006600Y-00936500D01*
X-01990520Y-00940730D01*
X-01979250Y-00951320D01*
X-01976040Y-00964010D01*
X-01977650Y-00976720D01*
X-01984080Y-00987300D01*
X-02016250Y-01008470D01*
X-02030730Y-01023280D01*
X-02040390Y-01044450D01*
X-02043600Y-01063500D01*
X-01976040Y-01063500D01*
G01X-01880280Y-01063500D02*
X-01869020Y-01061380D01*
X-01856150Y-01055040D01*
X-01848110Y-01044450D01*
X-01844890Y-01029630D01*
X-01848110Y-01014820D01*
X-01857760Y-01002120D01*
X-01872240Y-00995770D01*
X-01888320Y-00995770D01*
X-01897980Y-00991530D01*
X-01906020Y-00980950D01*
X-01909240Y-00966130D01*
X-01904410Y-00951320D01*
X-01893150Y-00940730D01*
X-01880280Y-00936500D01*
X-01867410Y-00940730D01*
X-01856150Y-00951320D01*
X-01851320Y-00966130D01*
X-01854540Y-00980950D01*
X-01862580Y-00991530D01*
X-01872240Y-00995770D01*
X-01888320Y-00995770D01*
X-01902800Y-01002120D01*
X-01912450Y-01014820D01*
X-01915670Y-01029630D01*
X-01912450Y-01044450D01*
X-01904410Y-01055040D01*
X-01891540Y-01061380D01*
X-01880280Y-01063500D01*
G01X-01754550Y-01000000D02*
G02X-01754550Y-01000000I-00255270J0D01*
G01X-02171530Y-00063500D02*
X-02171530Y00063500D01*
X-02131320Y00063500D01*
X-02118450Y00057150D01*
X-02110400Y00048680D01*
X-02107190Y00031750D01*
X-02110400Y00014820D01*
X-02120060Y00004230D01*
X-02131320Y-00002120D01*
X-02171530Y-00002120D01*
G01X-02131320Y-00002120D02*
X-02107190Y-00063500D01*
G01X-02009820Y-00063500D02*
X-02009820Y00063500D01*
X-02029120Y00038100D01*
G01X-02029120Y-00063500D02*
X-01990520Y-00063500D01*
G01X-01883500Y-00063500D02*
X-01880280Y-00035990D01*
X-01875450Y-00012700D01*
X-01869020Y00008470D01*
X-01860980Y00031750D01*
X-01848110Y00063500D01*
X-01912450Y00063500D01*
G01X-01754550Y0D02*
G02X-01754550Y0I-00255270J0D01*
G01X-01754550Y01000000D02*
G02X-01754550Y01000000I-00255270J0D01*
G01X-02106760Y00936500D02*
X-02106760Y01063500D01*
X-02066550Y01063500D01*
X-02053680Y01057150D01*
X-02045630Y01048680D01*
X-02042420Y01031750D01*
X-02045630Y01014820D01*
X-02055290Y01004230D01*
X-02066550Y00997880D01*
X-02106760Y00997880D01*
G01X-02066550Y00997880D02*
X-02042420Y00936500D01*
G01X-01975620Y00989410D02*
X-01964350Y01004230D01*
X-01954700Y01012700D01*
X-01941830Y01016930D01*
X-01930570Y01012700D01*
X-01922530Y01004230D01*
X-01916090Y00991530D01*
X-01914480Y00976720D01*
X-01916090Y00964010D01*
X-01922530Y00951310D01*
X-01932180Y00940730D01*
X-01943440Y00936500D01*
X-01956310Y00940730D01*
X-01967570Y00953430D01*
X-01974010Y00972480D01*
X-01975620Y00993650D01*
X-01972400Y01021160D01*
X-01967570Y01035990D01*
X-01959530Y01050800D01*
X-01948270Y01061380D01*
X-01937010Y01063500D01*
X-01925750Y01059270D01*
X-01917700Y01048680D01*
G01X-01890500Y02094920D02*
X-01827000Y02094920D01*
G01X-01890500Y02079340D02*
X-01890500Y02110500D01*
G01X-01827000Y02137250D02*
X-01890500Y02137250D01*
X-01890500Y02153510D01*
X-01887320Y02158930D01*
X-01879920Y02162990D01*
X-01871450Y02164350D01*
X-01862980Y02162990D01*
X-01856630Y02159610D01*
X-01853460Y02153510D01*
X-01853460Y02137250D01*
G01X-01839700Y02191780D02*
X-01832290Y02195840D01*
X-01828060Y02201260D01*
X-01827000Y02207360D01*
X-01828060Y02212780D01*
X-01833350Y02218200D01*
X-01839700Y02221580D01*
X-01846050Y02222260D01*
X-01853460Y02220900D01*
X-01858750Y02216160D01*
X-01860870Y02211420D01*
X-01860870Y02205330D01*
G01X-01860870Y02211420D02*
X-01864040Y02215490D01*
X-01869330Y02218870D01*
X-01875680Y02220230D01*
X-01882030Y02218870D01*
X-01887320Y02215490D01*
X-01890500Y02209390D01*
X-01889440Y02203290D01*
X-01885210Y02197200D01*
G01X-02190500Y02094920D02*
X-02127000Y02094920D01*
G01X-02190500Y02079340D02*
X-02190500Y02110500D01*
G01X-02127000Y02137250D02*
X-02190500Y02137250D01*
X-02190500Y02153510D01*
X-02187320Y02158930D01*
X-02179920Y02162990D01*
X-02171450Y02164350D01*
X-02162980Y02162990D01*
X-02156630Y02159610D01*
X-02153460Y02153510D01*
X-02153460Y02137250D01*
G01X-02127000Y02214810D02*
X-02190500Y02214810D01*
X-02144990Y02189750D01*
X-02144990Y02223610D01*
G01X-01740000Y02253710D02*
X-01930500Y02253710D01*
X-01930500Y02312970D01*
X-01920970Y02331940D01*
X-01908270Y02343790D01*
X-01882870Y02348530D01*
X-01857470Y02343790D01*
X-01841600Y02329570D01*
X-01832070Y02312970D01*
X-01832070Y02253710D01*
G01X-01832070Y02312970D02*
X-01740000Y02348530D01*
G01X-01762220Y02451320D02*
X-01746350Y02467910D01*
X-01740000Y02486880D01*
X-01746350Y02505840D01*
X-01765390Y02522440D01*
X-01793980Y02534290D01*
X-01822550Y02539030D01*
X-01857470Y02539030D01*
X-01886050Y02534290D01*
X-01911450Y02522440D01*
X-01924150Y02508210D01*
X-01930500Y02491620D01*
X-01924150Y02472650D01*
X-01911450Y02458430D01*
X-01892400Y02448950D01*
X-01867000Y02444210D01*
X-01844780Y02448950D01*
X-01822550Y02460800D01*
X-01809850Y02475030D01*
X-01806670Y02491620D01*
X-01813020Y02510580D01*
X-01828900Y02524810D01*
X-01857470Y02539030D01*
G01X-01778100Y02629970D02*
X-01755870Y02644190D01*
X-01743170Y02663150D01*
X-01740000Y02684490D01*
X-01743170Y02703460D01*
X-01759050Y02722420D01*
X-01778100Y02734270D01*
X-01797150Y02736640D01*
X-01819370Y02731900D01*
X-01835250Y02715310D01*
X-01841600Y02698710D01*
X-01841600Y02677380D01*
G01X-01841600Y02698710D02*
X-01851120Y02712940D01*
X-01867000Y02724790D01*
X-01886050Y02729530D01*
X-01905100Y02724790D01*
X-01920970Y02712940D01*
X-01930500Y02691600D01*
X-01927330Y02670270D01*
X-01914620Y02648930D01*
G01X-02140000Y02253710D02*
X-02330500Y02253710D01*
X-02330500Y02312970D01*
X-02320970Y02331940D01*
X-02308270Y02343790D01*
X-02282870Y02348530D01*
X-02257470Y02343790D01*
X-02241600Y02329570D01*
X-02232070Y02312970D01*
X-02232070Y02253710D01*
G01X-02232070Y02312970D02*
X-02140000Y02348530D01*
G01X-02162220Y02451320D02*
X-02146350Y02467910D01*
X-02140000Y02486880D01*
X-02146350Y02505840D01*
X-02165390Y02522440D01*
X-02193980Y02534290D01*
X-02222550Y02539030D01*
X-02257470Y02539030D01*
X-02286050Y02534290D01*
X-02311450Y02522440D01*
X-02324150Y02508210D01*
X-02330500Y02491620D01*
X-02324150Y02472650D01*
X-02311450Y02458430D01*
X-02292400Y02448950D01*
X-02267000Y02444210D01*
X-02244780Y02448950D01*
X-02222550Y02460800D01*
X-02209850Y02475030D01*
X-02206670Y02491620D01*
X-02213020Y02510580D01*
X-02228900Y02524810D01*
X-02257470Y02539030D01*
G01X-02140000Y02710570D02*
X-02330500Y02710570D01*
X-02193980Y02622850D01*
X-02193980Y02741390D01*
G01X-02290500Y03494920D02*
X-02227000Y03494920D01*
G01X-02290500Y03479340D02*
X-02290500Y03510500D01*
G01X-02227000Y03537250D02*
X-02290500Y03537250D01*
X-02290500Y03553510D01*
X-02287320Y03558930D01*
X-02279920Y03562990D01*
X-02271450Y03564350D01*
X-02262980Y03562990D01*
X-02256630Y03559610D01*
X-02253460Y03553510D01*
X-02253460Y03537250D01*
G01X-02227000Y03606680D02*
X-02290500Y03606680D01*
X-02277800Y03598550D01*
G01X-02227000Y03598550D02*
X-02227000Y03614810D01*
G01X-02290500Y03662560D02*
X-02288380Y03657140D01*
X-02283090Y03653080D01*
X-02276740Y03650370D01*
X-02268270Y03648340D01*
X-02258750Y03647660D01*
X-02249220Y03648340D01*
X-02240760Y03650370D01*
X-02234410Y03653080D01*
X-02229120Y03657140D01*
X-02227000Y03662560D01*
X-02229120Y03667980D01*
X-02234410Y03672040D01*
X-02240760Y03674750D01*
X-02249220Y03676780D01*
X-02258750Y03677460D01*
X-02268270Y03676780D01*
X-02276740Y03674750D01*
X-02283090Y03672040D01*
X-02288380Y03667980D01*
X-02290500Y03662560D01*
G01X-01990500Y03494920D02*
X-01927000Y03494920D01*
G01X-01990500Y03479340D02*
X-01990500Y03510500D01*
G01X-01927000Y03537250D02*
X-01990500Y03537250D01*
X-01990500Y03553510D01*
X-01987320Y03558930D01*
X-01979920Y03562990D01*
X-01971450Y03564350D01*
X-01962980Y03562990D01*
X-01956630Y03559610D01*
X-01953460Y03553510D01*
X-01953460Y03537250D01*
G01X-01927000Y03606680D02*
X-01990500Y03606680D01*
X-01977800Y03598550D01*
G01X-01927000Y03598550D02*
X-01927000Y03614810D01*
G01X-01979920Y03649690D02*
X-01986270Y03653750D01*
X-01989440Y03658500D01*
X-01990500Y03663910D01*
X-01988380Y03670690D01*
X-01983090Y03675430D01*
X-01976740Y03676780D01*
X-01970390Y03676110D01*
X-01965100Y03673400D01*
X-01954520Y03659850D01*
X-01947110Y03653750D01*
X-01936520Y03649690D01*
X-01927000Y03648340D01*
X-01927000Y03676780D01*
G01X-01171530Y-06063500D02*
X-01171530Y-05936500D01*
X-01131320Y-05936500D01*
X-01118450Y-05942850D01*
X-01110400Y-05951320D01*
X-01107190Y-05968250D01*
X-01110400Y-05985180D01*
X-01120060Y-05995770D01*
X-01131320Y-06002120D01*
X-01171530Y-06002120D01*
G01X-01131320Y-06002120D02*
X-01107190Y-06063500D01*
G01X-01009820Y-06063500D02*
X-00998560Y-06061380D01*
X-00985690Y-06055040D01*
X-00977650Y-06044450D01*
X-00974430Y-06029630D01*
X-00977650Y-06014820D01*
X-00987300Y-06002120D01*
X-01001780Y-05995770D01*
X-01017860Y-05995770D01*
X-01027520Y-05991530D01*
X-01035560Y-05980950D01*
X-01038780Y-05966130D01*
X-01033950Y-05951320D01*
X-01022690Y-05940730D01*
X-01009820Y-05936500D01*
X-00996950Y-05940730D01*
X-00985690Y-05951320D01*
X-00980860Y-05966130D01*
X-00984080Y-05980950D01*
X-00992120Y-05991530D01*
X-01001780Y-05995770D01*
X-01017860Y-05995770D01*
X-01032340Y-06002120D01*
X-01041990Y-06014820D01*
X-01045210Y-06029630D01*
X-01041990Y-06044450D01*
X-01033950Y-06055040D01*
X-01021080Y-06061380D01*
X-01009820Y-06063500D01*
G01X-00860980Y-06063500D02*
X-00860980Y-05936500D01*
X-00920500Y-06027520D01*
X-00840060Y-06027520D01*
G01X-00754550Y-06000000D02*
G02X-00754550Y-06000000I-00255270J0D01*
G01X-00754550Y-05000000D02*
G02X-00754550Y-05000000I-00255270J0D01*
G01X-01171530Y-05063500D02*
X-01171530Y-04936500D01*
X-01131320Y-04936500D01*
X-01118450Y-04942850D01*
X-01110400Y-04951320D01*
X-01107190Y-04968250D01*
X-01110400Y-04985180D01*
X-01120060Y-04995770D01*
X-01131320Y-05002120D01*
X-01171530Y-05002120D01*
G01X-01131320Y-05002120D02*
X-01107190Y-05063500D01*
G01X-01013040Y-05063500D02*
X-01009820Y-05035990D01*
X-01004990Y-05012700D01*
X-00998560Y-04991530D01*
X-00990520Y-04968250D01*
X-00977650Y-04936500D01*
X-01041990Y-04936500D01*
G01X-00915670Y-05038100D02*
X-00906020Y-05052920D01*
X-00893150Y-05061380D01*
X-00878670Y-05063500D01*
X-00865800Y-05061380D01*
X-00852930Y-05050800D01*
X-00844890Y-05038100D01*
X-00843280Y-05025400D01*
X-00846500Y-05010590D01*
X-00857760Y-05000000D01*
X-00869020Y-04995770D01*
X-00883500Y-04995770D01*
G01X-00869020Y-04995770D02*
X-00859370Y-04989420D01*
X-00851320Y-04978840D01*
X-00848110Y-04966130D01*
X-00851320Y-04953430D01*
X-00859370Y-04942850D01*
X-00873850Y-04936500D01*
X-00888320Y-04938620D01*
X-00902800Y-04947080D01*
G01X-01171530Y-04063500D02*
X-01171530Y-03936500D01*
X-01131320Y-03936500D01*
X-01118450Y-03942850D01*
X-01110400Y-03951320D01*
X-01107190Y-03968250D01*
X-01110400Y-03985180D01*
X-01120060Y-03995770D01*
X-01131320Y-04002120D01*
X-01171530Y-04002120D01*
G01X-01131320Y-04002120D02*
X-01107190Y-04063500D01*
G01X-01040390Y-04010590D02*
X-01029120Y-03995770D01*
X-01019470Y-03987300D01*
X-01006600Y-03983070D01*
X-00995340Y-03987300D01*
X-00987300Y-03995770D01*
X-00980860Y-04008470D01*
X-00979250Y-04023280D01*
X-00980860Y-04035990D01*
X-00987300Y-04048690D01*
X-00996950Y-04059270D01*
X-01008210Y-04063500D01*
X-01021080Y-04059270D01*
X-01032340Y-04046570D01*
X-01038780Y-04027520D01*
X-01040390Y-04006350D01*
X-01037170Y-03978840D01*
X-01032340Y-03964010D01*
X-01024300Y-03949200D01*
X-01013040Y-03938620D01*
X-01001780Y-03936500D01*
X-00990520Y-03940730D01*
X-00982470Y-03951320D01*
G01X-00910850Y-03957670D02*
X-00901190Y-03944970D01*
X-00889930Y-03938620D01*
X-00877060Y-03936500D01*
X-00860980Y-03940730D01*
X-00849710Y-03951320D01*
X-00846500Y-03964010D01*
X-00848110Y-03976720D01*
X-00854540Y-03987300D01*
X-00886710Y-04008470D01*
X-00901190Y-04023280D01*
X-00910850Y-04044450D01*
X-00914060Y-04063500D01*
X-00846500Y-04063500D01*
G01X-00754550Y-04000000D02*
G02X-00754550Y-04000000I-00255270J0D01*
G01X-01171530Y-03063500D02*
X-01171530Y-02936500D01*
X-01131320Y-02936500D01*
X-01118450Y-02942850D01*
X-01110400Y-02951320D01*
X-01107190Y-02968250D01*
X-01110400Y-02985180D01*
X-01120060Y-02995770D01*
X-01131320Y-03002120D01*
X-01171530Y-03002120D01*
G01X-01131320Y-03002120D02*
X-01107190Y-03063500D01*
G01X-01045210Y-03044450D02*
X-01035560Y-03055040D01*
X-01024300Y-03061380D01*
X-01009820Y-03063500D01*
X-00995340Y-03059270D01*
X-00984080Y-03050800D01*
X-00976040Y-03035990D01*
X-00974430Y-03019050D01*
X-00977650Y-03002120D01*
X-00985690Y-02991530D01*
X-00996950Y-02983070D01*
X-01008210Y-02980950D01*
X-01019470Y-02983070D01*
X-01033950Y-02991530D01*
X-01029120Y-02936500D01*
X-00985690Y-02936500D01*
G01X-00880280Y-03063500D02*
X-00880280Y-02936500D01*
X-00899580Y-02961900D01*
G01X-00899580Y-03063500D02*
X-00860980Y-03063500D01*
G01X-00754550Y-03000000D02*
G02X-00754550Y-03000000I-00255270J0D01*
G01X-00754550Y-02000000D02*
G02X-00754550Y-02000000I-00255270J0D01*
G01X-01171530Y-02063500D02*
X-01171530Y-01936500D01*
X-01131320Y-01936500D01*
X-01118450Y-01942850D01*
X-01110400Y-01951320D01*
X-01107190Y-01968250D01*
X-01110400Y-01985180D01*
X-01120060Y-01995770D01*
X-01131320Y-02002120D01*
X-01171530Y-02002120D01*
G01X-01131320Y-02002120D02*
X-01107190Y-02063500D01*
G01X-00990520Y-02063500D02*
X-00990520Y-01936500D01*
X-01050040Y-02027520D01*
X-00969600Y-02027520D01*
G01X-00880280Y-01936500D02*
X-00893150Y-01940730D01*
X-00902800Y-01951320D01*
X-00909240Y-01964010D01*
X-00914060Y-01980950D01*
X-00915670Y-02000000D01*
X-00914060Y-02019050D01*
X-00909240Y-02035990D01*
X-00902800Y-02048690D01*
X-00893150Y-02059270D01*
X-00880280Y-02063500D01*
X-00867410Y-02059270D01*
X-00857760Y-02048690D01*
X-00851320Y-02035990D01*
X-00846500Y-02019050D01*
X-00844890Y-02000000D01*
X-00846500Y-01980950D01*
X-00851320Y-01964010D01*
X-00857760Y-01951320D01*
X-00867410Y-01940730D01*
X-00880280Y-01936500D01*
G01X-01171530Y-01063500D02*
X-01171530Y-00936500D01*
X-01131320Y-00936500D01*
X-01118450Y-00942850D01*
X-01110400Y-00951320D01*
X-01107190Y-00968250D01*
X-01110400Y-00985180D01*
X-01120060Y-00995770D01*
X-01131320Y-01002120D01*
X-01171530Y-01002120D01*
G01X-01131320Y-01002120D02*
X-01107190Y-01063500D01*
G01X-01040390Y-00957670D02*
X-01030730Y-00944970D01*
X-01019470Y-00938620D01*
X-01006600Y-00936500D01*
X-00990520Y-00940730D01*
X-00979250Y-00951320D01*
X-00976040Y-00964010D01*
X-00977650Y-00976720D01*
X-00984080Y-00987300D01*
X-01016250Y-01008470D01*
X-01030730Y-01023280D01*
X-01040390Y-01044450D01*
X-01043600Y-01063500D01*
X-00976040Y-01063500D01*
G01X-00907630Y-01048690D02*
X-00896370Y-01059270D01*
X-00883500Y-01063500D01*
X-00870630Y-01059270D01*
X-00859370Y-01046570D01*
X-00851320Y-01027520D01*
X-00848110Y-01008470D01*
X-00848110Y-00985180D01*
X-00851320Y-00966130D01*
X-00859370Y-00949200D01*
X-00869020Y-00940730D01*
X-00880280Y-00936500D01*
X-00893150Y-00940730D01*
X-00902800Y-00949200D01*
X-00909240Y-00961900D01*
X-00912450Y-00978840D01*
X-00909240Y-00993650D01*
X-00901190Y-01008470D01*
X-00891540Y-01016940D01*
X-00880280Y-01019050D01*
X-00867410Y-01014820D01*
X-00857760Y-01004230D01*
X-00848110Y-00985180D01*
G01X-00754550Y-01000000D02*
G02X-00754550Y-01000000I-00255270J0D01*
G01X-01171530Y-00063500D02*
X-01171530Y00063500D01*
X-01131320Y00063500D01*
X-01118450Y00057150D01*
X-01110400Y00048680D01*
X-01107190Y00031750D01*
X-01110400Y00014820D01*
X-01120060Y00004230D01*
X-01131320Y-00002120D01*
X-01171530Y-00002120D01*
G01X-01131320Y-00002120D02*
X-01107190Y-00063500D01*
G01X-01009820Y-00063500D02*
X-01009820Y00063500D01*
X-01029120Y00038100D01*
G01X-01029120Y-00063500D02*
X-00990520Y-00063500D01*
G01X-00880280Y-00063500D02*
X-00869020Y-00061380D01*
X-00856150Y-00055040D01*
X-00848110Y-00044450D01*
X-00844890Y-00029630D01*
X-00848110Y-00014820D01*
X-00857760Y-00002120D01*
X-00872240Y00004230D01*
X-00888320Y00004230D01*
X-00897980Y00008470D01*
X-00906020Y00019050D01*
X-00909240Y00033870D01*
X-00904410Y00048680D01*
X-00893150Y00059270D01*
X-00880280Y00063500D01*
X-00867410Y00059270D01*
X-00856150Y00048680D01*
X-00851320Y00033870D01*
X-00854540Y00019050D01*
X-00862580Y00008470D01*
X-00872240Y00004230D01*
X-00888320Y00004230D01*
X-00902800Y-00002120D01*
X-00912450Y-00014820D01*
X-00915670Y-00029630D01*
X-00912450Y-00044450D01*
X-00904410Y-00055040D01*
X-00891540Y-00061380D01*
X-00880280Y-00063500D01*
G01X-00754550Y0D02*
G02X-00754550Y0I-00255270J0D01*
G01X-00754550Y01000000D02*
G02X-00754550Y01000000I-00255270J0D01*
G01X-01290500Y02094920D02*
X-01227000Y02094920D01*
G01X-01290500Y02079340D02*
X-01290500Y02110500D01*
G01X-01227000Y02137250D02*
X-01290500Y02137250D01*
X-01290500Y02153510D01*
X-01287320Y02158930D01*
X-01279920Y02162990D01*
X-01271450Y02164350D01*
X-01262980Y02162990D01*
X-01256630Y02159610D01*
X-01253460Y02153510D01*
X-01253460Y02137250D01*
G01X-01227000Y02206680D02*
X-01290500Y02206680D01*
X-01277800Y02198550D01*
G01X-01227000Y02198550D02*
X-01227000Y02214810D01*
G01X-01590500Y02094920D02*
X-01527000Y02094920D01*
G01X-01590500Y02079340D02*
X-01590500Y02110500D01*
G01X-01527000Y02137250D02*
X-01590500Y02137250D01*
X-01590500Y02153510D01*
X-01587320Y02158930D01*
X-01579920Y02162990D01*
X-01571450Y02164350D01*
X-01562980Y02162990D01*
X-01556630Y02159610D01*
X-01553460Y02153510D01*
X-01553460Y02137250D01*
G01X-01579920Y02193810D02*
X-01586270Y02197870D01*
X-01589440Y02202620D01*
X-01590500Y02208030D01*
X-01588380Y02214810D01*
X-01583090Y02219550D01*
X-01576740Y02220900D01*
X-01570390Y02220230D01*
X-01565100Y02217520D01*
X-01554520Y02203970D01*
X-01547110Y02197870D01*
X-01536520Y02193810D01*
X-01527000Y02192460D01*
X-01527000Y02220900D01*
G01X-01340000Y02253710D02*
X-01530500Y02253710D01*
X-01530500Y02312970D01*
X-01520970Y02331940D01*
X-01508270Y02343790D01*
X-01482870Y02348530D01*
X-01457470Y02343790D01*
X-01441600Y02329570D01*
X-01432070Y02312970D01*
X-01432070Y02253710D01*
G01X-01432070Y02312970D02*
X-01340000Y02348530D01*
G01X-01362220Y02451320D02*
X-01346350Y02467910D01*
X-01340000Y02486880D01*
X-01346350Y02505840D01*
X-01365390Y02522440D01*
X-01393980Y02534290D01*
X-01422550Y02539030D01*
X-01457470Y02539030D01*
X-01486050Y02534290D01*
X-01511450Y02522440D01*
X-01524150Y02508210D01*
X-01530500Y02491620D01*
X-01524150Y02472650D01*
X-01511450Y02458430D01*
X-01492400Y02448950D01*
X-01467000Y02444210D01*
X-01444780Y02448950D01*
X-01422550Y02460800D01*
X-01409850Y02475030D01*
X-01406670Y02491620D01*
X-01413020Y02510580D01*
X-01428900Y02524810D01*
X-01457470Y02539030D01*
G01X-01498750Y02637080D02*
X-01517800Y02651300D01*
X-01527330Y02667900D01*
X-01530500Y02686860D01*
X-01524150Y02710570D01*
X-01508270Y02727160D01*
X-01489230Y02731900D01*
X-01470170Y02729530D01*
X-01454300Y02720050D01*
X-01422550Y02672640D01*
X-01400320Y02651300D01*
X-01368570Y02637080D01*
X-01340000Y02632340D01*
X-01340000Y02731900D01*
G01X-01690500Y03494920D02*
X-01627000Y03494920D01*
G01X-01690500Y03479340D02*
X-01690500Y03510500D01*
G01X-01627000Y03537250D02*
X-01690500Y03537250D01*
X-01690500Y03553510D01*
X-01687320Y03558930D01*
X-01679920Y03562990D01*
X-01671450Y03564350D01*
X-01662980Y03562990D01*
X-01656630Y03559610D01*
X-01653460Y03553510D01*
X-01653460Y03537250D01*
G01X-01627000Y03606680D02*
X-01690500Y03606680D01*
X-01677800Y03598550D01*
G01X-01627000Y03598550D02*
X-01627000Y03614810D01*
G01X-01627000Y03670690D02*
X-01690500Y03670690D01*
X-01644990Y03645630D01*
X-01644990Y03679490D01*
G01X-01390500Y03494920D02*
X-01327000Y03494920D01*
G01X-01390500Y03479340D02*
X-01390500Y03510500D01*
G01X-01327000Y03537250D02*
X-01390500Y03537250D01*
X-01390500Y03553510D01*
X-01387320Y03558930D01*
X-01379920Y03562990D01*
X-01371450Y03564350D01*
X-01362980Y03562990D01*
X-01356630Y03559610D01*
X-01353460Y03553510D01*
X-01353460Y03537250D01*
G01X-01327000Y03606680D02*
X-01390500Y03606680D01*
X-01377800Y03598550D01*
G01X-01327000Y03598550D02*
X-01327000Y03614810D01*
G01X-01353460Y03649690D02*
X-01360870Y03654430D01*
X-01365100Y03658500D01*
X-01367220Y03663910D01*
X-01365100Y03668660D01*
X-01360870Y03672040D01*
X-01354520Y03674750D01*
X-01347110Y03675430D01*
X-01340760Y03674750D01*
X-01334410Y03672040D01*
X-01329120Y03667980D01*
X-01327000Y03663240D01*
X-01329120Y03657820D01*
X-01335460Y03653080D01*
X-01344990Y03650370D01*
X-01355570Y03649690D01*
X-01369330Y03651040D01*
X-01376740Y03653080D01*
X-01384150Y03656460D01*
X-01389440Y03661210D01*
X-01390500Y03665950D01*
X-01388380Y03670690D01*
X-01383090Y03674080D01*
G01X-01106760Y00936500D02*
X-01106760Y01063500D01*
X-01066550Y01063500D01*
X-01053680Y01057150D01*
X-01045630Y01048680D01*
X-01042420Y01031750D01*
X-01045630Y01014820D01*
X-01055290Y01004230D01*
X-01066550Y00997880D01*
X-01106760Y00997880D01*
G01X-01066550Y00997880D02*
X-01042420Y00936500D01*
G01X-00948270Y00936500D02*
X-00945050Y00964010D01*
X-00940220Y00987300D01*
X-00933790Y01008470D01*
X-00925750Y01031750D01*
X-00912880Y01063500D01*
X-00977220Y01063500D01*
G01X-00540000Y02253710D02*
X-00730500Y02253710D01*
X-00730500Y02312970D01*
X-00720970Y02331940D01*
X-00708270Y02343790D01*
X-00682870Y02348530D01*
X-00657470Y02343790D01*
X-00641600Y02329570D01*
X-00632070Y02312970D01*
X-00632070Y02253710D01*
G01X-00632070Y02312970D02*
X-00540000Y02348530D01*
G01X-00562220Y02451320D02*
X-00546350Y02467910D01*
X-00540000Y02486880D01*
X-00546350Y02505840D01*
X-00565390Y02522440D01*
X-00593980Y02534290D01*
X-00622550Y02539030D01*
X-00657470Y02539030D01*
X-00686050Y02534290D01*
X-00711450Y02522440D01*
X-00724150Y02508210D01*
X-00730500Y02491620D01*
X-00724150Y02472650D01*
X-00711450Y02458430D01*
X-00692400Y02448950D01*
X-00667000Y02444210D01*
X-00644780Y02448950D01*
X-00622550Y02460800D01*
X-00609850Y02475030D01*
X-00606670Y02491620D01*
X-00613020Y02510580D01*
X-00628900Y02524810D01*
X-00657470Y02539030D01*
G01X-00730500Y02682120D02*
X-00724150Y02663150D01*
X-00708270Y02648930D01*
X-00689230Y02639450D01*
X-00663820Y02632340D01*
X-00635250Y02629970D01*
X-00606670Y02632340D01*
X-00581270Y02639450D01*
X-00562220Y02648930D01*
X-00546350Y02663150D01*
X-00540000Y02682120D01*
X-00546350Y02701080D01*
X-00562220Y02715310D01*
X-00581270Y02724790D01*
X-00606670Y02731900D01*
X-00635250Y02734270D01*
X-00663820Y02731900D01*
X-00689230Y02724790D01*
X-00708270Y02715310D01*
X-00724150Y02701080D01*
X-00730500Y02682120D01*
G01X-00940000Y02253710D02*
X-01130500Y02253710D01*
X-01130500Y02312970D01*
X-01120970Y02331940D01*
X-01108270Y02343790D01*
X-01082870Y02348530D01*
X-01057470Y02343790D01*
X-01041600Y02329570D01*
X-01032070Y02312970D01*
X-01032070Y02253710D01*
G01X-01032070Y02312970D02*
X-00940000Y02348530D01*
G01X-00962220Y02451320D02*
X-00946350Y02467910D01*
X-00940000Y02486880D01*
X-00946350Y02505840D01*
X-00965390Y02522440D01*
X-00993980Y02534290D01*
X-01022550Y02539030D01*
X-01057470Y02539030D01*
X-01086050Y02534290D01*
X-01111450Y02522440D01*
X-01124150Y02508210D01*
X-01130500Y02491620D01*
X-01124150Y02472650D01*
X-01111450Y02458430D01*
X-01092400Y02448950D01*
X-01067000Y02444210D01*
X-01044780Y02448950D01*
X-01022550Y02460800D01*
X-01009850Y02475030D01*
X-01006670Y02491620D01*
X-01013020Y02510580D01*
X-01028900Y02524810D01*
X-01057470Y02539030D01*
G01X-00940000Y02682120D02*
X-01130500Y02682120D01*
X-01092400Y02653670D01*
G01X-00940000Y02653670D02*
X-00940000Y02710560D01*
G01X-01090500Y03494920D02*
X-01027000Y03494920D01*
G01X-01090500Y03479340D02*
X-01090500Y03510500D01*
G01X-01027000Y03537250D02*
X-01090500Y03537250D01*
X-01090500Y03553510D01*
X-01087320Y03558930D01*
X-01079920Y03562990D01*
X-01071450Y03564350D01*
X-01062980Y03562990D01*
X-01056630Y03559610D01*
X-01053460Y03553510D01*
X-01053460Y03537250D01*
G01X-01027000Y03606680D02*
X-01090500Y03606680D01*
X-01077800Y03598550D01*
G01X-01027000Y03598550D02*
X-01027000Y03614810D01*
G01X-01027000Y03662560D02*
X-01028060Y03667300D01*
X-01031230Y03672720D01*
X-01036520Y03676110D01*
X-01043930Y03677460D01*
X-01051340Y03676110D01*
X-01057690Y03672040D01*
X-01060870Y03665950D01*
X-01060870Y03659170D01*
X-01062980Y03655110D01*
X-01068270Y03651720D01*
X-01075680Y03650370D01*
X-01083090Y03652400D01*
X-01088380Y03657140D01*
X-01090500Y03662560D01*
X-01088380Y03667980D01*
X-01083090Y03672720D01*
X-01075680Y03674750D01*
X-01068270Y03673400D01*
X-01062980Y03670010D01*
X-01060870Y03665950D01*
X-01060870Y03659170D01*
X-01057690Y03653080D01*
X-01051340Y03649010D01*
X-01043930Y03647660D01*
X-01036520Y03649010D01*
X-01031230Y03652400D01*
X-01028060Y03657820D01*
X-01027000Y03662560D01*
G01X-00790500Y03494920D02*
X-00727000Y03494920D01*
G01X-00790500Y03479340D02*
X-00790500Y03510500D01*
G01X-00727000Y03537250D02*
X-00790500Y03537250D01*
X-00790500Y03553510D01*
X-00787320Y03558930D01*
X-00779920Y03562990D01*
X-00771450Y03564350D01*
X-00762980Y03562990D01*
X-00756630Y03559610D01*
X-00753460Y03553510D01*
X-00753460Y03537250D01*
G01X-00727000Y03606680D02*
X-00790500Y03606680D01*
X-00777800Y03598550D01*
G01X-00727000Y03598550D02*
X-00727000Y03614810D01*
G01X-00734410Y03651040D02*
X-00729120Y03655790D01*
X-00727000Y03661210D01*
X-00729120Y03666620D01*
X-00735460Y03671370D01*
X-00744990Y03674750D01*
X-00754520Y03676110D01*
X-00766160Y03676110D01*
X-00775680Y03674750D01*
X-00784150Y03671370D01*
X-00788380Y03667300D01*
X-00790500Y03662560D01*
X-00788380Y03657140D01*
X-00784150Y03653080D01*
X-00777800Y03650370D01*
X-00769330Y03649010D01*
X-00761930Y03650370D01*
X-00754520Y03653750D01*
X-00750280Y03657820D01*
X-00749220Y03662560D01*
X-00751340Y03667980D01*
X-00756630Y03672040D01*
X-00766160Y03676110D01*
G01X-00171530Y-06063500D02*
X-00171530Y-05936500D01*
X-00131320Y-05936500D01*
X-00118450Y-05942850D01*
X-00110400Y-05951320D01*
X-00107190Y-05968250D01*
X-00110400Y-05985180D01*
X-00120060Y-05995770D01*
X-00131320Y-06002120D01*
X-00171530Y-06002120D01*
G01X-00131320Y-06002120D02*
X-00107190Y-06063500D01*
G01X-00009820Y-06063500D02*
X00001440Y-06061380D01*
X00014310Y-06055040D01*
X00022350Y-06044450D01*
X00025570Y-06029630D01*
X00022350Y-06014820D01*
X00012700Y-06002120D01*
X-00001780Y-05995770D01*
X-00017860Y-05995770D01*
X-00027520Y-05991530D01*
X-00035560Y-05980950D01*
X-00038780Y-05966130D01*
X-00033950Y-05951320D01*
X-00022690Y-05940730D01*
X-00009820Y-05936500D01*
X00003050Y-05940730D01*
X00014310Y-05951320D01*
X00019140Y-05966130D01*
X00015920Y-05980950D01*
X00007880Y-05991530D01*
X-00001780Y-05995770D01*
X-00017860Y-05995770D01*
X-00032340Y-06002120D01*
X-00041990Y-06014820D01*
X-00045210Y-06029630D01*
X-00041990Y-06044450D01*
X-00033950Y-06055040D01*
X-00021080Y-06061380D01*
X-00009820Y-06063500D01*
G01X00084330Y-06044450D02*
X00093980Y-06055040D01*
X00105240Y-06061380D01*
X00119720Y-06063500D01*
X00134200Y-06059270D01*
X00145460Y-06050800D01*
X00153500Y-06035990D01*
X00155110Y-06019050D01*
X00151890Y-06002120D01*
X00143850Y-05991530D01*
X00132590Y-05983070D01*
X00121330Y-05980950D01*
X00110070Y-05983070D01*
X00095590Y-05991530D01*
X00100420Y-05936500D01*
X00143850Y-05936500D01*
G01X00245450Y-06000000D02*
G02X00245450Y-06000000I-00255270J0D01*
G01X00245450Y-05000000D02*
G02X00245450Y-05000000I-00255270J0D01*
G01X-00171530Y-05063500D02*
X-00171530Y-04936500D01*
X-00131320Y-04936500D01*
X-00118450Y-04942850D01*
X-00110400Y-04951320D01*
X-00107190Y-04968250D01*
X-00110400Y-04985180D01*
X-00120060Y-04995770D01*
X-00131320Y-05002120D01*
X-00171530Y-05002120D01*
G01X-00131320Y-05002120D02*
X-00107190Y-05063500D01*
G01X-00013040Y-05063500D02*
X-00009820Y-05035990D01*
X-00004990Y-05012700D01*
X00001440Y-04991530D01*
X00009480Y-04968250D01*
X00022350Y-04936500D01*
X-00041990Y-04936500D01*
G01X00139020Y-05063500D02*
X00139020Y-04936500D01*
X00079500Y-05027520D01*
X00159940Y-05027520D01*
G01X-00171530Y-04063500D02*
X-00171530Y-03936500D01*
X-00131320Y-03936500D01*
X-00118450Y-03942850D01*
X-00110400Y-03951320D01*
X-00107190Y-03968250D01*
X-00110400Y-03985180D01*
X-00120060Y-03995770D01*
X-00131320Y-04002120D01*
X-00171530Y-04002120D01*
G01X-00131320Y-04002120D02*
X-00107190Y-04063500D01*
G01X-00040390Y-04010590D02*
X-00029120Y-03995770D01*
X-00019470Y-03987300D01*
X-00006600Y-03983070D01*
X00004660Y-03987300D01*
X00012700Y-03995770D01*
X00019140Y-04008470D01*
X00020750Y-04023280D01*
X00019140Y-04035990D01*
X00012700Y-04048690D01*
X00003050Y-04059270D01*
X-00008210Y-04063500D01*
X-00021080Y-04059270D01*
X-00032340Y-04046570D01*
X-00038780Y-04027520D01*
X-00040390Y-04006350D01*
X-00037170Y-03978840D01*
X-00032340Y-03964010D01*
X-00024300Y-03949200D01*
X-00013040Y-03938620D01*
X-00001780Y-03936500D01*
X00009480Y-03940730D01*
X00017530Y-03951320D01*
G01X00084330Y-04038100D02*
X00093980Y-04052920D01*
X00106850Y-04061380D01*
X00121330Y-04063500D01*
X00134200Y-04061380D01*
X00147070Y-04050800D01*
X00155110Y-04038100D01*
X00156720Y-04025400D01*
X00153500Y-04010590D01*
X00142240Y-04000000D01*
X00130980Y-03995770D01*
X00116500Y-03995770D01*
G01X00130980Y-03995770D02*
X00140630Y-03989420D01*
X00148680Y-03978840D01*
X00151890Y-03966130D01*
X00148680Y-03953430D01*
X00140630Y-03942850D01*
X00126150Y-03936500D01*
X00111680Y-03938620D01*
X00097200Y-03947080D01*
G01X00245450Y-04000000D02*
G02X00245450Y-04000000I-00255270J0D01*
G01X-00171530Y-03063500D02*
X-00171530Y-02936500D01*
X-00131320Y-02936500D01*
X-00118450Y-02942850D01*
X-00110400Y-02951320D01*
X-00107190Y-02968250D01*
X-00110400Y-02985180D01*
X-00120060Y-02995770D01*
X-00131320Y-03002120D01*
X-00171530Y-03002120D01*
G01X-00131320Y-03002120D02*
X-00107190Y-03063500D01*
G01X-00045210Y-03044450D02*
X-00035560Y-03055040D01*
X-00024300Y-03061380D01*
X-00009820Y-03063500D01*
X00004660Y-03059270D01*
X00015920Y-03050800D01*
X00023960Y-03035990D01*
X00025570Y-03019050D01*
X00022350Y-03002120D01*
X00014310Y-02991530D01*
X00003050Y-02983070D01*
X-00008210Y-02980950D01*
X-00019470Y-02983070D01*
X-00033950Y-02991530D01*
X-00029120Y-02936500D01*
X00014310Y-02936500D01*
G01X00089150Y-02957670D02*
X00098810Y-02944970D01*
X00110070Y-02938620D01*
X00122940Y-02936500D01*
X00139020Y-02940730D01*
X00150290Y-02951320D01*
X00153500Y-02964010D01*
X00151890Y-02976720D01*
X00145460Y-02987300D01*
X00113290Y-03008470D01*
X00098810Y-03023280D01*
X00089150Y-03044450D01*
X00085940Y-03063500D01*
X00153500Y-03063500D01*
G01X00245450Y-03000000D02*
G02X00245450Y-03000000I-00255270J0D01*
G01X00245450Y-02000000D02*
G02X00245450Y-02000000I-00255270J0D01*
G01X-00171530Y-02063500D02*
X-00171530Y-01936500D01*
X-00131320Y-01936500D01*
X-00118450Y-01942850D01*
X-00110400Y-01951320D01*
X-00107190Y-01968250D01*
X-00110400Y-01985180D01*
X-00120060Y-01995770D01*
X-00131320Y-02002120D01*
X-00171530Y-02002120D01*
G01X-00131320Y-02002120D02*
X-00107190Y-02063500D01*
G01X00009480Y-02063500D02*
X00009480Y-01936500D01*
X-00050040Y-02027520D01*
X00030400Y-02027520D01*
G01X00119720Y-02063500D02*
X00119720Y-01936500D01*
X00100420Y-01961900D01*
G01X00100420Y-02063500D02*
X00139020Y-02063500D01*
G01X-00171530Y-01063500D02*
X-00171530Y-00936500D01*
X-00131320Y-00936500D01*
X-00118450Y-00942850D01*
X-00110400Y-00951320D01*
X-00107190Y-00968250D01*
X-00110400Y-00985180D01*
X-00120060Y-00995770D01*
X-00131320Y-01002120D01*
X-00171530Y-01002120D01*
G01X-00131320Y-01002120D02*
X-00107190Y-01063500D01*
G01X-00045210Y-01038100D02*
X-00035560Y-01052920D01*
X-00022690Y-01061380D01*
X-00008210Y-01063500D01*
X00004660Y-01061380D01*
X00017530Y-01050800D01*
X00025570Y-01038100D01*
X00027180Y-01025400D01*
X00023960Y-01010590D01*
X00012700Y-01000000D01*
X00001440Y-00995770D01*
X-00013040Y-00995770D01*
G01X00001440Y-00995770D02*
X00011090Y-00989420D01*
X00019140Y-00978840D01*
X00022350Y-00966130D01*
X00019140Y-00953430D01*
X00011090Y-00942850D01*
X-00003390Y-00936500D01*
X-00017860Y-00938620D01*
X-00032340Y-00947080D01*
G01X00119720Y-00936500D02*
X00106850Y-00940730D01*
X00097200Y-00951320D01*
X00090760Y-00964010D01*
X00085940Y-00980950D01*
X00084330Y-01000000D01*
X00085940Y-01019050D01*
X00090760Y-01035990D01*
X00097200Y-01048690D01*
X00106850Y-01059270D01*
X00119720Y-01063500D01*
X00132590Y-01059270D01*
X00142240Y-01048690D01*
X00148680Y-01035990D01*
X00153500Y-01019050D01*
X00155110Y-01000000D01*
X00153500Y-00980950D01*
X00148680Y-00964010D01*
X00142240Y-00951320D01*
X00132590Y-00940730D01*
X00119720Y-00936500D01*
G01X00245450Y-01000000D02*
G02X00245450Y-01000000I-00255270J0D01*
G01X-00171530Y-00063500D02*
X-00171530Y00063500D01*
X-00131320Y00063500D01*
X-00118450Y00057150D01*
X-00110400Y00048680D01*
X-00107190Y00031750D01*
X-00110400Y00014820D01*
X-00120060Y00004230D01*
X-00131320Y-00002120D01*
X-00171530Y-00002120D01*
G01X-00131320Y-00002120D02*
X-00107190Y-00063500D01*
G01X-00009820Y-00063500D02*
X-00009820Y00063500D01*
X-00029120Y00038100D01*
G01X-00029120Y-00063500D02*
X00009480Y-00063500D01*
G01X00092370Y-00048690D02*
X00103630Y-00059270D01*
X00116500Y-00063500D01*
X00129370Y-00059270D01*
X00140630Y-00046570D01*
X00148680Y-00027520D01*
X00151890Y-00008470D01*
X00151890Y00014820D01*
X00148680Y00033870D01*
X00140630Y00050800D01*
X00130980Y00059270D01*
X00119720Y00063500D01*
X00106850Y00059270D01*
X00097200Y00050800D01*
X00090760Y00038100D01*
X00087550Y00021160D01*
X00090760Y00006350D01*
X00098810Y-00008470D01*
X00108460Y-00016940D01*
X00119720Y-00019050D01*
X00132590Y-00014820D01*
X00142240Y-00004230D01*
X00151890Y00014820D01*
G01X00245450Y0D02*
G02X00245450Y0I-00255270J0D01*
G01X00245450Y01000000D02*
G02X00245450Y01000000I-00255270J0D01*
G01X-00106760Y00936500D02*
X-00106760Y01063500D01*
X-00066550Y01063500D01*
X-00053680Y01057150D01*
X-00045630Y01048680D01*
X-00042420Y01031750D01*
X-00045630Y01014820D01*
X-00055290Y01004230D01*
X-00066550Y00997880D01*
X-00106760Y00997880D01*
G01X-00066550Y00997880D02*
X-00042420Y00936500D01*
G01X00054950Y00936500D02*
X00066210Y00938620D01*
X00079080Y00944960D01*
X00087120Y00955550D01*
X00090340Y00970370D01*
X00087120Y00985180D01*
X00077470Y00997880D01*
X00062990Y01004230D01*
X00046910Y01004230D01*
X00037250Y01008470D01*
X00029210Y01019050D01*
X00025990Y01033870D01*
X00030820Y01048680D01*
X00042080Y01059270D01*
X00054950Y01063500D01*
X00067820Y01059270D01*
X00079080Y01048680D01*
X00083910Y01033870D01*
X00080690Y01019050D01*
X00072650Y01008470D01*
X00062990Y01004230D01*
X00046910Y01004230D01*
X00032430Y00997880D01*
X00022780Y00985180D01*
X00019560Y00970370D01*
X00022780Y00955550D01*
X00030820Y00944960D01*
X00043690Y00938620D01*
X00054950Y00936500D01*
G01X00828470Y-06063500D02*
X00828470Y-05936500D01*
X00868680Y-05936500D01*
X00881550Y-05942850D01*
X00889600Y-05951320D01*
X00892810Y-05968250D01*
X00889600Y-05985180D01*
X00879940Y-05995770D01*
X00868680Y-06002120D01*
X00828470Y-06002120D01*
G01X00868680Y-06002120D02*
X00892810Y-06063500D01*
G01X00990180Y-06063500D02*
X01001440Y-06061380D01*
X01014310Y-06055040D01*
X01022350Y-06044450D01*
X01025570Y-06029630D01*
X01022350Y-06014820D01*
X01012700Y-06002120D01*
X00998220Y-05995770D01*
X00982140Y-05995770D01*
X00972480Y-05991530D01*
X00964440Y-05980950D01*
X00961220Y-05966130D01*
X00966050Y-05951320D01*
X00977310Y-05940730D01*
X00990180Y-05936500D01*
X01003050Y-05940730D01*
X01014310Y-05951320D01*
X01019140Y-05966130D01*
X01015920Y-05980950D01*
X01007880Y-05991530D01*
X00998220Y-05995770D01*
X00982140Y-05995770D01*
X00967660Y-06002120D01*
X00958010Y-06014820D01*
X00954790Y-06029630D01*
X00958010Y-06044450D01*
X00966050Y-06055040D01*
X00978920Y-06061380D01*
X00990180Y-06063500D01*
G01X01089150Y-06010590D02*
X01100420Y-05995770D01*
X01110070Y-05987300D01*
X01122940Y-05983070D01*
X01134200Y-05987300D01*
X01142240Y-05995770D01*
X01148680Y-06008470D01*
X01150290Y-06023280D01*
X01148680Y-06035990D01*
X01142240Y-06048690D01*
X01132590Y-06059270D01*
X01121330Y-06063500D01*
X01108460Y-06059270D01*
X01097200Y-06046570D01*
X01090760Y-06027520D01*
X01089150Y-06006350D01*
X01092370Y-05978840D01*
X01097200Y-05964010D01*
X01105240Y-05949200D01*
X01116500Y-05938620D01*
X01127760Y-05936500D01*
X01139020Y-05940730D01*
X01147070Y-05951320D01*
G01X01245450Y-06000000D02*
G02X01245450Y-06000000I-00255270J0D01*
G01X01245450Y-05000000D02*
G02X01245450Y-05000000I-00255270J0D01*
G01X00828470Y-05063500D02*
X00828470Y-04936500D01*
X00868680Y-04936500D01*
X00881550Y-04942850D01*
X00889600Y-04951320D01*
X00892810Y-04968250D01*
X00889600Y-04985180D01*
X00879940Y-04995770D01*
X00868680Y-05002120D01*
X00828470Y-05002120D01*
G01X00868680Y-05002120D02*
X00892810Y-05063500D01*
G01X00986960Y-05063500D02*
X00990180Y-05035990D01*
X00995010Y-05012700D01*
X01001440Y-04991530D01*
X01009480Y-04968250D01*
X01022350Y-04936500D01*
X00958010Y-04936500D01*
G01X01084330Y-05044450D02*
X01093980Y-05055040D01*
X01105240Y-05061380D01*
X01119720Y-05063500D01*
X01134200Y-05059270D01*
X01145460Y-05050800D01*
X01153500Y-05035990D01*
X01155110Y-05019050D01*
X01151890Y-05002120D01*
X01143850Y-04991530D01*
X01132590Y-04983070D01*
X01121330Y-04980950D01*
X01110070Y-04983070D01*
X01095590Y-04991530D01*
X01100420Y-04936500D01*
X01143850Y-04936500D01*
G01X00828470Y-04063500D02*
X00828470Y-03936500D01*
X00868680Y-03936500D01*
X00881550Y-03942850D01*
X00889600Y-03951320D01*
X00892810Y-03968250D01*
X00889600Y-03985180D01*
X00879940Y-03995770D01*
X00868680Y-04002120D01*
X00828470Y-04002120D01*
G01X00868680Y-04002120D02*
X00892810Y-04063500D01*
G01X00959610Y-04010590D02*
X00970880Y-03995770D01*
X00980530Y-03987300D01*
X00993400Y-03983070D01*
X01004660Y-03987300D01*
X01012700Y-03995770D01*
X01019140Y-04008470D01*
X01020750Y-04023280D01*
X01019140Y-04035990D01*
X01012700Y-04048690D01*
X01003050Y-04059270D01*
X00991790Y-04063500D01*
X00978920Y-04059270D01*
X00967660Y-04046570D01*
X00961220Y-04027520D01*
X00959610Y-04006350D01*
X00962830Y-03978840D01*
X00967660Y-03964010D01*
X00975700Y-03949200D01*
X00986960Y-03938620D01*
X00998220Y-03936500D01*
X01009480Y-03940730D01*
X01017530Y-03951320D01*
G01X01139020Y-04063500D02*
X01139020Y-03936500D01*
X01079500Y-04027520D01*
X01159940Y-04027520D01*
G01X01245450Y-04000000D02*
G02X01245450Y-04000000I-00255270J0D01*
G01X00828470Y-03063500D02*
X00828470Y-02936500D01*
X00868680Y-02936500D01*
X00881550Y-02942850D01*
X00889600Y-02951320D01*
X00892810Y-02968250D01*
X00889600Y-02985180D01*
X00879940Y-02995770D01*
X00868680Y-03002120D01*
X00828470Y-03002120D01*
G01X00868680Y-03002120D02*
X00892810Y-03063500D01*
G01X00954790Y-03044450D02*
X00964440Y-03055040D01*
X00975700Y-03061380D01*
X00990180Y-03063500D01*
X01004660Y-03059270D01*
X01015920Y-03050800D01*
X01023960Y-03035990D01*
X01025570Y-03019050D01*
X01022350Y-03002120D01*
X01014310Y-02991530D01*
X01003050Y-02983070D01*
X00991790Y-02980950D01*
X00980530Y-02983070D01*
X00966050Y-02991530D01*
X00970880Y-02936500D01*
X01014310Y-02936500D01*
G01X01084330Y-03038100D02*
X01093980Y-03052920D01*
X01106850Y-03061380D01*
X01121330Y-03063500D01*
X01134200Y-03061380D01*
X01147070Y-03050800D01*
X01155110Y-03038100D01*
X01156720Y-03025400D01*
X01153500Y-03010590D01*
X01142240Y-03000000D01*
X01130980Y-02995770D01*
X01116500Y-02995770D01*
G01X01130980Y-02995770D02*
X01140630Y-02989420D01*
X01148680Y-02978840D01*
X01151890Y-02966130D01*
X01148680Y-02953430D01*
X01140630Y-02942850D01*
X01126150Y-02936500D01*
X01111680Y-02938620D01*
X01097200Y-02947080D01*
G01X01245450Y-03000000D02*
G02X01245450Y-03000000I-00255270J0D01*
G01X01245450Y-02000000D02*
G02X01245450Y-02000000I-00255270J0D01*
G01X00828470Y-02063500D02*
X00828470Y-01936500D01*
X00868680Y-01936500D01*
X00881550Y-01942850D01*
X00889600Y-01951320D01*
X00892810Y-01968250D01*
X00889600Y-01985180D01*
X00879940Y-01995770D01*
X00868680Y-02002120D01*
X00828470Y-02002120D01*
G01X00868680Y-02002120D02*
X00892810Y-02063500D01*
G01X01009480Y-02063500D02*
X01009480Y-01936500D01*
X00949960Y-02027520D01*
X01030400Y-02027520D01*
G01X01089150Y-01957670D02*
X01098810Y-01944970D01*
X01110070Y-01938620D01*
X01122940Y-01936500D01*
X01139020Y-01940730D01*
X01150290Y-01951320D01*
X01153500Y-01964010D01*
X01151890Y-01976720D01*
X01145460Y-01987300D01*
X01113290Y-02008470D01*
X01098810Y-02023280D01*
X01089150Y-02044450D01*
X01085940Y-02063500D01*
X01153500Y-02063500D01*
G01X00828470Y-01063500D02*
X00828470Y-00936500D01*
X00868680Y-00936500D01*
X00881550Y-00942850D01*
X00889600Y-00951320D01*
X00892810Y-00968250D01*
X00889600Y-00985180D01*
X00879940Y-00995770D01*
X00868680Y-01002120D01*
X00828470Y-01002120D01*
G01X00868680Y-01002120D02*
X00892810Y-01063500D01*
G01X00954790Y-01038100D02*
X00964440Y-01052920D01*
X00977310Y-01061380D01*
X00991790Y-01063500D01*
X01004660Y-01061380D01*
X01017530Y-01050800D01*
X01025570Y-01038100D01*
X01027180Y-01025400D01*
X01023960Y-01010590D01*
X01012700Y-01000000D01*
X01001440Y-00995770D01*
X00986960Y-00995770D01*
G01X01001440Y-00995770D02*
X01011090Y-00989420D01*
X01019140Y-00978840D01*
X01022350Y-00966130D01*
X01019140Y-00953430D01*
X01011090Y-00942850D01*
X00996610Y-00936500D01*
X00982140Y-00938620D01*
X00967660Y-00947080D01*
G01X01119720Y-01063500D02*
X01119720Y-00936500D01*
X01100420Y-00961900D01*
G01X01100420Y-01063500D02*
X01139020Y-01063500D01*
G01X01245450Y-01000000D02*
G02X01245450Y-01000000I-00255270J0D01*
G01X00828470Y-00063500D02*
X00828470Y00063500D01*
X00868680Y00063500D01*
X00881550Y00057150D01*
X00889600Y00048680D01*
X00892810Y00031750D01*
X00889600Y00014820D01*
X00879940Y00004230D01*
X00868680Y-00002120D01*
X00828470Y-00002120D01*
G01X00868680Y-00002120D02*
X00892810Y-00063500D01*
G01X00959610Y00042330D02*
X00969270Y00055030D01*
X00980530Y00061380D01*
X00993400Y00063500D01*
X01009480Y00059270D01*
X01020750Y00048680D01*
X01023960Y00035990D01*
X01022350Y00023280D01*
X01015920Y00012700D01*
X00983750Y-00008470D01*
X00969270Y-00023280D01*
X00959610Y-00044450D01*
X00956400Y-00063500D01*
X01023960Y-00063500D01*
G01X01119720Y00063500D02*
X01106850Y00059270D01*
X01097200Y00048680D01*
X01090760Y00035990D01*
X01085940Y00019050D01*
X01084330Y0D01*
X01085940Y-00019050D01*
X01090760Y-00035990D01*
X01097200Y-00048690D01*
X01106850Y-00059270D01*
X01119720Y-00063500D01*
X01132590Y-00059270D01*
X01142240Y-00048690D01*
X01148680Y-00035990D01*
X01153500Y-00019050D01*
X01155110Y0D01*
X01153500Y00019050D01*
X01148680Y00035990D01*
X01142240Y00048680D01*
X01132590Y00059270D01*
X01119720Y00063500D01*
G01X01245450Y0D02*
G02X01245450Y0I-00255270J0D01*
G01X01245450Y01000000D02*
G02X01245450Y01000000I-00255270J0D01*
G01X00893240Y00936500D02*
X00893240Y01063500D01*
X00933450Y01063500D01*
X00946320Y01057150D01*
X00954370Y01048680D01*
X00957580Y01031750D01*
X00954370Y01014820D01*
X00944710Y01004230D01*
X00933450Y00997880D01*
X00893240Y00997880D01*
G01X00933450Y00997880D02*
X00957580Y00936500D01*
G01X01027600Y00951310D02*
X01038860Y00940730D01*
X01051730Y00936500D01*
X01064600Y00940730D01*
X01075860Y00953430D01*
X01083910Y00972480D01*
X01087120Y00991530D01*
X01087120Y01014820D01*
X01083910Y01033870D01*
X01075860Y01050800D01*
X01066210Y01059270D01*
X01054950Y01063500D01*
X01042080Y01059270D01*
X01032430Y01050800D01*
X01025990Y01038100D01*
X01022780Y01021160D01*
X01025990Y01006350D01*
X01034040Y00991530D01*
X01043690Y00983060D01*
X01054950Y00980950D01*
X01067820Y00985180D01*
X01077470Y00995770D01*
X01087120Y01014820D01*
G01X02245450Y-06000000D02*
G02X02245450Y-06000000I-00255270J0D01*
G01X02245450Y-05000000D02*
G02X02245450Y-05000000I-00255270J0D01*
G01X02245450Y-04000000D02*
G02X02245450Y-04000000I-00255270J0D01*
G01X02245450Y-03000000D02*
G02X02245450Y-03000000I-00255270J0D01*
G01X02245450Y-02000000D02*
G02X02245450Y-02000000I-00255270J0D01*
G01X02245450Y-01000000D02*
G02X02245450Y-01000000I-00255270J0D01*
G01X02245450Y0D02*
G02X02245450Y0I-00255270J0D01*
G01X02245450Y01000000D02*
G02X02245450Y01000000I-00255270J0D01*
G01X01659500Y02594920D02*
X01723000Y02594920D01*
G01X01659500Y02579340D02*
X01659500Y02610500D01*
G01X01723000Y02637250D02*
X01659500Y02637250D01*
X01659500Y02653510D01*
X01662680Y02658930D01*
X01670080Y02662990D01*
X01678550Y02664350D01*
X01687020Y02662990D01*
X01693370Y02659610D01*
X01696540Y02653510D01*
X01696540Y02637250D01*
G01X01670080Y02693810D02*
X01663730Y02697870D01*
X01660560Y02702620D01*
X01659500Y02708030D01*
X01661620Y02714810D01*
X01666910Y02719550D01*
X01673260Y02720900D01*
X01679610Y02720230D01*
X01684900Y02717520D01*
X01695480Y02703970D01*
X01702890Y02697870D01*
X01713480Y02693810D01*
X01723000Y02692460D01*
X01723000Y02720900D01*
G01X01659500Y02762560D02*
X01661620Y02757140D01*
X01666910Y02753080D01*
X01673260Y02750370D01*
X01681730Y02748340D01*
X01691250Y02747660D01*
X01700780Y02748340D01*
X01709240Y02750370D01*
X01715590Y02753080D01*
X01720880Y02757140D01*
X01723000Y02762560D01*
X01720880Y02767980D01*
X01715590Y02772040D01*
X01709240Y02774750D01*
X01700780Y02776780D01*
X01691250Y02777460D01*
X01681730Y02776780D01*
X01673260Y02774750D01*
X01666910Y02772040D01*
X01661620Y02767980D01*
X01659500Y02762560D01*
G01X01828470Y-06063500D02*
X01828470Y-05936500D01*
X01868680Y-05936500D01*
X01881550Y-05942850D01*
X01889600Y-05951320D01*
X01892810Y-05968250D01*
X01889600Y-05985180D01*
X01879940Y-05995770D01*
X01868680Y-06002120D01*
X01828470Y-06002120D01*
G01X01868680Y-06002120D02*
X01892810Y-06063500D01*
G01X01990180Y-06063500D02*
X02001440Y-06061380D01*
X02014310Y-06055040D01*
X02022350Y-06044450D01*
X02025570Y-06029630D01*
X02022350Y-06014820D01*
X02012700Y-06002120D01*
X01998220Y-05995770D01*
X01982140Y-05995770D01*
X01972480Y-05991530D01*
X01964440Y-05980950D01*
X01961220Y-05966130D01*
X01966050Y-05951320D01*
X01977310Y-05940730D01*
X01990180Y-05936500D01*
X02003050Y-05940730D01*
X02014310Y-05951320D01*
X02019140Y-05966130D01*
X02015920Y-05980950D01*
X02007880Y-05991530D01*
X01998220Y-05995770D01*
X01982140Y-05995770D01*
X01967660Y-06002120D01*
X01958010Y-06014820D01*
X01954790Y-06029630D01*
X01958010Y-06044450D01*
X01966050Y-06055040D01*
X01978920Y-06061380D01*
X01990180Y-06063500D01*
G01X02116500Y-06063500D02*
X02119720Y-06035990D01*
X02124550Y-06012700D01*
X02130980Y-05991530D01*
X02139020Y-05968250D01*
X02151890Y-05936500D01*
X02087550Y-05936500D01*
G01X01828470Y-05063500D02*
X01828470Y-04936500D01*
X01868680Y-04936500D01*
X01881550Y-04942850D01*
X01889600Y-04951320D01*
X01892810Y-04968250D01*
X01889600Y-04985180D01*
X01879940Y-04995770D01*
X01868680Y-05002120D01*
X01828470Y-05002120D01*
G01X01868680Y-05002120D02*
X01892810Y-05063500D01*
G01X01986960Y-05063500D02*
X01990180Y-05035990D01*
X01995010Y-05012700D01*
X02001440Y-04991530D01*
X02009480Y-04968250D01*
X02022350Y-04936500D01*
X01958010Y-04936500D01*
G01X02089150Y-05010590D02*
X02100420Y-04995770D01*
X02110070Y-04987300D01*
X02122940Y-04983070D01*
X02134200Y-04987300D01*
X02142240Y-04995770D01*
X02148680Y-05008470D01*
X02150290Y-05023280D01*
X02148680Y-05035990D01*
X02142240Y-05048690D01*
X02132590Y-05059270D01*
X02121330Y-05063500D01*
X02108460Y-05059270D01*
X02097200Y-05046570D01*
X02090760Y-05027520D01*
X02089150Y-05006350D01*
X02092370Y-04978840D01*
X02097200Y-04964010D01*
X02105240Y-04949200D01*
X02116500Y-04938620D01*
X02127760Y-04936500D01*
X02139020Y-04940730D01*
X02147070Y-04951320D01*
G01X01828470Y-04063500D02*
X01828470Y-03936500D01*
X01868680Y-03936500D01*
X01881550Y-03942850D01*
X01889600Y-03951320D01*
X01892810Y-03968250D01*
X01889600Y-03985180D01*
X01879940Y-03995770D01*
X01868680Y-04002120D01*
X01828470Y-04002120D01*
G01X01868680Y-04002120D02*
X01892810Y-04063500D01*
G01X01959610Y-04010590D02*
X01970880Y-03995770D01*
X01980530Y-03987300D01*
X01993400Y-03983070D01*
X02004660Y-03987300D01*
X02012700Y-03995770D01*
X02019140Y-04008470D01*
X02020750Y-04023280D01*
X02019140Y-04035990D01*
X02012700Y-04048690D01*
X02003050Y-04059270D01*
X01991790Y-04063500D01*
X01978920Y-04059270D01*
X01967660Y-04046570D01*
X01961220Y-04027520D01*
X01959610Y-04006350D01*
X01962830Y-03978840D01*
X01967660Y-03964010D01*
X01975700Y-03949200D01*
X01986960Y-03938620D01*
X01998220Y-03936500D01*
X02009480Y-03940730D01*
X02017530Y-03951320D01*
G01X02084330Y-04044450D02*
X02093980Y-04055040D01*
X02105240Y-04061380D01*
X02119720Y-04063500D01*
X02134200Y-04059270D01*
X02145460Y-04050800D01*
X02153500Y-04035990D01*
X02155110Y-04019050D01*
X02151890Y-04002120D01*
X02143850Y-03991530D01*
X02132590Y-03983070D01*
X02121330Y-03980950D01*
X02110070Y-03983070D01*
X02095590Y-03991530D01*
X02100420Y-03936500D01*
X02143850Y-03936500D01*
G01X01828470Y-03063500D02*
X01828470Y-02936500D01*
X01868680Y-02936500D01*
X01881550Y-02942850D01*
X01889600Y-02951320D01*
X01892810Y-02968250D01*
X01889600Y-02985180D01*
X01879940Y-02995770D01*
X01868680Y-03002120D01*
X01828470Y-03002120D01*
G01X01868680Y-03002120D02*
X01892810Y-03063500D01*
G01X01954790Y-03044450D02*
X01964440Y-03055040D01*
X01975700Y-03061380D01*
X01990180Y-03063500D01*
X02004660Y-03059270D01*
X02015920Y-03050800D01*
X02023960Y-03035990D01*
X02025570Y-03019050D01*
X02022350Y-03002120D01*
X02014310Y-02991530D01*
X02003050Y-02983070D01*
X01991790Y-02980950D01*
X01980530Y-02983070D01*
X01966050Y-02991530D01*
X01970880Y-02936500D01*
X02014310Y-02936500D01*
G01X02139020Y-03063500D02*
X02139020Y-02936500D01*
X02079500Y-03027520D01*
X02159940Y-03027520D01*
G01X01828470Y-02063500D02*
X01828470Y-01936500D01*
X01868680Y-01936500D01*
X01881550Y-01942850D01*
X01889600Y-01951320D01*
X01892810Y-01968250D01*
X01889600Y-01985180D01*
X01879940Y-01995770D01*
X01868680Y-02002120D01*
X01828470Y-02002120D01*
G01X01868680Y-02002120D02*
X01892810Y-02063500D01*
G01X02009480Y-02063500D02*
X02009480Y-01936500D01*
X01949960Y-02027520D01*
X02030400Y-02027520D01*
G01X02084330Y-02038100D02*
X02093980Y-02052920D01*
X02106850Y-02061380D01*
X02121330Y-02063500D01*
X02134200Y-02061380D01*
X02147070Y-02050800D01*
X02155110Y-02038100D01*
X02156720Y-02025400D01*
X02153500Y-02010590D01*
X02142240Y-02000000D01*
X02130980Y-01995770D01*
X02116500Y-01995770D01*
G01X02130980Y-01995770D02*
X02140630Y-01989420D01*
X02148680Y-01978840D01*
X02151890Y-01966130D01*
X02148680Y-01953430D01*
X02140630Y-01942850D01*
X02126150Y-01936500D01*
X02111680Y-01938620D01*
X02097200Y-01947080D01*
G01X01828470Y-01063500D02*
X01828470Y-00936500D01*
X01868680Y-00936500D01*
X01881550Y-00942850D01*
X01889600Y-00951320D01*
X01892810Y-00968250D01*
X01889600Y-00985180D01*
X01879940Y-00995770D01*
X01868680Y-01002120D01*
X01828470Y-01002120D01*
G01X01868680Y-01002120D02*
X01892810Y-01063500D01*
G01X01954790Y-01038100D02*
X01964440Y-01052920D01*
X01977310Y-01061380D01*
X01991790Y-01063500D01*
X02004660Y-01061380D01*
X02017530Y-01050800D01*
X02025570Y-01038100D01*
X02027180Y-01025400D01*
X02023960Y-01010590D01*
X02012700Y-01000000D01*
X02001440Y-00995770D01*
X01986960Y-00995770D01*
G01X02001440Y-00995770D02*
X02011090Y-00989420D01*
X02019140Y-00978840D01*
X02022350Y-00966130D01*
X02019140Y-00953430D01*
X02011090Y-00942850D01*
X01996610Y-00936500D01*
X01982140Y-00938620D01*
X01967660Y-00947080D01*
G01X02089150Y-00957670D02*
X02098810Y-00944970D01*
X02110070Y-00938620D01*
X02122940Y-00936500D01*
X02139020Y-00940730D01*
X02150290Y-00951320D01*
X02153500Y-00964010D01*
X02151890Y-00976720D01*
X02145460Y-00987300D01*
X02113290Y-01008470D01*
X02098810Y-01023280D01*
X02089150Y-01044450D01*
X02085940Y-01063500D01*
X02153500Y-01063500D01*
G01X01828470Y-00063500D02*
X01828470Y00063500D01*
X01868680Y00063500D01*
X01881550Y00057150D01*
X01889600Y00048680D01*
X01892810Y00031750D01*
X01889600Y00014820D01*
X01879940Y00004230D01*
X01868680Y-00002120D01*
X01828470Y-00002120D01*
G01X01868680Y-00002120D02*
X01892810Y-00063500D01*
G01X01959610Y00042330D02*
X01969270Y00055030D01*
X01980530Y00061380D01*
X01993400Y00063500D01*
X02009480Y00059270D01*
X02020750Y00048680D01*
X02023960Y00035990D01*
X02022350Y00023280D01*
X02015920Y00012700D01*
X01983750Y-00008470D01*
X01969270Y-00023280D01*
X01959610Y-00044450D01*
X01956400Y-00063500D01*
X02023960Y-00063500D01*
G01X02119720Y-00063500D02*
X02119720Y00063500D01*
X02100420Y00038100D01*
G01X02100420Y-00063500D02*
X02139020Y-00063500D01*
G01X01828470Y00936500D02*
X01828470Y01063500D01*
X01868680Y01063500D01*
X01881550Y01057150D01*
X01889600Y01048680D01*
X01892810Y01031750D01*
X01889600Y01014820D01*
X01879940Y01004230D01*
X01868680Y00997880D01*
X01828470Y00997880D01*
G01X01868680Y00997880D02*
X01892810Y00936500D01*
G01X01990180Y00936500D02*
X01990180Y01063500D01*
X01970880Y01038100D01*
G01X01970880Y00936500D02*
X02009480Y00936500D01*
G01X02119720Y01063500D02*
X02106850Y01059270D01*
X02097200Y01048680D01*
X02090760Y01035990D01*
X02085940Y01019050D01*
X02084330Y01000000D01*
X02085940Y00980950D01*
X02090760Y00964010D01*
X02097200Y00951310D01*
X02106850Y00940730D01*
X02119720Y00936500D01*
X02132590Y00940730D01*
X02142240Y00951310D01*
X02148680Y00964010D01*
X02153500Y00980950D01*
X02155110Y01000000D01*
X02153500Y01019050D01*
X02148680Y01035990D01*
X02142240Y01048680D01*
X02132590Y01059270D01*
X02119720Y01063500D01*
G01X02109500Y02594920D02*
X02173000Y02594920D01*
G01X02109500Y02579340D02*
X02109500Y02610500D01*
G01X02173000Y02637250D02*
X02109500Y02637250D01*
X02109500Y02653510D01*
X02112680Y02658930D01*
X02120080Y02662990D01*
X02128550Y02664350D01*
X02137020Y02662990D01*
X02143370Y02659610D01*
X02146540Y02653510D01*
X02146540Y02637250D01*
G01X02120080Y02693810D02*
X02113730Y02697870D01*
X02110560Y02702620D01*
X02109500Y02708030D01*
X02111620Y02714810D01*
X02116910Y02719550D01*
X02123260Y02720900D01*
X02129610Y02720230D01*
X02134900Y02717520D01*
X02145480Y02703970D01*
X02152890Y02697870D01*
X02163480Y02693810D01*
X02173000Y02692460D01*
X02173000Y02720900D01*
G01X02173000Y02762560D02*
X02109500Y02762560D01*
X02122200Y02754430D01*
G01X02173000Y02754430D02*
X02173000Y02770690D01*
G01X02828470Y-06063500D02*
X02828470Y-05936500D01*
X02868680Y-05936500D01*
X02881550Y-05942850D01*
X02889600Y-05951320D01*
X02892810Y-05968250D01*
X02889600Y-05985180D01*
X02879940Y-05995770D01*
X02868680Y-06002120D01*
X02828470Y-06002120D01*
G01X02868680Y-06002120D02*
X02892810Y-06063500D01*
G01X02990180Y-06063500D02*
X03001440Y-06061380D01*
X03014310Y-06055040D01*
X03022350Y-06044450D01*
X03025570Y-06029630D01*
X03022350Y-06014820D01*
X03012700Y-06002120D01*
X02998220Y-05995770D01*
X02982140Y-05995770D01*
X02972480Y-05991530D01*
X02964440Y-05980950D01*
X02961220Y-05966130D01*
X02966050Y-05951320D01*
X02977310Y-05940730D01*
X02990180Y-05936500D01*
X03003050Y-05940730D01*
X03014310Y-05951320D01*
X03019140Y-05966130D01*
X03015920Y-05980950D01*
X03007880Y-05991530D01*
X02998220Y-05995770D01*
X02982140Y-05995770D01*
X02967660Y-06002120D01*
X02958010Y-06014820D01*
X02954790Y-06029630D01*
X02958010Y-06044450D01*
X02966050Y-06055040D01*
X02978920Y-06061380D01*
X02990180Y-06063500D01*
G01X03119720Y-06063500D02*
X03130980Y-06061380D01*
X03143850Y-06055040D01*
X03151890Y-06044450D01*
X03155110Y-06029630D01*
X03151890Y-06014820D01*
X03142240Y-06002120D01*
X03127760Y-05995770D01*
X03111680Y-05995770D01*
X03102020Y-05991530D01*
X03093980Y-05980950D01*
X03090760Y-05966130D01*
X03095590Y-05951320D01*
X03106850Y-05940730D01*
X03119720Y-05936500D01*
X03132590Y-05940730D01*
X03143850Y-05951320D01*
X03148680Y-05966130D01*
X03145460Y-05980950D01*
X03137420Y-05991530D01*
X03127760Y-05995770D01*
X03111680Y-05995770D01*
X03097200Y-06002120D01*
X03087550Y-06014820D01*
X03084330Y-06029630D01*
X03087550Y-06044450D01*
X03095590Y-06055040D01*
X03108460Y-06061380D01*
X03119720Y-06063500D01*
G01X03245450Y-06000000D02*
G02X03245450Y-06000000I-00255270J0D01*
G01X03245450Y-05000000D02*
G02X03245450Y-05000000I-00255270J0D01*
G01X02828470Y-05063500D02*
X02828470Y-04936500D01*
X02868680Y-04936500D01*
X02881550Y-04942850D01*
X02889600Y-04951320D01*
X02892810Y-04968250D01*
X02889600Y-04985180D01*
X02879940Y-04995770D01*
X02868680Y-05002120D01*
X02828470Y-05002120D01*
G01X02868680Y-05002120D02*
X02892810Y-05063500D01*
G01X02986960Y-05063500D02*
X02990180Y-05035990D01*
X02995010Y-05012700D01*
X03001440Y-04991530D01*
X03009480Y-04968250D01*
X03022350Y-04936500D01*
X02958010Y-04936500D01*
G01X03116500Y-05063500D02*
X03119720Y-05035990D01*
X03124550Y-05012700D01*
X03130980Y-04991530D01*
X03139020Y-04968250D01*
X03151890Y-04936500D01*
X03087550Y-04936500D01*
G01X02828470Y-04063500D02*
X02828470Y-03936500D01*
X02868680Y-03936500D01*
X02881550Y-03942850D01*
X02889600Y-03951320D01*
X02892810Y-03968250D01*
X02889600Y-03985180D01*
X02879940Y-03995770D01*
X02868680Y-04002120D01*
X02828470Y-04002120D01*
G01X02868680Y-04002120D02*
X02892810Y-04063500D01*
G01X02959610Y-04010590D02*
X02970880Y-03995770D01*
X02980530Y-03987300D01*
X02993400Y-03983070D01*
X03004660Y-03987300D01*
X03012700Y-03995770D01*
X03019140Y-04008470D01*
X03020750Y-04023280D01*
X03019140Y-04035990D01*
X03012700Y-04048690D01*
X03003050Y-04059270D01*
X02991790Y-04063500D01*
X02978920Y-04059270D01*
X02967660Y-04046570D01*
X02961220Y-04027520D01*
X02959610Y-04006350D01*
X02962830Y-03978840D01*
X02967660Y-03964010D01*
X02975700Y-03949200D01*
X02986960Y-03938620D01*
X02998220Y-03936500D01*
X03009480Y-03940730D01*
X03017530Y-03951320D01*
G01X03089150Y-04010590D02*
X03100420Y-03995770D01*
X03110070Y-03987300D01*
X03122940Y-03983070D01*
X03134200Y-03987300D01*
X03142240Y-03995770D01*
X03148680Y-04008470D01*
X03150290Y-04023280D01*
X03148680Y-04035990D01*
X03142240Y-04048690D01*
X03132590Y-04059270D01*
X03121330Y-04063500D01*
X03108460Y-04059270D01*
X03097200Y-04046570D01*
X03090760Y-04027520D01*
X03089150Y-04006350D01*
X03092370Y-03978840D01*
X03097200Y-03964010D01*
X03105240Y-03949200D01*
X03116500Y-03938620D01*
X03127760Y-03936500D01*
X03139020Y-03940730D01*
X03147070Y-03951320D01*
G01X03245450Y-04000000D02*
G02X03245450Y-04000000I-00255270J0D01*
G01X02828470Y-03063500D02*
X02828470Y-02936500D01*
X02868680Y-02936500D01*
X02881550Y-02942850D01*
X02889600Y-02951320D01*
X02892810Y-02968250D01*
X02889600Y-02985180D01*
X02879940Y-02995770D01*
X02868680Y-03002120D01*
X02828470Y-03002120D01*
G01X02868680Y-03002120D02*
X02892810Y-03063500D01*
G01X02954790Y-03044450D02*
X02964440Y-03055040D01*
X02975700Y-03061380D01*
X02990180Y-03063500D01*
X03004660Y-03059270D01*
X03015920Y-03050800D01*
X03023960Y-03035990D01*
X03025570Y-03019050D01*
X03022350Y-03002120D01*
X03014310Y-02991530D01*
X03003050Y-02983070D01*
X02991790Y-02980950D01*
X02980530Y-02983070D01*
X02966050Y-02991530D01*
X02970880Y-02936500D01*
X03014310Y-02936500D01*
G01X03084330Y-03044450D02*
X03093980Y-03055040D01*
X03105240Y-03061380D01*
X03119720Y-03063500D01*
X03134200Y-03059270D01*
X03145460Y-03050800D01*
X03153500Y-03035990D01*
X03155110Y-03019050D01*
X03151890Y-03002120D01*
X03143850Y-02991530D01*
X03132590Y-02983070D01*
X03121330Y-02980950D01*
X03110070Y-02983070D01*
X03095590Y-02991530D01*
X03100420Y-02936500D01*
X03143850Y-02936500D01*
G01X03245450Y-03000000D02*
G02X03245450Y-03000000I-00255270J0D01*
G01X03245450Y-02000000D02*
G02X03245450Y-02000000I-00255270J0D01*
G01X02828470Y-02063500D02*
X02828470Y-01936500D01*
X02868680Y-01936500D01*
X02881550Y-01942850D01*
X02889600Y-01951320D01*
X02892810Y-01968250D01*
X02889600Y-01985180D01*
X02879940Y-01995770D01*
X02868680Y-02002120D01*
X02828470Y-02002120D01*
G01X02868680Y-02002120D02*
X02892810Y-02063500D01*
G01X03009480Y-02063500D02*
X03009480Y-01936500D01*
X02949960Y-02027520D01*
X03030400Y-02027520D01*
G01X03139020Y-02063500D02*
X03139020Y-01936500D01*
X03079500Y-02027520D01*
X03159940Y-02027520D01*
G01X02828470Y-01063500D02*
X02828470Y-00936500D01*
X02868680Y-00936500D01*
X02881550Y-00942850D01*
X02889600Y-00951320D01*
X02892810Y-00968250D01*
X02889600Y-00985180D01*
X02879940Y-00995770D01*
X02868680Y-01002120D01*
X02828470Y-01002120D01*
G01X02868680Y-01002120D02*
X02892810Y-01063500D01*
G01X02954790Y-01038100D02*
X02964440Y-01052920D01*
X02977310Y-01061380D01*
X02991790Y-01063500D01*
X03004660Y-01061380D01*
X03017530Y-01050800D01*
X03025570Y-01038100D01*
X03027180Y-01025400D01*
X03023960Y-01010590D01*
X03012700Y-01000000D01*
X03001440Y-00995770D01*
X02986960Y-00995770D01*
G01X03001440Y-00995770D02*
X03011090Y-00989420D01*
X03019140Y-00978840D01*
X03022350Y-00966130D01*
X03019140Y-00953430D01*
X03011090Y-00942850D01*
X02996610Y-00936500D01*
X02982140Y-00938620D01*
X02967660Y-00947080D01*
G01X03084330Y-01038100D02*
X03093980Y-01052920D01*
X03106850Y-01061380D01*
X03121330Y-01063500D01*
X03134200Y-01061380D01*
X03147070Y-01050800D01*
X03155110Y-01038100D01*
X03156720Y-01025400D01*
X03153500Y-01010590D01*
X03142240Y-01000000D01*
X03130980Y-00995770D01*
X03116500Y-00995770D01*
G01X03130980Y-00995770D02*
X03140630Y-00989420D01*
X03148680Y-00978840D01*
X03151890Y-00966130D01*
X03148680Y-00953430D01*
X03140630Y-00942850D01*
X03126150Y-00936500D01*
X03111680Y-00938620D01*
X03097200Y-00947080D01*
G01X03245450Y-01000000D02*
G02X03245450Y-01000000I-00255270J0D01*
G01X02828470Y-00063500D02*
X02828470Y00063500D01*
X02868680Y00063500D01*
X02881550Y00057150D01*
X02889600Y00048680D01*
X02892810Y00031750D01*
X02889600Y00014820D01*
X02879940Y00004230D01*
X02868680Y-00002120D01*
X02828470Y-00002120D01*
G01X02868680Y-00002120D02*
X02892810Y-00063500D01*
G01X02959610Y00042330D02*
X02969270Y00055030D01*
X02980530Y00061380D01*
X02993400Y00063500D01*
X03009480Y00059270D01*
X03020750Y00048680D01*
X03023960Y00035990D01*
X03022350Y00023280D01*
X03015920Y00012700D01*
X02983750Y-00008470D01*
X02969270Y-00023280D01*
X02959610Y-00044450D01*
X02956400Y-00063500D01*
X03023960Y-00063500D01*
G01X03089150Y00042330D02*
X03098810Y00055030D01*
X03110070Y00061380D01*
X03122940Y00063500D01*
X03139020Y00059270D01*
X03150290Y00048680D01*
X03153500Y00035990D01*
X03151890Y00023280D01*
X03145460Y00012700D01*
X03113290Y-00008470D01*
X03098810Y-00023280D01*
X03089150Y-00044450D01*
X03085940Y-00063500D01*
X03153500Y-00063500D01*
G01X03245450Y0D02*
G02X03245450Y0I-00255270J0D01*
G01X03245450Y01000000D02*
G02X03245450Y01000000I-00255270J0D01*
G01X02828470Y00936500D02*
X02828470Y01063500D01*
X02868680Y01063500D01*
X02881550Y01057150D01*
X02889600Y01048680D01*
X02892810Y01031750D01*
X02889600Y01014820D01*
X02879940Y01004230D01*
X02868680Y00997880D01*
X02828470Y00997880D01*
G01X02868680Y00997880D02*
X02892810Y00936500D01*
G01X02990180Y00936500D02*
X02990180Y01063500D01*
X02970880Y01038100D01*
G01X02970880Y00936500D02*
X03009480Y00936500D01*
G01X03119720Y00936500D02*
X03119720Y01063500D01*
X03100420Y01038100D01*
G01X03100420Y00936500D02*
X03139020Y00936500D01*
G01X03828470Y-06063500D02*
X03828470Y-05936500D01*
X03868680Y-05936500D01*
X03881550Y-05942850D01*
X03889600Y-05951320D01*
X03892810Y-05968250D01*
X03889600Y-05985180D01*
X03879940Y-05995770D01*
X03868680Y-06002120D01*
X03828470Y-06002120D01*
G01X03868680Y-06002120D02*
X03892810Y-06063500D01*
G01X03990180Y-06063500D02*
X04001440Y-06061380D01*
X04014310Y-06055040D01*
X04022350Y-06044450D01*
X04025570Y-06029630D01*
X04022350Y-06014820D01*
X04012700Y-06002120D01*
X03998220Y-05995770D01*
X03982140Y-05995770D01*
X03972480Y-05991530D01*
X03964440Y-05980950D01*
X03961220Y-05966130D01*
X03966050Y-05951320D01*
X03977310Y-05940730D01*
X03990180Y-05936500D01*
X04003050Y-05940730D01*
X04014310Y-05951320D01*
X04019140Y-05966130D01*
X04015920Y-05980950D01*
X04007880Y-05991530D01*
X03998220Y-05995770D01*
X03982140Y-05995770D01*
X03967660Y-06002120D01*
X03958010Y-06014820D01*
X03954790Y-06029630D01*
X03958010Y-06044450D01*
X03966050Y-06055040D01*
X03978920Y-06061380D01*
X03990180Y-06063500D01*
G01X04092370Y-06048690D02*
X04103630Y-06059270D01*
X04116500Y-06063500D01*
X04129370Y-06059270D01*
X04140630Y-06046570D01*
X04148680Y-06027520D01*
X04151890Y-06008470D01*
X04151890Y-05985180D01*
X04148680Y-05966130D01*
X04140630Y-05949200D01*
X04130980Y-05940730D01*
X04119720Y-05936500D01*
X04106850Y-05940730D01*
X04097200Y-05949200D01*
X04090760Y-05961900D01*
X04087550Y-05978840D01*
X04090760Y-05993650D01*
X04098810Y-06008470D01*
X04108460Y-06016940D01*
X04119720Y-06019050D01*
X04132590Y-06014820D01*
X04142240Y-06004230D01*
X04151890Y-05985180D01*
G01X04245450Y-06000000D02*
G02X04245450Y-06000000I-00255270J0D01*
G01X04245450Y-05000000D02*
G02X04245450Y-05000000I-00255270J0D01*
G01X03828470Y-05063500D02*
X03828470Y-04936500D01*
X03868680Y-04936500D01*
X03881550Y-04942850D01*
X03889600Y-04951320D01*
X03892810Y-04968250D01*
X03889600Y-04985180D01*
X03879940Y-04995770D01*
X03868680Y-05002120D01*
X03828470Y-05002120D01*
G01X03868680Y-05002120D02*
X03892810Y-05063500D01*
G01X03986960Y-05063500D02*
X03990180Y-05035990D01*
X03995010Y-05012700D01*
X04001440Y-04991530D01*
X04009480Y-04968250D01*
X04022350Y-04936500D01*
X03958010Y-04936500D01*
G01X04119720Y-05063500D02*
X04130980Y-05061380D01*
X04143850Y-05055040D01*
X04151890Y-05044450D01*
X04155110Y-05029630D01*
X04151890Y-05014820D01*
X04142240Y-05002120D01*
X04127760Y-04995770D01*
X04111680Y-04995770D01*
X04102020Y-04991530D01*
X04093980Y-04980950D01*
X04090760Y-04966130D01*
X04095590Y-04951320D01*
X04106850Y-04940730D01*
X04119720Y-04936500D01*
X04132590Y-04940730D01*
X04143850Y-04951320D01*
X04148680Y-04966130D01*
X04145460Y-04980950D01*
X04137420Y-04991530D01*
X04127760Y-04995770D01*
X04111680Y-04995770D01*
X04097200Y-05002120D01*
X04087550Y-05014820D01*
X04084330Y-05029630D01*
X04087550Y-05044450D01*
X04095590Y-05055040D01*
X04108460Y-05061380D01*
X04119720Y-05063500D01*
G01X03828470Y-04063500D02*
X03828470Y-03936500D01*
X03868680Y-03936500D01*
X03881550Y-03942850D01*
X03889600Y-03951320D01*
X03892810Y-03968250D01*
X03889600Y-03985180D01*
X03879940Y-03995770D01*
X03868680Y-04002120D01*
X03828470Y-04002120D01*
G01X03868680Y-04002120D02*
X03892810Y-04063500D01*
G01X03959610Y-04010590D02*
X03970880Y-03995770D01*
X03980530Y-03987300D01*
X03993400Y-03983070D01*
X04004660Y-03987300D01*
X04012700Y-03995770D01*
X04019140Y-04008470D01*
X04020750Y-04023280D01*
X04019140Y-04035990D01*
X04012700Y-04048690D01*
X04003050Y-04059270D01*
X03991790Y-04063500D01*
X03978920Y-04059270D01*
X03967660Y-04046570D01*
X03961220Y-04027520D01*
X03959610Y-04006350D01*
X03962830Y-03978840D01*
X03967660Y-03964010D01*
X03975700Y-03949200D01*
X03986960Y-03938620D01*
X03998220Y-03936500D01*
X04009480Y-03940730D01*
X04017530Y-03951320D01*
G01X04116500Y-04063500D02*
X04119720Y-04035990D01*
X04124550Y-04012700D01*
X04130980Y-03991530D01*
X04139020Y-03968250D01*
X04151890Y-03936500D01*
X04087550Y-03936500D01*
G01X04245450Y-04000000D02*
G02X04245450Y-04000000I-00255270J0D01*
G01X03828470Y-03063500D02*
X03828470Y-02936500D01*
X03868680Y-02936500D01*
X03881550Y-02942850D01*
X03889600Y-02951320D01*
X03892810Y-02968250D01*
X03889600Y-02985180D01*
X03879940Y-02995770D01*
X03868680Y-03002120D01*
X03828470Y-03002120D01*
G01X03868680Y-03002120D02*
X03892810Y-03063500D01*
G01X03954790Y-03044450D02*
X03964440Y-03055040D01*
X03975700Y-03061380D01*
X03990180Y-03063500D01*
X04004660Y-03059270D01*
X04015920Y-03050800D01*
X04023960Y-03035990D01*
X04025570Y-03019050D01*
X04022350Y-03002120D01*
X04014310Y-02991530D01*
X04003050Y-02983070D01*
X03991790Y-02980950D01*
X03980530Y-02983070D01*
X03966050Y-02991530D01*
X03970880Y-02936500D01*
X04014310Y-02936500D01*
G01X04089150Y-03010590D02*
X04100420Y-02995770D01*
X04110070Y-02987300D01*
X04122940Y-02983070D01*
X04134200Y-02987300D01*
X04142240Y-02995770D01*
X04148680Y-03008470D01*
X04150290Y-03023280D01*
X04148680Y-03035990D01*
X04142240Y-03048690D01*
X04132590Y-03059270D01*
X04121330Y-03063500D01*
X04108460Y-03059270D01*
X04097200Y-03046570D01*
X04090760Y-03027520D01*
X04089150Y-03006350D01*
X04092370Y-02978840D01*
X04097200Y-02964010D01*
X04105240Y-02949200D01*
X04116500Y-02938620D01*
X04127760Y-02936500D01*
X04139020Y-02940730D01*
X04147070Y-02951320D01*
G01X04245450Y-03000000D02*
G02X04245450Y-03000000I-00255270J0D01*
G01X04245450Y-02000000D02*
G02X04245450Y-02000000I-00255270J0D01*
G01X03828470Y-02063500D02*
X03828470Y-01936500D01*
X03868680Y-01936500D01*
X03881550Y-01942850D01*
X03889600Y-01951320D01*
X03892810Y-01968250D01*
X03889600Y-01985180D01*
X03879940Y-01995770D01*
X03868680Y-02002120D01*
X03828470Y-02002120D01*
G01X03868680Y-02002120D02*
X03892810Y-02063500D01*
G01X04009480Y-02063500D02*
X04009480Y-01936500D01*
X03949960Y-02027520D01*
X04030400Y-02027520D01*
G01X04084330Y-02044450D02*
X04093980Y-02055040D01*
X04105240Y-02061380D01*
X04119720Y-02063500D01*
X04134200Y-02059270D01*
X04145460Y-02050800D01*
X04153500Y-02035990D01*
X04155110Y-02019050D01*
X04151890Y-02002120D01*
X04143850Y-01991530D01*
X04132590Y-01983070D01*
X04121330Y-01980950D01*
X04110070Y-01983070D01*
X04095590Y-01991530D01*
X04100420Y-01936500D01*
X04143850Y-01936500D01*
G01X03828470Y-01063500D02*
X03828470Y-00936500D01*
X03868680Y-00936500D01*
X03881550Y-00942850D01*
X03889600Y-00951320D01*
X03892810Y-00968250D01*
X03889600Y-00985180D01*
X03879940Y-00995770D01*
X03868680Y-01002120D01*
X03828470Y-01002120D01*
G01X03868680Y-01002120D02*
X03892810Y-01063500D01*
G01X03954790Y-01038100D02*
X03964440Y-01052920D01*
X03977310Y-01061380D01*
X03991790Y-01063500D01*
X04004660Y-01061380D01*
X04017530Y-01050800D01*
X04025570Y-01038100D01*
X04027180Y-01025400D01*
X04023960Y-01010590D01*
X04012700Y-01000000D01*
X04001440Y-00995770D01*
X03986960Y-00995770D01*
G01X04001440Y-00995770D02*
X04011090Y-00989420D01*
X04019140Y-00978840D01*
X04022350Y-00966130D01*
X04019140Y-00953430D01*
X04011090Y-00942850D01*
X03996610Y-00936500D01*
X03982140Y-00938620D01*
X03967660Y-00947080D01*
G01X04139020Y-01063500D02*
X04139020Y-00936500D01*
X04079500Y-01027520D01*
X04159940Y-01027520D01*
G01X04245450Y-01000000D02*
G02X04245450Y-01000000I-00255270J0D01*
G01X03828470Y-00063500D02*
X03828470Y00063500D01*
X03868680Y00063500D01*
X03881550Y00057150D01*
X03889600Y00048680D01*
X03892810Y00031750D01*
X03889600Y00014820D01*
X03879940Y00004230D01*
X03868680Y-00002120D01*
X03828470Y-00002120D01*
G01X03868680Y-00002120D02*
X03892810Y-00063500D01*
G01X03959610Y00042330D02*
X03969270Y00055030D01*
X03980530Y00061380D01*
X03993400Y00063500D01*
X04009480Y00059270D01*
X04020750Y00048680D01*
X04023960Y00035990D01*
X04022350Y00023280D01*
X04015920Y00012700D01*
X03983750Y-00008470D01*
X03969270Y-00023280D01*
X03959610Y-00044450D01*
X03956400Y-00063500D01*
X04023960Y-00063500D01*
G01X04084330Y-00038100D02*
X04093980Y-00052920D01*
X04106850Y-00061380D01*
X04121330Y-00063500D01*
X04134200Y-00061380D01*
X04147070Y-00050800D01*
X04155110Y-00038100D01*
X04156720Y-00025400D01*
X04153500Y-00010590D01*
X04142240Y0D01*
X04130980Y00004230D01*
X04116500Y00004230D01*
G01X04130980Y00004230D02*
X04140630Y00010580D01*
X04148680Y00021160D01*
X04151890Y00033870D01*
X04148680Y00046570D01*
X04140630Y00057150D01*
X04126150Y00063500D01*
X04111680Y00061380D01*
X04097200Y00052920D01*
G01X04245450Y0D02*
G02X04245450Y0I-00255270J0D01*
G01X04245450Y01000000D02*
G02X04245450Y01000000I-00255270J0D01*
G01X03828470Y00936500D02*
X03828470Y01063500D01*
X03868680Y01063500D01*
X03881550Y01057150D01*
X03889600Y01048680D01*
X03892810Y01031750D01*
X03889600Y01014820D01*
X03879940Y01004230D01*
X03868680Y00997880D01*
X03828470Y00997880D01*
G01X03868680Y00997880D02*
X03892810Y00936500D01*
G01X03990180Y00936500D02*
X03990180Y01063500D01*
X03970880Y01038100D01*
G01X03970880Y00936500D02*
X04009480Y00936500D01*
G01X04089150Y01042330D02*
X04098810Y01055030D01*
X04110070Y01061380D01*
X04122940Y01063500D01*
X04139020Y01059270D01*
X04150290Y01048680D01*
X04153500Y01035990D01*
X04151890Y01023280D01*
X04145460Y01012700D01*
X04113290Y00991530D01*
X04098810Y00976720D01*
X04089150Y00955550D01*
X04085940Y00936500D01*
X04153500Y00936500D01*
G54D13*
G01X-04298400Y02100000D02*
G03X-04298400Y02100000I-00101600J0D01*
G01X-03998400Y02100000D02*
G03X-03998400Y02100000I-00101600J0D01*
G01X-03698400Y02100000D02*
G03X-03698400Y02100000I-00101600J0D01*
G01X-03398400Y02100000D02*
G03X-03398400Y02100000I-00101600J0D01*
G01X-02798400Y02100000D02*
G03X-02798400Y02100000I-00101600J0D01*
G01X-03098400Y02100000D02*
G03X-03098400Y02100000I-00101600J0D01*
G01X-02198400Y02100000D02*
G03X-02198400Y02100000I-00101600J0D01*
G01X-02498400Y02100000D02*
G03X-02498400Y02100000I-00101600J0D01*
G01X-02298400Y03500000D02*
G03X-02298400Y03500000I-00101600J0D01*
G01X-01598400Y02100000D02*
G03X-01598400Y02100000I-00101600J0D01*
G01X-01898400Y02100000D02*
G03X-01898400Y02100000I-00101600J0D01*
G01X-01998400Y03500000D02*
G03X-01998400Y03500000I-00101600J0D01*
G01X-01698400Y03500000D02*
G03X-01698400Y03500000I-00101600J0D01*
G01X-00998400Y02100000D02*
G03X-00998400Y02100000I-00101600J0D01*
G01X-01298400Y02100000D02*
G03X-01298400Y02100000I-00101600J0D01*
G01X-01398400Y03500000D02*
G03X-01398400Y03500000I-00101600J0D01*
G01X-01098400Y03500000D02*
G03X-01098400Y03500000I-00101600J0D01*
G01X-00798400Y03500000D02*
G03X-00798400Y03500000I-00101600J0D01*
G01X-00498400Y03500000D02*
G03X-00498400Y03500000I-00101600J0D01*
G01X01951600Y02600000D02*
G03X01951600Y02600000I-00101600J0D01*
G01X02401600Y02600000D02*
G03X02401600Y02600000I-00101600J0D01*
M02*
