G04 ================== begin FILE IDENTIFICATION RECORD ==================*
G04 Layout Name:  sensor_board_routing.brd*
G04 Film Name:    Assembly_bot*
G04 File Format:  Gerber RS274X*
G04 File Origin:  Cadence Allegro 17.4-S017*
G04 Origin Date:  Fri Oct  1 12:49:59 2021*
G04 *
G04 Layer:  REF DES/ASSEMBLY_BOTTOM*
G04 Layer:  PACKAGE GEOMETRY/ASSEMBLY_BOTTOM*
G04 *
G04 Offset:    (0.0000 0.0000)*
G04 Mirror:    No*
G04 Mode:      Positive*
G04 Rotation:  0*
G04 FullContactRelief:  No*
G04 UndefLineWidth:     0.2500*
G04 ================== end FILE IDENTIFICATION RECORD ====================*
%FSAX35Y35*MOMM*%
%IR0*IPPOS*OFA0.00000B0.00000*MIA0B0*SFA1.00000B1.00000*%
%ADD10C,.2032*%
%ADD11C,.1524*%
%ADD12C,.25*%
G75*
%LPD*%
G75*
G54D10*
G01X01250000Y02377000D02*
G03X00869000Y01996000I0J-00381000D01*
G03X01250000Y01615000I00381000J0D01*
G03X01631000Y01996000I0J00381000D01*
G03X01250000Y02377000I-00381000J0D01*
G01X01895000Y02973000D02*
X01133000Y02973000D01*
G01X01133000Y02973000D02*
X01133000Y03227000D01*
G01X01133000Y03227000D02*
X01895000Y03227000D01*
G01X02227000Y03673000D02*
X00703000Y03673000D01*
G01X00703000Y03673000D02*
X00703000Y03927000D01*
G01X00703000Y03927000D02*
X02227000Y03927000D01*
G01X01895000Y03227000D02*
X01895000Y02973000D01*
G01X02661000Y02973000D02*
X02153000Y02973000D01*
G01X02153000Y02973000D02*
X02153000Y03227000D01*
G01X02227000Y03927000D02*
X02227000Y03673000D01*
G01X02153000Y03227000D02*
X02661000Y03227000D01*
G01X02661000Y03227000D02*
X02661000Y02973000D01*
G54D11*
G01X01824750Y02249880D02*
X01824750Y01843480D01*
G01X01824750Y01843480D02*
X02015250Y01843480D01*
G01X02015250Y01843480D02*
X02015250Y02249880D01*
G01X02015250Y02249880D02*
X01824750Y02249880D01*
G54D12*
G01X-06092490Y-06132270D02*
X-06021710Y-06225400D01*
G01X-06057100Y-06242330D02*
X-06057100Y-06115330D01*
G01X-06021710Y-06132270D02*
X-06092490Y-06225400D01*
G01X-06105360Y-06178830D02*
X-06008840Y-06178830D01*
G01X-06104930Y-06136500D02*
X-06104930Y-06263500D01*
X-06072760Y-06263500D01*
X-06059890Y-06257150D01*
X-06050240Y-06248680D01*
X-06042190Y-06235990D01*
X-06035760Y-06221160D01*
X-06034150Y-06200000D01*
X-06035760Y-06178830D01*
X-06042190Y-06164010D01*
X-06050240Y-06151310D01*
X-06059890Y-06142850D01*
X-06072760Y-06136500D01*
X-06104930Y-06136500D01*
G01X-05943220Y-06136500D02*
X-05940000Y-06164010D01*
X-05935170Y-06187300D01*
X-05928740Y-06208470D01*
X-05920700Y-06231750D01*
X-05907830Y-06263500D01*
X-05972170Y-06263500D01*
G01X-05810460Y-06136500D02*
X-05799200Y-06138620D01*
X-05786330Y-06144960D01*
X-05778290Y-06155550D01*
X-05775070Y-06170370D01*
X-05778290Y-06185180D01*
X-05787940Y-06197880D01*
X-05802420Y-06204230D01*
X-05818500Y-06204230D01*
X-05828160Y-06208470D01*
X-05836200Y-06219050D01*
X-05839420Y-06233870D01*
X-05834590Y-06248680D01*
X-05823330Y-06259270D01*
X-05810460Y-06263500D01*
X-05797590Y-06259270D01*
X-05786330Y-06248680D01*
X-05781500Y-06233870D01*
X-05784720Y-06219050D01*
X-05792760Y-06208470D01*
X-05802420Y-06204230D01*
X-05818500Y-06204230D01*
X-05832980Y-06197880D01*
X-05842630Y-06185180D01*
X-05845850Y-06170370D01*
X-05842630Y-06155550D01*
X-05834590Y-06144960D01*
X-05821720Y-06138620D01*
X-05810460Y-06136500D01*
G01X-06082500Y-06267500D02*
X-06082500Y-06132500D01*
G01X-05797500Y-06267500D02*
X-06082500Y-06267500D01*
G01X-06082500Y-06132500D02*
X-05797500Y-06132500D01*
G01X-06082500Y-06166250D02*
X-06048750Y-06132500D01*
G01X-06082500Y-06233750D02*
X-06048750Y-06267500D01*
G01X-06132500Y-06172500D02*
X-06082500Y-06172500D01*
G01X-06132500Y-06227500D02*
X-06132500Y-06172500D01*
G01X-06082500Y-06227500D02*
X-06132500Y-06227500D01*
G01X-06082500Y-06172500D02*
X-06082500Y-06227500D01*
G01X-06092490Y-05132270D02*
X-06021710Y-05225400D01*
G01X-06057100Y-05242330D02*
X-06057100Y-05115330D01*
G01X-06021710Y-05132270D02*
X-06092490Y-05225400D01*
G01X-06105360Y-05178830D02*
X-06008840Y-05178830D01*
G01X-06104930Y-05136500D02*
X-06104930Y-05263500D01*
X-06072760Y-05263500D01*
X-06059890Y-05257150D01*
X-06050240Y-05248680D01*
X-06042190Y-05235990D01*
X-06035760Y-05221160D01*
X-06034150Y-05200000D01*
X-06035760Y-05178830D01*
X-06042190Y-05164010D01*
X-06050240Y-05151310D01*
X-06059890Y-05142850D01*
X-06072760Y-05136500D01*
X-06104930Y-05136500D01*
G01X-05970570Y-05189410D02*
X-05959300Y-05204230D01*
X-05949650Y-05212700D01*
X-05936780Y-05216930D01*
X-05925520Y-05212700D01*
X-05917480Y-05204230D01*
X-05911040Y-05191530D01*
X-05909430Y-05176720D01*
X-05911040Y-05164010D01*
X-05917480Y-05151310D01*
X-05927130Y-05140730D01*
X-05938390Y-05136500D01*
X-05951260Y-05140730D01*
X-05962520Y-05153430D01*
X-05968960Y-05172480D01*
X-05970570Y-05193650D01*
X-05967350Y-05221160D01*
X-05962520Y-05235990D01*
X-05954480Y-05250800D01*
X-05943220Y-05261380D01*
X-05931960Y-05263500D01*
X-05920700Y-05259270D01*
X-05912650Y-05248680D01*
G01X-05813680Y-05136500D02*
X-05810460Y-05164010D01*
X-05805630Y-05187300D01*
X-05799200Y-05208470D01*
X-05791160Y-05231750D01*
X-05778290Y-05263500D01*
X-05842630Y-05263500D01*
G01X-06082500Y-05267500D02*
X-06082500Y-05132500D01*
G01X-05797500Y-05267500D02*
X-06082500Y-05267500D01*
G01X-06082500Y-05166250D02*
X-06048750Y-05132500D01*
G01X-06082500Y-05233750D02*
X-06048750Y-05267500D01*
G01X-06132500Y-05172500D02*
X-06082500Y-05172500D01*
G01X-06132500Y-05227500D02*
X-06132500Y-05172500D01*
G01X-06082500Y-05227500D02*
X-06132500Y-05227500D01*
G01X-06082500Y-05172500D02*
X-06082500Y-05227500D01*
G01X-06082500Y-05132500D02*
X-05797500Y-05132500D01*
G01X-06092490Y-04132270D02*
X-06021710Y-04225400D01*
G01X-06057100Y-04242330D02*
X-06057100Y-04115330D01*
G01X-06021710Y-04132270D02*
X-06092490Y-04225400D01*
G01X-06105360Y-04178830D02*
X-06008840Y-04178830D01*
G01X-06104930Y-04136500D02*
X-06104930Y-04263500D01*
X-06072760Y-04263500D01*
X-06059890Y-04257150D01*
X-06050240Y-04248680D01*
X-06042190Y-04235990D01*
X-06035760Y-04221160D01*
X-06034150Y-04200000D01*
X-06035760Y-04178830D01*
X-06042190Y-04164010D01*
X-06050240Y-04151310D01*
X-06059890Y-04142850D01*
X-06072760Y-04136500D01*
X-06104930Y-04136500D01*
G01X-05975390Y-04155550D02*
X-05965740Y-04144960D01*
X-05954480Y-04138620D01*
X-05940000Y-04136500D01*
X-05925520Y-04140730D01*
X-05914260Y-04149200D01*
X-05906220Y-04164010D01*
X-05904610Y-04180950D01*
X-05907830Y-04197880D01*
X-05915870Y-04208470D01*
X-05927130Y-04216930D01*
X-05938390Y-04219050D01*
X-05949650Y-04216930D01*
X-05964130Y-04208470D01*
X-05959300Y-04263500D01*
X-05915870Y-04263500D01*
G01X-05841030Y-04189410D02*
X-05829760Y-04204230D01*
X-05820110Y-04212700D01*
X-05807240Y-04216930D01*
X-05795980Y-04212700D01*
X-05787940Y-04204230D01*
X-05781500Y-04191530D01*
X-05779890Y-04176720D01*
X-05781500Y-04164010D01*
X-05787940Y-04151310D01*
X-05797590Y-04140730D01*
X-05808850Y-04136500D01*
X-05821720Y-04140730D01*
X-05832980Y-04153430D01*
X-05839420Y-04172480D01*
X-05841030Y-04193650D01*
X-05837810Y-04221160D01*
X-05832980Y-04235990D01*
X-05824940Y-04250800D01*
X-05813680Y-04261380D01*
X-05802420Y-04263500D01*
X-05791160Y-04259270D01*
X-05783110Y-04248680D01*
G01X-06082500Y-04267500D02*
X-06082500Y-04132500D01*
G01X-05797500Y-04267500D02*
X-06082500Y-04267500D01*
G01X-06082500Y-04132500D02*
X-05797500Y-04132500D01*
G01X-06082500Y-04166250D02*
X-06048750Y-04132500D01*
G01X-06082500Y-04233750D02*
X-06048750Y-04267500D01*
G01X-06132500Y-04172500D02*
X-06082500Y-04172500D01*
G01X-06132500Y-04227500D02*
X-06132500Y-04172500D01*
G01X-06082500Y-04227500D02*
X-06132500Y-04227500D01*
G01X-06082500Y-04172500D02*
X-06082500Y-04227500D01*
G01X-06092490Y-03132270D02*
X-06021710Y-03225400D01*
G01X-06057100Y-03242330D02*
X-06057100Y-03115330D01*
G01X-06021710Y-03132270D02*
X-06092490Y-03225400D01*
G01X-06105360Y-03178830D02*
X-06008840Y-03178830D01*
G01X-06104930Y-03136500D02*
X-06104930Y-03263500D01*
X-06072760Y-03263500D01*
X-06059890Y-03257150D01*
X-06050240Y-03248680D01*
X-06042190Y-03235990D01*
X-06035760Y-03221160D01*
X-06034150Y-03200000D01*
X-06035760Y-03178830D01*
X-06042190Y-03164010D01*
X-06050240Y-03151310D01*
X-06059890Y-03142850D01*
X-06072760Y-03136500D01*
X-06104930Y-03136500D01*
G01X-05920700Y-03136500D02*
X-05920700Y-03263500D01*
X-05980220Y-03172480D01*
X-05899780Y-03172480D01*
G01X-05845850Y-03155550D02*
X-05836200Y-03144960D01*
X-05824940Y-03138620D01*
X-05810460Y-03136500D01*
X-05795980Y-03140730D01*
X-05784720Y-03149200D01*
X-05776680Y-03164010D01*
X-05775070Y-03180950D01*
X-05778290Y-03197880D01*
X-05786330Y-03208470D01*
X-05797590Y-03216930D01*
X-05808850Y-03219050D01*
X-05820110Y-03216930D01*
X-05834590Y-03208470D01*
X-05829760Y-03263500D01*
X-05786330Y-03263500D01*
G01X-06082500Y-03267500D02*
X-06082500Y-03132500D01*
G01X-05797500Y-03267500D02*
X-06082500Y-03267500D01*
G01X-06082500Y-03132500D02*
X-05797500Y-03132500D01*
G01X-06082500Y-03166250D02*
X-06048750Y-03132500D01*
G01X-06082500Y-03233750D02*
X-06048750Y-03267500D01*
G01X-06132500Y-03172500D02*
X-06082500Y-03172500D01*
G01X-06132500Y-03227500D02*
X-06132500Y-03172500D01*
G01X-06082500Y-03227500D02*
X-06132500Y-03227500D01*
G01X-06082500Y-03172500D02*
X-06082500Y-03227500D01*
G01X-06092490Y-02132270D02*
X-06021710Y-02225400D01*
G01X-06057100Y-02242330D02*
X-06057100Y-02115330D01*
G01X-06021710Y-02132270D02*
X-06092490Y-02225400D01*
G01X-06105360Y-02178830D02*
X-06008840Y-02178830D01*
G01X-06104930Y-02136500D02*
X-06104930Y-02263500D01*
X-06072760Y-02263500D01*
X-06059890Y-02257150D01*
X-06050240Y-02248680D01*
X-06042190Y-02235990D01*
X-06035760Y-02221160D01*
X-06034150Y-02200000D01*
X-06035760Y-02178830D01*
X-06042190Y-02164010D01*
X-06050240Y-02151310D01*
X-06059890Y-02142850D01*
X-06072760Y-02136500D01*
X-06104930Y-02136500D01*
G01X-05975390Y-02161900D02*
X-05965740Y-02147080D01*
X-05952870Y-02138620D01*
X-05938390Y-02136500D01*
X-05925520Y-02138620D01*
X-05912650Y-02149200D01*
X-05904610Y-02161900D01*
X-05903000Y-02174600D01*
X-05906220Y-02189410D01*
X-05917480Y-02200000D01*
X-05928740Y-02204230D01*
X-05943220Y-02204230D01*
G01X-05928740Y-02204230D02*
X-05919090Y-02210580D01*
X-05911040Y-02221160D01*
X-05907830Y-02233870D01*
X-05911040Y-02246570D01*
X-05919090Y-02257150D01*
X-05933570Y-02263500D01*
X-05948040Y-02261380D01*
X-05962520Y-02252920D01*
G01X-05791160Y-02136500D02*
X-05791160Y-02263500D01*
X-05850680Y-02172480D01*
X-05770240Y-02172480D01*
G01X-06082500Y-02267500D02*
X-06082500Y-02132500D01*
G01X-05797500Y-02267500D02*
X-06082500Y-02267500D01*
G01X-06082500Y-02233750D02*
X-06048750Y-02267500D01*
G01X-06132500Y-02227500D02*
X-06132500Y-02172500D01*
G01X-06082500Y-02227500D02*
X-06132500Y-02227500D01*
G01X-06082500Y-02172500D02*
X-06082500Y-02227500D01*
G01X-06082500Y-02132500D02*
X-05797500Y-02132500D01*
G01X-06082500Y-02166250D02*
X-06048750Y-02132500D01*
G01X-06132500Y-02172500D02*
X-06082500Y-02172500D01*
G01X-06092490Y-01132270D02*
X-06021710Y-01225400D01*
G01X-06057100Y-01242330D02*
X-06057100Y-01115330D01*
G01X-06021710Y-01132270D02*
X-06092490Y-01225400D01*
G01X-06105360Y-01178830D02*
X-06008840Y-01178830D01*
G01X-06104930Y-01136500D02*
X-06104930Y-01263500D01*
X-06072760Y-01263500D01*
X-06059890Y-01257150D01*
X-06050240Y-01248680D01*
X-06042190Y-01235990D01*
X-06035760Y-01221160D01*
X-06034150Y-01200000D01*
X-06035760Y-01178830D01*
X-06042190Y-01164010D01*
X-06050240Y-01151310D01*
X-06059890Y-01142850D01*
X-06072760Y-01136500D01*
X-06104930Y-01136500D01*
G01X-05970570Y-01242330D02*
X-05960910Y-01255030D01*
X-05949650Y-01261380D01*
X-05936780Y-01263500D01*
X-05920700Y-01259270D01*
X-05909430Y-01248680D01*
X-05906220Y-01235990D01*
X-05907830Y-01223280D01*
X-05914260Y-01212700D01*
X-05946430Y-01191530D01*
X-05960910Y-01176720D01*
X-05970570Y-01155550D01*
X-05973780Y-01136500D01*
X-05906220Y-01136500D01*
G01X-05845850Y-01161900D02*
X-05836200Y-01147080D01*
X-05823330Y-01138620D01*
X-05808850Y-01136500D01*
X-05795980Y-01138620D01*
X-05783110Y-01149200D01*
X-05775070Y-01161900D01*
X-05773460Y-01174600D01*
X-05776680Y-01189410D01*
X-05787940Y-01200000D01*
X-05799200Y-01204230D01*
X-05813680Y-01204230D01*
G01X-05799200Y-01204230D02*
X-05789550Y-01210580D01*
X-05781500Y-01221160D01*
X-05778290Y-01233870D01*
X-05781500Y-01246570D01*
X-05789550Y-01257150D01*
X-05804030Y-01263500D01*
X-05818500Y-01261380D01*
X-05832980Y-01252920D01*
G01X-06082500Y-01267500D02*
X-06082500Y-01132500D01*
G01X-05797500Y-01267500D02*
X-06082500Y-01267500D01*
G01X-06082500Y-01132500D02*
X-05797500Y-01132500D01*
G01X-06082500Y-01166250D02*
X-06048750Y-01132500D01*
G01X-06082500Y-01233750D02*
X-06048750Y-01267500D01*
G01X-06132500Y-01172500D02*
X-06082500Y-01172500D01*
G01X-06132500Y-01227500D02*
X-06132500Y-01172500D01*
G01X-06082500Y-01227500D02*
X-06132500Y-01227500D01*
G01X-06082500Y-01172500D02*
X-06082500Y-01227500D01*
G01X-06092490Y-00132270D02*
X-06021710Y-00225400D01*
G01X-06057100Y-00242330D02*
X-06057100Y-00115330D01*
G01X-06021710Y-00132270D02*
X-06092490Y-00225400D01*
G01X-06105360Y-00178830D02*
X-06008840Y-00178830D01*
G01X-06104930Y-00136500D02*
X-06104930Y-00263500D01*
X-06072760Y-00263500D01*
X-06059890Y-00257150D01*
X-06050240Y-00248680D01*
X-06042190Y-00235990D01*
X-06035760Y-00221160D01*
X-06034150Y-00200000D01*
X-06035760Y-00178830D01*
X-06042190Y-00164010D01*
X-06050240Y-00151310D01*
X-06059890Y-00142850D01*
X-06072760Y-00136500D01*
X-06104930Y-00136500D01*
G01X-05940000Y-00136500D02*
X-05940000Y-00263500D01*
X-05959300Y-00238100D01*
G01X-05959300Y-00136500D02*
X-05920700Y-00136500D01*
G01X-05841030Y-00242330D02*
X-05831370Y-00255030D01*
X-05820110Y-00261380D01*
X-05807240Y-00263500D01*
X-05791160Y-00259270D01*
X-05779890Y-00248680D01*
X-05776680Y-00235990D01*
X-05778290Y-00223280D01*
X-05784720Y-00212700D01*
X-05816890Y-00191530D01*
X-05831370Y-00176720D01*
X-05841030Y-00155550D01*
X-05844240Y-00136500D01*
X-05776680Y-00136500D01*
G01X-06082500Y-00267500D02*
X-06082500Y-00132500D01*
G01X-05797500Y-00267500D02*
X-06082500Y-00267500D01*
G01X-06082500Y-00132500D02*
X-05797500Y-00132500D01*
G01X-06082500Y-00166250D02*
X-06048750Y-00132500D01*
G01X-06082500Y-00233750D02*
X-06048750Y-00267500D01*
G01X-06132500Y-00172500D02*
X-06082500Y-00172500D01*
G01X-06132500Y-00227500D02*
X-06132500Y-00172500D01*
G01X-06082500Y-00227500D02*
X-06132500Y-00227500D01*
G01X-06082500Y-00172500D02*
X-06082500Y-00227500D01*
G01X-06040160Y00863500D02*
X-06040160Y00736500D01*
X-06007990Y00736500D01*
X-05995120Y00742850D01*
X-05985470Y00751320D01*
X-05977420Y00764010D01*
X-05970990Y00778840D01*
X-05969380Y00800000D01*
X-05970990Y00821170D01*
X-05977420Y00835990D01*
X-05985470Y00848690D01*
X-05995120Y00857150D01*
X-06007990Y00863500D01*
X-06040160Y00863500D01*
G01X-05875230Y00863500D02*
X-05875230Y00736500D01*
X-05894530Y00761900D01*
G01X-05894530Y00863500D02*
X-05855930Y00863500D01*
G01X-06082500Y00732500D02*
X-06082500Y00867500D01*
G01X-05797500Y00732500D02*
X-06082500Y00732500D01*
G01X-06082500Y00766250D02*
X-06048750Y00732500D01*
G01X-06132500Y00772500D02*
X-06132500Y00827500D01*
G01X-06082500Y00772500D02*
X-06132500Y00772500D01*
G01X-06082500Y00827500D02*
X-06082500Y00772500D01*
G01X-06082500Y00867500D02*
X-05797500Y00867500D01*
G01X-06082500Y00833750D02*
X-06048750Y00867500D01*
G01X-06132500Y00827500D02*
X-06082500Y00827500D01*
G01X-05797500Y-06132500D02*
X-05797500Y-06267500D01*
G01X-05747500Y-06227500D02*
X-05797500Y-06227500D01*
G01X-05747500Y-06172500D02*
X-05747500Y-06227500D01*
G01X-05797500Y-06172500D02*
X-05747500Y-06172500D01*
G01X-05797500Y-06227500D02*
X-05797500Y-06172500D01*
G01X-05797500Y-05132500D02*
X-05797500Y-05267500D01*
G01X-05747500Y-05227500D02*
X-05797500Y-05227500D01*
G01X-05747500Y-05172500D02*
X-05747500Y-05227500D01*
G01X-05797500Y-05172500D02*
X-05747500Y-05172500D01*
G01X-05797500Y-05227500D02*
X-05797500Y-05172500D01*
G01X-05797500Y-04132500D02*
X-05797500Y-04267500D01*
G01X-05747500Y-04227500D02*
X-05797500Y-04227500D01*
G01X-05747500Y-04172500D02*
X-05747500Y-04227500D01*
G01X-05797500Y-04172500D02*
X-05747500Y-04172500D01*
G01X-05797500Y-04227500D02*
X-05797500Y-04172500D01*
G01X-05797500Y-03132500D02*
X-05797500Y-03267500D01*
G01X-05747500Y-03227500D02*
X-05797500Y-03227500D01*
G01X-05747500Y-03172500D02*
X-05747500Y-03227500D01*
G01X-05797500Y-03172500D02*
X-05747500Y-03172500D01*
G01X-05797500Y-03227500D02*
X-05797500Y-03172500D01*
G01X-05797500Y-02132500D02*
X-05797500Y-02267500D01*
G01X-05747500Y-02227500D02*
X-05797500Y-02227500D01*
G01X-05747500Y-02172500D02*
X-05747500Y-02227500D01*
G01X-05797500Y-02227500D02*
X-05797500Y-02172500D01*
G01X-05797500Y-02172500D02*
X-05747500Y-02172500D01*
G01X-05797500Y-01132500D02*
X-05797500Y-01267500D01*
G01X-05747500Y-01227500D02*
X-05797500Y-01227500D01*
G01X-05747500Y-01172500D02*
X-05747500Y-01227500D01*
G01X-05797500Y-01172500D02*
X-05747500Y-01172500D01*
G01X-05797500Y-01227500D02*
X-05797500Y-01172500D01*
G01X-05797500Y-00132500D02*
X-05797500Y-00267500D01*
G01X-05747500Y-00227500D02*
X-05797500Y-00227500D01*
G01X-05747500Y-00172500D02*
X-05747500Y-00227500D01*
G01X-05797500Y-00172500D02*
X-05747500Y-00172500D01*
G01X-05797500Y-00227500D02*
X-05797500Y-00172500D01*
G01X-05797500Y00867500D02*
X-05797500Y00732500D01*
G01X-05747500Y00772500D02*
X-05797500Y00772500D01*
G01X-05747500Y00827500D02*
X-05747500Y00772500D01*
G01X-05797500Y00772500D02*
X-05797500Y00827500D01*
G01X-05797500Y00827500D02*
X-05747500Y00827500D01*
G01X-05092490Y-06132270D02*
X-05021710Y-06225400D01*
G01X-05057100Y-06242330D02*
X-05057100Y-06115330D01*
G01X-05021710Y-06132270D02*
X-05092490Y-06225400D01*
G01X-05105360Y-06178830D02*
X-05008840Y-06178830D01*
G01X-05104930Y-06136500D02*
X-05104930Y-06263500D01*
X-05072760Y-06263500D01*
X-05059890Y-06257150D01*
X-05050240Y-06248680D01*
X-05042190Y-06235990D01*
X-05035760Y-06221160D01*
X-05034150Y-06200000D01*
X-05035760Y-06178830D01*
X-05042190Y-06164010D01*
X-05050240Y-06151310D01*
X-05059890Y-06142850D01*
X-05072760Y-06136500D01*
X-05104930Y-06136500D01*
G01X-04943220Y-06136500D02*
X-04940000Y-06164010D01*
X-04935170Y-06187300D01*
X-04928740Y-06208470D01*
X-04920700Y-06231750D01*
X-04907830Y-06263500D01*
X-04972170Y-06263500D01*
G01X-04837810Y-06151310D02*
X-04826550Y-06140730D01*
X-04813680Y-06136500D01*
X-04800810Y-06140730D01*
X-04789550Y-06153430D01*
X-04781500Y-06172480D01*
X-04778290Y-06191530D01*
X-04778290Y-06214820D01*
X-04781500Y-06233870D01*
X-04789550Y-06250800D01*
X-04799200Y-06259270D01*
X-04810460Y-06263500D01*
X-04823330Y-06259270D01*
X-04832980Y-06250800D01*
X-04839420Y-06238100D01*
X-04842630Y-06221160D01*
X-04839420Y-06206350D01*
X-04831370Y-06191530D01*
X-04821720Y-06183060D01*
X-04810460Y-06180950D01*
X-04797590Y-06185180D01*
X-04787940Y-06195770D01*
X-04778290Y-06214820D01*
G01X-05082500Y-06267500D02*
X-05082500Y-06132500D01*
G01X-04797500Y-06267500D02*
X-05082500Y-06267500D01*
G01X-04797500Y-06132500D02*
X-04797500Y-06267500D01*
G01X-05082500Y-06132500D02*
X-04797500Y-06132500D01*
G01X-05082500Y-06166250D02*
X-05048750Y-06132500D01*
G01X-05082500Y-06233750D02*
X-05048750Y-06267500D01*
G01X-04747500Y-06227500D02*
X-04797500Y-06227500D01*
G01X-04747500Y-06172500D02*
X-04747500Y-06227500D01*
G01X-04797500Y-06172500D02*
X-04747500Y-06172500D01*
G01X-04797500Y-06227500D02*
X-04797500Y-06172500D01*
G01X-05132500Y-06172500D02*
X-05082500Y-06172500D01*
G01X-05132500Y-06227500D02*
X-05132500Y-06172500D01*
G01X-05082500Y-06227500D02*
X-05132500Y-06227500D01*
G01X-05082500Y-06172500D02*
X-05082500Y-06227500D01*
G01X-05092490Y-05132270D02*
X-05021710Y-05225400D01*
G01X-05057100Y-05242330D02*
X-05057100Y-05115330D01*
G01X-05021710Y-05132270D02*
X-05092490Y-05225400D01*
G01X-05105360Y-05178830D02*
X-05008840Y-05178830D01*
G01X-05104930Y-05136500D02*
X-05104930Y-05263500D01*
X-05072760Y-05263500D01*
X-05059890Y-05257150D01*
X-05050240Y-05248680D01*
X-05042190Y-05235990D01*
X-05035760Y-05221160D01*
X-05034150Y-05200000D01*
X-05035760Y-05178830D01*
X-05042190Y-05164010D01*
X-05050240Y-05151310D01*
X-05059890Y-05142850D01*
X-05072760Y-05136500D01*
X-05104930Y-05136500D01*
G01X-04970570Y-05189410D02*
X-04959300Y-05204230D01*
X-04949650Y-05212700D01*
X-04936780Y-05216930D01*
X-04925520Y-05212700D01*
X-04917480Y-05204230D01*
X-04911040Y-05191530D01*
X-04909430Y-05176720D01*
X-04911040Y-05164010D01*
X-04917480Y-05151310D01*
X-04927130Y-05140730D01*
X-04938390Y-05136500D01*
X-04951260Y-05140730D01*
X-04962520Y-05153430D01*
X-04968960Y-05172480D01*
X-04970570Y-05193650D01*
X-04967350Y-05221160D01*
X-04962520Y-05235990D01*
X-04954480Y-05250800D01*
X-04943220Y-05261380D01*
X-04931960Y-05263500D01*
X-04920700Y-05259270D01*
X-04912650Y-05248680D01*
G01X-04810460Y-05136500D02*
X-04799200Y-05138620D01*
X-04786330Y-05144960D01*
X-04778290Y-05155550D01*
X-04775070Y-05170370D01*
X-04778290Y-05185180D01*
X-04787940Y-05197880D01*
X-04802420Y-05204230D01*
X-04818500Y-05204230D01*
X-04828160Y-05208470D01*
X-04836200Y-05219050D01*
X-04839420Y-05233870D01*
X-04834590Y-05248680D01*
X-04823330Y-05259270D01*
X-04810460Y-05263500D01*
X-04797590Y-05259270D01*
X-04786330Y-05248680D01*
X-04781500Y-05233870D01*
X-04784720Y-05219050D01*
X-04792760Y-05208470D01*
X-04802420Y-05204230D01*
X-04818500Y-05204230D01*
X-04832980Y-05197880D01*
X-04842630Y-05185180D01*
X-04845850Y-05170370D01*
X-04842630Y-05155550D01*
X-04834590Y-05144960D01*
X-04821720Y-05138620D01*
X-04810460Y-05136500D01*
G01X-05082500Y-05267500D02*
X-05082500Y-05132500D01*
G01X-04797500Y-05267500D02*
X-05082500Y-05267500D01*
G01X-04797500Y-05132500D02*
X-04797500Y-05267500D01*
G01X-05082500Y-05166250D02*
X-05048750Y-05132500D01*
G01X-05082500Y-05233750D02*
X-05048750Y-05267500D01*
G01X-04747500Y-05227500D02*
X-04797500Y-05227500D01*
G01X-04747500Y-05172500D02*
X-04747500Y-05227500D01*
G01X-04797500Y-05172500D02*
X-04747500Y-05172500D01*
G01X-04797500Y-05227500D02*
X-04797500Y-05172500D01*
G01X-05132500Y-05172500D02*
X-05082500Y-05172500D01*
G01X-05132500Y-05227500D02*
X-05132500Y-05172500D01*
G01X-05082500Y-05227500D02*
X-05132500Y-05227500D01*
G01X-05082500Y-05172500D02*
X-05082500Y-05227500D01*
G01X-05082500Y-05132500D02*
X-04797500Y-05132500D01*
G01X-05092490Y-04132270D02*
X-05021710Y-04225400D01*
G01X-05057100Y-04242330D02*
X-05057100Y-04115330D01*
G01X-05021710Y-04132270D02*
X-05092490Y-04225400D01*
G01X-05105360Y-04178830D02*
X-05008840Y-04178830D01*
G01X-05104930Y-04136500D02*
X-05104930Y-04263500D01*
X-05072760Y-04263500D01*
X-05059890Y-04257150D01*
X-05050240Y-04248680D01*
X-05042190Y-04235990D01*
X-05035760Y-04221160D01*
X-05034150Y-04200000D01*
X-05035760Y-04178830D01*
X-05042190Y-04164010D01*
X-05050240Y-04151310D01*
X-05059890Y-04142850D01*
X-05072760Y-04136500D01*
X-05104930Y-04136500D01*
G01X-04975390Y-04155550D02*
X-04965740Y-04144960D01*
X-04954480Y-04138620D01*
X-04940000Y-04136500D01*
X-04925520Y-04140730D01*
X-04914260Y-04149200D01*
X-04906220Y-04164010D01*
X-04904610Y-04180950D01*
X-04907830Y-04197880D01*
X-04915870Y-04208470D01*
X-04927130Y-04216930D01*
X-04938390Y-04219050D01*
X-04949650Y-04216930D01*
X-04964130Y-04208470D01*
X-04959300Y-04263500D01*
X-04915870Y-04263500D01*
G01X-04813680Y-04136500D02*
X-04810460Y-04164010D01*
X-04805630Y-04187300D01*
X-04799200Y-04208470D01*
X-04791160Y-04231750D01*
X-04778290Y-04263500D01*
X-04842630Y-04263500D01*
G01X-05082500Y-04267500D02*
X-05082500Y-04132500D01*
G01X-04797500Y-04267500D02*
X-05082500Y-04267500D01*
G01X-04797500Y-04132500D02*
X-04797500Y-04267500D01*
G01X-05082500Y-04132500D02*
X-04797500Y-04132500D01*
G01X-05082500Y-04166250D02*
X-05048750Y-04132500D01*
G01X-05082500Y-04233750D02*
X-05048750Y-04267500D01*
G01X-04747500Y-04227500D02*
X-04797500Y-04227500D01*
G01X-04747500Y-04172500D02*
X-04747500Y-04227500D01*
G01X-04797500Y-04172500D02*
X-04747500Y-04172500D01*
G01X-04797500Y-04227500D02*
X-04797500Y-04172500D01*
G01X-05132500Y-04172500D02*
X-05082500Y-04172500D01*
G01X-05132500Y-04227500D02*
X-05132500Y-04172500D01*
G01X-05082500Y-04227500D02*
X-05132500Y-04227500D01*
G01X-05082500Y-04172500D02*
X-05082500Y-04227500D01*
G01X-05092490Y-03132270D02*
X-05021710Y-03225400D01*
G01X-05057100Y-03242330D02*
X-05057100Y-03115330D01*
G01X-05021710Y-03132270D02*
X-05092490Y-03225400D01*
G01X-05105360Y-03178830D02*
X-05008840Y-03178830D01*
G01X-05104930Y-03136500D02*
X-05104930Y-03263500D01*
X-05072760Y-03263500D01*
X-05059890Y-03257150D01*
X-05050240Y-03248680D01*
X-05042190Y-03235990D01*
X-05035760Y-03221160D01*
X-05034150Y-03200000D01*
X-05035760Y-03178830D01*
X-05042190Y-03164010D01*
X-05050240Y-03151310D01*
X-05059890Y-03142850D01*
X-05072760Y-03136500D01*
X-05104930Y-03136500D01*
G01X-04920700Y-03136500D02*
X-04920700Y-03263500D01*
X-04980220Y-03172480D01*
X-04899780Y-03172480D01*
G01X-04841030Y-03189410D02*
X-04829760Y-03204230D01*
X-04820110Y-03212700D01*
X-04807240Y-03216930D01*
X-04795980Y-03212700D01*
X-04787940Y-03204230D01*
X-04781500Y-03191530D01*
X-04779890Y-03176720D01*
X-04781500Y-03164010D01*
X-04787940Y-03151310D01*
X-04797590Y-03140730D01*
X-04808850Y-03136500D01*
X-04821720Y-03140730D01*
X-04832980Y-03153430D01*
X-04839420Y-03172480D01*
X-04841030Y-03193650D01*
X-04837810Y-03221160D01*
X-04832980Y-03235990D01*
X-04824940Y-03250800D01*
X-04813680Y-03261380D01*
X-04802420Y-03263500D01*
X-04791160Y-03259270D01*
X-04783110Y-03248680D01*
G01X-05082500Y-03267500D02*
X-05082500Y-03132500D01*
G01X-04797500Y-03267500D02*
X-05082500Y-03267500D01*
G01X-04797500Y-03132500D02*
X-04797500Y-03267500D01*
G01X-05082500Y-03132500D02*
X-04797500Y-03132500D01*
G01X-05082500Y-03166250D02*
X-05048750Y-03132500D01*
G01X-05082500Y-03233750D02*
X-05048750Y-03267500D01*
G01X-04747500Y-03227500D02*
X-04797500Y-03227500D01*
G01X-04747500Y-03172500D02*
X-04747500Y-03227500D01*
G01X-04797500Y-03172500D02*
X-04747500Y-03172500D01*
G01X-04797500Y-03227500D02*
X-04797500Y-03172500D01*
G01X-05132500Y-03172500D02*
X-05082500Y-03172500D01*
G01X-05132500Y-03227500D02*
X-05132500Y-03172500D01*
G01X-05082500Y-03227500D02*
X-05132500Y-03227500D01*
G01X-05082500Y-03172500D02*
X-05082500Y-03227500D01*
G01X-05092490Y-02132270D02*
X-05021710Y-02225400D01*
G01X-05057100Y-02242330D02*
X-05057100Y-02115330D01*
G01X-05021710Y-02132270D02*
X-05092490Y-02225400D01*
G01X-05105360Y-02178830D02*
X-05008840Y-02178830D01*
G01X-05104930Y-02136500D02*
X-05104930Y-02263500D01*
X-05072760Y-02263500D01*
X-05059890Y-02257150D01*
X-05050240Y-02248680D01*
X-05042190Y-02235990D01*
X-05035760Y-02221160D01*
X-05034150Y-02200000D01*
X-05035760Y-02178830D01*
X-05042190Y-02164010D01*
X-05050240Y-02151310D01*
X-05059890Y-02142850D01*
X-05072760Y-02136500D01*
X-05104930Y-02136500D01*
G01X-04975390Y-02161900D02*
X-04965740Y-02147080D01*
X-04952870Y-02138620D01*
X-04938390Y-02136500D01*
X-04925520Y-02138620D01*
X-04912650Y-02149200D01*
X-04904610Y-02161900D01*
X-04903000Y-02174600D01*
X-04906220Y-02189410D01*
X-04917480Y-02200000D01*
X-04928740Y-02204230D01*
X-04943220Y-02204230D01*
G01X-04928740Y-02204230D02*
X-04919090Y-02210580D01*
X-04911040Y-02221160D01*
X-04907830Y-02233870D01*
X-04911040Y-02246570D01*
X-04919090Y-02257150D01*
X-04933570Y-02263500D01*
X-04948040Y-02261380D01*
X-04962520Y-02252920D01*
G01X-04845850Y-02155550D02*
X-04836200Y-02144960D01*
X-04824940Y-02138620D01*
X-04810460Y-02136500D01*
X-04795980Y-02140730D01*
X-04784720Y-02149200D01*
X-04776680Y-02164010D01*
X-04775070Y-02180950D01*
X-04778290Y-02197880D01*
X-04786330Y-02208470D01*
X-04797590Y-02216930D01*
X-04808850Y-02219050D01*
X-04820110Y-02216930D01*
X-04834590Y-02208470D01*
X-04829760Y-02263500D01*
X-04786330Y-02263500D01*
G01X-05082500Y-02267500D02*
X-05082500Y-02132500D01*
G01X-04797500Y-02267500D02*
X-05082500Y-02267500D01*
G01X-04797500Y-02132500D02*
X-04797500Y-02267500D01*
G01X-05082500Y-02233750D02*
X-05048750Y-02267500D01*
G01X-04747500Y-02227500D02*
X-04797500Y-02227500D01*
G01X-04747500Y-02172500D02*
X-04747500Y-02227500D01*
G01X-04797500Y-02227500D02*
X-04797500Y-02172500D01*
G01X-05132500Y-02227500D02*
X-05132500Y-02172500D01*
G01X-05082500Y-02227500D02*
X-05132500Y-02227500D01*
G01X-05082500Y-02172500D02*
X-05082500Y-02227500D01*
G01X-05082500Y-02132500D02*
X-04797500Y-02132500D01*
G01X-05082500Y-02166250D02*
X-05048750Y-02132500D01*
G01X-04797500Y-02172500D02*
X-04747500Y-02172500D01*
G01X-05132500Y-02172500D02*
X-05082500Y-02172500D01*
G01X-05092490Y-01132270D02*
X-05021710Y-01225400D01*
G01X-05057100Y-01242330D02*
X-05057100Y-01115330D01*
G01X-05021710Y-01132270D02*
X-05092490Y-01225400D01*
G01X-05105360Y-01178830D02*
X-05008840Y-01178830D01*
G01X-05104930Y-01136500D02*
X-05104930Y-01263500D01*
X-05072760Y-01263500D01*
X-05059890Y-01257150D01*
X-05050240Y-01248680D01*
X-05042190Y-01235990D01*
X-05035760Y-01221160D01*
X-05034150Y-01200000D01*
X-05035760Y-01178830D01*
X-05042190Y-01164010D01*
X-05050240Y-01151310D01*
X-05059890Y-01142850D01*
X-05072760Y-01136500D01*
X-05104930Y-01136500D01*
G01X-04970570Y-01242330D02*
X-04960910Y-01255030D01*
X-04949650Y-01261380D01*
X-04936780Y-01263500D01*
X-04920700Y-01259270D01*
X-04909430Y-01248680D01*
X-04906220Y-01235990D01*
X-04907830Y-01223280D01*
X-04914260Y-01212700D01*
X-04946430Y-01191530D01*
X-04960910Y-01176720D01*
X-04970570Y-01155550D01*
X-04973780Y-01136500D01*
X-04906220Y-01136500D01*
G01X-04791160Y-01136500D02*
X-04791160Y-01263500D01*
X-04850680Y-01172480D01*
X-04770240Y-01172480D01*
G01X-05082500Y-01267500D02*
X-05082500Y-01132500D01*
G01X-04797500Y-01267500D02*
X-05082500Y-01267500D01*
G01X-04797500Y-01132500D02*
X-04797500Y-01267500D01*
G01X-05082500Y-01132500D02*
X-04797500Y-01132500D01*
G01X-05082500Y-01166250D02*
X-05048750Y-01132500D01*
G01X-05082500Y-01233750D02*
X-05048750Y-01267500D01*
G01X-04747500Y-01227500D02*
X-04797500Y-01227500D01*
G01X-04747500Y-01172500D02*
X-04747500Y-01227500D01*
G01X-04797500Y-01172500D02*
X-04747500Y-01172500D01*
G01X-04797500Y-01227500D02*
X-04797500Y-01172500D01*
G01X-05132500Y-01172500D02*
X-05082500Y-01172500D01*
G01X-05132500Y-01227500D02*
X-05132500Y-01172500D01*
G01X-05082500Y-01227500D02*
X-05132500Y-01227500D01*
G01X-05082500Y-01172500D02*
X-05082500Y-01227500D01*
G01X-05092490Y-00132270D02*
X-05021710Y-00225400D01*
G01X-05057100Y-00242330D02*
X-05057100Y-00115330D01*
G01X-05021710Y-00132270D02*
X-05092490Y-00225400D01*
G01X-05105360Y-00178830D02*
X-05008840Y-00178830D01*
G01X-05104930Y-00136500D02*
X-05104930Y-00263500D01*
X-05072760Y-00263500D01*
X-05059890Y-00257150D01*
X-05050240Y-00248680D01*
X-05042190Y-00235990D01*
X-05035760Y-00221160D01*
X-05034150Y-00200000D01*
X-05035760Y-00178830D01*
X-05042190Y-00164010D01*
X-05050240Y-00151310D01*
X-05059890Y-00142850D01*
X-05072760Y-00136500D01*
X-05104930Y-00136500D01*
G01X-04940000Y-00136500D02*
X-04940000Y-00263500D01*
X-04959300Y-00238100D01*
G01X-04959300Y-00136500D02*
X-04920700Y-00136500D01*
G01X-04845850Y-00161900D02*
X-04836200Y-00147080D01*
X-04823330Y-00138620D01*
X-04808850Y-00136500D01*
X-04795980Y-00138620D01*
X-04783110Y-00149200D01*
X-04775070Y-00161900D01*
X-04773460Y-00174600D01*
X-04776680Y-00189410D01*
X-04787940Y-00200000D01*
X-04799200Y-00204230D01*
X-04813680Y-00204230D01*
G01X-04799200Y-00204230D02*
X-04789550Y-00210580D01*
X-04781500Y-00221160D01*
X-04778290Y-00233870D01*
X-04781500Y-00246570D01*
X-04789550Y-00257150D01*
X-04804030Y-00263500D01*
X-04818500Y-00261380D01*
X-04832980Y-00252920D01*
G01X-05082500Y-00267500D02*
X-05082500Y-00132500D01*
G01X-04797500Y-00267500D02*
X-05082500Y-00267500D01*
G01X-04797500Y-00132500D02*
X-04797500Y-00267500D01*
G01X-05082500Y-00132500D02*
X-04797500Y-00132500D01*
G01X-05082500Y-00166250D02*
X-05048750Y-00132500D01*
G01X-05082500Y-00233750D02*
X-05048750Y-00267500D01*
G01X-04747500Y-00227500D02*
X-04797500Y-00227500D01*
G01X-04747500Y-00172500D02*
X-04747500Y-00227500D01*
G01X-04797500Y-00172500D02*
X-04747500Y-00172500D01*
G01X-04797500Y-00227500D02*
X-04797500Y-00172500D01*
G01X-05132500Y-00172500D02*
X-05082500Y-00172500D01*
G01X-05132500Y-00227500D02*
X-05132500Y-00172500D01*
G01X-05082500Y-00227500D02*
X-05132500Y-00227500D01*
G01X-05082500Y-00172500D02*
X-05082500Y-00227500D01*
G01X-05092490Y00867730D02*
X-05021710Y00774600D01*
G01X-05057100Y00757670D02*
X-05057100Y00884670D01*
G01X-05021710Y00867730D02*
X-05092490Y00774600D01*
G01X-05105360Y00821170D02*
X-05008840Y00821170D01*
G01X-05040160Y00863500D02*
X-05040160Y00736500D01*
X-05007990Y00736500D01*
X-04995120Y00742850D01*
X-04985470Y00751320D01*
X-04977420Y00764010D01*
X-04970990Y00778840D01*
X-04969380Y00800000D01*
X-04970990Y00821170D01*
X-04977420Y00835990D01*
X-04985470Y00848690D01*
X-04995120Y00857150D01*
X-05007990Y00863500D01*
X-05040160Y00863500D01*
G01X-04905800Y00757670D02*
X-04896140Y00744970D01*
X-04884880Y00738620D01*
X-04872010Y00736500D01*
X-04855930Y00740730D01*
X-04844660Y00751320D01*
X-04841450Y00764010D01*
X-04843060Y00776720D01*
X-04849490Y00787300D01*
X-04881660Y00808470D01*
X-04896140Y00823280D01*
X-04905800Y00844450D01*
X-04909010Y00863500D01*
X-04841450Y00863500D01*
G01X-05082500Y00732500D02*
X-05082500Y00867500D01*
G01X-04797500Y00732500D02*
X-05082500Y00732500D01*
G01X-04797500Y00867500D02*
X-04797500Y00732500D01*
G01X-05082500Y00766250D02*
X-05048750Y00732500D01*
G01X-04747500Y00772500D02*
X-04797500Y00772500D01*
G01X-04747500Y00827500D02*
X-04747500Y00772500D01*
G01X-04797500Y00772500D02*
X-04797500Y00827500D01*
G01X-05132500Y00772500D02*
X-05132500Y00827500D01*
G01X-05082500Y00772500D02*
X-05132500Y00772500D01*
G01X-05082500Y00827500D02*
X-05082500Y00772500D01*
G01X00250000Y03360000D02*
X00250000Y01360000D01*
X-04850000Y01360000D01*
X-04850000Y03360000D01*
X00250000Y03360000D01*
G01X-05082500Y00867500D02*
X-04797500Y00867500D01*
G01X-05082500Y00833750D02*
X-05048750Y00867500D01*
G01X-04797500Y00827500D02*
X-04747500Y00827500D01*
G01X-05132500Y00827500D02*
X-05082500Y00827500D01*
G01X-04777000Y02960130D02*
X-04685980Y02960130D01*
X-04666930Y02953700D01*
X-04654230Y02940830D01*
X-04650000Y02924750D01*
X-04654230Y02908670D01*
X-04666930Y02895800D01*
X-04685980Y02889370D01*
X-04777000Y02889370D01*
G01X-04650000Y02795250D02*
X-04777000Y02795250D01*
X-04751600Y02814550D01*
G01X-04650000Y02814550D02*
X-04650000Y02775950D01*
G01X-04092490Y-06132270D02*
X-04021710Y-06225400D01*
G01X-04057100Y-06242330D02*
X-04057100Y-06115330D01*
G01X-04021710Y-06132270D02*
X-04092490Y-06225400D01*
G01X-04105360Y-06178830D02*
X-04008840Y-06178830D01*
G01X-04104930Y-06136500D02*
X-04104930Y-06263500D01*
X-04072760Y-06263500D01*
X-04059890Y-06257150D01*
X-04050240Y-06248680D01*
X-04042190Y-06235990D01*
X-04035760Y-06221160D01*
X-04034150Y-06200000D01*
X-04035760Y-06178830D01*
X-04042190Y-06164010D01*
X-04050240Y-06151310D01*
X-04059890Y-06142850D01*
X-04072760Y-06136500D01*
X-04104930Y-06136500D01*
G01X-03940000Y-06136500D02*
X-03928740Y-06138620D01*
X-03915870Y-06144960D01*
X-03907830Y-06155550D01*
X-03904610Y-06170370D01*
X-03907830Y-06185180D01*
X-03917480Y-06197880D01*
X-03931960Y-06204230D01*
X-03948040Y-06204230D01*
X-03957700Y-06208470D01*
X-03965740Y-06219050D01*
X-03968960Y-06233870D01*
X-03964130Y-06248680D01*
X-03952870Y-06259270D01*
X-03940000Y-06263500D01*
X-03927130Y-06259270D01*
X-03915870Y-06248680D01*
X-03911040Y-06233870D01*
X-03914260Y-06219050D01*
X-03922300Y-06208470D01*
X-03931960Y-06204230D01*
X-03948040Y-06204230D01*
X-03962520Y-06197880D01*
X-03972170Y-06185180D01*
X-03975390Y-06170370D01*
X-03972170Y-06155550D01*
X-03964130Y-06144960D01*
X-03951260Y-06138620D01*
X-03940000Y-06136500D01*
G01X-03810460Y-06263500D02*
X-03823330Y-06259270D01*
X-03832980Y-06248680D01*
X-03839420Y-06235990D01*
X-03844240Y-06219050D01*
X-03845850Y-06200000D01*
X-03844240Y-06180950D01*
X-03839420Y-06164010D01*
X-03832980Y-06151310D01*
X-03823330Y-06140730D01*
X-03810460Y-06136500D01*
X-03797590Y-06140730D01*
X-03787940Y-06151310D01*
X-03781500Y-06164010D01*
X-03776680Y-06180950D01*
X-03775070Y-06200000D01*
X-03776680Y-06219050D01*
X-03781500Y-06235990D01*
X-03787940Y-06248680D01*
X-03797590Y-06259270D01*
X-03810460Y-06263500D01*
G01X-04082500Y-06267500D02*
X-04082500Y-06132500D01*
G01X-03797500Y-06267500D02*
X-04082500Y-06267500D01*
G01X-03797500Y-06132500D02*
X-03797500Y-06267500D01*
G01X-04082500Y-06132500D02*
X-03797500Y-06132500D01*
G01X-04082500Y-06166250D02*
X-04048750Y-06132500D01*
G01X-04082500Y-06233750D02*
X-04048750Y-06267500D01*
G01X-03747500Y-06227500D02*
X-03797500Y-06227500D01*
G01X-03747500Y-06172500D02*
X-03747500Y-06227500D01*
G01X-03797500Y-06172500D02*
X-03747500Y-06172500D01*
G01X-03797500Y-06227500D02*
X-03797500Y-06172500D01*
G01X-04132500Y-06172500D02*
X-04082500Y-06172500D01*
G01X-04132500Y-06227500D02*
X-04132500Y-06172500D01*
G01X-04082500Y-06227500D02*
X-04132500Y-06227500D01*
G01X-04082500Y-06172500D02*
X-04082500Y-06227500D01*
G01X-04092490Y-05132270D02*
X-04021710Y-05225400D01*
G01X-04057100Y-05242330D02*
X-04057100Y-05115330D01*
G01X-04021710Y-05132270D02*
X-04092490Y-05225400D01*
G01X-04105360Y-05178830D02*
X-04008840Y-05178830D01*
G01X-04104930Y-05136500D02*
X-04104930Y-05263500D01*
X-04072760Y-05263500D01*
X-04059890Y-05257150D01*
X-04050240Y-05248680D01*
X-04042190Y-05235990D01*
X-04035760Y-05221160D01*
X-04034150Y-05200000D01*
X-04035760Y-05178830D01*
X-04042190Y-05164010D01*
X-04050240Y-05151310D01*
X-04059890Y-05142850D01*
X-04072760Y-05136500D01*
X-04104930Y-05136500D01*
G01X-03970570Y-05189410D02*
X-03959300Y-05204230D01*
X-03949650Y-05212700D01*
X-03936780Y-05216930D01*
X-03925520Y-05212700D01*
X-03917480Y-05204230D01*
X-03911040Y-05191530D01*
X-03909430Y-05176720D01*
X-03911040Y-05164010D01*
X-03917480Y-05151310D01*
X-03927130Y-05140730D01*
X-03938390Y-05136500D01*
X-03951260Y-05140730D01*
X-03962520Y-05153430D01*
X-03968960Y-05172480D01*
X-03970570Y-05193650D01*
X-03967350Y-05221160D01*
X-03962520Y-05235990D01*
X-03954480Y-05250800D01*
X-03943220Y-05261380D01*
X-03931960Y-05263500D01*
X-03920700Y-05259270D01*
X-03912650Y-05248680D01*
G01X-03837810Y-05151310D02*
X-03826550Y-05140730D01*
X-03813680Y-05136500D01*
X-03800810Y-05140730D01*
X-03789550Y-05153430D01*
X-03781500Y-05172480D01*
X-03778290Y-05191530D01*
X-03778290Y-05214820D01*
X-03781500Y-05233870D01*
X-03789550Y-05250800D01*
X-03799200Y-05259270D01*
X-03810460Y-05263500D01*
X-03823330Y-05259270D01*
X-03832980Y-05250800D01*
X-03839420Y-05238100D01*
X-03842630Y-05221160D01*
X-03839420Y-05206350D01*
X-03831370Y-05191530D01*
X-03821720Y-05183060D01*
X-03810460Y-05180950D01*
X-03797590Y-05185180D01*
X-03787940Y-05195770D01*
X-03778290Y-05214820D01*
G01X-04082500Y-05267500D02*
X-04082500Y-05132500D01*
G01X-03797500Y-05267500D02*
X-04082500Y-05267500D01*
G01X-03797500Y-05132500D02*
X-03797500Y-05267500D01*
G01X-04082500Y-05166250D02*
X-04048750Y-05132500D01*
G01X-04082500Y-05233750D02*
X-04048750Y-05267500D01*
G01X-03747500Y-05227500D02*
X-03797500Y-05227500D01*
G01X-03747500Y-05172500D02*
X-03747500Y-05227500D01*
G01X-03797500Y-05172500D02*
X-03747500Y-05172500D01*
G01X-03797500Y-05227500D02*
X-03797500Y-05172500D01*
G01X-04132500Y-05172500D02*
X-04082500Y-05172500D01*
G01X-04132500Y-05227500D02*
X-04132500Y-05172500D01*
G01X-04082500Y-05227500D02*
X-04132500Y-05227500D01*
G01X-04082500Y-05172500D02*
X-04082500Y-05227500D01*
G01X-04082500Y-05132500D02*
X-03797500Y-05132500D01*
G01X-04092490Y-04132270D02*
X-04021710Y-04225400D01*
G01X-04057100Y-04242330D02*
X-04057100Y-04115330D01*
G01X-04021710Y-04132270D02*
X-04092490Y-04225400D01*
G01X-04105360Y-04178830D02*
X-04008840Y-04178830D01*
G01X-04104930Y-04136500D02*
X-04104930Y-04263500D01*
X-04072760Y-04263500D01*
X-04059890Y-04257150D01*
X-04050240Y-04248680D01*
X-04042190Y-04235990D01*
X-04035760Y-04221160D01*
X-04034150Y-04200000D01*
X-04035760Y-04178830D01*
X-04042190Y-04164010D01*
X-04050240Y-04151310D01*
X-04059890Y-04142850D01*
X-04072760Y-04136500D01*
X-04104930Y-04136500D01*
G01X-03975390Y-04155550D02*
X-03965740Y-04144960D01*
X-03954480Y-04138620D01*
X-03940000Y-04136500D01*
X-03925520Y-04140730D01*
X-03914260Y-04149200D01*
X-03906220Y-04164010D01*
X-03904610Y-04180950D01*
X-03907830Y-04197880D01*
X-03915870Y-04208470D01*
X-03927130Y-04216930D01*
X-03938390Y-04219050D01*
X-03949650Y-04216930D01*
X-03964130Y-04208470D01*
X-03959300Y-04263500D01*
X-03915870Y-04263500D01*
G01X-03810460Y-04136500D02*
X-03799200Y-04138620D01*
X-03786330Y-04144960D01*
X-03778290Y-04155550D01*
X-03775070Y-04170370D01*
X-03778290Y-04185180D01*
X-03787940Y-04197880D01*
X-03802420Y-04204230D01*
X-03818500Y-04204230D01*
X-03828160Y-04208470D01*
X-03836200Y-04219050D01*
X-03839420Y-04233870D01*
X-03834590Y-04248680D01*
X-03823330Y-04259270D01*
X-03810460Y-04263500D01*
X-03797590Y-04259270D01*
X-03786330Y-04248680D01*
X-03781500Y-04233870D01*
X-03784720Y-04219050D01*
X-03792760Y-04208470D01*
X-03802420Y-04204230D01*
X-03818500Y-04204230D01*
X-03832980Y-04197880D01*
X-03842630Y-04185180D01*
X-03845850Y-04170370D01*
X-03842630Y-04155550D01*
X-03834590Y-04144960D01*
X-03821720Y-04138620D01*
X-03810460Y-04136500D01*
G01X-04082500Y-04267500D02*
X-04082500Y-04132500D01*
G01X-03797500Y-04267500D02*
X-04082500Y-04267500D01*
G01X-03797500Y-04132500D02*
X-03797500Y-04267500D01*
G01X-04082500Y-04132500D02*
X-03797500Y-04132500D01*
G01X-04082500Y-04166250D02*
X-04048750Y-04132500D01*
G01X-04082500Y-04233750D02*
X-04048750Y-04267500D01*
G01X-03747500Y-04227500D02*
X-03797500Y-04227500D01*
G01X-03747500Y-04172500D02*
X-03747500Y-04227500D01*
G01X-03797500Y-04172500D02*
X-03747500Y-04172500D01*
G01X-03797500Y-04227500D02*
X-03797500Y-04172500D01*
G01X-04132500Y-04172500D02*
X-04082500Y-04172500D01*
G01X-04132500Y-04227500D02*
X-04132500Y-04172500D01*
G01X-04082500Y-04227500D02*
X-04132500Y-04227500D01*
G01X-04082500Y-04172500D02*
X-04082500Y-04227500D01*
G01X-04092490Y-03132270D02*
X-04021710Y-03225400D01*
G01X-04057100Y-03242330D02*
X-04057100Y-03115330D01*
G01X-04021710Y-03132270D02*
X-04092490Y-03225400D01*
G01X-04105360Y-03178830D02*
X-04008840Y-03178830D01*
G01X-04104930Y-03136500D02*
X-04104930Y-03263500D01*
X-04072760Y-03263500D01*
X-04059890Y-03257150D01*
X-04050240Y-03248680D01*
X-04042190Y-03235990D01*
X-04035760Y-03221160D01*
X-04034150Y-03200000D01*
X-04035760Y-03178830D01*
X-04042190Y-03164010D01*
X-04050240Y-03151310D01*
X-04059890Y-03142850D01*
X-04072760Y-03136500D01*
X-04104930Y-03136500D01*
G01X-03920700Y-03136500D02*
X-03920700Y-03263500D01*
X-03980220Y-03172480D01*
X-03899780Y-03172480D01*
G01X-03813680Y-03136500D02*
X-03810460Y-03164010D01*
X-03805630Y-03187300D01*
X-03799200Y-03208470D01*
X-03791160Y-03231750D01*
X-03778290Y-03263500D01*
X-03842630Y-03263500D01*
G01X-04082500Y-03267500D02*
X-04082500Y-03132500D01*
G01X-03797500Y-03267500D02*
X-04082500Y-03267500D01*
G01X-03797500Y-03132500D02*
X-03797500Y-03267500D01*
G01X-04082500Y-03132500D02*
X-03797500Y-03132500D01*
G01X-04082500Y-03166250D02*
X-04048750Y-03132500D01*
G01X-04082500Y-03233750D02*
X-04048750Y-03267500D01*
G01X-03747500Y-03227500D02*
X-03797500Y-03227500D01*
G01X-03747500Y-03172500D02*
X-03747500Y-03227500D01*
G01X-03797500Y-03172500D02*
X-03747500Y-03172500D01*
G01X-03797500Y-03227500D02*
X-03797500Y-03172500D01*
G01X-04132500Y-03172500D02*
X-04082500Y-03172500D01*
G01X-04132500Y-03227500D02*
X-04132500Y-03172500D01*
G01X-04082500Y-03227500D02*
X-04132500Y-03227500D01*
G01X-04082500Y-03172500D02*
X-04082500Y-03227500D01*
G01X-04092490Y-02132270D02*
X-04021710Y-02225400D01*
G01X-04057100Y-02242330D02*
X-04057100Y-02115330D01*
G01X-04021710Y-02132270D02*
X-04092490Y-02225400D01*
G01X-04105360Y-02178830D02*
X-04008840Y-02178830D01*
G01X-04104930Y-02136500D02*
X-04104930Y-02263500D01*
X-04072760Y-02263500D01*
X-04059890Y-02257150D01*
X-04050240Y-02248680D01*
X-04042190Y-02235990D01*
X-04035760Y-02221160D01*
X-04034150Y-02200000D01*
X-04035760Y-02178830D01*
X-04042190Y-02164010D01*
X-04050240Y-02151310D01*
X-04059890Y-02142850D01*
X-04072760Y-02136500D01*
X-04104930Y-02136500D01*
G01X-03975390Y-02161900D02*
X-03965740Y-02147080D01*
X-03952870Y-02138620D01*
X-03938390Y-02136500D01*
X-03925520Y-02138620D01*
X-03912650Y-02149200D01*
X-03904610Y-02161900D01*
X-03903000Y-02174600D01*
X-03906220Y-02189410D01*
X-03917480Y-02200000D01*
X-03928740Y-02204230D01*
X-03943220Y-02204230D01*
G01X-03928740Y-02204230D02*
X-03919090Y-02210580D01*
X-03911040Y-02221160D01*
X-03907830Y-02233870D01*
X-03911040Y-02246570D01*
X-03919090Y-02257150D01*
X-03933570Y-02263500D01*
X-03948040Y-02261380D01*
X-03962520Y-02252920D01*
G01X-03841030Y-02189410D02*
X-03829760Y-02204230D01*
X-03820110Y-02212700D01*
X-03807240Y-02216930D01*
X-03795980Y-02212700D01*
X-03787940Y-02204230D01*
X-03781500Y-02191530D01*
X-03779890Y-02176720D01*
X-03781500Y-02164010D01*
X-03787940Y-02151310D01*
X-03797590Y-02140730D01*
X-03808850Y-02136500D01*
X-03821720Y-02140730D01*
X-03832980Y-02153430D01*
X-03839420Y-02172480D01*
X-03841030Y-02193650D01*
X-03837810Y-02221160D01*
X-03832980Y-02235990D01*
X-03824940Y-02250800D01*
X-03813680Y-02261380D01*
X-03802420Y-02263500D01*
X-03791160Y-02259270D01*
X-03783110Y-02248680D01*
G01X-04082500Y-02267500D02*
X-04082500Y-02132500D01*
G01X-03797500Y-02267500D02*
X-04082500Y-02267500D01*
G01X-03797500Y-02132500D02*
X-03797500Y-02267500D01*
G01X-04082500Y-02233750D02*
X-04048750Y-02267500D01*
G01X-03747500Y-02227500D02*
X-03797500Y-02227500D01*
G01X-03747500Y-02172500D02*
X-03747500Y-02227500D01*
G01X-03797500Y-02227500D02*
X-03797500Y-02172500D01*
G01X-04132500Y-02227500D02*
X-04132500Y-02172500D01*
G01X-04082500Y-02227500D02*
X-04132500Y-02227500D01*
G01X-04082500Y-02172500D02*
X-04082500Y-02227500D01*
G01X-04082500Y-02132500D02*
X-03797500Y-02132500D01*
G01X-04082500Y-02166250D02*
X-04048750Y-02132500D01*
G01X-03797500Y-02172500D02*
X-03747500Y-02172500D01*
G01X-04132500Y-02172500D02*
X-04082500Y-02172500D01*
G01X-04092490Y-01132270D02*
X-04021710Y-01225400D01*
G01X-04057100Y-01242330D02*
X-04057100Y-01115330D01*
G01X-04021710Y-01132270D02*
X-04092490Y-01225400D01*
G01X-04105360Y-01178830D02*
X-04008840Y-01178830D01*
G01X-04104930Y-01136500D02*
X-04104930Y-01263500D01*
X-04072760Y-01263500D01*
X-04059890Y-01257150D01*
X-04050240Y-01248680D01*
X-04042190Y-01235990D01*
X-04035760Y-01221160D01*
X-04034150Y-01200000D01*
X-04035760Y-01178830D01*
X-04042190Y-01164010D01*
X-04050240Y-01151310D01*
X-04059890Y-01142850D01*
X-04072760Y-01136500D01*
X-04104930Y-01136500D01*
G01X-03970570Y-01242330D02*
X-03960910Y-01255030D01*
X-03949650Y-01261380D01*
X-03936780Y-01263500D01*
X-03920700Y-01259270D01*
X-03909430Y-01248680D01*
X-03906220Y-01235990D01*
X-03907830Y-01223280D01*
X-03914260Y-01212700D01*
X-03946430Y-01191530D01*
X-03960910Y-01176720D01*
X-03970570Y-01155550D01*
X-03973780Y-01136500D01*
X-03906220Y-01136500D01*
G01X-03845850Y-01155550D02*
X-03836200Y-01144960D01*
X-03824940Y-01138620D01*
X-03810460Y-01136500D01*
X-03795980Y-01140730D01*
X-03784720Y-01149200D01*
X-03776680Y-01164010D01*
X-03775070Y-01180950D01*
X-03778290Y-01197880D01*
X-03786330Y-01208470D01*
X-03797590Y-01216930D01*
X-03808850Y-01219050D01*
X-03820110Y-01216930D01*
X-03834590Y-01208470D01*
X-03829760Y-01263500D01*
X-03786330Y-01263500D01*
G01X-04082500Y-01267500D02*
X-04082500Y-01132500D01*
G01X-03797500Y-01267500D02*
X-04082500Y-01267500D01*
G01X-03797500Y-01132500D02*
X-03797500Y-01267500D01*
G01X-04082500Y-01132500D02*
X-03797500Y-01132500D01*
G01X-04082500Y-01166250D02*
X-04048750Y-01132500D01*
G01X-04082500Y-01233750D02*
X-04048750Y-01267500D01*
G01X-03747500Y-01227500D02*
X-03797500Y-01227500D01*
G01X-03747500Y-01172500D02*
X-03747500Y-01227500D01*
G01X-03797500Y-01172500D02*
X-03747500Y-01172500D01*
G01X-03797500Y-01227500D02*
X-03797500Y-01172500D01*
G01X-04132500Y-01172500D02*
X-04082500Y-01172500D01*
G01X-04132500Y-01227500D02*
X-04132500Y-01172500D01*
G01X-04082500Y-01227500D02*
X-04132500Y-01227500D01*
G01X-04082500Y-01172500D02*
X-04082500Y-01227500D01*
G01X-04092490Y-00132270D02*
X-04021710Y-00225400D01*
G01X-04057100Y-00242330D02*
X-04057100Y-00115330D01*
G01X-04021710Y-00132270D02*
X-04092490Y-00225400D01*
G01X-04105360Y-00178830D02*
X-04008840Y-00178830D01*
G01X-04104930Y-00136500D02*
X-04104930Y-00263500D01*
X-04072760Y-00263500D01*
X-04059890Y-00257150D01*
X-04050240Y-00248680D01*
X-04042190Y-00235990D01*
X-04035760Y-00221160D01*
X-04034150Y-00200000D01*
X-04035760Y-00178830D01*
X-04042190Y-00164010D01*
X-04050240Y-00151310D01*
X-04059890Y-00142850D01*
X-04072760Y-00136500D01*
X-04104930Y-00136500D01*
G01X-03940000Y-00136500D02*
X-03940000Y-00263500D01*
X-03959300Y-00238100D01*
G01X-03959300Y-00136500D02*
X-03920700Y-00136500D01*
G01X-03791160Y-00136500D02*
X-03791160Y-00263500D01*
X-03850680Y-00172480D01*
X-03770240Y-00172480D01*
G01X-04082500Y-00267500D02*
X-04082500Y-00132500D01*
G01X-03797500Y-00267500D02*
X-04082500Y-00267500D01*
G01X-03797500Y-00132500D02*
X-03797500Y-00267500D01*
G01X-04082500Y-00132500D02*
X-03797500Y-00132500D01*
G01X-04082500Y-00166250D02*
X-04048750Y-00132500D01*
G01X-04082500Y-00233750D02*
X-04048750Y-00267500D01*
G01X-03747500Y-00227500D02*
X-03797500Y-00227500D01*
G01X-03747500Y-00172500D02*
X-03747500Y-00227500D01*
G01X-03797500Y-00172500D02*
X-03747500Y-00172500D01*
G01X-03797500Y-00227500D02*
X-03797500Y-00172500D01*
G01X-04132500Y-00172500D02*
X-04082500Y-00172500D01*
G01X-04132500Y-00227500D02*
X-04132500Y-00172500D01*
G01X-04082500Y-00227500D02*
X-04132500Y-00227500D01*
G01X-04082500Y-00172500D02*
X-04082500Y-00227500D01*
G01X-04092490Y00867730D02*
X-04021710Y00774600D01*
G01X-04057100Y00757670D02*
X-04057100Y00884670D01*
G01X-04021710Y00867730D02*
X-04092490Y00774600D01*
G01X-04105360Y00821170D02*
X-04008840Y00821170D01*
G01X-04040160Y00863500D02*
X-04040160Y00736500D01*
X-04007990Y00736500D01*
X-03995120Y00742850D01*
X-03985470Y00751320D01*
X-03977420Y00764010D01*
X-03970990Y00778840D01*
X-03969380Y00800000D01*
X-03970990Y00821170D01*
X-03977420Y00835990D01*
X-03985470Y00848690D01*
X-03995120Y00857150D01*
X-04007990Y00863500D01*
X-04040160Y00863500D01*
G01X-03910620Y00838100D02*
X-03900970Y00852920D01*
X-03888100Y00861380D01*
X-03873620Y00863500D01*
X-03860750Y00861380D01*
X-03847880Y00850800D01*
X-03839840Y00838100D01*
X-03838230Y00825400D01*
X-03841450Y00810590D01*
X-03852710Y00800000D01*
X-03863970Y00795770D01*
X-03878450Y00795770D01*
G01X-03863970Y00795770D02*
X-03854320Y00789420D01*
X-03846270Y00778840D01*
X-03843060Y00766130D01*
X-03846270Y00753430D01*
X-03854320Y00742850D01*
X-03868800Y00736500D01*
X-03883270Y00738620D01*
X-03897750Y00747080D01*
G01X-04082500Y00732500D02*
X-04082500Y00867500D01*
G01X-03797500Y00732500D02*
X-04082500Y00732500D01*
G01X-03797500Y00867500D02*
X-03797500Y00732500D01*
G01X-04082500Y00766250D02*
X-04048750Y00732500D01*
G01X-03747500Y00772500D02*
X-03797500Y00772500D01*
G01X-03747500Y00827500D02*
X-03747500Y00772500D01*
G01X-03797500Y00772500D02*
X-03797500Y00827500D01*
G01X-04132500Y00772500D02*
X-04132500Y00827500D01*
G01X-04082500Y00772500D02*
X-04132500Y00772500D01*
G01X-04082500Y00827500D02*
X-04082500Y00772500D01*
G01X-04082500Y00867500D02*
X-03797500Y00867500D01*
G01X-04082500Y00833750D02*
X-04048750Y00867500D01*
G01X-03797500Y00827500D02*
X-03747500Y00827500D01*
G01X-04132500Y00827500D02*
X-04082500Y00827500D01*
G01X-03092490Y-06132270D02*
X-03021710Y-06225400D01*
G01X-03057100Y-06242330D02*
X-03057100Y-06115330D01*
G01X-03021710Y-06132270D02*
X-03092490Y-06225400D01*
G01X-03105360Y-06178830D02*
X-03008840Y-06178830D01*
G01X-03104930Y-06136500D02*
X-03104930Y-06263500D01*
X-03072760Y-06263500D01*
X-03059890Y-06257150D01*
X-03050240Y-06248680D01*
X-03042190Y-06235990D01*
X-03035760Y-06221160D01*
X-03034150Y-06200000D01*
X-03035760Y-06178830D01*
X-03042190Y-06164010D01*
X-03050240Y-06151310D01*
X-03059890Y-06142850D01*
X-03072760Y-06136500D01*
X-03104930Y-06136500D01*
G01X-02940000Y-06136500D02*
X-02928740Y-06138620D01*
X-02915870Y-06144960D01*
X-02907830Y-06155550D01*
X-02904610Y-06170370D01*
X-02907830Y-06185180D01*
X-02917480Y-06197880D01*
X-02931960Y-06204230D01*
X-02948040Y-06204230D01*
X-02957700Y-06208470D01*
X-02965740Y-06219050D01*
X-02968960Y-06233870D01*
X-02964130Y-06248680D01*
X-02952870Y-06259270D01*
X-02940000Y-06263500D01*
X-02927130Y-06259270D01*
X-02915870Y-06248680D01*
X-02911040Y-06233870D01*
X-02914260Y-06219050D01*
X-02922300Y-06208470D01*
X-02931960Y-06204230D01*
X-02948040Y-06204230D01*
X-02962520Y-06197880D01*
X-02972170Y-06185180D01*
X-02975390Y-06170370D01*
X-02972170Y-06155550D01*
X-02964130Y-06144960D01*
X-02951260Y-06138620D01*
X-02940000Y-06136500D01*
G01X-02810460Y-06136500D02*
X-02810460Y-06263500D01*
X-02829760Y-06238100D01*
G01X-02829760Y-06136500D02*
X-02791160Y-06136500D01*
G01X-03082500Y-06267500D02*
X-03082500Y-06132500D01*
G01X-02797500Y-06267500D02*
X-03082500Y-06267500D01*
G01X-03082500Y-06132500D02*
X-02797500Y-06132500D01*
G01X-03082500Y-06166250D02*
X-03048750Y-06132500D01*
G01X-03082500Y-06233750D02*
X-03048750Y-06267500D01*
G01X-03132500Y-06172500D02*
X-03082500Y-06172500D01*
G01X-03132500Y-06227500D02*
X-03132500Y-06172500D01*
G01X-03082500Y-06227500D02*
X-03132500Y-06227500D01*
G01X-03082500Y-06172500D02*
X-03082500Y-06227500D01*
G01X-03092490Y-05132270D02*
X-03021710Y-05225400D01*
G01X-03057100Y-05242330D02*
X-03057100Y-05115330D01*
G01X-03021710Y-05132270D02*
X-03092490Y-05225400D01*
G01X-03105360Y-05178830D02*
X-03008840Y-05178830D01*
G01X-03104930Y-05136500D02*
X-03104930Y-05263500D01*
X-03072760Y-05263500D01*
X-03059890Y-05257150D01*
X-03050240Y-05248680D01*
X-03042190Y-05235990D01*
X-03035760Y-05221160D01*
X-03034150Y-05200000D01*
X-03035760Y-05178830D01*
X-03042190Y-05164010D01*
X-03050240Y-05151310D01*
X-03059890Y-05142850D01*
X-03072760Y-05136500D01*
X-03104930Y-05136500D01*
G01X-02943220Y-05136500D02*
X-02940000Y-05164010D01*
X-02935170Y-05187300D01*
X-02928740Y-05208470D01*
X-02920700Y-05231750D01*
X-02907830Y-05263500D01*
X-02972170Y-05263500D01*
G01X-02810460Y-05263500D02*
X-02823330Y-05259270D01*
X-02832980Y-05248680D01*
X-02839420Y-05235990D01*
X-02844240Y-05219050D01*
X-02845850Y-05200000D01*
X-02844240Y-05180950D01*
X-02839420Y-05164010D01*
X-02832980Y-05151310D01*
X-02823330Y-05140730D01*
X-02810460Y-05136500D01*
X-02797590Y-05140730D01*
X-02787940Y-05151310D01*
X-02781500Y-05164010D01*
X-02776680Y-05180950D01*
X-02775070Y-05200000D01*
X-02776680Y-05219050D01*
X-02781500Y-05235990D01*
X-02787940Y-05248680D01*
X-02797590Y-05259270D01*
X-02810460Y-05263500D01*
G01X-03082500Y-05267500D02*
X-03082500Y-05132500D01*
G01X-02797500Y-05267500D02*
X-03082500Y-05267500D01*
G01X-03082500Y-05166250D02*
X-03048750Y-05132500D01*
G01X-03082500Y-05233750D02*
X-03048750Y-05267500D01*
G01X-03132500Y-05172500D02*
X-03082500Y-05172500D01*
G01X-03132500Y-05227500D02*
X-03132500Y-05172500D01*
G01X-03082500Y-05227500D02*
X-03132500Y-05227500D01*
G01X-03082500Y-05172500D02*
X-03082500Y-05227500D01*
G01X-03082500Y-05132500D02*
X-02797500Y-05132500D01*
G01X-03092490Y-04132270D02*
X-03021710Y-04225400D01*
G01X-03057100Y-04242330D02*
X-03057100Y-04115330D01*
G01X-03021710Y-04132270D02*
X-03092490Y-04225400D01*
G01X-03105360Y-04178830D02*
X-03008840Y-04178830D01*
G01X-03104930Y-04136500D02*
X-03104930Y-04263500D01*
X-03072760Y-04263500D01*
X-03059890Y-04257150D01*
X-03050240Y-04248680D01*
X-03042190Y-04235990D01*
X-03035760Y-04221160D01*
X-03034150Y-04200000D01*
X-03035760Y-04178830D01*
X-03042190Y-04164010D01*
X-03050240Y-04151310D01*
X-03059890Y-04142850D01*
X-03072760Y-04136500D01*
X-03104930Y-04136500D01*
G01X-02975390Y-04155550D02*
X-02965740Y-04144960D01*
X-02954480Y-04138620D01*
X-02940000Y-04136500D01*
X-02925520Y-04140730D01*
X-02914260Y-04149200D01*
X-02906220Y-04164010D01*
X-02904610Y-04180950D01*
X-02907830Y-04197880D01*
X-02915870Y-04208470D01*
X-02927130Y-04216930D01*
X-02938390Y-04219050D01*
X-02949650Y-04216930D01*
X-02964130Y-04208470D01*
X-02959300Y-04263500D01*
X-02915870Y-04263500D01*
G01X-02837810Y-04151310D02*
X-02826550Y-04140730D01*
X-02813680Y-04136500D01*
X-02800810Y-04140730D01*
X-02789550Y-04153430D01*
X-02781500Y-04172480D01*
X-02778290Y-04191530D01*
X-02778290Y-04214820D01*
X-02781500Y-04233870D01*
X-02789550Y-04250800D01*
X-02799200Y-04259270D01*
X-02810460Y-04263500D01*
X-02823330Y-04259270D01*
X-02832980Y-04250800D01*
X-02839420Y-04238100D01*
X-02842630Y-04221160D01*
X-02839420Y-04206350D01*
X-02831370Y-04191530D01*
X-02821720Y-04183060D01*
X-02810460Y-04180950D01*
X-02797590Y-04185180D01*
X-02787940Y-04195770D01*
X-02778290Y-04214820D01*
G01X-03082500Y-04267500D02*
X-03082500Y-04132500D01*
G01X-02797500Y-04267500D02*
X-03082500Y-04267500D01*
G01X-03082500Y-04132500D02*
X-02797500Y-04132500D01*
G01X-03082500Y-04166250D02*
X-03048750Y-04132500D01*
G01X-03082500Y-04233750D02*
X-03048750Y-04267500D01*
G01X-03132500Y-04172500D02*
X-03082500Y-04172500D01*
G01X-03132500Y-04227500D02*
X-03132500Y-04172500D01*
G01X-03082500Y-04227500D02*
X-03132500Y-04227500D01*
G01X-03082500Y-04172500D02*
X-03082500Y-04227500D01*
G01X-03092490Y-03132270D02*
X-03021710Y-03225400D01*
G01X-03057100Y-03242330D02*
X-03057100Y-03115330D01*
G01X-03021710Y-03132270D02*
X-03092490Y-03225400D01*
G01X-03105360Y-03178830D02*
X-03008840Y-03178830D01*
G01X-03104930Y-03136500D02*
X-03104930Y-03263500D01*
X-03072760Y-03263500D01*
X-03059890Y-03257150D01*
X-03050240Y-03248680D01*
X-03042190Y-03235990D01*
X-03035760Y-03221160D01*
X-03034150Y-03200000D01*
X-03035760Y-03178830D01*
X-03042190Y-03164010D01*
X-03050240Y-03151310D01*
X-03059890Y-03142850D01*
X-03072760Y-03136500D01*
X-03104930Y-03136500D01*
G01X-02920700Y-03136500D02*
X-02920700Y-03263500D01*
X-02980220Y-03172480D01*
X-02899780Y-03172480D01*
G01X-02810460Y-03136500D02*
X-02799200Y-03138620D01*
X-02786330Y-03144960D01*
X-02778290Y-03155550D01*
X-02775070Y-03170370D01*
X-02778290Y-03185180D01*
X-02787940Y-03197880D01*
X-02802420Y-03204230D01*
X-02818500Y-03204230D01*
X-02828160Y-03208470D01*
X-02836200Y-03219050D01*
X-02839420Y-03233870D01*
X-02834590Y-03248680D01*
X-02823330Y-03259270D01*
X-02810460Y-03263500D01*
X-02797590Y-03259270D01*
X-02786330Y-03248680D01*
X-02781500Y-03233870D01*
X-02784720Y-03219050D01*
X-02792760Y-03208470D01*
X-02802420Y-03204230D01*
X-02818500Y-03204230D01*
X-02832980Y-03197880D01*
X-02842630Y-03185180D01*
X-02845850Y-03170370D01*
X-02842630Y-03155550D01*
X-02834590Y-03144960D01*
X-02821720Y-03138620D01*
X-02810460Y-03136500D01*
G01X-03082500Y-03267500D02*
X-03082500Y-03132500D01*
G01X-02797500Y-03267500D02*
X-03082500Y-03267500D01*
G01X-03082500Y-03132500D02*
X-02797500Y-03132500D01*
G01X-03082500Y-03166250D02*
X-03048750Y-03132500D01*
G01X-03082500Y-03233750D02*
X-03048750Y-03267500D01*
G01X-03132500Y-03172500D02*
X-03082500Y-03172500D01*
G01X-03132500Y-03227500D02*
X-03132500Y-03172500D01*
G01X-03082500Y-03227500D02*
X-03132500Y-03227500D01*
G01X-03082500Y-03172500D02*
X-03082500Y-03227500D01*
G01X-03092490Y-02132270D02*
X-03021710Y-02225400D01*
G01X-03057100Y-02242330D02*
X-03057100Y-02115330D01*
G01X-03021710Y-02132270D02*
X-03092490Y-02225400D01*
G01X-03105360Y-02178830D02*
X-03008840Y-02178830D01*
G01X-03104930Y-02136500D02*
X-03104930Y-02263500D01*
X-03072760Y-02263500D01*
X-03059890Y-02257150D01*
X-03050240Y-02248680D01*
X-03042190Y-02235990D01*
X-03035760Y-02221160D01*
X-03034150Y-02200000D01*
X-03035760Y-02178830D01*
X-03042190Y-02164010D01*
X-03050240Y-02151310D01*
X-03059890Y-02142850D01*
X-03072760Y-02136500D01*
X-03104930Y-02136500D01*
G01X-02975390Y-02161900D02*
X-02965740Y-02147080D01*
X-02952870Y-02138620D01*
X-02938390Y-02136500D01*
X-02925520Y-02138620D01*
X-02912650Y-02149200D01*
X-02904610Y-02161900D01*
X-02903000Y-02174600D01*
X-02906220Y-02189410D01*
X-02917480Y-02200000D01*
X-02928740Y-02204230D01*
X-02943220Y-02204230D01*
G01X-02928740Y-02204230D02*
X-02919090Y-02210580D01*
X-02911040Y-02221160D01*
X-02907830Y-02233870D01*
X-02911040Y-02246570D01*
X-02919090Y-02257150D01*
X-02933570Y-02263500D01*
X-02948040Y-02261380D01*
X-02962520Y-02252920D01*
G01X-02813680Y-02136500D02*
X-02810460Y-02164010D01*
X-02805630Y-02187300D01*
X-02799200Y-02208470D01*
X-02791160Y-02231750D01*
X-02778290Y-02263500D01*
X-02842630Y-02263500D01*
G01X-03082500Y-02267500D02*
X-03082500Y-02132500D01*
G01X-02797500Y-02267500D02*
X-03082500Y-02267500D01*
G01X-03082500Y-02233750D02*
X-03048750Y-02267500D01*
G01X-03132500Y-02227500D02*
X-03132500Y-02172500D01*
G01X-03082500Y-02227500D02*
X-03132500Y-02227500D01*
G01X-03082500Y-02172500D02*
X-03082500Y-02227500D01*
G01X-03082500Y-02132500D02*
X-02797500Y-02132500D01*
G01X-03082500Y-02166250D02*
X-03048750Y-02132500D01*
G01X-03132500Y-02172500D02*
X-03082500Y-02172500D01*
G01X-03092490Y-01132270D02*
X-03021710Y-01225400D01*
G01X-03057100Y-01242330D02*
X-03057100Y-01115330D01*
G01X-03021710Y-01132270D02*
X-03092490Y-01225400D01*
G01X-03105360Y-01178830D02*
X-03008840Y-01178830D01*
G01X-03104930Y-01136500D02*
X-03104930Y-01263500D01*
X-03072760Y-01263500D01*
X-03059890Y-01257150D01*
X-03050240Y-01248680D01*
X-03042190Y-01235990D01*
X-03035760Y-01221160D01*
X-03034150Y-01200000D01*
X-03035760Y-01178830D01*
X-03042190Y-01164010D01*
X-03050240Y-01151310D01*
X-03059890Y-01142850D01*
X-03072760Y-01136500D01*
X-03104930Y-01136500D01*
G01X-02970570Y-01242330D02*
X-02960910Y-01255030D01*
X-02949650Y-01261380D01*
X-02936780Y-01263500D01*
X-02920700Y-01259270D01*
X-02909430Y-01248680D01*
X-02906220Y-01235990D01*
X-02907830Y-01223280D01*
X-02914260Y-01212700D01*
X-02946430Y-01191530D01*
X-02960910Y-01176720D01*
X-02970570Y-01155550D01*
X-02973780Y-01136500D01*
X-02906220Y-01136500D01*
G01X-02841030Y-01189410D02*
X-02829760Y-01204230D01*
X-02820110Y-01212700D01*
X-02807240Y-01216930D01*
X-02795980Y-01212700D01*
X-02787940Y-01204230D01*
X-02781500Y-01191530D01*
X-02779890Y-01176720D01*
X-02781500Y-01164010D01*
X-02787940Y-01151310D01*
X-02797590Y-01140730D01*
X-02808850Y-01136500D01*
X-02821720Y-01140730D01*
X-02832980Y-01153430D01*
X-02839420Y-01172480D01*
X-02841030Y-01193650D01*
X-02837810Y-01221160D01*
X-02832980Y-01235990D01*
X-02824940Y-01250800D01*
X-02813680Y-01261380D01*
X-02802420Y-01263500D01*
X-02791160Y-01259270D01*
X-02783110Y-01248680D01*
G01X-03082500Y-01267500D02*
X-03082500Y-01132500D01*
G01X-02797500Y-01267500D02*
X-03082500Y-01267500D01*
G01X-03082500Y-01132500D02*
X-02797500Y-01132500D01*
G01X-03082500Y-01166250D02*
X-03048750Y-01132500D01*
G01X-03082500Y-01233750D02*
X-03048750Y-01267500D01*
G01X-03132500Y-01172500D02*
X-03082500Y-01172500D01*
G01X-03132500Y-01227500D02*
X-03132500Y-01172500D01*
G01X-03082500Y-01227500D02*
X-03132500Y-01227500D01*
G01X-03082500Y-01172500D02*
X-03082500Y-01227500D01*
G01X-03092490Y-00132270D02*
X-03021710Y-00225400D01*
G01X-03057100Y-00242330D02*
X-03057100Y-00115330D01*
G01X-03021710Y-00132270D02*
X-03092490Y-00225400D01*
G01X-03105360Y-00178830D02*
X-03008840Y-00178830D01*
G01X-03104930Y-00136500D02*
X-03104930Y-00263500D01*
X-03072760Y-00263500D01*
X-03059890Y-00257150D01*
X-03050240Y-00248680D01*
X-03042190Y-00235990D01*
X-03035760Y-00221160D01*
X-03034150Y-00200000D01*
X-03035760Y-00178830D01*
X-03042190Y-00164010D01*
X-03050240Y-00151310D01*
X-03059890Y-00142850D01*
X-03072760Y-00136500D01*
X-03104930Y-00136500D01*
G01X-02940000Y-00136500D02*
X-02940000Y-00263500D01*
X-02959300Y-00238100D01*
G01X-02959300Y-00136500D02*
X-02920700Y-00136500D01*
G01X-02845850Y-00155550D02*
X-02836200Y-00144960D01*
X-02824940Y-00138620D01*
X-02810460Y-00136500D01*
X-02795980Y-00140730D01*
X-02784720Y-00149200D01*
X-02776680Y-00164010D01*
X-02775070Y-00180950D01*
X-02778290Y-00197880D01*
X-02786330Y-00208470D01*
X-02797590Y-00216930D01*
X-02808850Y-00219050D01*
X-02820110Y-00216930D01*
X-02834590Y-00208470D01*
X-02829760Y-00263500D01*
X-02786330Y-00263500D01*
G01X-03082500Y-00267500D02*
X-03082500Y-00132500D01*
G01X-02797500Y-00267500D02*
X-03082500Y-00267500D01*
G01X-03082500Y-00132500D02*
X-02797500Y-00132500D01*
G01X-03082500Y-00166250D02*
X-03048750Y-00132500D01*
G01X-03082500Y-00233750D02*
X-03048750Y-00267500D01*
G01X-03132500Y-00172500D02*
X-03082500Y-00172500D01*
G01X-03132500Y-00227500D02*
X-03132500Y-00172500D01*
G01X-03082500Y-00227500D02*
X-03132500Y-00227500D01*
G01X-03082500Y-00172500D02*
X-03082500Y-00227500D01*
G01X-03092490Y00867730D02*
X-03021710Y00774600D01*
G01X-03057100Y00757670D02*
X-03057100Y00884670D01*
G01X-03021710Y00867730D02*
X-03092490Y00774600D01*
G01X-03105360Y00821170D02*
X-03008840Y00821170D01*
G01X-03040160Y00863500D02*
X-03040160Y00736500D01*
X-03007990Y00736500D01*
X-02995120Y00742850D01*
X-02985470Y00751320D01*
X-02977420Y00764010D01*
X-02970990Y00778840D01*
X-02969380Y00800000D01*
X-02970990Y00821170D01*
X-02977420Y00835990D01*
X-02985470Y00848690D01*
X-02995120Y00857150D01*
X-03007990Y00863500D01*
X-03040160Y00863500D01*
G01X-02855930Y00863500D02*
X-02855930Y00736500D01*
X-02915450Y00827520D01*
X-02835010Y00827520D01*
G01X-03082500Y00732500D02*
X-03082500Y00867500D01*
G01X-02797500Y00732500D02*
X-03082500Y00732500D01*
G01X-03082500Y00766250D02*
X-03048750Y00732500D01*
G01X-03132500Y00772500D02*
X-03132500Y00827500D01*
G01X-03082500Y00772500D02*
X-03132500Y00772500D01*
G01X-03082500Y00827500D02*
X-03082500Y00772500D01*
G01X-03082500Y00867500D02*
X-02797500Y00867500D01*
G01X-03082500Y00833750D02*
X-03048750Y00867500D01*
G01X-03132500Y00827500D02*
X-03082500Y00827500D01*
G01X-02797500Y-06132500D02*
X-02797500Y-06267500D01*
G01X-02747500Y-06227500D02*
X-02797500Y-06227500D01*
G01X-02747500Y-06172500D02*
X-02747500Y-06227500D01*
G01X-02797500Y-06172500D02*
X-02747500Y-06172500D01*
G01X-02797500Y-06227500D02*
X-02797500Y-06172500D01*
G01X-02797500Y-05132500D02*
X-02797500Y-05267500D01*
G01X-02747500Y-05227500D02*
X-02797500Y-05227500D01*
G01X-02747500Y-05172500D02*
X-02747500Y-05227500D01*
G01X-02797500Y-05172500D02*
X-02747500Y-05172500D01*
G01X-02797500Y-05227500D02*
X-02797500Y-05172500D01*
G01X-02797500Y-04132500D02*
X-02797500Y-04267500D01*
G01X-02747500Y-04227500D02*
X-02797500Y-04227500D01*
G01X-02747500Y-04172500D02*
X-02747500Y-04227500D01*
G01X-02797500Y-04172500D02*
X-02747500Y-04172500D01*
G01X-02797500Y-04227500D02*
X-02797500Y-04172500D01*
G01X-02797500Y-03132500D02*
X-02797500Y-03267500D01*
G01X-02747500Y-03227500D02*
X-02797500Y-03227500D01*
G01X-02747500Y-03172500D02*
X-02747500Y-03227500D01*
G01X-02797500Y-03172500D02*
X-02747500Y-03172500D01*
G01X-02797500Y-03227500D02*
X-02797500Y-03172500D01*
G01X-02797500Y-02132500D02*
X-02797500Y-02267500D01*
G01X-02747500Y-02227500D02*
X-02797500Y-02227500D01*
G01X-02747500Y-02172500D02*
X-02747500Y-02227500D01*
G01X-02797500Y-02227500D02*
X-02797500Y-02172500D01*
G01X-02797500Y-02172500D02*
X-02747500Y-02172500D01*
G01X-02797500Y-01132500D02*
X-02797500Y-01267500D01*
G01X-02747500Y-01227500D02*
X-02797500Y-01227500D01*
G01X-02747500Y-01172500D02*
X-02747500Y-01227500D01*
G01X-02797500Y-01172500D02*
X-02747500Y-01172500D01*
G01X-02797500Y-01227500D02*
X-02797500Y-01172500D01*
G01X-02797500Y-00132500D02*
X-02797500Y-00267500D01*
G01X-02747500Y-00227500D02*
X-02797500Y-00227500D01*
G01X-02747500Y-00172500D02*
X-02747500Y-00227500D01*
G01X-02797500Y-00172500D02*
X-02747500Y-00172500D01*
G01X-02797500Y-00227500D02*
X-02797500Y-00172500D01*
G01X-02797500Y00867500D02*
X-02797500Y00732500D01*
G01X-02747500Y00772500D02*
X-02797500Y00772500D01*
G01X-02747500Y00827500D02*
X-02747500Y00772500D01*
G01X-02797500Y00772500D02*
X-02797500Y00827500D01*
G01X-02797500Y00827500D02*
X-02747500Y00827500D01*
G01X-02092490Y-06132270D02*
X-02021710Y-06225400D01*
G01X-02057100Y-06242330D02*
X-02057100Y-06115330D01*
G01X-02021710Y-06132270D02*
X-02092490Y-06225400D01*
G01X-02105360Y-06178830D02*
X-02008840Y-06178830D01*
G01X-02104930Y-06136500D02*
X-02104930Y-06263500D01*
X-02072760Y-06263500D01*
X-02059890Y-06257150D01*
X-02050240Y-06248680D01*
X-02042190Y-06235990D01*
X-02035760Y-06221160D01*
X-02034150Y-06200000D01*
X-02035760Y-06178830D01*
X-02042190Y-06164010D01*
X-02050240Y-06151310D01*
X-02059890Y-06142850D01*
X-02072760Y-06136500D01*
X-02104930Y-06136500D01*
G01X-01940000Y-06136500D02*
X-01928740Y-06138620D01*
X-01915870Y-06144960D01*
X-01907830Y-06155550D01*
X-01904610Y-06170370D01*
X-01907830Y-06185180D01*
X-01917480Y-06197880D01*
X-01931960Y-06204230D01*
X-01948040Y-06204230D01*
X-01957700Y-06208470D01*
X-01965740Y-06219050D01*
X-01968960Y-06233870D01*
X-01964130Y-06248680D01*
X-01952870Y-06259270D01*
X-01940000Y-06263500D01*
X-01927130Y-06259270D01*
X-01915870Y-06248680D01*
X-01911040Y-06233870D01*
X-01914260Y-06219050D01*
X-01922300Y-06208470D01*
X-01931960Y-06204230D01*
X-01948040Y-06204230D01*
X-01962520Y-06197880D01*
X-01972170Y-06185180D01*
X-01975390Y-06170370D01*
X-01972170Y-06155550D01*
X-01964130Y-06144960D01*
X-01951260Y-06138620D01*
X-01940000Y-06136500D01*
G01X-01841030Y-06242330D02*
X-01831370Y-06255030D01*
X-01820110Y-06261380D01*
X-01807240Y-06263500D01*
X-01791160Y-06259270D01*
X-01779890Y-06248680D01*
X-01776680Y-06235990D01*
X-01778290Y-06223280D01*
X-01784720Y-06212700D01*
X-01816890Y-06191530D01*
X-01831370Y-06176720D01*
X-01841030Y-06155550D01*
X-01844240Y-06136500D01*
X-01776680Y-06136500D01*
G01X-02082500Y-06267500D02*
X-02082500Y-06132500D01*
G01X-01797500Y-06267500D02*
X-02082500Y-06267500D01*
G01X-01797500Y-06132500D02*
X-01797500Y-06267500D01*
G01X-02082500Y-06132500D02*
X-01797500Y-06132500D01*
G01X-02082500Y-06166250D02*
X-02048750Y-06132500D01*
G01X-02082500Y-06233750D02*
X-02048750Y-06267500D01*
G01X-01747500Y-06227500D02*
X-01797500Y-06227500D01*
G01X-01797500Y-06172500D02*
X-01747500Y-06172500D01*
G01X-01797500Y-06227500D02*
X-01797500Y-06172500D01*
G01X-02132500Y-06172500D02*
X-02082500Y-06172500D01*
G01X-02132500Y-06227500D02*
X-02132500Y-06172500D01*
G01X-02082500Y-06227500D02*
X-02132500Y-06227500D01*
G01X-02082500Y-06172500D02*
X-02082500Y-06227500D01*
G01X-02092490Y-05132270D02*
X-02021710Y-05225400D01*
G01X-02057100Y-05242330D02*
X-02057100Y-05115330D01*
G01X-02021710Y-05132270D02*
X-02092490Y-05225400D01*
G01X-02105360Y-05178830D02*
X-02008840Y-05178830D01*
G01X-02104930Y-05136500D02*
X-02104930Y-05263500D01*
X-02072760Y-05263500D01*
X-02059890Y-05257150D01*
X-02050240Y-05248680D01*
X-02042190Y-05235990D01*
X-02035760Y-05221160D01*
X-02034150Y-05200000D01*
X-02035760Y-05178830D01*
X-02042190Y-05164010D01*
X-02050240Y-05151310D01*
X-02059890Y-05142850D01*
X-02072760Y-05136500D01*
X-02104930Y-05136500D01*
G01X-01943220Y-05136500D02*
X-01940000Y-05164010D01*
X-01935170Y-05187300D01*
X-01928740Y-05208470D01*
X-01920700Y-05231750D01*
X-01907830Y-05263500D01*
X-01972170Y-05263500D01*
G01X-01810460Y-05136500D02*
X-01810460Y-05263500D01*
X-01829760Y-05238100D01*
G01X-01829760Y-05136500D02*
X-01791160Y-05136500D01*
G01X-02082500Y-05267500D02*
X-02082500Y-05132500D01*
G01X-01797500Y-05267500D02*
X-02082500Y-05267500D01*
G01X-01797500Y-05132500D02*
X-01797500Y-05267500D01*
G01X-02082500Y-05166250D02*
X-02048750Y-05132500D01*
G01X-02082500Y-05233750D02*
X-02048750Y-05267500D01*
G01X-01747500Y-05227500D02*
X-01797500Y-05227500D01*
G01X-01797500Y-05172500D02*
X-01747500Y-05172500D01*
G01X-01797500Y-05227500D02*
X-01797500Y-05172500D01*
G01X-02132500Y-05172500D02*
X-02082500Y-05172500D01*
G01X-02132500Y-05227500D02*
X-02132500Y-05172500D01*
G01X-02082500Y-05227500D02*
X-02132500Y-05227500D01*
G01X-02082500Y-05172500D02*
X-02082500Y-05227500D01*
G01X-02082500Y-05132500D02*
X-01797500Y-05132500D01*
G01X-02092490Y-04132270D02*
X-02021710Y-04225400D01*
G01X-02057100Y-04242330D02*
X-02057100Y-04115330D01*
G01X-02021710Y-04132270D02*
X-02092490Y-04225400D01*
G01X-02105360Y-04178830D02*
X-02008840Y-04178830D01*
G01X-02104930Y-04136500D02*
X-02104930Y-04263500D01*
X-02072760Y-04263500D01*
X-02059890Y-04257150D01*
X-02050240Y-04248680D01*
X-02042190Y-04235990D01*
X-02035760Y-04221160D01*
X-02034150Y-04200000D01*
X-02035760Y-04178830D01*
X-02042190Y-04164010D01*
X-02050240Y-04151310D01*
X-02059890Y-04142850D01*
X-02072760Y-04136500D01*
X-02104930Y-04136500D01*
G01X-01970570Y-04189410D02*
X-01959300Y-04204230D01*
X-01949650Y-04212700D01*
X-01936780Y-04216930D01*
X-01925520Y-04212700D01*
X-01917480Y-04204230D01*
X-01911040Y-04191530D01*
X-01909430Y-04176720D01*
X-01911040Y-04164010D01*
X-01917480Y-04151310D01*
X-01927130Y-04140730D01*
X-01938390Y-04136500D01*
X-01951260Y-04140730D01*
X-01962520Y-04153430D01*
X-01968960Y-04172480D01*
X-01970570Y-04193650D01*
X-01967350Y-04221160D01*
X-01962520Y-04235990D01*
X-01954480Y-04250800D01*
X-01943220Y-04261380D01*
X-01931960Y-04263500D01*
X-01920700Y-04259270D01*
X-01912650Y-04248680D01*
G01X-01810460Y-04263500D02*
X-01823330Y-04259270D01*
X-01832980Y-04248680D01*
X-01839420Y-04235990D01*
X-01844240Y-04219050D01*
X-01845850Y-04200000D01*
X-01844240Y-04180950D01*
X-01839420Y-04164010D01*
X-01832980Y-04151310D01*
X-01823330Y-04140730D01*
X-01810460Y-04136500D01*
X-01797590Y-04140730D01*
X-01787940Y-04151310D01*
X-01781500Y-04164010D01*
X-01776680Y-04180950D01*
X-01775070Y-04200000D01*
X-01776680Y-04219050D01*
X-01781500Y-04235990D01*
X-01787940Y-04248680D01*
X-01797590Y-04259270D01*
X-01810460Y-04263500D01*
G01X-02082500Y-04267500D02*
X-02082500Y-04132500D01*
G01X-01797500Y-04267500D02*
X-02082500Y-04267500D01*
G01X-01797500Y-04132500D02*
X-01797500Y-04267500D01*
G01X-02082500Y-04132500D02*
X-01797500Y-04132500D01*
G01X-02082500Y-04166250D02*
X-02048750Y-04132500D01*
G01X-02082500Y-04233750D02*
X-02048750Y-04267500D01*
G01X-01747500Y-04227500D02*
X-01797500Y-04227500D01*
G01X-01797500Y-04172500D02*
X-01747500Y-04172500D01*
G01X-01797500Y-04227500D02*
X-01797500Y-04172500D01*
G01X-02132500Y-04172500D02*
X-02082500Y-04172500D01*
G01X-02132500Y-04227500D02*
X-02132500Y-04172500D01*
G01X-02082500Y-04227500D02*
X-02132500Y-04227500D01*
G01X-02082500Y-04172500D02*
X-02082500Y-04227500D01*
G01X-02092490Y-03132270D02*
X-02021710Y-03225400D01*
G01X-02057100Y-03242330D02*
X-02057100Y-03115330D01*
G01X-02021710Y-03132270D02*
X-02092490Y-03225400D01*
G01X-02105360Y-03178830D02*
X-02008840Y-03178830D01*
G01X-02104930Y-03136500D02*
X-02104930Y-03263500D01*
X-02072760Y-03263500D01*
X-02059890Y-03257150D01*
X-02050240Y-03248680D01*
X-02042190Y-03235990D01*
X-02035760Y-03221160D01*
X-02034150Y-03200000D01*
X-02035760Y-03178830D01*
X-02042190Y-03164010D01*
X-02050240Y-03151310D01*
X-02059890Y-03142850D01*
X-02072760Y-03136500D01*
X-02104930Y-03136500D01*
G01X-01920700Y-03136500D02*
X-01920700Y-03263500D01*
X-01980220Y-03172480D01*
X-01899780Y-03172480D01*
G01X-01837810Y-03151310D02*
X-01826550Y-03140730D01*
X-01813680Y-03136500D01*
X-01800810Y-03140730D01*
X-01789550Y-03153430D01*
X-01781500Y-03172480D01*
X-01778290Y-03191530D01*
X-01778290Y-03214820D01*
X-01781500Y-03233870D01*
X-01789550Y-03250800D01*
X-01799200Y-03259270D01*
X-01810460Y-03263500D01*
X-01823330Y-03259270D01*
X-01832980Y-03250800D01*
X-01839420Y-03238100D01*
X-01842630Y-03221160D01*
X-01839420Y-03206350D01*
X-01831370Y-03191530D01*
X-01821720Y-03183060D01*
X-01810460Y-03180950D01*
X-01797590Y-03185180D01*
X-01787940Y-03195770D01*
X-01778290Y-03214820D01*
G01X-02082500Y-03267500D02*
X-02082500Y-03132500D01*
G01X-01797500Y-03267500D02*
X-02082500Y-03267500D01*
G01X-01797500Y-03132500D02*
X-01797500Y-03267500D01*
G01X-02082500Y-03132500D02*
X-01797500Y-03132500D01*
G01X-02082500Y-03166250D02*
X-02048750Y-03132500D01*
G01X-02082500Y-03233750D02*
X-02048750Y-03267500D01*
G01X-01747500Y-03227500D02*
X-01797500Y-03227500D01*
G01X-01797500Y-03172500D02*
X-01747500Y-03172500D01*
G01X-01797500Y-03227500D02*
X-01797500Y-03172500D01*
G01X-02132500Y-03172500D02*
X-02082500Y-03172500D01*
G01X-02132500Y-03227500D02*
X-02132500Y-03172500D01*
G01X-02082500Y-03227500D02*
X-02132500Y-03227500D01*
G01X-02082500Y-03172500D02*
X-02082500Y-03227500D01*
G01X-02092490Y-02132270D02*
X-02021710Y-02225400D01*
G01X-02057100Y-02242330D02*
X-02057100Y-02115330D01*
G01X-02021710Y-02132270D02*
X-02092490Y-02225400D01*
G01X-02105360Y-02178830D02*
X-02008840Y-02178830D01*
G01X-02104930Y-02136500D02*
X-02104930Y-02263500D01*
X-02072760Y-02263500D01*
X-02059890Y-02257150D01*
X-02050240Y-02248680D01*
X-02042190Y-02235990D01*
X-02035760Y-02221160D01*
X-02034150Y-02200000D01*
X-02035760Y-02178830D01*
X-02042190Y-02164010D01*
X-02050240Y-02151310D01*
X-02059890Y-02142850D01*
X-02072760Y-02136500D01*
X-02104930Y-02136500D01*
G01X-01975390Y-02161900D02*
X-01965740Y-02147080D01*
X-01952870Y-02138620D01*
X-01938390Y-02136500D01*
X-01925520Y-02138620D01*
X-01912650Y-02149200D01*
X-01904610Y-02161900D01*
X-01903000Y-02174600D01*
X-01906220Y-02189410D01*
X-01917480Y-02200000D01*
X-01928740Y-02204230D01*
X-01943220Y-02204230D01*
G01X-01928740Y-02204230D02*
X-01919090Y-02210580D01*
X-01911040Y-02221160D01*
X-01907830Y-02233870D01*
X-01911040Y-02246570D01*
X-01919090Y-02257150D01*
X-01933570Y-02263500D01*
X-01948040Y-02261380D01*
X-01962520Y-02252920D01*
G01X-01810460Y-02136500D02*
X-01799200Y-02138620D01*
X-01786330Y-02144960D01*
X-01778290Y-02155550D01*
X-01775070Y-02170370D01*
X-01778290Y-02185180D01*
X-01787940Y-02197880D01*
X-01802420Y-02204230D01*
X-01818500Y-02204230D01*
X-01828160Y-02208470D01*
X-01836200Y-02219050D01*
X-01839420Y-02233870D01*
X-01834590Y-02248680D01*
X-01823330Y-02259270D01*
X-01810460Y-02263500D01*
X-01797590Y-02259270D01*
X-01786330Y-02248680D01*
X-01781500Y-02233870D01*
X-01784720Y-02219050D01*
X-01792760Y-02208470D01*
X-01802420Y-02204230D01*
X-01818500Y-02204230D01*
X-01832980Y-02197880D01*
X-01842630Y-02185180D01*
X-01845850Y-02170370D01*
X-01842630Y-02155550D01*
X-01834590Y-02144960D01*
X-01821720Y-02138620D01*
X-01810460Y-02136500D01*
G01X-02082500Y-02267500D02*
X-02082500Y-02132500D01*
G01X-01797500Y-02267500D02*
X-02082500Y-02267500D01*
G01X-01797500Y-02132500D02*
X-01797500Y-02267500D01*
G01X-02082500Y-02233750D02*
X-02048750Y-02267500D01*
G01X-01747500Y-02227500D02*
X-01797500Y-02227500D01*
G01X-01797500Y-02227500D02*
X-01797500Y-02172500D01*
G01X-02132500Y-02227500D02*
X-02132500Y-02172500D01*
G01X-02082500Y-02227500D02*
X-02132500Y-02227500D01*
G01X-02082500Y-02172500D02*
X-02082500Y-02227500D01*
G01X-02082500Y-02132500D02*
X-01797500Y-02132500D01*
G01X-02082500Y-02166250D02*
X-02048750Y-02132500D01*
G01X-01797500Y-02172500D02*
X-01747500Y-02172500D01*
G01X-02132500Y-02172500D02*
X-02082500Y-02172500D01*
G01X-02092490Y-01132270D02*
X-02021710Y-01225400D01*
G01X-02057100Y-01242330D02*
X-02057100Y-01115330D01*
G01X-02021710Y-01132270D02*
X-02092490Y-01225400D01*
G01X-02105360Y-01178830D02*
X-02008840Y-01178830D01*
G01X-02104930Y-01136500D02*
X-02104930Y-01263500D01*
X-02072760Y-01263500D01*
X-02059890Y-01257150D01*
X-02050240Y-01248680D01*
X-02042190Y-01235990D01*
X-02035760Y-01221160D01*
X-02034150Y-01200000D01*
X-02035760Y-01178830D01*
X-02042190Y-01164010D01*
X-02050240Y-01151310D01*
X-02059890Y-01142850D01*
X-02072760Y-01136500D01*
X-02104930Y-01136500D01*
G01X-01970570Y-01242330D02*
X-01960910Y-01255030D01*
X-01949650Y-01261380D01*
X-01936780Y-01263500D01*
X-01920700Y-01259270D01*
X-01909430Y-01248680D01*
X-01906220Y-01235990D01*
X-01907830Y-01223280D01*
X-01914260Y-01212700D01*
X-01946430Y-01191530D01*
X-01960910Y-01176720D01*
X-01970570Y-01155550D01*
X-01973780Y-01136500D01*
X-01906220Y-01136500D01*
G01X-01813680Y-01136500D02*
X-01810460Y-01164010D01*
X-01805630Y-01187300D01*
X-01799200Y-01208470D01*
X-01791160Y-01231750D01*
X-01778290Y-01263500D01*
X-01842630Y-01263500D01*
G01X-02082500Y-01267500D02*
X-02082500Y-01132500D01*
G01X-01797500Y-01267500D02*
X-02082500Y-01267500D01*
G01X-01797500Y-01132500D02*
X-01797500Y-01267500D01*
G01X-02082500Y-01132500D02*
X-01797500Y-01132500D01*
G01X-02082500Y-01166250D02*
X-02048750Y-01132500D01*
G01X-02082500Y-01233750D02*
X-02048750Y-01267500D01*
G01X-01747500Y-01227500D02*
X-01797500Y-01227500D01*
G01X-01797500Y-01172500D02*
X-01747500Y-01172500D01*
G01X-01797500Y-01227500D02*
X-01797500Y-01172500D01*
G01X-02132500Y-01172500D02*
X-02082500Y-01172500D01*
G01X-02132500Y-01227500D02*
X-02132500Y-01172500D01*
G01X-02082500Y-01227500D02*
X-02132500Y-01227500D01*
G01X-02082500Y-01172500D02*
X-02082500Y-01227500D01*
G01X-02092490Y-00132270D02*
X-02021710Y-00225400D01*
G01X-02057100Y-00242330D02*
X-02057100Y-00115330D01*
G01X-02021710Y-00132270D02*
X-02092490Y-00225400D01*
G01X-02105360Y-00178830D02*
X-02008840Y-00178830D01*
G01X-02104930Y-00136500D02*
X-02104930Y-00263500D01*
X-02072760Y-00263500D01*
X-02059890Y-00257150D01*
X-02050240Y-00248680D01*
X-02042190Y-00235990D01*
X-02035760Y-00221160D01*
X-02034150Y-00200000D01*
X-02035760Y-00178830D01*
X-02042190Y-00164010D01*
X-02050240Y-00151310D01*
X-02059890Y-00142850D01*
X-02072760Y-00136500D01*
X-02104930Y-00136500D01*
G01X-01940000Y-00136500D02*
X-01940000Y-00263500D01*
X-01959300Y-00238100D01*
G01X-01959300Y-00136500D02*
X-01920700Y-00136500D01*
G01X-01841030Y-00189410D02*
X-01829760Y-00204230D01*
X-01820110Y-00212700D01*
X-01807240Y-00216930D01*
X-01795980Y-00212700D01*
X-01787940Y-00204230D01*
X-01781500Y-00191530D01*
X-01779890Y-00176720D01*
X-01781500Y-00164010D01*
X-01787940Y-00151310D01*
X-01797590Y-00140730D01*
X-01808850Y-00136500D01*
X-01821720Y-00140730D01*
X-01832980Y-00153430D01*
X-01839420Y-00172480D01*
X-01841030Y-00193650D01*
X-01837810Y-00221160D01*
X-01832980Y-00235990D01*
X-01824940Y-00250800D01*
X-01813680Y-00261380D01*
X-01802420Y-00263500D01*
X-01791160Y-00259270D01*
X-01783110Y-00248680D01*
G01X-02082500Y-00267500D02*
X-02082500Y-00132500D01*
G01X-01797500Y-00267500D02*
X-02082500Y-00267500D01*
G01X-01797500Y-00132500D02*
X-01797500Y-00267500D01*
G01X-02082500Y-00132500D02*
X-01797500Y-00132500D01*
G01X-02082500Y-00166250D02*
X-02048750Y-00132500D01*
G01X-02082500Y-00233750D02*
X-02048750Y-00267500D01*
G01X-01747500Y-00227500D02*
X-01797500Y-00227500D01*
G01X-01797500Y-00172500D02*
X-01747500Y-00172500D01*
G01X-01797500Y-00227500D02*
X-01797500Y-00172500D01*
G01X-02132500Y-00172500D02*
X-02082500Y-00172500D01*
G01X-02132500Y-00227500D02*
X-02132500Y-00172500D01*
G01X-02082500Y-00227500D02*
X-02132500Y-00227500D01*
G01X-02082500Y-00172500D02*
X-02082500Y-00227500D01*
G01X-02092490Y00867730D02*
X-02021710Y00774600D01*
G01X-02057100Y00757670D02*
X-02057100Y00884670D01*
G01X-02021710Y00867730D02*
X-02092490Y00774600D01*
G01X-02105360Y00821170D02*
X-02008840Y00821170D01*
G01X-02040160Y00863500D02*
X-02040160Y00736500D01*
X-02007990Y00736500D01*
X-01995120Y00742850D01*
X-01985470Y00751320D01*
X-01977420Y00764010D01*
X-01970990Y00778840D01*
X-01969380Y00800000D01*
X-01970990Y00821170D01*
X-01977420Y00835990D01*
X-01985470Y00848690D01*
X-01995120Y00857150D01*
X-02007990Y00863500D01*
X-02040160Y00863500D01*
G01X-01910620Y00844450D02*
X-01900970Y00855040D01*
X-01889710Y00861380D01*
X-01875230Y00863500D01*
X-01860750Y00859270D01*
X-01849490Y00850800D01*
X-01841450Y00835990D01*
X-01839840Y00819050D01*
X-01843060Y00802120D01*
X-01851100Y00791530D01*
X-01862360Y00783070D01*
X-01873620Y00780950D01*
X-01884880Y00783070D01*
X-01899360Y00791530D01*
X-01894530Y00736500D01*
X-01851100Y00736500D01*
G01X-02082500Y00732500D02*
X-02082500Y00867500D01*
G01X-01797500Y00732500D02*
X-02082500Y00732500D01*
G01X-01797500Y00867500D02*
X-01797500Y00732500D01*
G01X-02082500Y00766250D02*
X-02048750Y00732500D01*
G01X-01747500Y00772500D02*
X-01797500Y00772500D01*
G01X-01797500Y00772500D02*
X-01797500Y00827500D01*
G01X-02132500Y00772500D02*
X-02132500Y00827500D01*
G01X-02082500Y00772500D02*
X-02132500Y00772500D01*
G01X-02082500Y00827500D02*
X-02082500Y00772500D01*
G01X-02082500Y00867500D02*
X-01797500Y00867500D01*
G01X-02082500Y00833750D02*
X-02048750Y00867500D01*
G01X-01797500Y00827500D02*
X-01747500Y00827500D01*
G01X-02132500Y00827500D02*
X-02082500Y00827500D01*
G01X-01747500Y-06172500D02*
X-01747500Y-06227500D01*
G01X-01747500Y-05172500D02*
X-01747500Y-05227500D01*
G01X-01747500Y-04172500D02*
X-01747500Y-04227500D01*
G01X-01747500Y-03172500D02*
X-01747500Y-03227500D01*
G01X-01747500Y-02172500D02*
X-01747500Y-02227500D01*
G01X-01747500Y-01172500D02*
X-01747500Y-01227500D01*
G01X-01747500Y-00172500D02*
X-01747500Y-00227500D01*
G01X-01747500Y00827500D02*
X-01747500Y00772500D01*
G01X-01092490Y-06132270D02*
X-01021710Y-06225400D01*
G01X-01057100Y-06242330D02*
X-01057100Y-06115330D01*
G01X-01021710Y-06132270D02*
X-01092490Y-06225400D01*
G01X-01105360Y-06178830D02*
X-01008840Y-06178830D01*
G01X-01104930Y-06136500D02*
X-01104930Y-06263500D01*
X-01072760Y-06263500D01*
X-01059890Y-06257150D01*
X-01050240Y-06248680D01*
X-01042190Y-06235990D01*
X-01035760Y-06221160D01*
X-01034150Y-06200000D01*
X-01035760Y-06178830D01*
X-01042190Y-06164010D01*
X-01050240Y-06151310D01*
X-01059890Y-06142850D01*
X-01072760Y-06136500D01*
X-01104930Y-06136500D01*
G01X-00940000Y-06136500D02*
X-00928740Y-06138620D01*
X-00915870Y-06144960D01*
X-00907830Y-06155550D01*
X-00904610Y-06170370D01*
X-00907830Y-06185180D01*
X-00917480Y-06197880D01*
X-00931960Y-06204230D01*
X-00948040Y-06204230D01*
X-00957700Y-06208470D01*
X-00965740Y-06219050D01*
X-00968960Y-06233870D01*
X-00964130Y-06248680D01*
X-00952870Y-06259270D01*
X-00940000Y-06263500D01*
X-00927130Y-06259270D01*
X-00915870Y-06248680D01*
X-00911040Y-06233870D01*
X-00914260Y-06219050D01*
X-00922300Y-06208470D01*
X-00931960Y-06204230D01*
X-00948040Y-06204230D01*
X-00962520Y-06197880D01*
X-00972170Y-06185180D01*
X-00975390Y-06170370D01*
X-00972170Y-06155550D01*
X-00964130Y-06144960D01*
X-00951260Y-06138620D01*
X-00940000Y-06136500D01*
G01X-00845850Y-06161900D02*
X-00836200Y-06147080D01*
X-00823330Y-06138620D01*
X-00808850Y-06136500D01*
X-00795980Y-06138620D01*
X-00783110Y-06149200D01*
X-00775070Y-06161900D01*
X-00773460Y-06174600D01*
X-00776680Y-06189410D01*
X-00787940Y-06200000D01*
X-00799200Y-06204230D01*
X-00813680Y-06204230D01*
G01X-00799200Y-06204230D02*
X-00789550Y-06210580D01*
X-00781500Y-06221160D01*
X-00778290Y-06233870D01*
X-00781500Y-06246570D01*
X-00789550Y-06257150D01*
X-00804030Y-06263500D01*
X-00818500Y-06261380D01*
X-00832980Y-06252920D01*
G01X-01082500Y-06267500D02*
X-01082500Y-06132500D01*
G01X-00797500Y-06267500D02*
X-01082500Y-06267500D01*
G01X-00797500Y-06132500D02*
X-00797500Y-06267500D01*
G01X-01082500Y-06132500D02*
X-00797500Y-06132500D01*
G01X-01082500Y-06166250D02*
X-01048750Y-06132500D01*
G01X-01082500Y-06233750D02*
X-01048750Y-06267500D01*
G01X-00747500Y-06227500D02*
X-00797500Y-06227500D01*
G01X-00747500Y-06172500D02*
X-00747500Y-06227500D01*
G01X-00797500Y-06172500D02*
X-00747500Y-06172500D01*
G01X-00797500Y-06227500D02*
X-00797500Y-06172500D01*
G01X-01132500Y-06172500D02*
X-01082500Y-06172500D01*
G01X-01132500Y-06227500D02*
X-01132500Y-06172500D01*
G01X-01082500Y-06227500D02*
X-01132500Y-06227500D01*
G01X-01082500Y-06172500D02*
X-01082500Y-06227500D01*
G01X-01092490Y-05132270D02*
X-01021710Y-05225400D01*
G01X-01057100Y-05242330D02*
X-01057100Y-05115330D01*
G01X-01021710Y-05132270D02*
X-01092490Y-05225400D01*
G01X-01105360Y-05178830D02*
X-01008840Y-05178830D01*
G01X-01104930Y-05136500D02*
X-01104930Y-05263500D01*
X-01072760Y-05263500D01*
X-01059890Y-05257150D01*
X-01050240Y-05248680D01*
X-01042190Y-05235990D01*
X-01035760Y-05221160D01*
X-01034150Y-05200000D01*
X-01035760Y-05178830D01*
X-01042190Y-05164010D01*
X-01050240Y-05151310D01*
X-01059890Y-05142850D01*
X-01072760Y-05136500D01*
X-01104930Y-05136500D01*
G01X-00943220Y-05136500D02*
X-00940000Y-05164010D01*
X-00935170Y-05187300D01*
X-00928740Y-05208470D01*
X-00920700Y-05231750D01*
X-00907830Y-05263500D01*
X-00972170Y-05263500D01*
G01X-00841030Y-05242330D02*
X-00831370Y-05255030D01*
X-00820110Y-05261380D01*
X-00807240Y-05263500D01*
X-00791160Y-05259270D01*
X-00779890Y-05248680D01*
X-00776680Y-05235990D01*
X-00778290Y-05223280D01*
X-00784720Y-05212700D01*
X-00816890Y-05191530D01*
X-00831370Y-05176720D01*
X-00841030Y-05155550D01*
X-00844240Y-05136500D01*
X-00776680Y-05136500D01*
G01X-01082500Y-05267500D02*
X-01082500Y-05132500D01*
G01X-00797500Y-05267500D02*
X-01082500Y-05267500D01*
G01X-00797500Y-05132500D02*
X-00797500Y-05267500D01*
G01X-01082500Y-05166250D02*
X-01048750Y-05132500D01*
G01X-01082500Y-05233750D02*
X-01048750Y-05267500D01*
G01X-00747500Y-05227500D02*
X-00797500Y-05227500D01*
G01X-00747500Y-05172500D02*
X-00747500Y-05227500D01*
G01X-00797500Y-05172500D02*
X-00747500Y-05172500D01*
G01X-00797500Y-05227500D02*
X-00797500Y-05172500D01*
G01X-01132500Y-05172500D02*
X-01082500Y-05172500D01*
G01X-01132500Y-05227500D02*
X-01132500Y-05172500D01*
G01X-01082500Y-05227500D02*
X-01132500Y-05227500D01*
G01X-01082500Y-05172500D02*
X-01082500Y-05227500D01*
G01X-01082500Y-05132500D02*
X-00797500Y-05132500D01*
G01X-01092490Y-04132270D02*
X-01021710Y-04225400D01*
G01X-01057100Y-04242330D02*
X-01057100Y-04115330D01*
G01X-01021710Y-04132270D02*
X-01092490Y-04225400D01*
G01X-01105360Y-04178830D02*
X-01008840Y-04178830D01*
G01X-01104930Y-04136500D02*
X-01104930Y-04263500D01*
X-01072760Y-04263500D01*
X-01059890Y-04257150D01*
X-01050240Y-04248680D01*
X-01042190Y-04235990D01*
X-01035760Y-04221160D01*
X-01034150Y-04200000D01*
X-01035760Y-04178830D01*
X-01042190Y-04164010D01*
X-01050240Y-04151310D01*
X-01059890Y-04142850D01*
X-01072760Y-04136500D01*
X-01104930Y-04136500D01*
G01X-00970570Y-04189410D02*
X-00959300Y-04204230D01*
X-00949650Y-04212700D01*
X-00936780Y-04216930D01*
X-00925520Y-04212700D01*
X-00917480Y-04204230D01*
X-00911040Y-04191530D01*
X-00909430Y-04176720D01*
X-00911040Y-04164010D01*
X-00917480Y-04151310D01*
X-00927130Y-04140730D01*
X-00938390Y-04136500D01*
X-00951260Y-04140730D01*
X-00962520Y-04153430D01*
X-00968960Y-04172480D01*
X-00970570Y-04193650D01*
X-00967350Y-04221160D01*
X-00962520Y-04235990D01*
X-00954480Y-04250800D01*
X-00943220Y-04261380D01*
X-00931960Y-04263500D01*
X-00920700Y-04259270D01*
X-00912650Y-04248680D01*
G01X-00810460Y-04136500D02*
X-00810460Y-04263500D01*
X-00829760Y-04238100D01*
G01X-00829760Y-04136500D02*
X-00791160Y-04136500D01*
G01X-01082500Y-04267500D02*
X-01082500Y-04132500D01*
G01X-00797500Y-04267500D02*
X-01082500Y-04267500D01*
G01X-00797500Y-04132500D02*
X-00797500Y-04267500D01*
G01X-01082500Y-04132500D02*
X-00797500Y-04132500D01*
G01X-01082500Y-04166250D02*
X-01048750Y-04132500D01*
G01X-01082500Y-04233750D02*
X-01048750Y-04267500D01*
G01X-00747500Y-04227500D02*
X-00797500Y-04227500D01*
G01X-00747500Y-04172500D02*
X-00747500Y-04227500D01*
G01X-00797500Y-04172500D02*
X-00747500Y-04172500D01*
G01X-00797500Y-04227500D02*
X-00797500Y-04172500D01*
G01X-01132500Y-04172500D02*
X-01082500Y-04172500D01*
G01X-01132500Y-04227500D02*
X-01132500Y-04172500D01*
G01X-01082500Y-04227500D02*
X-01132500Y-04227500D01*
G01X-01082500Y-04172500D02*
X-01082500Y-04227500D01*
G01X-01092490Y-03132270D02*
X-01021710Y-03225400D01*
G01X-01057100Y-03242330D02*
X-01057100Y-03115330D01*
G01X-01021710Y-03132270D02*
X-01092490Y-03225400D01*
G01X-01105360Y-03178830D02*
X-01008840Y-03178830D01*
G01X-01104930Y-03136500D02*
X-01104930Y-03263500D01*
X-01072760Y-03263500D01*
X-01059890Y-03257150D01*
X-01050240Y-03248680D01*
X-01042190Y-03235990D01*
X-01035760Y-03221160D01*
X-01034150Y-03200000D01*
X-01035760Y-03178830D01*
X-01042190Y-03164010D01*
X-01050240Y-03151310D01*
X-01059890Y-03142850D01*
X-01072760Y-03136500D01*
X-01104930Y-03136500D01*
G01X-00975390Y-03155550D02*
X-00965740Y-03144960D01*
X-00954480Y-03138620D01*
X-00940000Y-03136500D01*
X-00925520Y-03140730D01*
X-00914260Y-03149200D01*
X-00906220Y-03164010D01*
X-00904610Y-03180950D01*
X-00907830Y-03197880D01*
X-00915870Y-03208470D01*
X-00927130Y-03216930D01*
X-00938390Y-03219050D01*
X-00949650Y-03216930D01*
X-00964130Y-03208470D01*
X-00959300Y-03263500D01*
X-00915870Y-03263500D01*
G01X-00810460Y-03263500D02*
X-00823330Y-03259270D01*
X-00832980Y-03248680D01*
X-00839420Y-03235990D01*
X-00844240Y-03219050D01*
X-00845850Y-03200000D01*
X-00844240Y-03180950D01*
X-00839420Y-03164010D01*
X-00832980Y-03151310D01*
X-00823330Y-03140730D01*
X-00810460Y-03136500D01*
X-00797590Y-03140730D01*
X-00787940Y-03151310D01*
X-00781500Y-03164010D01*
X-00776680Y-03180950D01*
X-00775070Y-03200000D01*
X-00776680Y-03219050D01*
X-00781500Y-03235990D01*
X-00787940Y-03248680D01*
X-00797590Y-03259270D01*
X-00810460Y-03263500D01*
G01X-01082500Y-03267500D02*
X-01082500Y-03132500D01*
G01X-00797500Y-03267500D02*
X-01082500Y-03267500D01*
G01X-00797500Y-03132500D02*
X-00797500Y-03267500D01*
G01X-01082500Y-03132500D02*
X-00797500Y-03132500D01*
G01X-01082500Y-03166250D02*
X-01048750Y-03132500D01*
G01X-01082500Y-03233750D02*
X-01048750Y-03267500D01*
G01X-00747500Y-03227500D02*
X-00797500Y-03227500D01*
G01X-00747500Y-03172500D02*
X-00747500Y-03227500D01*
G01X-00797500Y-03172500D02*
X-00747500Y-03172500D01*
G01X-00797500Y-03227500D02*
X-00797500Y-03172500D01*
G01X-01132500Y-03172500D02*
X-01082500Y-03172500D01*
G01X-01132500Y-03227500D02*
X-01132500Y-03172500D01*
G01X-01082500Y-03227500D02*
X-01132500Y-03227500D01*
G01X-01082500Y-03172500D02*
X-01082500Y-03227500D01*
G01X-01092490Y-02132270D02*
X-01021710Y-02225400D01*
G01X-01057100Y-02242330D02*
X-01057100Y-02115330D01*
G01X-01021710Y-02132270D02*
X-01092490Y-02225400D01*
G01X-01105360Y-02178830D02*
X-01008840Y-02178830D01*
G01X-01104930Y-02136500D02*
X-01104930Y-02263500D01*
X-01072760Y-02263500D01*
X-01059890Y-02257150D01*
X-01050240Y-02248680D01*
X-01042190Y-02235990D01*
X-01035760Y-02221160D01*
X-01034150Y-02200000D01*
X-01035760Y-02178830D01*
X-01042190Y-02164010D01*
X-01050240Y-02151310D01*
X-01059890Y-02142850D01*
X-01072760Y-02136500D01*
X-01104930Y-02136500D01*
G01X-00975390Y-02161900D02*
X-00965740Y-02147080D01*
X-00952870Y-02138620D01*
X-00938390Y-02136500D01*
X-00925520Y-02138620D01*
X-00912650Y-02149200D01*
X-00904610Y-02161900D01*
X-00903000Y-02174600D01*
X-00906220Y-02189410D01*
X-00917480Y-02200000D01*
X-00928740Y-02204230D01*
X-00943220Y-02204230D01*
G01X-00928740Y-02204230D02*
X-00919090Y-02210580D01*
X-00911040Y-02221160D01*
X-00907830Y-02233870D01*
X-00911040Y-02246570D01*
X-00919090Y-02257150D01*
X-00933570Y-02263500D01*
X-00948040Y-02261380D01*
X-00962520Y-02252920D01*
G01X-00837810Y-02151310D02*
X-00826550Y-02140730D01*
X-00813680Y-02136500D01*
X-00800810Y-02140730D01*
X-00789550Y-02153430D01*
X-00781500Y-02172480D01*
X-00778290Y-02191530D01*
X-00778290Y-02214820D01*
X-00781500Y-02233870D01*
X-00789550Y-02250800D01*
X-00799200Y-02259270D01*
X-00810460Y-02263500D01*
X-00823330Y-02259270D01*
X-00832980Y-02250800D01*
X-00839420Y-02238100D01*
X-00842630Y-02221160D01*
X-00839420Y-02206350D01*
X-00831370Y-02191530D01*
X-00821720Y-02183060D01*
X-00810460Y-02180950D01*
X-00797590Y-02185180D01*
X-00787940Y-02195770D01*
X-00778290Y-02214820D01*
G01X-01082500Y-02267500D02*
X-01082500Y-02132500D01*
G01X-00797500Y-02267500D02*
X-01082500Y-02267500D01*
G01X-00797500Y-02132500D02*
X-00797500Y-02267500D01*
G01X-01082500Y-02233750D02*
X-01048750Y-02267500D01*
G01X-00747500Y-02227500D02*
X-00797500Y-02227500D01*
G01X-00747500Y-02172500D02*
X-00747500Y-02227500D01*
G01X-00797500Y-02227500D02*
X-00797500Y-02172500D01*
G01X-01132500Y-02227500D02*
X-01132500Y-02172500D01*
G01X-01082500Y-02227500D02*
X-01132500Y-02227500D01*
G01X-01082500Y-02172500D02*
X-01082500Y-02227500D01*
G01X-01082500Y-02132500D02*
X-00797500Y-02132500D01*
G01X-01082500Y-02166250D02*
X-01048750Y-02132500D01*
G01X-00797500Y-02172500D02*
X-00747500Y-02172500D01*
G01X-01132500Y-02172500D02*
X-01082500Y-02172500D01*
G01X-01092490Y-01132270D02*
X-01021710Y-01225400D01*
G01X-01057100Y-01242330D02*
X-01057100Y-01115330D01*
G01X-01021710Y-01132270D02*
X-01092490Y-01225400D01*
G01X-01105360Y-01178830D02*
X-01008840Y-01178830D01*
G01X-01104930Y-01136500D02*
X-01104930Y-01263500D01*
X-01072760Y-01263500D01*
X-01059890Y-01257150D01*
X-01050240Y-01248680D01*
X-01042190Y-01235990D01*
X-01035760Y-01221160D01*
X-01034150Y-01200000D01*
X-01035760Y-01178830D01*
X-01042190Y-01164010D01*
X-01050240Y-01151310D01*
X-01059890Y-01142850D01*
X-01072760Y-01136500D01*
X-01104930Y-01136500D01*
G01X-00970570Y-01242330D02*
X-00960910Y-01255030D01*
X-00949650Y-01261380D01*
X-00936780Y-01263500D01*
X-00920700Y-01259270D01*
X-00909430Y-01248680D01*
X-00906220Y-01235990D01*
X-00907830Y-01223280D01*
X-00914260Y-01212700D01*
X-00946430Y-01191530D01*
X-00960910Y-01176720D01*
X-00970570Y-01155550D01*
X-00973780Y-01136500D01*
X-00906220Y-01136500D01*
G01X-00810460Y-01136500D02*
X-00799200Y-01138620D01*
X-00786330Y-01144960D01*
X-00778290Y-01155550D01*
X-00775070Y-01170370D01*
X-00778290Y-01185180D01*
X-00787940Y-01197880D01*
X-00802420Y-01204230D01*
X-00818500Y-01204230D01*
X-00828160Y-01208470D01*
X-00836200Y-01219050D01*
X-00839420Y-01233870D01*
X-00834590Y-01248680D01*
X-00823330Y-01259270D01*
X-00810460Y-01263500D01*
X-00797590Y-01259270D01*
X-00786330Y-01248680D01*
X-00781500Y-01233870D01*
X-00784720Y-01219050D01*
X-00792760Y-01208470D01*
X-00802420Y-01204230D01*
X-00818500Y-01204230D01*
X-00832980Y-01197880D01*
X-00842630Y-01185180D01*
X-00845850Y-01170370D01*
X-00842630Y-01155550D01*
X-00834590Y-01144960D01*
X-00821720Y-01138620D01*
X-00810460Y-01136500D01*
G01X-01082500Y-01267500D02*
X-01082500Y-01132500D01*
G01X-00797500Y-01267500D02*
X-01082500Y-01267500D01*
G01X-00797500Y-01132500D02*
X-00797500Y-01267500D01*
G01X-01082500Y-01132500D02*
X-00797500Y-01132500D01*
G01X-01082500Y-01166250D02*
X-01048750Y-01132500D01*
G01X-01082500Y-01233750D02*
X-01048750Y-01267500D01*
G01X-00747500Y-01227500D02*
X-00797500Y-01227500D01*
G01X-00747500Y-01172500D02*
X-00747500Y-01227500D01*
G01X-00797500Y-01172500D02*
X-00747500Y-01172500D01*
G01X-00797500Y-01227500D02*
X-00797500Y-01172500D01*
G01X-01132500Y-01172500D02*
X-01082500Y-01172500D01*
G01X-01132500Y-01227500D02*
X-01132500Y-01172500D01*
G01X-01082500Y-01227500D02*
X-01132500Y-01227500D01*
G01X-01082500Y-01172500D02*
X-01082500Y-01227500D01*
G01X-01092490Y-00132270D02*
X-01021710Y-00225400D01*
G01X-01057100Y-00242330D02*
X-01057100Y-00115330D01*
G01X-01021710Y-00132270D02*
X-01092490Y-00225400D01*
G01X-01105360Y-00178830D02*
X-01008840Y-00178830D01*
G01X-01104930Y-00136500D02*
X-01104930Y-00263500D01*
X-01072760Y-00263500D01*
X-01059890Y-00257150D01*
X-01050240Y-00248680D01*
X-01042190Y-00235990D01*
X-01035760Y-00221160D01*
X-01034150Y-00200000D01*
X-01035760Y-00178830D01*
X-01042190Y-00164010D01*
X-01050240Y-00151310D01*
X-01059890Y-00142850D01*
X-01072760Y-00136500D01*
X-01104930Y-00136500D01*
G01X-00940000Y-00136500D02*
X-00940000Y-00263500D01*
X-00959300Y-00238100D01*
G01X-00959300Y-00136500D02*
X-00920700Y-00136500D01*
G01X-00813680Y-00136500D02*
X-00810460Y-00164010D01*
X-00805630Y-00187300D01*
X-00799200Y-00208470D01*
X-00791160Y-00231750D01*
X-00778290Y-00263500D01*
X-00842630Y-00263500D01*
G01X-01082500Y-00267500D02*
X-01082500Y-00132500D01*
G01X-00797500Y-00267500D02*
X-01082500Y-00267500D01*
G01X-00797500Y-00132500D02*
X-00797500Y-00267500D01*
G01X-01082500Y-00132500D02*
X-00797500Y-00132500D01*
G01X-01082500Y-00166250D02*
X-01048750Y-00132500D01*
G01X-01082500Y-00233750D02*
X-01048750Y-00267500D01*
G01X-00747500Y-00227500D02*
X-00797500Y-00227500D01*
G01X-00747500Y-00172500D02*
X-00747500Y-00227500D01*
G01X-00797500Y-00172500D02*
X-00747500Y-00172500D01*
G01X-00797500Y-00227500D02*
X-00797500Y-00172500D01*
G01X-01132500Y-00172500D02*
X-01082500Y-00172500D01*
G01X-01132500Y-00227500D02*
X-01132500Y-00172500D01*
G01X-01082500Y-00227500D02*
X-01132500Y-00227500D01*
G01X-01082500Y-00172500D02*
X-01082500Y-00227500D01*
G01X-01092490Y00867730D02*
X-01021710Y00774600D01*
G01X-01057100Y00757670D02*
X-01057100Y00884670D01*
G01X-01021710Y00867730D02*
X-01092490Y00774600D01*
G01X-01105360Y00821170D02*
X-01008840Y00821170D01*
G01X-01040160Y00863500D02*
X-01040160Y00736500D01*
X-01007990Y00736500D01*
X-00995120Y00742850D01*
X-00985470Y00751320D01*
X-00977420Y00764010D01*
X-00970990Y00778840D01*
X-00969380Y00800000D01*
X-00970990Y00821170D01*
X-00977420Y00835990D01*
X-00985470Y00848690D01*
X-00995120Y00857150D01*
X-01007990Y00863500D01*
X-01040160Y00863500D01*
G01X-00905800Y00810590D02*
X-00894530Y00795770D01*
X-00884880Y00787300D01*
X-00872010Y00783070D01*
X-00860750Y00787300D01*
X-00852710Y00795770D01*
X-00846270Y00808470D01*
X-00844660Y00823280D01*
X-00846270Y00835990D01*
X-00852710Y00848690D01*
X-00862360Y00859270D01*
X-00873620Y00863500D01*
X-00886490Y00859270D01*
X-00897750Y00846570D01*
X-00904190Y00827520D01*
X-00905800Y00806350D01*
X-00902580Y00778840D01*
X-00897750Y00764010D01*
X-00889710Y00749200D01*
X-00878450Y00738620D01*
X-00867190Y00736500D01*
X-00855930Y00740730D01*
X-00847880Y00751320D01*
G01X-01082500Y00732500D02*
X-01082500Y00867500D01*
G01X-00797500Y00732500D02*
X-01082500Y00732500D01*
G01X-00797500Y00867500D02*
X-00797500Y00732500D01*
G01X-01082500Y00766250D02*
X-01048750Y00732500D01*
G01X-00747500Y00772500D02*
X-00797500Y00772500D01*
G01X-00747500Y00827500D02*
X-00747500Y00772500D01*
G01X-00797500Y00772500D02*
X-00797500Y00827500D01*
G01X-01132500Y00772500D02*
X-01132500Y00827500D01*
G01X-01082500Y00772500D02*
X-01132500Y00772500D01*
G01X-01082500Y00827500D02*
X-01082500Y00772500D01*
G01X-01082500Y00867500D02*
X-00797500Y00867500D01*
G01X-01082500Y00833750D02*
X-01048750Y00867500D01*
G01X-00797500Y00827500D02*
X-00747500Y00827500D01*
G01X-01132500Y00827500D02*
X-01082500Y00827500D01*
G01X-00092490Y-06132270D02*
X-00021710Y-06225400D01*
G01X-00057100Y-06242330D02*
X-00057100Y-06115330D01*
G01X-00021710Y-06132270D02*
X-00092490Y-06225400D01*
G01X-00105360Y-06178830D02*
X-00008840Y-06178830D01*
G01X-00104930Y-06136500D02*
X-00104930Y-06263500D01*
X-00072760Y-06263500D01*
X-00059890Y-06257150D01*
X-00050240Y-06248680D01*
X-00042190Y-06235990D01*
X-00035760Y-06221160D01*
X-00034150Y-06200000D01*
X-00035760Y-06178830D01*
X-00042190Y-06164010D01*
X-00050240Y-06151310D01*
X-00059890Y-06142850D01*
X-00072760Y-06136500D01*
X-00104930Y-06136500D01*
G01X00060000Y-06136500D02*
X00071260Y-06138620D01*
X00084130Y-06144960D01*
X00092170Y-06155550D01*
X00095390Y-06170370D01*
X00092170Y-06185180D01*
X00082520Y-06197880D01*
X00068040Y-06204230D01*
X00051960Y-06204230D01*
X00042300Y-06208470D01*
X00034260Y-06219050D01*
X00031040Y-06233870D01*
X00035870Y-06248680D01*
X00047130Y-06259270D01*
X00060000Y-06263500D01*
X00072870Y-06259270D01*
X00084130Y-06248680D01*
X00088960Y-06233870D01*
X00085740Y-06219050D01*
X00077700Y-06208470D01*
X00068040Y-06204230D01*
X00051960Y-06204230D01*
X00037480Y-06197880D01*
X00027830Y-06185180D01*
X00024610Y-06170370D01*
X00027830Y-06155550D01*
X00035870Y-06144960D01*
X00048740Y-06138620D01*
X00060000Y-06136500D01*
G01X00208840Y-06136500D02*
X00208840Y-06263500D01*
X00149320Y-06172480D01*
X00229760Y-06172480D01*
G01X-00082500Y-06267500D02*
X-00082500Y-06132500D01*
G01X00202500Y-06267500D02*
X-00082500Y-06267500D01*
G01X-00082500Y-06132500D02*
X00202500Y-06132500D01*
G01X-00082500Y-06166250D02*
X-00048750Y-06132500D01*
G01X-00082500Y-06233750D02*
X-00048750Y-06267500D01*
G01X-00132500Y-06172500D02*
X-00082500Y-06172500D01*
G01X-00132500Y-06227500D02*
X-00132500Y-06172500D01*
G01X-00082500Y-06227500D02*
X-00132500Y-06227500D01*
G01X-00082500Y-06172500D02*
X-00082500Y-06227500D01*
G01X-00092490Y-05132270D02*
X-00021710Y-05225400D01*
G01X-00057100Y-05242330D02*
X-00057100Y-05115330D01*
G01X-00021710Y-05132270D02*
X-00092490Y-05225400D01*
G01X-00105360Y-05178830D02*
X-00008840Y-05178830D01*
G01X-00104930Y-05136500D02*
X-00104930Y-05263500D01*
X-00072760Y-05263500D01*
X-00059890Y-05257150D01*
X-00050240Y-05248680D01*
X-00042190Y-05235990D01*
X-00035760Y-05221160D01*
X-00034150Y-05200000D01*
X-00035760Y-05178830D01*
X-00042190Y-05164010D01*
X-00050240Y-05151310D01*
X-00059890Y-05142850D01*
X-00072760Y-05136500D01*
X-00104930Y-05136500D01*
G01X00056780Y-05136500D02*
X00060000Y-05164010D01*
X00064830Y-05187300D01*
X00071260Y-05208470D01*
X00079300Y-05231750D01*
X00092170Y-05263500D01*
X00027830Y-05263500D01*
G01X00154150Y-05161900D02*
X00163800Y-05147080D01*
X00176670Y-05138620D01*
X00191150Y-05136500D01*
X00204020Y-05138620D01*
X00216890Y-05149200D01*
X00224930Y-05161900D01*
X00226540Y-05174600D01*
X00223320Y-05189410D01*
X00212060Y-05200000D01*
X00200800Y-05204230D01*
X00186320Y-05204230D01*
G01X00200800Y-05204230D02*
X00210450Y-05210580D01*
X00218500Y-05221160D01*
X00221710Y-05233870D01*
X00218500Y-05246570D01*
X00210450Y-05257150D01*
X00195970Y-05263500D01*
X00181500Y-05261380D01*
X00167020Y-05252920D01*
G01X-00082500Y-05267500D02*
X-00082500Y-05132500D01*
G01X00202500Y-05267500D02*
X-00082500Y-05267500D01*
G01X-00082500Y-05166250D02*
X-00048750Y-05132500D01*
G01X-00082500Y-05233750D02*
X-00048750Y-05267500D01*
G01X-00132500Y-05172500D02*
X-00082500Y-05172500D01*
G01X-00132500Y-05227500D02*
X-00132500Y-05172500D01*
G01X-00082500Y-05227500D02*
X-00132500Y-05227500D01*
G01X-00082500Y-05172500D02*
X-00082500Y-05227500D01*
G01X-00082500Y-05132500D02*
X00202500Y-05132500D01*
G01X-00092490Y-04132270D02*
X-00021710Y-04225400D01*
G01X-00057100Y-04242330D02*
X-00057100Y-04115330D01*
G01X-00021710Y-04132270D02*
X-00092490Y-04225400D01*
G01X-00105360Y-04178830D02*
X-00008840Y-04178830D01*
G01X-00104930Y-04136500D02*
X-00104930Y-04263500D01*
X-00072760Y-04263500D01*
X-00059890Y-04257150D01*
X-00050240Y-04248680D01*
X-00042190Y-04235990D01*
X-00035760Y-04221160D01*
X-00034150Y-04200000D01*
X-00035760Y-04178830D01*
X-00042190Y-04164010D01*
X-00050240Y-04151310D01*
X-00059890Y-04142850D01*
X-00072760Y-04136500D01*
X-00104930Y-04136500D01*
G01X00029430Y-04189410D02*
X00040700Y-04204230D01*
X00050350Y-04212700D01*
X00063220Y-04216930D01*
X00074480Y-04212700D01*
X00082520Y-04204230D01*
X00088960Y-04191530D01*
X00090570Y-04176720D01*
X00088960Y-04164010D01*
X00082520Y-04151310D01*
X00072870Y-04140730D01*
X00061610Y-04136500D01*
X00048740Y-04140730D01*
X00037480Y-04153430D01*
X00031040Y-04172480D01*
X00029430Y-04193650D01*
X00032650Y-04221160D01*
X00037480Y-04235990D01*
X00045520Y-04250800D01*
X00056780Y-04261380D01*
X00068040Y-04263500D01*
X00079300Y-04259270D01*
X00087350Y-04248680D01*
G01X00158970Y-04242330D02*
X00168630Y-04255030D01*
X00179890Y-04261380D01*
X00192760Y-04263500D01*
X00208840Y-04259270D01*
X00220110Y-04248680D01*
X00223320Y-04235990D01*
X00221710Y-04223280D01*
X00215280Y-04212700D01*
X00183110Y-04191530D01*
X00168630Y-04176720D01*
X00158970Y-04155550D01*
X00155760Y-04136500D01*
X00223320Y-04136500D01*
G01X-00082500Y-04267500D02*
X-00082500Y-04132500D01*
G01X00202500Y-04267500D02*
X-00082500Y-04267500D01*
G01X-00082500Y-04132500D02*
X00202500Y-04132500D01*
G01X-00082500Y-04166250D02*
X-00048750Y-04132500D01*
G01X-00082500Y-04233750D02*
X-00048750Y-04267500D01*
G01X-00132500Y-04172500D02*
X-00082500Y-04172500D01*
G01X-00132500Y-04227500D02*
X-00132500Y-04172500D01*
G01X-00082500Y-04227500D02*
X-00132500Y-04227500D01*
G01X-00082500Y-04172500D02*
X-00082500Y-04227500D01*
G01X-00092490Y-03132270D02*
X-00021710Y-03225400D01*
G01X-00057100Y-03242330D02*
X-00057100Y-03115330D01*
G01X-00021710Y-03132270D02*
X-00092490Y-03225400D01*
G01X-00105360Y-03178830D02*
X-00008840Y-03178830D01*
G01X-00104930Y-03136500D02*
X-00104930Y-03263500D01*
X-00072760Y-03263500D01*
X-00059890Y-03257150D01*
X-00050240Y-03248680D01*
X-00042190Y-03235990D01*
X-00035760Y-03221160D01*
X-00034150Y-03200000D01*
X-00035760Y-03178830D01*
X-00042190Y-03164010D01*
X-00050240Y-03151310D01*
X-00059890Y-03142850D01*
X-00072760Y-03136500D01*
X-00104930Y-03136500D01*
G01X00024610Y-03155550D02*
X00034260Y-03144960D01*
X00045520Y-03138620D01*
X00060000Y-03136500D01*
X00074480Y-03140730D01*
X00085740Y-03149200D01*
X00093780Y-03164010D01*
X00095390Y-03180950D01*
X00092170Y-03197880D01*
X00084130Y-03208470D01*
X00072870Y-03216930D01*
X00061610Y-03219050D01*
X00050350Y-03216930D01*
X00035870Y-03208470D01*
X00040700Y-03263500D01*
X00084130Y-03263500D01*
G01X00189540Y-03136500D02*
X00189540Y-03263500D01*
X00170240Y-03238100D01*
G01X00170240Y-03136500D02*
X00208840Y-03136500D01*
G01X-00082500Y-03267500D02*
X-00082500Y-03132500D01*
G01X00202500Y-03267500D02*
X-00082500Y-03267500D01*
G01X-00082500Y-03132500D02*
X00202500Y-03132500D01*
G01X-00082500Y-03166250D02*
X-00048750Y-03132500D01*
G01X-00082500Y-03233750D02*
X-00048750Y-03267500D01*
G01X-00132500Y-03172500D02*
X-00082500Y-03172500D01*
G01X-00132500Y-03227500D02*
X-00132500Y-03172500D01*
G01X-00082500Y-03227500D02*
X-00132500Y-03227500D01*
G01X-00082500Y-03172500D02*
X-00082500Y-03227500D01*
G01X-00092490Y-02132270D02*
X-00021710Y-02225400D01*
G01X-00057100Y-02242330D02*
X-00057100Y-02115330D01*
G01X-00021710Y-02132270D02*
X-00092490Y-02225400D01*
G01X-00105360Y-02178830D02*
X-00008840Y-02178830D01*
G01X-00104930Y-02136500D02*
X-00104930Y-02263500D01*
X-00072760Y-02263500D01*
X-00059890Y-02257150D01*
X-00050240Y-02248680D01*
X-00042190Y-02235990D01*
X-00035760Y-02221160D01*
X-00034150Y-02200000D01*
X-00035760Y-02178830D01*
X-00042190Y-02164010D01*
X-00050240Y-02151310D01*
X-00059890Y-02142850D01*
X-00072760Y-02136500D01*
X-00104930Y-02136500D01*
G01X00079300Y-02136500D02*
X00079300Y-02263500D01*
X00019780Y-02172480D01*
X00100220Y-02172480D01*
G01X00189540Y-02263500D02*
X00176670Y-02259270D01*
X00167020Y-02248680D01*
X00160580Y-02235990D01*
X00155760Y-02219050D01*
X00154150Y-02200000D01*
X00155760Y-02180950D01*
X00160580Y-02164010D01*
X00167020Y-02151310D01*
X00176670Y-02140730D01*
X00189540Y-02136500D01*
X00202410Y-02140730D01*
X00212060Y-02151310D01*
X00218500Y-02164010D01*
X00223320Y-02180950D01*
X00224930Y-02200000D01*
X00223320Y-02219050D01*
X00218500Y-02235990D01*
X00212060Y-02248680D01*
X00202410Y-02259270D01*
X00189540Y-02263500D01*
G01X-00082500Y-02267500D02*
X-00082500Y-02132500D01*
G01X00202500Y-02267500D02*
X-00082500Y-02267500D01*
G01X-00082500Y-02233750D02*
X-00048750Y-02267500D01*
G01X-00132500Y-02227500D02*
X-00132500Y-02172500D01*
G01X-00082500Y-02227500D02*
X-00132500Y-02227500D01*
G01X-00082500Y-02172500D02*
X-00082500Y-02227500D01*
G01X-00082500Y-02132500D02*
X00202500Y-02132500D01*
G01X-00082500Y-02166250D02*
X-00048750Y-02132500D01*
G01X-00132500Y-02172500D02*
X-00082500Y-02172500D01*
G01X-00092490Y-01132270D02*
X-00021710Y-01225400D01*
G01X-00057100Y-01242330D02*
X-00057100Y-01115330D01*
G01X-00021710Y-01132270D02*
X-00092490Y-01225400D01*
G01X-00105360Y-01178830D02*
X-00008840Y-01178830D01*
G01X-00104930Y-01136500D02*
X-00104930Y-01263500D01*
X-00072760Y-01263500D01*
X-00059890Y-01257150D01*
X-00050240Y-01248680D01*
X-00042190Y-01235990D01*
X-00035760Y-01221160D01*
X-00034150Y-01200000D01*
X-00035760Y-01178830D01*
X-00042190Y-01164010D01*
X-00050240Y-01151310D01*
X-00059890Y-01142850D01*
X-00072760Y-01136500D01*
X-00104930Y-01136500D01*
G01X00029430Y-01242330D02*
X00039090Y-01255030D01*
X00050350Y-01261380D01*
X00063220Y-01263500D01*
X00079300Y-01259270D01*
X00090570Y-01248680D01*
X00093780Y-01235990D01*
X00092170Y-01223280D01*
X00085740Y-01212700D01*
X00053570Y-01191530D01*
X00039090Y-01176720D01*
X00029430Y-01155550D01*
X00026220Y-01136500D01*
X00093780Y-01136500D01*
G01X00162190Y-01151310D02*
X00173450Y-01140730D01*
X00186320Y-01136500D01*
X00199190Y-01140730D01*
X00210450Y-01153430D01*
X00218500Y-01172480D01*
X00221710Y-01191530D01*
X00221710Y-01214820D01*
X00218500Y-01233870D01*
X00210450Y-01250800D01*
X00200800Y-01259270D01*
X00189540Y-01263500D01*
X00176670Y-01259270D01*
X00167020Y-01250800D01*
X00160580Y-01238100D01*
X00157370Y-01221160D01*
X00160580Y-01206350D01*
X00168630Y-01191530D01*
X00178280Y-01183060D01*
X00189540Y-01180950D01*
X00202410Y-01185180D01*
X00212060Y-01195770D01*
X00221710Y-01214820D01*
G01X-00082500Y-01267500D02*
X-00082500Y-01132500D01*
G01X00202500Y-01267500D02*
X-00082500Y-01267500D01*
G01X-00082500Y-01132500D02*
X00202500Y-01132500D01*
G01X-00082500Y-01166250D02*
X-00048750Y-01132500D01*
G01X-00082500Y-01233750D02*
X-00048750Y-01267500D01*
G01X-00132500Y-01172500D02*
X-00082500Y-01172500D01*
G01X-00132500Y-01227500D02*
X-00132500Y-01172500D01*
G01X-00082500Y-01227500D02*
X-00132500Y-01227500D01*
G01X-00082500Y-01172500D02*
X-00082500Y-01227500D01*
G01X-00092490Y-00132270D02*
X-00021710Y-00225400D01*
G01X-00057100Y-00242330D02*
X-00057100Y-00115330D01*
G01X-00021710Y-00132270D02*
X-00092490Y-00225400D01*
G01X-00105360Y-00178830D02*
X-00008840Y-00178830D01*
G01X-00104930Y-00136500D02*
X-00104930Y-00263500D01*
X-00072760Y-00263500D01*
X-00059890Y-00257150D01*
X-00050240Y-00248680D01*
X-00042190Y-00235990D01*
X-00035760Y-00221160D01*
X-00034150Y-00200000D01*
X-00035760Y-00178830D01*
X-00042190Y-00164010D01*
X-00050240Y-00151310D01*
X-00059890Y-00142850D01*
X-00072760Y-00136500D01*
X-00104930Y-00136500D01*
G01X00060000Y-00136500D02*
X00060000Y-00263500D01*
X00040700Y-00238100D01*
G01X00040700Y-00136500D02*
X00079300Y-00136500D01*
G01X00189540Y-00136500D02*
X00200800Y-00138620D01*
X00213670Y-00144960D01*
X00221710Y-00155550D01*
X00224930Y-00170370D01*
X00221710Y-00185180D01*
X00212060Y-00197880D01*
X00197580Y-00204230D01*
X00181500Y-00204230D01*
X00171840Y-00208470D01*
X00163800Y-00219050D01*
X00160580Y-00233870D01*
X00165410Y-00248680D01*
X00176670Y-00259270D01*
X00189540Y-00263500D01*
X00202410Y-00259270D01*
X00213670Y-00248680D01*
X00218500Y-00233870D01*
X00215280Y-00219050D01*
X00207240Y-00208470D01*
X00197580Y-00204230D01*
X00181500Y-00204230D01*
X00167020Y-00197880D01*
X00157370Y-00185180D01*
X00154150Y-00170370D01*
X00157370Y-00155550D01*
X00165410Y-00144960D01*
X00178280Y-00138620D01*
X00189540Y-00136500D01*
G01X-00082500Y-00267500D02*
X-00082500Y-00132500D01*
G01X00202500Y-00267500D02*
X-00082500Y-00267500D01*
G01X-00082500Y-00132500D02*
X00202500Y-00132500D01*
G01X-00082500Y-00166250D02*
X-00048750Y-00132500D01*
G01X-00082500Y-00233750D02*
X-00048750Y-00267500D01*
G01X-00132500Y-00172500D02*
X-00082500Y-00172500D01*
G01X-00132500Y-00227500D02*
X-00132500Y-00172500D01*
G01X-00082500Y-00227500D02*
X-00132500Y-00227500D01*
G01X-00082500Y-00172500D02*
X-00082500Y-00227500D01*
G01X-00092490Y00867730D02*
X-00021710Y00774600D01*
G01X-00057100Y00757670D02*
X-00057100Y00884670D01*
G01X-00021710Y00867730D02*
X-00092490Y00774600D01*
G01X-00105360Y00821170D02*
X-00008840Y00821170D01*
G01X-00040160Y00863500D02*
X-00040160Y00736500D01*
X-00007990Y00736500D01*
X00004880Y00742850D01*
X00014530Y00751320D01*
X00022580Y00764010D01*
X00029010Y00778840D01*
X00030620Y00800000D01*
X00029010Y00821170D01*
X00022580Y00835990D01*
X00014530Y00848690D01*
X00004880Y00857150D01*
X-00007990Y00863500D01*
X-00040160Y00863500D01*
G01X00121550Y00863500D02*
X00124770Y00835990D01*
X00129600Y00812700D01*
X00136030Y00791530D01*
X00144070Y00768250D01*
X00156940Y00736500D01*
X00092600Y00736500D01*
G01X-00082500Y00732500D02*
X-00082500Y00867500D01*
G01X00202500Y00732500D02*
X-00082500Y00732500D01*
G01X-00082500Y00766250D02*
X-00048750Y00732500D01*
G01X-00132500Y00772500D02*
X-00132500Y00827500D01*
G01X-00082500Y00772500D02*
X-00132500Y00772500D01*
G01X-00082500Y00827500D02*
X-00082500Y00772500D01*
G01X-00082500Y00867500D02*
X00202500Y00867500D01*
G01X-00082500Y00833750D02*
X-00048750Y00867500D01*
G01X-00132500Y00827500D02*
X-00082500Y00827500D01*
G01X00202500Y-06132500D02*
X00202500Y-06267500D01*
G01X00252500Y-06227500D02*
X00202500Y-06227500D01*
G01X00252500Y-06172500D02*
X00252500Y-06227500D01*
G01X00202500Y-06172500D02*
X00252500Y-06172500D01*
G01X00202500Y-06227500D02*
X00202500Y-06172500D01*
G01X00202500Y-05132500D02*
X00202500Y-05267500D01*
G01X00252500Y-05227500D02*
X00202500Y-05227500D01*
G01X00252500Y-05172500D02*
X00252500Y-05227500D01*
G01X00202500Y-05172500D02*
X00252500Y-05172500D01*
G01X00202500Y-05227500D02*
X00202500Y-05172500D01*
G01X00202500Y-04132500D02*
X00202500Y-04267500D01*
G01X00252500Y-04227500D02*
X00202500Y-04227500D01*
G01X00252500Y-04172500D02*
X00252500Y-04227500D01*
G01X00202500Y-04172500D02*
X00252500Y-04172500D01*
G01X00202500Y-04227500D02*
X00202500Y-04172500D01*
G01X00202500Y-03132500D02*
X00202500Y-03267500D01*
G01X00252500Y-03227500D02*
X00202500Y-03227500D01*
G01X00252500Y-03172500D02*
X00252500Y-03227500D01*
G01X00202500Y-03172500D02*
X00252500Y-03172500D01*
G01X00202500Y-03227500D02*
X00202500Y-03172500D01*
G01X00202500Y-02132500D02*
X00202500Y-02267500D01*
G01X00252500Y-02227500D02*
X00202500Y-02227500D01*
G01X00252500Y-02172500D02*
X00252500Y-02227500D01*
G01X00202500Y-02227500D02*
X00202500Y-02172500D01*
G01X00202500Y-02172500D02*
X00252500Y-02172500D01*
G01X00202500Y-01132500D02*
X00202500Y-01267500D01*
G01X00252500Y-01227500D02*
X00202500Y-01227500D01*
G01X00252500Y-01172500D02*
X00252500Y-01227500D01*
G01X00202500Y-01172500D02*
X00252500Y-01172500D01*
G01X00202500Y-01227500D02*
X00202500Y-01172500D01*
G01X00202500Y-00132500D02*
X00202500Y-00267500D01*
G01X00252500Y-00227500D02*
X00202500Y-00227500D01*
G01X00252500Y-00172500D02*
X00252500Y-00227500D01*
G01X00202500Y-00172500D02*
X00252500Y-00172500D01*
G01X00202500Y-00227500D02*
X00202500Y-00172500D01*
G01X00202500Y00867500D02*
X00202500Y00732500D01*
G01X00252500Y00772500D02*
X00202500Y00772500D01*
G01X00252500Y00827500D02*
X00252500Y00772500D01*
G01X00202500Y00772500D02*
X00202500Y00827500D01*
G01X00202500Y00827500D02*
X00252500Y00827500D01*
G01X00907510Y-06132270D02*
X00978290Y-06225400D01*
G01X00942900Y-06242330D02*
X00942900Y-06115330D01*
G01X00978290Y-06132270D02*
X00907510Y-06225400D01*
G01X00894640Y-06178830D02*
X00991160Y-06178830D01*
G01X00895070Y-06136500D02*
X00895070Y-06263500D01*
X00927240Y-06263500D01*
X00940110Y-06257150D01*
X00949760Y-06248680D01*
X00957810Y-06235990D01*
X00964240Y-06221160D01*
X00965850Y-06200000D01*
X00964240Y-06178830D01*
X00957810Y-06164010D01*
X00949760Y-06151310D01*
X00940110Y-06142850D01*
X00927240Y-06136500D01*
X00895070Y-06136500D01*
G01X01060000Y-06136500D02*
X01071260Y-06138620D01*
X01084130Y-06144960D01*
X01092170Y-06155550D01*
X01095390Y-06170370D01*
X01092170Y-06185180D01*
X01082520Y-06197880D01*
X01068040Y-06204230D01*
X01051960Y-06204230D01*
X01042300Y-06208470D01*
X01034260Y-06219050D01*
X01031040Y-06233870D01*
X01035870Y-06248680D01*
X01047130Y-06259270D01*
X01060000Y-06263500D01*
X01072870Y-06259270D01*
X01084130Y-06248680D01*
X01088960Y-06233870D01*
X01085740Y-06219050D01*
X01077700Y-06208470D01*
X01068040Y-06204230D01*
X01051960Y-06204230D01*
X01037480Y-06197880D01*
X01027830Y-06185180D01*
X01024610Y-06170370D01*
X01027830Y-06155550D01*
X01035870Y-06144960D01*
X01048740Y-06138620D01*
X01060000Y-06136500D01*
G01X01154150Y-06155550D02*
X01163800Y-06144960D01*
X01175060Y-06138620D01*
X01189540Y-06136500D01*
X01204020Y-06140730D01*
X01215280Y-06149200D01*
X01223320Y-06164010D01*
X01224930Y-06180950D01*
X01221710Y-06197880D01*
X01213670Y-06208470D01*
X01202410Y-06216930D01*
X01191150Y-06219050D01*
X01179890Y-06216930D01*
X01165410Y-06208470D01*
X01170240Y-06263500D01*
X01213670Y-06263500D01*
G01X00917500Y-06267500D02*
X00917500Y-06132500D01*
G01X01202500Y-06267500D02*
X00917500Y-06267500D01*
G01X01202500Y-06132500D02*
X01202500Y-06267500D01*
G01X00917500Y-06132500D02*
X01202500Y-06132500D01*
G01X00917500Y-06166250D02*
X00951250Y-06132500D01*
G01X00917500Y-06233750D02*
X00951250Y-06267500D01*
G01X01252500Y-06227500D02*
X01202500Y-06227500D01*
G01X01202500Y-06172500D02*
X01252500Y-06172500D01*
G01X01202500Y-06227500D02*
X01202500Y-06172500D01*
G01X00867500Y-06172500D02*
X00917500Y-06172500D01*
G01X00867500Y-06227500D02*
X00867500Y-06172500D01*
G01X00917500Y-06227500D02*
X00867500Y-06227500D01*
G01X00917500Y-06172500D02*
X00917500Y-06227500D01*
G01X00907510Y-05132270D02*
X00978290Y-05225400D01*
G01X00942900Y-05242330D02*
X00942900Y-05115330D01*
G01X00978290Y-05132270D02*
X00907510Y-05225400D01*
G01X00894640Y-05178830D02*
X00991160Y-05178830D01*
G01X00895070Y-05136500D02*
X00895070Y-05263500D01*
X00927240Y-05263500D01*
X00940110Y-05257150D01*
X00949760Y-05248680D01*
X00957810Y-05235990D01*
X00964240Y-05221160D01*
X00965850Y-05200000D01*
X00964240Y-05178830D01*
X00957810Y-05164010D01*
X00949760Y-05151310D01*
X00940110Y-05142850D01*
X00927240Y-05136500D01*
X00895070Y-05136500D01*
G01X01056780Y-05136500D02*
X01060000Y-05164010D01*
X01064830Y-05187300D01*
X01071260Y-05208470D01*
X01079300Y-05231750D01*
X01092170Y-05263500D01*
X01027830Y-05263500D01*
G01X01208840Y-05136500D02*
X01208840Y-05263500D01*
X01149320Y-05172480D01*
X01229760Y-05172480D01*
G01X00917500Y-05267500D02*
X00917500Y-05132500D01*
G01X01202500Y-05267500D02*
X00917500Y-05267500D01*
G01X01202500Y-05132500D02*
X01202500Y-05267500D01*
G01X00917500Y-05166250D02*
X00951250Y-05132500D01*
G01X00917500Y-05233750D02*
X00951250Y-05267500D01*
G01X01252500Y-05227500D02*
X01202500Y-05227500D01*
G01X01202500Y-05172500D02*
X01252500Y-05172500D01*
G01X01202500Y-05227500D02*
X01202500Y-05172500D01*
G01X00867500Y-05172500D02*
X00917500Y-05172500D01*
G01X00867500Y-05227500D02*
X00867500Y-05172500D01*
G01X00917500Y-05227500D02*
X00867500Y-05227500D01*
G01X00917500Y-05172500D02*
X00917500Y-05227500D01*
G01X00917500Y-05132500D02*
X01202500Y-05132500D01*
G01X00907510Y-04132270D02*
X00978290Y-04225400D01*
G01X00942900Y-04242330D02*
X00942900Y-04115330D01*
G01X00978290Y-04132270D02*
X00907510Y-04225400D01*
G01X00894640Y-04178830D02*
X00991160Y-04178830D01*
G01X00895070Y-04136500D02*
X00895070Y-04263500D01*
X00927240Y-04263500D01*
X00940110Y-04257150D01*
X00949760Y-04248680D01*
X00957810Y-04235990D01*
X00964240Y-04221160D01*
X00965850Y-04200000D01*
X00964240Y-04178830D01*
X00957810Y-04164010D01*
X00949760Y-04151310D01*
X00940110Y-04142850D01*
X00927240Y-04136500D01*
X00895070Y-04136500D01*
G01X01029430Y-04189410D02*
X01040700Y-04204230D01*
X01050350Y-04212700D01*
X01063220Y-04216930D01*
X01074480Y-04212700D01*
X01082520Y-04204230D01*
X01088960Y-04191530D01*
X01090570Y-04176720D01*
X01088960Y-04164010D01*
X01082520Y-04151310D01*
X01072870Y-04140730D01*
X01061610Y-04136500D01*
X01048740Y-04140730D01*
X01037480Y-04153430D01*
X01031040Y-04172480D01*
X01029430Y-04193650D01*
X01032650Y-04221160D01*
X01037480Y-04235990D01*
X01045520Y-04250800D01*
X01056780Y-04261380D01*
X01068040Y-04263500D01*
X01079300Y-04259270D01*
X01087350Y-04248680D01*
G01X01154150Y-04161900D02*
X01163800Y-04147080D01*
X01176670Y-04138620D01*
X01191150Y-04136500D01*
X01204020Y-04138620D01*
X01216890Y-04149200D01*
X01224930Y-04161900D01*
X01226540Y-04174600D01*
X01223320Y-04189410D01*
X01212060Y-04200000D01*
X01200800Y-04204230D01*
X01186320Y-04204230D01*
G01X01200800Y-04204230D02*
X01210450Y-04210580D01*
X01218500Y-04221160D01*
X01221710Y-04233870D01*
X01218500Y-04246570D01*
X01210450Y-04257150D01*
X01195970Y-04263500D01*
X01181500Y-04261380D01*
X01167020Y-04252920D01*
G01X00917500Y-04267500D02*
X00917500Y-04132500D01*
G01X01202500Y-04267500D02*
X00917500Y-04267500D01*
G01X01202500Y-04132500D02*
X01202500Y-04267500D01*
G01X00917500Y-04132500D02*
X01202500Y-04132500D01*
G01X00917500Y-04166250D02*
X00951250Y-04132500D01*
G01X00917500Y-04233750D02*
X00951250Y-04267500D01*
G01X01252500Y-04227500D02*
X01202500Y-04227500D01*
G01X01202500Y-04172500D02*
X01252500Y-04172500D01*
G01X01202500Y-04227500D02*
X01202500Y-04172500D01*
G01X00867500Y-04172500D02*
X00917500Y-04172500D01*
G01X00867500Y-04227500D02*
X00867500Y-04172500D01*
G01X00917500Y-04227500D02*
X00867500Y-04227500D01*
G01X00917500Y-04172500D02*
X00917500Y-04227500D01*
G01X00907510Y-03132270D02*
X00978290Y-03225400D01*
G01X00942900Y-03242330D02*
X00942900Y-03115330D01*
G01X00978290Y-03132270D02*
X00907510Y-03225400D01*
G01X00894640Y-03178830D02*
X00991160Y-03178830D01*
G01X00895070Y-03136500D02*
X00895070Y-03263500D01*
X00927240Y-03263500D01*
X00940110Y-03257150D01*
X00949760Y-03248680D01*
X00957810Y-03235990D01*
X00964240Y-03221160D01*
X00965850Y-03200000D01*
X00964240Y-03178830D01*
X00957810Y-03164010D01*
X00949760Y-03151310D01*
X00940110Y-03142850D01*
X00927240Y-03136500D01*
X00895070Y-03136500D01*
G01X01024610Y-03155550D02*
X01034260Y-03144960D01*
X01045520Y-03138620D01*
X01060000Y-03136500D01*
X01074480Y-03140730D01*
X01085740Y-03149200D01*
X01093780Y-03164010D01*
X01095390Y-03180950D01*
X01092170Y-03197880D01*
X01084130Y-03208470D01*
X01072870Y-03216930D01*
X01061610Y-03219050D01*
X01050350Y-03216930D01*
X01035870Y-03208470D01*
X01040700Y-03263500D01*
X01084130Y-03263500D01*
G01X01158970Y-03242330D02*
X01168630Y-03255030D01*
X01179890Y-03261380D01*
X01192760Y-03263500D01*
X01208840Y-03259270D01*
X01220110Y-03248680D01*
X01223320Y-03235990D01*
X01221710Y-03223280D01*
X01215280Y-03212700D01*
X01183110Y-03191530D01*
X01168630Y-03176720D01*
X01158970Y-03155550D01*
X01155760Y-03136500D01*
X01223320Y-03136500D01*
G01X00917500Y-03267500D02*
X00917500Y-03132500D01*
G01X01202500Y-03267500D02*
X00917500Y-03267500D01*
G01X01202500Y-03132500D02*
X01202500Y-03267500D01*
G01X00917500Y-03132500D02*
X01202500Y-03132500D01*
G01X00917500Y-03166250D02*
X00951250Y-03132500D01*
G01X00917500Y-03233750D02*
X00951250Y-03267500D01*
G01X01252500Y-03227500D02*
X01202500Y-03227500D01*
G01X01202500Y-03172500D02*
X01252500Y-03172500D01*
G01X01202500Y-03227500D02*
X01202500Y-03172500D01*
G01X00867500Y-03172500D02*
X00917500Y-03172500D01*
G01X00867500Y-03227500D02*
X00867500Y-03172500D01*
G01X00917500Y-03227500D02*
X00867500Y-03227500D01*
G01X00917500Y-03172500D02*
X00917500Y-03227500D01*
G01X00907510Y-02132270D02*
X00978290Y-02225400D01*
G01X00942900Y-02242330D02*
X00942900Y-02115330D01*
G01X00978290Y-02132270D02*
X00907510Y-02225400D01*
G01X00894640Y-02178830D02*
X00991160Y-02178830D01*
G01X00895070Y-02136500D02*
X00895070Y-02263500D01*
X00927240Y-02263500D01*
X00940110Y-02257150D01*
X00949760Y-02248680D01*
X00957810Y-02235990D01*
X00964240Y-02221160D01*
X00965850Y-02200000D01*
X00964240Y-02178830D01*
X00957810Y-02164010D01*
X00949760Y-02151310D01*
X00940110Y-02142850D01*
X00927240Y-02136500D01*
X00895070Y-02136500D01*
G01X01079300Y-02136500D02*
X01079300Y-02263500D01*
X01019780Y-02172480D01*
X01100220Y-02172480D01*
G01X01189540Y-02136500D02*
X01189540Y-02263500D01*
X01170240Y-02238100D01*
G01X01170240Y-02136500D02*
X01208840Y-02136500D01*
G01X00917500Y-02267500D02*
X00917500Y-02132500D01*
G01X01202500Y-02267500D02*
X00917500Y-02267500D01*
G01X01202500Y-02132500D02*
X01202500Y-02267500D01*
G01X00917500Y-02233750D02*
X00951250Y-02267500D01*
G01X01252500Y-02227500D02*
X01202500Y-02227500D01*
G01X01202500Y-02227500D02*
X01202500Y-02172500D01*
G01X00867500Y-02227500D02*
X00867500Y-02172500D01*
G01X00917500Y-02227500D02*
X00867500Y-02227500D01*
G01X00917500Y-02172500D02*
X00917500Y-02227500D01*
G01X00917500Y-02132500D02*
X01202500Y-02132500D01*
G01X00917500Y-02166250D02*
X00951250Y-02132500D01*
G01X01202500Y-02172500D02*
X01252500Y-02172500D01*
G01X00867500Y-02172500D02*
X00917500Y-02172500D01*
G01X00907510Y-01132270D02*
X00978290Y-01225400D01*
G01X00942900Y-01242330D02*
X00942900Y-01115330D01*
G01X00978290Y-01132270D02*
X00907510Y-01225400D01*
G01X00894640Y-01178830D02*
X00991160Y-01178830D01*
G01X00895070Y-01136500D02*
X00895070Y-01263500D01*
X00927240Y-01263500D01*
X00940110Y-01257150D01*
X00949760Y-01248680D01*
X00957810Y-01235990D01*
X00964240Y-01221160D01*
X00965850Y-01200000D01*
X00964240Y-01178830D01*
X00957810Y-01164010D01*
X00949760Y-01151310D01*
X00940110Y-01142850D01*
X00927240Y-01136500D01*
X00895070Y-01136500D01*
G01X01024610Y-01161900D02*
X01034260Y-01147080D01*
X01047130Y-01138620D01*
X01061610Y-01136500D01*
X01074480Y-01138620D01*
X01087350Y-01149200D01*
X01095390Y-01161900D01*
X01097000Y-01174600D01*
X01093780Y-01189410D01*
X01082520Y-01200000D01*
X01071260Y-01204230D01*
X01056780Y-01204230D01*
G01X01071260Y-01204230D02*
X01080910Y-01210580D01*
X01088960Y-01221160D01*
X01092170Y-01233870D01*
X01088960Y-01246570D01*
X01080910Y-01257150D01*
X01066430Y-01263500D01*
X01051960Y-01261380D01*
X01037480Y-01252920D01*
G01X01189540Y-01263500D02*
X01176670Y-01259270D01*
X01167020Y-01248680D01*
X01160580Y-01235990D01*
X01155760Y-01219050D01*
X01154150Y-01200000D01*
X01155760Y-01180950D01*
X01160580Y-01164010D01*
X01167020Y-01151310D01*
X01176670Y-01140730D01*
X01189540Y-01136500D01*
X01202410Y-01140730D01*
X01212060Y-01151310D01*
X01218500Y-01164010D01*
X01223320Y-01180950D01*
X01224930Y-01200000D01*
X01223320Y-01219050D01*
X01218500Y-01235990D01*
X01212060Y-01248680D01*
X01202410Y-01259270D01*
X01189540Y-01263500D01*
G01X00917500Y-01267500D02*
X00917500Y-01132500D01*
G01X01202500Y-01267500D02*
X00917500Y-01267500D01*
G01X01202500Y-01132500D02*
X01202500Y-01267500D01*
G01X00917500Y-01132500D02*
X01202500Y-01132500D01*
G01X00917500Y-01166250D02*
X00951250Y-01132500D01*
G01X00917500Y-01233750D02*
X00951250Y-01267500D01*
G01X01252500Y-01227500D02*
X01202500Y-01227500D01*
G01X01202500Y-01172500D02*
X01252500Y-01172500D01*
G01X01202500Y-01227500D02*
X01202500Y-01172500D01*
G01X00867500Y-01172500D02*
X00917500Y-01172500D01*
G01X00867500Y-01227500D02*
X00867500Y-01172500D01*
G01X00917500Y-01227500D02*
X00867500Y-01227500D01*
G01X00917500Y-01172500D02*
X00917500Y-01227500D01*
G01X00907510Y-00132270D02*
X00978290Y-00225400D01*
G01X00942900Y-00242330D02*
X00942900Y-00115330D01*
G01X00978290Y-00132270D02*
X00907510Y-00225400D01*
G01X00894640Y-00178830D02*
X00991160Y-00178830D01*
G01X00895070Y-00136500D02*
X00895070Y-00263500D01*
X00927240Y-00263500D01*
X00940110Y-00257150D01*
X00949760Y-00248680D01*
X00957810Y-00235990D01*
X00964240Y-00221160D01*
X00965850Y-00200000D01*
X00964240Y-00178830D01*
X00957810Y-00164010D01*
X00949760Y-00151310D01*
X00940110Y-00142850D01*
X00927240Y-00136500D01*
X00895070Y-00136500D01*
G01X01060000Y-00136500D02*
X01060000Y-00263500D01*
X01040700Y-00238100D01*
G01X01040700Y-00136500D02*
X01079300Y-00136500D01*
G01X01162190Y-00151310D02*
X01173450Y-00140730D01*
X01186320Y-00136500D01*
X01199190Y-00140730D01*
X01210450Y-00153430D01*
X01218500Y-00172480D01*
X01221710Y-00191530D01*
X01221710Y-00214820D01*
X01218500Y-00233870D01*
X01210450Y-00250800D01*
X01200800Y-00259270D01*
X01189540Y-00263500D01*
X01176670Y-00259270D01*
X01167020Y-00250800D01*
X01160580Y-00238100D01*
X01157370Y-00221160D01*
X01160580Y-00206350D01*
X01168630Y-00191530D01*
X01178280Y-00183060D01*
X01189540Y-00180950D01*
X01202410Y-00185180D01*
X01212060Y-00195770D01*
X01221710Y-00214820D01*
G01X00917500Y-00267500D02*
X00917500Y-00132500D01*
G01X01202500Y-00267500D02*
X00917500Y-00267500D01*
G01X01202500Y-00132500D02*
X01202500Y-00267500D01*
G01X00917500Y-00132500D02*
X01202500Y-00132500D01*
G01X00917500Y-00166250D02*
X00951250Y-00132500D01*
G01X00917500Y-00233750D02*
X00951250Y-00267500D01*
G01X01252500Y-00227500D02*
X01202500Y-00227500D01*
G01X01202500Y-00172500D02*
X01252500Y-00172500D01*
G01X01202500Y-00227500D02*
X01202500Y-00172500D01*
G01X00867500Y-00172500D02*
X00917500Y-00172500D01*
G01X00867500Y-00227500D02*
X00867500Y-00172500D01*
G01X00917500Y-00227500D02*
X00867500Y-00227500D01*
G01X00917500Y-00172500D02*
X00917500Y-00227500D01*
G01X00907510Y00867730D02*
X00978290Y00774600D01*
G01X00942900Y00757670D02*
X00942900Y00884670D01*
G01X00978290Y00867730D02*
X00907510Y00774600D01*
G01X00894640Y00821170D02*
X00991160Y00821170D01*
G01X00959840Y00863500D02*
X00959840Y00736500D01*
X00992010Y00736500D01*
X01004880Y00742850D01*
X01014530Y00751320D01*
X01022580Y00764010D01*
X01029010Y00778840D01*
X01030620Y00800000D01*
X01029010Y00821170D01*
X01022580Y00835990D01*
X01014530Y00848690D01*
X01004880Y00857150D01*
X00992010Y00863500D01*
X00959840Y00863500D01*
G01X01124770Y00863500D02*
X01136030Y00861380D01*
X01148900Y00855040D01*
X01156940Y00844450D01*
X01160160Y00829630D01*
X01156940Y00814820D01*
X01147290Y00802120D01*
X01132810Y00795770D01*
X01116730Y00795770D01*
X01107070Y00791530D01*
X01099030Y00780950D01*
X01095810Y00766130D01*
X01100640Y00751320D01*
X01111900Y00740730D01*
X01124770Y00736500D01*
X01137640Y00740730D01*
X01148900Y00751320D01*
X01153730Y00766130D01*
X01150510Y00780950D01*
X01142470Y00791530D01*
X01132810Y00795770D01*
X01116730Y00795770D01*
X01102250Y00802120D01*
X01092600Y00814820D01*
X01089380Y00829630D01*
X01092600Y00844450D01*
X01100640Y00855040D01*
X01113510Y00861380D01*
X01124770Y00863500D01*
G01X00917500Y00732500D02*
X00917500Y00867500D01*
G01X01202500Y00732500D02*
X00917500Y00732500D01*
G01X01202500Y00867500D02*
X01202500Y00732500D01*
G01X00917500Y00766250D02*
X00951250Y00732500D01*
G01X01252500Y00772500D02*
X01202500Y00772500D01*
G01X01202500Y00772500D02*
X01202500Y00827500D01*
G01X00867500Y00772500D02*
X00867500Y00827500D01*
G01X00917500Y00772500D02*
X00867500Y00772500D01*
G01X00917500Y00827500D02*
X00917500Y00772500D01*
G01X00917500Y00867500D02*
X01202500Y00867500D01*
G01X00917500Y00833750D02*
X00951250Y00867500D01*
G01X01202500Y00827500D02*
X01252500Y00827500D01*
G01X00867500Y00827500D02*
X00917500Y00827500D01*
G01X01015490Y03414960D02*
X01027340Y03434010D01*
X01041560Y03446710D01*
X01058160Y03453060D01*
X01077120Y03446710D01*
X01091350Y03434010D01*
X01105570Y03414960D01*
X01110310Y03389560D01*
X01110310Y03262560D01*
G01X01201250Y03414960D02*
X01215470Y03437190D01*
X01234430Y03449890D01*
X01255770Y03453060D01*
X01274740Y03449890D01*
X01293700Y03434010D01*
X01305550Y03414960D01*
X01307920Y03395910D01*
X01303180Y03373690D01*
X01286590Y03357810D01*
X01269990Y03351460D01*
X01248660Y03351460D01*
G01X01269990Y03351460D02*
X01284220Y03341940D01*
X01296070Y03326060D01*
X01300810Y03307010D01*
X01296070Y03287960D01*
X01284220Y03272090D01*
X01262880Y03262560D01*
X01241550Y03265730D01*
X01220210Y03278440D01*
G01X01252500Y-06172500D02*
X01252500Y-06227500D01*
G01X01252500Y-05172500D02*
X01252500Y-05227500D01*
G01X01252500Y-04172500D02*
X01252500Y-04227500D01*
G01X01252500Y-03172500D02*
X01252500Y-03227500D01*
G01X01252500Y-02172500D02*
X01252500Y-02227500D01*
G01X01252500Y-01172500D02*
X01252500Y-01227500D01*
G01X01252500Y-00172500D02*
X01252500Y-00227500D01*
G01X01252500Y00827500D02*
X01252500Y00772500D01*
G01X01601230Y01859570D02*
X01791730Y01859570D01*
X01791730Y01918830D01*
X01782200Y01937800D01*
X01769500Y01949650D01*
X01744100Y01954390D01*
X01718700Y01949650D01*
X01702830Y01935430D01*
X01693300Y01918830D01*
X01693300Y01859570D01*
G01X01693300Y01918830D02*
X01601230Y01954390D01*
G01X01601230Y02097480D02*
X01791730Y02097480D01*
X01753630Y02069030D01*
G01X01601230Y02069030D02*
X01601230Y02125920D01*
G01X01682440Y02263890D02*
X01672910Y02278110D01*
X01666560Y02294700D01*
X01666560Y02313670D01*
X01676090Y02335010D01*
X01691960Y02351600D01*
X01711010Y02363450D01*
X01742760Y02372940D01*
X01771340Y02375310D01*
X01799910Y02370560D01*
X01818960Y02363450D01*
X01838010Y02349230D01*
X01850710Y02332630D01*
X01857060Y02316040D01*
X01857060Y02299450D01*
X01850710Y02282850D01*
X01841190Y02268630D01*
X01828490Y02256770D01*
G01X01857060Y02125540D02*
X01666560Y02125540D01*
X01704660Y02153990D01*
G01X01857060Y02153990D02*
X01857060Y02097100D01*
G01X01907510Y-06132270D02*
X01978290Y-06225400D01*
G01X01942900Y-06242330D02*
X01942900Y-06115330D01*
G01X01978290Y-06132270D02*
X01907510Y-06225400D01*
G01X01894640Y-06178830D02*
X01991160Y-06178830D01*
G01X01895070Y-06136500D02*
X01895070Y-06263500D01*
X01927240Y-06263500D01*
X01940110Y-06257150D01*
X01949760Y-06248680D01*
X01957810Y-06235990D01*
X01964240Y-06221160D01*
X01965850Y-06200000D01*
X01964240Y-06178830D01*
X01957810Y-06164010D01*
X01949760Y-06151310D01*
X01940110Y-06142850D01*
X01927240Y-06136500D01*
X01895070Y-06136500D01*
G01X02060000Y-06136500D02*
X02071260Y-06138620D01*
X02084130Y-06144960D01*
X02092170Y-06155550D01*
X02095390Y-06170370D01*
X02092170Y-06185180D01*
X02082520Y-06197880D01*
X02068040Y-06204230D01*
X02051960Y-06204230D01*
X02042300Y-06208470D01*
X02034260Y-06219050D01*
X02031040Y-06233870D01*
X02035870Y-06248680D01*
X02047130Y-06259270D01*
X02060000Y-06263500D01*
X02072870Y-06259270D01*
X02084130Y-06248680D01*
X02088960Y-06233870D01*
X02085740Y-06219050D01*
X02077700Y-06208470D01*
X02068040Y-06204230D01*
X02051960Y-06204230D01*
X02037480Y-06197880D01*
X02027830Y-06185180D01*
X02024610Y-06170370D01*
X02027830Y-06155550D01*
X02035870Y-06144960D01*
X02048740Y-06138620D01*
X02060000Y-06136500D01*
G01X02158970Y-06189410D02*
X02170240Y-06204230D01*
X02179890Y-06212700D01*
X02192760Y-06216930D01*
X02204020Y-06212700D01*
X02212060Y-06204230D01*
X02218500Y-06191530D01*
X02220110Y-06176720D01*
X02218500Y-06164010D01*
X02212060Y-06151310D01*
X02202410Y-06140730D01*
X02191150Y-06136500D01*
X02178280Y-06140730D01*
X02167020Y-06153430D01*
X02160580Y-06172480D01*
X02158970Y-06193650D01*
X02162190Y-06221160D01*
X02167020Y-06235990D01*
X02175060Y-06250800D01*
X02186320Y-06261380D01*
X02197580Y-06263500D01*
X02208840Y-06259270D01*
X02216890Y-06248680D01*
G01X01917500Y-06267500D02*
X01917500Y-06132500D01*
G01X02202500Y-06267500D02*
X01917500Y-06267500D01*
G01X02202500Y-06132500D02*
X02202500Y-06267500D01*
G01X01917500Y-06132500D02*
X02202500Y-06132500D01*
G01X01917500Y-06166250D02*
X01951250Y-06132500D01*
G01X01917500Y-06233750D02*
X01951250Y-06267500D01*
G01X02252500Y-06227500D02*
X02202500Y-06227500D01*
G01X02252500Y-06172500D02*
X02252500Y-06227500D01*
G01X02202500Y-06172500D02*
X02252500Y-06172500D01*
G01X02202500Y-06227500D02*
X02202500Y-06172500D01*
G01X01867500Y-06172500D02*
X01917500Y-06172500D01*
G01X01867500Y-06227500D02*
X01867500Y-06172500D01*
G01X01917500Y-06227500D02*
X01867500Y-06227500D01*
G01X01917500Y-06172500D02*
X01917500Y-06227500D01*
G01X01907510Y-05132270D02*
X01978290Y-05225400D01*
G01X01942900Y-05242330D02*
X01942900Y-05115330D01*
G01X01978290Y-05132270D02*
X01907510Y-05225400D01*
G01X01894640Y-05178830D02*
X01991160Y-05178830D01*
G01X01895070Y-05136500D02*
X01895070Y-05263500D01*
X01927240Y-05263500D01*
X01940110Y-05257150D01*
X01949760Y-05248680D01*
X01957810Y-05235990D01*
X01964240Y-05221160D01*
X01965850Y-05200000D01*
X01964240Y-05178830D01*
X01957810Y-05164010D01*
X01949760Y-05151310D01*
X01940110Y-05142850D01*
X01927240Y-05136500D01*
X01895070Y-05136500D01*
G01X02056780Y-05136500D02*
X02060000Y-05164010D01*
X02064830Y-05187300D01*
X02071260Y-05208470D01*
X02079300Y-05231750D01*
X02092170Y-05263500D01*
X02027830Y-05263500D01*
G01X02154150Y-05155550D02*
X02163800Y-05144960D01*
X02175060Y-05138620D01*
X02189540Y-05136500D01*
X02204020Y-05140730D01*
X02215280Y-05149200D01*
X02223320Y-05164010D01*
X02224930Y-05180950D01*
X02221710Y-05197880D01*
X02213670Y-05208470D01*
X02202410Y-05216930D01*
X02191150Y-05219050D01*
X02179890Y-05216930D01*
X02165410Y-05208470D01*
X02170240Y-05263500D01*
X02213670Y-05263500D01*
G01X01917500Y-05267500D02*
X01917500Y-05132500D01*
G01X02202500Y-05267500D02*
X01917500Y-05267500D01*
G01X02202500Y-05132500D02*
X02202500Y-05267500D01*
G01X01917500Y-05166250D02*
X01951250Y-05132500D01*
G01X01917500Y-05233750D02*
X01951250Y-05267500D01*
G01X02252500Y-05227500D02*
X02202500Y-05227500D01*
G01X02252500Y-05172500D02*
X02252500Y-05227500D01*
G01X02202500Y-05172500D02*
X02252500Y-05172500D01*
G01X02202500Y-05227500D02*
X02202500Y-05172500D01*
G01X01867500Y-05172500D02*
X01917500Y-05172500D01*
G01X01867500Y-05227500D02*
X01867500Y-05172500D01*
G01X01917500Y-05227500D02*
X01867500Y-05227500D01*
G01X01917500Y-05172500D02*
X01917500Y-05227500D01*
G01X01917500Y-05132500D02*
X02202500Y-05132500D01*
G01X01907510Y-04132270D02*
X01978290Y-04225400D01*
G01X01942900Y-04242330D02*
X01942900Y-04115330D01*
G01X01978290Y-04132270D02*
X01907510Y-04225400D01*
G01X01894640Y-04178830D02*
X01991160Y-04178830D01*
G01X01895070Y-04136500D02*
X01895070Y-04263500D01*
X01927240Y-04263500D01*
X01940110Y-04257150D01*
X01949760Y-04248680D01*
X01957810Y-04235990D01*
X01964240Y-04221160D01*
X01965850Y-04200000D01*
X01964240Y-04178830D01*
X01957810Y-04164010D01*
X01949760Y-04151310D01*
X01940110Y-04142850D01*
X01927240Y-04136500D01*
X01895070Y-04136500D01*
G01X02029430Y-04189410D02*
X02040700Y-04204230D01*
X02050350Y-04212700D01*
X02063220Y-04216930D01*
X02074480Y-04212700D01*
X02082520Y-04204230D01*
X02088960Y-04191530D01*
X02090570Y-04176720D01*
X02088960Y-04164010D01*
X02082520Y-04151310D01*
X02072870Y-04140730D01*
X02061610Y-04136500D01*
X02048740Y-04140730D01*
X02037480Y-04153430D01*
X02031040Y-04172480D01*
X02029430Y-04193650D01*
X02032650Y-04221160D01*
X02037480Y-04235990D01*
X02045520Y-04250800D01*
X02056780Y-04261380D01*
X02068040Y-04263500D01*
X02079300Y-04259270D01*
X02087350Y-04248680D01*
G01X02208840Y-04136500D02*
X02208840Y-04263500D01*
X02149320Y-04172480D01*
X02229760Y-04172480D01*
G01X01917500Y-04267500D02*
X01917500Y-04132500D01*
G01X02202500Y-04267500D02*
X01917500Y-04267500D01*
G01X02202500Y-04132500D02*
X02202500Y-04267500D01*
G01X01917500Y-04132500D02*
X02202500Y-04132500D01*
G01X01917500Y-04166250D02*
X01951250Y-04132500D01*
G01X01917500Y-04233750D02*
X01951250Y-04267500D01*
G01X02252500Y-04227500D02*
X02202500Y-04227500D01*
G01X02252500Y-04172500D02*
X02252500Y-04227500D01*
G01X02202500Y-04172500D02*
X02252500Y-04172500D01*
G01X02202500Y-04227500D02*
X02202500Y-04172500D01*
G01X01867500Y-04172500D02*
X01917500Y-04172500D01*
G01X01867500Y-04227500D02*
X01867500Y-04172500D01*
G01X01917500Y-04227500D02*
X01867500Y-04227500D01*
G01X01917500Y-04172500D02*
X01917500Y-04227500D01*
G01X01907510Y-03132270D02*
X01978290Y-03225400D01*
G01X01942900Y-03242330D02*
X01942900Y-03115330D01*
G01X01978290Y-03132270D02*
X01907510Y-03225400D01*
G01X01894640Y-03178830D02*
X01991160Y-03178830D01*
G01X01895070Y-03136500D02*
X01895070Y-03263500D01*
X01927240Y-03263500D01*
X01940110Y-03257150D01*
X01949760Y-03248680D01*
X01957810Y-03235990D01*
X01964240Y-03221160D01*
X01965850Y-03200000D01*
X01964240Y-03178830D01*
X01957810Y-03164010D01*
X01949760Y-03151310D01*
X01940110Y-03142850D01*
X01927240Y-03136500D01*
X01895070Y-03136500D01*
G01X02024610Y-03155550D02*
X02034260Y-03144960D01*
X02045520Y-03138620D01*
X02060000Y-03136500D01*
X02074480Y-03140730D01*
X02085740Y-03149200D01*
X02093780Y-03164010D01*
X02095390Y-03180950D01*
X02092170Y-03197880D01*
X02084130Y-03208470D01*
X02072870Y-03216930D01*
X02061610Y-03219050D01*
X02050350Y-03216930D01*
X02035870Y-03208470D01*
X02040700Y-03263500D01*
X02084130Y-03263500D01*
G01X02154150Y-03161900D02*
X02163800Y-03147080D01*
X02176670Y-03138620D01*
X02191150Y-03136500D01*
X02204020Y-03138620D01*
X02216890Y-03149200D01*
X02224930Y-03161900D01*
X02226540Y-03174600D01*
X02223320Y-03189410D01*
X02212060Y-03200000D01*
X02200800Y-03204230D01*
X02186320Y-03204230D01*
G01X02200800Y-03204230D02*
X02210450Y-03210580D01*
X02218500Y-03221160D01*
X02221710Y-03233870D01*
X02218500Y-03246570D01*
X02210450Y-03257150D01*
X02195970Y-03263500D01*
X02181500Y-03261380D01*
X02167020Y-03252920D01*
G01X01917500Y-03267500D02*
X01917500Y-03132500D01*
G01X02202500Y-03267500D02*
X01917500Y-03267500D01*
G01X02202500Y-03132500D02*
X02202500Y-03267500D01*
G01X01917500Y-03132500D02*
X02202500Y-03132500D01*
G01X01917500Y-03166250D02*
X01951250Y-03132500D01*
G01X01917500Y-03233750D02*
X01951250Y-03267500D01*
G01X02252500Y-03227500D02*
X02202500Y-03227500D01*
G01X02252500Y-03172500D02*
X02252500Y-03227500D01*
G01X02202500Y-03172500D02*
X02252500Y-03172500D01*
G01X02202500Y-03227500D02*
X02202500Y-03172500D01*
G01X01867500Y-03172500D02*
X01917500Y-03172500D01*
G01X01867500Y-03227500D02*
X01867500Y-03172500D01*
G01X01917500Y-03227500D02*
X01867500Y-03227500D01*
G01X01917500Y-03172500D02*
X01917500Y-03227500D01*
G01X01907510Y-02132270D02*
X01978290Y-02225400D01*
G01X01942900Y-02242330D02*
X01942900Y-02115330D01*
G01X01978290Y-02132270D02*
X01907510Y-02225400D01*
G01X01894640Y-02178830D02*
X01991160Y-02178830D01*
G01X01895070Y-02136500D02*
X01895070Y-02263500D01*
X01927240Y-02263500D01*
X01940110Y-02257150D01*
X01949760Y-02248680D01*
X01957810Y-02235990D01*
X01964240Y-02221160D01*
X01965850Y-02200000D01*
X01964240Y-02178830D01*
X01957810Y-02164010D01*
X01949760Y-02151310D01*
X01940110Y-02142850D01*
X01927240Y-02136500D01*
X01895070Y-02136500D01*
G01X02079300Y-02136500D02*
X02079300Y-02263500D01*
X02019780Y-02172480D01*
X02100220Y-02172480D01*
G01X02158970Y-02242330D02*
X02168630Y-02255030D01*
X02179890Y-02261380D01*
X02192760Y-02263500D01*
X02208840Y-02259270D01*
X02220110Y-02248680D01*
X02223320Y-02235990D01*
X02221710Y-02223280D01*
X02215280Y-02212700D01*
X02183110Y-02191530D01*
X02168630Y-02176720D01*
X02158970Y-02155550D01*
X02155760Y-02136500D01*
X02223320Y-02136500D01*
G01X01917500Y-02267500D02*
X01917500Y-02132500D01*
G01X02202500Y-02267500D02*
X01917500Y-02267500D01*
G01X02202500Y-02132500D02*
X02202500Y-02267500D01*
G01X01917500Y-02233750D02*
X01951250Y-02267500D01*
G01X02252500Y-02227500D02*
X02202500Y-02227500D01*
G01X02252500Y-02172500D02*
X02252500Y-02227500D01*
G01X02202500Y-02227500D02*
X02202500Y-02172500D01*
G01X01867500Y-02227500D02*
X01867500Y-02172500D01*
G01X01917500Y-02227500D02*
X01867500Y-02227500D01*
G01X01917500Y-02172500D02*
X01917500Y-02227500D01*
G01X01917500Y-02132500D02*
X02202500Y-02132500D01*
G01X01917500Y-02166250D02*
X01951250Y-02132500D01*
G01X02202500Y-02172500D02*
X02252500Y-02172500D01*
G01X01867500Y-02172500D02*
X01917500Y-02172500D01*
G01X01907510Y-01132270D02*
X01978290Y-01225400D01*
G01X01942900Y-01242330D02*
X01942900Y-01115330D01*
G01X01978290Y-01132270D02*
X01907510Y-01225400D01*
G01X01894640Y-01178830D02*
X01991160Y-01178830D01*
G01X01895070Y-01136500D02*
X01895070Y-01263500D01*
X01927240Y-01263500D01*
X01940110Y-01257150D01*
X01949760Y-01248680D01*
X01957810Y-01235990D01*
X01964240Y-01221160D01*
X01965850Y-01200000D01*
X01964240Y-01178830D01*
X01957810Y-01164010D01*
X01949760Y-01151310D01*
X01940110Y-01142850D01*
X01927240Y-01136500D01*
X01895070Y-01136500D01*
G01X02024610Y-01161900D02*
X02034260Y-01147080D01*
X02047130Y-01138620D01*
X02061610Y-01136500D01*
X02074480Y-01138620D01*
X02087350Y-01149200D01*
X02095390Y-01161900D01*
X02097000Y-01174600D01*
X02093780Y-01189410D01*
X02082520Y-01200000D01*
X02071260Y-01204230D01*
X02056780Y-01204230D01*
G01X02071260Y-01204230D02*
X02080910Y-01210580D01*
X02088960Y-01221160D01*
X02092170Y-01233870D01*
X02088960Y-01246570D01*
X02080910Y-01257150D01*
X02066430Y-01263500D01*
X02051960Y-01261380D01*
X02037480Y-01252920D01*
G01X02189540Y-01136500D02*
X02189540Y-01263500D01*
X02170240Y-01238100D01*
G01X02170240Y-01136500D02*
X02208840Y-01136500D01*
G01X01917500Y-01267500D02*
X01917500Y-01132500D01*
G01X02202500Y-01267500D02*
X01917500Y-01267500D01*
G01X02202500Y-01132500D02*
X02202500Y-01267500D01*
G01X01917500Y-01132500D02*
X02202500Y-01132500D01*
G01X01917500Y-01166250D02*
X01951250Y-01132500D01*
G01X01917500Y-01233750D02*
X01951250Y-01267500D01*
G01X02252500Y-01227500D02*
X02202500Y-01227500D01*
G01X02252500Y-01172500D02*
X02252500Y-01227500D01*
G01X02202500Y-01172500D02*
X02252500Y-01172500D01*
G01X02202500Y-01227500D02*
X02202500Y-01172500D01*
G01X01867500Y-01172500D02*
X01917500Y-01172500D01*
G01X01867500Y-01227500D02*
X01867500Y-01172500D01*
G01X01917500Y-01227500D02*
X01867500Y-01227500D01*
G01X01917500Y-01172500D02*
X01917500Y-01227500D01*
G01X01907510Y-00132270D02*
X01978290Y-00225400D01*
G01X01942900Y-00242330D02*
X01942900Y-00115330D01*
G01X01978290Y-00132270D02*
X01907510Y-00225400D01*
G01X01894640Y-00178830D02*
X01991160Y-00178830D01*
G01X01895070Y-00136500D02*
X01895070Y-00263500D01*
X01927240Y-00263500D01*
X01940110Y-00257150D01*
X01949760Y-00248680D01*
X01957810Y-00235990D01*
X01964240Y-00221160D01*
X01965850Y-00200000D01*
X01964240Y-00178830D01*
X01957810Y-00164010D01*
X01949760Y-00151310D01*
X01940110Y-00142850D01*
X01927240Y-00136500D01*
X01895070Y-00136500D01*
G01X02029430Y-00242330D02*
X02039090Y-00255030D01*
X02050350Y-00261380D01*
X02063220Y-00263500D01*
X02079300Y-00259270D01*
X02090570Y-00248680D01*
X02093780Y-00235990D01*
X02092170Y-00223280D01*
X02085740Y-00212700D01*
X02053570Y-00191530D01*
X02039090Y-00176720D01*
X02029430Y-00155550D01*
X02026220Y-00136500D01*
X02093780Y-00136500D01*
G01X02189540Y-00263500D02*
X02176670Y-00259270D01*
X02167020Y-00248680D01*
X02160580Y-00235990D01*
X02155760Y-00219050D01*
X02154150Y-00200000D01*
X02155760Y-00180950D01*
X02160580Y-00164010D01*
X02167020Y-00151310D01*
X02176670Y-00140730D01*
X02189540Y-00136500D01*
X02202410Y-00140730D01*
X02212060Y-00151310D01*
X02218500Y-00164010D01*
X02223320Y-00180950D01*
X02224930Y-00200000D01*
X02223320Y-00219050D01*
X02218500Y-00235990D01*
X02212060Y-00248680D01*
X02202410Y-00259270D01*
X02189540Y-00263500D01*
G01X01917500Y-00267500D02*
X01917500Y-00132500D01*
G01X02202500Y-00267500D02*
X01917500Y-00267500D01*
G01X02202500Y-00132500D02*
X02202500Y-00267500D01*
G01X01917500Y-00132500D02*
X02202500Y-00132500D01*
G01X01917500Y-00166250D02*
X01951250Y-00132500D01*
G01X01917500Y-00233750D02*
X01951250Y-00267500D01*
G01X02252500Y-00227500D02*
X02202500Y-00227500D01*
G01X02252500Y-00172500D02*
X02252500Y-00227500D01*
G01X02202500Y-00172500D02*
X02252500Y-00172500D01*
G01X02202500Y-00227500D02*
X02202500Y-00172500D01*
G01X01867500Y-00172500D02*
X01917500Y-00172500D01*
G01X01867500Y-00227500D02*
X01867500Y-00172500D01*
G01X01917500Y-00227500D02*
X01867500Y-00227500D01*
G01X01917500Y-00172500D02*
X01917500Y-00227500D01*
G01X01907510Y00867730D02*
X01978290Y00774600D01*
G01X01942900Y00757670D02*
X01942900Y00884670D01*
G01X01978290Y00867730D02*
X01907510Y00774600D01*
G01X01894640Y00821170D02*
X01991160Y00821170D01*
G01X01959840Y00863500D02*
X01959840Y00736500D01*
X01992010Y00736500D01*
X02004880Y00742850D01*
X02014530Y00751320D01*
X02022580Y00764010D01*
X02029010Y00778840D01*
X02030620Y00800000D01*
X02029010Y00821170D01*
X02022580Y00835990D01*
X02014530Y00848690D01*
X02004880Y00857150D01*
X01992010Y00863500D01*
X01959840Y00863500D01*
G01X02097420Y00848690D02*
X02108680Y00859270D01*
X02121550Y00863500D01*
X02134420Y00859270D01*
X02145680Y00846570D01*
X02153730Y00827520D01*
X02156940Y00808470D01*
X02156940Y00785180D01*
X02153730Y00766130D01*
X02145680Y00749200D01*
X02136030Y00740730D01*
X02124770Y00736500D01*
X02111900Y00740730D01*
X02102250Y00749200D01*
X02095810Y00761900D01*
X02092600Y00778840D01*
X02095810Y00793650D01*
X02103860Y00808470D01*
X02113510Y00816940D01*
X02124770Y00819050D01*
X02137640Y00814820D01*
X02147290Y00804230D01*
X02156940Y00785180D01*
G01X01917500Y00732500D02*
X01917500Y00867500D01*
G01X02202500Y00732500D02*
X01917500Y00732500D01*
G01X02202500Y00867500D02*
X02202500Y00732500D01*
G01X01917500Y00766250D02*
X01951250Y00732500D01*
G01X02252500Y00772500D02*
X02202500Y00772500D01*
G01X02252500Y00827500D02*
X02252500Y00772500D01*
G01X02202500Y00772500D02*
X02202500Y00827500D01*
G01X01867500Y00772500D02*
X01867500Y00827500D01*
G01X01917500Y00772500D02*
X01867500Y00772500D01*
G01X01917500Y00827500D02*
X01917500Y00772500D01*
G01X01917500Y00867500D02*
X02202500Y00867500D01*
G01X01917500Y00833750D02*
X01951250Y00867500D01*
G01X02202500Y00827500D02*
X02252500Y00827500D01*
G01X01867500Y00827500D02*
X01917500Y00827500D01*
G01X02344510Y03485040D02*
X02332660Y03465990D01*
X02318440Y03453290D01*
X02301840Y03446940D01*
X02282880Y03453290D01*
X02268650Y03465990D01*
X02254430Y03485040D01*
X02249690Y03510440D01*
X02249690Y03637440D01*
G01X02106600Y03446940D02*
X02106600Y03637440D01*
X02135050Y03599340D01*
G01X02135050Y03446940D02*
X02078160Y03446940D01*
G01X02035490Y03414960D02*
X02047340Y03434010D01*
X02061560Y03446710D01*
X02078160Y03453060D01*
X02097120Y03446710D01*
X02111350Y03434010D01*
X02125570Y03414960D01*
X02130310Y03389560D01*
X02130310Y03262560D01*
G01X02228360Y03294310D02*
X02242580Y03275260D01*
X02259180Y03265730D01*
X02278140Y03262560D01*
X02301850Y03268910D01*
X02318440Y03284790D01*
X02323180Y03303830D01*
X02320810Y03322890D01*
X02311330Y03338760D01*
X02263920Y03370510D01*
X02242580Y03392740D01*
X02228360Y03424490D01*
X02223620Y03453060D01*
X02323180Y03453060D01*
G01X02907510Y-06132270D02*
X02978290Y-06225400D01*
G01X02942900Y-06242330D02*
X02942900Y-06115330D01*
G01X02978290Y-06132270D02*
X02907510Y-06225400D01*
G01X02894640Y-06178830D02*
X02991160Y-06178830D01*
G01X02895070Y-06136500D02*
X02895070Y-06263500D01*
X02927240Y-06263500D01*
X02940110Y-06257150D01*
X02949760Y-06248680D01*
X02957810Y-06235990D01*
X02964240Y-06221160D01*
X02965850Y-06200000D01*
X02964240Y-06178830D01*
X02957810Y-06164010D01*
X02949760Y-06151310D01*
X02940110Y-06142850D01*
X02927240Y-06136500D01*
X02895070Y-06136500D01*
G01X03060000Y-06136500D02*
X03071260Y-06138620D01*
X03084130Y-06144960D01*
X03092170Y-06155550D01*
X03095390Y-06170370D01*
X03092170Y-06185180D01*
X03082520Y-06197880D01*
X03068040Y-06204230D01*
X03051960Y-06204230D01*
X03042300Y-06208470D01*
X03034260Y-06219050D01*
X03031040Y-06233870D01*
X03035870Y-06248680D01*
X03047130Y-06259270D01*
X03060000Y-06263500D01*
X03072870Y-06259270D01*
X03084130Y-06248680D01*
X03088960Y-06233870D01*
X03085740Y-06219050D01*
X03077700Y-06208470D01*
X03068040Y-06204230D01*
X03051960Y-06204230D01*
X03037480Y-06197880D01*
X03027830Y-06185180D01*
X03024610Y-06170370D01*
X03027830Y-06155550D01*
X03035870Y-06144960D01*
X03048740Y-06138620D01*
X03060000Y-06136500D01*
G01X03186320Y-06136500D02*
X03189540Y-06164010D01*
X03194370Y-06187300D01*
X03200800Y-06208470D01*
X03208840Y-06231750D01*
X03221710Y-06263500D01*
X03157370Y-06263500D01*
G01X02917500Y-06267500D02*
X02917500Y-06132500D01*
G01X03202500Y-06267500D02*
X02917500Y-06267500D01*
G01X02917500Y-06132500D02*
X03202500Y-06132500D01*
G01X02917500Y-06166250D02*
X02951250Y-06132500D01*
G01X02917500Y-06233750D02*
X02951250Y-06267500D01*
G01X02867500Y-06172500D02*
X02917500Y-06172500D01*
G01X02867500Y-06227500D02*
X02867500Y-06172500D01*
G01X02917500Y-06227500D02*
X02867500Y-06227500D01*
G01X02917500Y-06172500D02*
X02917500Y-06227500D01*
G01X02907510Y-05132270D02*
X02978290Y-05225400D01*
G01X02942900Y-05242330D02*
X02942900Y-05115330D01*
G01X02978290Y-05132270D02*
X02907510Y-05225400D01*
G01X02894640Y-05178830D02*
X02991160Y-05178830D01*
G01X02895070Y-05136500D02*
X02895070Y-05263500D01*
X02927240Y-05263500D01*
X02940110Y-05257150D01*
X02949760Y-05248680D01*
X02957810Y-05235990D01*
X02964240Y-05221160D01*
X02965850Y-05200000D01*
X02964240Y-05178830D01*
X02957810Y-05164010D01*
X02949760Y-05151310D01*
X02940110Y-05142850D01*
X02927240Y-05136500D01*
X02895070Y-05136500D01*
G01X03056780Y-05136500D02*
X03060000Y-05164010D01*
X03064830Y-05187300D01*
X03071260Y-05208470D01*
X03079300Y-05231750D01*
X03092170Y-05263500D01*
X03027830Y-05263500D01*
G01X03158970Y-05189410D02*
X03170240Y-05204230D01*
X03179890Y-05212700D01*
X03192760Y-05216930D01*
X03204020Y-05212700D01*
X03212060Y-05204230D01*
X03218500Y-05191530D01*
X03220110Y-05176720D01*
X03218500Y-05164010D01*
X03212060Y-05151310D01*
X03202410Y-05140730D01*
X03191150Y-05136500D01*
X03178280Y-05140730D01*
X03167020Y-05153430D01*
X03160580Y-05172480D01*
X03158970Y-05193650D01*
X03162190Y-05221160D01*
X03167020Y-05235990D01*
X03175060Y-05250800D01*
X03186320Y-05261380D01*
X03197580Y-05263500D01*
X03208840Y-05259270D01*
X03216890Y-05248680D01*
G01X02917500Y-05267500D02*
X02917500Y-05132500D01*
G01X03202500Y-05267500D02*
X02917500Y-05267500D01*
G01X02917500Y-05166250D02*
X02951250Y-05132500D01*
G01X02917500Y-05233750D02*
X02951250Y-05267500D01*
G01X02867500Y-05172500D02*
X02917500Y-05172500D01*
G01X02867500Y-05227500D02*
X02867500Y-05172500D01*
G01X02917500Y-05227500D02*
X02867500Y-05227500D01*
G01X02917500Y-05172500D02*
X02917500Y-05227500D01*
G01X02917500Y-05132500D02*
X03202500Y-05132500D01*
G01X02907510Y-04132270D02*
X02978290Y-04225400D01*
G01X02942900Y-04242330D02*
X02942900Y-04115330D01*
G01X02978290Y-04132270D02*
X02907510Y-04225400D01*
G01X02894640Y-04178830D02*
X02991160Y-04178830D01*
G01X02895070Y-04136500D02*
X02895070Y-04263500D01*
X02927240Y-04263500D01*
X02940110Y-04257150D01*
X02949760Y-04248680D01*
X02957810Y-04235990D01*
X02964240Y-04221160D01*
X02965850Y-04200000D01*
X02964240Y-04178830D01*
X02957810Y-04164010D01*
X02949760Y-04151310D01*
X02940110Y-04142850D01*
X02927240Y-04136500D01*
X02895070Y-04136500D01*
G01X03029430Y-04189410D02*
X03040700Y-04204230D01*
X03050350Y-04212700D01*
X03063220Y-04216930D01*
X03074480Y-04212700D01*
X03082520Y-04204230D01*
X03088960Y-04191530D01*
X03090570Y-04176720D01*
X03088960Y-04164010D01*
X03082520Y-04151310D01*
X03072870Y-04140730D01*
X03061610Y-04136500D01*
X03048740Y-04140730D01*
X03037480Y-04153430D01*
X03031040Y-04172480D01*
X03029430Y-04193650D01*
X03032650Y-04221160D01*
X03037480Y-04235990D01*
X03045520Y-04250800D01*
X03056780Y-04261380D01*
X03068040Y-04263500D01*
X03079300Y-04259270D01*
X03087350Y-04248680D01*
G01X03154150Y-04155550D02*
X03163800Y-04144960D01*
X03175060Y-04138620D01*
X03189540Y-04136500D01*
X03204020Y-04140730D01*
X03215280Y-04149200D01*
X03223320Y-04164010D01*
X03224930Y-04180950D01*
X03221710Y-04197880D01*
X03213670Y-04208470D01*
X03202410Y-04216930D01*
X03191150Y-04219050D01*
X03179890Y-04216930D01*
X03165410Y-04208470D01*
X03170240Y-04263500D01*
X03213670Y-04263500D01*
G01X02917500Y-04267500D02*
X02917500Y-04132500D01*
G01X03202500Y-04267500D02*
X02917500Y-04267500D01*
G01X02917500Y-04132500D02*
X03202500Y-04132500D01*
G01X02917500Y-04166250D02*
X02951250Y-04132500D01*
G01X02917500Y-04233750D02*
X02951250Y-04267500D01*
G01X02867500Y-04172500D02*
X02917500Y-04172500D01*
G01X02867500Y-04227500D02*
X02867500Y-04172500D01*
G01X02917500Y-04227500D02*
X02867500Y-04227500D01*
G01X02917500Y-04172500D02*
X02917500Y-04227500D01*
G01X02907510Y-03132270D02*
X02978290Y-03225400D01*
G01X02942900Y-03242330D02*
X02942900Y-03115330D01*
G01X02978290Y-03132270D02*
X02907510Y-03225400D01*
G01X02894640Y-03178830D02*
X02991160Y-03178830D01*
G01X02895070Y-03136500D02*
X02895070Y-03263500D01*
X02927240Y-03263500D01*
X02940110Y-03257150D01*
X02949760Y-03248680D01*
X02957810Y-03235990D01*
X02964240Y-03221160D01*
X02965850Y-03200000D01*
X02964240Y-03178830D01*
X02957810Y-03164010D01*
X02949760Y-03151310D01*
X02940110Y-03142850D01*
X02927240Y-03136500D01*
X02895070Y-03136500D01*
G01X03024610Y-03155550D02*
X03034260Y-03144960D01*
X03045520Y-03138620D01*
X03060000Y-03136500D01*
X03074480Y-03140730D01*
X03085740Y-03149200D01*
X03093780Y-03164010D01*
X03095390Y-03180950D01*
X03092170Y-03197880D01*
X03084130Y-03208470D01*
X03072870Y-03216930D01*
X03061610Y-03219050D01*
X03050350Y-03216930D01*
X03035870Y-03208470D01*
X03040700Y-03263500D01*
X03084130Y-03263500D01*
G01X03208840Y-03136500D02*
X03208840Y-03263500D01*
X03149320Y-03172480D01*
X03229760Y-03172480D01*
G01X02917500Y-03267500D02*
X02917500Y-03132500D01*
G01X03202500Y-03267500D02*
X02917500Y-03267500D01*
G01X02917500Y-03132500D02*
X03202500Y-03132500D01*
G01X02917500Y-03166250D02*
X02951250Y-03132500D01*
G01X02917500Y-03233750D02*
X02951250Y-03267500D01*
G01X02867500Y-03172500D02*
X02917500Y-03172500D01*
G01X02867500Y-03227500D02*
X02867500Y-03172500D01*
G01X02917500Y-03227500D02*
X02867500Y-03227500D01*
G01X02917500Y-03172500D02*
X02917500Y-03227500D01*
G01X02907510Y-02132270D02*
X02978290Y-02225400D01*
G01X02942900Y-02242330D02*
X02942900Y-02115330D01*
G01X02978290Y-02132270D02*
X02907510Y-02225400D01*
G01X02894640Y-02178830D02*
X02991160Y-02178830D01*
G01X02895070Y-02136500D02*
X02895070Y-02263500D01*
X02927240Y-02263500D01*
X02940110Y-02257150D01*
X02949760Y-02248680D01*
X02957810Y-02235990D01*
X02964240Y-02221160D01*
X02965850Y-02200000D01*
X02964240Y-02178830D01*
X02957810Y-02164010D01*
X02949760Y-02151310D01*
X02940110Y-02142850D01*
X02927240Y-02136500D01*
X02895070Y-02136500D01*
G01X03079300Y-02136500D02*
X03079300Y-02263500D01*
X03019780Y-02172480D01*
X03100220Y-02172480D01*
G01X03154150Y-02161900D02*
X03163800Y-02147080D01*
X03176670Y-02138620D01*
X03191150Y-02136500D01*
X03204020Y-02138620D01*
X03216890Y-02149200D01*
X03224930Y-02161900D01*
X03226540Y-02174600D01*
X03223320Y-02189410D01*
X03212060Y-02200000D01*
X03200800Y-02204230D01*
X03186320Y-02204230D01*
G01X03200800Y-02204230D02*
X03210450Y-02210580D01*
X03218500Y-02221160D01*
X03221710Y-02233870D01*
X03218500Y-02246570D01*
X03210450Y-02257150D01*
X03195970Y-02263500D01*
X03181500Y-02261380D01*
X03167020Y-02252920D01*
G01X02917500Y-02267500D02*
X02917500Y-02132500D01*
G01X03202500Y-02267500D02*
X02917500Y-02267500D01*
G01X02917500Y-02233750D02*
X02951250Y-02267500D01*
G01X02867500Y-02227500D02*
X02867500Y-02172500D01*
G01X02917500Y-02227500D02*
X02867500Y-02227500D01*
G01X02917500Y-02172500D02*
X02917500Y-02227500D01*
G01X02917500Y-02132500D02*
X03202500Y-02132500D01*
G01X02917500Y-02166250D02*
X02951250Y-02132500D01*
G01X02867500Y-02172500D02*
X02917500Y-02172500D01*
G01X02907510Y-01132270D02*
X02978290Y-01225400D01*
G01X02942900Y-01242330D02*
X02942900Y-01115330D01*
G01X02978290Y-01132270D02*
X02907510Y-01225400D01*
G01X02894640Y-01178830D02*
X02991160Y-01178830D01*
G01X02895070Y-01136500D02*
X02895070Y-01263500D01*
X02927240Y-01263500D01*
X02940110Y-01257150D01*
X02949760Y-01248680D01*
X02957810Y-01235990D01*
X02964240Y-01221160D01*
X02965850Y-01200000D01*
X02964240Y-01178830D01*
X02957810Y-01164010D01*
X02949760Y-01151310D01*
X02940110Y-01142850D01*
X02927240Y-01136500D01*
X02895070Y-01136500D01*
G01X03024610Y-01161900D02*
X03034260Y-01147080D01*
X03047130Y-01138620D01*
X03061610Y-01136500D01*
X03074480Y-01138620D01*
X03087350Y-01149200D01*
X03095390Y-01161900D01*
X03097000Y-01174600D01*
X03093780Y-01189410D01*
X03082520Y-01200000D01*
X03071260Y-01204230D01*
X03056780Y-01204230D01*
G01X03071260Y-01204230D02*
X03080910Y-01210580D01*
X03088960Y-01221160D01*
X03092170Y-01233870D01*
X03088960Y-01246570D01*
X03080910Y-01257150D01*
X03066430Y-01263500D01*
X03051960Y-01261380D01*
X03037480Y-01252920D01*
G01X03158970Y-01242330D02*
X03168630Y-01255030D01*
X03179890Y-01261380D01*
X03192760Y-01263500D01*
X03208840Y-01259270D01*
X03220110Y-01248680D01*
X03223320Y-01235990D01*
X03221710Y-01223280D01*
X03215280Y-01212700D01*
X03183110Y-01191530D01*
X03168630Y-01176720D01*
X03158970Y-01155550D01*
X03155760Y-01136500D01*
X03223320Y-01136500D01*
G01X02917500Y-01267500D02*
X02917500Y-01132500D01*
G01X03202500Y-01267500D02*
X02917500Y-01267500D01*
G01X02917500Y-01132500D02*
X03202500Y-01132500D01*
G01X02917500Y-01166250D02*
X02951250Y-01132500D01*
G01X02917500Y-01233750D02*
X02951250Y-01267500D01*
G01X02867500Y-01172500D02*
X02917500Y-01172500D01*
G01X02867500Y-01227500D02*
X02867500Y-01172500D01*
G01X02917500Y-01227500D02*
X02867500Y-01227500D01*
G01X02917500Y-01172500D02*
X02917500Y-01227500D01*
G01X02907510Y-00132270D02*
X02978290Y-00225400D01*
G01X02942900Y-00242330D02*
X02942900Y-00115330D01*
G01X02978290Y-00132270D02*
X02907510Y-00225400D01*
G01X02894640Y-00178830D02*
X02991160Y-00178830D01*
G01X02895070Y-00136500D02*
X02895070Y-00263500D01*
X02927240Y-00263500D01*
X02940110Y-00257150D01*
X02949760Y-00248680D01*
X02957810Y-00235990D01*
X02964240Y-00221160D01*
X02965850Y-00200000D01*
X02964240Y-00178830D01*
X02957810Y-00164010D01*
X02949760Y-00151310D01*
X02940110Y-00142850D01*
X02927240Y-00136500D01*
X02895070Y-00136500D01*
G01X03029430Y-00242330D02*
X03039090Y-00255030D01*
X03050350Y-00261380D01*
X03063220Y-00263500D01*
X03079300Y-00259270D01*
X03090570Y-00248680D01*
X03093780Y-00235990D01*
X03092170Y-00223280D01*
X03085740Y-00212700D01*
X03053570Y-00191530D01*
X03039090Y-00176720D01*
X03029430Y-00155550D01*
X03026220Y-00136500D01*
X03093780Y-00136500D01*
G01X03189540Y-00136500D02*
X03189540Y-00263500D01*
X03170240Y-00238100D01*
G01X03170240Y-00136500D02*
X03208840Y-00136500D01*
G01X02917500Y-00267500D02*
X02917500Y-00132500D01*
G01X03202500Y-00267500D02*
X02917500Y-00267500D01*
G01X02917500Y-00132500D02*
X03202500Y-00132500D01*
G01X02917500Y-00166250D02*
X02951250Y-00132500D01*
G01X02917500Y-00233750D02*
X02951250Y-00267500D01*
G01X02867500Y-00172500D02*
X02917500Y-00172500D01*
G01X02867500Y-00227500D02*
X02867500Y-00172500D01*
G01X02917500Y-00227500D02*
X02867500Y-00227500D01*
G01X02917500Y-00172500D02*
X02917500Y-00227500D01*
G01X02907510Y00867730D02*
X02978290Y00774600D01*
G01X02942900Y00757670D02*
X02942900Y00884670D01*
G01X02978290Y00867730D02*
X02907510Y00774600D01*
G01X02894640Y00821170D02*
X02991160Y00821170D01*
G01X02895070Y00863500D02*
X02895070Y00736500D01*
X02927240Y00736500D01*
X02940110Y00742850D01*
X02949760Y00751320D01*
X02957810Y00764010D01*
X02964240Y00778840D01*
X02965850Y00800000D01*
X02964240Y00821170D01*
X02957810Y00835990D01*
X02949760Y00848690D01*
X02940110Y00857150D01*
X02927240Y00863500D01*
X02895070Y00863500D01*
G01X03060000Y00863500D02*
X03060000Y00736500D01*
X03040700Y00761900D01*
G01X03040700Y00863500D02*
X03079300Y00863500D01*
G01X03189540Y00736500D02*
X03176670Y00740730D01*
X03167020Y00751320D01*
X03160580Y00764010D01*
X03155760Y00780950D01*
X03154150Y00800000D01*
X03155760Y00819050D01*
X03160580Y00835990D01*
X03167020Y00848690D01*
X03176670Y00859270D01*
X03189540Y00863500D01*
X03202410Y00859270D01*
X03212060Y00848690D01*
X03218500Y00835990D01*
X03223320Y00819050D01*
X03224930Y00800000D01*
X03223320Y00780950D01*
X03218500Y00764010D01*
X03212060Y00751320D01*
X03202410Y00740730D01*
X03189540Y00736500D01*
G01X02917500Y00732500D02*
X02917500Y00867500D01*
G01X03202500Y00732500D02*
X02917500Y00732500D01*
G01X02917500Y00766250D02*
X02951250Y00732500D01*
G01X02867500Y00772500D02*
X02867500Y00827500D01*
G01X02917500Y00772500D02*
X02867500Y00772500D01*
G01X02917500Y00827500D02*
X02917500Y00772500D01*
G01X02917500Y00867500D02*
X03202500Y00867500D01*
G01X02917500Y00833750D02*
X02951250Y00867500D01*
G01X02867500Y00827500D02*
X02917500Y00827500D01*
G01X02576500Y02015230D02*
X02578620Y02002360D01*
X02587080Y01991100D01*
X02599780Y01981450D01*
X02614600Y01975010D01*
X02631530Y01971790D01*
X02648470Y01971790D01*
X02665400Y01975010D01*
X02680220Y01981450D01*
X02692920Y01991100D01*
X02701380Y02002360D01*
X02703500Y02015230D01*
X02701380Y02028100D01*
X02692920Y02039360D01*
X02680220Y02049010D01*
X02665400Y02055450D01*
X02648470Y02058670D01*
X02631530Y02058670D01*
X02614600Y02055450D01*
X02599780Y02049010D01*
X02587080Y02039360D01*
X02578620Y02028100D01*
X02576500Y02015230D01*
G01X02610370Y02028100D02*
X02576500Y02047400D01*
G01X02576500Y02144770D02*
X02703500Y02144770D01*
X02678100Y02125470D01*
G01X02576500Y02125470D02*
X02576500Y02164070D01*
G01X02707500Y01970000D02*
X02572500Y01970000D01*
G01X02707500Y02190000D02*
X02707500Y01970000D01*
G01X02572500Y01970000D02*
X02572500Y02190000D01*
G01X02610600Y01995400D02*
G02X02610600Y01995400I-00012700J0D01*
G01X02572500Y02190000D02*
X02707500Y02190000D01*
G01X02750000Y02060000D02*
X02707500Y02060000D01*
G01X02750000Y02100000D02*
X02750000Y02060000D01*
G01X02707500Y02100000D02*
X02750000Y02100000D01*
G01X02707500Y02060000D02*
X02707500Y02100000D01*
G01X02530000Y02170000D02*
X02572500Y02170000D01*
G01X02530000Y02130000D02*
X02530000Y02170000D01*
G01X02572500Y02130000D02*
X02530000Y02130000D01*
G01X02572500Y02170000D02*
X02572500Y02130000D01*
G01X02530000Y02030000D02*
X02572500Y02030000D01*
G01X02530000Y01990000D02*
X02530000Y02030000D01*
G01X02572500Y01990000D02*
X02530000Y01990000D01*
G01X02572500Y02030000D02*
X02572500Y01990000D01*
G01X03202500Y-06132500D02*
X03202500Y-06267500D01*
G01X03252500Y-06227500D02*
X03202500Y-06227500D01*
G01X03252500Y-06172500D02*
X03252500Y-06227500D01*
G01X03202500Y-06172500D02*
X03252500Y-06172500D01*
G01X03202500Y-06227500D02*
X03202500Y-06172500D01*
G01X03202500Y-05132500D02*
X03202500Y-05267500D01*
G01X03252500Y-05227500D02*
X03202500Y-05227500D01*
G01X03252500Y-05172500D02*
X03252500Y-05227500D01*
G01X03202500Y-05172500D02*
X03252500Y-05172500D01*
G01X03202500Y-05227500D02*
X03202500Y-05172500D01*
G01X03202500Y-04132500D02*
X03202500Y-04267500D01*
G01X03252500Y-04227500D02*
X03202500Y-04227500D01*
G01X03252500Y-04172500D02*
X03252500Y-04227500D01*
G01X03202500Y-04172500D02*
X03252500Y-04172500D01*
G01X03202500Y-04227500D02*
X03202500Y-04172500D01*
G01X03202500Y-03132500D02*
X03202500Y-03267500D01*
G01X03252500Y-03227500D02*
X03202500Y-03227500D01*
G01X03252500Y-03172500D02*
X03252500Y-03227500D01*
G01X03202500Y-03172500D02*
X03252500Y-03172500D01*
G01X03202500Y-03227500D02*
X03202500Y-03172500D01*
G01X03202500Y-02132500D02*
X03202500Y-02267500D01*
G01X03252500Y-02227500D02*
X03202500Y-02227500D01*
G01X03252500Y-02172500D02*
X03252500Y-02227500D01*
G01X03202500Y-02227500D02*
X03202500Y-02172500D01*
G01X03202500Y-02172500D02*
X03252500Y-02172500D01*
G01X03202500Y-01132500D02*
X03202500Y-01267500D01*
G01X03252500Y-01227500D02*
X03202500Y-01227500D01*
G01X03252500Y-01172500D02*
X03252500Y-01227500D01*
G01X03202500Y-01172500D02*
X03252500Y-01172500D01*
G01X03202500Y-01227500D02*
X03202500Y-01172500D01*
G01X03202500Y-00132500D02*
X03202500Y-00267500D01*
G01X03252500Y-00227500D02*
X03202500Y-00227500D01*
G01X03252500Y-00172500D02*
X03252500Y-00227500D01*
G01X03202500Y-00172500D02*
X03252500Y-00172500D01*
G01X03202500Y-00227500D02*
X03202500Y-00172500D01*
G01X03202500Y00867500D02*
X03202500Y00732500D01*
G01X03252500Y00772500D02*
X03202500Y00772500D01*
G01X03252500Y00827500D02*
X03252500Y00772500D01*
G01X03202500Y00772500D02*
X03202500Y00827500D01*
G01X03202500Y00827500D02*
X03252500Y00827500D01*
G01X03907510Y-06132270D02*
X03978290Y-06225400D01*
G01X03942900Y-06242330D02*
X03942900Y-06115330D01*
G01X03978290Y-06132270D02*
X03907510Y-06225400D01*
G01X03894640Y-06178830D02*
X03991160Y-06178830D01*
G01X03895070Y-06136500D02*
X03895070Y-06263500D01*
X03927240Y-06263500D01*
X03940110Y-06257150D01*
X03949760Y-06248680D01*
X03957810Y-06235990D01*
X03964240Y-06221160D01*
X03965850Y-06200000D01*
X03964240Y-06178830D01*
X03957810Y-06164010D01*
X03949760Y-06151310D01*
X03940110Y-06142850D01*
X03927240Y-06136500D01*
X03895070Y-06136500D01*
G01X04060000Y-06136500D02*
X04071260Y-06138620D01*
X04084130Y-06144960D01*
X04092170Y-06155550D01*
X04095390Y-06170370D01*
X04092170Y-06185180D01*
X04082520Y-06197880D01*
X04068040Y-06204230D01*
X04051960Y-06204230D01*
X04042300Y-06208470D01*
X04034260Y-06219050D01*
X04031040Y-06233870D01*
X04035870Y-06248680D01*
X04047130Y-06259270D01*
X04060000Y-06263500D01*
X04072870Y-06259270D01*
X04084130Y-06248680D01*
X04088960Y-06233870D01*
X04085740Y-06219050D01*
X04077700Y-06208470D01*
X04068040Y-06204230D01*
X04051960Y-06204230D01*
X04037480Y-06197880D01*
X04027830Y-06185180D01*
X04024610Y-06170370D01*
X04027830Y-06155550D01*
X04035870Y-06144960D01*
X04048740Y-06138620D01*
X04060000Y-06136500D01*
G01X04189540Y-06136500D02*
X04200800Y-06138620D01*
X04213670Y-06144960D01*
X04221710Y-06155550D01*
X04224930Y-06170370D01*
X04221710Y-06185180D01*
X04212060Y-06197880D01*
X04197580Y-06204230D01*
X04181500Y-06204230D01*
X04171840Y-06208470D01*
X04163800Y-06219050D01*
X04160580Y-06233870D01*
X04165410Y-06248680D01*
X04176670Y-06259270D01*
X04189540Y-06263500D01*
X04202410Y-06259270D01*
X04213670Y-06248680D01*
X04218500Y-06233870D01*
X04215280Y-06219050D01*
X04207240Y-06208470D01*
X04197580Y-06204230D01*
X04181500Y-06204230D01*
X04167020Y-06197880D01*
X04157370Y-06185180D01*
X04154150Y-06170370D01*
X04157370Y-06155550D01*
X04165410Y-06144960D01*
X04178280Y-06138620D01*
X04189540Y-06136500D01*
G01X03917500Y-06267500D02*
X03917500Y-06132500D01*
G01X04202500Y-06267500D02*
X03917500Y-06267500D01*
G01X03917500Y-06132500D02*
X04202500Y-06132500D01*
G01X03917500Y-06166250D02*
X03951250Y-06132500D01*
G01X03917500Y-06233750D02*
X03951250Y-06267500D01*
G01X03867500Y-06172500D02*
X03917500Y-06172500D01*
G01X03867500Y-06227500D02*
X03867500Y-06172500D01*
G01X03917500Y-06227500D02*
X03867500Y-06227500D01*
G01X03917500Y-06172500D02*
X03917500Y-06227500D01*
G01X03907510Y-05132270D02*
X03978290Y-05225400D01*
G01X03942900Y-05242330D02*
X03942900Y-05115330D01*
G01X03978290Y-05132270D02*
X03907510Y-05225400D01*
G01X03894640Y-05178830D02*
X03991160Y-05178830D01*
G01X03895070Y-05136500D02*
X03895070Y-05263500D01*
X03927240Y-05263500D01*
X03940110Y-05257150D01*
X03949760Y-05248680D01*
X03957810Y-05235990D01*
X03964240Y-05221160D01*
X03965850Y-05200000D01*
X03964240Y-05178830D01*
X03957810Y-05164010D01*
X03949760Y-05151310D01*
X03940110Y-05142850D01*
X03927240Y-05136500D01*
X03895070Y-05136500D01*
G01X04056780Y-05136500D02*
X04060000Y-05164010D01*
X04064830Y-05187300D01*
X04071260Y-05208470D01*
X04079300Y-05231750D01*
X04092170Y-05263500D01*
X04027830Y-05263500D01*
G01X04186320Y-05136500D02*
X04189540Y-05164010D01*
X04194370Y-05187300D01*
X04200800Y-05208470D01*
X04208840Y-05231750D01*
X04221710Y-05263500D01*
X04157370Y-05263500D01*
G01X03917500Y-05267500D02*
X03917500Y-05132500D01*
G01X04202500Y-05267500D02*
X03917500Y-05267500D01*
G01X03917500Y-05166250D02*
X03951250Y-05132500D01*
G01X03917500Y-05233750D02*
X03951250Y-05267500D01*
G01X03867500Y-05172500D02*
X03917500Y-05172500D01*
G01X03867500Y-05227500D02*
X03867500Y-05172500D01*
G01X03917500Y-05227500D02*
X03867500Y-05227500D01*
G01X03917500Y-05172500D02*
X03917500Y-05227500D01*
G01X03917500Y-05132500D02*
X04202500Y-05132500D01*
G01X03907510Y-04132270D02*
X03978290Y-04225400D01*
G01X03942900Y-04242330D02*
X03942900Y-04115330D01*
G01X03978290Y-04132270D02*
X03907510Y-04225400D01*
G01X03894640Y-04178830D02*
X03991160Y-04178830D01*
G01X03895070Y-04136500D02*
X03895070Y-04263500D01*
X03927240Y-04263500D01*
X03940110Y-04257150D01*
X03949760Y-04248680D01*
X03957810Y-04235990D01*
X03964240Y-04221160D01*
X03965850Y-04200000D01*
X03964240Y-04178830D01*
X03957810Y-04164010D01*
X03949760Y-04151310D01*
X03940110Y-04142850D01*
X03927240Y-04136500D01*
X03895070Y-04136500D01*
G01X04029430Y-04189410D02*
X04040700Y-04204230D01*
X04050350Y-04212700D01*
X04063220Y-04216930D01*
X04074480Y-04212700D01*
X04082520Y-04204230D01*
X04088960Y-04191530D01*
X04090570Y-04176720D01*
X04088960Y-04164010D01*
X04082520Y-04151310D01*
X04072870Y-04140730D01*
X04061610Y-04136500D01*
X04048740Y-04140730D01*
X04037480Y-04153430D01*
X04031040Y-04172480D01*
X04029430Y-04193650D01*
X04032650Y-04221160D01*
X04037480Y-04235990D01*
X04045520Y-04250800D01*
X04056780Y-04261380D01*
X04068040Y-04263500D01*
X04079300Y-04259270D01*
X04087350Y-04248680D01*
G01X04158970Y-04189410D02*
X04170240Y-04204230D01*
X04179890Y-04212700D01*
X04192760Y-04216930D01*
X04204020Y-04212700D01*
X04212060Y-04204230D01*
X04218500Y-04191530D01*
X04220110Y-04176720D01*
X04218500Y-04164010D01*
X04212060Y-04151310D01*
X04202410Y-04140730D01*
X04191150Y-04136500D01*
X04178280Y-04140730D01*
X04167020Y-04153430D01*
X04160580Y-04172480D01*
X04158970Y-04193650D01*
X04162190Y-04221160D01*
X04167020Y-04235990D01*
X04175060Y-04250800D01*
X04186320Y-04261380D01*
X04197580Y-04263500D01*
X04208840Y-04259270D01*
X04216890Y-04248680D01*
G01X03917500Y-04267500D02*
X03917500Y-04132500D01*
G01X04202500Y-04267500D02*
X03917500Y-04267500D01*
G01X03917500Y-04132500D02*
X04202500Y-04132500D01*
G01X03917500Y-04166250D02*
X03951250Y-04132500D01*
G01X03917500Y-04233750D02*
X03951250Y-04267500D01*
G01X03867500Y-04172500D02*
X03917500Y-04172500D01*
G01X03867500Y-04227500D02*
X03867500Y-04172500D01*
G01X03917500Y-04227500D02*
X03867500Y-04227500D01*
G01X03917500Y-04172500D02*
X03917500Y-04227500D01*
G01X03907510Y-03132270D02*
X03978290Y-03225400D01*
G01X03942900Y-03242330D02*
X03942900Y-03115330D01*
G01X03978290Y-03132270D02*
X03907510Y-03225400D01*
G01X03894640Y-03178830D02*
X03991160Y-03178830D01*
G01X03895070Y-03136500D02*
X03895070Y-03263500D01*
X03927240Y-03263500D01*
X03940110Y-03257150D01*
X03949760Y-03248680D01*
X03957810Y-03235990D01*
X03964240Y-03221160D01*
X03965850Y-03200000D01*
X03964240Y-03178830D01*
X03957810Y-03164010D01*
X03949760Y-03151310D01*
X03940110Y-03142850D01*
X03927240Y-03136500D01*
X03895070Y-03136500D01*
G01X04024610Y-03155550D02*
X04034260Y-03144960D01*
X04045520Y-03138620D01*
X04060000Y-03136500D01*
X04074480Y-03140730D01*
X04085740Y-03149200D01*
X04093780Y-03164010D01*
X04095390Y-03180950D01*
X04092170Y-03197880D01*
X04084130Y-03208470D01*
X04072870Y-03216930D01*
X04061610Y-03219050D01*
X04050350Y-03216930D01*
X04035870Y-03208470D01*
X04040700Y-03263500D01*
X04084130Y-03263500D01*
G01X04154150Y-03155550D02*
X04163800Y-03144960D01*
X04175060Y-03138620D01*
X04189540Y-03136500D01*
X04204020Y-03140730D01*
X04215280Y-03149200D01*
X04223320Y-03164010D01*
X04224930Y-03180950D01*
X04221710Y-03197880D01*
X04213670Y-03208470D01*
X04202410Y-03216930D01*
X04191150Y-03219050D01*
X04179890Y-03216930D01*
X04165410Y-03208470D01*
X04170240Y-03263500D01*
X04213670Y-03263500D01*
G01X03917500Y-03267500D02*
X03917500Y-03132500D01*
G01X04202500Y-03267500D02*
X03917500Y-03267500D01*
G01X03917500Y-03132500D02*
X04202500Y-03132500D01*
G01X03917500Y-03166250D02*
X03951250Y-03132500D01*
G01X03917500Y-03233750D02*
X03951250Y-03267500D01*
G01X03867500Y-03172500D02*
X03917500Y-03172500D01*
G01X03867500Y-03227500D02*
X03867500Y-03172500D01*
G01X03917500Y-03227500D02*
X03867500Y-03227500D01*
G01X03917500Y-03172500D02*
X03917500Y-03227500D01*
G01X03907510Y-02132270D02*
X03978290Y-02225400D01*
G01X03942900Y-02242330D02*
X03942900Y-02115330D01*
G01X03978290Y-02132270D02*
X03907510Y-02225400D01*
G01X03894640Y-02178830D02*
X03991160Y-02178830D01*
G01X03895070Y-02136500D02*
X03895070Y-02263500D01*
X03927240Y-02263500D01*
X03940110Y-02257150D01*
X03949760Y-02248680D01*
X03957810Y-02235990D01*
X03964240Y-02221160D01*
X03965850Y-02200000D01*
X03964240Y-02178830D01*
X03957810Y-02164010D01*
X03949760Y-02151310D01*
X03940110Y-02142850D01*
X03927240Y-02136500D01*
X03895070Y-02136500D01*
G01X04079300Y-02136500D02*
X04079300Y-02263500D01*
X04019780Y-02172480D01*
X04100220Y-02172480D01*
G01X04208840Y-02136500D02*
X04208840Y-02263500D01*
X04149320Y-02172480D01*
X04229760Y-02172480D01*
G01X03917500Y-02267500D02*
X03917500Y-02132500D01*
G01X04202500Y-02267500D02*
X03917500Y-02267500D01*
G01X03917500Y-02233750D02*
X03951250Y-02267500D01*
G01X03867500Y-02227500D02*
X03867500Y-02172500D01*
G01X03917500Y-02227500D02*
X03867500Y-02227500D01*
G01X03917500Y-02172500D02*
X03917500Y-02227500D01*
G01X03917500Y-02132500D02*
X04202500Y-02132500D01*
G01X03917500Y-02166250D02*
X03951250Y-02132500D01*
G01X03867500Y-02172500D02*
X03917500Y-02172500D01*
G01X03907510Y-01132270D02*
X03978290Y-01225400D01*
G01X03942900Y-01242330D02*
X03942900Y-01115330D01*
G01X03978290Y-01132270D02*
X03907510Y-01225400D01*
G01X03894640Y-01178830D02*
X03991160Y-01178830D01*
G01X03895070Y-01136500D02*
X03895070Y-01263500D01*
X03927240Y-01263500D01*
X03940110Y-01257150D01*
X03949760Y-01248680D01*
X03957810Y-01235990D01*
X03964240Y-01221160D01*
X03965850Y-01200000D01*
X03964240Y-01178830D01*
X03957810Y-01164010D01*
X03949760Y-01151310D01*
X03940110Y-01142850D01*
X03927240Y-01136500D01*
X03895070Y-01136500D01*
G01X04024610Y-01161900D02*
X04034260Y-01147080D01*
X04047130Y-01138620D01*
X04061610Y-01136500D01*
X04074480Y-01138620D01*
X04087350Y-01149200D01*
X04095390Y-01161900D01*
X04097000Y-01174600D01*
X04093780Y-01189410D01*
X04082520Y-01200000D01*
X04071260Y-01204230D01*
X04056780Y-01204230D01*
G01X04071260Y-01204230D02*
X04080910Y-01210580D01*
X04088960Y-01221160D01*
X04092170Y-01233870D01*
X04088960Y-01246570D01*
X04080910Y-01257150D01*
X04066430Y-01263500D01*
X04051960Y-01261380D01*
X04037480Y-01252920D01*
G01X04154150Y-01161900D02*
X04163800Y-01147080D01*
X04176670Y-01138620D01*
X04191150Y-01136500D01*
X04204020Y-01138620D01*
X04216890Y-01149200D01*
X04224930Y-01161900D01*
X04226540Y-01174600D01*
X04223320Y-01189410D01*
X04212060Y-01200000D01*
X04200800Y-01204230D01*
X04186320Y-01204230D01*
G01X04200800Y-01204230D02*
X04210450Y-01210580D01*
X04218500Y-01221160D01*
X04221710Y-01233870D01*
X04218500Y-01246570D01*
X04210450Y-01257150D01*
X04195970Y-01263500D01*
X04181500Y-01261380D01*
X04167020Y-01252920D01*
G01X03917500Y-01267500D02*
X03917500Y-01132500D01*
G01X04202500Y-01267500D02*
X03917500Y-01267500D01*
G01X03917500Y-01132500D02*
X04202500Y-01132500D01*
G01X03917500Y-01166250D02*
X03951250Y-01132500D01*
G01X03917500Y-01233750D02*
X03951250Y-01267500D01*
G01X03867500Y-01172500D02*
X03917500Y-01172500D01*
G01X03867500Y-01227500D02*
X03867500Y-01172500D01*
G01X03917500Y-01227500D02*
X03867500Y-01227500D01*
G01X03917500Y-01172500D02*
X03917500Y-01227500D01*
G01X03907510Y-00132270D02*
X03978290Y-00225400D01*
G01X03942900Y-00242330D02*
X03942900Y-00115330D01*
G01X03978290Y-00132270D02*
X03907510Y-00225400D01*
G01X03894640Y-00178830D02*
X03991160Y-00178830D01*
G01X03895070Y-00136500D02*
X03895070Y-00263500D01*
X03927240Y-00263500D01*
X03940110Y-00257150D01*
X03949760Y-00248680D01*
X03957810Y-00235990D01*
X03964240Y-00221160D01*
X03965850Y-00200000D01*
X03964240Y-00178830D01*
X03957810Y-00164010D01*
X03949760Y-00151310D01*
X03940110Y-00142850D01*
X03927240Y-00136500D01*
X03895070Y-00136500D01*
G01X04029430Y-00242330D02*
X04039090Y-00255030D01*
X04050350Y-00261380D01*
X04063220Y-00263500D01*
X04079300Y-00259270D01*
X04090570Y-00248680D01*
X04093780Y-00235990D01*
X04092170Y-00223280D01*
X04085740Y-00212700D01*
X04053570Y-00191530D01*
X04039090Y-00176720D01*
X04029430Y-00155550D01*
X04026220Y-00136500D01*
X04093780Y-00136500D01*
G01X04158970Y-00242330D02*
X04168630Y-00255030D01*
X04179890Y-00261380D01*
X04192760Y-00263500D01*
X04208840Y-00259270D01*
X04220110Y-00248680D01*
X04223320Y-00235990D01*
X04221710Y-00223280D01*
X04215280Y-00212700D01*
X04183110Y-00191530D01*
X04168630Y-00176720D01*
X04158970Y-00155550D01*
X04155760Y-00136500D01*
X04223320Y-00136500D01*
G01X03917500Y-00267500D02*
X03917500Y-00132500D01*
G01X04202500Y-00267500D02*
X03917500Y-00267500D01*
G01X03917500Y-00132500D02*
X04202500Y-00132500D01*
G01X03917500Y-00166250D02*
X03951250Y-00132500D01*
G01X03917500Y-00233750D02*
X03951250Y-00267500D01*
G01X03867500Y-00172500D02*
X03917500Y-00172500D01*
G01X03867500Y-00227500D02*
X03867500Y-00172500D01*
G01X03917500Y-00227500D02*
X03867500Y-00227500D01*
G01X03917500Y-00172500D02*
X03917500Y-00227500D01*
G01X03907510Y00867730D02*
X03978290Y00774600D01*
G01X03942900Y00757670D02*
X03942900Y00884670D01*
G01X03978290Y00867730D02*
X03907510Y00774600D01*
G01X03894640Y00821170D02*
X03991160Y00821170D01*
G01X03895070Y00863500D02*
X03895070Y00736500D01*
X03927240Y00736500D01*
X03940110Y00742850D01*
X03949760Y00751320D01*
X03957810Y00764010D01*
X03964240Y00778840D01*
X03965850Y00800000D01*
X03964240Y00821170D01*
X03957810Y00835990D01*
X03949760Y00848690D01*
X03940110Y00857150D01*
X03927240Y00863500D01*
X03895070Y00863500D01*
G01X04060000Y00863500D02*
X04060000Y00736500D01*
X04040700Y00761900D01*
G01X04040700Y00863500D02*
X04079300Y00863500D01*
G01X04189540Y00863500D02*
X04189540Y00736500D01*
X04170240Y00761900D01*
G01X04170240Y00863500D02*
X04208840Y00863500D01*
G01X03917500Y00732500D02*
X03917500Y00867500D01*
G01X04202500Y00732500D02*
X03917500Y00732500D01*
G01X03917500Y00766250D02*
X03951250Y00732500D01*
G01X03867500Y00772500D02*
X03867500Y00827500D01*
G01X03917500Y00772500D02*
X03867500Y00772500D01*
G01X03917500Y00827500D02*
X03917500Y00772500D01*
G01X03917500Y00867500D02*
X04202500Y00867500D01*
G01X03917500Y00833750D02*
X03951250Y00867500D01*
G01X03867500Y00827500D02*
X03917500Y00827500D01*
G01X04202500Y-06132500D02*
X04202500Y-06267500D01*
G01X04252500Y-06227500D02*
X04202500Y-06227500D01*
G01X04252500Y-06172500D02*
X04252500Y-06227500D01*
G01X04202500Y-06172500D02*
X04252500Y-06172500D01*
G01X04202500Y-06227500D02*
X04202500Y-06172500D01*
G01X04202500Y-05132500D02*
X04202500Y-05267500D01*
G01X04252500Y-05227500D02*
X04202500Y-05227500D01*
G01X04252500Y-05172500D02*
X04252500Y-05227500D01*
G01X04202500Y-05172500D02*
X04252500Y-05172500D01*
G01X04202500Y-05227500D02*
X04202500Y-05172500D01*
G01X04202500Y-04132500D02*
X04202500Y-04267500D01*
G01X04252500Y-04227500D02*
X04202500Y-04227500D01*
G01X04252500Y-04172500D02*
X04252500Y-04227500D01*
G01X04202500Y-04172500D02*
X04252500Y-04172500D01*
G01X04202500Y-04227500D02*
X04202500Y-04172500D01*
G01X04202500Y-03132500D02*
X04202500Y-03267500D01*
G01X04252500Y-03227500D02*
X04202500Y-03227500D01*
G01X04252500Y-03172500D02*
X04252500Y-03227500D01*
G01X04202500Y-03172500D02*
X04252500Y-03172500D01*
G01X04202500Y-03227500D02*
X04202500Y-03172500D01*
G01X04202500Y-02132500D02*
X04202500Y-02267500D01*
G01X04252500Y-02227500D02*
X04202500Y-02227500D01*
G01X04252500Y-02172500D02*
X04252500Y-02227500D01*
G01X04202500Y-02227500D02*
X04202500Y-02172500D01*
G01X04202500Y-02172500D02*
X04252500Y-02172500D01*
G01X04202500Y-01132500D02*
X04202500Y-01267500D01*
G01X04252500Y-01227500D02*
X04202500Y-01227500D01*
G01X04252500Y-01172500D02*
X04252500Y-01227500D01*
G01X04202500Y-01172500D02*
X04252500Y-01172500D01*
G01X04202500Y-01227500D02*
X04202500Y-01172500D01*
G01X04202500Y-00132500D02*
X04202500Y-00267500D01*
G01X04252500Y-00227500D02*
X04202500Y-00227500D01*
G01X04252500Y-00172500D02*
X04252500Y-00227500D01*
G01X04202500Y-00172500D02*
X04252500Y-00172500D01*
G01X04202500Y-00227500D02*
X04202500Y-00172500D01*
G01X04202500Y00867500D02*
X04202500Y00732500D01*
G01X04252500Y00772500D02*
X04202500Y00772500D01*
G01X04252500Y00827500D02*
X04252500Y00772500D01*
G01X04202500Y00772500D02*
X04202500Y00827500D01*
G01X04202500Y00827500D02*
X04252500Y00827500D01*
M02*
