G04 ================== begin FILE IDENTIFICATION RECORD ==================*
G04 Layout Name:  sensor_board_routing.brd*
G04 Film Name:    NCLEGEND-1-2*
G04 File Format:  Gerber RS274X*
G04 File Origin:  Cadence Allegro 17.4-S017*
G04 Origin Date:  Mon Sep 27 18:23:25 2021*
G04 *
G04 Layer:  MANUFACTURING/NCLEGEND-1-2*
G04 *
G04 Offset:    (0.0000 0.0000)*
G04 Mirror:    No*
G04 Mode:      Positive*
G04 Rotation:  0*
G04 FullContactRelief:  No*
G04 UndefLineWidth:     0.2500*
G04 ================== end FILE IDENTIFICATION RECORD ====================*
%FSAX35Y35*MOMM*%
%IR0*IPPOS*OFA0.00000B0.00000*MIA0B0*SFA1.00000B1.00000*%
%AMMACRO15*
1,1,.25,.144975,-.35*
20,1,.25,.144975,-.35,-.144975,-.35,0.0*
1,1,.25,-.144975,-.35*
20,1,.25,-.144975,-.35,-.35,-.144975,0.0*
1,1,.25,-.35,-.144975*
20,1,.25,-.35,-.144975,-.35,.144975,0.0*
1,1,.25,-.35,.144975*
20,1,.25,-.35,.144975,-.144975,.35,0.0*
1,1,.25,-.144975,.35*
20,1,.25,-.144975,.35,.144975,.35,0.0*
1,1,.25,.144975,.35*
20,1,.25,.144975,.35,.35,.144975,0.0*
1,1,.25,.35,.144975*
20,1,.25,.35,.144975,.35,-.144975,0.0*
1,1,.25,.35,-.144975*
20,1,.25,.35,-.144975,.144975,-.35,0.0*
1,1,.25,.144975,-.35*
1,1,.25,-.2727,-.1487*
20,1,.25,-.2727,-.1487,-.1488,.1488,0.0*
1,1,.25,-.1488,.1488*
20,1,.25,-.1488,.1488,-.0248,-.1487,0.0*
1,1,.25,-.0248,-.1487*
1,1,.25,-.0694,-.0446*
20,1,.25,-.0694,-.0446,-.2281,-.0446,0.0*
1,1,.25,-.2281,-.0446*
1,1,.25,.2579,.124*
20,1,.25,.2579,.124,.2282,.1389,0.0*
1,1,.25,.2282,.1389*
20,1,.25,.2282,.1389,.1935,.1488,0.0*
1,1,.25,.1935,.1488*
20,1,.25,.1935,.1488,.1538,.1488,0.0*
1,1,.25,.1538,.1488*
20,1,.25,.1538,.1488,.1092,.1339,0.0*
1,1,.25,.1092,.1339*
20,1,.25,.1092,.1339,.0745,.1091,0.0*
1,1,.25,.0745,.1091*
20,1,.25,.0745,.1091,.0497,.0794,0.0*
1,1,.25,.0497,.0794*
20,1,.25,.0497,.0794,.0298,.0298,0.0*
1,1,.25,.0298,.0298*
20,1,.25,.0298,.0298,.0249,-.0148,0.0*
1,1,.25,.0249,-.0148*
20,1,.25,.0249,-.0148,.0348,-.0595,0.0*
1,1,.25,.0348,-.0595*
20,1,.25,.0348,-.0595,.0497,-.0892,0.0*
1,1,.25,.0497,-.0892*
20,1,.25,.0497,-.0892,.0794,-.119,0.0*
1,1,.25,.0794,-.119*
20,1,.25,.0794,-.119,.1141,-.1388,0.0*
1,1,.25,.1141,-.1388*
20,1,.25,.1141,-.1388,.1488,-.1487,0.0*
1,1,.25,.1488,-.1487*
20,1,.25,.1488,-.1487,.1836,-.1487,0.0*
1,1,.25,.1836,-.1487*
20,1,.25,.1836,-.1487,.2183,-.1388,0.0*
1,1,.25,.2183,-.1388*
20,1,.25,.2183,-.1388,.248,-.1239,0.0*
1,1,.25,.248,-.1239*
20,1,.25,.248,-.1239,.2728,-.1041,0.0*
1,1,.25,.2728,-.1041*
%
%ADD15MACRO15*%
%AMMACRO10*
1,1,.25,0.0,.508*
20,1,.25,0.0,.508,.439941,-.254,0.0*
1,1,.25,.439941,-.254*
20,1,.25,.439941,-.254,-.439941,-.254,0.0*
1,1,.25,-.439941,-.254*
20,1,.25,-.439941,-.254,0.0,.508,0.0*
1,1,.25,0.0,.508*
1,1,.25,.1524,.254*
20,1,.25,.1524,.254,.1524,-.254,0.0*
1,1,.25,.1524,-.254*
1,1,.25,.1524,-.1778*
20,1,.25,.1524,-.1778,.1185,-.2201,0.0*
1,1,.25,.1185,-.2201*
20,1,.25,.1185,-.2201,.0677,-.2455,0.0*
1,1,.25,.0677,-.2455*
20,1,.25,.0677,-.2455,.0085,-.254,0.0*
1,1,.25,.0085,-.254*
20,1,.25,.0085,-.254,-.0593,-.2371,0.0*
1,1,.25,-.0593,-.2371*
20,1,.25,-.0593,-.2371,-.1101,-.1947,0.0*
1,1,.25,-.1101,-.1947*
20,1,.25,-.1101,-.1947,-.1439,-.1439,0.0*
1,1,.25,-.1439,-.1439*
20,1,.25,-.1439,-.1439,-.1524,-.0847,0.0*
1,1,.25,-.1524,-.0847*
20,1,.25,-.1524,-.0847,-.1439,-.0254,0.0*
1,1,.25,-.1439,-.0254*
20,1,.25,-.1439,-.0254,-.1101,.0254,0.0*
1,1,.25,-.1101,.0254*
20,1,.25,-.1101,.0254,-.0593,.0677,0.0*
1,1,.25,-.0593,.0677*
20,1,.25,-.0593,.0677,.0085,.0847,0.0*
1,1,.25,.0085,.0847*
20,1,.25,.0085,.0847,.0677,.0762,0.0*
1,1,.25,.0677,.0762*
20,1,.25,.0677,.0762,.1101,.0593,0.0*
1,1,.25,.1101,.0593*
20,1,.25,.1101,.0593,.1524,.0254,0.0*
1,1,.25,.1524,.0254*
%
%ADD10MACRO10*%
%AMMACRO13*
1,1,.25,1.9431,0.0*
20,1,.25,1.9431,0.0,1.91358,-.337416,0.0*
1,1,.25,1.91358,-.337416*
20,1,.25,1.91358,-.337416,1.825917,-.664579,0.0*
1,1,.25,1.825917,-.664579*
20,1,.25,1.825917,-.664579,1.682774,-.97155,0.0*
1,1,.25,1.682774,-.97155*
20,1,.25,1.682774,-.97155,1.488501,-1.249001,0.0*
1,1,.25,1.488501,-1.249001*
20,1,.25,1.488501,-1.249001,1.249001,-1.488501,0.0*
1,1,.25,1.249001,-1.488501*
20,1,.25,1.249001,-1.488501,.97155,-1.682774,0.0*
1,1,.25,.97155,-1.682774*
20,1,.25,.97155,-1.682774,.664579,-1.825917,0.0*
1,1,.25,.664579,-1.825917*
20,1,.25,.664579,-1.825917,.337416,-1.91358,0.0*
1,1,.25,.337416,-1.91358*
20,1,.25,.337416,-1.91358,0.0,-1.9431,0.0*
1,1,.25,0.0,-1.9431*
20,1,.25,0.0,-1.9431,-.337416,-1.91358,0.0*
1,1,.25,-.337416,-1.91358*
20,1,.25,-.337416,-1.91358,-.664579,-1.825917,0.0*
1,1,.25,-.664579,-1.825917*
20,1,.25,-.664579,-1.825917,-.97155,-1.682774,0.0*
1,1,.25,-.97155,-1.682774*
20,1,.25,-.97155,-1.682774,-1.249001,-1.488501,0.0*
1,1,.25,-1.249001,-1.488501*
20,1,.25,-1.249001,-1.488501,-1.488501,-1.249001,0.0*
1,1,.25,-1.488501,-1.249001*
20,1,.25,-1.488501,-1.249001,-1.682774,-.97155,0.0*
1,1,.25,-1.682774,-.97155*
20,1,.25,-1.682774,-.97155,-1.825917,-.664579,0.0*
1,1,.25,-1.825917,-.664579*
20,1,.25,-1.825917,-.664579,-1.91358,-.337416,0.0*
1,1,.25,-1.91358,-.337416*
20,1,.25,-1.91358,-.337416,-1.9431,0.0,0.0*
1,1,.25,-1.9431,0.0*
20,1,.25,-1.9431,0.0,-1.91358,.337416,0.0*
1,1,.25,-1.91358,.337416*
20,1,.25,-1.91358,.337416,-1.825917,.664579,0.0*
1,1,.25,-1.825917,.664579*
20,1,.25,-1.825917,.664579,-1.682774,.97155,0.0*
1,1,.25,-1.682774,.97155*
20,1,.25,-1.682774,.97155,-1.488501,1.249001,0.0*
1,1,.25,-1.488501,1.249001*
20,1,.25,-1.488501,1.249001,-1.249001,1.488501,0.0*
1,1,.25,-1.249001,1.488501*
20,1,.25,-1.249001,1.488501,-.97155,1.682774,0.0*
1,1,.25,-.97155,1.682774*
20,1,.25,-.97155,1.682774,-.664579,1.825917,0.0*
1,1,.25,-.664579,1.825917*
20,1,.25,-.664579,1.825917,-.337416,1.91358,0.0*
1,1,.25,-.337416,1.91358*
20,1,.25,-.337416,1.91358,0.0,1.9431,0.0*
1,1,.25,0.0,1.9431*
20,1,.25,0.0,1.9431,.337416,1.91358,0.0*
1,1,.25,.337416,1.91358*
20,1,.25,.337416,1.91358,.664579,1.825917,0.0*
1,1,.25,.664579,1.825917*
20,1,.25,.664579,1.825917,.97155,1.682774,0.0*
1,1,.25,.97155,1.682774*
20,1,.25,.97155,1.682774,1.249001,1.488501,0.0*
1,1,.25,1.249001,1.488501*
20,1,.25,1.249001,1.488501,1.488501,1.249001,0.0*
1,1,.25,1.488501,1.249001*
20,1,.25,1.488501,1.249001,1.682774,.97155,0.0*
1,1,.25,1.682774,.97155*
20,1,.25,1.682774,.97155,1.825917,.664579,0.0*
1,1,.25,1.825917,.664579*
20,1,.25,1.825917,.664579,1.91358,.337416,0.0*
1,1,.25,1.91358,.337416*
20,1,.25,1.91358,.337416,1.9431,0.0,0.0*
1,1,.25,1.9431,0.0*
%
%ADD13MACRO13*%
%AMMACRO14*
1,1,.25,.8255,0.0*
20,1,.25,.8255,0.0,.41275,.714904,0.0*
1,1,.25,.41275,.714904*
20,1,.25,.41275,.714904,-.41275,.714904,0.0*
1,1,.25,-.41275,.714904*
20,1,.25,-.41275,.714904,-.8255,0.0,0.0*
1,1,.25,-.8255,0.0*
20,1,.25,-.8255,0.0,-.41275,-.714904,0.0*
1,1,.25,-.41275,-.714904*
20,1,.25,-.41275,-.714904,.41275,-.714904,0.0*
1,1,.25,.41275,-.714904*
20,1,.25,.41275,-.714904,.8255,0.0,0.0*
1,1,.25,.8255,0.0*
%
%ADD14MACRO14*%
%AMMACRO11*
1,1,.25,.4318,0.0*
20,1,.25,.4318,0.0,.42524,-.074981,0.0*
1,1,.25,.42524,-.074981*
20,1,.25,.42524,-.074981,.405759,-.147684,0.0*
1,1,.25,.405759,-.147684*
20,1,.25,.405759,-.147684,.37395,-.2159,0.0*
1,1,.25,.37395,-.2159*
20,1,.25,.37395,-.2159,.330778,-.277556,0.0*
1,1,.25,.330778,-.277556*
20,1,.25,.330778,-.277556,.277556,-.330778,0.0*
1,1,.25,.277556,-.330778*
20,1,.25,.277556,-.330778,.2159,-.37395,0.0*
1,1,.25,.2159,-.37395*
20,1,.25,.2159,-.37395,.147684,-.405759,0.0*
1,1,.25,.147684,-.405759*
20,1,.25,.147684,-.405759,.074981,-.42524,0.0*
1,1,.25,.074981,-.42524*
20,1,.25,.074981,-.42524,0.0,-.4318,0.0*
1,1,.25,0.0,-.4318*
20,1,.25,0.0,-.4318,-.074981,-.42524,0.0*
1,1,.25,-.074981,-.42524*
20,1,.25,-.074981,-.42524,-.147684,-.405759,0.0*
1,1,.25,-.147684,-.405759*
20,1,.25,-.147684,-.405759,-.2159,-.37395,0.0*
1,1,.25,-.2159,-.37395*
20,1,.25,-.2159,-.37395,-.277556,-.330778,0.0*
1,1,.25,-.277556,-.330778*
20,1,.25,-.277556,-.330778,-.330778,-.277556,0.0*
1,1,.25,-.330778,-.277556*
20,1,.25,-.330778,-.277556,-.37395,-.2159,0.0*
1,1,.25,-.37395,-.2159*
20,1,.25,-.37395,-.2159,-.405759,-.147684,0.0*
1,1,.25,-.405759,-.147684*
20,1,.25,-.405759,-.147684,-.42524,-.074981,0.0*
1,1,.25,-.42524,-.074981*
20,1,.25,-.42524,-.074981,-.4318,0.0,0.0*
1,1,.25,-.4318,0.0*
20,1,.25,-.4318,0.0,-.42524,.074981,0.0*
1,1,.25,-.42524,.074981*
20,1,.25,-.42524,.074981,-.405759,.147684,0.0*
1,1,.25,-.405759,.147684*
20,1,.25,-.405759,.147684,-.37395,.2159,0.0*
1,1,.25,-.37395,.2159*
20,1,.25,-.37395,.2159,-.330778,.277556,0.0*
1,1,.25,-.330778,.277556*
20,1,.25,-.330778,.277556,-.277556,.330778,0.0*
1,1,.25,-.277556,.330778*
20,1,.25,-.277556,.330778,-.2159,.37395,0.0*
1,1,.25,-.2159,.37395*
20,1,.25,-.2159,.37395,-.147684,.405759,0.0*
1,1,.25,-.147684,.405759*
20,1,.25,-.147684,.405759,-.074981,.42524,0.0*
1,1,.25,-.074981,.42524*
20,1,.25,-.074981,.42524,0.0,.4318,0.0*
1,1,.25,0.0,.4318*
20,1,.25,0.0,.4318,.074981,.42524,0.0*
1,1,.25,.074981,.42524*
20,1,.25,.074981,.42524,.147684,.405759,0.0*
1,1,.25,.147684,.405759*
20,1,.25,.147684,.405759,.2159,.37395,0.0*
1,1,.25,.2159,.37395*
20,1,.25,.2159,.37395,.277556,.330778,0.0*
1,1,.25,.277556,.330778*
20,1,.25,.277556,.330778,.330778,.277556,0.0*
1,1,.25,.330778,.277556*
20,1,.25,.330778,.277556,.37395,.2159,0.0*
1,1,.25,.37395,.2159*
20,1,.25,.37395,.2159,.405759,.147684,0.0*
1,1,.25,.405759,.147684*
20,1,.25,.405759,.147684,.42524,.074981,0.0*
1,1,.25,.42524,.074981*
20,1,.25,.42524,.074981,.4318,0.0,0.0*
1,1,.25,.4318,0.0*
1,1,.25,-.1799,-.2159*
20,1,.25,-.1799,-.2159,0.0,.2159,0.0*
1,1,.25,0.0,.2159*
20,1,.25,0.0,.2159,.1799,-.2159,0.0*
1,1,.25,.1799,-.2159*
1,1,.25,.1151,-.0648*
20,1,.25,.1151,-.0648,-.1152,-.0648,0.0*
1,1,.25,-.1152,-.0648*
%
%ADD11MACRO11*%
%AMMACRO12*
1,1,.25,.4699,0.0*
20,1,.25,.4699,0.0,.462761,-.081597,0.0*
1,1,.25,.462761,-.081597*
20,1,.25,.462761,-.081597,.441562,-.160715,0.0*
1,1,.25,.441562,-.160715*
20,1,.25,.441562,-.160715,.406945,-.23495,0.0*
1,1,.25,.406945,-.23495*
20,1,.25,.406945,-.23495,.359964,-.302046,0.0*
1,1,.25,.359964,-.302046*
20,1,.25,.359964,-.302046,.302046,-.359964,0.0*
1,1,.25,.302046,-.359964*
20,1,.25,.302046,-.359964,.23495,-.406945,0.0*
1,1,.25,.23495,-.406945*
20,1,.25,.23495,-.406945,.160715,-.441562,0.0*
1,1,.25,.160715,-.441562*
20,1,.25,.160715,-.441562,.081597,-.462761,0.0*
1,1,.25,.081597,-.462761*
20,1,.25,.081597,-.462761,0.0,-.4699,0.0*
1,1,.25,0.0,-.4699*
20,1,.25,0.0,-.4699,-.081597,-.462761,0.0*
1,1,.25,-.081597,-.462761*
20,1,.25,-.081597,-.462761,-.160715,-.441562,0.0*
1,1,.25,-.160715,-.441562*
20,1,.25,-.160715,-.441562,-.23495,-.406945,0.0*
1,1,.25,-.23495,-.406945*
20,1,.25,-.23495,-.406945,-.302046,-.359964,0.0*
1,1,.25,-.302046,-.359964*
20,1,.25,-.302046,-.359964,-.359964,-.302046,0.0*
1,1,.25,-.359964,-.302046*
20,1,.25,-.359964,-.302046,-.406945,-.23495,0.0*
1,1,.25,-.406945,-.23495*
20,1,.25,-.406945,-.23495,-.441562,-.160715,0.0*
1,1,.25,-.441562,-.160715*
20,1,.25,-.441562,-.160715,-.462761,-.081597,0.0*
1,1,.25,-.462761,-.081597*
20,1,.25,-.462761,-.081597,-.4699,0.0,0.0*
1,1,.25,-.4699,0.0*
20,1,.25,-.4699,0.0,-.462761,.081597,0.0*
1,1,.25,-.462761,.081597*
20,1,.25,-.462761,.081597,-.441562,.160715,0.0*
1,1,.25,-.441562,.160715*
20,1,.25,-.441562,.160715,-.406945,.23495,0.0*
1,1,.25,-.406945,.23495*
20,1,.25,-.406945,.23495,-.359964,.302046,0.0*
1,1,.25,-.359964,.302046*
20,1,.25,-.359964,.302046,-.302046,.359964,0.0*
1,1,.25,-.302046,.359964*
20,1,.25,-.302046,.359964,-.23495,.406945,0.0*
1,1,.25,-.23495,.406945*
20,1,.25,-.23495,.406945,-.160715,.441562,0.0*
1,1,.25,-.160715,.441562*
20,1,.25,-.160715,.441562,-.081597,.462761,0.0*
1,1,.25,-.081597,.462761*
20,1,.25,-.081597,.462761,0.0,.4699,0.0*
1,1,.25,0.0,.4699*
20,1,.25,0.0,.4699,.081597,.462761,0.0*
1,1,.25,.081597,.462761*
20,1,.25,.081597,.462761,.160715,.441562,0.0*
1,1,.25,.160715,.441562*
20,1,.25,.160715,.441562,.23495,.406945,0.0*
1,1,.25,.23495,.406945*
20,1,.25,.23495,.406945,.302046,.359964,0.0*
1,1,.25,.302046,.359964*
20,1,.25,.302046,.359964,.359964,.302046,0.0*
1,1,.25,.359964,.302046*
20,1,.25,.359964,.302046,.406945,.23495,0.0*
1,1,.25,.406945,.23495*
20,1,.25,.406945,.23495,.441562,.160715,0.0*
1,1,.25,.441562,.160715*
20,1,.25,.441562,.160715,.462761,.081597,0.0*
1,1,.25,.462761,.081597*
20,1,.25,.462761,.081597,.4699,0.0,0.0*
1,1,.25,.4699,0.0*
1,1,.25,-.1958,-.2349*
20,1,.25,-.1958,-.2349,0.0,.235,0.0*
1,1,.25,0.0,.235*
20,1,.25,0.0,.235,.1959,-.2349,0.0*
1,1,.25,.1959,-.2349*
1,1,.25,.1254,-.0704*
20,1,.25,.1254,-.0704,-.1253,-.0704,0.0*
1,1,.25,-.1253,-.0704*
%
%ADD12MACRO12*%
%ADD16C,.25*%
G75*
%LPD*%
G75*
G54D10*
X-06180000Y-06000000D03*
X-06180000Y-05000000D03*
X-06180000Y-04000000D03*
X-06180000Y-03000000D03*
X-06180000Y-02000000D03*
X-06180000Y-01000000D03*
X-06180000Y0D03*
X-06180000Y01000000D03*
X-05839640Y-06000000D03*
X-05839640Y-05000000D03*
X-05839640Y-04000000D03*
X-05839640Y-03000000D03*
X-05839640Y-02000000D03*
X-05839640Y-01000000D03*
X-05839640Y0D03*
X-05839640Y01000000D03*
X-05180000Y-06000000D03*
X-05180000Y-05000000D03*
X-05180000Y-04000000D03*
X-05180000Y-03000000D03*
X-05180000Y-02000000D03*
X-05180000Y-01000000D03*
X-05180000Y0D03*
X-05180000Y01000000D03*
X-04839640Y-06000000D03*
X-04839640Y-05000000D03*
X-04839640Y-04000000D03*
X-04839640Y-03000000D03*
X-04839640Y-02000000D03*
X-04839640Y-01000000D03*
X-04839640Y0D03*
X-04839640Y01000000D03*
X-03839640Y-06000000D03*
X-04180000Y-06000000D03*
X-03839640Y-05000000D03*
X-04180000Y-05000000D03*
X-03839640Y-04000000D03*
X-04180000Y-04000000D03*
X-03839640Y-03000000D03*
X-04180000Y-03000000D03*
X-03839640Y-02000000D03*
X-04180000Y-02000000D03*
X-03839640Y-01000000D03*
X-04180000Y-01000000D03*
X-03839640Y0D03*
X-04180000Y0D03*
X-03839640Y01000000D03*
X-04180000Y01000000D03*
X-02839640Y-06000000D03*
X-03180000Y-06000000D03*
X-02839640Y-05000000D03*
X-03180000Y-05000000D03*
X-02839640Y-04000000D03*
X-03180000Y-04000000D03*
X-02839640Y-03000000D03*
X-03180000Y-03000000D03*
X-02839640Y-02000000D03*
X-03180000Y-02000000D03*
X-02839640Y-01000000D03*
X-03180000Y-01000000D03*
X-02839640Y0D03*
X-03180000Y0D03*
X-02839640Y01000000D03*
X-03180000Y01000000D03*
X-02180000Y-06000000D03*
X-02180000Y-05000000D03*
X-02180000Y-04000000D03*
X-02180000Y-03000000D03*
X-02180000Y-02000000D03*
X-02180000Y-01000000D03*
X-02180000Y0D03*
X-02180000Y01000000D03*
X-01839640Y-06000000D03*
X-01839640Y-05000000D03*
X-01839640Y-04000000D03*
X-01839640Y-03000000D03*
X-01839640Y-02000000D03*
X-01839640Y-01000000D03*
X-01839640Y0D03*
X-01839640Y01000000D03*
X-01180000Y-06000000D03*
X-01180000Y-05000000D03*
X-01180000Y-04000000D03*
X-01180000Y-03000000D03*
X-01180000Y-02000000D03*
X-01180000Y-01000000D03*
X-01180000Y0D03*
X-01180000Y01000000D03*
X-00839640Y-06000000D03*
X-00839640Y-05000000D03*
X-00839640Y-04000000D03*
X-00839640Y-03000000D03*
X-00839640Y-02000000D03*
X-00839640Y-01000000D03*
X-00839640Y0D03*
X-00839640Y01000000D03*
X-00180000Y-06000000D03*
X-00180000Y-05000000D03*
X-00180000Y-04000000D03*
X-00180000Y-03000000D03*
X-00180000Y-02000000D03*
X-00180000Y-01000000D03*
X-00180000Y0D03*
X-00180000Y01000000D03*
X00160360Y-06000000D03*
X00160360Y-05000000D03*
X00160360Y-04000000D03*
X00160360Y-03000000D03*
X00160360Y-02000000D03*
X00160360Y-01000000D03*
X00160360Y0D03*
X00160360Y01000000D03*
X01160360Y-06000000D03*
X00820000Y-06000000D03*
X01160360Y-05000000D03*
X00820000Y-05000000D03*
X01160360Y-04000000D03*
X00820000Y-04000000D03*
X01160360Y-03000000D03*
X00820000Y-03000000D03*
X01160360Y-02000000D03*
X00820000Y-02000000D03*
X01160360Y-01000000D03*
X00820000Y-01000000D03*
X01160360Y0D03*
X00820000Y0D03*
X01160360Y01000000D03*
X00820000Y01000000D03*
X02160360Y-06000000D03*
X01820000Y-06000000D03*
X02160360Y-05000000D03*
X01820000Y-05000000D03*
X02160360Y-04000000D03*
X01820000Y-04000000D03*
X02160360Y-03000000D03*
X01820000Y-03000000D03*
X02160360Y-02000000D03*
X01820000Y-02000000D03*
X02160360Y-01000000D03*
X01820000Y-01000000D03*
X02160360Y0D03*
X01820000Y0D03*
X02160360Y01000000D03*
X01820000Y01000000D03*
X02820000Y-06000000D03*
X02820000Y-05000000D03*
X02820000Y-04000000D03*
X02820000Y-03000000D03*
X02820000Y-02000000D03*
X02820000Y-01000000D03*
X02820000Y0D03*
X02820000Y01000000D03*
X03160360Y-06000000D03*
X03160360Y-05000000D03*
X03160360Y-04000000D03*
X03160360Y-03000000D03*
X03160360Y-02000000D03*
X03160360Y-01000000D03*
X03160360Y0D03*
X03160360Y01000000D03*
X03820000Y-06000000D03*
X03820000Y-05000000D03*
X03820000Y-04000000D03*
X03820000Y-03000000D03*
X03820000Y-02000000D03*
X03820000Y-01000000D03*
X03820000Y0D03*
X03820000Y01000000D03*
X04160360Y-06000000D03*
X04160360Y-05000000D03*
X04160360Y-04000000D03*
X04160360Y-03000000D03*
X04160360Y-02000000D03*
X04160360Y-01000000D03*
X04160360Y0D03*
X04160360Y01000000D03*
X08966500Y05327500D03*
G54D11*
X-04713000Y01598000D03*
X-04459000Y01598000D03*
X-04459000Y03122000D03*
X-04713000Y03122000D03*
X-04205000Y01598000D03*
X-03951000Y01598000D03*
X-03951000Y03122000D03*
X-04205000Y03122000D03*
X-03697000Y01598000D03*
X-03443000Y01598000D03*
X-03443000Y03122000D03*
X-03697000Y03122000D03*
X-03189000Y01598000D03*
X-02935000Y01598000D03*
X-02681000Y01598000D03*
X-02681000Y03122000D03*
X-02935000Y03122000D03*
X-03189000Y03122000D03*
X-02427000Y01598000D03*
X-02173000Y01598000D03*
X-02173000Y03122000D03*
X-02427000Y03122000D03*
X-01919000Y01598000D03*
X-01665000Y01598000D03*
X-01665000Y03122000D03*
X-01919000Y03122000D03*
X-01411000Y01598000D03*
X-01157000Y01598000D03*
X-01157000Y03122000D03*
X-01411000Y03122000D03*
X-00903000Y01598000D03*
X-00649000Y01598000D03*
X-00649000Y03122000D03*
X-00903000Y03122000D03*
X-00395000Y01598000D03*
X-00141000Y01598000D03*
X-00141000Y03122000D03*
X-00395000Y03122000D03*
X00113000Y01598000D03*
X00113000Y03122000D03*
X08966500Y04692500D03*
G54D12*
X01084000Y03800000D03*
X00830000Y03800000D03*
X01592000Y03800000D03*
X01338000Y03800000D03*
X02280000Y03100000D03*
X02100000Y03800000D03*
X01846000Y03800000D03*
X02534000Y03100000D03*
X08966500Y04057500D03*
G54D13*
X08966500Y02787500D03*
G54D14*
X08966500Y03422500D03*
G54D15*
X08966500Y05962500D03*
G54D16*
G01X07825000Y02470000D02*
X07825000Y08200000D01*
X25538000Y08200000D01*
X25538000Y02470000D01*
X07825000Y02470000D01*
G01X07825000Y03105000D02*
X25538000Y03105000D01*
G01X07825000Y03740000D02*
X25538000Y03740000D01*
G01X07825000Y04375000D02*
X25538000Y04375000D01*
G01X07825000Y05010000D02*
X25538000Y05010000D01*
G01X07825000Y05645000D02*
X25538000Y05645000D01*
G01X08104450Y06438750D02*
X08104450Y06756250D01*
X08254050Y06756250D01*
G01X08198930Y06602800D02*
X08104450Y06602800D01*
G01X08446910Y06756250D02*
X08541380Y06756250D01*
G01X08494150Y06756250D02*
X08494150Y06438750D01*
G01X08446910Y06438750D02*
X08541380Y06438750D01*
G01X08832670Y06597500D02*
X08911410Y06597500D01*
X08911410Y06502250D01*
X08887780Y06470490D01*
X08860230Y06449330D01*
X08820860Y06438750D01*
X08781500Y06449330D01*
X08753940Y06470490D01*
X08730320Y06502250D01*
X08714560Y06539290D01*
X08706690Y06581620D01*
X08706690Y06618670D01*
X08714560Y06650410D01*
X08730320Y06687460D01*
X08753940Y06719210D01*
X08777550Y06740370D01*
X08809050Y06756250D01*
X08836600Y06756250D01*
X08868100Y06745670D01*
X08891720Y06724500D01*
G01X09037340Y06756250D02*
X09037340Y06528710D01*
X09053090Y06481070D01*
X09084580Y06449330D01*
X09123950Y06438750D01*
X09163320Y06449330D01*
X09194810Y06481070D01*
X09210560Y06528710D01*
X09210560Y06756250D01*
G01X09360120Y06438750D02*
X09360120Y06756250D01*
X09458530Y06756250D01*
X09490030Y06740370D01*
X09509710Y06719210D01*
X09517580Y06676870D01*
X09509710Y06634540D01*
X09486090Y06608090D01*
X09458530Y06592200D01*
X09360120Y06592200D01*
G01X09458530Y06592200D02*
X09517580Y06438750D01*
G01X09832480Y06438750D02*
X09675020Y06438750D01*
X09675020Y06756250D01*
X09832480Y06756250D01*
G01X09769500Y06602800D02*
X09675020Y06602800D01*
G01X07825000Y06280000D02*
X25538000Y06280000D01*
G01X07825000Y06915000D02*
X25538000Y06915000D01*
G01X07825000Y07550000D02*
X25538000Y07550000D01*
G01X10108000Y06915000D02*
X10108000Y02470000D01*
G01X10702350Y06438750D02*
X10702350Y06756250D01*
X10851950Y06756250D01*
G01X10796830Y06602800D02*
X10702350Y06602800D01*
G01X11044810Y06756250D02*
X11139280Y06756250D01*
G01X11092050Y06756250D02*
X11092050Y06438750D01*
G01X11044810Y06438750D02*
X11139280Y06438750D01*
G01X11316410Y06438750D02*
X11316410Y06756250D01*
X11497490Y06438750D01*
X11497490Y06756250D01*
G01X11674610Y06756250D02*
X11769080Y06756250D01*
G01X11721850Y06756250D02*
X11721850Y06438750D01*
G01X11674610Y06438750D02*
X11769080Y06438750D01*
G01X11954080Y06481070D02*
X11985570Y06454620D01*
X12021000Y06438750D01*
X12052500Y06438750D01*
X12083990Y06454620D01*
X12107610Y06481070D01*
X12119420Y06518130D01*
X12111550Y06555160D01*
X12091860Y06586910D01*
X12056430Y06608090D01*
X12009200Y06618670D01*
X11981640Y06639830D01*
X11969820Y06676870D01*
X11977700Y06713920D01*
X11997380Y06740370D01*
X12024940Y06756250D01*
X12052500Y06756250D01*
X12080050Y06745670D01*
X12103680Y06719210D01*
G01X12268980Y06438750D02*
X12268980Y06756250D01*
G01X12434320Y06756250D02*
X12434320Y06438750D01*
G01X12434320Y06597500D02*
X12268980Y06597500D01*
G01X12745280Y06438750D02*
X12587820Y06438750D01*
X12587820Y06756250D01*
X12745280Y06756250D01*
G01X12682300Y06602800D02*
X12587820Y06602800D01*
G01X12894840Y06438750D02*
X12894840Y06756250D01*
X12973570Y06756250D01*
X13005070Y06740370D01*
X13028690Y06719210D01*
X13048380Y06687460D01*
X13064120Y06650410D01*
X13068060Y06597500D01*
X13064120Y06544580D01*
X13048380Y06507540D01*
X13028690Y06475780D01*
X13005070Y06454620D01*
X12973570Y06438750D01*
X12894840Y06438750D01*
G01X13178250Y06332920D02*
X13414450Y06332920D01*
G01X13528580Y06481070D02*
X13560070Y06454620D01*
X13595500Y06438750D01*
X13627000Y06438750D01*
X13658490Y06454620D01*
X13682110Y06481070D01*
X13693920Y06518130D01*
X13686050Y06555160D01*
X13666360Y06586910D01*
X13630930Y06608090D01*
X13583700Y06618670D01*
X13556140Y06639830D01*
X13544320Y06676870D01*
X13552200Y06713920D01*
X13571880Y06740370D01*
X13599440Y06756250D01*
X13627000Y06756250D01*
X13654550Y06745670D01*
X13678180Y06719210D01*
G01X13878910Y06756250D02*
X13973380Y06756250D01*
G01X13926150Y06756250D02*
X13926150Y06438750D01*
G01X13878910Y06438750D02*
X13973380Y06438750D01*
G01X14166250Y06756250D02*
X14315850Y06756250D01*
X14166250Y06438750D01*
X14315850Y06438750D01*
G01X14634680Y06438750D02*
X14477220Y06438750D01*
X14477220Y06756250D01*
X14634680Y06756250D01*
G01X14571700Y06602800D02*
X14477220Y06602800D01*
G01X12107590Y02692250D02*
X12131210Y02655200D01*
X12162700Y02634040D01*
X12198140Y02628750D01*
X12229630Y02634040D01*
X12261130Y02660490D01*
X12280810Y02692250D01*
X12284740Y02724000D01*
X12276870Y02761030D01*
X12249310Y02787500D01*
X12221750Y02798090D01*
X12186320Y02798090D01*
G01X12221750Y02798090D02*
X12245380Y02813960D01*
X12265060Y02840410D01*
X12272930Y02872160D01*
X12265060Y02903920D01*
X12245380Y02930370D01*
X12209950Y02946250D01*
X12174520Y02940960D01*
X12139090Y02919790D01*
G01X12509100Y02618170D02*
X12501220Y02623460D01*
X12501220Y02634040D01*
X12509100Y02639330D01*
X12516980Y02634040D01*
X12516980Y02623460D01*
X12509100Y02618170D01*
G01X12824000Y02628750D02*
X12851550Y02634040D01*
X12883050Y02649910D01*
X12902730Y02676360D01*
X12910610Y02713420D01*
X12902730Y02750450D01*
X12879110Y02782200D01*
X12843680Y02798090D01*
X12804320Y02798090D01*
X12780700Y02808670D01*
X12761010Y02835120D01*
X12753140Y02872160D01*
X12764950Y02909210D01*
X12792500Y02935670D01*
X12824000Y02946250D01*
X12855490Y02935670D01*
X12883050Y02909210D01*
X12894860Y02872160D01*
X12886980Y02835120D01*
X12867300Y02808670D01*
X12843680Y02798090D01*
X12804320Y02798090D01*
X12768890Y02782200D01*
X12745270Y02750450D01*
X12737390Y02713420D01*
X12745270Y02676360D01*
X12764950Y02649910D01*
X12796450Y02634040D01*
X12824000Y02628750D01*
G01X13138900Y02628750D02*
X13138900Y02946250D01*
X13091660Y02882750D01*
G01X13091660Y02628750D02*
X13186130Y02628750D01*
G01X12036750Y03263750D02*
X12036750Y03581250D01*
X11989510Y03517750D01*
G01X11989510Y03263750D02*
X12083980Y03263750D01*
G01X12351650Y03253170D02*
X12343770Y03258460D01*
X12343770Y03269040D01*
X12351650Y03274330D01*
X12359530Y03269040D01*
X12359530Y03258460D01*
X12351650Y03253170D01*
G01X12579940Y03327250D02*
X12603560Y03290200D01*
X12635050Y03269040D01*
X12670490Y03263750D01*
X12701980Y03269040D01*
X12733480Y03295490D01*
X12753160Y03327250D01*
X12757090Y03359000D01*
X12749220Y03396030D01*
X12721660Y03422500D01*
X12694100Y03433090D01*
X12658670Y03433090D01*
G01X12694100Y03433090D02*
X12717730Y03448960D01*
X12737410Y03475410D01*
X12745280Y03507160D01*
X12737410Y03538920D01*
X12717730Y03565370D01*
X12682300Y03581250D01*
X12646870Y03575960D01*
X12611440Y03554790D01*
G01X12914520Y03300780D02*
X12942080Y03274330D01*
X12973570Y03263750D01*
X13005070Y03274330D01*
X13032630Y03306070D01*
X13052310Y03353710D01*
X13060180Y03401330D01*
X13060180Y03459540D01*
X13052310Y03507160D01*
X13032630Y03549500D01*
X13009000Y03570670D01*
X12981450Y03581250D01*
X12949950Y03570670D01*
X12926340Y03549500D01*
X12910590Y03517750D01*
X12902720Y03475410D01*
X12910590Y03438380D01*
X12930270Y03401330D01*
X12953900Y03380160D01*
X12981450Y03374870D01*
X13012940Y03385450D01*
X13036560Y03411910D01*
X13060180Y03459540D01*
G01X13288470Y03263750D02*
X13296350Y03332540D01*
X13308160Y03390740D01*
X13323900Y03443670D01*
X13343590Y03501870D01*
X13375080Y03581250D01*
X13217620Y03581250D01*
G01X11879300Y04216250D02*
X11847800Y04205670D01*
X11824190Y04179210D01*
X11808440Y04147460D01*
X11796630Y04105120D01*
X11792690Y04057500D01*
X11796630Y04009870D01*
X11808440Y03967540D01*
X11824190Y03935780D01*
X11847800Y03909330D01*
X11879300Y03898750D01*
X11910790Y03909330D01*
X11934410Y03935780D01*
X11950160Y03967540D01*
X11961970Y04009870D01*
X11965910Y04057500D01*
X11961970Y04105120D01*
X11950160Y04147460D01*
X11934410Y04179210D01*
X11910790Y04205670D01*
X11879300Y04216250D01*
G01X12194200Y03888170D02*
X12186320Y03893460D01*
X12186320Y03904040D01*
X12194200Y03909330D01*
X12202080Y03904040D01*
X12202080Y03893460D01*
X12194200Y03888170D01*
G01X12442170Y03935780D02*
X12469730Y03909330D01*
X12501220Y03898750D01*
X12532720Y03909330D01*
X12560280Y03941070D01*
X12579960Y03988710D01*
X12587830Y04036330D01*
X12587830Y04094540D01*
X12579960Y04142160D01*
X12560280Y04184500D01*
X12536650Y04205670D01*
X12509100Y04216250D01*
X12477600Y04205670D01*
X12453990Y04184500D01*
X12438240Y04152750D01*
X12430370Y04110410D01*
X12438240Y04073380D01*
X12457920Y04036330D01*
X12481550Y04015160D01*
X12509100Y04009870D01*
X12540590Y04020450D01*
X12564210Y04046910D01*
X12587830Y04094540D01*
G01X12737390Y03962250D02*
X12761010Y03925200D01*
X12792500Y03904040D01*
X12827940Y03898750D01*
X12859430Y03904040D01*
X12890930Y03930490D01*
X12910610Y03962250D01*
X12914540Y03994000D01*
X12906670Y04031030D01*
X12879110Y04057500D01*
X12851550Y04068090D01*
X12816120Y04068090D01*
G01X12851550Y04068090D02*
X12875180Y04083960D01*
X12894860Y04110410D01*
X12902730Y04142160D01*
X12894860Y04173920D01*
X12875180Y04200370D01*
X12839750Y04216250D01*
X12804320Y04210960D01*
X12768890Y04189790D01*
G01X13071970Y03935780D02*
X13099530Y03909330D01*
X13131020Y03898750D01*
X13162520Y03909330D01*
X13190080Y03941070D01*
X13209760Y03988710D01*
X13217630Y04036330D01*
X13217630Y04094540D01*
X13209760Y04142160D01*
X13190080Y04184500D01*
X13166450Y04205670D01*
X13138900Y04216250D01*
X13107400Y04205670D01*
X13083790Y04184500D01*
X13068040Y04152750D01*
X13060170Y04110410D01*
X13068040Y04073380D01*
X13087720Y04036330D01*
X13111350Y04015160D01*
X13138900Y04009870D01*
X13170390Y04020450D01*
X13194010Y04046910D01*
X13217630Y04094540D01*
G01X13453800Y03898750D02*
X13481350Y03904040D01*
X13512850Y03919910D01*
X13532530Y03946360D01*
X13540410Y03983420D01*
X13532530Y04020450D01*
X13508910Y04052200D01*
X13473480Y04068090D01*
X13434120Y04068090D01*
X13410500Y04078670D01*
X13390810Y04105120D01*
X13382940Y04142160D01*
X13394750Y04179210D01*
X13422300Y04205670D01*
X13453800Y04216250D01*
X13485290Y04205670D01*
X13512850Y04179210D01*
X13524660Y04142160D01*
X13516780Y04105120D01*
X13497100Y04078670D01*
X13473480Y04068090D01*
X13434120Y04068090D01*
X13398690Y04052200D01*
X13375070Y04020450D01*
X13367190Y03983420D01*
X13375070Y03946360D01*
X13394750Y03919910D01*
X13426250Y03904040D01*
X13453800Y03898750D01*
G01X11879300Y04851250D02*
X11847800Y04840670D01*
X11824190Y04814210D01*
X11808440Y04782460D01*
X11796630Y04740120D01*
X11792690Y04692500D01*
X11796630Y04644870D01*
X11808440Y04602540D01*
X11824190Y04570780D01*
X11847800Y04544330D01*
X11879300Y04533750D01*
X11910790Y04544330D01*
X11934410Y04570780D01*
X11950160Y04602540D01*
X11961970Y04644870D01*
X11965910Y04692500D01*
X11961970Y04740120D01*
X11950160Y04782460D01*
X11934410Y04814210D01*
X11910790Y04840670D01*
X11879300Y04851250D01*
G01X12194200Y04523170D02*
X12186320Y04528460D01*
X12186320Y04539040D01*
X12194200Y04544330D01*
X12202080Y04539040D01*
X12202080Y04528460D01*
X12194200Y04523170D01*
G01X12509100Y04533750D02*
X12536650Y04539040D01*
X12568150Y04554910D01*
X12587830Y04581360D01*
X12595710Y04618420D01*
X12587830Y04655450D01*
X12564210Y04687200D01*
X12528780Y04703090D01*
X12489420Y04703090D01*
X12465800Y04713670D01*
X12446110Y04740120D01*
X12438240Y04777160D01*
X12450050Y04814210D01*
X12477600Y04840670D01*
X12509100Y04851250D01*
X12540590Y04840670D01*
X12568150Y04814210D01*
X12579960Y04777160D01*
X12572080Y04740120D01*
X12552400Y04713670D01*
X12528780Y04703090D01*
X12489420Y04703090D01*
X12453990Y04687200D01*
X12430370Y04655450D01*
X12422490Y04618420D01*
X12430370Y04581360D01*
X12450050Y04554910D01*
X12481550Y04539040D01*
X12509100Y04533750D01*
G01X12749200Y04666030D02*
X12776760Y04703090D01*
X12800380Y04724250D01*
X12831880Y04734830D01*
X12859430Y04724250D01*
X12879110Y04703090D01*
X12894860Y04671330D01*
X12898800Y04634290D01*
X12894860Y04602540D01*
X12879110Y04570780D01*
X12855490Y04544330D01*
X12827940Y04533750D01*
X12796450Y04544330D01*
X12768890Y04576070D01*
X12753140Y04623710D01*
X12749200Y04676620D01*
X12757070Y04745410D01*
X12768890Y04782460D01*
X12788570Y04819500D01*
X12816120Y04845960D01*
X12843680Y04851250D01*
X12871240Y04840670D01*
X12890930Y04814210D01*
G01X13052290Y04597250D02*
X13075910Y04560200D01*
X13107400Y04539040D01*
X13142840Y04533750D01*
X13174330Y04539040D01*
X13205830Y04565490D01*
X13225510Y04597250D01*
X13229440Y04629000D01*
X13221570Y04666030D01*
X13194010Y04692500D01*
X13166450Y04703090D01*
X13131020Y04703090D01*
G01X13166450Y04703090D02*
X13190080Y04718960D01*
X13209760Y04745410D01*
X13217630Y04777160D01*
X13209760Y04808920D01*
X13190080Y04835370D01*
X13154650Y04851250D01*
X13119220Y04845960D01*
X13083790Y04824790D01*
G01X13379000Y04666030D02*
X13406560Y04703090D01*
X13430180Y04724250D01*
X13461680Y04734830D01*
X13489230Y04724250D01*
X13508910Y04703090D01*
X13524660Y04671330D01*
X13528600Y04634290D01*
X13524660Y04602540D01*
X13508910Y04570780D01*
X13485290Y04544330D01*
X13457740Y04533750D01*
X13426250Y04544330D01*
X13398690Y04576070D01*
X13382940Y04623710D01*
X13379000Y04676620D01*
X13386870Y04745410D01*
X13398690Y04782460D01*
X13418370Y04819500D01*
X13445920Y04845960D01*
X13473480Y04851250D01*
X13501040Y04840670D01*
X13520730Y04814210D01*
G01X12036750Y05486250D02*
X12005250Y05475670D01*
X11981640Y05449210D01*
X11965890Y05417460D01*
X11954080Y05375120D01*
X11950140Y05327500D01*
X11954080Y05279870D01*
X11965890Y05237540D01*
X11981640Y05205780D01*
X12005250Y05179330D01*
X12036750Y05168750D01*
X12068240Y05179330D01*
X12091860Y05205780D01*
X12107610Y05237540D01*
X12119420Y05279870D01*
X12123360Y05327500D01*
X12119420Y05375120D01*
X12107610Y05417460D01*
X12091860Y05449210D01*
X12068240Y05475670D01*
X12036750Y05486250D01*
G01X12351650Y05158170D02*
X12343770Y05163460D01*
X12343770Y05174040D01*
X12351650Y05179330D01*
X12359530Y05174040D01*
X12359530Y05163460D01*
X12351650Y05158170D01*
G01X12658670Y05168750D02*
X12666550Y05237540D01*
X12678360Y05295740D01*
X12694100Y05348670D01*
X12713790Y05406870D01*
X12745280Y05486250D01*
X12587820Y05486250D01*
G01X12906650Y05301030D02*
X12934210Y05338090D01*
X12957830Y05359250D01*
X12989330Y05369830D01*
X13016880Y05359250D01*
X13036560Y05338090D01*
X13052310Y05306330D01*
X13056250Y05269290D01*
X13052310Y05237540D01*
X13036560Y05205780D01*
X13012940Y05179330D01*
X12985390Y05168750D01*
X12953900Y05179330D01*
X12926340Y05211070D01*
X12910590Y05258710D01*
X12906650Y05311620D01*
X12914520Y05380410D01*
X12926340Y05417460D01*
X12946020Y05454500D01*
X12973570Y05480960D01*
X13001130Y05486250D01*
X13028690Y05475670D01*
X13048380Y05449210D01*
G01X13221550Y05433330D02*
X13245170Y05465080D01*
X13272730Y05480960D01*
X13304230Y05486250D01*
X13343590Y05475670D01*
X13371150Y05449210D01*
X13379020Y05417460D01*
X13375080Y05385700D01*
X13359330Y05359250D01*
X13280600Y05306330D01*
X13245170Y05269290D01*
X13221550Y05216360D01*
X13213680Y05168750D01*
X13379020Y05168750D01*
G01X12351650Y06121250D02*
X12320150Y06110670D01*
X12296540Y06084210D01*
X12280790Y06052460D01*
X12268980Y06010120D01*
X12265040Y05962500D01*
X12268980Y05914870D01*
X12280790Y05872540D01*
X12296540Y05840780D01*
X12320150Y05814330D01*
X12351650Y05803750D01*
X12383140Y05814330D01*
X12406760Y05840780D01*
X12422510Y05872540D01*
X12434320Y05914870D01*
X12438260Y05962500D01*
X12434320Y06010120D01*
X12422510Y06052460D01*
X12406760Y06084210D01*
X12383140Y06110670D01*
X12351650Y06121250D01*
G01X12666550Y05793170D02*
X12658670Y05798460D01*
X12658670Y05809040D01*
X12666550Y05814330D01*
X12674430Y05809040D01*
X12674430Y05798460D01*
X12666550Y05793170D01*
G01X12906650Y06068330D02*
X12930270Y06100080D01*
X12957830Y06115960D01*
X12989330Y06121250D01*
X13028690Y06110670D01*
X13056250Y06084210D01*
X13064120Y06052460D01*
X13060180Y06020700D01*
X13044430Y05994250D01*
X12965700Y05941330D01*
X12930270Y05904290D01*
X12906650Y05851360D01*
X12898780Y05803750D01*
X13064120Y05803750D01*
G01X12331930Y07073750D02*
X12430350Y07391250D01*
X12528770Y07073750D01*
G01X12493330Y07184870D02*
X12367360Y07184870D01*
G01X12666520Y07391250D02*
X12666520Y07073750D01*
X12823980Y07073750D01*
G01X12981420Y07391250D02*
X12981420Y07073750D01*
X13138880Y07073750D01*
G01X13603340Y07391250D02*
X13603340Y07163710D01*
X13619090Y07116070D01*
X13650580Y07084330D01*
X13689950Y07073750D01*
X13729320Y07084330D01*
X13760810Y07116070D01*
X13776560Y07163710D01*
X13776560Y07391250D01*
G01X13914310Y07073750D02*
X13914310Y07391250D01*
X14095390Y07073750D01*
X14095390Y07391250D01*
G01X14272510Y07391250D02*
X14366980Y07391250D01*
G01X14319750Y07391250D02*
X14319750Y07073750D01*
G01X14272510Y07073750D02*
X14366980Y07073750D01*
G01X14634650Y07391250D02*
X14634650Y07073750D01*
G01X14544110Y07391250D02*
X14725190Y07391250D01*
G01X14866880Y07116070D02*
X14898370Y07089620D01*
X14933800Y07073750D01*
X14965300Y07073750D01*
X14996790Y07089620D01*
X15020410Y07116070D01*
X15032220Y07153130D01*
X15024350Y07190160D01*
X15004660Y07221910D01*
X14969230Y07243090D01*
X14922000Y07253670D01*
X14894440Y07274830D01*
X14882620Y07311870D01*
X14890500Y07348920D01*
X14910180Y07375370D01*
X14937740Y07391250D01*
X14965300Y07391250D01*
X14992850Y07380670D01*
X15016480Y07354210D01*
G01X15480930Y07073750D02*
X15579350Y07391250D01*
X15677770Y07073750D01*
G01X15642330Y07184870D02*
X15516360Y07184870D01*
G01X15815520Y07073750D02*
X15815520Y07391250D01*
X15913930Y07391250D01*
X15945430Y07375370D01*
X15965110Y07354210D01*
X15972980Y07311870D01*
X15965110Y07269540D01*
X15941490Y07243090D01*
X15913930Y07227200D01*
X15815520Y07227200D01*
G01X15913930Y07227200D02*
X15972980Y07073750D01*
G01X16287880Y07073750D02*
X16130420Y07073750D01*
X16130420Y07391250D01*
X16287880Y07391250D01*
G01X16224900Y07237800D02*
X16130420Y07237800D01*
G01X16791710Y07391250D02*
X16886180Y07391250D01*
G01X16838950Y07391250D02*
X16838950Y07073750D01*
G01X16791710Y07073750D02*
X16886180Y07073750D01*
G01X17063310Y07073750D02*
X17063310Y07391250D01*
X17244390Y07073750D01*
X17244390Y07391250D01*
G01X17681290Y07073750D02*
X17681290Y07391250D01*
X17783650Y07126670D01*
X17886010Y07391250D01*
X17886010Y07073750D01*
G01X18051310Y07391250D02*
X18145780Y07391250D01*
G01X18098550Y07391250D02*
X18098550Y07073750D01*
G01X18051310Y07073750D02*
X18145780Y07073750D01*
G01X18334720Y07391250D02*
X18334720Y07073750D01*
X18492180Y07073750D01*
G01X18649620Y07391250D02*
X18649620Y07073750D01*
X18807080Y07073750D01*
G01X18996010Y07391250D02*
X19090480Y07391250D01*
G01X19043250Y07391250D02*
X19043250Y07073750D01*
G01X18996010Y07073750D02*
X19090480Y07073750D01*
G01X19255790Y07073750D02*
X19255790Y07391250D01*
X19358150Y07126670D01*
X19460510Y07391250D01*
X19460510Y07073750D01*
G01X19751780Y07073750D02*
X19594320Y07073750D01*
X19594320Y07391250D01*
X19751780Y07391250D01*
G01X19688800Y07237800D02*
X19594320Y07237800D01*
G01X19987950Y07391250D02*
X19987950Y07073750D01*
G01X19897410Y07391250D02*
X20078490Y07391250D01*
G01X20381580Y07073750D02*
X20224120Y07073750D01*
X20224120Y07391250D01*
X20381580Y07391250D01*
G01X20318600Y07237800D02*
X20224120Y07237800D01*
G01X20539020Y07073750D02*
X20539020Y07391250D01*
X20637430Y07391250D01*
X20668930Y07375370D01*
X20688610Y07354210D01*
X20696480Y07311870D01*
X20688610Y07269540D01*
X20664990Y07243090D01*
X20637430Y07227200D01*
X20539020Y07227200D01*
G01X20637430Y07227200D02*
X20696480Y07073750D01*
G01X20849980Y07116070D02*
X20881470Y07089620D01*
X20916900Y07073750D01*
X20948400Y07073750D01*
X20979890Y07089620D01*
X21003510Y07116070D01*
X21015320Y07153130D01*
X21007450Y07190160D01*
X20987760Y07221910D01*
X20952330Y07243090D01*
X20905100Y07253670D01*
X20877540Y07274830D01*
X20865720Y07311870D01*
X20873600Y07348920D01*
X20893280Y07375370D01*
X20920840Y07391250D01*
X20948400Y07391250D01*
X20975950Y07380670D01*
X20999580Y07354210D01*
G01X12658640Y07723750D02*
X12658640Y08041250D01*
X12737370Y08041250D01*
X12768870Y08025370D01*
X12792490Y08004210D01*
X12812180Y07972460D01*
X12827920Y07935410D01*
X12831860Y07882500D01*
X12827920Y07829580D01*
X12812180Y07792540D01*
X12792490Y07760780D01*
X12768870Y07739620D01*
X12737370Y07723750D01*
X12658640Y07723750D01*
G01X12981420Y07723750D02*
X12981420Y08041250D01*
X13079830Y08041250D01*
X13111330Y08025370D01*
X13131010Y08004210D01*
X13138880Y07961870D01*
X13131010Y07919540D01*
X13107390Y07893090D01*
X13079830Y07877200D01*
X12981420Y07877200D01*
G01X13079830Y07877200D02*
X13138880Y07723750D01*
G01X13327810Y08041250D02*
X13422280Y08041250D01*
G01X13375050Y08041250D02*
X13375050Y07723750D01*
G01X13327810Y07723750D02*
X13422280Y07723750D01*
G01X13611220Y08041250D02*
X13611220Y07723750D01*
X13768680Y07723750D01*
G01X13926120Y08041250D02*
X13926120Y07723750D01*
X14083580Y07723750D01*
G01X14721260Y08014790D02*
X14697630Y08030670D01*
X14670080Y08041250D01*
X14638590Y08041250D01*
X14603150Y08025370D01*
X14575600Y07998920D01*
X14555920Y07967160D01*
X14540160Y07914250D01*
X14536230Y07866620D01*
X14544110Y07819000D01*
X14555920Y07787250D01*
X14579540Y07755490D01*
X14607100Y07734330D01*
X14634650Y07723750D01*
X14662200Y07723750D01*
X14689760Y07734330D01*
X14713380Y07750200D01*
X14733070Y07771360D01*
G01X14866880Y07723750D02*
X14866880Y08041250D01*
G01X15032220Y08041250D02*
X15032220Y07723750D01*
G01X15032220Y07882500D02*
X14866880Y07882500D01*
G01X15166030Y07723750D02*
X15264450Y08041250D01*
X15362870Y07723750D01*
G01X15327430Y07834870D02*
X15201460Y07834870D01*
G01X15500620Y07723750D02*
X15500620Y08041250D01*
X15599030Y08041250D01*
X15630530Y08025370D01*
X15650210Y08004210D01*
X15658080Y07961870D01*
X15650210Y07919540D01*
X15626590Y07893090D01*
X15599030Y07877200D01*
X15500620Y07877200D01*
G01X15599030Y07877200D02*
X15658080Y07723750D01*
G01X15894250Y08041250D02*
X15894250Y07723750D01*
G01X15803710Y08041250D02*
X15984790Y08041250D01*
G01X16209150Y07713170D02*
X16201270Y07718460D01*
X16201270Y07729040D01*
X16209150Y07734330D01*
X16217030Y07729040D01*
X16217030Y07718460D01*
X16209150Y07713170D01*
G01X16209150Y07856030D02*
X16201270Y07861330D01*
X16201270Y07871910D01*
X16209150Y07877200D01*
X16217030Y07871910D01*
X16217030Y07861330D01*
X16209150Y07856030D01*
G01X16838950Y08041250D02*
X16838950Y07723750D01*
G01X16748410Y08041250D02*
X16929490Y08041250D01*
G01X17153850Y07723750D02*
X17122350Y07729040D01*
X17094800Y07750200D01*
X17071180Y07781960D01*
X17055430Y07819000D01*
X17047560Y07861330D01*
X17047560Y07903670D01*
X17055430Y07946000D01*
X17071180Y07983040D01*
X17094800Y08014790D01*
X17122350Y08035960D01*
X17153850Y08041250D01*
X17185340Y08035960D01*
X17212900Y08014790D01*
X17236520Y07983040D01*
X17252270Y07946000D01*
X17260140Y07903670D01*
X17260140Y07861330D01*
X17252270Y07819000D01*
X17236520Y07781960D01*
X17212900Y07750200D01*
X17185340Y07729040D01*
X17153850Y07723750D01*
G01X17390020Y07723750D02*
X17390020Y08041250D01*
X17484500Y08041250D01*
X17515990Y08025370D01*
X17539610Y07988330D01*
X17547480Y07946000D01*
X17539610Y07903670D01*
X17519930Y07871910D01*
X17484500Y07856030D01*
X17390020Y07856030D01*
G01X18098550Y08041250D02*
X18098550Y07723750D01*
G01X18043440Y07935410D02*
X18153660Y07935410D01*
G01X18413450Y07723750D02*
X18389830Y07729040D01*
X18366210Y07750200D01*
X18350460Y07787250D01*
X18342590Y07829580D01*
X18350460Y07871910D01*
X18366210Y07908960D01*
X18389830Y07930120D01*
X18413450Y07935410D01*
X18437070Y07930120D01*
X18460690Y07908960D01*
X18476430Y07871910D01*
X18480380Y07829580D01*
X18476430Y07787250D01*
X18460690Y07750200D01*
X18437070Y07729040D01*
X18413450Y07723750D01*
G01X19074740Y07893090D02*
X19090490Y07908960D01*
X19102300Y07935410D01*
X19110180Y07972460D01*
X19102300Y08004210D01*
X19086550Y08025370D01*
X19059000Y08041250D01*
X18952710Y08041250D01*
X18952710Y07723750D01*
X19082620Y07723750D01*
X19110180Y07744910D01*
X19125920Y07776670D01*
X19133790Y07813710D01*
X19125920Y07850740D01*
X19102300Y07882500D01*
X19074740Y07893090D01*
X18952710Y07893090D01*
G01X19358150Y07723750D02*
X19326650Y07729040D01*
X19299100Y07750200D01*
X19275480Y07781960D01*
X19259730Y07819000D01*
X19251860Y07861330D01*
X19251860Y07903670D01*
X19259730Y07946000D01*
X19275480Y07983040D01*
X19299100Y08014790D01*
X19326650Y08035960D01*
X19358150Y08041250D01*
X19389640Y08035960D01*
X19417200Y08014790D01*
X19440820Y07983040D01*
X19456570Y07946000D01*
X19464440Y07903670D01*
X19464440Y07861330D01*
X19456570Y07819000D01*
X19440820Y07781960D01*
X19417200Y07750200D01*
X19389640Y07729040D01*
X19358150Y07723750D01*
G01X19673050Y08041250D02*
X19673050Y07723750D01*
G01X19582510Y08041250D02*
X19763590Y08041250D01*
G01X19987950Y08041250D02*
X19987950Y07723750D01*
G01X19897410Y08041250D02*
X20078490Y08041250D01*
G01X20302850Y07723750D02*
X20271350Y07729040D01*
X20243800Y07750200D01*
X20220180Y07781960D01*
X20204430Y07819000D01*
X20196560Y07861330D01*
X20196560Y07903670D01*
X20204430Y07946000D01*
X20220180Y07983040D01*
X20243800Y08014790D01*
X20271350Y08035960D01*
X20302850Y08041250D01*
X20334340Y08035960D01*
X20361900Y08014790D01*
X20385520Y07983040D01*
X20401270Y07946000D01*
X20409140Y07903670D01*
X20409140Y07861330D01*
X20401270Y07819000D01*
X20385520Y07781960D01*
X20361900Y07750200D01*
X20334340Y07729040D01*
X20302850Y07723750D01*
G01X20515390Y07723750D02*
X20515390Y08041250D01*
X20617750Y07776670D01*
X20720110Y08041250D01*
X20720110Y07723750D01*
G01X15225100Y06915000D02*
X15225100Y02470000D01*
G01X15579350Y06756250D02*
X15579350Y06438750D01*
G01X15488810Y06756250D02*
X15669890Y06756250D01*
G01X15894250Y06438750D02*
X15862750Y06444040D01*
X15835200Y06465200D01*
X15811580Y06496960D01*
X15795830Y06534000D01*
X15787960Y06576330D01*
X15787960Y06618670D01*
X15795830Y06661000D01*
X15811580Y06698040D01*
X15835200Y06729790D01*
X15862750Y06750960D01*
X15894250Y06756250D01*
X15925740Y06750960D01*
X15953300Y06729790D01*
X15976920Y06698040D01*
X15992670Y06661000D01*
X16000540Y06618670D01*
X16000540Y06576330D01*
X15992670Y06534000D01*
X15976920Y06496960D01*
X15953300Y06465200D01*
X15925740Y06444040D01*
X15894250Y06438750D01*
G01X16130420Y06756250D02*
X16130420Y06438750D01*
X16287880Y06438750D01*
G01X16602780Y06438750D02*
X16445320Y06438750D01*
X16445320Y06756250D01*
X16602780Y06756250D01*
G01X16539800Y06602800D02*
X16445320Y06602800D01*
G01X16760220Y06438750D02*
X16760220Y06756250D01*
X16858630Y06756250D01*
X16890130Y06740370D01*
X16909810Y06719210D01*
X16917680Y06676870D01*
X16909810Y06634540D01*
X16886190Y06608090D01*
X16858630Y06592200D01*
X16760220Y06592200D01*
G01X16858630Y06592200D02*
X16917680Y06438750D01*
G01X17055430Y06438750D02*
X17153850Y06756250D01*
X17252270Y06438750D01*
G01X17216830Y06549870D02*
X17090860Y06549870D01*
G01X17378210Y06438750D02*
X17378210Y06756250D01*
X17559290Y06438750D01*
X17559290Y06756250D01*
G01X17870260Y06729790D02*
X17846630Y06745670D01*
X17819080Y06756250D01*
X17787590Y06756250D01*
X17752150Y06740370D01*
X17724600Y06713920D01*
X17704920Y06682160D01*
X17689160Y06629250D01*
X17685230Y06581620D01*
X17693110Y06534000D01*
X17704920Y06502250D01*
X17728540Y06470490D01*
X17756100Y06449330D01*
X17783650Y06438750D01*
X17811200Y06438750D01*
X17838760Y06449330D01*
X17862380Y06465200D01*
X17882070Y06486360D01*
G01X18177280Y06438750D02*
X18019820Y06438750D01*
X18019820Y06756250D01*
X18177280Y06756250D01*
G01X18114300Y06602800D02*
X18019820Y06602800D01*
G01X18295350Y06332920D02*
X18531550Y06332920D01*
G01X18641740Y06438750D02*
X18641740Y06756250D01*
X18720470Y06756250D01*
X18751970Y06740370D01*
X18775590Y06719210D01*
X18795280Y06687460D01*
X18811020Y06650410D01*
X18814960Y06597500D01*
X18811020Y06544580D01*
X18795280Y06507540D01*
X18775590Y06475780D01*
X18751970Y06454620D01*
X18720470Y06438750D01*
X18641740Y06438750D01*
G01X18964520Y06438750D02*
X18964520Y06756250D01*
X19062930Y06756250D01*
X19094430Y06740370D01*
X19114110Y06719210D01*
X19121980Y06676870D01*
X19114110Y06634540D01*
X19090490Y06608090D01*
X19062930Y06592200D01*
X18964520Y06592200D01*
G01X19062930Y06592200D02*
X19121980Y06438750D01*
G01X19310910Y06756250D02*
X19405380Y06756250D01*
G01X19358150Y06756250D02*
X19358150Y06438750D01*
G01X19310910Y06438750D02*
X19405380Y06438750D01*
G01X19594320Y06756250D02*
X19594320Y06438750D01*
X19751780Y06438750D01*
G01X19909220Y06756250D02*
X19909220Y06438750D01*
X20066680Y06438750D01*
G01X16480750Y02734580D02*
X16575230Y02734580D01*
G01X16524050Y02803380D02*
X16524050Y02665780D01*
G01X16838950Y02946250D02*
X16807450Y02935670D01*
X16783840Y02909210D01*
X16768090Y02877460D01*
X16756280Y02835120D01*
X16752340Y02787500D01*
X16756280Y02739870D01*
X16768090Y02697540D01*
X16783840Y02665780D01*
X16807450Y02639330D01*
X16838950Y02628750D01*
X16870440Y02639330D01*
X16894060Y02665780D01*
X16909810Y02697540D01*
X16921620Y02739870D01*
X16925560Y02787500D01*
X16921620Y02835120D01*
X16909810Y02877460D01*
X16894060Y02909210D01*
X16870440Y02935670D01*
X16838950Y02946250D01*
G01X17153850Y02618170D02*
X17145970Y02623460D01*
X17145970Y02634040D01*
X17153850Y02639330D01*
X17161730Y02634040D01*
X17161730Y02623460D01*
X17153850Y02618170D01*
G01X17468750Y02946250D02*
X17437250Y02935670D01*
X17413640Y02909210D01*
X17397890Y02877460D01*
X17386080Y02835120D01*
X17382140Y02787500D01*
X17386080Y02739870D01*
X17397890Y02697540D01*
X17413640Y02665780D01*
X17437250Y02639330D01*
X17468750Y02628750D01*
X17500240Y02639330D01*
X17523860Y02665780D01*
X17539610Y02697540D01*
X17551420Y02739870D01*
X17555360Y02787500D01*
X17551420Y02835120D01*
X17539610Y02877460D01*
X17523860Y02909210D01*
X17500240Y02935670D01*
X17468750Y02946250D01*
G01X17712790Y02618170D02*
X17854510Y02946250D01*
G01X18047370Y02734580D02*
X18149730Y02734580D01*
G01X18413450Y02946250D02*
X18381950Y02935670D01*
X18358340Y02909210D01*
X18342590Y02877460D01*
X18330780Y02835120D01*
X18326840Y02787500D01*
X18330780Y02739870D01*
X18342590Y02697540D01*
X18358340Y02665780D01*
X18381950Y02639330D01*
X18413450Y02628750D01*
X18444940Y02639330D01*
X18468560Y02665780D01*
X18484310Y02697540D01*
X18496120Y02739870D01*
X18500060Y02787500D01*
X18496120Y02835120D01*
X18484310Y02877460D01*
X18468560Y02909210D01*
X18444940Y02935670D01*
X18413450Y02946250D01*
G01X18728350Y02618170D02*
X18720470Y02623460D01*
X18720470Y02634040D01*
X18728350Y02639330D01*
X18736230Y02634040D01*
X18736230Y02623460D01*
X18728350Y02618170D01*
G01X19043250Y02946250D02*
X19011750Y02935670D01*
X18988140Y02909210D01*
X18972390Y02877460D01*
X18960580Y02835120D01*
X18956640Y02787500D01*
X18960580Y02739870D01*
X18972390Y02697540D01*
X18988140Y02665780D01*
X19011750Y02639330D01*
X19043250Y02628750D01*
X19074740Y02639330D01*
X19098360Y02665780D01*
X19114110Y02697540D01*
X19125920Y02739870D01*
X19129860Y02787500D01*
X19125920Y02835120D01*
X19114110Y02877460D01*
X19098360Y02909210D01*
X19074740Y02935670D01*
X19043250Y02946250D01*
G01X16480750Y03369580D02*
X16575230Y03369580D01*
G01X16524050Y03438380D02*
X16524050Y03300780D01*
G01X16838950Y03581250D02*
X16807450Y03570670D01*
X16783840Y03544210D01*
X16768090Y03512460D01*
X16756280Y03470120D01*
X16752340Y03422500D01*
X16756280Y03374870D01*
X16768090Y03332540D01*
X16783840Y03300780D01*
X16807450Y03274330D01*
X16838950Y03263750D01*
X16870440Y03274330D01*
X16894060Y03300780D01*
X16909810Y03332540D01*
X16921620Y03374870D01*
X16925560Y03422500D01*
X16921620Y03470120D01*
X16909810Y03512460D01*
X16894060Y03544210D01*
X16870440Y03570670D01*
X16838950Y03581250D01*
G01X17153850Y03253170D02*
X17145970Y03258460D01*
X17145970Y03269040D01*
X17153850Y03274330D01*
X17161730Y03269040D01*
X17161730Y03258460D01*
X17153850Y03253170D01*
G01X17468750Y03581250D02*
X17437250Y03570670D01*
X17413640Y03544210D01*
X17397890Y03512460D01*
X17386080Y03470120D01*
X17382140Y03422500D01*
X17386080Y03374870D01*
X17397890Y03332540D01*
X17413640Y03300780D01*
X17437250Y03274330D01*
X17468750Y03263750D01*
X17500240Y03274330D01*
X17523860Y03300780D01*
X17539610Y03332540D01*
X17551420Y03374870D01*
X17555360Y03422500D01*
X17551420Y03470120D01*
X17539610Y03512460D01*
X17523860Y03544210D01*
X17500240Y03570670D01*
X17468750Y03581250D01*
G01X17712790Y03253170D02*
X17854510Y03581250D01*
G01X18047370Y03369580D02*
X18149730Y03369580D01*
G01X18413450Y03581250D02*
X18381950Y03570670D01*
X18358340Y03544210D01*
X18342590Y03512460D01*
X18330780Y03470120D01*
X18326840Y03422500D01*
X18330780Y03374870D01*
X18342590Y03332540D01*
X18358340Y03300780D01*
X18381950Y03274330D01*
X18413450Y03263750D01*
X18444940Y03274330D01*
X18468560Y03300780D01*
X18484310Y03332540D01*
X18496120Y03374870D01*
X18500060Y03422500D01*
X18496120Y03470120D01*
X18484310Y03512460D01*
X18468560Y03544210D01*
X18444940Y03570670D01*
X18413450Y03581250D01*
G01X18728350Y03253170D02*
X18720470Y03258460D01*
X18720470Y03269040D01*
X18728350Y03274330D01*
X18736230Y03269040D01*
X18736230Y03258460D01*
X18728350Y03253170D01*
G01X19043250Y03581250D02*
X19011750Y03570670D01*
X18988140Y03544210D01*
X18972390Y03512460D01*
X18960580Y03470120D01*
X18956640Y03422500D01*
X18960580Y03374870D01*
X18972390Y03332540D01*
X18988140Y03300780D01*
X19011750Y03274330D01*
X19043250Y03263750D01*
X19074740Y03274330D01*
X19098360Y03300780D01*
X19114110Y03332540D01*
X19125920Y03374870D01*
X19129860Y03422500D01*
X19125920Y03470120D01*
X19114110Y03512460D01*
X19098360Y03544210D01*
X19074740Y03570670D01*
X19043250Y03581250D01*
G01X16480750Y04004580D02*
X16575230Y04004580D01*
G01X16524050Y04073380D02*
X16524050Y03935780D01*
G01X16838950Y04216250D02*
X16807450Y04205670D01*
X16783840Y04179210D01*
X16768090Y04147460D01*
X16756280Y04105120D01*
X16752340Y04057500D01*
X16756280Y04009870D01*
X16768090Y03967540D01*
X16783840Y03935780D01*
X16807450Y03909330D01*
X16838950Y03898750D01*
X16870440Y03909330D01*
X16894060Y03935780D01*
X16909810Y03967540D01*
X16921620Y04009870D01*
X16925560Y04057500D01*
X16921620Y04105120D01*
X16909810Y04147460D01*
X16894060Y04179210D01*
X16870440Y04205670D01*
X16838950Y04216250D01*
G01X17153850Y03888170D02*
X17145970Y03893460D01*
X17145970Y03904040D01*
X17153850Y03909330D01*
X17161730Y03904040D01*
X17161730Y03893460D01*
X17153850Y03888170D01*
G01X17468750Y04216250D02*
X17437250Y04205670D01*
X17413640Y04179210D01*
X17397890Y04147460D01*
X17386080Y04105120D01*
X17382140Y04057500D01*
X17386080Y04009870D01*
X17397890Y03967540D01*
X17413640Y03935780D01*
X17437250Y03909330D01*
X17468750Y03898750D01*
X17500240Y03909330D01*
X17523860Y03935780D01*
X17539610Y03967540D01*
X17551420Y04009870D01*
X17555360Y04057500D01*
X17551420Y04105120D01*
X17539610Y04147460D01*
X17523860Y04179210D01*
X17500240Y04205670D01*
X17468750Y04216250D01*
G01X17712790Y03888170D02*
X17854510Y04216250D01*
G01X18047370Y04004580D02*
X18149730Y04004580D01*
G01X18413450Y04216250D02*
X18381950Y04205670D01*
X18358340Y04179210D01*
X18342590Y04147460D01*
X18330780Y04105120D01*
X18326840Y04057500D01*
X18330780Y04009870D01*
X18342590Y03967540D01*
X18358340Y03935780D01*
X18381950Y03909330D01*
X18413450Y03898750D01*
X18444940Y03909330D01*
X18468560Y03935780D01*
X18484310Y03967540D01*
X18496120Y04009870D01*
X18500060Y04057500D01*
X18496120Y04105120D01*
X18484310Y04147460D01*
X18468560Y04179210D01*
X18444940Y04205670D01*
X18413450Y04216250D01*
G01X18728350Y03888170D02*
X18720470Y03893460D01*
X18720470Y03904040D01*
X18728350Y03909330D01*
X18736230Y03904040D01*
X18736230Y03893460D01*
X18728350Y03888170D01*
G01X19043250Y04216250D02*
X19011750Y04205670D01*
X18988140Y04179210D01*
X18972390Y04147460D01*
X18960580Y04105120D01*
X18956640Y04057500D01*
X18960580Y04009870D01*
X18972390Y03967540D01*
X18988140Y03935780D01*
X19011750Y03909330D01*
X19043250Y03898750D01*
X19074740Y03909330D01*
X19098360Y03935780D01*
X19114110Y03967540D01*
X19125920Y04009870D01*
X19129860Y04057500D01*
X19125920Y04105120D01*
X19114110Y04147460D01*
X19098360Y04179210D01*
X19074740Y04205670D01*
X19043250Y04216250D01*
G01X16480750Y04639580D02*
X16575230Y04639580D01*
G01X16524050Y04708380D02*
X16524050Y04570780D01*
G01X16838950Y04851250D02*
X16807450Y04840670D01*
X16783840Y04814210D01*
X16768090Y04782460D01*
X16756280Y04740120D01*
X16752340Y04692500D01*
X16756280Y04644870D01*
X16768090Y04602540D01*
X16783840Y04570780D01*
X16807450Y04544330D01*
X16838950Y04533750D01*
X16870440Y04544330D01*
X16894060Y04570780D01*
X16909810Y04602540D01*
X16921620Y04644870D01*
X16925560Y04692500D01*
X16921620Y04740120D01*
X16909810Y04782460D01*
X16894060Y04814210D01*
X16870440Y04840670D01*
X16838950Y04851250D01*
G01X17153850Y04523170D02*
X17145970Y04528460D01*
X17145970Y04539040D01*
X17153850Y04544330D01*
X17161730Y04539040D01*
X17161730Y04528460D01*
X17153850Y04523170D01*
G01X17468750Y04851250D02*
X17437250Y04840670D01*
X17413640Y04814210D01*
X17397890Y04782460D01*
X17386080Y04740120D01*
X17382140Y04692500D01*
X17386080Y04644870D01*
X17397890Y04602540D01*
X17413640Y04570780D01*
X17437250Y04544330D01*
X17468750Y04533750D01*
X17500240Y04544330D01*
X17523860Y04570780D01*
X17539610Y04602540D01*
X17551420Y04644870D01*
X17555360Y04692500D01*
X17551420Y04740120D01*
X17539610Y04782460D01*
X17523860Y04814210D01*
X17500240Y04840670D01*
X17468750Y04851250D01*
G01X17712790Y04523170D02*
X17854510Y04851250D01*
G01X18047370Y04639580D02*
X18149730Y04639580D01*
G01X18413450Y04851250D02*
X18381950Y04840670D01*
X18358340Y04814210D01*
X18342590Y04782460D01*
X18330780Y04740120D01*
X18326840Y04692500D01*
X18330780Y04644870D01*
X18342590Y04602540D01*
X18358340Y04570780D01*
X18381950Y04544330D01*
X18413450Y04533750D01*
X18444940Y04544330D01*
X18468560Y04570780D01*
X18484310Y04602540D01*
X18496120Y04644870D01*
X18500060Y04692500D01*
X18496120Y04740120D01*
X18484310Y04782460D01*
X18468560Y04814210D01*
X18444940Y04840670D01*
X18413450Y04851250D01*
G01X18728350Y04523170D02*
X18720470Y04528460D01*
X18720470Y04539040D01*
X18728350Y04544330D01*
X18736230Y04539040D01*
X18736230Y04528460D01*
X18728350Y04523170D01*
G01X19043250Y04851250D02*
X19011750Y04840670D01*
X18988140Y04814210D01*
X18972390Y04782460D01*
X18960580Y04740120D01*
X18956640Y04692500D01*
X18960580Y04644870D01*
X18972390Y04602540D01*
X18988140Y04570780D01*
X19011750Y04544330D01*
X19043250Y04533750D01*
X19074740Y04544330D01*
X19098360Y04570780D01*
X19114110Y04602540D01*
X19125920Y04644870D01*
X19129860Y04692500D01*
X19125920Y04740120D01*
X19114110Y04782460D01*
X19098360Y04814210D01*
X19074740Y04840670D01*
X19043250Y04851250D01*
G01X16480750Y05274580D02*
X16575230Y05274580D01*
G01X16524050Y05343380D02*
X16524050Y05205780D01*
G01X16838950Y05486250D02*
X16807450Y05475670D01*
X16783840Y05449210D01*
X16768090Y05417460D01*
X16756280Y05375120D01*
X16752340Y05327500D01*
X16756280Y05279870D01*
X16768090Y05237540D01*
X16783840Y05205780D01*
X16807450Y05179330D01*
X16838950Y05168750D01*
X16870440Y05179330D01*
X16894060Y05205780D01*
X16909810Y05237540D01*
X16921620Y05279870D01*
X16925560Y05327500D01*
X16921620Y05375120D01*
X16909810Y05417460D01*
X16894060Y05449210D01*
X16870440Y05475670D01*
X16838950Y05486250D01*
G01X17153850Y05158170D02*
X17145970Y05163460D01*
X17145970Y05174040D01*
X17153850Y05179330D01*
X17161730Y05174040D01*
X17161730Y05163460D01*
X17153850Y05158170D01*
G01X17468750Y05486250D02*
X17437250Y05475670D01*
X17413640Y05449210D01*
X17397890Y05417460D01*
X17386080Y05375120D01*
X17382140Y05327500D01*
X17386080Y05279870D01*
X17397890Y05237540D01*
X17413640Y05205780D01*
X17437250Y05179330D01*
X17468750Y05168750D01*
X17500240Y05179330D01*
X17523860Y05205780D01*
X17539610Y05237540D01*
X17551420Y05279870D01*
X17555360Y05327500D01*
X17551420Y05375120D01*
X17539610Y05417460D01*
X17523860Y05449210D01*
X17500240Y05475670D01*
X17468750Y05486250D01*
G01X17712790Y05158170D02*
X17854510Y05486250D01*
G01X18047370Y05274580D02*
X18149730Y05274580D01*
G01X18413450Y05486250D02*
X18381950Y05475670D01*
X18358340Y05449210D01*
X18342590Y05417460D01*
X18330780Y05375120D01*
X18326840Y05327500D01*
X18330780Y05279870D01*
X18342590Y05237540D01*
X18358340Y05205780D01*
X18381950Y05179330D01*
X18413450Y05168750D01*
X18444940Y05179330D01*
X18468560Y05205780D01*
X18484310Y05237540D01*
X18496120Y05279870D01*
X18500060Y05327500D01*
X18496120Y05375120D01*
X18484310Y05417460D01*
X18468560Y05449210D01*
X18444940Y05475670D01*
X18413450Y05486250D01*
G01X18728350Y05158170D02*
X18720470Y05163460D01*
X18720470Y05174040D01*
X18728350Y05179330D01*
X18736230Y05174040D01*
X18736230Y05163460D01*
X18728350Y05158170D01*
G01X19043250Y05486250D02*
X19011750Y05475670D01*
X18988140Y05449210D01*
X18972390Y05417460D01*
X18960580Y05375120D01*
X18956640Y05327500D01*
X18960580Y05279870D01*
X18972390Y05237540D01*
X18988140Y05205780D01*
X19011750Y05179330D01*
X19043250Y05168750D01*
X19074740Y05179330D01*
X19098360Y05205780D01*
X19114110Y05237540D01*
X19125920Y05279870D01*
X19129860Y05327500D01*
X19125920Y05375120D01*
X19114110Y05417460D01*
X19098360Y05449210D01*
X19074740Y05475670D01*
X19043250Y05486250D01*
G01X16480750Y05909580D02*
X16575230Y05909580D01*
G01X16524050Y05978380D02*
X16524050Y05840780D01*
G01X16838950Y06121250D02*
X16807450Y06110670D01*
X16783840Y06084210D01*
X16768090Y06052460D01*
X16756280Y06010120D01*
X16752340Y05962500D01*
X16756280Y05914870D01*
X16768090Y05872540D01*
X16783840Y05840780D01*
X16807450Y05814330D01*
X16838950Y05803750D01*
X16870440Y05814330D01*
X16894060Y05840780D01*
X16909810Y05872540D01*
X16921620Y05914870D01*
X16925560Y05962500D01*
X16921620Y06010120D01*
X16909810Y06052460D01*
X16894060Y06084210D01*
X16870440Y06110670D01*
X16838950Y06121250D01*
G01X17153850Y05793170D02*
X17145970Y05798460D01*
X17145970Y05809040D01*
X17153850Y05814330D01*
X17161730Y05809040D01*
X17161730Y05798460D01*
X17153850Y05793170D01*
G01X17468750Y05803750D02*
X17468750Y06121250D01*
X17421510Y06057750D01*
G01X17421510Y05803750D02*
X17515980Y05803750D01*
G01X17712790Y05793170D02*
X17854510Y06121250D01*
G01X18047370Y05909580D02*
X18149730Y05909580D01*
G01X18413450Y06121250D02*
X18381950Y06110670D01*
X18358340Y06084210D01*
X18342590Y06052460D01*
X18330780Y06010120D01*
X18326840Y05962500D01*
X18330780Y05914870D01*
X18342590Y05872540D01*
X18358340Y05840780D01*
X18381950Y05814330D01*
X18413450Y05803750D01*
X18444940Y05814330D01*
X18468560Y05840780D01*
X18484310Y05872540D01*
X18496120Y05914870D01*
X18500060Y05962500D01*
X18496120Y06010120D01*
X18484310Y06052460D01*
X18468560Y06084210D01*
X18444940Y06110670D01*
X18413450Y06121250D01*
G01X18728350Y05793170D02*
X18720470Y05798460D01*
X18720470Y05809040D01*
X18728350Y05814330D01*
X18736230Y05809040D01*
X18736230Y05798460D01*
X18728350Y05793170D01*
G01X19043250Y05803750D02*
X19043250Y06121250D01*
X18996010Y06057750D01*
G01X18996010Y05803750D02*
X19090480Y05803750D01*
G01X20342200Y06915000D02*
X20342200Y02470000D01*
G01X21090070Y02628750D02*
X21090070Y02946250D01*
X21184550Y02946250D01*
X21216040Y02930370D01*
X21239660Y02893330D01*
X21247530Y02851000D01*
X21239660Y02808670D01*
X21219980Y02776910D01*
X21184550Y02761030D01*
X21090070Y02761030D01*
G01X21404970Y02946250D02*
X21404970Y02628750D01*
X21562430Y02628750D01*
G01X21700180Y02628750D02*
X21798600Y02946250D01*
X21897020Y02628750D01*
G01X21861580Y02739870D02*
X21735610Y02739870D01*
G01X22113500Y02946250D02*
X22113500Y02628750D01*
G01X22022960Y02946250D02*
X22204040Y02946250D01*
G01X22507130Y02628750D02*
X22349670Y02628750D01*
X22349670Y02946250D01*
X22507130Y02946250D01*
G01X22444150Y02792800D02*
X22349670Y02792800D01*
G01X22656690Y02628750D02*
X22656690Y02946250D01*
X22735420Y02946250D01*
X22766920Y02930370D01*
X22790540Y02909210D01*
X22810230Y02877460D01*
X22825970Y02840410D01*
X22829910Y02787500D01*
X22825970Y02734580D01*
X22810230Y02697540D01*
X22790540Y02665780D01*
X22766920Y02644620D01*
X22735420Y02628750D01*
X22656690Y02628750D01*
G01X21090070Y03263750D02*
X21090070Y03581250D01*
X21184550Y03581250D01*
X21216040Y03565370D01*
X21239660Y03528330D01*
X21247530Y03486000D01*
X21239660Y03443670D01*
X21219980Y03411910D01*
X21184550Y03396030D01*
X21090070Y03396030D01*
G01X21404970Y03581250D02*
X21404970Y03263750D01*
X21562430Y03263750D01*
G01X21700180Y03263750D02*
X21798600Y03581250D01*
X21897020Y03263750D01*
G01X21861580Y03374870D02*
X21735610Y03374870D01*
G01X22113500Y03581250D02*
X22113500Y03263750D01*
G01X22022960Y03581250D02*
X22204040Y03581250D01*
G01X22507130Y03263750D02*
X22349670Y03263750D01*
X22349670Y03581250D01*
X22507130Y03581250D01*
G01X22444150Y03427800D02*
X22349670Y03427800D01*
G01X22656690Y03263750D02*
X22656690Y03581250D01*
X22735420Y03581250D01*
X22766920Y03565370D01*
X22790540Y03544210D01*
X22810230Y03512460D01*
X22825970Y03475410D01*
X22829910Y03422500D01*
X22825970Y03369580D01*
X22810230Y03332540D01*
X22790540Y03300780D01*
X22766920Y03279620D01*
X22735420Y03263750D01*
X22656690Y03263750D01*
G01X21090070Y03898750D02*
X21090070Y04216250D01*
X21184550Y04216250D01*
X21216040Y04200370D01*
X21239660Y04163330D01*
X21247530Y04121000D01*
X21239660Y04078670D01*
X21219980Y04046910D01*
X21184550Y04031030D01*
X21090070Y04031030D01*
G01X21404970Y04216250D02*
X21404970Y03898750D01*
X21562430Y03898750D01*
G01X21700180Y03898750D02*
X21798600Y04216250D01*
X21897020Y03898750D01*
G01X21861580Y04009870D02*
X21735610Y04009870D01*
G01X22113500Y04216250D02*
X22113500Y03898750D01*
G01X22022960Y04216250D02*
X22204040Y04216250D01*
G01X22507130Y03898750D02*
X22349670Y03898750D01*
X22349670Y04216250D01*
X22507130Y04216250D01*
G01X22444150Y04062800D02*
X22349670Y04062800D01*
G01X22656690Y03898750D02*
X22656690Y04216250D01*
X22735420Y04216250D01*
X22766920Y04200370D01*
X22790540Y04179210D01*
X22810230Y04147460D01*
X22825970Y04110410D01*
X22829910Y04057500D01*
X22825970Y04004580D01*
X22810230Y03967540D01*
X22790540Y03935780D01*
X22766920Y03914620D01*
X22735420Y03898750D01*
X22656690Y03898750D01*
G01X21090070Y04533750D02*
X21090070Y04851250D01*
X21184550Y04851250D01*
X21216040Y04835370D01*
X21239660Y04798330D01*
X21247530Y04756000D01*
X21239660Y04713670D01*
X21219980Y04681910D01*
X21184550Y04666030D01*
X21090070Y04666030D01*
G01X21404970Y04851250D02*
X21404970Y04533750D01*
X21562430Y04533750D01*
G01X21700180Y04533750D02*
X21798600Y04851250D01*
X21897020Y04533750D01*
G01X21861580Y04644870D02*
X21735610Y04644870D01*
G01X22113500Y04851250D02*
X22113500Y04533750D01*
G01X22022960Y04851250D02*
X22204040Y04851250D01*
G01X22507130Y04533750D02*
X22349670Y04533750D01*
X22349670Y04851250D01*
X22507130Y04851250D01*
G01X22444150Y04697800D02*
X22349670Y04697800D01*
G01X22656690Y04533750D02*
X22656690Y04851250D01*
X22735420Y04851250D01*
X22766920Y04835370D01*
X22790540Y04814210D01*
X22810230Y04782460D01*
X22825970Y04745410D01*
X22829910Y04692500D01*
X22825970Y04639580D01*
X22810230Y04602540D01*
X22790540Y04570780D01*
X22766920Y04549620D01*
X22735420Y04533750D01*
X22656690Y04533750D01*
G01X21090070Y05168750D02*
X21090070Y05486250D01*
X21184550Y05486250D01*
X21216040Y05470370D01*
X21239660Y05433330D01*
X21247530Y05391000D01*
X21239660Y05348670D01*
X21219980Y05316910D01*
X21184550Y05301030D01*
X21090070Y05301030D01*
G01X21404970Y05486250D02*
X21404970Y05168750D01*
X21562430Y05168750D01*
G01X21700180Y05168750D02*
X21798600Y05486250D01*
X21897020Y05168750D01*
G01X21861580Y05279870D02*
X21735610Y05279870D01*
G01X22113500Y05486250D02*
X22113500Y05168750D01*
G01X22022960Y05486250D02*
X22204040Y05486250D01*
G01X22507130Y05168750D02*
X22349670Y05168750D01*
X22349670Y05486250D01*
X22507130Y05486250D01*
G01X22444150Y05332800D02*
X22349670Y05332800D01*
G01X22656690Y05168750D02*
X22656690Y05486250D01*
X22735420Y05486250D01*
X22766920Y05470370D01*
X22790540Y05449210D01*
X22810230Y05417460D01*
X22825970Y05380410D01*
X22829910Y05327500D01*
X22825970Y05274580D01*
X22810230Y05237540D01*
X22790540Y05205780D01*
X22766920Y05184620D01*
X22735420Y05168750D01*
X22656690Y05168750D01*
G01X21090070Y05803750D02*
X21090070Y06121250D01*
X21184550Y06121250D01*
X21216040Y06105370D01*
X21239660Y06068330D01*
X21247530Y06026000D01*
X21239660Y05983670D01*
X21219980Y05951910D01*
X21184550Y05936030D01*
X21090070Y05936030D01*
G01X21404970Y06121250D02*
X21404970Y05803750D01*
X21562430Y05803750D01*
G01X21700180Y05803750D02*
X21798600Y06121250D01*
X21897020Y05803750D01*
G01X21861580Y05914870D02*
X21735610Y05914870D01*
G01X22113500Y06121250D02*
X22113500Y05803750D01*
G01X22022960Y06121250D02*
X22204040Y06121250D01*
G01X22507130Y05803750D02*
X22349670Y05803750D01*
X22349670Y06121250D01*
X22507130Y06121250D01*
G01X22444150Y05967800D02*
X22349670Y05967800D01*
G01X22656690Y05803750D02*
X22656690Y06121250D01*
X22735420Y06121250D01*
X22766920Y06105370D01*
X22790540Y06084210D01*
X22810230Y06052460D01*
X22825970Y06015410D01*
X22829910Y05962500D01*
X22825970Y05909580D01*
X22810230Y05872540D01*
X22790540Y05840780D01*
X22766920Y05819620D01*
X22735420Y05803750D01*
X22656690Y05803750D01*
G01X21090070Y06438750D02*
X21090070Y06756250D01*
X21184550Y06756250D01*
X21216040Y06740370D01*
X21239660Y06703330D01*
X21247530Y06661000D01*
X21239660Y06618670D01*
X21219980Y06586910D01*
X21184550Y06571030D01*
X21090070Y06571030D01*
G01X21404970Y06756250D02*
X21404970Y06438750D01*
X21562430Y06438750D01*
G01X21700180Y06438750D02*
X21798600Y06756250D01*
X21897020Y06438750D01*
G01X21861580Y06549870D02*
X21735610Y06549870D01*
G01X22113500Y06756250D02*
X22113500Y06438750D01*
G01X22022960Y06756250D02*
X22204040Y06756250D01*
G01X22507130Y06438750D02*
X22349670Y06438750D01*
X22349670Y06756250D01*
X22507130Y06756250D01*
G01X22444150Y06602800D02*
X22349670Y06602800D01*
G01X22656690Y06438750D02*
X22656690Y06756250D01*
X22735420Y06756250D01*
X22766920Y06740370D01*
X22790540Y06719210D01*
X22810230Y06687460D01*
X22825970Y06650410D01*
X22829910Y06597500D01*
X22825970Y06544580D01*
X22810230Y06507540D01*
X22790540Y06475780D01*
X22766920Y06454620D01*
X22735420Y06438750D01*
X22656690Y06438750D01*
G01X23569900Y06915000D02*
X23569900Y02470000D01*
G01X24239050Y05168750D02*
X24239050Y05486250D01*
X24191810Y05422750D01*
G01X24191810Y05168750D02*
X24286280Y05168750D01*
G01X24546070Y05168750D02*
X24553950Y05237540D01*
X24565760Y05295740D01*
X24581500Y05348670D01*
X24601190Y05406870D01*
X24632680Y05486250D01*
X24475220Y05486250D01*
G01X24794050Y05301030D02*
X24821610Y05338090D01*
X24845230Y05359250D01*
X24876730Y05369830D01*
X24904280Y05359250D01*
X24923960Y05338090D01*
X24939710Y05306330D01*
X24943650Y05269290D01*
X24939710Y05237540D01*
X24923960Y05205780D01*
X24900340Y05179330D01*
X24872790Y05168750D01*
X24841300Y05179330D01*
X24813740Y05211070D01*
X24797990Y05258710D01*
X24794050Y05311620D01*
X24801920Y05380410D01*
X24813740Y05417460D01*
X24833420Y05454500D01*
X24860970Y05480960D01*
X24888530Y05486250D01*
X24916090Y05475670D01*
X24935780Y05449210D01*
G01X24239050Y06438750D02*
X24207550Y06444040D01*
X24180000Y06465200D01*
X24156380Y06496960D01*
X24140630Y06534000D01*
X24132760Y06576330D01*
X24132760Y06618670D01*
X24140630Y06661000D01*
X24156380Y06698040D01*
X24180000Y06729790D01*
X24207550Y06750960D01*
X24239050Y06756250D01*
X24270540Y06750960D01*
X24298100Y06729790D01*
X24321720Y06698040D01*
X24337470Y06661000D01*
X24345340Y06618670D01*
X24345340Y06576330D01*
X24337470Y06534000D01*
X24321720Y06496960D01*
X24298100Y06465200D01*
X24270540Y06444040D01*
X24239050Y06438750D01*
G01X24270540Y06523420D02*
X24317780Y06438750D01*
G01X24553950Y06756250D02*
X24553950Y06438750D01*
G01X24463410Y06756250D02*
X24644490Y06756250D01*
G01X24868850Y06438750D02*
X24868850Y06581620D01*
X24790120Y06756250D01*
G01X24947580Y06756250D02*
X24868850Y06581620D01*
G01X24553950Y02628750D02*
X24553950Y02946250D01*
X24506710Y02882750D01*
G01X24506710Y02628750D02*
X24601180Y02628750D01*
G01X24467340Y03327250D02*
X24490960Y03290200D01*
X24522450Y03269040D01*
X24557890Y03263750D01*
X24589380Y03269040D01*
X24620880Y03295490D01*
X24640560Y03327250D01*
X24644490Y03359000D01*
X24636620Y03396030D01*
X24609060Y03422500D01*
X24581500Y03433090D01*
X24546070Y03433090D01*
G01X24581500Y03433090D02*
X24605130Y03448960D01*
X24624810Y03475410D01*
X24632680Y03507160D01*
X24624810Y03538920D01*
X24605130Y03565370D01*
X24569700Y03581250D01*
X24534270Y03575960D01*
X24498840Y03554790D01*
G01X24553950Y03898750D02*
X24581500Y03904040D01*
X24613000Y03919910D01*
X24632680Y03946360D01*
X24640560Y03983420D01*
X24632680Y04020450D01*
X24609060Y04052200D01*
X24573630Y04068090D01*
X24534270Y04068090D01*
X24510650Y04078670D01*
X24490960Y04105120D01*
X24483090Y04142160D01*
X24494900Y04179210D01*
X24522450Y04205670D01*
X24553950Y04216250D01*
X24585440Y04205670D01*
X24613000Y04179210D01*
X24624810Y04142160D01*
X24616930Y04105120D01*
X24597250Y04078670D01*
X24573630Y04068090D01*
X24534270Y04068090D01*
X24498840Y04052200D01*
X24475220Y04020450D01*
X24467340Y03983420D01*
X24475220Y03946360D01*
X24494900Y03919910D01*
X24526400Y03904040D01*
X24553950Y03898750D01*
G01X24443740Y04533750D02*
X24443740Y04851250D01*
X24298080Y04623710D01*
X24494920Y04623710D01*
G01X24711400Y04851250D02*
X24679900Y04840670D01*
X24656290Y04814210D01*
X24640540Y04782460D01*
X24628730Y04740120D01*
X24624790Y04692500D01*
X24628730Y04644870D01*
X24640540Y04602540D01*
X24656290Y04570780D01*
X24679900Y04544330D01*
X24711400Y04533750D01*
X24742890Y04544330D01*
X24766510Y04570780D01*
X24782260Y04602540D01*
X24794070Y04644870D01*
X24798010Y04692500D01*
X24794070Y04740120D01*
X24782260Y04782460D01*
X24766510Y04814210D01*
X24742890Y04840670D01*
X24711400Y04851250D01*
G01X24396500Y05803750D02*
X24396500Y06121250D01*
X24349260Y06057750D01*
G01X24349260Y05803750D02*
X24443730Y05803750D01*
G01X24636600Y06068330D02*
X24660220Y06100080D01*
X24687780Y06115960D01*
X24719280Y06121250D01*
X24758640Y06110670D01*
X24786200Y06084210D01*
X24794070Y06052460D01*
X24790130Y06020700D01*
X24774380Y05994250D01*
X24695650Y05941330D01*
X24660220Y05904290D01*
X24636600Y05851360D01*
X24628730Y05803750D01*
X24794070Y05803750D01*
M02*
