M48
METRIC
T01C.2
T02C.762
T03C.8636
T04C.9398
T05C1.397
T06C3.81
;LEADER: 12 
;HEADER: 
;CODE  : ASCII 
;FILE  : sensor_board_routing-1-2.drl for board C:/Users/markl/documents/Sem7/smartsystems/PinToWin/schematics/sensor_matrix/allegro/#Taaabeq15000.tmp ... layers TOP and BOTTOM
;T01 Holesize 1. = 0.200000 Tolerance = +0.100000/-0.100000 PLATED MM Quantity = 12
;T02 Holesize 2. = 0.762000 Tolerance = +0.000000/-0.000000 PLATED MM Quantity = 176
;T03 Holesize 3. = 0.863600 Tolerance = +0.000000/-0.000000 PLATED MM Quantity = 40
;T04 Holesize 4. = 0.939800 Tolerance = +0.000000/-0.000000 PLATED MM Quantity = 8
;T05 Holesize 5. = 1.397000 Tolerance = +0.000000/-0.000000 PLATED MM Quantity = 3
;T06 Holesize 6. = 3.810000 Tolerance = +0.000000/-0.000000 PLATED MM Quantity = 1
%
G90
T01
X-04500000Y-06100000
X-04400000Y-05200000
X-03600000Y-04200000
X-03500000Y-03200000
X-03400000Y-02200000
X-02600000Y-01200000
X-02500000Y-00200000
X-02400000Y00800000
X-05300000Y03300000
X-05000000Y03600000
X-05000000Y03700000
X02658000Y02358000
T02
X04160360Y-06000000
X03820000Y-06000000
X03160360Y-06000000
X02820000Y-06000000
X02160360Y-06000000
X01820000Y-06000000
X01160360Y-06000000
X00820000Y-06000000
X00160360Y-06000000
X-00180000Y-06000000
X-00839640Y-06000000
X-01180000Y-06000000
X-01839640Y-06000000
X-02180000Y-06000000
X-02839640Y-06000000
X-03180000Y-06000000
X-03839640Y-06000000
X-04180000Y-06000000
X-04839640Y-06000000
X-05180000Y-06000000
X-05839640Y-06000000
X-06180000Y-06000000
X-06180000Y-05000000
X-05839640Y-05000000
X-05180000Y-05000000
X-04839640Y-05000000
X-04180000Y-05000000
X-03839640Y-05000000
X-03180000Y-05000000
X-02839640Y-05000000
X-02180000Y-05000000
X-01839640Y-05000000
X-01180000Y-05000000
X-00839640Y-05000000
X-00180000Y-05000000
X00160360Y-05000000
X00820000Y-05000000
X01160360Y-05000000
X01820000Y-05000000
X02160360Y-05000000
X02820000Y-05000000
X03160360Y-05000000
X03820000Y-05000000
X04160360Y-05000000
X04160360Y-04000000
X03820000Y-04000000
X03160360Y-04000000
X02820000Y-04000000
X02160360Y-04000000
X01820000Y-04000000
X01160360Y-04000000
X00820000Y-04000000
X00160360Y-04000000
X-00180000Y-04000000
X-00839640Y-04000000
X-01180000Y-04000000
X-01839640Y-04000000
X-02180000Y-04000000
X-02839640Y-04000000
X-03180000Y-04000000
X-03839640Y-04000000
X-04180000Y-04000000
X-04839640Y-04000000
X-05180000Y-04000000
X-05839640Y-04000000
X-06180000Y-04000000
X-06180000Y-03000000
X-05839640Y-03000000
X-05180000Y-03000000
X-04839640Y-03000000
X-04180000Y-03000000
X-03839640Y-03000000
X-03180000Y-03000000
X-02839640Y-03000000
X-02180000Y-03000000
X-01839640Y-03000000
X-01180000Y-03000000
X-00839640Y-03000000
X-00180000Y-03000000
X00160360Y-03000000
X00820000Y-03000000
X01160360Y-03000000
X01820000Y-03000000
X02160360Y-03000000
X02820000Y-03000000
X03160360Y-03000000
X03820000Y-03000000
X04160360Y-03000000
X04160360Y-02000000
X03820000Y-02000000
X03160360Y-02000000
X02820000Y-02000000
X02160360Y-02000000
X01820000Y-02000000
X01160360Y-02000000
X00820000Y-02000000
X00160360Y-02000000
X-00180000Y-02000000
X-00839640Y-02000000
X-01180000Y-02000000
X-01839640Y-02000000
X-02180000Y-02000000
X-02839640Y-02000000
X-03180000Y-02000000
X-03839640Y-02000000
X-04180000Y-02000000
X-04839640Y-02000000
X-05180000Y-02000000
X-05839640Y-02000000
X-06180000Y-02000000
X-06180000Y-01000000
X-05839640Y-01000000
X-05180000Y-01000000
X-04839640Y-01000000
X-04180000Y-01000000
X-03839640Y-01000000
X-03180000Y-01000000
X-02839640Y-01000000
X-02180000Y-01000000
X-01839640Y-01000000
X-01180000Y-01000000
X-00839640Y-01000000
X-00180000Y-01000000
X00160360Y-01000000
X00820000Y-01000000
X01160360Y-01000000
X01820000Y-01000000
X02160360Y-01000000
X02820000Y-01000000
X03160360Y-01000000
X03820000Y-01000000
X04160360Y-01000000
X04160360Y00000000
X03820000Y00000000
X03160360Y00000000
X02820000Y00000000
X02160360Y00000000
X01820000Y00000000
X01160360Y00000000
X00820000Y00000000
X00160360Y00000000
X-00180000Y00000000
X-00839640Y00000000
X-01180000Y00000000
X-01839640Y00000000
X-02180000Y00000000
X-02839640Y00000000
X-03180000Y00000000
X-03839640Y00000000
X-04180000Y00000000
X-04839640Y00000000
X-05180000Y00000000
X-05839640Y00000000
X-06180000Y00000000
X-06180000Y01000000
X-05839640Y01000000
X-05180000Y01000000
X-04839640Y01000000
X-04180000Y01000000
X-03839640Y01000000
X-03180000Y01000000
X-02839640Y01000000
X-02180000Y01000000
X-01839640Y01000000
X-01180000Y01000000
X-00839640Y01000000
X-00180000Y01000000
X00160360Y01000000
X00820000Y01000000
X01160360Y01000000
X01820000Y01000000
X02160360Y01000000
X02820000Y01000000
X03160360Y01000000
X03820000Y01000000
X04160360Y01000000
T03
X-01387000Y01938000
R19X-00254000
X-06213000Y03462000
R19X00254000
T04
X03896000Y03050000
X04150000Y03050000
X04170000Y03750000
R05X-00254000
T05
X02500000Y01850000
R02Y00254000
T06
X03960500Y02104000
M30
