M48
METRIC
T01C.2
T02C.762
T03C.7874
T04C.8636
T05C.889
T06C.9398
T07C3.5
;LEADER: 12 
;HEADER: 
;CODE  : ASCII 
;FILE  : sensor_board_routing-1-2.drl for board C:/Users/markl/Documents/Sem7/SmartSystems/PinToWin/schematics/sensor_matrix/allegro/#Taaaaar12320.tmp ... layers TOP and BOTTOM
;T01 Holesize 1. = 0.200000 Tolerance = +0.100000/-0.100000 PLATED MM Quantity = 18
;T02 Holesize 2. = 0.762000 Tolerance = +0.000000/-0.000000 PLATED MM Quantity = 88
;T03 Holesize 3. = 0.787400 Tolerance = +0.000000/-0.000000 PLATED MM Quantity = 2
;T04 Holesize 4. = 0.863600 Tolerance = +0.000000/-0.000000 PLATED MM Quantity = 40
;T05 Holesize 5. = 0.889000 Tolerance = +0.000000/-0.000000 PLATED MM Quantity = 88
;T06 Holesize 6. = 0.939800 Tolerance = +0.000000/-0.000000 PLATED MM Quantity = 11
%
G90
T01
X-02650000Y-06100000
X-02575000Y-05225000
X-02500000Y-04225000
X-02425000Y-03225000
X-01625000Y-02175000
X-01550000Y-01225000
X-01475000Y-00175000
X-01400000Y00800000
X01475000Y01550000
X02150000Y02150000
X01925000Y02350000
X01650000Y02575000
X01475000Y01950000
X01050000Y01925000
X00000000Y03300000
X-00250000Y03300000
X-04350000Y01800000
X-04600000Y01800000
T02
X04160360Y-06000000
R10X-01000000
X-05839640Y-05000000
R10X01000000
X04160360Y-04000000
R10X-01000000
X-05839640Y-03000000
R10X01000000
X04160360Y-02000000
R10X-01000000
X-05839640Y-01000000
R10X01000000
X04160360Y00000000
R10X-01000000
X-05839640Y01000000
R10X01000000
T03
X01250000Y01742000
X01250000Y02250000
T04
X00113000Y01598000
R19X-00254000
X-04713000Y03122000
R19X00254000
T05
X03820000Y-06000000
R10X-01000000
X-06180000Y-05000000
R10X01000000
X03820000Y-04000000
R10X-01000000
X-06180000Y-03000000
R10X01000000
X03820000Y-02000000
R10X-01000000
X-06180000Y-01000000
R10X01000000
X03820000Y00000000
R10X-01000000
X-06180000Y01000000
R10X01000000
T06
X01260000Y03100000
R02X00254000
X02280000Y03100000
X02534000Y03100000
X02100000Y03800000
R05X-00254000
M30
