G04 ================== begin FILE IDENTIFICATION RECORD ==================*
G04 Layout Name:  sensor_board_routing.brd*
G04 Film Name:    Silkscreen_bot*
G04 File Format:  Gerber RS274X*
G04 File Origin:  Cadence Allegro 17.4-S017*
G04 Origin Date:  Thu Sep 30 11:32:55 2021*
G04 *
G04 Layer:  PACKAGE GEOMETRY/SILKSCREEN_BOTTOM*
G04 Layer:  BOARD GEOMETRY/SILKSCREEN_BOTTOM*
G04 Layer:  REF DES/SILKSCREEN_BOTTOM*
G04 *
G04 Offset:    (0.0000 0.0000)*
G04 Mirror:    No*
G04 Mode:      Positive*
G04 Rotation:  0*
G04 FullContactRelief:  No*
G04 UndefLineWidth:     0.2500*
G04 ================== end FILE IDENTIFICATION RECORD ====================*
%FSAX35Y35*MOMM*%
%IR0*IPPOS*OFA0.00000B0.00000*MIA0B0*SFA1.00000B1.00000*%
%ADD10C,.2032*%
%ADD11C,.1524*%
%ADD12C,.25*%
G75*
%LPD*%
G75*
G36*
G01X-04900000Y02060000D02*
X-04800000Y02060000D01*
X-04800000Y01460000D01*
X00200000Y01460000D01*
X00200000Y01360000D01*
X-04900000Y01360000D01*
X-04900000Y02060000D01*
G37*
G36*
G01X-04800000Y02660000D02*
X-04400000Y02660000D01*
X-04400000Y02160000D01*
X-04800000Y02160000D01*
X-04800000Y02660000D01*
G37*
G36*
G01X-04900000Y03360000D02*
X00200000Y03360000D01*
X00200000Y03260000D01*
X-04800000Y03260000D01*
X-04800000Y02760000D01*
X-04900000Y02760000D01*
X-04900000Y03360000D01*
G37*
G36*
G01X00200000Y02960000D02*
X00200000Y01760000D01*
X00300000Y01760000D01*
X00400000Y01860000D01*
X00400000Y02860000D01*
X00300000Y02960000D01*
X00200000Y02960000D01*
G37*
G54D10*
G01X01250000Y02377000D02*
G03X00869000Y01996000I0J-00381000D01*
G03X01250000Y01615000I00381000J0D01*
G03X01631000Y01996000I0J00381000D01*
G03X01250000Y02377000I-00381000J0D01*
G01X01895000Y02973000D02*
X01133000Y02973000D01*
G01X01133000Y02973000D02*
X01133000Y03227000D01*
G01X01133000Y03227000D02*
X01895000Y03227000D01*
G01X02227000Y03673000D02*
X00703000Y03673000D01*
G01X00703000Y03673000D02*
X00703000Y03927000D01*
G01X00703000Y03927000D02*
X02227000Y03927000D01*
G01X01895000Y03227000D02*
X01895000Y02973000D01*
G01X02661000Y02973000D02*
X02153000Y02973000D01*
G01X02153000Y02973000D02*
X02153000Y03227000D01*
G01X02227000Y03927000D02*
X02227000Y03673000D01*
G01X02153000Y03227000D02*
X02661000Y03227000D01*
G01X02661000Y03227000D02*
X02661000Y02973000D01*
G54D11*
G01X-06095200Y-06136230D02*
X-06095200Y-06119800D01*
G01X-06095200Y-06280200D02*
X-06095200Y-06263770D01*
G01X-05784800Y-06280200D02*
X-06095200Y-06280200D01*
G01X-06095200Y-06119800D02*
X-05784800Y-06119800D01*
G01X-06095200Y-05280200D02*
X-06095200Y-05263770D01*
G01X-05784800Y-05280200D02*
X-06095200Y-05280200D01*
G01X-06095200Y-05136230D02*
X-06095200Y-05119800D01*
G01X-06095200Y-05119800D02*
X-05784800Y-05119800D01*
G01X-06095200Y-04136230D02*
X-06095200Y-04119800D01*
G01X-06095200Y-04280200D02*
X-06095200Y-04263770D01*
G01X-05784800Y-04280200D02*
X-06095200Y-04280200D01*
G01X-06095200Y-04119800D02*
X-05784800Y-04119800D01*
G01X-06095200Y-03136230D02*
X-06095200Y-03119800D01*
G01X-06095200Y-03280200D02*
X-06095200Y-03263770D01*
G01X-05784800Y-03280200D02*
X-06095200Y-03280200D01*
G01X-06095200Y-03119800D02*
X-05784800Y-03119800D01*
G01X-06095200Y-02280200D02*
X-06095200Y-02263770D01*
G01X-05784800Y-02280200D02*
X-06095200Y-02280200D01*
G01X-06095200Y-02136230D02*
X-06095200Y-02119800D01*
G01X-06095200Y-02119800D02*
X-05784800Y-02119800D01*
G01X-06095200Y-01136230D02*
X-06095200Y-01119800D01*
G01X-06095200Y-01280200D02*
X-06095200Y-01263770D01*
G01X-05784800Y-01280200D02*
X-06095200Y-01280200D01*
G01X-06095200Y-01119800D02*
X-05784800Y-01119800D01*
G01X-06095200Y-00136230D02*
X-06095200Y-00119800D01*
G01X-06095200Y-00280200D02*
X-06095200Y-00263770D01*
G01X-05784800Y-00280200D02*
X-06095200Y-00280200D01*
G01X-06095200Y-00119800D02*
X-05784800Y-00119800D01*
G01X-06095200Y00719800D02*
X-06095200Y00736230D01*
G01X-05784800Y00719800D02*
X-06095200Y00719800D01*
G01X-06095200Y00863770D02*
X-06095200Y00880200D01*
G01X-06095200Y00880200D02*
X-05784800Y00880200D01*
G01X-05784800Y-06263770D02*
X-05784800Y-06280200D01*
G01X-05784800Y-06119800D02*
X-05784800Y-06136230D01*
G01X-05784800Y-05263770D02*
X-05784800Y-05280200D01*
G01X-05784800Y-05119800D02*
X-05784800Y-05136230D01*
G01X-05784800Y-04263770D02*
X-05784800Y-04280200D01*
G01X-05784800Y-04119800D02*
X-05784800Y-04136230D01*
G01X-05784800Y-03263770D02*
X-05784800Y-03280200D01*
G01X-05784800Y-03119800D02*
X-05784800Y-03136230D01*
G01X-05784800Y-02263770D02*
X-05784800Y-02280200D01*
G01X-05784800Y-02119800D02*
X-05784800Y-02136230D01*
G01X-05784800Y-01263770D02*
X-05784800Y-01280200D01*
G01X-05784800Y-01119800D02*
X-05784800Y-01136230D01*
G01X-05784800Y-00263770D02*
X-05784800Y-00280200D01*
G01X-05784800Y-00119800D02*
X-05784800Y-00136230D01*
G01X-05784800Y00736230D02*
X-05784800Y00719800D01*
G01X-05784800Y00880200D02*
X-05784800Y00863770D01*
G01X-04784800Y-06263770D02*
X-04784800Y-06280200D01*
G01X-05095200Y-06136230D02*
X-05095200Y-06119800D01*
G01X-05095200Y-06280200D02*
X-05095200Y-06263770D01*
G01X-04784800Y-06280200D02*
X-05095200Y-06280200D01*
G01X-04784800Y-06119800D02*
X-04784800Y-06136230D01*
G01X-05095200Y-06119800D02*
X-04784800Y-06119800D01*
G01X-04784800Y-05263770D02*
X-04784800Y-05280200D01*
G01X-05095200Y-05280200D02*
X-05095200Y-05263770D01*
G01X-04784800Y-05280200D02*
X-05095200Y-05280200D01*
G01X-05095200Y-05136230D02*
X-05095200Y-05119800D01*
G01X-04784800Y-05119800D02*
X-04784800Y-05136230D01*
G01X-05095200Y-05119800D02*
X-04784800Y-05119800D01*
G01X-04784800Y-04263770D02*
X-04784800Y-04280200D01*
G01X-05095200Y-04136230D02*
X-05095200Y-04119800D01*
G01X-05095200Y-04280200D02*
X-05095200Y-04263770D01*
G01X-04784800Y-04280200D02*
X-05095200Y-04280200D01*
G01X-04784800Y-04119800D02*
X-04784800Y-04136230D01*
G01X-05095200Y-04119800D02*
X-04784800Y-04119800D01*
G01X-04784800Y-03263770D02*
X-04784800Y-03280200D01*
G01X-05095200Y-03136230D02*
X-05095200Y-03119800D01*
G01X-05095200Y-03280200D02*
X-05095200Y-03263770D01*
G01X-04784800Y-03280200D02*
X-05095200Y-03280200D01*
G01X-04784800Y-03119800D02*
X-04784800Y-03136230D01*
G01X-05095200Y-03119800D02*
X-04784800Y-03119800D01*
G01X-04784800Y-02263770D02*
X-04784800Y-02280200D01*
G01X-05095200Y-02280200D02*
X-05095200Y-02263770D01*
G01X-04784800Y-02280200D02*
X-05095200Y-02280200D01*
G01X-05095200Y-02136230D02*
X-05095200Y-02119800D01*
G01X-04784800Y-02119800D02*
X-04784800Y-02136230D01*
G01X-05095200Y-02119800D02*
X-04784800Y-02119800D01*
G01X-04784800Y-01263770D02*
X-04784800Y-01280200D01*
G01X-05095200Y-01136230D02*
X-05095200Y-01119800D01*
G01X-05095200Y-01280200D02*
X-05095200Y-01263770D01*
G01X-04784800Y-01280200D02*
X-05095200Y-01280200D01*
G01X-04784800Y-01119800D02*
X-04784800Y-01136230D01*
G01X-05095200Y-01119800D02*
X-04784800Y-01119800D01*
G01X-04784800Y-00263770D02*
X-04784800Y-00280200D01*
G01X-05095200Y-00136230D02*
X-05095200Y-00119800D01*
G01X-05095200Y-00280200D02*
X-05095200Y-00263770D01*
G01X-04784800Y-00280200D02*
X-05095200Y-00280200D01*
G01X-04784800Y-00119800D02*
X-04784800Y-00136230D01*
G01X-05095200Y-00119800D02*
X-04784800Y-00119800D01*
G01X-04784800Y00736230D02*
X-04784800Y00719800D01*
G01X-05095200Y00719800D02*
X-05095200Y00736230D01*
G01X-04784800Y00719800D02*
X-05095200Y00719800D01*
G01X-05095200Y00863770D02*
X-05095200Y00880200D01*
G01X-04784800Y00880200D02*
X-04784800Y00863770D01*
G01X-05095200Y00880200D02*
X-04784800Y00880200D01*
G01X-03784800Y-06263770D02*
X-03784800Y-06280200D01*
G01X-04095200Y-06136230D02*
X-04095200Y-06119800D01*
G01X-04095200Y-06280200D02*
X-04095200Y-06263770D01*
G01X-03784800Y-06280200D02*
X-04095200Y-06280200D01*
G01X-03784800Y-06119800D02*
X-03784800Y-06136230D01*
G01X-04095200Y-06119800D02*
X-03784800Y-06119800D01*
G01X-03784800Y-05263770D02*
X-03784800Y-05280200D01*
G01X-04095200Y-05280200D02*
X-04095200Y-05263770D01*
G01X-03784800Y-05280200D02*
X-04095200Y-05280200D01*
G01X-04095200Y-05136230D02*
X-04095200Y-05119800D01*
G01X-03784800Y-05119800D02*
X-03784800Y-05136230D01*
G01X-04095200Y-05119800D02*
X-03784800Y-05119800D01*
G01X-03784800Y-04263770D02*
X-03784800Y-04280200D01*
G01X-04095200Y-04136230D02*
X-04095200Y-04119800D01*
G01X-04095200Y-04280200D02*
X-04095200Y-04263770D01*
G01X-03784800Y-04280200D02*
X-04095200Y-04280200D01*
G01X-03784800Y-04119800D02*
X-03784800Y-04136230D01*
G01X-04095200Y-04119800D02*
X-03784800Y-04119800D01*
G01X-03784800Y-03263770D02*
X-03784800Y-03280200D01*
G01X-04095200Y-03136230D02*
X-04095200Y-03119800D01*
G01X-04095200Y-03280200D02*
X-04095200Y-03263770D01*
G01X-03784800Y-03280200D02*
X-04095200Y-03280200D01*
G01X-03784800Y-03119800D02*
X-03784800Y-03136230D01*
G01X-04095200Y-03119800D02*
X-03784800Y-03119800D01*
G01X-03784800Y-02263770D02*
X-03784800Y-02280200D01*
G01X-04095200Y-02280200D02*
X-04095200Y-02263770D01*
G01X-03784800Y-02280200D02*
X-04095200Y-02280200D01*
G01X-04095200Y-02136230D02*
X-04095200Y-02119800D01*
G01X-03784800Y-02119800D02*
X-03784800Y-02136230D01*
G01X-04095200Y-02119800D02*
X-03784800Y-02119800D01*
G01X-03784800Y-01263770D02*
X-03784800Y-01280200D01*
G01X-04095200Y-01136230D02*
X-04095200Y-01119800D01*
G01X-04095200Y-01280200D02*
X-04095200Y-01263770D01*
G01X-03784800Y-01280200D02*
X-04095200Y-01280200D01*
G01X-03784800Y-01119800D02*
X-03784800Y-01136230D01*
G01X-04095200Y-01119800D02*
X-03784800Y-01119800D01*
G01X-03784800Y-00263770D02*
X-03784800Y-00280200D01*
G01X-04095200Y-00136230D02*
X-04095200Y-00119800D01*
G01X-04095200Y-00280200D02*
X-04095200Y-00263770D01*
G01X-03784800Y-00280200D02*
X-04095200Y-00280200D01*
G01X-03784800Y-00119800D02*
X-03784800Y-00136230D01*
G01X-04095200Y-00119800D02*
X-03784800Y-00119800D01*
G01X-03784800Y00736230D02*
X-03784800Y00719800D01*
G01X-04095200Y00719800D02*
X-04095200Y00736230D01*
G01X-03784800Y00719800D02*
X-04095200Y00719800D01*
G01X-04095200Y00863770D02*
X-04095200Y00880200D01*
G01X-03784800Y00880200D02*
X-03784800Y00863770D01*
G01X-04095200Y00880200D02*
X-03784800Y00880200D01*
G01X-03095200Y-06136230D02*
X-03095200Y-06119800D01*
G01X-03095200Y-06280200D02*
X-03095200Y-06263770D01*
G01X-02784800Y-06280200D02*
X-03095200Y-06280200D01*
G01X-03095200Y-06119800D02*
X-02784800Y-06119800D01*
G01X-03095200Y-05280200D02*
X-03095200Y-05263770D01*
G01X-02784800Y-05280200D02*
X-03095200Y-05280200D01*
G01X-03095200Y-05136230D02*
X-03095200Y-05119800D01*
G01X-03095200Y-05119800D02*
X-02784800Y-05119800D01*
G01X-03095200Y-04136230D02*
X-03095200Y-04119800D01*
G01X-03095200Y-04280200D02*
X-03095200Y-04263770D01*
G01X-02784800Y-04280200D02*
X-03095200Y-04280200D01*
G01X-03095200Y-04119800D02*
X-02784800Y-04119800D01*
G01X-03095200Y-03136230D02*
X-03095200Y-03119800D01*
G01X-03095200Y-03280200D02*
X-03095200Y-03263770D01*
G01X-02784800Y-03280200D02*
X-03095200Y-03280200D01*
G01X-03095200Y-03119800D02*
X-02784800Y-03119800D01*
G01X-03095200Y-02280200D02*
X-03095200Y-02263770D01*
G01X-02784800Y-02280200D02*
X-03095200Y-02280200D01*
G01X-03095200Y-02136230D02*
X-03095200Y-02119800D01*
G01X-03095200Y-02119800D02*
X-02784800Y-02119800D01*
G01X-03095200Y-01136230D02*
X-03095200Y-01119800D01*
G01X-03095200Y-01280200D02*
X-03095200Y-01263770D01*
G01X-02784800Y-01280200D02*
X-03095200Y-01280200D01*
G01X-03095200Y-01119800D02*
X-02784800Y-01119800D01*
G01X-03095200Y-00136230D02*
X-03095200Y-00119800D01*
G01X-03095200Y-00280200D02*
X-03095200Y-00263770D01*
G01X-02784800Y-00280200D02*
X-03095200Y-00280200D01*
G01X-03095200Y-00119800D02*
X-02784800Y-00119800D01*
G01X-03095200Y00719800D02*
X-03095200Y00736230D01*
G01X-02784800Y00719800D02*
X-03095200Y00719800D01*
G01X-03095200Y00863770D02*
X-03095200Y00880200D01*
G01X-03095200Y00880200D02*
X-02784800Y00880200D01*
G01X-02784800Y-06263770D02*
X-02784800Y-06280200D01*
G01X-02784800Y-06119800D02*
X-02784800Y-06136230D01*
G01X-02784800Y-05263770D02*
X-02784800Y-05280200D01*
G01X-02784800Y-05119800D02*
X-02784800Y-05136230D01*
G01X-02784800Y-04263770D02*
X-02784800Y-04280200D01*
G01X-02784800Y-04119800D02*
X-02784800Y-04136230D01*
G01X-02784800Y-03263770D02*
X-02784800Y-03280200D01*
G01X-02784800Y-03119800D02*
X-02784800Y-03136230D01*
G01X-02784800Y-02263770D02*
X-02784800Y-02280200D01*
G01X-02784800Y-02119800D02*
X-02784800Y-02136230D01*
G01X-02784800Y-01263770D02*
X-02784800Y-01280200D01*
G01X-02784800Y-01119800D02*
X-02784800Y-01136230D01*
G01X-02784800Y-00263770D02*
X-02784800Y-00280200D01*
G01X-02784800Y-00119800D02*
X-02784800Y-00136230D01*
G01X-02784800Y00736230D02*
X-02784800Y00719800D01*
G01X-02784800Y00880200D02*
X-02784800Y00863770D01*
G01X-01784800Y-06263770D02*
X-01784800Y-06280200D01*
G01X-02095200Y-06136230D02*
X-02095200Y-06119800D01*
G01X-02095200Y-06280200D02*
X-02095200Y-06263770D01*
G01X-01784800Y-06280200D02*
X-02095200Y-06280200D01*
G01X-01784800Y-06119800D02*
X-01784800Y-06136230D01*
G01X-02095200Y-06119800D02*
X-01784800Y-06119800D01*
G01X-01784800Y-05263770D02*
X-01784800Y-05280200D01*
G01X-02095200Y-05280200D02*
X-02095200Y-05263770D01*
G01X-01784800Y-05280200D02*
X-02095200Y-05280200D01*
G01X-02095200Y-05136230D02*
X-02095200Y-05119800D01*
G01X-01784800Y-05119800D02*
X-01784800Y-05136230D01*
G01X-02095200Y-05119800D02*
X-01784800Y-05119800D01*
G01X-01784800Y-04263770D02*
X-01784800Y-04280200D01*
G01X-02095200Y-04136230D02*
X-02095200Y-04119800D01*
G01X-02095200Y-04280200D02*
X-02095200Y-04263770D01*
G01X-01784800Y-04280200D02*
X-02095200Y-04280200D01*
G01X-01784800Y-04119800D02*
X-01784800Y-04136230D01*
G01X-02095200Y-04119800D02*
X-01784800Y-04119800D01*
G01X-01784800Y-03263770D02*
X-01784800Y-03280200D01*
G01X-02095200Y-03136230D02*
X-02095200Y-03119800D01*
G01X-02095200Y-03280200D02*
X-02095200Y-03263770D01*
G01X-01784800Y-03280200D02*
X-02095200Y-03280200D01*
G01X-01784800Y-03119800D02*
X-01784800Y-03136230D01*
G01X-02095200Y-03119800D02*
X-01784800Y-03119800D01*
G01X-01784800Y-02263770D02*
X-01784800Y-02280200D01*
G01X-02095200Y-02280200D02*
X-02095200Y-02263770D01*
G01X-01784800Y-02280200D02*
X-02095200Y-02280200D01*
G01X-02095200Y-02136230D02*
X-02095200Y-02119800D01*
G01X-01784800Y-02119800D02*
X-01784800Y-02136230D01*
G01X-02095200Y-02119800D02*
X-01784800Y-02119800D01*
G01X-01784800Y-01263770D02*
X-01784800Y-01280200D01*
G01X-02095200Y-01136230D02*
X-02095200Y-01119800D01*
G01X-02095200Y-01280200D02*
X-02095200Y-01263770D01*
G01X-01784800Y-01280200D02*
X-02095200Y-01280200D01*
G01X-01784800Y-01119800D02*
X-01784800Y-01136230D01*
G01X-02095200Y-01119800D02*
X-01784800Y-01119800D01*
G01X-01784800Y-00263770D02*
X-01784800Y-00280200D01*
G01X-02095200Y-00136230D02*
X-02095200Y-00119800D01*
G01X-02095200Y-00280200D02*
X-02095200Y-00263770D01*
G01X-01784800Y-00280200D02*
X-02095200Y-00280200D01*
G01X-01784800Y-00119800D02*
X-01784800Y-00136230D01*
G01X-02095200Y-00119800D02*
X-01784800Y-00119800D01*
G01X-01784800Y00736230D02*
X-01784800Y00719800D01*
G01X-02095200Y00719800D02*
X-02095200Y00736230D01*
G01X-01784800Y00719800D02*
X-02095200Y00719800D01*
G01X-02095200Y00863770D02*
X-02095200Y00880200D01*
G01X-01784800Y00880200D02*
X-01784800Y00863770D01*
G01X-02095200Y00880200D02*
X-01784800Y00880200D01*
G01X-00784800Y-06263770D02*
X-00784800Y-06280200D01*
G01X-01095200Y-06136230D02*
X-01095200Y-06119800D01*
G01X-01095200Y-06280200D02*
X-01095200Y-06263770D01*
G01X-00784800Y-06280200D02*
X-01095200Y-06280200D01*
G01X-00784800Y-06119800D02*
X-00784800Y-06136230D01*
G01X-01095200Y-06119800D02*
X-00784800Y-06119800D01*
G01X-00784800Y-05263770D02*
X-00784800Y-05280200D01*
G01X-01095200Y-05280200D02*
X-01095200Y-05263770D01*
G01X-00784800Y-05280200D02*
X-01095200Y-05280200D01*
G01X-01095200Y-05136230D02*
X-01095200Y-05119800D01*
G01X-00784800Y-05119800D02*
X-00784800Y-05136230D01*
G01X-01095200Y-05119800D02*
X-00784800Y-05119800D01*
G01X-00784800Y-04263770D02*
X-00784800Y-04280200D01*
G01X-01095200Y-04136230D02*
X-01095200Y-04119800D01*
G01X-01095200Y-04280200D02*
X-01095200Y-04263770D01*
G01X-00784800Y-04280200D02*
X-01095200Y-04280200D01*
G01X-00784800Y-04119800D02*
X-00784800Y-04136230D01*
G01X-01095200Y-04119800D02*
X-00784800Y-04119800D01*
G01X-00784800Y-03263770D02*
X-00784800Y-03280200D01*
G01X-01095200Y-03136230D02*
X-01095200Y-03119800D01*
G01X-01095200Y-03280200D02*
X-01095200Y-03263770D01*
G01X-00784800Y-03280200D02*
X-01095200Y-03280200D01*
G01X-00784800Y-03119800D02*
X-00784800Y-03136230D01*
G01X-01095200Y-03119800D02*
X-00784800Y-03119800D01*
G01X-00784800Y-02263770D02*
X-00784800Y-02280200D01*
G01X-01095200Y-02280200D02*
X-01095200Y-02263770D01*
G01X-00784800Y-02280200D02*
X-01095200Y-02280200D01*
G01X-01095200Y-02136230D02*
X-01095200Y-02119800D01*
G01X-00784800Y-02119800D02*
X-00784800Y-02136230D01*
G01X-01095200Y-02119800D02*
X-00784800Y-02119800D01*
G01X-00784800Y-01263770D02*
X-00784800Y-01280200D01*
G01X-01095200Y-01136230D02*
X-01095200Y-01119800D01*
G01X-01095200Y-01280200D02*
X-01095200Y-01263770D01*
G01X-00784800Y-01280200D02*
X-01095200Y-01280200D01*
G01X-00784800Y-01119800D02*
X-00784800Y-01136230D01*
G01X-01095200Y-01119800D02*
X-00784800Y-01119800D01*
G01X-00784800Y-00263770D02*
X-00784800Y-00280200D01*
G01X-01095200Y-00136230D02*
X-01095200Y-00119800D01*
G01X-01095200Y-00280200D02*
X-01095200Y-00263770D01*
G01X-00784800Y-00280200D02*
X-01095200Y-00280200D01*
G01X-00784800Y-00119800D02*
X-00784800Y-00136230D01*
G01X-01095200Y-00119800D02*
X-00784800Y-00119800D01*
G01X-00784800Y00736230D02*
X-00784800Y00719800D01*
G01X-01095200Y00719800D02*
X-01095200Y00736230D01*
G01X-00784800Y00719800D02*
X-01095200Y00719800D01*
G01X-01095200Y00863770D02*
X-01095200Y00880200D01*
G01X-00784800Y00880200D02*
X-00784800Y00863770D01*
G01X-01095200Y00880200D02*
X-00784800Y00880200D01*
G01X-00095200Y-06136230D02*
X-00095200Y-06119800D01*
G01X-00095200Y-06280200D02*
X-00095200Y-06263770D01*
G01X00215200Y-06280200D02*
X-00095200Y-06280200D01*
G01X-00095200Y-06119800D02*
X00215200Y-06119800D01*
G01X-00095200Y-05280200D02*
X-00095200Y-05263770D01*
G01X00215200Y-05280200D02*
X-00095200Y-05280200D01*
G01X-00095200Y-05136230D02*
X-00095200Y-05119800D01*
G01X-00095200Y-05119800D02*
X00215200Y-05119800D01*
G01X-00095200Y-04136230D02*
X-00095200Y-04119800D01*
G01X-00095200Y-04280200D02*
X-00095200Y-04263770D01*
G01X00215200Y-04280200D02*
X-00095200Y-04280200D01*
G01X-00095200Y-04119800D02*
X00215200Y-04119800D01*
G01X-00095200Y-03136230D02*
X-00095200Y-03119800D01*
G01X-00095200Y-03280200D02*
X-00095200Y-03263770D01*
G01X00215200Y-03280200D02*
X-00095200Y-03280200D01*
G01X-00095200Y-03119800D02*
X00215200Y-03119800D01*
G01X-00095200Y-02280200D02*
X-00095200Y-02263770D01*
G01X00215200Y-02280200D02*
X-00095200Y-02280200D01*
G01X-00095200Y-02136230D02*
X-00095200Y-02119800D01*
G01X-00095200Y-02119800D02*
X00215200Y-02119800D01*
G01X-00095200Y-01136230D02*
X-00095200Y-01119800D01*
G01X-00095200Y-01280200D02*
X-00095200Y-01263770D01*
G01X00215200Y-01280200D02*
X-00095200Y-01280200D01*
G01X-00095200Y-01119800D02*
X00215200Y-01119800D01*
G01X-00095200Y-00136230D02*
X-00095200Y-00119800D01*
G01X-00095200Y-00280200D02*
X-00095200Y-00263770D01*
G01X00215200Y-00280200D02*
X-00095200Y-00280200D01*
G01X-00095200Y-00119800D02*
X00215200Y-00119800D01*
G01X-00095200Y00719800D02*
X-00095200Y00736230D01*
G01X00215200Y00719800D02*
X-00095200Y00719800D01*
G01X-00095200Y00863770D02*
X-00095200Y00880200D01*
G01X-00095200Y00880200D02*
X00215200Y00880200D01*
G01X00215200Y-06263770D02*
X00215200Y-06280200D01*
G01X00215200Y-06119800D02*
X00215200Y-06136230D01*
G01X00215200Y-05263770D02*
X00215200Y-05280200D01*
G01X00215200Y-05119800D02*
X00215200Y-05136230D01*
G01X00215200Y-04263770D02*
X00215200Y-04280200D01*
G01X00215200Y-04119800D02*
X00215200Y-04136230D01*
G01X00215200Y-03263770D02*
X00215200Y-03280200D01*
G01X00215200Y-03119800D02*
X00215200Y-03136230D01*
G01X00215200Y-02263770D02*
X00215200Y-02280200D01*
G01X00215200Y-02119800D02*
X00215200Y-02136230D01*
G01X00215200Y-01263770D02*
X00215200Y-01280200D01*
G01X00215200Y-01119800D02*
X00215200Y-01136230D01*
G01X00215200Y-00263770D02*
X00215200Y-00280200D01*
G01X00215200Y-00119800D02*
X00215200Y-00136230D01*
G01X00215200Y00736230D02*
X00215200Y00719800D01*
G01X00215200Y00880200D02*
X00215200Y00863770D01*
G01X00904800Y-06136230D02*
X00904800Y-06119800D01*
G01X00904800Y-06280200D02*
X00904800Y-06263770D01*
G01X01215200Y-06280200D02*
X00904800Y-06280200D01*
G01X00904800Y-06119800D02*
X01215200Y-06119800D01*
G01X00904800Y-05280200D02*
X00904800Y-05263770D01*
G01X01215200Y-05280200D02*
X00904800Y-05280200D01*
G01X00904800Y-05136230D02*
X00904800Y-05119800D01*
G01X00904800Y-05119800D02*
X01215200Y-05119800D01*
G01X00904800Y-04136230D02*
X00904800Y-04119800D01*
G01X00904800Y-04280200D02*
X00904800Y-04263770D01*
G01X01215200Y-04280200D02*
X00904800Y-04280200D01*
G01X00904800Y-04119800D02*
X01215200Y-04119800D01*
G01X00904800Y-03136230D02*
X00904800Y-03119800D01*
G01X00904800Y-03280200D02*
X00904800Y-03263770D01*
G01X01215200Y-03280200D02*
X00904800Y-03280200D01*
G01X00904800Y-03119800D02*
X01215200Y-03119800D01*
G01X00904800Y-02280200D02*
X00904800Y-02263770D01*
G01X01215200Y-02280200D02*
X00904800Y-02280200D01*
G01X00904800Y-02136230D02*
X00904800Y-02119800D01*
G01X00904800Y-02119800D02*
X01215200Y-02119800D01*
G01X00904800Y-01136230D02*
X00904800Y-01119800D01*
G01X00904800Y-01280200D02*
X00904800Y-01263770D01*
G01X01215200Y-01280200D02*
X00904800Y-01280200D01*
G01X00904800Y-01119800D02*
X01215200Y-01119800D01*
G01X00904800Y-00136230D02*
X00904800Y-00119800D01*
G01X00904800Y-00280200D02*
X00904800Y-00263770D01*
G01X01215200Y-00280200D02*
X00904800Y-00280200D01*
G01X00904800Y-00119800D02*
X01215200Y-00119800D01*
G01X00904800Y00719800D02*
X00904800Y00736230D01*
G01X01215200Y00719800D02*
X00904800Y00719800D01*
G01X00904800Y00863770D02*
X00904800Y00880200D01*
G01X00904800Y00880200D02*
X01215200Y00880200D01*
G01X01215200Y-06263770D02*
X01215200Y-06280200D01*
G01X01215200Y-06119800D02*
X01215200Y-06136230D01*
G01X01215200Y-05263770D02*
X01215200Y-05280200D01*
G01X01215200Y-05119800D02*
X01215200Y-05136230D01*
G01X01215200Y-04263770D02*
X01215200Y-04280200D01*
G01X01215200Y-04119800D02*
X01215200Y-04136230D01*
G01X01215200Y-03263770D02*
X01215200Y-03280200D01*
G01X01215200Y-03119800D02*
X01215200Y-03136230D01*
G01X01215200Y-02263770D02*
X01215200Y-02280200D01*
G01X01215200Y-02119800D02*
X01215200Y-02136230D01*
G01X01215200Y-01263770D02*
X01215200Y-01280200D01*
G01X01215200Y-01119800D02*
X01215200Y-01136230D01*
G01X01215200Y-00263770D02*
X01215200Y-00280200D01*
G01X01215200Y-00119800D02*
X01215200Y-00136230D01*
G01X01215200Y00736230D02*
X01215200Y00719800D01*
G01X01215200Y00880200D02*
X01215200Y00863770D01*
G01X02215200Y-06263770D02*
X02215200Y-06280200D01*
G01X01904800Y-06136230D02*
X01904800Y-06119800D01*
G01X01904800Y-06280200D02*
X01904800Y-06263770D01*
G01X02215200Y-06280200D02*
X01904800Y-06280200D01*
G01X02215200Y-06119800D02*
X02215200Y-06136230D01*
G01X01904800Y-06119800D02*
X02215200Y-06119800D01*
G01X02215200Y-05263770D02*
X02215200Y-05280200D01*
G01X01904800Y-05280200D02*
X01904800Y-05263770D01*
G01X02215200Y-05280200D02*
X01904800Y-05280200D01*
G01X01904800Y-05136230D02*
X01904800Y-05119800D01*
G01X02215200Y-05119800D02*
X02215200Y-05136230D01*
G01X01904800Y-05119800D02*
X02215200Y-05119800D01*
G01X02215200Y-04263770D02*
X02215200Y-04280200D01*
G01X01904800Y-04136230D02*
X01904800Y-04119800D01*
G01X01904800Y-04280200D02*
X01904800Y-04263770D01*
G01X02215200Y-04280200D02*
X01904800Y-04280200D01*
G01X02215200Y-04119800D02*
X02215200Y-04136230D01*
G01X01904800Y-04119800D02*
X02215200Y-04119800D01*
G01X02215200Y-03263770D02*
X02215200Y-03280200D01*
G01X01904800Y-03136230D02*
X01904800Y-03119800D01*
G01X01904800Y-03280200D02*
X01904800Y-03263770D01*
G01X02215200Y-03280200D02*
X01904800Y-03280200D01*
G01X02215200Y-03119800D02*
X02215200Y-03136230D01*
G01X01904800Y-03119800D02*
X02215200Y-03119800D01*
G01X02215200Y-02263770D02*
X02215200Y-02280200D01*
G01X01904800Y-02280200D02*
X01904800Y-02263770D01*
G01X02215200Y-02280200D02*
X01904800Y-02280200D01*
G01X01904800Y-02136230D02*
X01904800Y-02119800D01*
G01X02215200Y-02119800D02*
X02215200Y-02136230D01*
G01X01904800Y-02119800D02*
X02215200Y-02119800D01*
G01X02215200Y-01263770D02*
X02215200Y-01280200D01*
G01X01904800Y-01136230D02*
X01904800Y-01119800D01*
G01X01904800Y-01280200D02*
X01904800Y-01263770D01*
G01X02215200Y-01280200D02*
X01904800Y-01280200D01*
G01X02215200Y-01119800D02*
X02215200Y-01136230D01*
G01X01904800Y-01119800D02*
X02215200Y-01119800D01*
G01X02215200Y-00263770D02*
X02215200Y-00280200D01*
G01X01904800Y-00136230D02*
X01904800Y-00119800D01*
G01X01904800Y-00280200D02*
X01904800Y-00263770D01*
G01X02215200Y-00280200D02*
X01904800Y-00280200D01*
G01X02215200Y-00119800D02*
X02215200Y-00136230D01*
G01X01904800Y-00119800D02*
X02215200Y-00119800D01*
G01X02215200Y00736230D02*
X02215200Y00719800D01*
G01X01904800Y00719800D02*
X01904800Y00736230D01*
G01X02215200Y00719800D02*
X01904800Y00719800D01*
G01X01904800Y00863770D02*
X01904800Y00880200D01*
G01X02215200Y00880200D02*
X02215200Y00863770D01*
G01X01904800Y00880200D02*
X02215200Y00880200D01*
G01X01824750Y02249880D02*
X01824750Y01843480D01*
G01X01824750Y01843480D02*
X02015250Y01843480D01*
G01X02015250Y01843480D02*
X02015250Y02249880D01*
G01X02015250Y02249880D02*
X01824750Y02249880D01*
G01X02904800Y-06136230D02*
X02904800Y-06119800D01*
G01X02904800Y-06280200D02*
X02904800Y-06263770D01*
G01X03215200Y-06280200D02*
X02904800Y-06280200D01*
G01X02904800Y-06119800D02*
X03215200Y-06119800D01*
G01X02904800Y-05280200D02*
X02904800Y-05263770D01*
G01X03215200Y-05280200D02*
X02904800Y-05280200D01*
G01X02904800Y-05136230D02*
X02904800Y-05119800D01*
G01X02904800Y-05119800D02*
X03215200Y-05119800D01*
G01X02904800Y-04136230D02*
X02904800Y-04119800D01*
G01X02904800Y-04280200D02*
X02904800Y-04263770D01*
G01X03215200Y-04280200D02*
X02904800Y-04280200D01*
G01X02904800Y-04119800D02*
X03215200Y-04119800D01*
G01X02904800Y-03136230D02*
X02904800Y-03119800D01*
G01X02904800Y-03280200D02*
X02904800Y-03263770D01*
G01X03215200Y-03280200D02*
X02904800Y-03280200D01*
G01X02904800Y-03119800D02*
X03215200Y-03119800D01*
G01X02904800Y-02280200D02*
X02904800Y-02263770D01*
G01X03215200Y-02280200D02*
X02904800Y-02280200D01*
G01X02904800Y-02136230D02*
X02904800Y-02119800D01*
G01X02904800Y-02119800D02*
X03215200Y-02119800D01*
G01X02904800Y-01136230D02*
X02904800Y-01119800D01*
G01X02904800Y-01280200D02*
X02904800Y-01263770D01*
G01X03215200Y-01280200D02*
X02904800Y-01280200D01*
G01X02904800Y-01119800D02*
X03215200Y-01119800D01*
G01X02904800Y-00136230D02*
X02904800Y-00119800D01*
G01X02904800Y-00280200D02*
X02904800Y-00263770D01*
G01X03215200Y-00280200D02*
X02904800Y-00280200D01*
G01X02904800Y-00119800D02*
X03215200Y-00119800D01*
G01X02904800Y00719800D02*
X02904800Y00736230D01*
G01X03215200Y00719800D02*
X02904800Y00719800D01*
G01X02904800Y00863770D02*
X02904800Y00880200D01*
G01X02904800Y00880200D02*
X03215200Y00880200D01*
G01X02720200Y02023730D02*
X02720200Y01957300D01*
G01X02720200Y01957300D02*
X02620000Y01957300D01*
G01X02542700Y01843000D02*
G02X02542700Y01843000I-00012700J0D01*
G01X02720200Y02202700D02*
X02720200Y02136270D01*
G01X02620000Y02202700D02*
X02720200Y02202700D01*
G01X02559800Y02066270D02*
X02559800Y02093730D01*
G01X03215200Y-06263770D02*
X03215200Y-06280200D01*
G01X03215200Y-06119800D02*
X03215200Y-06136230D01*
G01X03215200Y-05263770D02*
X03215200Y-05280200D01*
G01X03215200Y-05119800D02*
X03215200Y-05136230D01*
G01X03215200Y-04263770D02*
X03215200Y-04280200D01*
G01X03215200Y-04119800D02*
X03215200Y-04136230D01*
G01X03215200Y-03263770D02*
X03215200Y-03280200D01*
G01X03215200Y-03119800D02*
X03215200Y-03136230D01*
G01X03215200Y-02263770D02*
X03215200Y-02280200D01*
G01X03215200Y-02119800D02*
X03215200Y-02136230D01*
G01X03215200Y-01263770D02*
X03215200Y-01280200D01*
G01X03215200Y-01119800D02*
X03215200Y-01136230D01*
G01X03215200Y-00263770D02*
X03215200Y-00280200D01*
G01X03215200Y-00119800D02*
X03215200Y-00136230D01*
G01X03215200Y00736230D02*
X03215200Y00719800D01*
G01X03215200Y00880200D02*
X03215200Y00863770D01*
G01X03904800Y-06136230D02*
X03904800Y-06119800D01*
G01X03904800Y-06280200D02*
X03904800Y-06263770D01*
G01X04215200Y-06280200D02*
X03904800Y-06280200D01*
G01X03904800Y-06119800D02*
X04215200Y-06119800D01*
G01X03904800Y-05280200D02*
X03904800Y-05263770D01*
G01X04215200Y-05280200D02*
X03904800Y-05280200D01*
G01X03904800Y-05136230D02*
X03904800Y-05119800D01*
G01X03904800Y-05119800D02*
X04215200Y-05119800D01*
G01X03904800Y-04136230D02*
X03904800Y-04119800D01*
G01X03904800Y-04280200D02*
X03904800Y-04263770D01*
G01X04215200Y-04280200D02*
X03904800Y-04280200D01*
G01X03904800Y-04119800D02*
X04215200Y-04119800D01*
G01X03904800Y-03136230D02*
X03904800Y-03119800D01*
G01X03904800Y-03280200D02*
X03904800Y-03263770D01*
G01X04215200Y-03280200D02*
X03904800Y-03280200D01*
G01X03904800Y-03119800D02*
X04215200Y-03119800D01*
G01X03904800Y-02280200D02*
X03904800Y-02263770D01*
G01X04215200Y-02280200D02*
X03904800Y-02280200D01*
G01X03904800Y-02136230D02*
X03904800Y-02119800D01*
G01X03904800Y-02119800D02*
X04215200Y-02119800D01*
G01X03904800Y-01136230D02*
X03904800Y-01119800D01*
G01X03904800Y-01280200D02*
X03904800Y-01263770D01*
G01X04215200Y-01280200D02*
X03904800Y-01280200D01*
G01X03904800Y-01119800D02*
X04215200Y-01119800D01*
G01X03904800Y-00136230D02*
X03904800Y-00119800D01*
G01X03904800Y-00280200D02*
X03904800Y-00263770D01*
G01X04215200Y-00280200D02*
X03904800Y-00280200D01*
G01X03904800Y-00119800D02*
X04215200Y-00119800D01*
G01X03904800Y00719800D02*
X03904800Y00736230D01*
G01X04215200Y00719800D02*
X03904800Y00719800D01*
G01X03904800Y00863770D02*
X03904800Y00880200D01*
G01X03904800Y00880200D02*
X04215200Y00880200D01*
G01X04215200Y-06263770D02*
X04215200Y-06280200D01*
G01X04215200Y-06119800D02*
X04215200Y-06136230D01*
G01X04215200Y-05263770D02*
X04215200Y-05280200D01*
G01X04215200Y-05119800D02*
X04215200Y-05136230D01*
G01X04215200Y-04263770D02*
X04215200Y-04280200D01*
G01X04215200Y-04119800D02*
X04215200Y-04136230D01*
G01X04215200Y-03263770D02*
X04215200Y-03280200D01*
G01X04215200Y-03119800D02*
X04215200Y-03136230D01*
G01X04215200Y-02263770D02*
X04215200Y-02280200D01*
G01X04215200Y-02119800D02*
X04215200Y-02136230D01*
G01X04215200Y-01263770D02*
X04215200Y-01280200D01*
G01X04215200Y-01119800D02*
X04215200Y-01136230D01*
G01X04215200Y-00263770D02*
X04215200Y-00280200D01*
G01X04215200Y-00119800D02*
X04215200Y-00136230D01*
G01X04215200Y00736230D02*
X04215200Y00719800D01*
G01X04215200Y00880200D02*
X04215200Y00863770D01*
G54D12*
G01X-05795070Y-06440000D02*
X-05795070Y-06313000D01*
X-05827240Y-06313000D01*
X-05840110Y-06319350D01*
X-05849760Y-06327820D01*
X-05857810Y-06340510D01*
X-05864240Y-06355340D01*
X-05865850Y-06376500D01*
X-05864240Y-06397670D01*
X-05857810Y-06412490D01*
X-05849760Y-06425190D01*
X-05840110Y-06433650D01*
X-05827240Y-06440000D01*
X-05795070Y-06440000D01*
G01X-05956780Y-06440000D02*
X-05960000Y-06412490D01*
X-05964830Y-06389200D01*
X-05971260Y-06368030D01*
X-05979300Y-06344750D01*
X-05992170Y-06313000D01*
X-05927830Y-06313000D01*
G01X-06089540Y-06440000D02*
X-06100800Y-06437880D01*
X-06113670Y-06431540D01*
X-06121710Y-06420950D01*
X-06124930Y-06406130D01*
X-06121710Y-06391320D01*
X-06112060Y-06378620D01*
X-06097580Y-06372270D01*
X-06081500Y-06372270D01*
X-06071840Y-06368030D01*
X-06063800Y-06357450D01*
X-06060580Y-06342630D01*
X-06065410Y-06327820D01*
X-06076670Y-06317230D01*
X-06089540Y-06313000D01*
X-06102410Y-06317230D01*
X-06113670Y-06327820D01*
X-06118500Y-06342630D01*
X-06115280Y-06357450D01*
X-06107240Y-06368030D01*
X-06097580Y-06372270D01*
X-06081500Y-06372270D01*
X-06067020Y-06378620D01*
X-06057370Y-06391320D01*
X-06054150Y-06406130D01*
X-06057370Y-06420950D01*
X-06065410Y-06431540D01*
X-06078280Y-06437880D01*
X-06089540Y-06440000D01*
G01X-06285390Y-06195770D02*
X-06214610Y-06288900D01*
G01X-06250000Y-06305830D02*
X-06250000Y-06178830D01*
G01X-06214610Y-06195770D02*
X-06285390Y-06288900D01*
G01X-06298260Y-06242330D02*
X-06201740Y-06242330D01*
G01X-06285390Y-05195770D02*
X-06214610Y-05288900D01*
G01X-06250000Y-05305830D02*
X-06250000Y-05178830D01*
G01X-06214610Y-05195770D02*
X-06285390Y-05288900D01*
G01X-06298260Y-05242330D02*
X-06201740Y-05242330D01*
G01X-05795070Y-05440000D02*
X-05795070Y-05313000D01*
X-05827240Y-05313000D01*
X-05840110Y-05319350D01*
X-05849760Y-05327820D01*
X-05857810Y-05340510D01*
X-05864240Y-05355340D01*
X-05865850Y-05376500D01*
X-05864240Y-05397670D01*
X-05857810Y-05412490D01*
X-05849760Y-05425190D01*
X-05840110Y-05433650D01*
X-05827240Y-05440000D01*
X-05795070Y-05440000D01*
G01X-05929430Y-05387090D02*
X-05940700Y-05372270D01*
X-05950350Y-05363800D01*
X-05963220Y-05359570D01*
X-05974480Y-05363800D01*
X-05982520Y-05372270D01*
X-05988960Y-05384970D01*
X-05990570Y-05399780D01*
X-05988960Y-05412490D01*
X-05982520Y-05425190D01*
X-05972870Y-05435770D01*
X-05961610Y-05440000D01*
X-05948740Y-05435770D01*
X-05937480Y-05423070D01*
X-05931040Y-05404020D01*
X-05929430Y-05382850D01*
X-05932650Y-05355340D01*
X-05937480Y-05340510D01*
X-05945520Y-05325700D01*
X-05956780Y-05315120D01*
X-05968040Y-05313000D01*
X-05979300Y-05317230D01*
X-05987350Y-05327820D01*
G01X-06086320Y-05440000D02*
X-06089540Y-05412490D01*
X-06094370Y-05389200D01*
X-06100800Y-05368030D01*
X-06108840Y-05344750D01*
X-06121710Y-05313000D01*
X-06057370Y-05313000D01*
G01X-06260390Y-04195770D02*
X-06189610Y-04288900D01*
G01X-06225000Y-04305830D02*
X-06225000Y-04178830D01*
G01X-06189610Y-04195770D02*
X-06260390Y-04288900D01*
G01X-06273260Y-04242330D02*
X-06176740Y-04242330D01*
G01X-05795070Y-04440000D02*
X-05795070Y-04313000D01*
X-05827240Y-04313000D01*
X-05840110Y-04319350D01*
X-05849760Y-04327820D01*
X-05857810Y-04340510D01*
X-05864240Y-04355340D01*
X-05865850Y-04376500D01*
X-05864240Y-04397670D01*
X-05857810Y-04412490D01*
X-05849760Y-04425190D01*
X-05840110Y-04433650D01*
X-05827240Y-04440000D01*
X-05795070Y-04440000D01*
G01X-05924610Y-04420950D02*
X-05934260Y-04431540D01*
X-05945520Y-04437880D01*
X-05960000Y-04440000D01*
X-05974480Y-04435770D01*
X-05985740Y-04427300D01*
X-05993780Y-04412490D01*
X-05995390Y-04395550D01*
X-05992170Y-04378620D01*
X-05984130Y-04368030D01*
X-05972870Y-04359570D01*
X-05961610Y-04357450D01*
X-05950350Y-04359570D01*
X-05935870Y-04368030D01*
X-05940700Y-04313000D01*
X-05984130Y-04313000D01*
G01X-06058970Y-04387090D02*
X-06070240Y-04372270D01*
X-06079890Y-04363800D01*
X-06092760Y-04359570D01*
X-06104020Y-04363800D01*
X-06112060Y-04372270D01*
X-06118500Y-04384970D01*
X-06120110Y-04399780D01*
X-06118500Y-04412490D01*
X-06112060Y-04425190D01*
X-06102410Y-04435770D01*
X-06091150Y-04440000D01*
X-06078280Y-04435770D01*
X-06067020Y-04423070D01*
X-06060580Y-04404020D01*
X-06058970Y-04382850D01*
X-06062190Y-04355340D01*
X-06067020Y-04340510D01*
X-06075060Y-04325700D01*
X-06086320Y-04315120D01*
X-06097580Y-04313000D01*
X-06108840Y-04317230D01*
X-06116890Y-04327820D01*
G01X-05795070Y-03440000D02*
X-05795070Y-03313000D01*
X-05827240Y-03313000D01*
X-05840110Y-03319350D01*
X-05849760Y-03327820D01*
X-05857810Y-03340510D01*
X-05864240Y-03355340D01*
X-05865850Y-03376500D01*
X-05864240Y-03397670D01*
X-05857810Y-03412490D01*
X-05849760Y-03425190D01*
X-05840110Y-03433650D01*
X-05827240Y-03440000D01*
X-05795070Y-03440000D01*
G01X-05979300Y-03440000D02*
X-05979300Y-03313000D01*
X-05919780Y-03404020D01*
X-06000220Y-03404020D01*
G01X-06054150Y-03420950D02*
X-06063800Y-03431540D01*
X-06075060Y-03437880D01*
X-06089540Y-03440000D01*
X-06104020Y-03435770D01*
X-06115280Y-03427300D01*
X-06123320Y-03412490D01*
X-06124930Y-03395550D01*
X-06121710Y-03378620D01*
X-06113670Y-03368030D01*
X-06102410Y-03359570D01*
X-06091150Y-03357450D01*
X-06079890Y-03359570D01*
X-06065410Y-03368030D01*
X-06070240Y-03313000D01*
X-06113670Y-03313000D01*
G01X-06285390Y-03195770D02*
X-06214610Y-03288900D01*
G01X-06250000Y-03305830D02*
X-06250000Y-03178830D01*
G01X-06214610Y-03195770D02*
X-06285390Y-03288900D01*
G01X-06298260Y-03242330D02*
X-06201740Y-03242330D01*
G01X-06285390Y-02195770D02*
X-06214610Y-02288900D01*
G01X-06250000Y-02305830D02*
X-06250000Y-02178830D01*
G01X-06214610Y-02195770D02*
X-06285390Y-02288900D01*
G01X-06298260Y-02242330D02*
X-06201740Y-02242330D01*
G01X-05795070Y-02440000D02*
X-05795070Y-02313000D01*
X-05827240Y-02313000D01*
X-05840110Y-02319350D01*
X-05849760Y-02327820D01*
X-05857810Y-02340510D01*
X-05864240Y-02355340D01*
X-05865850Y-02376500D01*
X-05864240Y-02397670D01*
X-05857810Y-02412490D01*
X-05849760Y-02425190D01*
X-05840110Y-02433650D01*
X-05827240Y-02440000D01*
X-05795070Y-02440000D01*
G01X-05924610Y-02414600D02*
X-05934260Y-02429420D01*
X-05947130Y-02437880D01*
X-05961610Y-02440000D01*
X-05974480Y-02437880D01*
X-05987350Y-02427300D01*
X-05995390Y-02414600D01*
X-05997000Y-02401900D01*
X-05993780Y-02387090D01*
X-05982520Y-02376500D01*
X-05971260Y-02372270D01*
X-05956780Y-02372270D01*
G01X-05971260Y-02372270D02*
X-05980910Y-02365920D01*
X-05988960Y-02355340D01*
X-05992170Y-02342630D01*
X-05988960Y-02329930D01*
X-05980910Y-02319350D01*
X-05966430Y-02313000D01*
X-05951960Y-02315120D01*
X-05937480Y-02323580D01*
G01X-06108840Y-02440000D02*
X-06108840Y-02313000D01*
X-06049320Y-02404020D01*
X-06129760Y-02404020D01*
G01X-06285390Y-01195770D02*
X-06214610Y-01288900D01*
G01X-06250000Y-01305830D02*
X-06250000Y-01178830D01*
G01X-06214610Y-01195770D02*
X-06285390Y-01288900D01*
G01X-06298260Y-01242330D02*
X-06201740Y-01242330D01*
G01X-05795070Y-01440000D02*
X-05795070Y-01313000D01*
X-05827240Y-01313000D01*
X-05840110Y-01319350D01*
X-05849760Y-01327820D01*
X-05857810Y-01340510D01*
X-05864240Y-01355340D01*
X-05865850Y-01376500D01*
X-05864240Y-01397670D01*
X-05857810Y-01412490D01*
X-05849760Y-01425190D01*
X-05840110Y-01433650D01*
X-05827240Y-01440000D01*
X-05795070Y-01440000D01*
G01X-05929430Y-01334170D02*
X-05939090Y-01321470D01*
X-05950350Y-01315120D01*
X-05963220Y-01313000D01*
X-05979300Y-01317230D01*
X-05990570Y-01327820D01*
X-05993780Y-01340510D01*
X-05992170Y-01353220D01*
X-05985740Y-01363800D01*
X-05953570Y-01384970D01*
X-05939090Y-01399780D01*
X-05929430Y-01420950D01*
X-05926220Y-01440000D01*
X-05993780Y-01440000D01*
G01X-06054150Y-01414600D02*
X-06063800Y-01429420D01*
X-06076670Y-01437880D01*
X-06091150Y-01440000D01*
X-06104020Y-01437880D01*
X-06116890Y-01427300D01*
X-06124930Y-01414600D01*
X-06126540Y-01401900D01*
X-06123320Y-01387090D01*
X-06112060Y-01376500D01*
X-06100800Y-01372270D01*
X-06086320Y-01372270D01*
G01X-06100800Y-01372270D02*
X-06110450Y-01365920D01*
X-06118500Y-01355340D01*
X-06121710Y-01342630D01*
X-06118500Y-01329930D01*
X-06110450Y-01319350D01*
X-06095970Y-01313000D01*
X-06081500Y-01315120D01*
X-06067020Y-01323580D01*
G01X-05795070Y-00440000D02*
X-05795070Y-00313000D01*
X-05827240Y-00313000D01*
X-05840110Y-00319350D01*
X-05849760Y-00327820D01*
X-05857810Y-00340510D01*
X-05864240Y-00355340D01*
X-05865850Y-00376500D01*
X-05864240Y-00397670D01*
X-05857810Y-00412490D01*
X-05849760Y-00425190D01*
X-05840110Y-00433650D01*
X-05827240Y-00440000D01*
X-05795070Y-00440000D01*
G01X-05960000Y-00440000D02*
X-05960000Y-00313000D01*
X-05940700Y-00338400D01*
G01X-05940700Y-00440000D02*
X-05979300Y-00440000D01*
G01X-06058970Y-00334170D02*
X-06068630Y-00321470D01*
X-06079890Y-00315120D01*
X-06092760Y-00313000D01*
X-06108840Y-00317230D01*
X-06120110Y-00327820D01*
X-06123320Y-00340510D01*
X-06121710Y-00353220D01*
X-06115280Y-00363800D01*
X-06083110Y-00384970D01*
X-06068630Y-00399780D01*
X-06058970Y-00420950D01*
X-06055760Y-00440000D01*
X-06123320Y-00440000D01*
G01X-06285390Y-00195770D02*
X-06214610Y-00288900D01*
G01X-06250000Y-00305830D02*
X-06250000Y-00178830D01*
G01X-06214610Y-00195770D02*
X-06285390Y-00288900D01*
G01X-06298260Y-00242330D02*
X-06201740Y-00242330D01*
G01X-06285390Y00854230D02*
X-06214610Y00761100D01*
G01X-06250000Y00744170D02*
X-06250000Y00871170D01*
G01X-06214610Y00854230D02*
X-06285390Y00761100D01*
G01X-06298260Y00807670D02*
X-06201740Y00807670D01*
G01X-05859840Y00560000D02*
X-05859840Y00687000D01*
X-05892010Y00687000D01*
X-05904880Y00680650D01*
X-05914530Y00672180D01*
X-05922580Y00659490D01*
X-05929010Y00644660D01*
X-05930620Y00623500D01*
X-05929010Y00602330D01*
X-05922580Y00587510D01*
X-05914530Y00574810D01*
X-05904880Y00566350D01*
X-05892010Y00560000D01*
X-05859840Y00560000D01*
G01X-06024770Y00560000D02*
X-06024770Y00687000D01*
X-06005470Y00661600D01*
G01X-06005470Y00560000D02*
X-06044070Y00560000D01*
G01X-03139900Y-07000000D02*
X-03139900Y-06840000D01*
X-03187660Y-06840000D01*
X-03203580Y-06848000D01*
X-03215520Y-06866670D01*
X-03219500Y-06888000D01*
X-03215520Y-06909330D01*
X-03205570Y-06925330D01*
X-03187660Y-06933340D01*
X-03139900Y-06933340D01*
G01X-03339700Y-06893340D02*
X-03339700Y-07000000D01*
G01X-03339700Y-06850670D02*
X-03335720Y-06848000D01*
X-03335720Y-06842670D01*
X-03339700Y-06840000D01*
X-03343680Y-06842670D01*
X-03343680Y-06848000D01*
X-03339700Y-06850670D01*
G01X-03465870Y-07000000D02*
X-03465870Y-06893340D01*
G01X-03465870Y-06920000D02*
X-03473830Y-06906670D01*
X-03485770Y-06896000D01*
X-03501690Y-06893340D01*
X-03515620Y-06896000D01*
X-03527560Y-06906670D01*
X-03533530Y-06925330D01*
X-03533530Y-07000000D01*
G01X-03659700Y-06840000D02*
X-03659700Y-07000000D01*
G01X-03613930Y-06840000D02*
X-03705470Y-06840000D01*
G01X-03819700Y-07000000D02*
X-03807760Y-06997330D01*
X-03795820Y-06986670D01*
X-03787860Y-06968000D01*
X-03783880Y-06946670D01*
X-03787860Y-06925330D01*
X-03795820Y-06906670D01*
X-03807760Y-06896000D01*
X-03819700Y-06893340D01*
X-03831640Y-06896000D01*
X-03843580Y-06906670D01*
X-03851540Y-06925330D01*
X-03853530Y-06946670D01*
X-03851540Y-06968000D01*
X-03843580Y-06986670D01*
X-03831640Y-06997330D01*
X-03819700Y-07000000D01*
G01X-03920000Y-06840000D02*
X-03947860Y-07000000D01*
X-03979700Y-06840000D01*
X-04011540Y-07000000D01*
X-04039400Y-06840000D01*
G01X-04139700Y-06893340D02*
X-04139700Y-07000000D01*
G01X-04139700Y-06850670D02*
X-04135720Y-06848000D01*
X-04135720Y-06842670D01*
X-04139700Y-06840000D01*
X-04143680Y-06842670D01*
X-04143680Y-06848000D01*
X-04139700Y-06850670D01*
G01X-04265870Y-07000000D02*
X-04265870Y-06893340D01*
G01X-04265870Y-06920000D02*
X-04273830Y-06906670D01*
X-04285770Y-06896000D01*
X-04301690Y-06893340D01*
X-04315620Y-06896000D01*
X-04327560Y-06906670D01*
X-04333530Y-06925330D01*
X-04333530Y-07000000D01*
G01X-04581890Y-06866670D02*
X-04593830Y-06850670D01*
X-04607760Y-06842670D01*
X-04623680Y-06840000D01*
X-04643580Y-06845330D01*
X-04657510Y-06858670D01*
X-04661490Y-06874660D01*
X-04659500Y-06890670D01*
X-04651540Y-06904000D01*
X-04611740Y-06930670D01*
X-04593830Y-06949330D01*
X-04581890Y-06976010D01*
X-04577910Y-07000000D01*
X-04661490Y-07000000D01*
G01X-04779700Y-06840000D02*
X-04763780Y-06845330D01*
X-04751840Y-06858670D01*
X-04743880Y-06874660D01*
X-04737910Y-06896000D01*
X-04735920Y-06920000D01*
X-04737910Y-06944000D01*
X-04743880Y-06965340D01*
X-04751840Y-06981340D01*
X-04763780Y-06994670D01*
X-04779700Y-07000000D01*
X-04795620Y-06994670D01*
X-04807560Y-06981340D01*
X-04815520Y-06965340D01*
X-04821490Y-06944000D01*
X-04823480Y-06920000D01*
X-04821490Y-06896000D01*
X-04815520Y-06874660D01*
X-04807560Y-06858670D01*
X-04795620Y-06845330D01*
X-04779700Y-06840000D01*
G01X-04901890Y-06866670D02*
X-04913830Y-06850670D01*
X-04927760Y-06842670D01*
X-04943680Y-06840000D01*
X-04963580Y-06845330D01*
X-04977510Y-06858670D01*
X-04981490Y-06874660D01*
X-04979500Y-06890670D01*
X-04971540Y-06904000D01*
X-04931740Y-06930670D01*
X-04913830Y-06949330D01*
X-04901890Y-06976010D01*
X-04897910Y-07000000D01*
X-04981490Y-07000000D01*
G01X-05099700Y-07000000D02*
X-05099700Y-06840000D01*
X-05075820Y-06872000D01*
G01X-05075820Y-07000000D02*
X-05123580Y-07000000D01*
G01X-04795070Y-06440000D02*
X-04795070Y-06313000D01*
X-04827240Y-06313000D01*
X-04840110Y-06319350D01*
X-04849760Y-06327820D01*
X-04857810Y-06340510D01*
X-04864240Y-06355340D01*
X-04865850Y-06376500D01*
X-04864240Y-06397670D01*
X-04857810Y-06412490D01*
X-04849760Y-06425190D01*
X-04840110Y-06433650D01*
X-04827240Y-06440000D01*
X-04795070Y-06440000D01*
G01X-04956780Y-06440000D02*
X-04960000Y-06412490D01*
X-04964830Y-06389200D01*
X-04971260Y-06368030D01*
X-04979300Y-06344750D01*
X-04992170Y-06313000D01*
X-04927830Y-06313000D01*
G01X-05062190Y-06425190D02*
X-05073450Y-06435770D01*
X-05086320Y-06440000D01*
X-05099190Y-06435770D01*
X-05110450Y-06423070D01*
X-05118500Y-06404020D01*
X-05121710Y-06384970D01*
X-05121710Y-06361680D01*
X-05118500Y-06342630D01*
X-05110450Y-06325700D01*
X-05100800Y-06317230D01*
X-05089540Y-06313000D01*
X-05076670Y-06317230D01*
X-05067020Y-06325700D01*
X-05060580Y-06338400D01*
X-05057370Y-06355340D01*
X-05060580Y-06370150D01*
X-05068630Y-06384970D01*
X-05078280Y-06393440D01*
X-05089540Y-06395550D01*
X-05102410Y-06391320D01*
X-05112060Y-06380730D01*
X-05121710Y-06361680D01*
G01X-05285390Y-06195770D02*
X-05214610Y-06288900D01*
G01X-05250000Y-06305830D02*
X-05250000Y-06178830D01*
G01X-05214610Y-06195770D02*
X-05285390Y-06288900D01*
G01X-05298260Y-06242330D02*
X-05201740Y-06242330D01*
G01X-05285390Y-05195770D02*
X-05214610Y-05288900D01*
G01X-05250000Y-05305830D02*
X-05250000Y-05178830D01*
G01X-05214610Y-05195770D02*
X-05285390Y-05288900D01*
G01X-05298260Y-05242330D02*
X-05201740Y-05242330D01*
G01X-04795070Y-05440000D02*
X-04795070Y-05313000D01*
X-04827240Y-05313000D01*
X-04840110Y-05319350D01*
X-04849760Y-05327820D01*
X-04857810Y-05340510D01*
X-04864240Y-05355340D01*
X-04865850Y-05376500D01*
X-04864240Y-05397670D01*
X-04857810Y-05412490D01*
X-04849760Y-05425190D01*
X-04840110Y-05433650D01*
X-04827240Y-05440000D01*
X-04795070Y-05440000D01*
G01X-04929430Y-05387090D02*
X-04940700Y-05372270D01*
X-04950350Y-05363800D01*
X-04963220Y-05359570D01*
X-04974480Y-05363800D01*
X-04982520Y-05372270D01*
X-04988960Y-05384970D01*
X-04990570Y-05399780D01*
X-04988960Y-05412490D01*
X-04982520Y-05425190D01*
X-04972870Y-05435770D01*
X-04961610Y-05440000D01*
X-04948740Y-05435770D01*
X-04937480Y-05423070D01*
X-04931040Y-05404020D01*
X-04929430Y-05382850D01*
X-04932650Y-05355340D01*
X-04937480Y-05340510D01*
X-04945520Y-05325700D01*
X-04956780Y-05315120D01*
X-04968040Y-05313000D01*
X-04979300Y-05317230D01*
X-04987350Y-05327820D01*
G01X-05089540Y-05440000D02*
X-05100800Y-05437880D01*
X-05113670Y-05431540D01*
X-05121710Y-05420950D01*
X-05124930Y-05406130D01*
X-05121710Y-05391320D01*
X-05112060Y-05378620D01*
X-05097580Y-05372270D01*
X-05081500Y-05372270D01*
X-05071840Y-05368030D01*
X-05063800Y-05357450D01*
X-05060580Y-05342630D01*
X-05065410Y-05327820D01*
X-05076670Y-05317230D01*
X-05089540Y-05313000D01*
X-05102410Y-05317230D01*
X-05113670Y-05327820D01*
X-05118500Y-05342630D01*
X-05115280Y-05357450D01*
X-05107240Y-05368030D01*
X-05097580Y-05372270D01*
X-05081500Y-05372270D01*
X-05067020Y-05378620D01*
X-05057370Y-05391320D01*
X-05054150Y-05406130D01*
X-05057370Y-05420950D01*
X-05065410Y-05431540D01*
X-05078280Y-05437880D01*
X-05089540Y-05440000D01*
G01X-05285390Y-04195770D02*
X-05214610Y-04288900D01*
G01X-05250000Y-04305830D02*
X-05250000Y-04178830D01*
G01X-05214610Y-04195770D02*
X-05285390Y-04288900D01*
G01X-05298260Y-04242330D02*
X-05201740Y-04242330D01*
G01X-04795070Y-04440000D02*
X-04795070Y-04313000D01*
X-04827240Y-04313000D01*
X-04840110Y-04319350D01*
X-04849760Y-04327820D01*
X-04857810Y-04340510D01*
X-04864240Y-04355340D01*
X-04865850Y-04376500D01*
X-04864240Y-04397670D01*
X-04857810Y-04412490D01*
X-04849760Y-04425190D01*
X-04840110Y-04433650D01*
X-04827240Y-04440000D01*
X-04795070Y-04440000D01*
G01X-04924610Y-04420950D02*
X-04934260Y-04431540D01*
X-04945520Y-04437880D01*
X-04960000Y-04440000D01*
X-04974480Y-04435770D01*
X-04985740Y-04427300D01*
X-04993780Y-04412490D01*
X-04995390Y-04395550D01*
X-04992170Y-04378620D01*
X-04984130Y-04368030D01*
X-04972870Y-04359570D01*
X-04961610Y-04357450D01*
X-04950350Y-04359570D01*
X-04935870Y-04368030D01*
X-04940700Y-04313000D01*
X-04984130Y-04313000D01*
G01X-05086320Y-04440000D02*
X-05089540Y-04412490D01*
X-05094370Y-04389200D01*
X-05100800Y-04368030D01*
X-05108840Y-04344750D01*
X-05121710Y-04313000D01*
X-05057370Y-04313000D01*
G01X-04795070Y-03440000D02*
X-04795070Y-03313000D01*
X-04827240Y-03313000D01*
X-04840110Y-03319350D01*
X-04849760Y-03327820D01*
X-04857810Y-03340510D01*
X-04864240Y-03355340D01*
X-04865850Y-03376500D01*
X-04864240Y-03397670D01*
X-04857810Y-03412490D01*
X-04849760Y-03425190D01*
X-04840110Y-03433650D01*
X-04827240Y-03440000D01*
X-04795070Y-03440000D01*
G01X-04979300Y-03440000D02*
X-04979300Y-03313000D01*
X-04919780Y-03404020D01*
X-05000220Y-03404020D01*
G01X-05058970Y-03387090D02*
X-05070240Y-03372270D01*
X-05079890Y-03363800D01*
X-05092760Y-03359570D01*
X-05104020Y-03363800D01*
X-05112060Y-03372270D01*
X-05118500Y-03384970D01*
X-05120110Y-03399780D01*
X-05118500Y-03412490D01*
X-05112060Y-03425190D01*
X-05102410Y-03435770D01*
X-05091150Y-03440000D01*
X-05078280Y-03435770D01*
X-05067020Y-03423070D01*
X-05060580Y-03404020D01*
X-05058970Y-03382850D01*
X-05062190Y-03355340D01*
X-05067020Y-03340510D01*
X-05075060Y-03325700D01*
X-05086320Y-03315120D01*
X-05097580Y-03313000D01*
X-05108840Y-03317230D01*
X-05116890Y-03327820D01*
G01X-05285390Y-03195770D02*
X-05214610Y-03288900D01*
G01X-05250000Y-03305830D02*
X-05250000Y-03178830D01*
G01X-05214610Y-03195770D02*
X-05285390Y-03288900D01*
G01X-05298260Y-03242330D02*
X-05201740Y-03242330D01*
G01X-05285390Y-02195770D02*
X-05214610Y-02288900D01*
G01X-05250000Y-02305830D02*
X-05250000Y-02178830D01*
G01X-05214610Y-02195770D02*
X-05285390Y-02288900D01*
G01X-05298260Y-02242330D02*
X-05201740Y-02242330D01*
G01X-04795070Y-02440000D02*
X-04795070Y-02313000D01*
X-04827240Y-02313000D01*
X-04840110Y-02319350D01*
X-04849760Y-02327820D01*
X-04857810Y-02340510D01*
X-04864240Y-02355340D01*
X-04865850Y-02376500D01*
X-04864240Y-02397670D01*
X-04857810Y-02412490D01*
X-04849760Y-02425190D01*
X-04840110Y-02433650D01*
X-04827240Y-02440000D01*
X-04795070Y-02440000D01*
G01X-04924610Y-02414600D02*
X-04934260Y-02429420D01*
X-04947130Y-02437880D01*
X-04961610Y-02440000D01*
X-04974480Y-02437880D01*
X-04987350Y-02427300D01*
X-04995390Y-02414600D01*
X-04997000Y-02401900D01*
X-04993780Y-02387090D01*
X-04982520Y-02376500D01*
X-04971260Y-02372270D01*
X-04956780Y-02372270D01*
G01X-04971260Y-02372270D02*
X-04980910Y-02365920D01*
X-04988960Y-02355340D01*
X-04992170Y-02342630D01*
X-04988960Y-02329930D01*
X-04980910Y-02319350D01*
X-04966430Y-02313000D01*
X-04951960Y-02315120D01*
X-04937480Y-02323580D01*
G01X-05054150Y-02420950D02*
X-05063800Y-02431540D01*
X-05075060Y-02437880D01*
X-05089540Y-02440000D01*
X-05104020Y-02435770D01*
X-05115280Y-02427300D01*
X-05123320Y-02412490D01*
X-05124930Y-02395550D01*
X-05121710Y-02378620D01*
X-05113670Y-02368030D01*
X-05102410Y-02359570D01*
X-05091150Y-02357450D01*
X-05079890Y-02359570D01*
X-05065410Y-02368030D01*
X-05070240Y-02313000D01*
X-05113670Y-02313000D01*
G01X-05285390Y-01195770D02*
X-05214610Y-01288900D01*
G01X-05250000Y-01305830D02*
X-05250000Y-01178830D01*
G01X-05214610Y-01195770D02*
X-05285390Y-01288900D01*
G01X-05298260Y-01242330D02*
X-05201740Y-01242330D01*
G01X-04795070Y-01440000D02*
X-04795070Y-01313000D01*
X-04827240Y-01313000D01*
X-04840110Y-01319350D01*
X-04849760Y-01327820D01*
X-04857810Y-01340510D01*
X-04864240Y-01355340D01*
X-04865850Y-01376500D01*
X-04864240Y-01397670D01*
X-04857810Y-01412490D01*
X-04849760Y-01425190D01*
X-04840110Y-01433650D01*
X-04827240Y-01440000D01*
X-04795070Y-01440000D01*
G01X-04929430Y-01334170D02*
X-04939090Y-01321470D01*
X-04950350Y-01315120D01*
X-04963220Y-01313000D01*
X-04979300Y-01317230D01*
X-04990570Y-01327820D01*
X-04993780Y-01340510D01*
X-04992170Y-01353220D01*
X-04985740Y-01363800D01*
X-04953570Y-01384970D01*
X-04939090Y-01399780D01*
X-04929430Y-01420950D01*
X-04926220Y-01440000D01*
X-04993780Y-01440000D01*
G01X-05108840Y-01440000D02*
X-05108840Y-01313000D01*
X-05049320Y-01404020D01*
X-05129760Y-01404020D01*
G01X-04795070Y-00440000D02*
X-04795070Y-00313000D01*
X-04827240Y-00313000D01*
X-04840110Y-00319350D01*
X-04849760Y-00327820D01*
X-04857810Y-00340510D01*
X-04864240Y-00355340D01*
X-04865850Y-00376500D01*
X-04864240Y-00397670D01*
X-04857810Y-00412490D01*
X-04849760Y-00425190D01*
X-04840110Y-00433650D01*
X-04827240Y-00440000D01*
X-04795070Y-00440000D01*
G01X-04960000Y-00440000D02*
X-04960000Y-00313000D01*
X-04940700Y-00338400D01*
G01X-04940700Y-00440000D02*
X-04979300Y-00440000D01*
G01X-05054150Y-00414600D02*
X-05063800Y-00429420D01*
X-05076670Y-00437880D01*
X-05091150Y-00440000D01*
X-05104020Y-00437880D01*
X-05116890Y-00427300D01*
X-05124930Y-00414600D01*
X-05126540Y-00401900D01*
X-05123320Y-00387090D01*
X-05112060Y-00376500D01*
X-05100800Y-00372270D01*
X-05086320Y-00372270D01*
G01X-05100800Y-00372270D02*
X-05110450Y-00365920D01*
X-05118500Y-00355340D01*
X-05121710Y-00342630D01*
X-05118500Y-00329930D01*
X-05110450Y-00319350D01*
X-05095970Y-00313000D01*
X-05081500Y-00315120D01*
X-05067020Y-00323580D01*
G01X-05285390Y-00195770D02*
X-05214610Y-00288900D01*
G01X-05250000Y-00305830D02*
X-05250000Y-00178830D01*
G01X-05214610Y-00195770D02*
X-05285390Y-00288900D01*
G01X-05298260Y-00242330D02*
X-05201740Y-00242330D01*
G01X-05285390Y00804230D02*
X-05214610Y00711100D01*
G01X-05250000Y00694170D02*
X-05250000Y00821170D01*
G01X-05214610Y00804230D02*
X-05285390Y00711100D01*
G01X-05298260Y00757670D02*
X-05201740Y00757670D01*
G01X-04859840Y00560000D02*
X-04859840Y00687000D01*
X-04892010Y00687000D01*
X-04904880Y00680650D01*
X-04914530Y00672180D01*
X-04922580Y00659490D01*
X-04929010Y00644660D01*
X-04930620Y00623500D01*
X-04929010Y00602330D01*
X-04922580Y00587510D01*
X-04914530Y00574810D01*
X-04904880Y00566350D01*
X-04892010Y00560000D01*
X-04859840Y00560000D01*
G01X-04994200Y00665830D02*
X-05003860Y00678530D01*
X-05015120Y00684880D01*
X-05027990Y00687000D01*
X-05044070Y00682770D01*
X-05055340Y00672180D01*
X-05058550Y00659490D01*
X-05056940Y00646780D01*
X-05050510Y00636200D01*
X-05018340Y00615030D01*
X-05003860Y00600220D01*
X-04994200Y00579050D01*
X-04990990Y00560000D01*
X-05058550Y00560000D01*
G01X00250000Y03360000D02*
X00250000Y01360000D01*
X-04850000Y01360000D01*
X-04850000Y03360000D01*
X00250000Y03360000D01*
G01X-04962870Y03027000D02*
X-04962870Y02935980D01*
X-04969300Y02916930D01*
X-04982170Y02904230D01*
X-04998250Y02900000D01*
X-05014330Y02904230D01*
X-05027200Y02916930D01*
X-05033630Y02935980D01*
X-05033630Y03027000D01*
G01X-05127750Y02900000D02*
X-05127750Y03027000D01*
X-05108450Y03001600D01*
G01X-05108450Y02900000D02*
X-05147050Y02900000D01*
G01X-04285390Y-06195770D02*
X-04214610Y-06288900D01*
G01X-04250000Y-06305830D02*
X-04250000Y-06178830D01*
G01X-04214610Y-06195770D02*
X-04285390Y-06288900D01*
G01X-04298260Y-06242330D02*
X-04201740Y-06242330D01*
G01X-04285390Y-05195770D02*
X-04214610Y-05288900D01*
G01X-04250000Y-05305830D02*
X-04250000Y-05178830D01*
G01X-04214610Y-05195770D02*
X-04285390Y-05288900D01*
G01X-04298260Y-05242330D02*
X-04201740Y-05242330D01*
G01X-04285390Y-04195770D02*
X-04214610Y-04288900D01*
G01X-04250000Y-04305830D02*
X-04250000Y-04178830D01*
G01X-04214610Y-04195770D02*
X-04285390Y-04288900D01*
G01X-04298260Y-04242330D02*
X-04201740Y-04242330D01*
G01X-04285390Y-03195770D02*
X-04214610Y-03288900D01*
G01X-04250000Y-03305830D02*
X-04250000Y-03178830D01*
G01X-04214610Y-03195770D02*
X-04285390Y-03288900D01*
G01X-04298260Y-03242330D02*
X-04201740Y-03242330D01*
G01X-04285390Y-02195770D02*
X-04214610Y-02288900D01*
G01X-04250000Y-02305830D02*
X-04250000Y-02178830D01*
G01X-04214610Y-02195770D02*
X-04285390Y-02288900D01*
G01X-04298260Y-02242330D02*
X-04201740Y-02242330D01*
G01X-04285390Y-01195770D02*
X-04214610Y-01288900D01*
G01X-04250000Y-01305830D02*
X-04250000Y-01178830D01*
G01X-04214610Y-01195770D02*
X-04285390Y-01288900D01*
G01X-04298260Y-01242330D02*
X-04201740Y-01242330D01*
G01X-04285390Y-00195770D02*
X-04214610Y-00288900D01*
G01X-04250000Y-00305830D02*
X-04250000Y-00178830D01*
G01X-04214610Y-00195770D02*
X-04285390Y-00288900D01*
G01X-04298260Y-00242330D02*
X-04201740Y-00242330D01*
G01X-04285390Y00779230D02*
X-04214610Y00686100D01*
G01X-04250000Y00669170D02*
X-04250000Y00796170D01*
G01X-04214610Y00779230D02*
X-04285390Y00686100D01*
G01X-04298260Y00732670D02*
X-04201740Y00732670D01*
G01X-03795070Y-06440000D02*
X-03795070Y-06313000D01*
X-03827240Y-06313000D01*
X-03840110Y-06319350D01*
X-03849760Y-06327820D01*
X-03857810Y-06340510D01*
X-03864240Y-06355340D01*
X-03865850Y-06376500D01*
X-03864240Y-06397670D01*
X-03857810Y-06412490D01*
X-03849760Y-06425190D01*
X-03840110Y-06433650D01*
X-03827240Y-06440000D01*
X-03795070Y-06440000D01*
G01X-03960000Y-06440000D02*
X-03971260Y-06437880D01*
X-03984130Y-06431540D01*
X-03992170Y-06420950D01*
X-03995390Y-06406130D01*
X-03992170Y-06391320D01*
X-03982520Y-06378620D01*
X-03968040Y-06372270D01*
X-03951960Y-06372270D01*
X-03942300Y-06368030D01*
X-03934260Y-06357450D01*
X-03931040Y-06342630D01*
X-03935870Y-06327820D01*
X-03947130Y-06317230D01*
X-03960000Y-06313000D01*
X-03972870Y-06317230D01*
X-03984130Y-06327820D01*
X-03988960Y-06342630D01*
X-03985740Y-06357450D01*
X-03977700Y-06368030D01*
X-03968040Y-06372270D01*
X-03951960Y-06372270D01*
X-03937480Y-06378620D01*
X-03927830Y-06391320D01*
X-03924610Y-06406130D01*
X-03927830Y-06420950D01*
X-03935870Y-06431540D01*
X-03948740Y-06437880D01*
X-03960000Y-06440000D01*
G01X-04089540Y-06313000D02*
X-04076670Y-06317230D01*
X-04067020Y-06327820D01*
X-04060580Y-06340510D01*
X-04055760Y-06357450D01*
X-04054150Y-06376500D01*
X-04055760Y-06395550D01*
X-04060580Y-06412490D01*
X-04067020Y-06425190D01*
X-04076670Y-06435770D01*
X-04089540Y-06440000D01*
X-04102410Y-06435770D01*
X-04112060Y-06425190D01*
X-04118500Y-06412490D01*
X-04123320Y-06395550D01*
X-04124930Y-06376500D01*
X-04123320Y-06357450D01*
X-04118500Y-06340510D01*
X-04112060Y-06327820D01*
X-04102410Y-06317230D01*
X-04089540Y-06313000D01*
G01X-03795070Y-05440000D02*
X-03795070Y-05313000D01*
X-03827240Y-05313000D01*
X-03840110Y-05319350D01*
X-03849760Y-05327820D01*
X-03857810Y-05340510D01*
X-03864240Y-05355340D01*
X-03865850Y-05376500D01*
X-03864240Y-05397670D01*
X-03857810Y-05412490D01*
X-03849760Y-05425190D01*
X-03840110Y-05433650D01*
X-03827240Y-05440000D01*
X-03795070Y-05440000D01*
G01X-03929430Y-05387090D02*
X-03940700Y-05372270D01*
X-03950350Y-05363800D01*
X-03963220Y-05359570D01*
X-03974480Y-05363800D01*
X-03982520Y-05372270D01*
X-03988960Y-05384970D01*
X-03990570Y-05399780D01*
X-03988960Y-05412490D01*
X-03982520Y-05425190D01*
X-03972870Y-05435770D01*
X-03961610Y-05440000D01*
X-03948740Y-05435770D01*
X-03937480Y-05423070D01*
X-03931040Y-05404020D01*
X-03929430Y-05382850D01*
X-03932650Y-05355340D01*
X-03937480Y-05340510D01*
X-03945520Y-05325700D01*
X-03956780Y-05315120D01*
X-03968040Y-05313000D01*
X-03979300Y-05317230D01*
X-03987350Y-05327820D01*
G01X-04062190Y-05425190D02*
X-04073450Y-05435770D01*
X-04086320Y-05440000D01*
X-04099190Y-05435770D01*
X-04110450Y-05423070D01*
X-04118500Y-05404020D01*
X-04121710Y-05384970D01*
X-04121710Y-05361680D01*
X-04118500Y-05342630D01*
X-04110450Y-05325700D01*
X-04100800Y-05317230D01*
X-04089540Y-05313000D01*
X-04076670Y-05317230D01*
X-04067020Y-05325700D01*
X-04060580Y-05338400D01*
X-04057370Y-05355340D01*
X-04060580Y-05370150D01*
X-04068630Y-05384970D01*
X-04078280Y-05393440D01*
X-04089540Y-05395550D01*
X-04102410Y-05391320D01*
X-04112060Y-05380730D01*
X-04121710Y-05361680D01*
G01X-03795070Y-04440000D02*
X-03795070Y-04313000D01*
X-03827240Y-04313000D01*
X-03840110Y-04319350D01*
X-03849760Y-04327820D01*
X-03857810Y-04340510D01*
X-03864240Y-04355340D01*
X-03865850Y-04376500D01*
X-03864240Y-04397670D01*
X-03857810Y-04412490D01*
X-03849760Y-04425190D01*
X-03840110Y-04433650D01*
X-03827240Y-04440000D01*
X-03795070Y-04440000D01*
G01X-03924610Y-04420950D02*
X-03934260Y-04431540D01*
X-03945520Y-04437880D01*
X-03960000Y-04440000D01*
X-03974480Y-04435770D01*
X-03985740Y-04427300D01*
X-03993780Y-04412490D01*
X-03995390Y-04395550D01*
X-03992170Y-04378620D01*
X-03984130Y-04368030D01*
X-03972870Y-04359570D01*
X-03961610Y-04357450D01*
X-03950350Y-04359570D01*
X-03935870Y-04368030D01*
X-03940700Y-04313000D01*
X-03984130Y-04313000D01*
G01X-04089540Y-04440000D02*
X-04100800Y-04437880D01*
X-04113670Y-04431540D01*
X-04121710Y-04420950D01*
X-04124930Y-04406130D01*
X-04121710Y-04391320D01*
X-04112060Y-04378620D01*
X-04097580Y-04372270D01*
X-04081500Y-04372270D01*
X-04071840Y-04368030D01*
X-04063800Y-04357450D01*
X-04060580Y-04342630D01*
X-04065410Y-04327820D01*
X-04076670Y-04317230D01*
X-04089540Y-04313000D01*
X-04102410Y-04317230D01*
X-04113670Y-04327820D01*
X-04118500Y-04342630D01*
X-04115280Y-04357450D01*
X-04107240Y-04368030D01*
X-04097580Y-04372270D01*
X-04081500Y-04372270D01*
X-04067020Y-04378620D01*
X-04057370Y-04391320D01*
X-04054150Y-04406130D01*
X-04057370Y-04420950D01*
X-04065410Y-04431540D01*
X-04078280Y-04437880D01*
X-04089540Y-04440000D01*
G01X-03795070Y-03440000D02*
X-03795070Y-03313000D01*
X-03827240Y-03313000D01*
X-03840110Y-03319350D01*
X-03849760Y-03327820D01*
X-03857810Y-03340510D01*
X-03864240Y-03355340D01*
X-03865850Y-03376500D01*
X-03864240Y-03397670D01*
X-03857810Y-03412490D01*
X-03849760Y-03425190D01*
X-03840110Y-03433650D01*
X-03827240Y-03440000D01*
X-03795070Y-03440000D01*
G01X-03979300Y-03440000D02*
X-03979300Y-03313000D01*
X-03919780Y-03404020D01*
X-04000220Y-03404020D01*
G01X-04086320Y-03440000D02*
X-04089540Y-03412490D01*
X-04094370Y-03389200D01*
X-04100800Y-03368030D01*
X-04108840Y-03344750D01*
X-04121710Y-03313000D01*
X-04057370Y-03313000D01*
G01X-03795070Y-02440000D02*
X-03795070Y-02313000D01*
X-03827240Y-02313000D01*
X-03840110Y-02319350D01*
X-03849760Y-02327820D01*
X-03857810Y-02340510D01*
X-03864240Y-02355340D01*
X-03865850Y-02376500D01*
X-03864240Y-02397670D01*
X-03857810Y-02412490D01*
X-03849760Y-02425190D01*
X-03840110Y-02433650D01*
X-03827240Y-02440000D01*
X-03795070Y-02440000D01*
G01X-03924610Y-02414600D02*
X-03934260Y-02429420D01*
X-03947130Y-02437880D01*
X-03961610Y-02440000D01*
X-03974480Y-02437880D01*
X-03987350Y-02427300D01*
X-03995390Y-02414600D01*
X-03997000Y-02401900D01*
X-03993780Y-02387090D01*
X-03982520Y-02376500D01*
X-03971260Y-02372270D01*
X-03956780Y-02372270D01*
G01X-03971260Y-02372270D02*
X-03980910Y-02365920D01*
X-03988960Y-02355340D01*
X-03992170Y-02342630D01*
X-03988960Y-02329930D01*
X-03980910Y-02319350D01*
X-03966430Y-02313000D01*
X-03951960Y-02315120D01*
X-03937480Y-02323580D01*
G01X-04058970Y-02387090D02*
X-04070240Y-02372270D01*
X-04079890Y-02363800D01*
X-04092760Y-02359570D01*
X-04104020Y-02363800D01*
X-04112060Y-02372270D01*
X-04118500Y-02384970D01*
X-04120110Y-02399780D01*
X-04118500Y-02412490D01*
X-04112060Y-02425190D01*
X-04102410Y-02435770D01*
X-04091150Y-02440000D01*
X-04078280Y-02435770D01*
X-04067020Y-02423070D01*
X-04060580Y-02404020D01*
X-04058970Y-02382850D01*
X-04062190Y-02355340D01*
X-04067020Y-02340510D01*
X-04075060Y-02325700D01*
X-04086320Y-02315120D01*
X-04097580Y-02313000D01*
X-04108840Y-02317230D01*
X-04116890Y-02327820D01*
G01X-03795070Y-01440000D02*
X-03795070Y-01313000D01*
X-03827240Y-01313000D01*
X-03840110Y-01319350D01*
X-03849760Y-01327820D01*
X-03857810Y-01340510D01*
X-03864240Y-01355340D01*
X-03865850Y-01376500D01*
X-03864240Y-01397670D01*
X-03857810Y-01412490D01*
X-03849760Y-01425190D01*
X-03840110Y-01433650D01*
X-03827240Y-01440000D01*
X-03795070Y-01440000D01*
G01X-03929430Y-01334170D02*
X-03939090Y-01321470D01*
X-03950350Y-01315120D01*
X-03963220Y-01313000D01*
X-03979300Y-01317230D01*
X-03990570Y-01327820D01*
X-03993780Y-01340510D01*
X-03992170Y-01353220D01*
X-03985740Y-01363800D01*
X-03953570Y-01384970D01*
X-03939090Y-01399780D01*
X-03929430Y-01420950D01*
X-03926220Y-01440000D01*
X-03993780Y-01440000D01*
G01X-04054150Y-01420950D02*
X-04063800Y-01431540D01*
X-04075060Y-01437880D01*
X-04089540Y-01440000D01*
X-04104020Y-01435770D01*
X-04115280Y-01427300D01*
X-04123320Y-01412490D01*
X-04124930Y-01395550D01*
X-04121710Y-01378620D01*
X-04113670Y-01368030D01*
X-04102410Y-01359570D01*
X-04091150Y-01357450D01*
X-04079890Y-01359570D01*
X-04065410Y-01368030D01*
X-04070240Y-01313000D01*
X-04113670Y-01313000D01*
G01X-03795070Y-00440000D02*
X-03795070Y-00313000D01*
X-03827240Y-00313000D01*
X-03840110Y-00319350D01*
X-03849760Y-00327820D01*
X-03857810Y-00340510D01*
X-03864240Y-00355340D01*
X-03865850Y-00376500D01*
X-03864240Y-00397670D01*
X-03857810Y-00412490D01*
X-03849760Y-00425190D01*
X-03840110Y-00433650D01*
X-03827240Y-00440000D01*
X-03795070Y-00440000D01*
G01X-03960000Y-00440000D02*
X-03960000Y-00313000D01*
X-03940700Y-00338400D01*
G01X-03940700Y-00440000D02*
X-03979300Y-00440000D01*
G01X-04108840Y-00440000D02*
X-04108840Y-00313000D01*
X-04049320Y-00404020D01*
X-04129760Y-00404020D01*
G01X-03859840Y00560000D02*
X-03859840Y00687000D01*
X-03892010Y00687000D01*
X-03904880Y00680650D01*
X-03914530Y00672180D01*
X-03922580Y00659490D01*
X-03929010Y00644660D01*
X-03930620Y00623500D01*
X-03929010Y00602330D01*
X-03922580Y00587510D01*
X-03914530Y00574810D01*
X-03904880Y00566350D01*
X-03892010Y00560000D01*
X-03859840Y00560000D01*
G01X-03989380Y00585400D02*
X-03999030Y00570580D01*
X-04011900Y00562120D01*
X-04026380Y00560000D01*
X-04039250Y00562120D01*
X-04052120Y00572700D01*
X-04060160Y00585400D01*
X-04061770Y00598100D01*
X-04058550Y00612910D01*
X-04047290Y00623500D01*
X-04036030Y00627730D01*
X-04021550Y00627730D01*
G01X-04036030Y00627730D02*
X-04045680Y00634080D01*
X-04053730Y00644660D01*
X-04056940Y00657370D01*
X-04053730Y00670070D01*
X-04045680Y00680650D01*
X-04031200Y00687000D01*
X-04016730Y00684880D01*
X-04002250Y00676420D01*
G01X-00136830Y-07000000D02*
X00020630Y-07000000D01*
X00020630Y-06682500D01*
X-00136830Y-06682500D01*
G01X-00073850Y-06835950D02*
X00020630Y-06835950D01*
G01X-00302140Y-06788340D02*
X-00373000Y-07000000D01*
X-00443860Y-06788340D01*
G01X-00758760Y-07000000D02*
X-00758760Y-06788340D01*
G01X-00758760Y-06825370D02*
X-00743010Y-06804210D01*
X-00719390Y-06793630D01*
X-00691840Y-06788340D01*
X-00664280Y-06798920D01*
X-00640660Y-06820080D01*
X-00624910Y-06851840D01*
X-00617040Y-06894170D01*
X-00624910Y-06936500D01*
X-00640660Y-06968260D01*
X-00664280Y-06989420D01*
X-00691840Y-07000000D01*
X-00719390Y-06994710D01*
X-00743010Y-06978840D01*
X-00758760Y-06957680D01*
G01X-01002800Y-07000000D02*
X-01002800Y-06682500D01*
G01X-01266520Y-06894170D02*
X-01368880Y-06894170D01*
G01X-01664090Y-06830660D02*
X-01679840Y-06814790D01*
X-01691650Y-06788340D01*
X-01699530Y-06751290D01*
X-01691650Y-06719540D01*
X-01675900Y-06698380D01*
X-01648350Y-06682500D01*
X-01542060Y-06682500D01*
X-01542060Y-07000000D01*
X-01671970Y-07000000D01*
X-01699530Y-06978840D01*
X-01715270Y-06947080D01*
X-01723140Y-06910040D01*
X-01715270Y-06873010D01*
X-01691650Y-06841250D01*
X-01664090Y-06830660D01*
X-01542060Y-06830660D01*
G01X-01947500Y-07000000D02*
X-01923880Y-06994710D01*
X-01900260Y-06973550D01*
X-01884510Y-06936500D01*
X-01876640Y-06894170D01*
X-01884510Y-06851840D01*
X-01900260Y-06814790D01*
X-01923880Y-06793630D01*
X-01947500Y-06788340D01*
X-01971120Y-06793630D01*
X-01994740Y-06814790D01*
X-02010480Y-06851840D01*
X-02014430Y-06894170D01*
X-02010480Y-06936500D01*
X-01994740Y-06973550D01*
X-01971120Y-06994710D01*
X-01947500Y-07000000D01*
G01X-02333260Y-07000000D02*
X-02333260Y-06788340D01*
G01X-02333260Y-06825370D02*
X-02317510Y-06804210D01*
X-02293890Y-06793630D01*
X-02266340Y-06788340D01*
X-02238780Y-06798920D01*
X-02215160Y-06820080D01*
X-02199410Y-06851840D01*
X-02191540Y-06894170D01*
X-02199410Y-06936500D01*
X-02215160Y-06968260D01*
X-02238780Y-06989420D01*
X-02266340Y-07000000D01*
X-02293890Y-06994710D01*
X-02317510Y-06978840D01*
X-02333260Y-06957680D01*
G01X-02522190Y-07000000D02*
X-02522190Y-06788340D01*
G01X-02522190Y-06830660D02*
X-02541870Y-06809500D01*
X-02561550Y-06793630D01*
X-02589110Y-06788340D01*
X-02608790Y-06793630D01*
X-02632410Y-06809500D01*
G01X-02963060Y-06682500D02*
X-02963060Y-07000000D01*
G01X-02963060Y-06952390D02*
X-02947310Y-06978840D01*
X-02923690Y-06994710D01*
X-02896140Y-07000000D01*
X-02864650Y-06989420D01*
X-02841020Y-06962970D01*
X-02825270Y-06931210D01*
X-02821340Y-06894170D01*
X-02825270Y-06857130D01*
X-02841020Y-06825370D01*
X-02864650Y-06798920D01*
X-02896140Y-06788340D01*
X-02923690Y-06793630D01*
X-02943380Y-06804210D01*
X-02963060Y-06825370D01*
G01X-02795070Y-06440000D02*
X-02795070Y-06313000D01*
X-02827240Y-06313000D01*
X-02840110Y-06319350D01*
X-02849760Y-06327820D01*
X-02857810Y-06340510D01*
X-02864240Y-06355340D01*
X-02865850Y-06376500D01*
X-02864240Y-06397670D01*
X-02857810Y-06412490D01*
X-02849760Y-06425190D01*
X-02840110Y-06433650D01*
X-02827240Y-06440000D01*
X-02795070Y-06440000D01*
G01X-02960000Y-06440000D02*
X-02971260Y-06437880D01*
X-02984130Y-06431540D01*
X-02992170Y-06420950D01*
X-02995390Y-06406130D01*
X-02992170Y-06391320D01*
X-02982520Y-06378620D01*
X-02968040Y-06372270D01*
X-02951960Y-06372270D01*
X-02942300Y-06368030D01*
X-02934260Y-06357450D01*
X-02931040Y-06342630D01*
X-02935870Y-06327820D01*
X-02947130Y-06317230D01*
X-02960000Y-06313000D01*
X-02972870Y-06317230D01*
X-02984130Y-06327820D01*
X-02988960Y-06342630D01*
X-02985740Y-06357450D01*
X-02977700Y-06368030D01*
X-02968040Y-06372270D01*
X-02951960Y-06372270D01*
X-02937480Y-06378620D01*
X-02927830Y-06391320D01*
X-02924610Y-06406130D01*
X-02927830Y-06420950D01*
X-02935870Y-06431540D01*
X-02948740Y-06437880D01*
X-02960000Y-06440000D01*
G01X-03089540Y-06440000D02*
X-03089540Y-06313000D01*
X-03070240Y-06338400D01*
G01X-03070240Y-06440000D02*
X-03108840Y-06440000D01*
G01X-03285390Y-06195770D02*
X-03214610Y-06288900D01*
G01X-03250000Y-06305830D02*
X-03250000Y-06178830D01*
G01X-03214610Y-06195770D02*
X-03285390Y-06288900D01*
G01X-03298260Y-06242330D02*
X-03201740Y-06242330D01*
G01X-03285390Y-05195770D02*
X-03214610Y-05288900D01*
G01X-03250000Y-05305830D02*
X-03250000Y-05178830D01*
G01X-03214610Y-05195770D02*
X-03285390Y-05288900D01*
G01X-03298260Y-05242330D02*
X-03201740Y-05242330D01*
G01X-02795070Y-05440000D02*
X-02795070Y-05313000D01*
X-02827240Y-05313000D01*
X-02840110Y-05319350D01*
X-02849760Y-05327820D01*
X-02857810Y-05340510D01*
X-02864240Y-05355340D01*
X-02865850Y-05376500D01*
X-02864240Y-05397670D01*
X-02857810Y-05412490D01*
X-02849760Y-05425190D01*
X-02840110Y-05433650D01*
X-02827240Y-05440000D01*
X-02795070Y-05440000D01*
G01X-02956780Y-05440000D02*
X-02960000Y-05412490D01*
X-02964830Y-05389200D01*
X-02971260Y-05368030D01*
X-02979300Y-05344750D01*
X-02992170Y-05313000D01*
X-02927830Y-05313000D01*
G01X-03089540Y-05313000D02*
X-03076670Y-05317230D01*
X-03067020Y-05327820D01*
X-03060580Y-05340510D01*
X-03055760Y-05357450D01*
X-03054150Y-05376500D01*
X-03055760Y-05395550D01*
X-03060580Y-05412490D01*
X-03067020Y-05425190D01*
X-03076670Y-05435770D01*
X-03089540Y-05440000D01*
X-03102410Y-05435770D01*
X-03112060Y-05425190D01*
X-03118500Y-05412490D01*
X-03123320Y-05395550D01*
X-03124930Y-05376500D01*
X-03123320Y-05357450D01*
X-03118500Y-05340510D01*
X-03112060Y-05327820D01*
X-03102410Y-05317230D01*
X-03089540Y-05313000D01*
G01X-03285390Y-04195770D02*
X-03214610Y-04288900D01*
G01X-03250000Y-04305830D02*
X-03250000Y-04178830D01*
G01X-03214610Y-04195770D02*
X-03285390Y-04288900D01*
G01X-03298260Y-04242330D02*
X-03201740Y-04242330D01*
G01X-02795070Y-04440000D02*
X-02795070Y-04313000D01*
X-02827240Y-04313000D01*
X-02840110Y-04319350D01*
X-02849760Y-04327820D01*
X-02857810Y-04340510D01*
X-02864240Y-04355340D01*
X-02865850Y-04376500D01*
X-02864240Y-04397670D01*
X-02857810Y-04412490D01*
X-02849760Y-04425190D01*
X-02840110Y-04433650D01*
X-02827240Y-04440000D01*
X-02795070Y-04440000D01*
G01X-02924610Y-04420950D02*
X-02934260Y-04431540D01*
X-02945520Y-04437880D01*
X-02960000Y-04440000D01*
X-02974480Y-04435770D01*
X-02985740Y-04427300D01*
X-02993780Y-04412490D01*
X-02995390Y-04395550D01*
X-02992170Y-04378620D01*
X-02984130Y-04368030D01*
X-02972870Y-04359570D01*
X-02961610Y-04357450D01*
X-02950350Y-04359570D01*
X-02935870Y-04368030D01*
X-02940700Y-04313000D01*
X-02984130Y-04313000D01*
G01X-03062190Y-04425190D02*
X-03073450Y-04435770D01*
X-03086320Y-04440000D01*
X-03099190Y-04435770D01*
X-03110450Y-04423070D01*
X-03118500Y-04404020D01*
X-03121710Y-04384970D01*
X-03121710Y-04361680D01*
X-03118500Y-04342630D01*
X-03110450Y-04325700D01*
X-03100800Y-04317230D01*
X-03089540Y-04313000D01*
X-03076670Y-04317230D01*
X-03067020Y-04325700D01*
X-03060580Y-04338400D01*
X-03057370Y-04355340D01*
X-03060580Y-04370150D01*
X-03068630Y-04384970D01*
X-03078280Y-04393440D01*
X-03089540Y-04395550D01*
X-03102410Y-04391320D01*
X-03112060Y-04380730D01*
X-03121710Y-04361680D01*
G01X-02795070Y-03440000D02*
X-02795070Y-03313000D01*
X-02827240Y-03313000D01*
X-02840110Y-03319350D01*
X-02849760Y-03327820D01*
X-02857810Y-03340510D01*
X-02864240Y-03355340D01*
X-02865850Y-03376500D01*
X-02864240Y-03397670D01*
X-02857810Y-03412490D01*
X-02849760Y-03425190D01*
X-02840110Y-03433650D01*
X-02827240Y-03440000D01*
X-02795070Y-03440000D01*
G01X-02979300Y-03440000D02*
X-02979300Y-03313000D01*
X-02919780Y-03404020D01*
X-03000220Y-03404020D01*
G01X-03089540Y-03440000D02*
X-03100800Y-03437880D01*
X-03113670Y-03431540D01*
X-03121710Y-03420950D01*
X-03124930Y-03406130D01*
X-03121710Y-03391320D01*
X-03112060Y-03378620D01*
X-03097580Y-03372270D01*
X-03081500Y-03372270D01*
X-03071840Y-03368030D01*
X-03063800Y-03357450D01*
X-03060580Y-03342630D01*
X-03065410Y-03327820D01*
X-03076670Y-03317230D01*
X-03089540Y-03313000D01*
X-03102410Y-03317230D01*
X-03113670Y-03327820D01*
X-03118500Y-03342630D01*
X-03115280Y-03357450D01*
X-03107240Y-03368030D01*
X-03097580Y-03372270D01*
X-03081500Y-03372270D01*
X-03067020Y-03378620D01*
X-03057370Y-03391320D01*
X-03054150Y-03406130D01*
X-03057370Y-03420950D01*
X-03065410Y-03431540D01*
X-03078280Y-03437880D01*
X-03089540Y-03440000D01*
G01X-03285390Y-03195770D02*
X-03214610Y-03288900D01*
G01X-03250000Y-03305830D02*
X-03250000Y-03178830D01*
G01X-03214610Y-03195770D02*
X-03285390Y-03288900D01*
G01X-03298260Y-03242330D02*
X-03201740Y-03242330D01*
G01X-03285390Y-02195770D02*
X-03214610Y-02288900D01*
G01X-03250000Y-02305830D02*
X-03250000Y-02178830D01*
G01X-03214610Y-02195770D02*
X-03285390Y-02288900D01*
G01X-03298260Y-02242330D02*
X-03201740Y-02242330D01*
G01X-02795070Y-02440000D02*
X-02795070Y-02313000D01*
X-02827240Y-02313000D01*
X-02840110Y-02319350D01*
X-02849760Y-02327820D01*
X-02857810Y-02340510D01*
X-02864240Y-02355340D01*
X-02865850Y-02376500D01*
X-02864240Y-02397670D01*
X-02857810Y-02412490D01*
X-02849760Y-02425190D01*
X-02840110Y-02433650D01*
X-02827240Y-02440000D01*
X-02795070Y-02440000D01*
G01X-02924610Y-02414600D02*
X-02934260Y-02429420D01*
X-02947130Y-02437880D01*
X-02961610Y-02440000D01*
X-02974480Y-02437880D01*
X-02987350Y-02427300D01*
X-02995390Y-02414600D01*
X-02997000Y-02401900D01*
X-02993780Y-02387090D01*
X-02982520Y-02376500D01*
X-02971260Y-02372270D01*
X-02956780Y-02372270D01*
G01X-02971260Y-02372270D02*
X-02980910Y-02365920D01*
X-02988960Y-02355340D01*
X-02992170Y-02342630D01*
X-02988960Y-02329930D01*
X-02980910Y-02319350D01*
X-02966430Y-02313000D01*
X-02951960Y-02315120D01*
X-02937480Y-02323580D01*
G01X-03086320Y-02440000D02*
X-03089540Y-02412490D01*
X-03094370Y-02389200D01*
X-03100800Y-02368030D01*
X-03108840Y-02344750D01*
X-03121710Y-02313000D01*
X-03057370Y-02313000D01*
G01X-03285390Y-01195770D02*
X-03214610Y-01288900D01*
G01X-03250000Y-01305830D02*
X-03250000Y-01178830D01*
G01X-03214610Y-01195770D02*
X-03285390Y-01288900D01*
G01X-03298260Y-01242330D02*
X-03201740Y-01242330D01*
G01X-02795070Y-01440000D02*
X-02795070Y-01313000D01*
X-02827240Y-01313000D01*
X-02840110Y-01319350D01*
X-02849760Y-01327820D01*
X-02857810Y-01340510D01*
X-02864240Y-01355340D01*
X-02865850Y-01376500D01*
X-02864240Y-01397670D01*
X-02857810Y-01412490D01*
X-02849760Y-01425190D01*
X-02840110Y-01433650D01*
X-02827240Y-01440000D01*
X-02795070Y-01440000D01*
G01X-02929430Y-01334170D02*
X-02939090Y-01321470D01*
X-02950350Y-01315120D01*
X-02963220Y-01313000D01*
X-02979300Y-01317230D01*
X-02990570Y-01327820D01*
X-02993780Y-01340510D01*
X-02992170Y-01353220D01*
X-02985740Y-01363800D01*
X-02953570Y-01384970D01*
X-02939090Y-01399780D01*
X-02929430Y-01420950D01*
X-02926220Y-01440000D01*
X-02993780Y-01440000D01*
G01X-03058970Y-01387090D02*
X-03070240Y-01372270D01*
X-03079890Y-01363800D01*
X-03092760Y-01359570D01*
X-03104020Y-01363800D01*
X-03112060Y-01372270D01*
X-03118500Y-01384970D01*
X-03120110Y-01399780D01*
X-03118500Y-01412490D01*
X-03112060Y-01425190D01*
X-03102410Y-01435770D01*
X-03091150Y-01440000D01*
X-03078280Y-01435770D01*
X-03067020Y-01423070D01*
X-03060580Y-01404020D01*
X-03058970Y-01382850D01*
X-03062190Y-01355340D01*
X-03067020Y-01340510D01*
X-03075060Y-01325700D01*
X-03086320Y-01315120D01*
X-03097580Y-01313000D01*
X-03108840Y-01317230D01*
X-03116890Y-01327820D01*
G01X-02795070Y-00440000D02*
X-02795070Y-00313000D01*
X-02827240Y-00313000D01*
X-02840110Y-00319350D01*
X-02849760Y-00327820D01*
X-02857810Y-00340510D01*
X-02864240Y-00355340D01*
X-02865850Y-00376500D01*
X-02864240Y-00397670D01*
X-02857810Y-00412490D01*
X-02849760Y-00425190D01*
X-02840110Y-00433650D01*
X-02827240Y-00440000D01*
X-02795070Y-00440000D01*
G01X-02960000Y-00440000D02*
X-02960000Y-00313000D01*
X-02940700Y-00338400D01*
G01X-02940700Y-00440000D02*
X-02979300Y-00440000D01*
G01X-03054150Y-00420950D02*
X-03063800Y-00431540D01*
X-03075060Y-00437880D01*
X-03089540Y-00440000D01*
X-03104020Y-00435770D01*
X-03115280Y-00427300D01*
X-03123320Y-00412490D01*
X-03124930Y-00395550D01*
X-03121710Y-00378620D01*
X-03113670Y-00368030D01*
X-03102410Y-00359570D01*
X-03091150Y-00357450D01*
X-03079890Y-00359570D01*
X-03065410Y-00368030D01*
X-03070240Y-00313000D01*
X-03113670Y-00313000D01*
G01X-03285390Y-00195770D02*
X-03214610Y-00288900D01*
G01X-03250000Y-00305830D02*
X-03250000Y-00178830D01*
G01X-03214610Y-00195770D02*
X-03285390Y-00288900D01*
G01X-03298260Y-00242330D02*
X-03201740Y-00242330D01*
G01X-03285390Y00804230D02*
X-03214610Y00711100D01*
G01X-03250000Y00694170D02*
X-03250000Y00821170D01*
G01X-03214610Y00804230D02*
X-03285390Y00711100D01*
G01X-03298260Y00757670D02*
X-03201740Y00757670D01*
G01X-02859840Y00560000D02*
X-02859840Y00687000D01*
X-02892010Y00687000D01*
X-02904880Y00680650D01*
X-02914530Y00672180D01*
X-02922580Y00659490D01*
X-02929010Y00644660D01*
X-02930620Y00623500D01*
X-02929010Y00602330D01*
X-02922580Y00587510D01*
X-02914530Y00574810D01*
X-02904880Y00566350D01*
X-02892010Y00560000D01*
X-02859840Y00560000D01*
G01X-03044070Y00560000D02*
X-03044070Y00687000D01*
X-02984550Y00595980D01*
X-03064990Y00595980D01*
G01X-01795070Y-06440000D02*
X-01795070Y-06313000D01*
X-01827240Y-06313000D01*
X-01840110Y-06319350D01*
X-01849760Y-06327820D01*
X-01857810Y-06340510D01*
X-01864240Y-06355340D01*
X-01865850Y-06376500D01*
X-01864240Y-06397670D01*
X-01857810Y-06412490D01*
X-01849760Y-06425190D01*
X-01840110Y-06433650D01*
X-01827240Y-06440000D01*
X-01795070Y-06440000D01*
G01X-01960000Y-06440000D02*
X-01971260Y-06437880D01*
X-01984130Y-06431540D01*
X-01992170Y-06420950D01*
X-01995390Y-06406130D01*
X-01992170Y-06391320D01*
X-01982520Y-06378620D01*
X-01968040Y-06372270D01*
X-01951960Y-06372270D01*
X-01942300Y-06368030D01*
X-01934260Y-06357450D01*
X-01931040Y-06342630D01*
X-01935870Y-06327820D01*
X-01947130Y-06317230D01*
X-01960000Y-06313000D01*
X-01972870Y-06317230D01*
X-01984130Y-06327820D01*
X-01988960Y-06342630D01*
X-01985740Y-06357450D01*
X-01977700Y-06368030D01*
X-01968040Y-06372270D01*
X-01951960Y-06372270D01*
X-01937480Y-06378620D01*
X-01927830Y-06391320D01*
X-01924610Y-06406130D01*
X-01927830Y-06420950D01*
X-01935870Y-06431540D01*
X-01948740Y-06437880D01*
X-01960000Y-06440000D01*
G01X-02058970Y-06334170D02*
X-02068630Y-06321470D01*
X-02079890Y-06315120D01*
X-02092760Y-06313000D01*
X-02108840Y-06317230D01*
X-02120110Y-06327820D01*
X-02123320Y-06340510D01*
X-02121710Y-06353220D01*
X-02115280Y-06363800D01*
X-02083110Y-06384970D01*
X-02068630Y-06399780D01*
X-02058970Y-06420950D01*
X-02055760Y-06440000D01*
X-02123320Y-06440000D01*
G01X-02285390Y-06195770D02*
X-02214610Y-06288900D01*
G01X-02250000Y-06305830D02*
X-02250000Y-06178830D01*
G01X-02214610Y-06195770D02*
X-02285390Y-06288900D01*
G01X-02298260Y-06242330D02*
X-02201740Y-06242330D01*
G01X-02285390Y-05195770D02*
X-02214610Y-05288900D01*
G01X-02250000Y-05305830D02*
X-02250000Y-05178830D01*
G01X-02214610Y-05195770D02*
X-02285390Y-05288900D01*
G01X-02298260Y-05242330D02*
X-02201740Y-05242330D01*
G01X-01795070Y-05440000D02*
X-01795070Y-05313000D01*
X-01827240Y-05313000D01*
X-01840110Y-05319350D01*
X-01849760Y-05327820D01*
X-01857810Y-05340510D01*
X-01864240Y-05355340D01*
X-01865850Y-05376500D01*
X-01864240Y-05397670D01*
X-01857810Y-05412490D01*
X-01849760Y-05425190D01*
X-01840110Y-05433650D01*
X-01827240Y-05440000D01*
X-01795070Y-05440000D01*
G01X-01956780Y-05440000D02*
X-01960000Y-05412490D01*
X-01964830Y-05389200D01*
X-01971260Y-05368030D01*
X-01979300Y-05344750D01*
X-01992170Y-05313000D01*
X-01927830Y-05313000D01*
G01X-02089540Y-05440000D02*
X-02089540Y-05313000D01*
X-02070240Y-05338400D01*
G01X-02070240Y-05440000D02*
X-02108840Y-05440000D01*
G01X-02285390Y-04195770D02*
X-02214610Y-04288900D01*
G01X-02250000Y-04305830D02*
X-02250000Y-04178830D01*
G01X-02214610Y-04195770D02*
X-02285390Y-04288900D01*
G01X-02298260Y-04242330D02*
X-02201740Y-04242330D01*
G01X-01795070Y-04440000D02*
X-01795070Y-04313000D01*
X-01827240Y-04313000D01*
X-01840110Y-04319350D01*
X-01849760Y-04327820D01*
X-01857810Y-04340510D01*
X-01864240Y-04355340D01*
X-01865850Y-04376500D01*
X-01864240Y-04397670D01*
X-01857810Y-04412490D01*
X-01849760Y-04425190D01*
X-01840110Y-04433650D01*
X-01827240Y-04440000D01*
X-01795070Y-04440000D01*
G01X-01929430Y-04387090D02*
X-01940700Y-04372270D01*
X-01950350Y-04363800D01*
X-01963220Y-04359570D01*
X-01974480Y-04363800D01*
X-01982520Y-04372270D01*
X-01988960Y-04384970D01*
X-01990570Y-04399780D01*
X-01988960Y-04412490D01*
X-01982520Y-04425190D01*
X-01972870Y-04435770D01*
X-01961610Y-04440000D01*
X-01948740Y-04435770D01*
X-01937480Y-04423070D01*
X-01931040Y-04404020D01*
X-01929430Y-04382850D01*
X-01932650Y-04355340D01*
X-01937480Y-04340510D01*
X-01945520Y-04325700D01*
X-01956780Y-04315120D01*
X-01968040Y-04313000D01*
X-01979300Y-04317230D01*
X-01987350Y-04327820D01*
G01X-02089540Y-04313000D02*
X-02076670Y-04317230D01*
X-02067020Y-04327820D01*
X-02060580Y-04340510D01*
X-02055760Y-04357450D01*
X-02054150Y-04376500D01*
X-02055760Y-04395550D01*
X-02060580Y-04412490D01*
X-02067020Y-04425190D01*
X-02076670Y-04435770D01*
X-02089540Y-04440000D01*
X-02102410Y-04435770D01*
X-02112060Y-04425190D01*
X-02118500Y-04412490D01*
X-02123320Y-04395550D01*
X-02124930Y-04376500D01*
X-02123320Y-04357450D01*
X-02118500Y-04340510D01*
X-02112060Y-04327820D01*
X-02102410Y-04317230D01*
X-02089540Y-04313000D01*
G01X-01795070Y-03440000D02*
X-01795070Y-03313000D01*
X-01827240Y-03313000D01*
X-01840110Y-03319350D01*
X-01849760Y-03327820D01*
X-01857810Y-03340510D01*
X-01864240Y-03355340D01*
X-01865850Y-03376500D01*
X-01864240Y-03397670D01*
X-01857810Y-03412490D01*
X-01849760Y-03425190D01*
X-01840110Y-03433650D01*
X-01827240Y-03440000D01*
X-01795070Y-03440000D01*
G01X-01979300Y-03440000D02*
X-01979300Y-03313000D01*
X-01919780Y-03404020D01*
X-02000220Y-03404020D01*
G01X-02062190Y-03425190D02*
X-02073450Y-03435770D01*
X-02086320Y-03440000D01*
X-02099190Y-03435770D01*
X-02110450Y-03423070D01*
X-02118500Y-03404020D01*
X-02121710Y-03384970D01*
X-02121710Y-03361680D01*
X-02118500Y-03342630D01*
X-02110450Y-03325700D01*
X-02100800Y-03317230D01*
X-02089540Y-03313000D01*
X-02076670Y-03317230D01*
X-02067020Y-03325700D01*
X-02060580Y-03338400D01*
X-02057370Y-03355340D01*
X-02060580Y-03370150D01*
X-02068630Y-03384970D01*
X-02078280Y-03393440D01*
X-02089540Y-03395550D01*
X-02102410Y-03391320D01*
X-02112060Y-03380730D01*
X-02121710Y-03361680D01*
G01X-02285390Y-03195770D02*
X-02214610Y-03288900D01*
G01X-02250000Y-03305830D02*
X-02250000Y-03178830D01*
G01X-02214610Y-03195770D02*
X-02285390Y-03288900D01*
G01X-02298260Y-03242330D02*
X-02201740Y-03242330D01*
G01X-02285390Y-02195770D02*
X-02214610Y-02288900D01*
G01X-02250000Y-02305830D02*
X-02250000Y-02178830D01*
G01X-02214610Y-02195770D02*
X-02285390Y-02288900D01*
G01X-02298260Y-02242330D02*
X-02201740Y-02242330D01*
G01X-01795070Y-02440000D02*
X-01795070Y-02313000D01*
X-01827240Y-02313000D01*
X-01840110Y-02319350D01*
X-01849760Y-02327820D01*
X-01857810Y-02340510D01*
X-01864240Y-02355340D01*
X-01865850Y-02376500D01*
X-01864240Y-02397670D01*
X-01857810Y-02412490D01*
X-01849760Y-02425190D01*
X-01840110Y-02433650D01*
X-01827240Y-02440000D01*
X-01795070Y-02440000D01*
G01X-01924610Y-02414600D02*
X-01934260Y-02429420D01*
X-01947130Y-02437880D01*
X-01961610Y-02440000D01*
X-01974480Y-02437880D01*
X-01987350Y-02427300D01*
X-01995390Y-02414600D01*
X-01997000Y-02401900D01*
X-01993780Y-02387090D01*
X-01982520Y-02376500D01*
X-01971260Y-02372270D01*
X-01956780Y-02372270D01*
G01X-01971260Y-02372270D02*
X-01980910Y-02365920D01*
X-01988960Y-02355340D01*
X-01992170Y-02342630D01*
X-01988960Y-02329930D01*
X-01980910Y-02319350D01*
X-01966430Y-02313000D01*
X-01951960Y-02315120D01*
X-01937480Y-02323580D01*
G01X-02089540Y-02440000D02*
X-02100800Y-02437880D01*
X-02113670Y-02431540D01*
X-02121710Y-02420950D01*
X-02124930Y-02406130D01*
X-02121710Y-02391320D01*
X-02112060Y-02378620D01*
X-02097580Y-02372270D01*
X-02081500Y-02372270D01*
X-02071840Y-02368030D01*
X-02063800Y-02357450D01*
X-02060580Y-02342630D01*
X-02065410Y-02327820D01*
X-02076670Y-02317230D01*
X-02089540Y-02313000D01*
X-02102410Y-02317230D01*
X-02113670Y-02327820D01*
X-02118500Y-02342630D01*
X-02115280Y-02357450D01*
X-02107240Y-02368030D01*
X-02097580Y-02372270D01*
X-02081500Y-02372270D01*
X-02067020Y-02378620D01*
X-02057370Y-02391320D01*
X-02054150Y-02406130D01*
X-02057370Y-02420950D01*
X-02065410Y-02431540D01*
X-02078280Y-02437880D01*
X-02089540Y-02440000D01*
G01X-02285390Y-01195770D02*
X-02214610Y-01288900D01*
G01X-02250000Y-01305830D02*
X-02250000Y-01178830D01*
G01X-02214610Y-01195770D02*
X-02285390Y-01288900D01*
G01X-02298260Y-01242330D02*
X-02201740Y-01242330D01*
G01X-01795070Y-01440000D02*
X-01795070Y-01313000D01*
X-01827240Y-01313000D01*
X-01840110Y-01319350D01*
X-01849760Y-01327820D01*
X-01857810Y-01340510D01*
X-01864240Y-01355340D01*
X-01865850Y-01376500D01*
X-01864240Y-01397670D01*
X-01857810Y-01412490D01*
X-01849760Y-01425190D01*
X-01840110Y-01433650D01*
X-01827240Y-01440000D01*
X-01795070Y-01440000D01*
G01X-01929430Y-01334170D02*
X-01939090Y-01321470D01*
X-01950350Y-01315120D01*
X-01963220Y-01313000D01*
X-01979300Y-01317230D01*
X-01990570Y-01327820D01*
X-01993780Y-01340510D01*
X-01992170Y-01353220D01*
X-01985740Y-01363800D01*
X-01953570Y-01384970D01*
X-01939090Y-01399780D01*
X-01929430Y-01420950D01*
X-01926220Y-01440000D01*
X-01993780Y-01440000D01*
G01X-02086320Y-01440000D02*
X-02089540Y-01412490D01*
X-02094370Y-01389200D01*
X-02100800Y-01368030D01*
X-02108840Y-01344750D01*
X-02121710Y-01313000D01*
X-02057370Y-01313000D01*
G01X-01795070Y-00440000D02*
X-01795070Y-00313000D01*
X-01827240Y-00313000D01*
X-01840110Y-00319350D01*
X-01849760Y-00327820D01*
X-01857810Y-00340510D01*
X-01864240Y-00355340D01*
X-01865850Y-00376500D01*
X-01864240Y-00397670D01*
X-01857810Y-00412490D01*
X-01849760Y-00425190D01*
X-01840110Y-00433650D01*
X-01827240Y-00440000D01*
X-01795070Y-00440000D01*
G01X-01960000Y-00440000D02*
X-01960000Y-00313000D01*
X-01940700Y-00338400D01*
G01X-01940700Y-00440000D02*
X-01979300Y-00440000D01*
G01X-02058970Y-00387090D02*
X-02070240Y-00372270D01*
X-02079890Y-00363800D01*
X-02092760Y-00359570D01*
X-02104020Y-00363800D01*
X-02112060Y-00372270D01*
X-02118500Y-00384970D01*
X-02120110Y-00399780D01*
X-02118500Y-00412490D01*
X-02112060Y-00425190D01*
X-02102410Y-00435770D01*
X-02091150Y-00440000D01*
X-02078280Y-00435770D01*
X-02067020Y-00423070D01*
X-02060580Y-00404020D01*
X-02058970Y-00382850D01*
X-02062190Y-00355340D01*
X-02067020Y-00340510D01*
X-02075060Y-00325700D01*
X-02086320Y-00315120D01*
X-02097580Y-00313000D01*
X-02108840Y-00317230D01*
X-02116890Y-00327820D01*
G01X-02285390Y-00195770D02*
X-02214610Y-00288900D01*
G01X-02250000Y-00305830D02*
X-02250000Y-00178830D01*
G01X-02214610Y-00195770D02*
X-02285390Y-00288900D01*
G01X-02298260Y-00242330D02*
X-02201740Y-00242330D01*
G01X-02285390Y00804230D02*
X-02214610Y00711100D01*
G01X-02250000Y00694170D02*
X-02250000Y00821170D01*
G01X-02214610Y00804230D02*
X-02285390Y00711100D01*
G01X-02298260Y00757670D02*
X-02201740Y00757670D01*
G01X-01859840Y00560000D02*
X-01859840Y00687000D01*
X-01892010Y00687000D01*
X-01904880Y00680650D01*
X-01914530Y00672180D01*
X-01922580Y00659490D01*
X-01929010Y00644660D01*
X-01930620Y00623500D01*
X-01929010Y00602330D01*
X-01922580Y00587510D01*
X-01914530Y00574810D01*
X-01904880Y00566350D01*
X-01892010Y00560000D01*
X-01859840Y00560000D01*
G01X-01989380Y00579050D02*
X-01999030Y00568460D01*
X-02010290Y00562120D01*
X-02024770Y00560000D01*
X-02039250Y00564230D01*
X-02050510Y00572700D01*
X-02058550Y00587510D01*
X-02060160Y00604450D01*
X-02056940Y00621380D01*
X-02048900Y00631970D01*
X-02037640Y00640430D01*
X-02026380Y00642550D01*
X-02015120Y00640430D01*
X-02000640Y00631970D01*
X-02005470Y00687000D01*
X-02048900Y00687000D01*
G01X-01285390Y-06195770D02*
X-01214610Y-06288900D01*
G01X-01250000Y-06305830D02*
X-01250000Y-06178830D01*
G01X-01214610Y-06195770D02*
X-01285390Y-06288900D01*
G01X-01298260Y-06242330D02*
X-01201740Y-06242330D01*
G01X-01285390Y-05195770D02*
X-01214610Y-05288900D01*
G01X-01250000Y-05305830D02*
X-01250000Y-05178830D01*
G01X-01214610Y-05195770D02*
X-01285390Y-05288900D01*
G01X-01298260Y-05242330D02*
X-01201740Y-05242330D01*
G01X-01285390Y-04195770D02*
X-01214610Y-04288900D01*
G01X-01250000Y-04305830D02*
X-01250000Y-04178830D01*
G01X-01214610Y-04195770D02*
X-01285390Y-04288900D01*
G01X-01298260Y-04242330D02*
X-01201740Y-04242330D01*
G01X-01285390Y-03195770D02*
X-01214610Y-03288900D01*
G01X-01250000Y-03305830D02*
X-01250000Y-03178830D01*
G01X-01214610Y-03195770D02*
X-01285390Y-03288900D01*
G01X-01298260Y-03242330D02*
X-01201740Y-03242330D01*
G01X-01285390Y-02195770D02*
X-01214610Y-02288900D01*
G01X-01250000Y-02305830D02*
X-01250000Y-02178830D01*
G01X-01214610Y-02195770D02*
X-01285390Y-02288900D01*
G01X-01298260Y-02242330D02*
X-01201740Y-02242330D01*
G01X-01285390Y-01195770D02*
X-01214610Y-01288900D01*
G01X-01250000Y-01305830D02*
X-01250000Y-01178830D01*
G01X-01214610Y-01195770D02*
X-01285390Y-01288900D01*
G01X-01298260Y-01242330D02*
X-01201740Y-01242330D01*
G01X-01285390Y-00195770D02*
X-01214610Y-00288900D01*
G01X-01250000Y-00305830D02*
X-01250000Y-00178830D01*
G01X-01214610Y-00195770D02*
X-01285390Y-00288900D01*
G01X-01298260Y-00242330D02*
X-01201740Y-00242330D01*
G01X-01285390Y00804230D02*
X-01214610Y00711100D01*
G01X-01250000Y00694170D02*
X-01250000Y00821170D01*
G01X-01214610Y00804230D02*
X-01285390Y00711100D01*
G01X-01298260Y00757670D02*
X-01201740Y00757670D01*
G01X-00795070Y-06440000D02*
X-00795070Y-06313000D01*
X-00827240Y-06313000D01*
X-00840110Y-06319350D01*
X-00849760Y-06327820D01*
X-00857810Y-06340510D01*
X-00864240Y-06355340D01*
X-00865850Y-06376500D01*
X-00864240Y-06397670D01*
X-00857810Y-06412490D01*
X-00849760Y-06425190D01*
X-00840110Y-06433650D01*
X-00827240Y-06440000D01*
X-00795070Y-06440000D01*
G01X-00960000Y-06440000D02*
X-00971260Y-06437880D01*
X-00984130Y-06431540D01*
X-00992170Y-06420950D01*
X-00995390Y-06406130D01*
X-00992170Y-06391320D01*
X-00982520Y-06378620D01*
X-00968040Y-06372270D01*
X-00951960Y-06372270D01*
X-00942300Y-06368030D01*
X-00934260Y-06357450D01*
X-00931040Y-06342630D01*
X-00935870Y-06327820D01*
X-00947130Y-06317230D01*
X-00960000Y-06313000D01*
X-00972870Y-06317230D01*
X-00984130Y-06327820D01*
X-00988960Y-06342630D01*
X-00985740Y-06357450D01*
X-00977700Y-06368030D01*
X-00968040Y-06372270D01*
X-00951960Y-06372270D01*
X-00937480Y-06378620D01*
X-00927830Y-06391320D01*
X-00924610Y-06406130D01*
X-00927830Y-06420950D01*
X-00935870Y-06431540D01*
X-00948740Y-06437880D01*
X-00960000Y-06440000D01*
G01X-01054150Y-06414600D02*
X-01063800Y-06429420D01*
X-01076670Y-06437880D01*
X-01091150Y-06440000D01*
X-01104020Y-06437880D01*
X-01116890Y-06427300D01*
X-01124930Y-06414600D01*
X-01126540Y-06401900D01*
X-01123320Y-06387090D01*
X-01112060Y-06376500D01*
X-01100800Y-06372270D01*
X-01086320Y-06372270D01*
G01X-01100800Y-06372270D02*
X-01110450Y-06365920D01*
X-01118500Y-06355340D01*
X-01121710Y-06342630D01*
X-01118500Y-06329930D01*
X-01110450Y-06319350D01*
X-01095970Y-06313000D01*
X-01081500Y-06315120D01*
X-01067020Y-06323580D01*
G01X-00795070Y-05440000D02*
X-00795070Y-05313000D01*
X-00827240Y-05313000D01*
X-00840110Y-05319350D01*
X-00849760Y-05327820D01*
X-00857810Y-05340510D01*
X-00864240Y-05355340D01*
X-00865850Y-05376500D01*
X-00864240Y-05397670D01*
X-00857810Y-05412490D01*
X-00849760Y-05425190D01*
X-00840110Y-05433650D01*
X-00827240Y-05440000D01*
X-00795070Y-05440000D01*
G01X-00956780Y-05440000D02*
X-00960000Y-05412490D01*
X-00964830Y-05389200D01*
X-00971260Y-05368030D01*
X-00979300Y-05344750D01*
X-00992170Y-05313000D01*
X-00927830Y-05313000D01*
G01X-01058970Y-05334170D02*
X-01068630Y-05321470D01*
X-01079890Y-05315120D01*
X-01092760Y-05313000D01*
X-01108840Y-05317230D01*
X-01120110Y-05327820D01*
X-01123320Y-05340510D01*
X-01121710Y-05353220D01*
X-01115280Y-05363800D01*
X-01083110Y-05384970D01*
X-01068630Y-05399780D01*
X-01058970Y-05420950D01*
X-01055760Y-05440000D01*
X-01123320Y-05440000D01*
G01X-00795070Y-04440000D02*
X-00795070Y-04313000D01*
X-00827240Y-04313000D01*
X-00840110Y-04319350D01*
X-00849760Y-04327820D01*
X-00857810Y-04340510D01*
X-00864240Y-04355340D01*
X-00865850Y-04376500D01*
X-00864240Y-04397670D01*
X-00857810Y-04412490D01*
X-00849760Y-04425190D01*
X-00840110Y-04433650D01*
X-00827240Y-04440000D01*
X-00795070Y-04440000D01*
G01X-00929430Y-04387090D02*
X-00940700Y-04372270D01*
X-00950350Y-04363800D01*
X-00963220Y-04359570D01*
X-00974480Y-04363800D01*
X-00982520Y-04372270D01*
X-00988960Y-04384970D01*
X-00990570Y-04399780D01*
X-00988960Y-04412490D01*
X-00982520Y-04425190D01*
X-00972870Y-04435770D01*
X-00961610Y-04440000D01*
X-00948740Y-04435770D01*
X-00937480Y-04423070D01*
X-00931040Y-04404020D01*
X-00929430Y-04382850D01*
X-00932650Y-04355340D01*
X-00937480Y-04340510D01*
X-00945520Y-04325700D01*
X-00956780Y-04315120D01*
X-00968040Y-04313000D01*
X-00979300Y-04317230D01*
X-00987350Y-04327820D01*
G01X-01089540Y-04440000D02*
X-01089540Y-04313000D01*
X-01070240Y-04338400D01*
G01X-01070240Y-04440000D02*
X-01108840Y-04440000D01*
G01X-00795070Y-03440000D02*
X-00795070Y-03313000D01*
X-00827240Y-03313000D01*
X-00840110Y-03319350D01*
X-00849760Y-03327820D01*
X-00857810Y-03340510D01*
X-00864240Y-03355340D01*
X-00865850Y-03376500D01*
X-00864240Y-03397670D01*
X-00857810Y-03412490D01*
X-00849760Y-03425190D01*
X-00840110Y-03433650D01*
X-00827240Y-03440000D01*
X-00795070Y-03440000D01*
G01X-00924610Y-03420950D02*
X-00934260Y-03431540D01*
X-00945520Y-03437880D01*
X-00960000Y-03440000D01*
X-00974480Y-03435770D01*
X-00985740Y-03427300D01*
X-00993780Y-03412490D01*
X-00995390Y-03395550D01*
X-00992170Y-03378620D01*
X-00984130Y-03368030D01*
X-00972870Y-03359570D01*
X-00961610Y-03357450D01*
X-00950350Y-03359570D01*
X-00935870Y-03368030D01*
X-00940700Y-03313000D01*
X-00984130Y-03313000D01*
G01X-01089540Y-03313000D02*
X-01076670Y-03317230D01*
X-01067020Y-03327820D01*
X-01060580Y-03340510D01*
X-01055760Y-03357450D01*
X-01054150Y-03376500D01*
X-01055760Y-03395550D01*
X-01060580Y-03412490D01*
X-01067020Y-03425190D01*
X-01076670Y-03435770D01*
X-01089540Y-03440000D01*
X-01102410Y-03435770D01*
X-01112060Y-03425190D01*
X-01118500Y-03412490D01*
X-01123320Y-03395550D01*
X-01124930Y-03376500D01*
X-01123320Y-03357450D01*
X-01118500Y-03340510D01*
X-01112060Y-03327820D01*
X-01102410Y-03317230D01*
X-01089540Y-03313000D01*
G01X-00795070Y-02440000D02*
X-00795070Y-02313000D01*
X-00827240Y-02313000D01*
X-00840110Y-02319350D01*
X-00849760Y-02327820D01*
X-00857810Y-02340510D01*
X-00864240Y-02355340D01*
X-00865850Y-02376500D01*
X-00864240Y-02397670D01*
X-00857810Y-02412490D01*
X-00849760Y-02425190D01*
X-00840110Y-02433650D01*
X-00827240Y-02440000D01*
X-00795070Y-02440000D01*
G01X-00924610Y-02414600D02*
X-00934260Y-02429420D01*
X-00947130Y-02437880D01*
X-00961610Y-02440000D01*
X-00974480Y-02437880D01*
X-00987350Y-02427300D01*
X-00995390Y-02414600D01*
X-00997000Y-02401900D01*
X-00993780Y-02387090D01*
X-00982520Y-02376500D01*
X-00971260Y-02372270D01*
X-00956780Y-02372270D01*
G01X-00971260Y-02372270D02*
X-00980910Y-02365920D01*
X-00988960Y-02355340D01*
X-00992170Y-02342630D01*
X-00988960Y-02329930D01*
X-00980910Y-02319350D01*
X-00966430Y-02313000D01*
X-00951960Y-02315120D01*
X-00937480Y-02323580D01*
G01X-01062190Y-02425190D02*
X-01073450Y-02435770D01*
X-01086320Y-02440000D01*
X-01099190Y-02435770D01*
X-01110450Y-02423070D01*
X-01118500Y-02404020D01*
X-01121710Y-02384970D01*
X-01121710Y-02361680D01*
X-01118500Y-02342630D01*
X-01110450Y-02325700D01*
X-01100800Y-02317230D01*
X-01089540Y-02313000D01*
X-01076670Y-02317230D01*
X-01067020Y-02325700D01*
X-01060580Y-02338400D01*
X-01057370Y-02355340D01*
X-01060580Y-02370150D01*
X-01068630Y-02384970D01*
X-01078280Y-02393440D01*
X-01089540Y-02395550D01*
X-01102410Y-02391320D01*
X-01112060Y-02380730D01*
X-01121710Y-02361680D01*
G01X-00795070Y-01440000D02*
X-00795070Y-01313000D01*
X-00827240Y-01313000D01*
X-00840110Y-01319350D01*
X-00849760Y-01327820D01*
X-00857810Y-01340510D01*
X-00864240Y-01355340D01*
X-00865850Y-01376500D01*
X-00864240Y-01397670D01*
X-00857810Y-01412490D01*
X-00849760Y-01425190D01*
X-00840110Y-01433650D01*
X-00827240Y-01440000D01*
X-00795070Y-01440000D01*
G01X-00929430Y-01334170D02*
X-00939090Y-01321470D01*
X-00950350Y-01315120D01*
X-00963220Y-01313000D01*
X-00979300Y-01317230D01*
X-00990570Y-01327820D01*
X-00993780Y-01340510D01*
X-00992170Y-01353220D01*
X-00985740Y-01363800D01*
X-00953570Y-01384970D01*
X-00939090Y-01399780D01*
X-00929430Y-01420950D01*
X-00926220Y-01440000D01*
X-00993780Y-01440000D01*
G01X-01089540Y-01440000D02*
X-01100800Y-01437880D01*
X-01113670Y-01431540D01*
X-01121710Y-01420950D01*
X-01124930Y-01406130D01*
X-01121710Y-01391320D01*
X-01112060Y-01378620D01*
X-01097580Y-01372270D01*
X-01081500Y-01372270D01*
X-01071840Y-01368030D01*
X-01063800Y-01357450D01*
X-01060580Y-01342630D01*
X-01065410Y-01327820D01*
X-01076670Y-01317230D01*
X-01089540Y-01313000D01*
X-01102410Y-01317230D01*
X-01113670Y-01327820D01*
X-01118500Y-01342630D01*
X-01115280Y-01357450D01*
X-01107240Y-01368030D01*
X-01097580Y-01372270D01*
X-01081500Y-01372270D01*
X-01067020Y-01378620D01*
X-01057370Y-01391320D01*
X-01054150Y-01406130D01*
X-01057370Y-01420950D01*
X-01065410Y-01431540D01*
X-01078280Y-01437880D01*
X-01089540Y-01440000D01*
G01X-00795070Y-00440000D02*
X-00795070Y-00313000D01*
X-00827240Y-00313000D01*
X-00840110Y-00319350D01*
X-00849760Y-00327820D01*
X-00857810Y-00340510D01*
X-00864240Y-00355340D01*
X-00865850Y-00376500D01*
X-00864240Y-00397670D01*
X-00857810Y-00412490D01*
X-00849760Y-00425190D01*
X-00840110Y-00433650D01*
X-00827240Y-00440000D01*
X-00795070Y-00440000D01*
G01X-00960000Y-00440000D02*
X-00960000Y-00313000D01*
X-00940700Y-00338400D01*
G01X-00940700Y-00440000D02*
X-00979300Y-00440000D01*
G01X-01086320Y-00440000D02*
X-01089540Y-00412490D01*
X-01094370Y-00389200D01*
X-01100800Y-00368030D01*
X-01108840Y-00344750D01*
X-01121710Y-00313000D01*
X-01057370Y-00313000D01*
G01X-00859840Y00560000D02*
X-00859840Y00687000D01*
X-00892010Y00687000D01*
X-00904880Y00680650D01*
X-00914530Y00672180D01*
X-00922580Y00659490D01*
X-00929010Y00644660D01*
X-00930620Y00623500D01*
X-00929010Y00602330D01*
X-00922580Y00587510D01*
X-00914530Y00574810D01*
X-00904880Y00566350D01*
X-00892010Y00560000D01*
X-00859840Y00560000D01*
G01X-00994200Y00612910D02*
X-01005470Y00627730D01*
X-01015120Y00636200D01*
X-01027990Y00640430D01*
X-01039250Y00636200D01*
X-01047290Y00627730D01*
X-01053730Y00615030D01*
X-01055340Y00600220D01*
X-01053730Y00587510D01*
X-01047290Y00574810D01*
X-01037640Y00564230D01*
X-01026380Y00560000D01*
X-01013510Y00564230D01*
X-01002250Y00576930D01*
X-00995810Y00595980D01*
X-00994200Y00617150D01*
X-00997420Y00644660D01*
X-01002250Y00659490D01*
X-01010290Y00674300D01*
X-01021550Y00684880D01*
X-01032810Y00687000D01*
X-01044070Y00682770D01*
X-01052120Y00672180D01*
G01X00204930Y-06440000D02*
X00204930Y-06313000D01*
X00172760Y-06313000D01*
X00159890Y-06319350D01*
X00150240Y-06327820D01*
X00142190Y-06340510D01*
X00135760Y-06355340D01*
X00134150Y-06376500D01*
X00135760Y-06397670D01*
X00142190Y-06412490D01*
X00150240Y-06425190D01*
X00159890Y-06433650D01*
X00172760Y-06440000D01*
X00204930Y-06440000D01*
G01X00040000Y-06440000D02*
X00028740Y-06437880D01*
X00015870Y-06431540D01*
X00007830Y-06420950D01*
X00004610Y-06406130D01*
X00007830Y-06391320D01*
X00017480Y-06378620D01*
X00031960Y-06372270D01*
X00048040Y-06372270D01*
X00057700Y-06368030D01*
X00065740Y-06357450D01*
X00068960Y-06342630D01*
X00064130Y-06327820D01*
X00052870Y-06317230D01*
X00040000Y-06313000D01*
X00027130Y-06317230D01*
X00015870Y-06327820D01*
X00011040Y-06342630D01*
X00014260Y-06357450D01*
X00022300Y-06368030D01*
X00031960Y-06372270D01*
X00048040Y-06372270D01*
X00062520Y-06378620D01*
X00072170Y-06391320D01*
X00075390Y-06406130D01*
X00072170Y-06420950D01*
X00064130Y-06431540D01*
X00051260Y-06437880D01*
X00040000Y-06440000D01*
G01X-00108840Y-06440000D02*
X-00108840Y-06313000D01*
X-00049320Y-06404020D01*
X-00129760Y-06404020D01*
G01X-00285390Y-06195770D02*
X-00214610Y-06288900D01*
G01X-00250000Y-06305830D02*
X-00250000Y-06178830D01*
G01X-00214610Y-06195770D02*
X-00285390Y-06288900D01*
G01X-00298260Y-06242330D02*
X-00201740Y-06242330D01*
G01X-00285390Y-05195770D02*
X-00214610Y-05288900D01*
G01X-00250000Y-05305830D02*
X-00250000Y-05178830D01*
G01X-00214610Y-05195770D02*
X-00285390Y-05288900D01*
G01X-00298260Y-05242330D02*
X-00201740Y-05242330D01*
G01X00204930Y-05440000D02*
X00204930Y-05313000D01*
X00172760Y-05313000D01*
X00159890Y-05319350D01*
X00150240Y-05327820D01*
X00142190Y-05340510D01*
X00135760Y-05355340D01*
X00134150Y-05376500D01*
X00135760Y-05397670D01*
X00142190Y-05412490D01*
X00150240Y-05425190D01*
X00159890Y-05433650D01*
X00172760Y-05440000D01*
X00204930Y-05440000D01*
G01X00043220Y-05440000D02*
X00040000Y-05412490D01*
X00035170Y-05389200D01*
X00028740Y-05368030D01*
X00020700Y-05344750D01*
X00007830Y-05313000D01*
X00072170Y-05313000D01*
G01X-00054150Y-05414600D02*
X-00063800Y-05429420D01*
X-00076670Y-05437880D01*
X-00091150Y-05440000D01*
X-00104020Y-05437880D01*
X-00116890Y-05427300D01*
X-00124930Y-05414600D01*
X-00126540Y-05401900D01*
X-00123320Y-05387090D01*
X-00112060Y-05376500D01*
X-00100800Y-05372270D01*
X-00086320Y-05372270D01*
G01X-00100800Y-05372270D02*
X-00110450Y-05365920D01*
X-00118500Y-05355340D01*
X-00121710Y-05342630D01*
X-00118500Y-05329930D01*
X-00110450Y-05319350D01*
X-00095970Y-05313000D01*
X-00081500Y-05315120D01*
X-00067020Y-05323580D01*
G01X-00285390Y-04195770D02*
X-00214610Y-04288900D01*
G01X-00250000Y-04305830D02*
X-00250000Y-04178830D01*
G01X-00214610Y-04195770D02*
X-00285390Y-04288900D01*
G01X-00298260Y-04242330D02*
X-00201740Y-04242330D01*
G01X00204930Y-04440000D02*
X00204930Y-04313000D01*
X00172760Y-04313000D01*
X00159890Y-04319350D01*
X00150240Y-04327820D01*
X00142190Y-04340510D01*
X00135760Y-04355340D01*
X00134150Y-04376500D01*
X00135760Y-04397670D01*
X00142190Y-04412490D01*
X00150240Y-04425190D01*
X00159890Y-04433650D01*
X00172760Y-04440000D01*
X00204930Y-04440000D01*
G01X00070570Y-04387090D02*
X00059300Y-04372270D01*
X00049650Y-04363800D01*
X00036780Y-04359570D01*
X00025520Y-04363800D01*
X00017480Y-04372270D01*
X00011040Y-04384970D01*
X00009430Y-04399780D01*
X00011040Y-04412490D01*
X00017480Y-04425190D01*
X00027130Y-04435770D01*
X00038390Y-04440000D01*
X00051260Y-04435770D01*
X00062520Y-04423070D01*
X00068960Y-04404020D01*
X00070570Y-04382850D01*
X00067350Y-04355340D01*
X00062520Y-04340510D01*
X00054480Y-04325700D01*
X00043220Y-04315120D01*
X00031960Y-04313000D01*
X00020700Y-04317230D01*
X00012650Y-04327820D01*
G01X-00058970Y-04334170D02*
X-00068630Y-04321470D01*
X-00079890Y-04315120D01*
X-00092760Y-04313000D01*
X-00108840Y-04317230D01*
X-00120110Y-04327820D01*
X-00123320Y-04340510D01*
X-00121710Y-04353220D01*
X-00115280Y-04363800D01*
X-00083110Y-04384970D01*
X-00068630Y-04399780D01*
X-00058970Y-04420950D01*
X-00055760Y-04440000D01*
X-00123320Y-04440000D01*
G01X00204930Y-03440000D02*
X00204930Y-03313000D01*
X00172760Y-03313000D01*
X00159890Y-03319350D01*
X00150240Y-03327820D01*
X00142190Y-03340510D01*
X00135760Y-03355340D01*
X00134150Y-03376500D01*
X00135760Y-03397670D01*
X00142190Y-03412490D01*
X00150240Y-03425190D01*
X00159890Y-03433650D01*
X00172760Y-03440000D01*
X00204930Y-03440000D01*
G01X00075390Y-03420950D02*
X00065740Y-03431540D01*
X00054480Y-03437880D01*
X00040000Y-03440000D01*
X00025520Y-03435770D01*
X00014260Y-03427300D01*
X00006220Y-03412490D01*
X00004610Y-03395550D01*
X00007830Y-03378620D01*
X00015870Y-03368030D01*
X00027130Y-03359570D01*
X00038390Y-03357450D01*
X00049650Y-03359570D01*
X00064130Y-03368030D01*
X00059300Y-03313000D01*
X00015870Y-03313000D01*
G01X-00089540Y-03440000D02*
X-00089540Y-03313000D01*
X-00070240Y-03338400D01*
G01X-00070240Y-03440000D02*
X-00108840Y-03440000D01*
G01X-00285390Y-03195770D02*
X-00214610Y-03288900D01*
G01X-00250000Y-03305830D02*
X-00250000Y-03178830D01*
G01X-00214610Y-03195770D02*
X-00285390Y-03288900D01*
G01X-00298260Y-03242330D02*
X-00201740Y-03242330D01*
G01X-00285390Y-02195770D02*
X-00214610Y-02288900D01*
G01X-00250000Y-02305830D02*
X-00250000Y-02178830D01*
G01X-00214610Y-02195770D02*
X-00285390Y-02288900D01*
G01X-00298260Y-02242330D02*
X-00201740Y-02242330D01*
G01X00204930Y-02440000D02*
X00204930Y-02313000D01*
X00172760Y-02313000D01*
X00159890Y-02319350D01*
X00150240Y-02327820D01*
X00142190Y-02340510D01*
X00135760Y-02355340D01*
X00134150Y-02376500D01*
X00135760Y-02397670D01*
X00142190Y-02412490D01*
X00150240Y-02425190D01*
X00159890Y-02433650D01*
X00172760Y-02440000D01*
X00204930Y-02440000D01*
G01X00020700Y-02440000D02*
X00020700Y-02313000D01*
X00080220Y-02404020D01*
X-00000220Y-02404020D01*
G01X-00089540Y-02313000D02*
X-00076670Y-02317230D01*
X-00067020Y-02327820D01*
X-00060580Y-02340510D01*
X-00055760Y-02357450D01*
X-00054150Y-02376500D01*
X-00055760Y-02395550D01*
X-00060580Y-02412490D01*
X-00067020Y-02425190D01*
X-00076670Y-02435770D01*
X-00089540Y-02440000D01*
X-00102410Y-02435770D01*
X-00112060Y-02425190D01*
X-00118500Y-02412490D01*
X-00123320Y-02395550D01*
X-00124930Y-02376500D01*
X-00123320Y-02357450D01*
X-00118500Y-02340510D01*
X-00112060Y-02327820D01*
X-00102410Y-02317230D01*
X-00089540Y-02313000D01*
G01X-00285390Y-01195770D02*
X-00214610Y-01288900D01*
G01X-00250000Y-01305830D02*
X-00250000Y-01178830D01*
G01X-00214610Y-01195770D02*
X-00285390Y-01288900D01*
G01X-00298260Y-01242330D02*
X-00201740Y-01242330D01*
G01X00204930Y-01440000D02*
X00204930Y-01313000D01*
X00172760Y-01313000D01*
X00159890Y-01319350D01*
X00150240Y-01327820D01*
X00142190Y-01340510D01*
X00135760Y-01355340D01*
X00134150Y-01376500D01*
X00135760Y-01397670D01*
X00142190Y-01412490D01*
X00150240Y-01425190D01*
X00159890Y-01433650D01*
X00172760Y-01440000D01*
X00204930Y-01440000D01*
G01X00070570Y-01334170D02*
X00060910Y-01321470D01*
X00049650Y-01315120D01*
X00036780Y-01313000D01*
X00020700Y-01317230D01*
X00009430Y-01327820D01*
X00006220Y-01340510D01*
X00007830Y-01353220D01*
X00014260Y-01363800D01*
X00046430Y-01384970D01*
X00060910Y-01399780D01*
X00070570Y-01420950D01*
X00073780Y-01440000D01*
X00006220Y-01440000D01*
G01X-00062190Y-01425190D02*
X-00073450Y-01435770D01*
X-00086320Y-01440000D01*
X-00099190Y-01435770D01*
X-00110450Y-01423070D01*
X-00118500Y-01404020D01*
X-00121710Y-01384970D01*
X-00121710Y-01361680D01*
X-00118500Y-01342630D01*
X-00110450Y-01325700D01*
X-00100800Y-01317230D01*
X-00089540Y-01313000D01*
X-00076670Y-01317230D01*
X-00067020Y-01325700D01*
X-00060580Y-01338400D01*
X-00057370Y-01355340D01*
X-00060580Y-01370150D01*
X-00068630Y-01384970D01*
X-00078280Y-01393440D01*
X-00089540Y-01395550D01*
X-00102410Y-01391320D01*
X-00112060Y-01380730D01*
X-00121710Y-01361680D01*
G01X00204930Y-00440000D02*
X00204930Y-00313000D01*
X00172760Y-00313000D01*
X00159890Y-00319350D01*
X00150240Y-00327820D01*
X00142190Y-00340510D01*
X00135760Y-00355340D01*
X00134150Y-00376500D01*
X00135760Y-00397670D01*
X00142190Y-00412490D01*
X00150240Y-00425190D01*
X00159890Y-00433650D01*
X00172760Y-00440000D01*
X00204930Y-00440000D01*
G01X00040000Y-00440000D02*
X00040000Y-00313000D01*
X00059300Y-00338400D01*
G01X00059300Y-00440000D02*
X00020700Y-00440000D01*
G01X-00089540Y-00440000D02*
X-00100800Y-00437880D01*
X-00113670Y-00431540D01*
X-00121710Y-00420950D01*
X-00124930Y-00406130D01*
X-00121710Y-00391320D01*
X-00112060Y-00378620D01*
X-00097580Y-00372270D01*
X-00081500Y-00372270D01*
X-00071840Y-00368030D01*
X-00063800Y-00357450D01*
X-00060580Y-00342630D01*
X-00065410Y-00327820D01*
X-00076670Y-00317230D01*
X-00089540Y-00313000D01*
X-00102410Y-00317230D01*
X-00113670Y-00327820D01*
X-00118500Y-00342630D01*
X-00115280Y-00357450D01*
X-00107240Y-00368030D01*
X-00097580Y-00372270D01*
X-00081500Y-00372270D01*
X-00067020Y-00378620D01*
X-00057370Y-00391320D01*
X-00054150Y-00406130D01*
X-00057370Y-00420950D01*
X-00065410Y-00431540D01*
X-00078280Y-00437880D01*
X-00089540Y-00440000D01*
G01X-00285390Y-00195770D02*
X-00214610Y-00288900D01*
G01X-00250000Y-00305830D02*
X-00250000Y-00178830D01*
G01X-00214610Y-00195770D02*
X-00285390Y-00288900D01*
G01X-00298260Y-00242330D02*
X-00201740Y-00242330D01*
G01X-00285390Y00804230D02*
X-00214610Y00711100D01*
G01X-00250000Y00694170D02*
X-00250000Y00821170D01*
G01X-00214610Y00804230D02*
X-00285390Y00711100D01*
G01X-00298260Y00757670D02*
X-00201740Y00757670D01*
G01X00140160Y00560000D02*
X00140160Y00687000D01*
X00107990Y00687000D01*
X00095120Y00680650D01*
X00085470Y00672180D01*
X00077420Y00659490D01*
X00070990Y00644660D01*
X00069380Y00623500D01*
X00070990Y00602330D01*
X00077420Y00587510D01*
X00085470Y00574810D01*
X00095120Y00566350D01*
X00107990Y00560000D01*
X00140160Y00560000D01*
G01X-00021550Y00560000D02*
X-00024770Y00587510D01*
X-00029600Y00610800D01*
X-00036030Y00631970D01*
X-00044070Y00655250D01*
X-00056940Y00687000D01*
X00007400Y00687000D01*
G01X02820190Y-07000000D02*
X02820190Y-06603800D01*
X02691400Y-06933970D01*
X02562610Y-06603800D01*
X02562610Y-07000000D01*
G01X02147540Y-07000000D02*
X02147540Y-06735870D01*
G01X02147540Y-06782090D02*
X02167350Y-06755680D01*
X02197080Y-06742480D01*
X02231740Y-06735870D01*
X02266420Y-06749080D01*
X02296140Y-06775490D01*
X02315960Y-06815110D01*
X02325860Y-06867940D01*
X02315960Y-06920760D01*
X02296140Y-06960390D01*
X02266420Y-06986800D01*
X02231740Y-07000000D01*
X02197080Y-06993400D01*
X02167350Y-06973590D01*
X02147540Y-06947180D01*
G01X01782000Y-06603800D02*
X01782000Y-07000000D01*
G01X01851350Y-06735870D02*
X01712650Y-06735870D01*
G01X01396650Y-07000000D02*
X01396650Y-06735870D01*
G01X01396650Y-06788690D02*
X01371880Y-06762280D01*
X01347110Y-06742480D01*
X01312440Y-06735870D01*
X01287680Y-06742480D01*
X01257950Y-06762280D01*
G01X00872600Y-06735870D02*
X00872600Y-07000000D01*
G01X00872600Y-06630220D02*
X00882510Y-06623620D01*
X00882510Y-06610400D01*
X00872600Y-06603800D01*
X00862690Y-06610400D01*
X00862690Y-06623620D01*
X00872600Y-06630220D01*
G01X00492200Y-06735870D02*
X00343600Y-07000000D01*
G01X00343600Y-06735870D02*
X00492200Y-07000000D01*
G01X01204930Y-06440000D02*
X01204930Y-06313000D01*
X01172760Y-06313000D01*
X01159890Y-06319350D01*
X01150240Y-06327820D01*
X01142190Y-06340510D01*
X01135760Y-06355340D01*
X01134150Y-06376500D01*
X01135760Y-06397670D01*
X01142190Y-06412490D01*
X01150240Y-06425190D01*
X01159890Y-06433650D01*
X01172760Y-06440000D01*
X01204930Y-06440000D01*
G01X01040000Y-06440000D02*
X01028740Y-06437880D01*
X01015870Y-06431540D01*
X01007830Y-06420950D01*
X01004610Y-06406130D01*
X01007830Y-06391320D01*
X01017480Y-06378620D01*
X01031960Y-06372270D01*
X01048040Y-06372270D01*
X01057700Y-06368030D01*
X01065740Y-06357450D01*
X01068960Y-06342630D01*
X01064130Y-06327820D01*
X01052870Y-06317230D01*
X01040000Y-06313000D01*
X01027130Y-06317230D01*
X01015870Y-06327820D01*
X01011040Y-06342630D01*
X01014260Y-06357450D01*
X01022300Y-06368030D01*
X01031960Y-06372270D01*
X01048040Y-06372270D01*
X01062520Y-06378620D01*
X01072170Y-06391320D01*
X01075390Y-06406130D01*
X01072170Y-06420950D01*
X01064130Y-06431540D01*
X01051260Y-06437880D01*
X01040000Y-06440000D01*
G01X00945850Y-06420950D02*
X00936200Y-06431540D01*
X00924940Y-06437880D01*
X00910460Y-06440000D01*
X00895980Y-06435770D01*
X00884720Y-06427300D01*
X00876680Y-06412490D01*
X00875070Y-06395550D01*
X00878290Y-06378620D01*
X00886330Y-06368030D01*
X00897590Y-06359570D01*
X00908850Y-06357450D01*
X00920110Y-06359570D01*
X00934590Y-06368030D01*
X00929760Y-06313000D01*
X00886330Y-06313000D01*
G01X00714610Y-06195770D02*
X00785390Y-06288900D01*
G01X00750000Y-06305830D02*
X00750000Y-06178830D01*
G01X00785390Y-06195770D02*
X00714610Y-06288900D01*
G01X00701740Y-06242330D02*
X00798260Y-06242330D01*
G01X00714610Y-05195770D02*
X00785390Y-05288900D01*
G01X00750000Y-05305830D02*
X00750000Y-05178830D01*
G01X00785390Y-05195770D02*
X00714610Y-05288900D01*
G01X00701740Y-05242330D02*
X00798260Y-05242330D01*
G01X01204930Y-05440000D02*
X01204930Y-05313000D01*
X01172760Y-05313000D01*
X01159890Y-05319350D01*
X01150240Y-05327820D01*
X01142190Y-05340510D01*
X01135760Y-05355340D01*
X01134150Y-05376500D01*
X01135760Y-05397670D01*
X01142190Y-05412490D01*
X01150240Y-05425190D01*
X01159890Y-05433650D01*
X01172760Y-05440000D01*
X01204930Y-05440000D01*
G01X01043220Y-05440000D02*
X01040000Y-05412490D01*
X01035170Y-05389200D01*
X01028740Y-05368030D01*
X01020700Y-05344750D01*
X01007830Y-05313000D01*
X01072170Y-05313000D01*
G01X00891160Y-05440000D02*
X00891160Y-05313000D01*
X00950680Y-05404020D01*
X00870240Y-05404020D01*
G01X00714610Y-04195770D02*
X00785390Y-04288900D01*
G01X00750000Y-04305830D02*
X00750000Y-04178830D01*
G01X00785390Y-04195770D02*
X00714610Y-04288900D01*
G01X00701740Y-04242330D02*
X00798260Y-04242330D01*
G01X01204930Y-04440000D02*
X01204930Y-04313000D01*
X01172760Y-04313000D01*
X01159890Y-04319350D01*
X01150240Y-04327820D01*
X01142190Y-04340510D01*
X01135760Y-04355340D01*
X01134150Y-04376500D01*
X01135760Y-04397670D01*
X01142190Y-04412490D01*
X01150240Y-04425190D01*
X01159890Y-04433650D01*
X01172760Y-04440000D01*
X01204930Y-04440000D01*
G01X01070570Y-04387090D02*
X01059300Y-04372270D01*
X01049650Y-04363800D01*
X01036780Y-04359570D01*
X01025520Y-04363800D01*
X01017480Y-04372270D01*
X01011040Y-04384970D01*
X01009430Y-04399780D01*
X01011040Y-04412490D01*
X01017480Y-04425190D01*
X01027130Y-04435770D01*
X01038390Y-04440000D01*
X01051260Y-04435770D01*
X01062520Y-04423070D01*
X01068960Y-04404020D01*
X01070570Y-04382850D01*
X01067350Y-04355340D01*
X01062520Y-04340510D01*
X01054480Y-04325700D01*
X01043220Y-04315120D01*
X01031960Y-04313000D01*
X01020700Y-04317230D01*
X01012650Y-04327820D01*
G01X00945850Y-04414600D02*
X00936200Y-04429420D01*
X00923330Y-04437880D01*
X00908850Y-04440000D01*
X00895980Y-04437880D01*
X00883110Y-04427300D01*
X00875070Y-04414600D01*
X00873460Y-04401900D01*
X00876680Y-04387090D01*
X00887940Y-04376500D01*
X00899200Y-04372270D01*
X00913680Y-04372270D01*
G01X00899200Y-04372270D02*
X00889550Y-04365920D01*
X00881500Y-04355340D01*
X00878290Y-04342630D01*
X00881500Y-04329930D01*
X00889550Y-04319350D01*
X00904030Y-04313000D01*
X00918500Y-04315120D01*
X00932980Y-04323580D01*
G01X01204930Y-03440000D02*
X01204930Y-03313000D01*
X01172760Y-03313000D01*
X01159890Y-03319350D01*
X01150240Y-03327820D01*
X01142190Y-03340510D01*
X01135760Y-03355340D01*
X01134150Y-03376500D01*
X01135760Y-03397670D01*
X01142190Y-03412490D01*
X01150240Y-03425190D01*
X01159890Y-03433650D01*
X01172760Y-03440000D01*
X01204930Y-03440000D01*
G01X01075390Y-03420950D02*
X01065740Y-03431540D01*
X01054480Y-03437880D01*
X01040000Y-03440000D01*
X01025520Y-03435770D01*
X01014260Y-03427300D01*
X01006220Y-03412490D01*
X01004610Y-03395550D01*
X01007830Y-03378620D01*
X01015870Y-03368030D01*
X01027130Y-03359570D01*
X01038390Y-03357450D01*
X01049650Y-03359570D01*
X01064130Y-03368030D01*
X01059300Y-03313000D01*
X01015870Y-03313000D01*
G01X00941030Y-03334170D02*
X00931370Y-03321470D01*
X00920110Y-03315120D01*
X00907240Y-03313000D01*
X00891160Y-03317230D01*
X00879890Y-03327820D01*
X00876680Y-03340510D01*
X00878290Y-03353220D01*
X00884720Y-03363800D01*
X00916890Y-03384970D01*
X00931370Y-03399780D01*
X00941030Y-03420950D01*
X00944240Y-03440000D01*
X00876680Y-03440000D01*
G01X00714610Y-03195770D02*
X00785390Y-03288900D01*
G01X00750000Y-03305830D02*
X00750000Y-03178830D01*
G01X00785390Y-03195770D02*
X00714610Y-03288900D01*
G01X00701740Y-03242330D02*
X00798260Y-03242330D01*
G01X00714610Y-02195770D02*
X00785390Y-02288900D01*
G01X00750000Y-02305830D02*
X00750000Y-02178830D01*
G01X00785390Y-02195770D02*
X00714610Y-02288900D01*
G01X00701740Y-02242330D02*
X00798260Y-02242330D01*
G01X01204930Y-02440000D02*
X01204930Y-02313000D01*
X01172760Y-02313000D01*
X01159890Y-02319350D01*
X01150240Y-02327820D01*
X01142190Y-02340510D01*
X01135760Y-02355340D01*
X01134150Y-02376500D01*
X01135760Y-02397670D01*
X01142190Y-02412490D01*
X01150240Y-02425190D01*
X01159890Y-02433650D01*
X01172760Y-02440000D01*
X01204930Y-02440000D01*
G01X01020700Y-02440000D02*
X01020700Y-02313000D01*
X01080220Y-02404020D01*
X00999780Y-02404020D01*
G01X00910460Y-02440000D02*
X00910460Y-02313000D01*
X00929760Y-02338400D01*
G01X00929760Y-02440000D02*
X00891160Y-02440000D01*
G01X00714610Y-01195770D02*
X00785390Y-01288900D01*
G01X00750000Y-01305830D02*
X00750000Y-01178830D01*
G01X00785390Y-01195770D02*
X00714610Y-01288900D01*
G01X00701740Y-01242330D02*
X00798260Y-01242330D01*
G01X01204930Y-01440000D02*
X01204930Y-01313000D01*
X01172760Y-01313000D01*
X01159890Y-01319350D01*
X01150240Y-01327820D01*
X01142190Y-01340510D01*
X01135760Y-01355340D01*
X01134150Y-01376500D01*
X01135760Y-01397670D01*
X01142190Y-01412490D01*
X01150240Y-01425190D01*
X01159890Y-01433650D01*
X01172760Y-01440000D01*
X01204930Y-01440000D01*
G01X01075390Y-01414600D02*
X01065740Y-01429420D01*
X01052870Y-01437880D01*
X01038390Y-01440000D01*
X01025520Y-01437880D01*
X01012650Y-01427300D01*
X01004610Y-01414600D01*
X01003000Y-01401900D01*
X01006220Y-01387090D01*
X01017480Y-01376500D01*
X01028740Y-01372270D01*
X01043220Y-01372270D01*
G01X01028740Y-01372270D02*
X01019090Y-01365920D01*
X01011040Y-01355340D01*
X01007830Y-01342630D01*
X01011040Y-01329930D01*
X01019090Y-01319350D01*
X01033570Y-01313000D01*
X01048040Y-01315120D01*
X01062520Y-01323580D01*
G01X00910460Y-01313000D02*
X00923330Y-01317230D01*
X00932980Y-01327820D01*
X00939420Y-01340510D01*
X00944240Y-01357450D01*
X00945850Y-01376500D01*
X00944240Y-01395550D01*
X00939420Y-01412490D01*
X00932980Y-01425190D01*
X00923330Y-01435770D01*
X00910460Y-01440000D01*
X00897590Y-01435770D01*
X00887940Y-01425190D01*
X00881500Y-01412490D01*
X00876680Y-01395550D01*
X00875070Y-01376500D01*
X00876680Y-01357450D01*
X00881500Y-01340510D01*
X00887940Y-01327820D01*
X00897590Y-01317230D01*
X00910460Y-01313000D01*
G01X01204930Y-00440000D02*
X01204930Y-00313000D01*
X01172760Y-00313000D01*
X01159890Y-00319350D01*
X01150240Y-00327820D01*
X01142190Y-00340510D01*
X01135760Y-00355340D01*
X01134150Y-00376500D01*
X01135760Y-00397670D01*
X01142190Y-00412490D01*
X01150240Y-00425190D01*
X01159890Y-00433650D01*
X01172760Y-00440000D01*
X01204930Y-00440000D01*
G01X01040000Y-00440000D02*
X01040000Y-00313000D01*
X01059300Y-00338400D01*
G01X01059300Y-00440000D02*
X01020700Y-00440000D01*
G01X00937810Y-00425190D02*
X00926550Y-00435770D01*
X00913680Y-00440000D01*
X00900810Y-00435770D01*
X00889550Y-00423070D01*
X00881500Y-00404020D01*
X00878290Y-00384970D01*
X00878290Y-00361680D01*
X00881500Y-00342630D01*
X00889550Y-00325700D01*
X00899200Y-00317230D01*
X00910460Y-00313000D01*
X00923330Y-00317230D01*
X00932980Y-00325700D01*
X00939420Y-00338400D01*
X00942630Y-00355340D01*
X00939420Y-00370150D01*
X00931370Y-00384970D01*
X00921720Y-00393440D01*
X00910460Y-00395550D01*
X00897590Y-00391320D01*
X00887940Y-00380730D01*
X00878290Y-00361680D01*
G01X00714610Y-00195770D02*
X00785390Y-00288900D01*
G01X00750000Y-00305830D02*
X00750000Y-00178830D01*
G01X00785390Y-00195770D02*
X00714610Y-00288900D01*
G01X00701740Y-00242330D02*
X00798260Y-00242330D01*
G01X00714610Y00804230D02*
X00785390Y00711100D01*
G01X00750000Y00694170D02*
X00750000Y00821170D01*
G01X00785390Y00804230D02*
X00714610Y00711100D01*
G01X00701740Y00757670D02*
X00798260Y00757670D01*
G01X01140160Y00560000D02*
X01140160Y00687000D01*
X01107990Y00687000D01*
X01095120Y00680650D01*
X01085470Y00672180D01*
X01077420Y00659490D01*
X01070990Y00644660D01*
X01069380Y00623500D01*
X01070990Y00602330D01*
X01077420Y00587510D01*
X01085470Y00574810D01*
X01095120Y00566350D01*
X01107990Y00560000D01*
X01140160Y00560000D01*
G01X00975230Y00560000D02*
X00963970Y00562120D01*
X00951100Y00568460D01*
X00943060Y00579050D01*
X00939840Y00593870D01*
X00943060Y00608680D01*
X00952710Y00621380D01*
X00967190Y00627730D01*
X00983270Y00627730D01*
X00992930Y00631970D01*
X01000970Y00642550D01*
X01004190Y00657370D01*
X00999360Y00672180D01*
X00988100Y00682770D01*
X00975230Y00687000D01*
X00962360Y00682770D01*
X00951100Y00672180D01*
X00946270Y00657370D01*
X00949490Y00642550D01*
X00957530Y00631970D01*
X00967190Y00627730D01*
X00983270Y00627730D01*
X00997750Y00621380D01*
X01007400Y00608680D01*
X01010620Y00593870D01*
X01007400Y00579050D01*
X00999360Y00568460D01*
X00986490Y00562120D01*
X00975230Y00560000D01*
G01X01321040Y02668570D02*
X01306820Y02652700D01*
X01290230Y02643170D01*
X01268900Y02640000D01*
X01247570Y02646350D01*
X01230980Y02659050D01*
X01219130Y02681270D01*
X01216760Y02706670D01*
X01221500Y02732070D01*
X01233350Y02747950D01*
X01249940Y02760650D01*
X01266530Y02763820D01*
X01283120Y02760650D01*
X01304450Y02747950D01*
X01297340Y02830500D01*
X01233350Y02830500D01*
G01X01137650Y02830500D02*
X01078400Y02640000D01*
X01019150Y02830500D01*
G01X00976290Y03038100D02*
X00964440Y03019050D01*
X00950220Y03006350D01*
X00933620Y03000000D01*
X00914660Y03006350D01*
X00900430Y03019050D01*
X00886210Y03038100D01*
X00881470Y03063500D01*
X00881470Y03190500D01*
G01X00790530Y03038100D02*
X00776310Y03015870D01*
X00757350Y03003170D01*
X00736010Y03000000D01*
X00717040Y03003170D01*
X00698080Y03019050D01*
X00686230Y03038100D01*
X00683860Y03057150D01*
X00688600Y03079370D01*
X00705190Y03095250D01*
X00721790Y03101600D01*
X00743120Y03101600D01*
G01X00721790Y03101600D02*
X00707560Y03111120D01*
X00695710Y03127000D01*
X00690970Y03146050D01*
X00695710Y03165100D01*
X00707560Y03180970D01*
X00728900Y03190500D01*
X00750230Y03187330D01*
X00771570Y03174620D01*
G01X00813500Y03357900D02*
X00813500Y03390070D01*
X00775400Y03390070D01*
X00762700Y03380420D01*
X00754230Y03369160D01*
X00750000Y03353080D01*
X00754230Y03336990D01*
X00762700Y03325730D01*
X00775400Y03316080D01*
X00790220Y03309650D01*
X00807150Y03306430D01*
X00821970Y03306430D01*
X00834660Y03309650D01*
X00849490Y03316080D01*
X00862180Y03325730D01*
X00870650Y03335380D01*
X00877000Y03348250D01*
X00877000Y03359510D01*
X00872770Y03372370D01*
X00864300Y03382030D01*
G01X00750000Y03440760D02*
X00877000Y03440760D01*
X00750000Y03514740D01*
X00877000Y03514740D01*
G01X00750000Y03571870D02*
X00877000Y03571870D01*
X00877000Y03604030D01*
X00870650Y03616900D01*
X00862180Y03626550D01*
X00849490Y03634590D01*
X00834660Y03641030D01*
X00813500Y03642630D01*
X00792330Y03641030D01*
X00777510Y03634590D01*
X00764810Y03626550D01*
X00756350Y03616900D01*
X00750000Y03604030D01*
X00750000Y03571870D01*
G01X01050000Y03406810D02*
X01128700Y03406810D01*
X01050000Y03451590D01*
X01128700Y03451590D01*
G01X01122140Y03529310D02*
X01126080Y03523470D01*
X01128700Y03516660D01*
X01128700Y03508870D01*
X01124760Y03500110D01*
X01118210Y03493300D01*
X01110340Y03488430D01*
X01097220Y03484540D01*
X01085410Y03483570D01*
X01073610Y03485510D01*
X01065740Y03488430D01*
X01057870Y03494270D01*
X01052620Y03501090D01*
X01050000Y03507900D01*
X01050000Y03514710D01*
X01052620Y03521530D01*
X01056560Y03527370D01*
X01061800Y03532230D01*
G01X01060490Y03566160D02*
X01053930Y03573950D01*
X01050000Y03582710D01*
X01050000Y03590490D01*
X01053930Y03598280D01*
X01060490Y03604120D01*
X01069680Y03607040D01*
X01078860Y03605090D01*
X01086730Y03600230D01*
X01091970Y03591470D01*
X01094600Y03579790D01*
X01099840Y03572970D01*
X01109020Y03570050D01*
X01118210Y03572000D01*
X01124760Y03576870D01*
X01128700Y03583680D01*
X01128700Y03590490D01*
X01126080Y03597310D01*
X01119520Y03603150D01*
G01X01714610Y-06195770D02*
X01785390Y-06288900D01*
G01X01750000Y-06305830D02*
X01750000Y-06178830D01*
G01X01785390Y-06195770D02*
X01714610Y-06288900D01*
G01X01701740Y-06242330D02*
X01798260Y-06242330D01*
G01X01714610Y-05195770D02*
X01785390Y-05288900D01*
G01X01750000Y-05305830D02*
X01750000Y-05178830D01*
G01X01785390Y-05195770D02*
X01714610Y-05288900D01*
G01X01701740Y-05242330D02*
X01798260Y-05242330D01*
G01X01714610Y-04195770D02*
X01785390Y-04288900D01*
G01X01750000Y-04305830D02*
X01750000Y-04178830D01*
G01X01785390Y-04195770D02*
X01714610Y-04288900D01*
G01X01701740Y-04242330D02*
X01798260Y-04242330D01*
G01X01714610Y-03195770D02*
X01785390Y-03288900D01*
G01X01750000Y-03305830D02*
X01750000Y-03178830D01*
G01X01785390Y-03195770D02*
X01714610Y-03288900D01*
G01X01701740Y-03242330D02*
X01798260Y-03242330D01*
G01X01714610Y-02195770D02*
X01785390Y-02288900D01*
G01X01750000Y-02305830D02*
X01750000Y-02178830D01*
G01X01785390Y-02195770D02*
X01714610Y-02288900D01*
G01X01701740Y-02242330D02*
X01798260Y-02242330D01*
G01X01714610Y-01195770D02*
X01785390Y-01288900D01*
G01X01750000Y-01305830D02*
X01750000Y-01178830D01*
G01X01785390Y-01195770D02*
X01714610Y-01288900D01*
G01X01701740Y-01242330D02*
X01798260Y-01242330D01*
G01X01714610Y-00195770D02*
X01785390Y-00288900D01*
G01X01750000Y-00305830D02*
X01750000Y-00178830D01*
G01X01785390Y-00195770D02*
X01714610Y-00288900D01*
G01X01701740Y-00242330D02*
X01798260Y-00242330D01*
G01X01714610Y00804230D02*
X01785390Y00711100D01*
G01X01750000Y00694170D02*
X01750000Y00821170D01*
G01X01785390Y00804230D02*
X01714610Y00711100D01*
G01X01701740Y00757670D02*
X01798260Y00757670D01*
G01X02056290Y01600000D02*
X02056290Y01790500D01*
X01997030Y01790500D01*
X01978060Y01780970D01*
X01966210Y01768270D01*
X01961470Y01742870D01*
X01966210Y01717470D01*
X01980430Y01701600D01*
X01997030Y01692070D01*
X02056290Y01692070D01*
G01X01997030Y01692070D02*
X01961470Y01600000D01*
G01X01818380Y01600000D02*
X01818380Y01790500D01*
X01846830Y01752400D01*
G01X01846830Y01600000D02*
X01789940Y01600000D01*
G01X01682440Y02263890D02*
X01672910Y02278110D01*
X01666560Y02294700D01*
X01666560Y02313670D01*
X01676090Y02335010D01*
X01691960Y02351600D01*
X01711010Y02363450D01*
X01742760Y02372940D01*
X01771340Y02375310D01*
X01799910Y02370560D01*
X01818960Y02363450D01*
X01838010Y02349230D01*
X01850710Y02332630D01*
X01857060Y02316040D01*
X01857060Y02299450D01*
X01850710Y02282850D01*
X01841190Y02268630D01*
X01828490Y02256770D01*
G01X01857060Y02125540D02*
X01666560Y02125540D01*
X01704660Y02153990D01*
G01X01857060Y02153990D02*
X01857060Y02097100D01*
G01X01491640Y02261860D02*
X01491640Y02223250D01*
G01X01464120Y02244160D02*
X01519160Y02244160D01*
G01X02031040Y02688100D02*
X02016820Y02665870D01*
X01997860Y02653170D01*
X01976530Y02650000D01*
X01957570Y02653170D01*
X01938610Y02669050D01*
X01926760Y02688100D01*
X01924390Y02707150D01*
X01929130Y02729370D01*
X01945720Y02745250D01*
X01962310Y02751600D01*
X01983640Y02751600D01*
G01X01962310Y02751600D02*
X01948090Y02761120D01*
X01936240Y02777000D01*
X01931500Y02796050D01*
X01936240Y02815100D01*
X01948090Y02830970D01*
X01969420Y02840500D01*
X01990750Y02837330D01*
X02012080Y02824620D01*
G01X01847650Y02840500D02*
X01788400Y02650000D01*
X01729150Y02840500D01*
G01X01650040Y02688100D02*
X01635820Y02665870D01*
X01616860Y02653170D01*
X01595530Y02650000D01*
X01576570Y02653170D01*
X01557610Y02669050D01*
X01545760Y02688100D01*
X01543390Y02707150D01*
X01548130Y02729370D01*
X01564720Y02745250D01*
X01581310Y02751600D01*
X01602640Y02751600D01*
G01X01581310Y02751600D02*
X01567090Y02761120D01*
X01555240Y02777000D01*
X01550500Y02796050D01*
X01555240Y02815100D01*
X01567090Y02830970D01*
X01588420Y02840500D01*
X01609750Y02837330D01*
X01631080Y02824620D01*
G01X01260000Y02960000D02*
X01260000Y02880000D01*
X01500000Y02880000D01*
X01500000Y02960000D01*
G01X01540000Y02960000D02*
X01540000Y02880000D01*
X01780000Y02880000D01*
X01780000Y02960000D01*
G01X01800000Y03303890D02*
X01878700Y03303890D01*
X01813120Y03329200D01*
X01878700Y03354510D01*
X01800000Y03354510D01*
G01X01800000Y03407900D02*
X01801310Y03400110D01*
X01806560Y03393300D01*
X01814430Y03387460D01*
X01823610Y03383570D01*
X01834100Y03381620D01*
X01844600Y03381620D01*
X01855090Y03383570D01*
X01864270Y03387460D01*
X01872140Y03393300D01*
X01877390Y03400110D01*
X01878700Y03407900D01*
X01877390Y03415690D01*
X01872140Y03422500D01*
X01864270Y03428340D01*
X01855090Y03432230D01*
X01844600Y03434180D01*
X01834100Y03434180D01*
X01823610Y03432230D01*
X01814430Y03428340D01*
X01806560Y03422500D01*
X01801310Y03415690D01*
X01800000Y03407900D01*
G01X01810490Y03466160D02*
X01803930Y03473950D01*
X01800000Y03482710D01*
X01800000Y03490490D01*
X01803930Y03498280D01*
X01810490Y03504120D01*
X01819680Y03507040D01*
X01828860Y03505090D01*
X01836730Y03500230D01*
X01841970Y03491470D01*
X01844600Y03479790D01*
X01849840Y03472970D01*
X01859020Y03470050D01*
X01868210Y03472000D01*
X01874760Y03476870D01*
X01878700Y03483680D01*
X01878700Y03490490D01*
X01876080Y03497310D01*
X01869520Y03503150D01*
G01X01878700Y03553620D02*
X01878700Y03576980D01*
G01X01878700Y03565300D02*
X01800000Y03565300D01*
G01X01800000Y03553620D02*
X01800000Y03576980D01*
G01X01550000Y03303890D02*
X01628700Y03303890D01*
X01563120Y03329200D01*
X01628700Y03354510D01*
X01550000Y03354510D01*
G01X01628700Y03396220D02*
X01628700Y03419580D01*
G01X01628700Y03407900D02*
X01550000Y03407900D01*
G01X01550000Y03396220D02*
X01550000Y03419580D01*
G01X01560490Y03466160D02*
X01553930Y03473950D01*
X01550000Y03482710D01*
X01550000Y03490490D01*
X01553930Y03498280D01*
X01560490Y03504120D01*
X01569680Y03507040D01*
X01578860Y03505090D01*
X01586730Y03500230D01*
X01591970Y03491470D01*
X01594600Y03479790D01*
X01599840Y03472970D01*
X01609020Y03470050D01*
X01618210Y03472000D01*
X01624760Y03476870D01*
X01628700Y03483680D01*
X01628700Y03490490D01*
X01626080Y03497310D01*
X01619520Y03503150D01*
G01X01550000Y03565300D02*
X01551310Y03557510D01*
X01556560Y03550700D01*
X01564430Y03544860D01*
X01573610Y03540970D01*
X01584100Y03539020D01*
X01594600Y03539020D01*
X01605090Y03540970D01*
X01614270Y03544860D01*
X01622140Y03550700D01*
X01627390Y03557510D01*
X01628700Y03565300D01*
X01627390Y03573090D01*
X01622140Y03579900D01*
X01614270Y03585740D01*
X01605090Y03589630D01*
X01594600Y03591580D01*
X01584100Y03591580D01*
X01573610Y03589630D01*
X01564430Y03585740D01*
X01556560Y03579900D01*
X01551310Y03573090D01*
X01550000Y03565300D01*
G01X01310490Y03408760D02*
X01303930Y03416550D01*
X01300000Y03425310D01*
X01300000Y03433090D01*
X01303930Y03440880D01*
X01310490Y03446720D01*
X01319680Y03449640D01*
X01328860Y03447690D01*
X01336730Y03442830D01*
X01341970Y03434070D01*
X01344600Y03422390D01*
X01349840Y03415570D01*
X01359020Y03412650D01*
X01368210Y03414600D01*
X01374760Y03419470D01*
X01378700Y03426280D01*
X01378700Y03433090D01*
X01376080Y03439910D01*
X01369520Y03445750D01*
G01X01372140Y03529310D02*
X01376080Y03523470D01*
X01378700Y03516660D01*
X01378700Y03508870D01*
X01374760Y03500110D01*
X01368210Y03493300D01*
X01360340Y03488430D01*
X01347220Y03484540D01*
X01335410Y03483570D01*
X01323610Y03485510D01*
X01315740Y03488430D01*
X01307870Y03494270D01*
X01302620Y03501090D01*
X01300000Y03507900D01*
X01300000Y03514710D01*
X01302620Y03521530D01*
X01306560Y03527370D01*
X01311800Y03532230D01*
G01X01300000Y03565190D02*
X01378700Y03565190D01*
G01X01378700Y03602170D02*
X01330170Y03565190D01*
G01X01300000Y03608010D02*
X01352470Y03581730D01*
G01X02204930Y-06440000D02*
X02204930Y-06313000D01*
X02172760Y-06313000D01*
X02159890Y-06319350D01*
X02150240Y-06327820D01*
X02142190Y-06340510D01*
X02135760Y-06355340D01*
X02134150Y-06376500D01*
X02135760Y-06397670D01*
X02142190Y-06412490D01*
X02150240Y-06425190D01*
X02159890Y-06433650D01*
X02172760Y-06440000D01*
X02204930Y-06440000D01*
G01X02040000Y-06440000D02*
X02028740Y-06437880D01*
X02015870Y-06431540D01*
X02007830Y-06420950D01*
X02004610Y-06406130D01*
X02007830Y-06391320D01*
X02017480Y-06378620D01*
X02031960Y-06372270D01*
X02048040Y-06372270D01*
X02057700Y-06368030D01*
X02065740Y-06357450D01*
X02068960Y-06342630D01*
X02064130Y-06327820D01*
X02052870Y-06317230D01*
X02040000Y-06313000D01*
X02027130Y-06317230D01*
X02015870Y-06327820D01*
X02011040Y-06342630D01*
X02014260Y-06357450D01*
X02022300Y-06368030D01*
X02031960Y-06372270D01*
X02048040Y-06372270D01*
X02062520Y-06378620D01*
X02072170Y-06391320D01*
X02075390Y-06406130D01*
X02072170Y-06420950D01*
X02064130Y-06431540D01*
X02051260Y-06437880D01*
X02040000Y-06440000D01*
G01X01941030Y-06387090D02*
X01929760Y-06372270D01*
X01920110Y-06363800D01*
X01907240Y-06359570D01*
X01895980Y-06363800D01*
X01887940Y-06372270D01*
X01881500Y-06384970D01*
X01879890Y-06399780D01*
X01881500Y-06412490D01*
X01887940Y-06425190D01*
X01897590Y-06435770D01*
X01908850Y-06440000D01*
X01921720Y-06435770D01*
X01932980Y-06423070D01*
X01939420Y-06404020D01*
X01941030Y-06382850D01*
X01937810Y-06355340D01*
X01932980Y-06340510D01*
X01924940Y-06325700D01*
X01913680Y-06315120D01*
X01902420Y-06313000D01*
X01891160Y-06317230D01*
X01883110Y-06327820D01*
G01X02204930Y-05440000D02*
X02204930Y-05313000D01*
X02172760Y-05313000D01*
X02159890Y-05319350D01*
X02150240Y-05327820D01*
X02142190Y-05340510D01*
X02135760Y-05355340D01*
X02134150Y-05376500D01*
X02135760Y-05397670D01*
X02142190Y-05412490D01*
X02150240Y-05425190D01*
X02159890Y-05433650D01*
X02172760Y-05440000D01*
X02204930Y-05440000D01*
G01X02043220Y-05440000D02*
X02040000Y-05412490D01*
X02035170Y-05389200D01*
X02028740Y-05368030D01*
X02020700Y-05344750D01*
X02007830Y-05313000D01*
X02072170Y-05313000D01*
G01X01945850Y-05420950D02*
X01936200Y-05431540D01*
X01924940Y-05437880D01*
X01910460Y-05440000D01*
X01895980Y-05435770D01*
X01884720Y-05427300D01*
X01876680Y-05412490D01*
X01875070Y-05395550D01*
X01878290Y-05378620D01*
X01886330Y-05368030D01*
X01897590Y-05359570D01*
X01908850Y-05357450D01*
X01920110Y-05359570D01*
X01934590Y-05368030D01*
X01929760Y-05313000D01*
X01886330Y-05313000D01*
G01X02204930Y-04440000D02*
X02204930Y-04313000D01*
X02172760Y-04313000D01*
X02159890Y-04319350D01*
X02150240Y-04327820D01*
X02142190Y-04340510D01*
X02135760Y-04355340D01*
X02134150Y-04376500D01*
X02135760Y-04397670D01*
X02142190Y-04412490D01*
X02150240Y-04425190D01*
X02159890Y-04433650D01*
X02172760Y-04440000D01*
X02204930Y-04440000D01*
G01X02070570Y-04387090D02*
X02059300Y-04372270D01*
X02049650Y-04363800D01*
X02036780Y-04359570D01*
X02025520Y-04363800D01*
X02017480Y-04372270D01*
X02011040Y-04384970D01*
X02009430Y-04399780D01*
X02011040Y-04412490D01*
X02017480Y-04425190D01*
X02027130Y-04435770D01*
X02038390Y-04440000D01*
X02051260Y-04435770D01*
X02062520Y-04423070D01*
X02068960Y-04404020D01*
X02070570Y-04382850D01*
X02067350Y-04355340D01*
X02062520Y-04340510D01*
X02054480Y-04325700D01*
X02043220Y-04315120D01*
X02031960Y-04313000D01*
X02020700Y-04317230D01*
X02012650Y-04327820D01*
G01X01891160Y-04440000D02*
X01891160Y-04313000D01*
X01950680Y-04404020D01*
X01870240Y-04404020D01*
G01X02204930Y-03440000D02*
X02204930Y-03313000D01*
X02172760Y-03313000D01*
X02159890Y-03319350D01*
X02150240Y-03327820D01*
X02142190Y-03340510D01*
X02135760Y-03355340D01*
X02134150Y-03376500D01*
X02135760Y-03397670D01*
X02142190Y-03412490D01*
X02150240Y-03425190D01*
X02159890Y-03433650D01*
X02172760Y-03440000D01*
X02204930Y-03440000D01*
G01X02075390Y-03420950D02*
X02065740Y-03431540D01*
X02054480Y-03437880D01*
X02040000Y-03440000D01*
X02025520Y-03435770D01*
X02014260Y-03427300D01*
X02006220Y-03412490D01*
X02004610Y-03395550D01*
X02007830Y-03378620D01*
X02015870Y-03368030D01*
X02027130Y-03359570D01*
X02038390Y-03357450D01*
X02049650Y-03359570D01*
X02064130Y-03368030D01*
X02059300Y-03313000D01*
X02015870Y-03313000D01*
G01X01945850Y-03414600D02*
X01936200Y-03429420D01*
X01923330Y-03437880D01*
X01908850Y-03440000D01*
X01895980Y-03437880D01*
X01883110Y-03427300D01*
X01875070Y-03414600D01*
X01873460Y-03401900D01*
X01876680Y-03387090D01*
X01887940Y-03376500D01*
X01899200Y-03372270D01*
X01913680Y-03372270D01*
G01X01899200Y-03372270D02*
X01889550Y-03365920D01*
X01881500Y-03355340D01*
X01878290Y-03342630D01*
X01881500Y-03329930D01*
X01889550Y-03319350D01*
X01904030Y-03313000D01*
X01918500Y-03315120D01*
X01932980Y-03323580D01*
G01X02204930Y-02440000D02*
X02204930Y-02313000D01*
X02172760Y-02313000D01*
X02159890Y-02319350D01*
X02150240Y-02327820D01*
X02142190Y-02340510D01*
X02135760Y-02355340D01*
X02134150Y-02376500D01*
X02135760Y-02397670D01*
X02142190Y-02412490D01*
X02150240Y-02425190D01*
X02159890Y-02433650D01*
X02172760Y-02440000D01*
X02204930Y-02440000D01*
G01X02020700Y-02440000D02*
X02020700Y-02313000D01*
X02080220Y-02404020D01*
X01999780Y-02404020D01*
G01X01941030Y-02334170D02*
X01931370Y-02321470D01*
X01920110Y-02315120D01*
X01907240Y-02313000D01*
X01891160Y-02317230D01*
X01879890Y-02327820D01*
X01876680Y-02340510D01*
X01878290Y-02353220D01*
X01884720Y-02363800D01*
X01916890Y-02384970D01*
X01931370Y-02399780D01*
X01941030Y-02420950D01*
X01944240Y-02440000D01*
X01876680Y-02440000D01*
G01X02204930Y-01440000D02*
X02204930Y-01313000D01*
X02172760Y-01313000D01*
X02159890Y-01319350D01*
X02150240Y-01327820D01*
X02142190Y-01340510D01*
X02135760Y-01355340D01*
X02134150Y-01376500D01*
X02135760Y-01397670D01*
X02142190Y-01412490D01*
X02150240Y-01425190D01*
X02159890Y-01433650D01*
X02172760Y-01440000D01*
X02204930Y-01440000D01*
G01X02075390Y-01414600D02*
X02065740Y-01429420D01*
X02052870Y-01437880D01*
X02038390Y-01440000D01*
X02025520Y-01437880D01*
X02012650Y-01427300D01*
X02004610Y-01414600D01*
X02003000Y-01401900D01*
X02006220Y-01387090D01*
X02017480Y-01376500D01*
X02028740Y-01372270D01*
X02043220Y-01372270D01*
G01X02028740Y-01372270D02*
X02019090Y-01365920D01*
X02011040Y-01355340D01*
X02007830Y-01342630D01*
X02011040Y-01329930D01*
X02019090Y-01319350D01*
X02033570Y-01313000D01*
X02048040Y-01315120D01*
X02062520Y-01323580D01*
G01X01910460Y-01440000D02*
X01910460Y-01313000D01*
X01929760Y-01338400D01*
G01X01929760Y-01440000D02*
X01891160Y-01440000D01*
G01X02204930Y-00440000D02*
X02204930Y-00313000D01*
X02172760Y-00313000D01*
X02159890Y-00319350D01*
X02150240Y-00327820D01*
X02142190Y-00340510D01*
X02135760Y-00355340D01*
X02134150Y-00376500D01*
X02135760Y-00397670D01*
X02142190Y-00412490D01*
X02150240Y-00425190D01*
X02159890Y-00433650D01*
X02172760Y-00440000D01*
X02204930Y-00440000D01*
G01X02070570Y-00334170D02*
X02060910Y-00321470D01*
X02049650Y-00315120D01*
X02036780Y-00313000D01*
X02020700Y-00317230D01*
X02009430Y-00327820D01*
X02006220Y-00340510D01*
X02007830Y-00353220D01*
X02014260Y-00363800D01*
X02046430Y-00384970D01*
X02060910Y-00399780D01*
X02070570Y-00420950D01*
X02073780Y-00440000D01*
X02006220Y-00440000D01*
G01X01910460Y-00313000D02*
X01923330Y-00317230D01*
X01932980Y-00327820D01*
X01939420Y-00340510D01*
X01944240Y-00357450D01*
X01945850Y-00376500D01*
X01944240Y-00395550D01*
X01939420Y-00412490D01*
X01932980Y-00425190D01*
X01923330Y-00435770D01*
X01910460Y-00440000D01*
X01897590Y-00435770D01*
X01887940Y-00425190D01*
X01881500Y-00412490D01*
X01876680Y-00395550D01*
X01875070Y-00376500D01*
X01876680Y-00357450D01*
X01881500Y-00340510D01*
X01887940Y-00327820D01*
X01897590Y-00317230D01*
X01910460Y-00313000D01*
G01X02140160Y00560000D02*
X02140160Y00687000D01*
X02107990Y00687000D01*
X02095120Y00680650D01*
X02085470Y00672180D01*
X02077420Y00659490D01*
X02070990Y00644660D01*
X02069380Y00623500D01*
X02070990Y00602330D01*
X02077420Y00587510D01*
X02085470Y00574810D01*
X02095120Y00566350D01*
X02107990Y00560000D01*
X02140160Y00560000D01*
G01X02002580Y00574810D02*
X01991320Y00564230D01*
X01978450Y00560000D01*
X01965580Y00564230D01*
X01954320Y00576930D01*
X01946270Y00595980D01*
X01943060Y00615030D01*
X01943060Y00638320D01*
X01946270Y00657370D01*
X01954320Y00674300D01*
X01963970Y00682770D01*
X01975230Y00687000D01*
X01988100Y00682770D01*
X01997750Y00674300D01*
X02004190Y00661600D01*
X02007400Y00644660D01*
X02004190Y00629850D01*
X01996140Y00615030D01*
X01986490Y00606560D01*
X01975230Y00604450D01*
X01962360Y00608680D01*
X01952710Y00619270D01*
X01943060Y00638320D01*
G01X02177000Y03308040D02*
X02050000Y03348250D01*
X02177000Y03388460D01*
G01X02166420Y03513130D02*
X02172770Y03503480D01*
X02177000Y03492230D01*
X02177000Y03479360D01*
X02170650Y03464880D01*
X02160070Y03453630D01*
X02147370Y03445580D01*
X02126200Y03439150D01*
X02107150Y03437540D01*
X02088100Y03440760D01*
X02075400Y03445580D01*
X02062700Y03455230D01*
X02054230Y03466490D01*
X02050000Y03477750D01*
X02050000Y03489010D01*
X02054230Y03500270D01*
X02060580Y03509920D01*
X02069050Y03517960D01*
G01X02166420Y03642630D02*
X02172770Y03632980D01*
X02177000Y03621730D01*
X02177000Y03608860D01*
X02170650Y03594380D01*
X02160070Y03583130D01*
X02147370Y03575080D01*
X02126200Y03568650D01*
X02107150Y03567040D01*
X02088100Y03570260D01*
X02075400Y03575080D01*
X02062700Y03584730D01*
X02054230Y03595990D01*
X02050000Y03607250D01*
X02050000Y03618510D01*
X02054230Y03629770D01*
X02060580Y03639420D01*
X02069050Y03647460D01*
G01X02596290Y03778100D02*
X02584440Y03759050D01*
X02570220Y03746350D01*
X02553620Y03740000D01*
X02534660Y03746350D01*
X02520430Y03759050D01*
X02506210Y03778100D01*
X02501470Y03803500D01*
X02501470Y03930500D01*
G01X02358380Y03740000D02*
X02358380Y03930500D01*
X02386830Y03892400D01*
G01X02386830Y03740000D02*
X02329940Y03740000D01*
G01X03204930Y-06440000D02*
X03204930Y-06313000D01*
X03172760Y-06313000D01*
X03159890Y-06319350D01*
X03150240Y-06327820D01*
X03142190Y-06340510D01*
X03135760Y-06355340D01*
X03134150Y-06376500D01*
X03135760Y-06397670D01*
X03142190Y-06412490D01*
X03150240Y-06425190D01*
X03159890Y-06433650D01*
X03172760Y-06440000D01*
X03204930Y-06440000D01*
G01X03040000Y-06440000D02*
X03028740Y-06437880D01*
X03015870Y-06431540D01*
X03007830Y-06420950D01*
X03004610Y-06406130D01*
X03007830Y-06391320D01*
X03017480Y-06378620D01*
X03031960Y-06372270D01*
X03048040Y-06372270D01*
X03057700Y-06368030D01*
X03065740Y-06357450D01*
X03068960Y-06342630D01*
X03064130Y-06327820D01*
X03052870Y-06317230D01*
X03040000Y-06313000D01*
X03027130Y-06317230D01*
X03015870Y-06327820D01*
X03011040Y-06342630D01*
X03014260Y-06357450D01*
X03022300Y-06368030D01*
X03031960Y-06372270D01*
X03048040Y-06372270D01*
X03062520Y-06378620D01*
X03072170Y-06391320D01*
X03075390Y-06406130D01*
X03072170Y-06420950D01*
X03064130Y-06431540D01*
X03051260Y-06437880D01*
X03040000Y-06440000D01*
G01X02913680Y-06440000D02*
X02910460Y-06412490D01*
X02905630Y-06389200D01*
X02899200Y-06368030D01*
X02891160Y-06344750D01*
X02878290Y-06313000D01*
X02942630Y-06313000D01*
G01X02714610Y-06195770D02*
X02785390Y-06288900D01*
G01X02750000Y-06305830D02*
X02750000Y-06178830D01*
G01X02785390Y-06195770D02*
X02714610Y-06288900D01*
G01X02701740Y-06242330D02*
X02798260Y-06242330D01*
G01X02714610Y-05195770D02*
X02785390Y-05288900D01*
G01X02750000Y-05305830D02*
X02750000Y-05178830D01*
G01X02785390Y-05195770D02*
X02714610Y-05288900D01*
G01X02701740Y-05242330D02*
X02798260Y-05242330D01*
G01X03204930Y-05440000D02*
X03204930Y-05313000D01*
X03172760Y-05313000D01*
X03159890Y-05319350D01*
X03150240Y-05327820D01*
X03142190Y-05340510D01*
X03135760Y-05355340D01*
X03134150Y-05376500D01*
X03135760Y-05397670D01*
X03142190Y-05412490D01*
X03150240Y-05425190D01*
X03159890Y-05433650D01*
X03172760Y-05440000D01*
X03204930Y-05440000D01*
G01X03043220Y-05440000D02*
X03040000Y-05412490D01*
X03035170Y-05389200D01*
X03028740Y-05368030D01*
X03020700Y-05344750D01*
X03007830Y-05313000D01*
X03072170Y-05313000D01*
G01X02941030Y-05387090D02*
X02929760Y-05372270D01*
X02920110Y-05363800D01*
X02907240Y-05359570D01*
X02895980Y-05363800D01*
X02887940Y-05372270D01*
X02881500Y-05384970D01*
X02879890Y-05399780D01*
X02881500Y-05412490D01*
X02887940Y-05425190D01*
X02897590Y-05435770D01*
X02908850Y-05440000D01*
X02921720Y-05435770D01*
X02932980Y-05423070D01*
X02939420Y-05404020D01*
X02941030Y-05382850D01*
X02937810Y-05355340D01*
X02932980Y-05340510D01*
X02924940Y-05325700D01*
X02913680Y-05315120D01*
X02902420Y-05313000D01*
X02891160Y-05317230D01*
X02883110Y-05327820D01*
G01X02714610Y-04195770D02*
X02785390Y-04288900D01*
G01X02750000Y-04305830D02*
X02750000Y-04178830D01*
G01X02785390Y-04195770D02*
X02714610Y-04288900D01*
G01X02701740Y-04242330D02*
X02798260Y-04242330D01*
G01X03204930Y-04440000D02*
X03204930Y-04313000D01*
X03172760Y-04313000D01*
X03159890Y-04319350D01*
X03150240Y-04327820D01*
X03142190Y-04340510D01*
X03135760Y-04355340D01*
X03134150Y-04376500D01*
X03135760Y-04397670D01*
X03142190Y-04412490D01*
X03150240Y-04425190D01*
X03159890Y-04433650D01*
X03172760Y-04440000D01*
X03204930Y-04440000D01*
G01X03070570Y-04387090D02*
X03059300Y-04372270D01*
X03049650Y-04363800D01*
X03036780Y-04359570D01*
X03025520Y-04363800D01*
X03017480Y-04372270D01*
X03011040Y-04384970D01*
X03009430Y-04399780D01*
X03011040Y-04412490D01*
X03017480Y-04425190D01*
X03027130Y-04435770D01*
X03038390Y-04440000D01*
X03051260Y-04435770D01*
X03062520Y-04423070D01*
X03068960Y-04404020D01*
X03070570Y-04382850D01*
X03067350Y-04355340D01*
X03062520Y-04340510D01*
X03054480Y-04325700D01*
X03043220Y-04315120D01*
X03031960Y-04313000D01*
X03020700Y-04317230D01*
X03012650Y-04327820D01*
G01X02945850Y-04420950D02*
X02936200Y-04431540D01*
X02924940Y-04437880D01*
X02910460Y-04440000D01*
X02895980Y-04435770D01*
X02884720Y-04427300D01*
X02876680Y-04412490D01*
X02875070Y-04395550D01*
X02878290Y-04378620D01*
X02886330Y-04368030D01*
X02897590Y-04359570D01*
X02908850Y-04357450D01*
X02920110Y-04359570D01*
X02934590Y-04368030D01*
X02929760Y-04313000D01*
X02886330Y-04313000D01*
G01X03204930Y-03440000D02*
X03204930Y-03313000D01*
X03172760Y-03313000D01*
X03159890Y-03319350D01*
X03150240Y-03327820D01*
X03142190Y-03340510D01*
X03135760Y-03355340D01*
X03134150Y-03376500D01*
X03135760Y-03397670D01*
X03142190Y-03412490D01*
X03150240Y-03425190D01*
X03159890Y-03433650D01*
X03172760Y-03440000D01*
X03204930Y-03440000D01*
G01X03075390Y-03420950D02*
X03065740Y-03431540D01*
X03054480Y-03437880D01*
X03040000Y-03440000D01*
X03025520Y-03435770D01*
X03014260Y-03427300D01*
X03006220Y-03412490D01*
X03004610Y-03395550D01*
X03007830Y-03378620D01*
X03015870Y-03368030D01*
X03027130Y-03359570D01*
X03038390Y-03357450D01*
X03049650Y-03359570D01*
X03064130Y-03368030D01*
X03059300Y-03313000D01*
X03015870Y-03313000D01*
G01X02891160Y-03440000D02*
X02891160Y-03313000D01*
X02950680Y-03404020D01*
X02870240Y-03404020D01*
G01X02714610Y-03195770D02*
X02785390Y-03288900D01*
G01X02750000Y-03305830D02*
X02750000Y-03178830D01*
G01X02785390Y-03195770D02*
X02714610Y-03288900D01*
G01X02701740Y-03242330D02*
X02798260Y-03242330D01*
G01X02714610Y-02195770D02*
X02785390Y-02288900D01*
G01X02750000Y-02305830D02*
X02750000Y-02178830D01*
G01X02785390Y-02195770D02*
X02714610Y-02288900D01*
G01X02701740Y-02242330D02*
X02798260Y-02242330D01*
G01X03204930Y-02440000D02*
X03204930Y-02313000D01*
X03172760Y-02313000D01*
X03159890Y-02319350D01*
X03150240Y-02327820D01*
X03142190Y-02340510D01*
X03135760Y-02355340D01*
X03134150Y-02376500D01*
X03135760Y-02397670D01*
X03142190Y-02412490D01*
X03150240Y-02425190D01*
X03159890Y-02433650D01*
X03172760Y-02440000D01*
X03204930Y-02440000D01*
G01X03020700Y-02440000D02*
X03020700Y-02313000D01*
X03080220Y-02404020D01*
X02999780Y-02404020D01*
G01X02945850Y-02414600D02*
X02936200Y-02429420D01*
X02923330Y-02437880D01*
X02908850Y-02440000D01*
X02895980Y-02437880D01*
X02883110Y-02427300D01*
X02875070Y-02414600D01*
X02873460Y-02401900D01*
X02876680Y-02387090D01*
X02887940Y-02376500D01*
X02899200Y-02372270D01*
X02913680Y-02372270D01*
G01X02899200Y-02372270D02*
X02889550Y-02365920D01*
X02881500Y-02355340D01*
X02878290Y-02342630D01*
X02881500Y-02329930D01*
X02889550Y-02319350D01*
X02904030Y-02313000D01*
X02918500Y-02315120D01*
X02932980Y-02323580D01*
G01X02714610Y-01195770D02*
X02785390Y-01288900D01*
G01X02750000Y-01305830D02*
X02750000Y-01178830D01*
G01X02785390Y-01195770D02*
X02714610Y-01288900D01*
G01X02701740Y-01242330D02*
X02798260Y-01242330D01*
G01X03204930Y-01440000D02*
X03204930Y-01313000D01*
X03172760Y-01313000D01*
X03159890Y-01319350D01*
X03150240Y-01327820D01*
X03142190Y-01340510D01*
X03135760Y-01355340D01*
X03134150Y-01376500D01*
X03135760Y-01397670D01*
X03142190Y-01412490D01*
X03150240Y-01425190D01*
X03159890Y-01433650D01*
X03172760Y-01440000D01*
X03204930Y-01440000D01*
G01X03075390Y-01414600D02*
X03065740Y-01429420D01*
X03052870Y-01437880D01*
X03038390Y-01440000D01*
X03025520Y-01437880D01*
X03012650Y-01427300D01*
X03004610Y-01414600D01*
X03003000Y-01401900D01*
X03006220Y-01387090D01*
X03017480Y-01376500D01*
X03028740Y-01372270D01*
X03043220Y-01372270D01*
G01X03028740Y-01372270D02*
X03019090Y-01365920D01*
X03011040Y-01355340D01*
X03007830Y-01342630D01*
X03011040Y-01329930D01*
X03019090Y-01319350D01*
X03033570Y-01313000D01*
X03048040Y-01315120D01*
X03062520Y-01323580D01*
G01X02941030Y-01334170D02*
X02931370Y-01321470D01*
X02920110Y-01315120D01*
X02907240Y-01313000D01*
X02891160Y-01317230D01*
X02879890Y-01327820D01*
X02876680Y-01340510D01*
X02878290Y-01353220D01*
X02884720Y-01363800D01*
X02916890Y-01384970D01*
X02931370Y-01399780D01*
X02941030Y-01420950D01*
X02944240Y-01440000D01*
X02876680Y-01440000D01*
G01X03204930Y-00440000D02*
X03204930Y-00313000D01*
X03172760Y-00313000D01*
X03159890Y-00319350D01*
X03150240Y-00327820D01*
X03142190Y-00340510D01*
X03135760Y-00355340D01*
X03134150Y-00376500D01*
X03135760Y-00397670D01*
X03142190Y-00412490D01*
X03150240Y-00425190D01*
X03159890Y-00433650D01*
X03172760Y-00440000D01*
X03204930Y-00440000D01*
G01X03070570Y-00334170D02*
X03060910Y-00321470D01*
X03049650Y-00315120D01*
X03036780Y-00313000D01*
X03020700Y-00317230D01*
X03009430Y-00327820D01*
X03006220Y-00340510D01*
X03007830Y-00353220D01*
X03014260Y-00363800D01*
X03046430Y-00384970D01*
X03060910Y-00399780D01*
X03070570Y-00420950D01*
X03073780Y-00440000D01*
X03006220Y-00440000D01*
G01X02910460Y-00440000D02*
X02910460Y-00313000D01*
X02929760Y-00338400D01*
G01X02929760Y-00440000D02*
X02891160Y-00440000D01*
G01X02714610Y-00195770D02*
X02785390Y-00288900D01*
G01X02750000Y-00305830D02*
X02750000Y-00178830D01*
G01X02785390Y-00195770D02*
X02714610Y-00288900D01*
G01X02701740Y-00242330D02*
X02798260Y-00242330D01*
G01X02714610Y00804230D02*
X02785390Y00711100D01*
G01X02750000Y00694170D02*
X02750000Y00821170D01*
G01X02785390Y00804230D02*
X02714610Y00711100D01*
G01X02701740Y00757670D02*
X02798260Y00757670D01*
G01X03204930Y00560000D02*
X03204930Y00687000D01*
X03172760Y00687000D01*
X03159890Y00680650D01*
X03150240Y00672180D01*
X03142190Y00659490D01*
X03135760Y00644660D01*
X03134150Y00623500D01*
X03135760Y00602330D01*
X03142190Y00587510D01*
X03150240Y00574810D01*
X03159890Y00566350D01*
X03172760Y00560000D01*
X03204930Y00560000D01*
G01X03040000Y00560000D02*
X03040000Y00687000D01*
X03059300Y00661600D01*
G01X03059300Y00560000D02*
X03020700Y00560000D01*
G01X02910460Y00687000D02*
X02923330Y00682770D01*
X02932980Y00672180D01*
X02939420Y00659490D01*
X02944240Y00642550D01*
X02945850Y00623500D01*
X02944240Y00604450D01*
X02939420Y00587510D01*
X02932980Y00574810D01*
X02923330Y00564230D01*
X02910460Y00560000D01*
X02897590Y00564230D01*
X02887940Y00574810D01*
X02881500Y00587510D01*
X02876680Y00604450D01*
X02875070Y00623500D01*
X02876680Y00642550D01*
X02881500Y00659490D01*
X02887940Y00672180D01*
X02897590Y00682770D01*
X02910460Y00687000D01*
G01X02744770Y01760000D02*
X02757640Y01762120D01*
X02768900Y01770580D01*
X02778550Y01783280D01*
X02784990Y01798100D01*
X02788210Y01815030D01*
X02788210Y01831970D01*
X02784990Y01848900D01*
X02778550Y01863720D01*
X02768900Y01876420D01*
X02757640Y01884880D01*
X02744770Y01887000D01*
X02731900Y01884880D01*
X02720640Y01876420D01*
X02710990Y01863720D01*
X02704550Y01848900D01*
X02701330Y01831970D01*
X02701330Y01815030D01*
X02704550Y01798100D01*
X02710990Y01783280D01*
X02720640Y01770580D01*
X02731900Y01762120D01*
X02744770Y01760000D01*
G01X02731900Y01793870D02*
X02712600Y01760000D01*
G01X02615230Y01760000D02*
X02615230Y01887000D01*
X02634530Y01861600D01*
G01X02634530Y01760000D02*
X02595930Y01760000D01*
G01X03133920Y02600000D02*
X03133920Y02727000D01*
X03095320Y02727000D01*
X03082450Y02720650D01*
X03072800Y02705830D01*
X03069580Y02688900D01*
X03072800Y02671970D01*
X03080840Y02659270D01*
X03095320Y02652910D01*
X03133920Y02652910D01*
G01X02972250Y02600000D02*
X02981900Y02602120D01*
X02991550Y02610580D01*
X02997990Y02625400D01*
X03001200Y02642330D01*
X02997990Y02659270D01*
X02991550Y02674080D01*
X02981900Y02682550D01*
X02972250Y02684660D01*
X02962600Y02682550D01*
X02952950Y02674080D01*
X02946520Y02659270D01*
X02944910Y02642330D01*
X02946520Y02625400D01*
X02952950Y02610580D01*
X02962600Y02602120D01*
X02972250Y02600000D01*
G01X02882960Y02684660D02*
X02863660Y02600000D01*
X02842750Y02684660D01*
X02821840Y02600000D01*
X02802540Y02684660D01*
G01X02737370Y02657150D02*
X02685910Y02657150D01*
X02690730Y02671970D01*
X02698770Y02680430D01*
X02710030Y02684660D01*
X02721290Y02682550D01*
X02730940Y02676200D01*
X02737370Y02661380D01*
X02740590Y02648680D01*
X02740590Y02635980D01*
X02737370Y02623280D01*
X02729330Y02610580D01*
X02719680Y02602120D01*
X02708420Y02600000D01*
X02697170Y02604230D01*
X02685910Y02616930D01*
G01X02606270Y02600000D02*
X02606270Y02684660D01*
G01X02606270Y02667730D02*
X02598230Y02676200D01*
X02590180Y02682550D01*
X02578920Y02684660D01*
X02570880Y02682550D01*
X02561230Y02676200D01*
G01X03124270Y02800000D02*
X03124270Y02884660D01*
G01X03124270Y02867730D02*
X03116230Y02876200D01*
X03108180Y02882550D01*
X03096920Y02884660D01*
X03088880Y02882550D01*
X03079230Y02876200D01*
G01X02996370Y02857150D02*
X02944910Y02857150D01*
X02949730Y02871970D01*
X02957770Y02880430D01*
X02969030Y02884660D01*
X02980290Y02882550D01*
X02989940Y02876200D01*
X02996370Y02861380D01*
X02999590Y02848680D01*
X02999590Y02835980D01*
X02996370Y02823280D01*
X02988330Y02810580D01*
X02978680Y02802120D01*
X02967420Y02800000D01*
X02956170Y02804230D01*
X02944910Y02816930D01*
G01X02891000Y02800000D02*
X02891000Y02884660D01*
G01X02891000Y02861380D02*
X02886180Y02871970D01*
X02878130Y02880430D01*
X02866870Y02884660D01*
X02855620Y02880430D01*
X02847580Y02871970D01*
X02842750Y02861380D01*
X02842750Y02800000D01*
G01X02842750Y02861380D02*
X02837920Y02871970D01*
X02829880Y02880430D01*
X02818630Y02884660D01*
X02807370Y02880430D01*
X02799320Y02871970D01*
X02794500Y02859270D01*
X02794500Y02800000D01*
G01X02713250Y02800000D02*
X02722900Y02802120D01*
X02732550Y02810580D01*
X02738990Y02825400D01*
X02742200Y02842330D01*
X02738990Y02859270D01*
X02732550Y02874080D01*
X02722900Y02882550D01*
X02713250Y02884660D01*
X02703600Y02882550D01*
X02693950Y02874080D01*
X02687520Y02859270D01*
X02685910Y02842330D01*
X02687520Y02825400D01*
X02693950Y02810580D01*
X02703600Y02802120D01*
X02713250Y02800000D01*
G01X02583750Y02927000D02*
X02583750Y02800000D01*
G01X02606270Y02884660D02*
X02561230Y02884660D01*
G01X02478370Y02857150D02*
X02426910Y02857150D01*
X02431730Y02871970D01*
X02439770Y02880430D01*
X02451030Y02884660D01*
X02462290Y02882550D01*
X02471940Y02876200D01*
X02478370Y02861380D01*
X02481590Y02848680D01*
X02481590Y02835980D01*
X02478370Y02823280D01*
X02470330Y02810580D01*
X02460680Y02802120D01*
X02449420Y02800000D01*
X02438170Y02804230D01*
X02426910Y02816930D01*
G01X03126290Y03038100D02*
X03114440Y03019050D01*
X03100220Y03006350D01*
X03083620Y03000000D01*
X03064660Y03006350D01*
X03050430Y03019050D01*
X03036210Y03038100D01*
X03031470Y03063500D01*
X03031470Y03190500D01*
G01X02933420Y03158750D02*
X02919200Y03177800D01*
X02902600Y03187330D01*
X02883640Y03190500D01*
X02859930Y03184150D01*
X02843340Y03168270D01*
X02838600Y03149230D01*
X02840970Y03130170D01*
X02850450Y03114300D01*
X02897860Y03082550D01*
X02919200Y03060320D01*
X02933420Y03028570D01*
X02938160Y03000000D01*
X02838600Y03000000D01*
G01X04204930Y-06440000D02*
X04204930Y-06313000D01*
X04172760Y-06313000D01*
X04159890Y-06319350D01*
X04150240Y-06327820D01*
X04142190Y-06340510D01*
X04135760Y-06355340D01*
X04134150Y-06376500D01*
X04135760Y-06397670D01*
X04142190Y-06412490D01*
X04150240Y-06425190D01*
X04159890Y-06433650D01*
X04172760Y-06440000D01*
X04204930Y-06440000D01*
G01X04040000Y-06440000D02*
X04028740Y-06437880D01*
X04015870Y-06431540D01*
X04007830Y-06420950D01*
X04004610Y-06406130D01*
X04007830Y-06391320D01*
X04017480Y-06378620D01*
X04031960Y-06372270D01*
X04048040Y-06372270D01*
X04057700Y-06368030D01*
X04065740Y-06357450D01*
X04068960Y-06342630D01*
X04064130Y-06327820D01*
X04052870Y-06317230D01*
X04040000Y-06313000D01*
X04027130Y-06317230D01*
X04015870Y-06327820D01*
X04011040Y-06342630D01*
X04014260Y-06357450D01*
X04022300Y-06368030D01*
X04031960Y-06372270D01*
X04048040Y-06372270D01*
X04062520Y-06378620D01*
X04072170Y-06391320D01*
X04075390Y-06406130D01*
X04072170Y-06420950D01*
X04064130Y-06431540D01*
X04051260Y-06437880D01*
X04040000Y-06440000D01*
G01X03910460Y-06440000D02*
X03899200Y-06437880D01*
X03886330Y-06431540D01*
X03878290Y-06420950D01*
X03875070Y-06406130D01*
X03878290Y-06391320D01*
X03887940Y-06378620D01*
X03902420Y-06372270D01*
X03918500Y-06372270D01*
X03928160Y-06368030D01*
X03936200Y-06357450D01*
X03939420Y-06342630D01*
X03934590Y-06327820D01*
X03923330Y-06317230D01*
X03910460Y-06313000D01*
X03897590Y-06317230D01*
X03886330Y-06327820D01*
X03881500Y-06342630D01*
X03884720Y-06357450D01*
X03892760Y-06368030D01*
X03902420Y-06372270D01*
X03918500Y-06372270D01*
X03932980Y-06378620D01*
X03942630Y-06391320D01*
X03945850Y-06406130D01*
X03942630Y-06420950D01*
X03934590Y-06431540D01*
X03921720Y-06437880D01*
X03910460Y-06440000D01*
G01X03714610Y-06195770D02*
X03785390Y-06288900D01*
G01X03750000Y-06305830D02*
X03750000Y-06178830D01*
G01X03785390Y-06195770D02*
X03714610Y-06288900D01*
G01X03701740Y-06242330D02*
X03798260Y-06242330D01*
G01X03714610Y-05195770D02*
X03785390Y-05288900D01*
G01X03750000Y-05305830D02*
X03750000Y-05178830D01*
G01X03785390Y-05195770D02*
X03714610Y-05288900D01*
G01X03701740Y-05242330D02*
X03798260Y-05242330D01*
G01X04204930Y-05440000D02*
X04204930Y-05313000D01*
X04172760Y-05313000D01*
X04159890Y-05319350D01*
X04150240Y-05327820D01*
X04142190Y-05340510D01*
X04135760Y-05355340D01*
X04134150Y-05376500D01*
X04135760Y-05397670D01*
X04142190Y-05412490D01*
X04150240Y-05425190D01*
X04159890Y-05433650D01*
X04172760Y-05440000D01*
X04204930Y-05440000D01*
G01X04043220Y-05440000D02*
X04040000Y-05412490D01*
X04035170Y-05389200D01*
X04028740Y-05368030D01*
X04020700Y-05344750D01*
X04007830Y-05313000D01*
X04072170Y-05313000D01*
G01X03913680Y-05440000D02*
X03910460Y-05412490D01*
X03905630Y-05389200D01*
X03899200Y-05368030D01*
X03891160Y-05344750D01*
X03878290Y-05313000D01*
X03942630Y-05313000D01*
G01X03714610Y-04195770D02*
X03785390Y-04288900D01*
G01X03750000Y-04305830D02*
X03750000Y-04178830D01*
G01X03785390Y-04195770D02*
X03714610Y-04288900D01*
G01X03701740Y-04242330D02*
X03798260Y-04242330D01*
G01X04204930Y-04440000D02*
X04204930Y-04313000D01*
X04172760Y-04313000D01*
X04159890Y-04319350D01*
X04150240Y-04327820D01*
X04142190Y-04340510D01*
X04135760Y-04355340D01*
X04134150Y-04376500D01*
X04135760Y-04397670D01*
X04142190Y-04412490D01*
X04150240Y-04425190D01*
X04159890Y-04433650D01*
X04172760Y-04440000D01*
X04204930Y-04440000D01*
G01X04070570Y-04387090D02*
X04059300Y-04372270D01*
X04049650Y-04363800D01*
X04036780Y-04359570D01*
X04025520Y-04363800D01*
X04017480Y-04372270D01*
X04011040Y-04384970D01*
X04009430Y-04399780D01*
X04011040Y-04412490D01*
X04017480Y-04425190D01*
X04027130Y-04435770D01*
X04038390Y-04440000D01*
X04051260Y-04435770D01*
X04062520Y-04423070D01*
X04068960Y-04404020D01*
X04070570Y-04382850D01*
X04067350Y-04355340D01*
X04062520Y-04340510D01*
X04054480Y-04325700D01*
X04043220Y-04315120D01*
X04031960Y-04313000D01*
X04020700Y-04317230D01*
X04012650Y-04327820D01*
G01X03941030Y-04387090D02*
X03929760Y-04372270D01*
X03920110Y-04363800D01*
X03907240Y-04359570D01*
X03895980Y-04363800D01*
X03887940Y-04372270D01*
X03881500Y-04384970D01*
X03879890Y-04399780D01*
X03881500Y-04412490D01*
X03887940Y-04425190D01*
X03897590Y-04435770D01*
X03908850Y-04440000D01*
X03921720Y-04435770D01*
X03932980Y-04423070D01*
X03939420Y-04404020D01*
X03941030Y-04382850D01*
X03937810Y-04355340D01*
X03932980Y-04340510D01*
X03924940Y-04325700D01*
X03913680Y-04315120D01*
X03902420Y-04313000D01*
X03891160Y-04317230D01*
X03883110Y-04327820D01*
G01X04204930Y-03440000D02*
X04204930Y-03313000D01*
X04172760Y-03313000D01*
X04159890Y-03319350D01*
X04150240Y-03327820D01*
X04142190Y-03340510D01*
X04135760Y-03355340D01*
X04134150Y-03376500D01*
X04135760Y-03397670D01*
X04142190Y-03412490D01*
X04150240Y-03425190D01*
X04159890Y-03433650D01*
X04172760Y-03440000D01*
X04204930Y-03440000D01*
G01X04075390Y-03420950D02*
X04065740Y-03431540D01*
X04054480Y-03437880D01*
X04040000Y-03440000D01*
X04025520Y-03435770D01*
X04014260Y-03427300D01*
X04006220Y-03412490D01*
X04004610Y-03395550D01*
X04007830Y-03378620D01*
X04015870Y-03368030D01*
X04027130Y-03359570D01*
X04038390Y-03357450D01*
X04049650Y-03359570D01*
X04064130Y-03368030D01*
X04059300Y-03313000D01*
X04015870Y-03313000D01*
G01X03945850Y-03420950D02*
X03936200Y-03431540D01*
X03924940Y-03437880D01*
X03910460Y-03440000D01*
X03895980Y-03435770D01*
X03884720Y-03427300D01*
X03876680Y-03412490D01*
X03875070Y-03395550D01*
X03878290Y-03378620D01*
X03886330Y-03368030D01*
X03897590Y-03359570D01*
X03908850Y-03357450D01*
X03920110Y-03359570D01*
X03934590Y-03368030D01*
X03929760Y-03313000D01*
X03886330Y-03313000D01*
G01X03714610Y-03195770D02*
X03785390Y-03288900D01*
G01X03750000Y-03305830D02*
X03750000Y-03178830D01*
G01X03785390Y-03195770D02*
X03714610Y-03288900D01*
G01X03701740Y-03242330D02*
X03798260Y-03242330D01*
G01X03714610Y-02195770D02*
X03785390Y-02288900D01*
G01X03750000Y-02305830D02*
X03750000Y-02178830D01*
G01X03785390Y-02195770D02*
X03714610Y-02288900D01*
G01X03701740Y-02242330D02*
X03798260Y-02242330D01*
G01X04204930Y-02440000D02*
X04204930Y-02313000D01*
X04172760Y-02313000D01*
X04159890Y-02319350D01*
X04150240Y-02327820D01*
X04142190Y-02340510D01*
X04135760Y-02355340D01*
X04134150Y-02376500D01*
X04135760Y-02397670D01*
X04142190Y-02412490D01*
X04150240Y-02425190D01*
X04159890Y-02433650D01*
X04172760Y-02440000D01*
X04204930Y-02440000D01*
G01X04020700Y-02440000D02*
X04020700Y-02313000D01*
X04080220Y-02404020D01*
X03999780Y-02404020D01*
G01X03891160Y-02440000D02*
X03891160Y-02313000D01*
X03950680Y-02404020D01*
X03870240Y-02404020D01*
G01X03714610Y-01195770D02*
X03785390Y-01288900D01*
G01X03750000Y-01305830D02*
X03750000Y-01178830D01*
G01X03785390Y-01195770D02*
X03714610Y-01288900D01*
G01X03701740Y-01242330D02*
X03798260Y-01242330D01*
G01X04204930Y-01440000D02*
X04204930Y-01313000D01*
X04172760Y-01313000D01*
X04159890Y-01319350D01*
X04150240Y-01327820D01*
X04142190Y-01340510D01*
X04135760Y-01355340D01*
X04134150Y-01376500D01*
X04135760Y-01397670D01*
X04142190Y-01412490D01*
X04150240Y-01425190D01*
X04159890Y-01433650D01*
X04172760Y-01440000D01*
X04204930Y-01440000D01*
G01X04075390Y-01414600D02*
X04065740Y-01429420D01*
X04052870Y-01437880D01*
X04038390Y-01440000D01*
X04025520Y-01437880D01*
X04012650Y-01427300D01*
X04004610Y-01414600D01*
X04003000Y-01401900D01*
X04006220Y-01387090D01*
X04017480Y-01376500D01*
X04028740Y-01372270D01*
X04043220Y-01372270D01*
G01X04028740Y-01372270D02*
X04019090Y-01365920D01*
X04011040Y-01355340D01*
X04007830Y-01342630D01*
X04011040Y-01329930D01*
X04019090Y-01319350D01*
X04033570Y-01313000D01*
X04048040Y-01315120D01*
X04062520Y-01323580D01*
G01X03945850Y-01414600D02*
X03936200Y-01429420D01*
X03923330Y-01437880D01*
X03908850Y-01440000D01*
X03895980Y-01437880D01*
X03883110Y-01427300D01*
X03875070Y-01414600D01*
X03873460Y-01401900D01*
X03876680Y-01387090D01*
X03887940Y-01376500D01*
X03899200Y-01372270D01*
X03913680Y-01372270D01*
G01X03899200Y-01372270D02*
X03889550Y-01365920D01*
X03881500Y-01355340D01*
X03878290Y-01342630D01*
X03881500Y-01329930D01*
X03889550Y-01319350D01*
X03904030Y-01313000D01*
X03918500Y-01315120D01*
X03932980Y-01323580D01*
G01X04204930Y-00440000D02*
X04204930Y-00313000D01*
X04172760Y-00313000D01*
X04159890Y-00319350D01*
X04150240Y-00327820D01*
X04142190Y-00340510D01*
X04135760Y-00355340D01*
X04134150Y-00376500D01*
X04135760Y-00397670D01*
X04142190Y-00412490D01*
X04150240Y-00425190D01*
X04159890Y-00433650D01*
X04172760Y-00440000D01*
X04204930Y-00440000D01*
G01X04070570Y-00334170D02*
X04060910Y-00321470D01*
X04049650Y-00315120D01*
X04036780Y-00313000D01*
X04020700Y-00317230D01*
X04009430Y-00327820D01*
X04006220Y-00340510D01*
X04007830Y-00353220D01*
X04014260Y-00363800D01*
X04046430Y-00384970D01*
X04060910Y-00399780D01*
X04070570Y-00420950D01*
X04073780Y-00440000D01*
X04006220Y-00440000D01*
G01X03941030Y-00334170D02*
X03931370Y-00321470D01*
X03920110Y-00315120D01*
X03907240Y-00313000D01*
X03891160Y-00317230D01*
X03879890Y-00327820D01*
X03876680Y-00340510D01*
X03878290Y-00353220D01*
X03884720Y-00363800D01*
X03916890Y-00384970D01*
X03931370Y-00399780D01*
X03941030Y-00420950D01*
X03944240Y-00440000D01*
X03876680Y-00440000D01*
G01X03714610Y-00195770D02*
X03785390Y-00288900D01*
G01X03750000Y-00305830D02*
X03750000Y-00178830D01*
G01X03785390Y-00195770D02*
X03714610Y-00288900D01*
G01X03701740Y-00242330D02*
X03798260Y-00242330D01*
G01X03714610Y00804230D02*
X03785390Y00711100D01*
G01X03750000Y00694170D02*
X03750000Y00821170D01*
G01X03785390Y00804230D02*
X03714610Y00711100D01*
G01X03701740Y00757670D02*
X03798260Y00757670D01*
G01X04204930Y00560000D02*
X04204930Y00687000D01*
X04172760Y00687000D01*
X04159890Y00680650D01*
X04150240Y00672180D01*
X04142190Y00659490D01*
X04135760Y00644660D01*
X04134150Y00623500D01*
X04135760Y00602330D01*
X04142190Y00587510D01*
X04150240Y00574810D01*
X04159890Y00566350D01*
X04172760Y00560000D01*
X04204930Y00560000D01*
G01X04040000Y00560000D02*
X04040000Y00687000D01*
X04059300Y00661600D01*
G01X04059300Y00560000D02*
X04020700Y00560000D01*
G01X03910460Y00560000D02*
X03910460Y00687000D01*
X03929760Y00661600D01*
G01X03929760Y00560000D02*
X03891160Y00560000D01*
M02*
