G04 ================== begin FILE IDENTIFICATION RECORD ==================*
G04 Layout Name:  sensor_board_routing.brd*
G04 Film Name:    Solderpaste_bot*
G04 File Format:  Gerber RS274X*
G04 File Origin:  Cadence Allegro 17.4-S017*
G04 Origin Date:  Fri Oct  1 12:49:59 2021*
G04 *
G04 Layer:  PACKAGE GEOMETRY/PASTEMASK_BOTTOM*
G04 Layer:  VIA CLASS/PASTEMASK_BOTTOM*
G04 Layer:  PIN/PASTEMASK_BOTTOM*
G04 *
G04 Offset:    (0.0000 0.0000)*
G04 Mirror:    No*
G04 Mode:      Positive*
G04 Rotation:  0*
G04 FullContactRelief:  No*
G04 UndefLineWidth:     0.2500*
G04 ================== end FILE IDENTIFICATION RECORD ====================*
%FSAX35Y35*MOMM*%
%IR0*IPPOS*OFA0.00000B0.00000*MIA0B0*SFA1.00000B1.00000*%
%ADD12R,1.1X.46*%
%ADD10R,1.X.85*%
%ADD11R,1.27X1.27*%
%LPD*%
G75*
G54D10*
X-06115000Y-06200000D03*
X-06115000Y-05200000D03*
X-06115000Y-04200000D03*
X-06115000Y-03200000D03*
X-06115000Y-02200000D03*
X-06115000Y-01200000D03*
X-06115000Y-00200000D03*
X-06115000Y00800000D03*
X-05765000Y-06200000D03*
X-05765000Y-05200000D03*
X-05765000Y-04200000D03*
X-05765000Y-03200000D03*
X-05765000Y-02200000D03*
X-05765000Y-01200000D03*
X-05765000Y-00200000D03*
X-05765000Y00800000D03*
X-04765000Y-06200000D03*
X-05115000Y-06200000D03*
X-04765000Y-05200000D03*
X-05115000Y-05200000D03*
X-04765000Y-04200000D03*
X-05115000Y-04200000D03*
X-04765000Y-03200000D03*
X-05115000Y-03200000D03*
X-04765000Y-02200000D03*
X-05115000Y-02200000D03*
X-04765000Y-01200000D03*
X-05115000Y-01200000D03*
X-04765000Y-00200000D03*
X-05115000Y-00200000D03*
X-04765000Y00800000D03*
X-05115000Y00800000D03*
X-04115000Y-06200000D03*
X-04115000Y-05200000D03*
X-04115000Y-04200000D03*
X-04115000Y-03200000D03*
X-04115000Y-02200000D03*
X-04115000Y-01200000D03*
X-04115000Y-00200000D03*
X-04115000Y00800000D03*
X-03765000Y-06200000D03*
X-03765000Y-05200000D03*
X-03765000Y-04200000D03*
X-03765000Y-03200000D03*
X-03765000Y-02200000D03*
X-03765000Y-01200000D03*
X-03765000Y-00200000D03*
X-03765000Y00800000D03*
X-03115000Y-06200000D03*
X-03115000Y-05200000D03*
X-03115000Y-04200000D03*
X-03115000Y-03200000D03*
X-03115000Y-02200000D03*
X-03115000Y-01200000D03*
X-03115000Y-00200000D03*
X-03115000Y00800000D03*
X-02765000Y-06200000D03*
X-02765000Y-05200000D03*
X-02765000Y-04200000D03*
X-02765000Y-03200000D03*
X-02765000Y-02200000D03*
X-02765000Y-01200000D03*
X-02765000Y-00200000D03*
X-02765000Y00800000D03*
X-01765000Y-06200000D03*
X-02115000Y-06200000D03*
X-01765000Y-05200000D03*
X-02115000Y-05200000D03*
X-01765000Y-04200000D03*
X-02115000Y-04200000D03*
X-01765000Y-03200000D03*
X-02115000Y-03200000D03*
X-01765000Y-02200000D03*
X-02115000Y-02200000D03*
X-01765000Y-01200000D03*
X-02115000Y-01200000D03*
X-01765000Y-00200000D03*
X-02115000Y-00200000D03*
X-01765000Y00800000D03*
X-02115000Y00800000D03*
X-00765000Y-06200000D03*
X-01115000Y-06200000D03*
X-00765000Y-05200000D03*
X-01115000Y-05200000D03*
X-00765000Y-04200000D03*
X-01115000Y-04200000D03*
X-00765000Y-03200000D03*
X-01115000Y-03200000D03*
X-00765000Y-02200000D03*
X-01115000Y-02200000D03*
X-00765000Y-01200000D03*
X-01115000Y-01200000D03*
X-00765000Y-00200000D03*
X-01115000Y-00200000D03*
X-00765000Y00800000D03*
X-01115000Y00800000D03*
X-00115000Y-06200000D03*
X-00115000Y-05200000D03*
X-00115000Y-04200000D03*
X-00115000Y-03200000D03*
X-00115000Y-02200000D03*
X-00115000Y-01200000D03*
X-00115000Y-00200000D03*
X-00115000Y00800000D03*
X00235000Y-06200000D03*
X00235000Y-05200000D03*
X00235000Y-04200000D03*
X00235000Y-03200000D03*
X00235000Y-02200000D03*
X00235000Y-01200000D03*
X00235000Y-00200000D03*
X00235000Y00800000D03*
X01235000Y-06200000D03*
X00885000Y-06200000D03*
X01235000Y-05200000D03*
X00885000Y-05200000D03*
X01235000Y-04200000D03*
X00885000Y-04200000D03*
X01235000Y-03200000D03*
X00885000Y-03200000D03*
X01235000Y-02200000D03*
X00885000Y-02200000D03*
X01235000Y-01200000D03*
X00885000Y-01200000D03*
X01235000Y-00200000D03*
X00885000Y-00200000D03*
X01235000Y00800000D03*
X00885000Y00800000D03*
X02235000Y-06200000D03*
X01885000Y-06200000D03*
X02235000Y-05200000D03*
X01885000Y-05200000D03*
X02235000Y-04200000D03*
X01885000Y-04200000D03*
X02235000Y-03200000D03*
X01885000Y-03200000D03*
X02235000Y-02200000D03*
X01885000Y-02200000D03*
X02235000Y-01200000D03*
X01885000Y-01200000D03*
X02235000Y-00200000D03*
X01885000Y-00200000D03*
X02235000Y00800000D03*
X01885000Y00800000D03*
X02885000Y-06200000D03*
X02885000Y-05200000D03*
X02885000Y-04200000D03*
X02885000Y-03200000D03*
X02885000Y-02200000D03*
X02885000Y-01200000D03*
X02885000Y-00200000D03*
X02885000Y00800000D03*
X03235000Y-06200000D03*
X03235000Y-05200000D03*
X03235000Y-04200000D03*
X03235000Y-03200000D03*
X03235000Y-02200000D03*
X03235000Y-01200000D03*
X03235000Y-00200000D03*
X03235000Y00800000D03*
X03885000Y-06200000D03*
X03885000Y-05200000D03*
X03885000Y-04200000D03*
X03885000Y-03200000D03*
X03885000Y-02200000D03*
X03885000Y-01200000D03*
X03885000Y-00200000D03*
X03885000Y00800000D03*
X04235000Y-06200000D03*
X04235000Y-05200000D03*
X04235000Y-04200000D03*
X04235000Y-03200000D03*
X04235000Y-02200000D03*
X04235000Y-01200000D03*
X04235000Y-00200000D03*
X04235000Y00800000D03*
G54D11*
X01920000Y01940000D03*
X01920000Y02153360D03*
G54D12*
X02730000Y02080000D03*
X02550000Y02150000D03*
X02550000Y02010000D03*
M02*
