G04 ================== begin FILE IDENTIFICATION RECORD ==================*
G04 Layout Name:  sensor_board_routing.brd*
G04 Film Name:    Soldermask_bot*
G04 File Format:  Gerber RS274X*
G04 File Origin:  Cadence Allegro 17.4-S017*
G04 Origin Date:  Mon Sep 27 18:23:25 2021*
G04 *
G04 Layer:  PIN/SOLDERMASK_BOTTOM*
G04 Layer:  VIA CLASS/SOLDERMASK_BOTTOM*
G04 Layer:  PACKAGE GEOMETRY/SOLDERMASK_BOTTOM*
G04 Layer:  BOARD GEOMETRY/SOLDERMASK_BOTTOM*
G04 *
G04 Offset:    (0.0000 0.0000)*
G04 Mirror:    No*
G04 Mode:      Positive*
G04 Rotation:  0*
G04 FullContactRelief:  No*
G04 UndefLineWidth:     0.2500*
G04 ================== end FILE IDENTIFICATION RECORD ====================*
%FSAX35Y35*MOMM*%
%IR0*IPPOS*OFA0.00000B0.00000*MIA0B0*SFA1.00000B1.00000*%
%ADD10R,1.1X.61*%
%ADD18R,1.1X.46*%
%ADD16C,.5*%
%ADD12C,4.5*%
%ADD13C,1.27*%
%ADD14C,1.4732*%
%ADD11R,1.27X1.27*%
%ADD17R,1.524X1.524*%
%ADD15R,1.4732X1.4732*%
%LPD*%
G75*
G54D10*
X-06112500Y-06200000D03*
X-06112500Y-05200000D03*
X-06112500Y-04200000D03*
X-06112500Y-03200000D03*
X-06112500Y-02200000D03*
X-06112500Y-01200000D03*
X-06112500Y-00200000D03*
X-06112500Y00800000D03*
X-05767500Y-06200000D03*
X-05767500Y-05200000D03*
X-05767500Y-04200000D03*
X-05767500Y-03200000D03*
X-05767500Y-02200000D03*
X-05767500Y-01200000D03*
X-05767500Y-00200000D03*
X-05767500Y00800000D03*
X-05112500Y-06200000D03*
X-05112500Y-05200000D03*
X-05112500Y-04200000D03*
X-05112500Y-03200000D03*
X-05112500Y-02200000D03*
X-05112500Y-01200000D03*
X-05112500Y-00200000D03*
X-05112500Y00800000D03*
X-04767500Y-06200000D03*
X-04767500Y-05200000D03*
X-04767500Y-04200000D03*
X-04767500Y-03200000D03*
X-04767500Y-02200000D03*
X-04767500Y-01200000D03*
X-04767500Y-00200000D03*
X-04767500Y00800000D03*
X-04112500Y-06200000D03*
X-04112500Y-05200000D03*
X-04112500Y-04200000D03*
X-04112500Y-03200000D03*
X-04112500Y-02200000D03*
X-04112500Y-01200000D03*
X-04112500Y-00200000D03*
X-04112500Y00800000D03*
X-03767500Y-06200000D03*
X-03767500Y-05200000D03*
X-03767500Y-04200000D03*
X-03767500Y-03200000D03*
X-03767500Y-02200000D03*
X-03767500Y-01200000D03*
X-03767500Y-00200000D03*
X-03767500Y00800000D03*
X-02767500Y-06200000D03*
X-03112500Y-06200000D03*
X-02767500Y-05200000D03*
X-03112500Y-05200000D03*
X-02767500Y-04200000D03*
X-03112500Y-04200000D03*
X-02767500Y-03200000D03*
X-03112500Y-03200000D03*
X-02767500Y-02200000D03*
X-03112500Y-02200000D03*
X-02767500Y-01200000D03*
X-03112500Y-01200000D03*
X-02767500Y-00200000D03*
X-03112500Y-00200000D03*
X-02767500Y00800000D03*
X-03112500Y00800000D03*
X-01767500Y-06200000D03*
X-02112500Y-06200000D03*
X-01767500Y-05200000D03*
X-02112500Y-05200000D03*
X-01767500Y-04200000D03*
X-02112500Y-04200000D03*
X-01767500Y-03200000D03*
X-02112500Y-03200000D03*
X-01767500Y-02200000D03*
X-02112500Y-02200000D03*
X-01767500Y-01200000D03*
X-02112500Y-01200000D03*
X-01767500Y-00200000D03*
X-02112500Y-00200000D03*
X-01767500Y00800000D03*
X-02112500Y00800000D03*
X-01112500Y-06200000D03*
X-01112500Y-05200000D03*
X-01112500Y-04200000D03*
X-01112500Y-03200000D03*
X-01112500Y-02200000D03*
X-01112500Y-01200000D03*
X-01112500Y-00200000D03*
X-01112500Y00800000D03*
X-00767500Y-06200000D03*
X-00767500Y-05200000D03*
X-00767500Y-04200000D03*
X-00767500Y-03200000D03*
X-00767500Y-02200000D03*
X-00767500Y-01200000D03*
X-00767500Y-00200000D03*
X-00767500Y00800000D03*
X-00112500Y-06200000D03*
X-00112500Y-05200000D03*
X-00112500Y-04200000D03*
X-00112500Y-03200000D03*
X-00112500Y-02200000D03*
X-00112500Y-01200000D03*
X-00112500Y-00200000D03*
X-00112500Y00800000D03*
X00232500Y-06200000D03*
X00232500Y-05200000D03*
X00232500Y-04200000D03*
X00232500Y-03200000D03*
X00232500Y-02200000D03*
X00232500Y-01200000D03*
X00232500Y-00200000D03*
X00232500Y00800000D03*
X00887500Y-06200000D03*
X00887500Y-05200000D03*
X00887500Y-04200000D03*
X00887500Y-03200000D03*
X00887500Y-02200000D03*
X00887500Y-01200000D03*
X00887500Y-00200000D03*
X00887500Y00800000D03*
X01232500Y-06200000D03*
X01232500Y-05200000D03*
X01232500Y-04200000D03*
X01232500Y-03200000D03*
X01232500Y-02200000D03*
X01232500Y-01200000D03*
X01232500Y-00200000D03*
X01232500Y00800000D03*
X02232500Y-06200000D03*
X01887500Y-06200000D03*
X02232500Y-05200000D03*
X01887500Y-05200000D03*
X02232500Y-04200000D03*
X01887500Y-04200000D03*
X02232500Y-03200000D03*
X01887500Y-03200000D03*
X02232500Y-02200000D03*
X01887500Y-02200000D03*
X02232500Y-01200000D03*
X01887500Y-01200000D03*
X02232500Y-00200000D03*
X01887500Y-00200000D03*
X02232500Y00800000D03*
X01887500Y00800000D03*
X03232500Y-06200000D03*
X02887500Y-06200000D03*
X03232500Y-05200000D03*
X02887500Y-05200000D03*
X03232500Y-04200000D03*
X02887500Y-04200000D03*
X03232500Y-03200000D03*
X02887500Y-03200000D03*
X03232500Y-02200000D03*
X02887500Y-02200000D03*
X03232500Y-01200000D03*
X02887500Y-01200000D03*
X03232500Y-00200000D03*
X02887500Y-00200000D03*
X03232500Y00800000D03*
X02887500Y00800000D03*
X03887500Y-06200000D03*
X03887500Y-05200000D03*
X03887500Y-04200000D03*
X03887500Y-03200000D03*
X03887500Y-02200000D03*
X03887500Y-01200000D03*
X03887500Y-00200000D03*
X03887500Y00800000D03*
X04232500Y-06200000D03*
X04232500Y-05200000D03*
X04232500Y-04200000D03*
X04232500Y-03200000D03*
X04232500Y-02200000D03*
X04232500Y-01200000D03*
X04232500Y-00200000D03*
X04232500Y00800000D03*
G54D11*
X-06180000Y-06000000D03*
X-06180000Y-05000000D03*
X-06180000Y-04000000D03*
X-06180000Y-03000000D03*
X-06180000Y-02000000D03*
X-06180000Y-01000000D03*
X-06180000Y0D03*
X-06180000Y01000000D03*
X-05180000Y-06000000D03*
X-05180000Y-05000000D03*
X-05180000Y-04000000D03*
X-05180000Y-03000000D03*
X-05180000Y-02000000D03*
X-05180000Y-01000000D03*
X-05180000Y0D03*
X-05180000Y01000000D03*
X-04180000Y-06000000D03*
X-04180000Y-05000000D03*
X-04180000Y-04000000D03*
X-04180000Y-03000000D03*
X-04180000Y-02000000D03*
X-04180000Y-01000000D03*
X-04180000Y0D03*
X-04180000Y01000000D03*
X-03180000Y-06000000D03*
X-03180000Y-05000000D03*
X-03180000Y-04000000D03*
X-03180000Y-03000000D03*
X-03180000Y-02000000D03*
X-03180000Y-01000000D03*
X-03180000Y0D03*
X-03180000Y01000000D03*
X-02180000Y-06000000D03*
X-02180000Y-05000000D03*
X-02180000Y-04000000D03*
X-02180000Y-03000000D03*
X-02180000Y-02000000D03*
X-02180000Y-01000000D03*
X-02180000Y0D03*
X-02180000Y01000000D03*
X-01180000Y-06000000D03*
X-01180000Y-05000000D03*
X-01180000Y-04000000D03*
X-01180000Y-03000000D03*
X-01180000Y-02000000D03*
X-01180000Y-01000000D03*
X-01180000Y0D03*
X-01180000Y01000000D03*
X-00180000Y-06000000D03*
X-00180000Y-05000000D03*
X-00180000Y-04000000D03*
X-00180000Y-03000000D03*
X-00180000Y-02000000D03*
X-00180000Y-01000000D03*
X-00180000Y0D03*
X-00180000Y01000000D03*
X00820000Y-06000000D03*
X00820000Y-05000000D03*
X00820000Y-04000000D03*
X00820000Y-03000000D03*
X00820000Y-02000000D03*
X00820000Y-01000000D03*
X00820000Y0D03*
X00820000Y01000000D03*
X01820000Y-06000000D03*
X01820000Y-05000000D03*
X01820000Y-04000000D03*
X01820000Y-03000000D03*
X01820000Y-02000000D03*
X01820000Y-01000000D03*
X01820000Y0D03*
X01820000Y01000000D03*
X01920000Y01940000D03*
X01920000Y02153360D03*
X02820000Y-06000000D03*
X02820000Y-05000000D03*
X02820000Y-04000000D03*
X02820000Y-03000000D03*
X02820000Y-02000000D03*
X02820000Y-01000000D03*
X02820000Y0D03*
X02820000Y01000000D03*
X03820000Y-06000000D03*
X03820000Y-05000000D03*
X03820000Y-04000000D03*
X03820000Y-03000000D03*
X03820000Y-02000000D03*
X03820000Y-01000000D03*
X03820000Y0D03*
X03820000Y01000000D03*
G54D12*
X-05500000Y-06600000D03*
X-05500000Y03500000D03*
X03500000Y-06600000D03*
X03500000Y03500000D03*
G54D13*
X-05839640Y-06000000D03*
X-05839640Y-05000000D03*
X-05839640Y-04000000D03*
X-05839640Y-03000000D03*
X-05839640Y-02000000D03*
X-05839640Y-01000000D03*
X-05839640Y0D03*
X-05839640Y01000000D03*
X-04839640Y-06000000D03*
X-04839640Y-05000000D03*
X-04839640Y-04000000D03*
X-04839640Y-03000000D03*
X-04839640Y-02000000D03*
X-04839640Y-01000000D03*
X-04839640Y0D03*
X-04839640Y01000000D03*
X-03839640Y-06000000D03*
X-03839640Y-05000000D03*
X-03839640Y-04000000D03*
X-03839640Y-03000000D03*
X-03839640Y-02000000D03*
X-03839640Y-01000000D03*
X-03839640Y0D03*
X-03839640Y01000000D03*
X-02839640Y-06000000D03*
X-02839640Y-05000000D03*
X-02839640Y-04000000D03*
X-02839640Y-03000000D03*
X-02839640Y-02000000D03*
X-02839640Y-01000000D03*
X-02839640Y0D03*
X-02839640Y01000000D03*
X-01839640Y-06000000D03*
X-01839640Y-05000000D03*
X-01839640Y-04000000D03*
X-01839640Y-03000000D03*
X-01839640Y-02000000D03*
X-01839640Y-01000000D03*
X-01839640Y0D03*
X-01839640Y01000000D03*
X-00839640Y-06000000D03*
X-00839640Y-05000000D03*
X-00839640Y-04000000D03*
X-00839640Y-03000000D03*
X-00839640Y-02000000D03*
X-00839640Y-01000000D03*
X-00839640Y0D03*
X-00839640Y01000000D03*
X00160360Y-06000000D03*
X00160360Y-05000000D03*
X00160360Y-04000000D03*
X00160360Y-03000000D03*
X00160360Y-02000000D03*
X00160360Y-01000000D03*
X00160360Y0D03*
X00160360Y01000000D03*
X01160360Y-06000000D03*
X01160360Y-05000000D03*
X01160360Y-04000000D03*
X01160360Y-03000000D03*
X01160360Y-02000000D03*
X01160360Y-01000000D03*
X01160360Y0D03*
X01160360Y01000000D03*
X02160360Y-06000000D03*
X02160360Y-05000000D03*
X02160360Y-04000000D03*
X02160360Y-03000000D03*
X02160360Y-02000000D03*
X02160360Y-01000000D03*
X02160360Y0D03*
X02160360Y01000000D03*
X03160360Y-06000000D03*
X03160360Y-05000000D03*
X03160360Y-04000000D03*
X03160360Y-03000000D03*
X03160360Y-02000000D03*
X03160360Y-01000000D03*
X03160360Y0D03*
X03160360Y01000000D03*
X04160360Y-06000000D03*
X04160360Y-05000000D03*
X04160360Y-04000000D03*
X04160360Y-03000000D03*
X04160360Y-02000000D03*
X04160360Y-01000000D03*
X04160360Y0D03*
X04160360Y01000000D03*
G54D14*
X-04713000Y01598000D03*
X-04459000Y01598000D03*
X-04459000Y03122000D03*
X-04205000Y01598000D03*
X-03951000Y01598000D03*
X-03951000Y03122000D03*
X-04205000Y03122000D03*
X-03697000Y01598000D03*
X-03443000Y01598000D03*
X-03443000Y03122000D03*
X-03697000Y03122000D03*
X-03189000Y01598000D03*
X-02935000Y01598000D03*
X-02681000Y01598000D03*
X-02681000Y03122000D03*
X-02935000Y03122000D03*
X-03189000Y03122000D03*
X-02427000Y01598000D03*
X-02173000Y01598000D03*
X-02173000Y03122000D03*
X-02427000Y03122000D03*
X-01919000Y01598000D03*
X-01665000Y01598000D03*
X-01665000Y03122000D03*
X-01919000Y03122000D03*
X-01411000Y01598000D03*
X-01157000Y01598000D03*
X-01157000Y03122000D03*
X-01411000Y03122000D03*
X-00903000Y01598000D03*
X-00649000Y01598000D03*
X-00649000Y03122000D03*
X-00903000Y03122000D03*
X-00395000Y01598000D03*
X-00141000Y01598000D03*
X-00141000Y03122000D03*
X-00395000Y03122000D03*
X00113000Y01598000D03*
X00113000Y03122000D03*
X01084000Y03800000D03*
X00830000Y03800000D03*
X01514000Y03100000D03*
X01592000Y03800000D03*
X01338000Y03800000D03*
X01768000Y03100000D03*
X01846000Y03800000D03*
X02534000Y03100000D03*
G54D15*
X-04713000Y03122000D03*
X01260000Y03100000D03*
X02280000Y03100000D03*
X02100000Y03800000D03*
G54D16*
X-02650000Y-06100000D03*
X-02575000Y-05225000D03*
X-02500000Y-04225000D03*
X-02425000Y-03225000D03*
X-01625000Y-02175000D03*
X-01550000Y-01225000D03*
X-01475000Y-00175000D03*
X-01400000Y00800000D03*
X0Y03300000D03*
X-00250000Y03300000D03*
X01050000Y01800000D03*
X01125000Y02000000D03*
X01500000Y01575000D03*
X01275000Y01550000D03*
X01675000Y02150000D03*
X01600000Y01700000D03*
X02200000Y02200000D03*
X01750000Y01950000D03*
X01750000Y02350000D03*
X02025000Y02375000D03*
G54D17*
X01320000Y02140000D03*
X01320000Y01809800D03*
G54D18*
X02730000Y02080000D03*
X02550000Y02150000D03*
X02550000Y02010000D03*
M02*
